<?xml version="1.0" encoding="utf-8"?>
<!-- Generator: Adobe Illustrator 28.2.0, SVG Export Plug-In . SVG Version: 6.00 Build 0)  -->
<svg version="1.1" id="_レイヤー_1" xmlns="http://www.w3.org/2000/svg" xmlns:xlink="http://www.w3.org/1999/xlink" x="0px"
	 y="0px" viewBox="0 0 512 512" style="enable-background:new 0 0 512 512;" xml:space="preserve">
<style type="text/css">
	.st0{fill:#FFFFFF;}
	.st1{fill:#E5E5E5;}
	.st2{fill:#001545;}
</style>
<path class="st0" d="M22,0h467.6c12.2,0,22.2,9.9,22.2,22.2v467.6c0,12.2-9.9,22.2-22.2,22.2H22C9.7,512-0.2,502-0.2,489.8V22.2
	C-0.2,9.9,9.7,0,22,0z"/>
<path class="st1" d="M511.5,251.4v238.4c0,12.2-9.9,22.2-22.2,22.2H262L61.8,311.8h50.6v2.4l0.4,5l1.1,4.7l1.9,4.4l2.4,3.8l3.2,3.6
	l3.5,3l4.1,2.5l4.5,2l4.7,1.1l5.1,0.4l5.1-0.4l4.8-1.1l4.3-2l4.1-2.5l3.6-3l3.1-3.6l2.5-3.8l1.9-4.4l1.1-4.7l0.4-5v-2.4h139.2v2.2
	l0.4,5l1.1,4.7l1.9,4.3l2.6,4l3,3.6l3.5,3l4,2.4l4.5,1.9l4.7,1.2l5,0.4l5-0.4l4.8-1.2l4.4-1.9l4.1-2.4l3.6-3l3-3.6l2.5-4l2-4.3
	l1.1-4.7l0.4-5v-2.2h74.8V205.1l-0.4-5.5l-1.3-5.4l-1.8-5l-2.7-4.7l-3.2-4.1L511.5,251.4L511.5,251.4z"/>
<path class="st2" d="M449.4,199.6l-1.3-5.4l-1.8-5l-2.7-4.7l-3.2-4.1l-3.8-3.7l-4.3-3.4l-4.6-2.5l-5.2-1.9l-5.4-1.2l-5.7-0.4h0
	l-326.6,0l-2.2,0.4l-1.8,0.6l-1.6,1.4l-1.1,1.5l-0.8,1.9l-15.7,77.3v61.3h50.7v2.4l0.4,5l1.1,4.7l1.9,4.4l2.4,3.8l3.2,3.6l3.5,3
	l4.1,2.5l4.5,2l4.7,1.1l5.1,0.4l5.1-0.4l4.8-1.1l4.3-2l4.1-2.5l3.6-3l3.1-3.6l2.5-3.8l1.9-4.4l1.1-4.7l0.4-5v-2.4h139.2v2.2l0.4,5
	l1.1,4.7l1.9,4.3l2.6,4l3,3.6l3.5,3l4,2.4l4.5,1.9l4.7,1.2l5,0.4l5-0.4l4.8-1.2l4.4-1.9l4.1-2.4l3.6-3l3-3.6l2.5-4l2-4.3l1.1-4.7
	l0.4-5v-2.2h74.8V205.1L449.4,199.6L449.4,199.6z M116.6,283.9H78.9v-31.5l14.5-68h23.2V283.9z M195.7,236.7h-62.2v-52.3h62.2V236.7
	z M274.8,236.7h-62.2v-52.3h62.2V236.7z M353.8,236.7h-62v-52.3h62V236.7z M432.5,236.7h-61.8v-52.3h40.8l4.4,0.4l3.9,1.2l3.5,2
	l3,2.5l2.6,3l1.9,3.6l1.2,3.8l0.4,4.1L432.5,236.7L432.5,236.7z"/>
</svg>
