<?xml version="1.0" encoding="UTF-8"?>
<svg id="_レイヤー_1" data-name="レイヤー 1" xmlns="http://www.w3.org/2000/svg" viewBox="0 0 512 512">
  <defs>
    <style>
      .cls-1 {
        fill: #f3f3f4;
      }

      .cls-1, .cls-2, .cls-3 {
        stroke-width: 0px;
      }

      .cls-2 {
        fill: #303233;
      }

      .cls-3 {
        fill: #fff;
      }
    </style>
  </defs>
  <rect class="cls-3" x="-.21" y="0" width="511.96" height="511.96" rx="22.16" ry="22.16"/>
  <path class="cls-1" d="M511.45,251.39v238.44c0,12.25-9.92,22.16-22.16,22.16h-227.29L61.76,311.76h50.62v2.35l.43,4.98,1.14,4.69,1.93,4.41,2.42,3.84,3.2,3.63,3.48,2.99,4.06,2.48,4.48,1.99,4.68,1.07,5.05.43,5.05-.43,4.77-1.07,4.27-1.99,4.06-2.48,3.62-2.99,3.13-3.63,2.48-3.84,1.93-4.41,1.14-4.69.43-4.98v-2.35h139.19v2.2l.43,4.98,1.14,4.69,1.93,4.27,2.56,3.99,3.05,3.63,3.49,3.05,4.05,2.42,4.48,1.85,4.69,1.21,5.05.43,5.05-.43,4.77-1.21,4.41-1.85,4.06-2.42,3.56-3.05,3.05-3.63,2.48-3.99,1.99-4.27,1.07-4.69.43-4.98v-2.2h74.79v-106.68l-.43-5.47-1.28-5.41-1.78-4.98-2.7-4.69-3.21-4.13,70.99,70.99Z"/>
  <path class="cls-2" d="M449.44,199.61l-1.28-5.41-1.78-4.98-2.7-4.69-3.21-4.13-3.77-3.7-4.34-3.35-4.56-2.48-5.2-1.93-5.35-1.21-5.69-.43h.04s-326.62.01-326.62.01l-2.21.43-1.85.63-1.64,1.42-1.14,1.49-.84,1.92-15.66,77.28v61.27h50.74v2.35l.43,4.98,1.14,4.69,1.93,4.41,2.42,3.84,3.2,3.63,3.48,2.99,4.06,2.48,4.48,1.99,4.68,1.07,5.05.43,5.05-.43,4.77-1.07,4.27-1.99,4.06-2.48,3.62-2.99,3.13-3.63,2.48-3.84,1.93-4.41,1.14-4.69.43-4.98v-2.35h139.19v2.2l.43,4.98,1.14,4.69,1.93,4.27,2.56,3.99,3.05,3.63,3.49,3.05,4.05,2.42,4.48,1.85,4.69,1.21,5.05.43,5.05-.43,4.77-1.21,4.41-1.85,4.06-2.42,3.56-3.05,3.05-3.63,2.48-3.99,1.99-4.27,1.07-4.69.43-4.98v-2.2h74.79v-106.68l-.43-5.47ZM116.59,283.94h-37.72v-31.52l14.52-68.03h23.2v99.55ZM195.7,236.69h-62.19v-52.3h62.19v52.3ZM274.77,236.69h-62.19v-52.3h62.19v52.3ZM353.76,236.69h-62.05v-52.3h62.05v52.3ZM432.54,236.68h-61.77v-52.29h40.84l4.35.43,3.9,1.2,3.49,1.99,3.05,2.49,2.64,2.99,1.85,3.62,1.21,3.84.43,4.13v31.59Z"/>
</svg>