<?xml version="1.0" encoding="UTF-8"?>
<svg id="_レイヤー_1" data-name="レイヤー 1" xmlns="http://www.w3.org/2000/svg" xmlns:xlink="http://www.w3.org/1999/xlink" viewBox="0 0 1920 1080">
  <defs>
    <style>
      .cls-1 {
        fill: #31b96e;
      }

      .cls-2 {
        fill: #30bced;
      }

      .cls-3 {
        fill: #e5e5e5;
      }

      .cls-4 {
        fill: #040000;
      }

      .cls-5 {
        fill: #fff;
      }

      .cls-6 {
        fill: #666;
      }

      .cls-7 {
        fill: #001545;
      }

      .cls-8 {
        fill: #ff717e;
      }

      .cls-9 {
        fill: #b8caba;
      }

      .cls-10 {
        fill: #989898;
      }

      .cls-11 {
        fill: url(#_名称未設定グラデーション_21);
      }
    </style>
    <linearGradient id="_名称未設定グラデーション_21" data-name="名称未設定グラデーション 21" x1="960" y1=".8" x2="960" y2="133.61" gradientUnits="userSpaceOnUse">
      <stop offset=".15" stop-color="#001545"/>
      <stop offset="1" stop-color="#000d2b"/>
    </linearGradient>
  </defs>
  <rect class="cls-5" width="1920" height="1080"/>
  <g>
    <path class="cls-2" d="M1255.76,423.04c0,2.88-1.41,5.58-3.78,7.22l-355.04,245.57,97.2,67.23c2.37,1.64,3.78,4.34,3.78,7.22s-1.42,5.57-3.78,7.21l-179.68,124.28,42.58,29.15-15.45,10.68-47.55-32.56c-2.38-1.63-3.81-4.32-3.82-7.21s1.41-5.59,3.78-7.23l179.73-124.33-97.21-67.23c-2.37-1.64-3.77-4.33-3.77-7.21s1.41-5.58,3.77-7.22l355.03-245.56-107.3-73.95,15.42-10.66,112.28,77.38c2.37,1.64,3.79,4.33,3.79,7.21Z"/>
    <path class="cls-1" d="M1094.8,341.05l-15.42,10.66-106.4-73.6-9.46,6.54-15.41,10.66-325.19,224.91,321.49,222.36c2.37,1.64,3.77,4.33,3.77,7.21s-1.41,5.57-3.77,7.21l-179.69,124.28,67.84,46.56-15.44,10.68-72.83-49.98c-2.37-1.64-3.8-4.33-3.8-7.21,0-2.89,1.41-5.59,3.77-7.23l179.73-124.32-321.48-222.35c-2.37-1.64-3.78-4.34-3.78-7.22s1.41-5.58,3.78-7.21l330.18-228.35,15.41-10.66,19.88-13.75c3.01-2.08,6.98-2.08,9.98,0l116.84,80.8Z"/>
    <path class="cls-8" d="M963.51,284.65l106.41,73.6-15.41,10.66-106.41-73.6-15.41-10.65-9.46-6.55-350.06,242.11,321.48,222.36c2.37,1.64,3.78,4.33,3.78,7.21s-1.42,5.57-3.78,7.21l-179.7,124.29,92.71,63.77-15.43,10.67-97.69-67.2c-2.37-1.63-3.8-4.32-3.8-7.21s1.41-5.58,3.78-7.22l179.72-124.32-321.48-222.35c-2.37-1.64-3.78-4.34-3.78-7.22s1.42-5.57,3.78-7.21l365.48-252.77L1294.51,0l9.98,14.42-365.84,253.04,9.45,6.54,15.41,10.65Z"/>
    <path class="cls-6" d="M875.47,270.34l-361.31,249.89,327.73,226.68c.95.65,1.51,1.73,1.51,2.89s-.57,2.23-1.51,2.88l-185.98,128.64,135.94,93.82-3.98,5.78-140.12-96.7c-.95-.66-1.51-1.74-1.51-2.89s.57-2.23,1.51-2.89l185.99-128.64-327.74-226.68c-.95-.65-1.5-1.73-1.5-2.89s.56-2.23,1.5-2.88l365.48-252.78L1238.62,10.65l3.98,5.78-367.13,253.92Z"/>
    <path class="cls-4" d="M1165.67,320.47l-25.98,17.97-15.42,10.66-81.87,56.62c-2.03,1.41-4.35,2.08-6.64,2.08-3.71,0-7.36-1.76-9.63-5.04-3.67-5.31-2.35-12.59,2.97-16.26l25.42-17.58,15.41-10.66,9.45-6.54,15.42-10.66,57.56-39.81c5.31-3.67,12.59-2.35,16.27,2.97,3.67,5.31,2.34,12.59-2.97,16.26Z"/>
    <path class="cls-4" d="M891.27,915.67l-123.27,85.26c-2.03,1.4-4.35,2.07-6.64,2.07-3.71,0-7.36-1.76-9.63-5.04-3.67-5.31-2.35-12.59,2.97-16.26l37.53-25.95,15.43-10.67,9.45-6.54,15.44-10.68,9.05-6.26,15.45-10.68,20.93-14.47c5.31-3.67,12.59-2.34,16.26,2.97,3.67,5.31,2.34,12.59-2.97,16.26Z"/>
    <path d="M761.34,989.74h-317.53c-.65,0-1.17-.52-1.17-1.17s.52-1.17,1.17-1.17h317.53c.65,0,1.17.52,1.17,1.17s-.52,1.17-1.17,1.17Z"/>
    <path d="M465.66,950.74c1.56,3.18,3.73,6.26,6.52,9.26l-2.02,3.1c-1.83-2.25-3.32-4.64-4.49-7.19v22.15h-3.68v-23c-1.44,4.58-3.58,8.87-6.42,12.85l-1.75-4.27c3.44-4.28,6.16-9.55,8.13-15.81h-7.14v-3.5h7.19v-8.81h3.68v8.81h6.16v3.5h-6.16v2.92ZM481.21,936.27c-.51,3.47-1.41,6.93-2.7,10.38-1.44,3.8-3.19,7.05-5.26,9.75l-3.19-2.56c2.25-2.75,3.91-5.59,4.99-8.49,1.02-2.73,1.86-5.95,2.52-9.66l3.64.58ZM477.84,972.44h.18c6.14-.51,10.57-.96,13.3-1.35-1.35-3.41-2.83-6.54-4.45-9.39l3.1-1.57c1.53,2.34,2.98,5.06,4.36,8.18,1.26,2.91,2.25,5.65,2.97,8.22l-3.77,1.57c-.3-1.26-.64-2.52-1.03-3.77-4.58.84-11.68,1.6-21.3,2.29l-.58-3.77c1.8-.06,2.98-.1,3.55-.13,1.17-2.85,2.35-6.3,3.55-10.38,1.2-3.98,2.1-7.59,2.7-10.83l3.77.76c-1.98,8.09-4.09,14.81-6.34,20.17ZM495.09,956.94c-2.07-2.37-3.86-5.56-5.39-9.57-1.35-3.59-2.32-7.28-2.92-11.05l3.64-.54c1.38,7.46,3.89,13.55,7.55,18.29l-2.88,2.88Z"/>
    <path d="M520.03,945.93h35.27v16.53h-31.41c-.48,7.07-2.23,12.41-5.26,16.04l-3.23-2.97c1.65-2.13,2.8-4.48,3.46-7.05.78-2.99,1.17-5.68,1.17-8.04v-14.51ZM558.44,937.31v3.64h-42.68v-3.64h42.68ZM551.48,949.48h-27.41v9.39h27.41v-9.39Z"/>
    <path d="M578.75,975.81l-2.47-1.21c1.05-3.08,1.62-6.54,1.71-10.38l2.43.09c-.15,4.58-.7,8.42-1.66,11.5ZM597.22,936.9v3.06h-6.51v4h5.62v2.83h-5.62v4.18h5.62v2.87h-5.62v4.54h6.2c-.21,8.66-.94,14.32-2.2,16.98-.93,1.89-2.59,2.83-4.99,2.83h-5.17l-.67-3.46,5.26.09c.84,0,1.47-.17,1.89-.49,1.41-1.08,2.22-5.41,2.43-12.98h-15.14v-24.44h18.92ZM584.28,972.8l-2.43.22c.09-1.29.13-2.64.13-4.04,0-1.65-.07-3.2-.22-4.67l2.07-.04c.27,3.21.42,6.05.45,8.54ZM587.42,939.96h-5.57v4h5.57v-4ZM587.42,946.79h-5.57v4.18h5.57v-4.18ZM587.42,953.84h-5.57v4.54h5.57v-4.54ZM588.27,971.63l-2.11.45c0-2.45-.26-5.05-.76-7.77l1.89-.27c.57,2.82.9,5.35.99,7.59ZM591.78,969.79l-1.89.45c-.21-2.37-.58-4.46-1.12-6.29l1.8-.36c.57,2.01.97,4.07,1.21,6.2ZM600.27,936.9h18.24v19.27h-6.47c.66,7.22,3.44,13.43,8.36,18.65l-2.47,3.41c-5.3-5.54-8.4-12.89-9.3-22.06h-4.81v1.98c0,8.39-1.84,15.08-5.53,20.08l-2.83-2.7c3.2-4.4,4.81-10.26,4.81-17.57v-21.07ZM614.83,940.45h-11.01v12.22h11.01v-12.22Z"/>
    <path d="M1476.54,309.29h-317.53c-.65,0-1.17-.52-1.17-1.17s.52-1.17,1.17-1.17h317.53c.65,0,1.17.52,1.17,1.17s-.52,1.17-1.17,1.17Z"/>
    <path d="M1196.97,257.26h34.95v39.45h-34.95v-39.45ZM1200.97,274.87h26.91v-13.88h-26.91v13.88ZM1200.97,278.55v14.51h26.91v-14.51h-26.91Z"/>
    <path d="M1258.12,266.38v-11.28h4.09v11.28h19.59v3.86h-18.92c1.41,6.05,3.55,10.84,6.43,14.38,3.06,3.71,7.44,6.75,13.16,9.12l-2.61,3.82c-6.11-2.88-10.8-6.54-14.06-11.01-2.28-3.08-4-6.77-5.17-11.05-.96,3.44-2.41,6.62-4.36,9.52-3.62,5.33-8.72,9.5-15.28,12.49l-2.2-3.95c5.9-2.37,10.44-5.66,13.61-9.88,2.73-3.65,4.54-8.13,5.44-13.43h-18.69v-3.86h18.96Z"/>
    <path d="M1292.44,256.85h3.73v8.54h8.9v-10.38h3.68v3.46h16.26v3.28h-16.26v3.64h19.05v3.28h-42.77v-3.28h7.41v-8.54ZM1287.68,296.88v-26.33h3.68v23h29.92v-23h3.77v26.33h-37.38ZM1303,280.53h-9.48v-3.1h11.1v-7.19h3.5v7.19h11.28v3.1h-9.7c2.73,2.85,5.97,5.17,9.75,6.96l-1.8,2.79c-3.65-1.89-6.83-4.28-9.53-7.19v8.76h-3.5v-8.76c-3.15,3.35-6.37,5.83-9.66,7.41l-1.62-2.79c3.44-1.53,6.66-3.92,9.66-7.19ZM1298.96,270.11c1.11,1.71,2.11,3.49,3.01,5.35l-3.32,1.21c-.78-1.8-1.71-3.58-2.79-5.35l3.1-1.21ZM1317.29,271.14c-1.29,2.76-2.35,4.66-3.19,5.71l-3.14-1.21c1.08-1.62,2.11-3.52,3.1-5.71l3.23,1.21Z"/>
    <path d="M1342.99,259.82v7.37h6.11v3.46h-6.11v.58c1.47,2.73,3.59,5.5,6.38,8.31l-2.16,3.28c-1.8-2.34-3.2-4.55-4.22-6.65v21.52h-3.59v-21.12c-1.83,4.31-4.27,8.21-7.32,11.68l-1.66-4c1.8-1.71,3.6-4.09,5.39-7.14,1.47-2.49,2.54-4.64,3.23-6.47h-7.82v-3.46h8.18v-6.83c-2.88.33-5.41.51-7.59.54l-.76-3.41c2.79-.03,5.81-.27,9.08-.72,2.88-.42,5.32-.97,7.32-1.66l1.71,3.37c-2.01.54-4.06.99-6.15,1.35ZM1369.27,280.12l4.4-.94.49,3.68-4.9,1.03v13.79h-3.77v-13.03l-16.08,3.37-.49-3.64,16.58-3.46v-25.83h3.77v25.03ZM1353.15,268.67c3.11,1.8,5.85,3.91,8.22,6.33l-2.61,2.88c-2.01-2.28-4.61-4.42-7.82-6.42l2.2-2.79ZM1355.21,257.26c3.06,1.86,5.8,4.01,8.22,6.47l-2.56,2.92c-2.31-2.49-4.91-4.72-7.82-6.69l2.16-2.7Z"/>
    <path d="M1383.79,276.93c.03-1.35.04-2.08.04-2.2v-15.46h14.56v-4.13h3.77v4.13h17.48v3.41h-32.17v12c0,9.94-2.25,17.6-6.74,22.96l-2.97-2.83c1.98-2.43,3.41-4.99,4.31-7.68.6-1.77,1.05-3.83,1.35-6.2-1.47.84-3.61,1.9-6.42,3.19l-.63-4.04c2.37-.78,4.84-1.83,7.41-3.15ZM1379.43,262.83c1.44,2.94,2.44,5.83,3.01,8.67l-3.41,1.21c-.39-2.61-1.26-5.48-2.61-8.63l3.01-1.26ZM1404.77,274.91h13.25v19.18c0,2.37-1.15,3.55-3.46,3.55h-5.57l-.63-3.68h4.04c.9,0,1.47-.12,1.71-.36.18-.24.27-.69.27-1.35v-14.24h-8.54c.84,2.19,2.04,4.1,3.59,5.75,1.26,1.35,2.83,2.65,4.72,3.91l-2.2,2.92c-3.98-3.2-6.78-6.62-8.4-10.24-.24.81-.46,1.45-.67,1.93-1.29,3.3-3.49,6.13-6.6,8.49l-2.16-2.97c3.53-2.34,5.8-5.6,6.78-9.79h-7.05v19.63h-3.64v-22.73h11.23c.18-1.35.3-2.98.36-4.9h-13.07v-3.28h30.91v3.28h-14.42c-.09,1.71-.24,3.34-.45,4.9Z"/>
    <path d="M1424.18,256.4h12.63v3.14c-.54,2.07-1.17,4.01-1.89,5.84-.3.84-1.03,2.61-2.2,5.3,2.73,3.26,4.09,6.92,4.09,10.96,0,4.43-1.8,6.65-5.39,6.65h-2.25l-.58-3.64h2.38c1.56,0,2.34-1.21,2.34-3.64,0-1.62-.39-3.38-1.17-5.3-.69-1.71-1.66-3.34-2.92-4.9,1.86-3.95,3.16-7.65,3.91-11.1h-5.3v38.01h-3.64v-41.33ZM1465.83,279.23h-9.48v13.16c0,.57.09.96.27,1.17.18.24.52.36,1.03.36h2.52c.96,0,1.54-.31,1.75-.94.24-.78.42-2.53.54-5.26l3.59.9c-.24,3.62-.57,5.94-.99,6.96-.33.81-.91,1.35-1.75,1.62-.42.12-1.11.18-2.07.18h-4.9c-1.05,0-1.75-.08-2.11-.22-.75-.3-1.21-.94-1.39-1.93-.06-.3-.09-1.03-.09-2.2v-13.79h-4.58c-.06,4.76-1.11,8.7-3.14,11.82-1.98,2.99-5.08,5.18-9.3,6.56l-1.66-3.37c3.77-1.11,6.47-2.97,8.09-5.57,1.53-2.43,2.29-5.57,2.29-9.44h-7.05v-3.46h28.44v3.46ZM1449.38,255.1h3.73v4.27h11.64v9.61h-3.59v-6.2h-19.9v6.2h-3.55v-9.61h11.68v-4.27ZM1460.35,270.73h-18.33v-3.32h18.33v3.32Z"/>
    <g>
      <path class="cls-4" d="M1205.02,711.31l-1.86-2.22c3.34-1.65,6.1-3.83,8.28-6.55l2.35,1.34c-1.06,1.39-2.43,2.78-4.1,4.17-1.59,1.33-3.14,2.41-4.66,3.26ZM1217.69,694.92c3.08-3.32,5.53-6.28,7.33-8.86l2.31,1.3c-1.37,1.93-3.12,4.09-5.25,6.48-1.56,1.76-2.9,3.16-4.01,4.2l2.31-.13,2.31-.13,6.03-.36c-.63-.89-1.45-1.93-2.44-3.13l2.28-1.34c2.37,2.69,4.34,5.52,5.93,8.47l-2.44,1.43c-.57-1.19-1.15-2.26-1.76-3.19l-10.16.68v12.09h-2.77v-11.92c-3,.09-5.26.16-6.78.23-3.54.13-5.94.21-7.2.23l-.2-2.57c.85,0,2.12-.02,3.81-.07,3.63-.09,6.16-.14,7.59-.16.5-.5.92-.93,1.27-1.3-3.08-2.74-5.98-4.82-8.7-6.25l1.6-2.02c1.19.63,2.31,1.31,3.36,2.05,1.22-1.48,2.36-3.1,3.42-4.85-2.82.15-6.27.24-10.33.26l-.59-2.54c12.31,0,21.27-.72,26.88-2.15l1.17,2.41c-4.17.98-8.8,1.6-13.88,1.86-1.39,2.32-2.95,4.46-4.69,6.42,1.43,1.04,2.63,2,3.58,2.87ZM1232.68,711.63c-3.54-2.13-6.51-4.71-8.9-7.75l2.15-1.43c1.95,2.61,4.81,4.92,8.57,6.94l-1.82,2.25Z"/>
      <path class="cls-4" d="M1242.32,691.04l.07-.1c1.37-2.15,2.57-4.17,3.62-6.06l2.44.98c-2.24,3.78-4.41,7.06-6.52,9.84,1.89-.09,3.31-.17,4.27-.26-.39-.91-.71-1.61-.95-2.08l2.12-.94c.98,1.89,1.85,3.89,2.61,5.99l-2.38.94c-.33-.91-.53-1.51-.62-1.79-.65.09-1.56.18-2.74.29v14.56h-2.57v-14.37c-1.63.11-3.4.2-5.31.26l-.2-2.41c.56,0,1.5-.03,2.8-.1.76-.96,1.39-1.8,1.89-2.54-1.2-1.41-2.82-2.93-4.89-4.56l1.4-2.09c.54.41.94.73,1.2.94,1.41-2.11,2.52-4.12,3.32-6.03l2.44.91c-1.35,2.8-2.64,5.06-3.88,6.78.76.72,1.38,1.32,1.86,1.82ZM1240.17,700.82c-.28,3.56-.84,6.66-1.66,9.28l-2.44-.88c.91-2.69,1.47-5.63,1.66-8.8l2.44.39ZM1247.79,700.23c.8,1.98,1.35,4.19,1.63,6.65l-2.44.55c-.15-2.15-.59-4.35-1.3-6.61l2.12-.59ZM1255.94,697.62c-.13,5-.89,8.5-2.28,10.52-1.19,1.76-2.97,3.18-5.31,4.27l-1.63-2.28c2.35-.98,4.02-2.3,5.02-3.97,1.02-1.65,1.55-4.5,1.6-8.54h2.61ZM1254.73,693.58h.13c3.76-.2,6.54-.38,8.34-.55-.8-1.11-1.77-2.24-2.9-3.39l2.22-1.34c2.13,2.11,3.94,4.56,5.44,7.36l-2.41,1.4c-.33-.72-.63-1.32-.91-1.82-5.39.54-10.31.9-14.76,1.07l-.26-2.57c1.35-.04,2.13-.07,2.35-.07,1.15-1.95,2.09-4.1,2.8-6.45h-5.67v-2.54h7.82v-3.16h2.74v3.16h7.92v2.54h-9.9c-.87,2.21-1.85,4.33-2.93,6.35ZM1262.03,697.62v11.21c0,.48.28.72.85.72h1.3c.5,0,.78-.34.85-1.01.04-.48.08-1.93.1-4.37l2.51.85c0,2.93-.14,4.8-.42,5.6-.35,1-1.13,1.5-2.35,1.5h-3.16c-1.54,0-2.31-.74-2.31-2.22v-12.28h2.64Z"/>
      <path class="cls-4" d="M1288.75,703.16c3.17,2.82,7.31,4.82,12.41,5.99l-1.47,2.7c-2.78-.85-5.14-1.82-7.07-2.93-2.19-1.26-4.13-2.78-5.8-4.56v8.11h-2.74v-8.01c-1.35,1.39-3.02,2.7-5.02,3.94-2.52,1.56-5.14,2.75-7.85,3.55l-1.21-2.61c5.26-1.54,9.33-3.6,12.22-6.19h-12.15v-2.28h14.01v-2.41h2.74v2.41h14.14v2.28h-12.22ZM1284.25,688.57h12.28v2.09h-2.83c-.96,1.65-2.17,3.05-3.65,4.2,1.82.43,4.77,1.32,8.83,2.67l-1.76,2.35c-3.02-1.26-6.3-2.37-9.84-3.32-.67.33-1.32.59-1.95.78-3.78,1.19-7.95,1.91-12.51,2.15l-.72-2.48c4.32-.15,8.07-.63,11.24-1.43-2.69-.61-5.11-1.1-7.27-1.47,1.09-.98,2.18-2.13,3.29-3.45h-4.72v-2.09h6.42c.7-.91,1.25-1.7,1.66-2.38h-9.19v4.37h-2.74v-6.71h13.29v-2.31h2.83v2.31h13.36v6.71h-2.74v-4.37h-11.76c-.39.72-.9,1.51-1.53,2.38ZM1282.59,690.65c-.65.78-1.34,1.54-2.05,2.28,2.61.41,4.76.8,6.45,1.17,1.3-.78,2.54-1.93,3.71-3.45h-8.11Z"/>
      <path class="cls-4" d="M1317.48,686.38v-4.85h2.8v4.85h12.51v23.23c0,1.89-.92,2.83-2.77,2.83h-5.67l-.46-2.8,5.21.03c.61,0,.91-.28.91-.85v-19.84h-9.58c.37,2.45,1.16,4.61,2.38,6.45,1.61,2.48,3.91,4.69,6.91,6.65l-1.82,2.35c-2.26-1.72-4.16-3.54-5.7-5.47-1.35-1.67-2.44-3.65-3.29-5.93-.98,2.37-2.07,4.36-3.29,5.96-1.59,2.08-3.55,3.84-5.9,5.28l-1.69-2.41c5.28-2.82,8.35-7.11,9.22-12.87h-9.55v23.46h-2.8v-26.06h12.58Z"/>
      <path class="cls-2" d="M1070.39,748.24c1.13,2.3,2.7,4.54,4.72,6.71l-1.47,2.25c-1.32-1.63-2.41-3.37-3.26-5.21v16.06h-2.67v-16.68c-1.04,3.32-2.6,6.43-4.66,9.32l-1.27-3.1c2.5-3.11,4.46-6.93,5.9-11.47h-5.18v-2.54h5.21v-6.39h2.67v6.39h4.46v2.54h-4.46v2.12ZM1081.67,737.75c-.37,2.52-1.02,5.03-1.95,7.53-1.04,2.76-2.31,5.11-3.81,7.07l-2.31-1.86c1.63-2,2.83-4.05,3.62-6.16.74-1.98,1.35-4.31,1.82-7l2.64.42ZM1079.22,763.97h.13c4.45-.37,7.67-.69,9.64-.98-.98-2.48-2.05-4.75-3.23-6.81l2.25-1.14c1.11,1.69,2.16,3.67,3.16,5.93.91,2.11,1.63,4.09,2.15,5.96l-2.74,1.14c-.22-.91-.47-1.82-.75-2.74-3.32.61-8.47,1.16-15.44,1.66l-.42-2.74c1.3-.04,2.16-.08,2.57-.1.85-2.06,1.71-4.57,2.57-7.53.87-2.89,1.52-5.51,1.95-7.85l2.74.55c-1.43,5.86-2.96,10.74-4.59,14.63ZM1091.73,752.73c-1.5-1.72-2.8-4.03-3.91-6.94-.98-2.61-1.68-5.28-2.12-8.01l2.64-.39c1,5.41,2.82,9.83,5.47,13.26l-2.09,2.09Z"/>
      <path class="cls-2" d="M1098.7,744.75h25.57v11.99h-22.77c-.35,5.13-1.62,9-3.81,11.63l-2.35-2.15c1.19-1.54,2.03-3.25,2.51-5.11.56-2.17.85-4.12.85-5.83v-10.52ZM1126.56,738.5v2.64h-30.95v-2.64h30.95ZM1121.51,747.33h-19.87v6.81h19.87v-6.81Z"/>
      <path class="cls-2" d="M1151.58,750.71c.59.24,1.14.55,1.66.94,2.06,1.52,3.1,3.54,3.1,6.06,0,2.3-.88,4.24-2.64,5.8-1.78,1.56-3.96,2.35-6.55,2.35s-4.77-.78-6.55-2.35-2.67-3.5-2.67-5.8c0-2.65,1.12-4.73,3.36-6.26.43-.3.9-.55,1.4-.75-.3-.15-.57-.31-.78-.49-1.63-1.19-2.44-2.88-2.44-5.05,0-1.85.64-3.39,1.92-4.63,1.37-1.35,3.29-2.02,5.77-2.02,1.67,0,3.18.37,4.53,1.11,1.11.61,1.94,1.53,2.51,2.77.41.85.62,1.77.62,2.77,0,2.17-.82,3.86-2.44,5.05-.22.17-.48.34-.78.49ZM1147.15,752.44c-1.82,0-3.28.47-4.37,1.4-1.15,1.02-1.73,2.3-1.73,3.84s.59,2.78,1.76,3.78c1.15,1.02,2.62,1.53,4.4,1.53,1.67,0,3.1-.51,4.27-1.53,1.15-1.02,1.73-2.28,1.73-3.78s-.58-2.82-1.73-3.84c-1.09-.93-2.53-1.4-4.33-1.4ZM1147.15,741.27c-1.43,0-2.57.4-3.42,1.21-.78.74-1.17,1.69-1.17,2.87s.39,2.18,1.17,2.96c.8.78,1.96,1.17,3.49,1.17,1.41,0,2.52-.39,3.32-1.17.78-.76,1.17-1.75,1.17-2.96s-.39-2.15-1.17-2.87c-.87-.8-2-1.21-3.39-1.21Z"/>
      <path class="cls-2" d="M1162.92,743.06l5.86-4.01h2.8v26.29h-3.19v-22.81l-5.05,3.49-.42-2.96Z"/>
      <path class="cls-2" d="M1191.46,766.97l-1.86-2.22c3.34-1.65,6.1-3.83,8.28-6.55l2.35,1.34c-1.06,1.39-2.43,2.78-4.1,4.17-1.59,1.33-3.14,2.41-4.66,3.26ZM1204.13,750.58c3.08-3.32,5.53-6.28,7.33-8.86l2.31,1.3c-1.37,1.93-3.12,4.09-5.25,6.48-1.56,1.76-2.9,3.16-4.01,4.2l2.31-.13,2.31-.13,6.03-.36c-.63-.89-1.45-1.93-2.44-3.13l2.28-1.34c2.37,2.69,4.34,5.52,5.93,8.47l-2.44,1.43c-.57-1.19-1.15-2.26-1.76-3.19l-10.16.68v12.09h-2.77v-11.92c-3,.09-5.26.16-6.78.23-3.54.13-5.94.21-7.2.23l-.2-2.57c.85,0,2.12-.02,3.81-.07,3.63-.09,6.16-.14,7.59-.16.5-.5.92-.93,1.27-1.3-3.08-2.74-5.98-4.82-8.7-6.25l1.6-2.02c1.19.63,2.31,1.31,3.36,2.05,1.22-1.48,2.36-3.1,3.42-4.85-2.82.15-6.27.24-10.33.26l-.59-2.54c12.31,0,21.27-.72,26.88-2.15l1.17,2.41c-4.17.98-8.8,1.6-13.88,1.86-1.39,2.32-2.95,4.46-4.69,6.42,1.43,1.04,2.63,2,3.58,2.87ZM1219.12,767.3c-3.54-2.13-6.51-4.71-8.9-7.75l2.15-1.43c1.95,2.61,4.81,4.92,8.57,6.94l-1.82,2.25Z"/>
      <path class="cls-2" d="M1228.76,746.71l.07-.1c1.37-2.15,2.57-4.17,3.62-6.06l2.44.98c-2.24,3.78-4.41,7.06-6.52,9.84,1.89-.09,3.31-.17,4.27-.26-.39-.91-.71-1.61-.95-2.08l2.12-.94c.98,1.89,1.85,3.89,2.61,5.99l-2.38.94c-.33-.91-.53-1.51-.62-1.79-.65.09-1.56.18-2.74.29v14.56h-2.57v-14.37c-1.63.11-3.4.2-5.31.26l-.2-2.41c.56,0,1.5-.03,2.8-.1.76-.96,1.39-1.8,1.89-2.54-1.2-1.41-2.82-2.93-4.89-4.56l1.4-2.09c.54.41.94.73,1.2.94,1.41-2.11,2.52-4.12,3.32-6.03l2.44.91c-1.35,2.8-2.64,5.06-3.88,6.78.76.72,1.38,1.32,1.86,1.82ZM1226.61,756.48c-.28,3.56-.84,6.66-1.66,9.28l-2.44-.88c.91-2.69,1.47-5.63,1.66-8.8l2.44.39ZM1234.23,755.9c.8,1.98,1.35,4.19,1.63,6.65l-2.44.55c-.15-2.15-.59-4.35-1.3-6.61l2.12-.59ZM1242.38,753.29c-.13,5-.89,8.5-2.28,10.52-1.19,1.76-2.97,3.18-5.31,4.27l-1.63-2.28c2.35-.98,4.02-2.3,5.02-3.97,1.02-1.65,1.55-4.5,1.6-8.54h2.61ZM1241.17,749.25h.13c3.76-.2,6.54-.38,8.34-.55-.8-1.11-1.77-2.24-2.9-3.39l2.22-1.34c2.13,2.11,3.94,4.56,5.44,7.36l-2.41,1.4c-.33-.72-.63-1.32-.91-1.82-5.39.54-10.31.9-14.76,1.07l-.26-2.57c1.35-.04,2.13-.07,2.35-.07,1.15-1.95,2.09-4.1,2.8-6.45h-5.67v-2.54h7.82v-3.16h2.74v3.16h7.92v2.54h-9.9c-.87,2.21-1.85,4.33-2.93,6.35ZM1248.47,753.29v11.21c0,.48.28.72.85.72h1.3c.5,0,.78-.34.85-1.01.04-.48.08-1.93.1-4.37l2.51.85c0,2.93-.14,4.8-.42,5.6-.35,1-1.13,1.5-2.35,1.5h-3.16c-1.54,0-2.31-.74-2.31-2.22v-12.28h2.64Z"/>
      <path class="cls-2" d="M1272.34,752.38l12.39,6.11-.72,1.46-15.05-7.57,15.05-7.59.72,1.46-12.39,6.13Z"/>
      <path class="cls-2" d="M1294.22,759.35c-1.86.7-3.75,1.31-5.66,1.83l-.51-1.78c.85-.2,2.02-.53,3.53-.96,1.19-.36,2.07-.64,2.65-.84v-7.73h-6.07v-1.7h6.07v-5.23h1.76v19.48h-1.76v-3.06ZM1298.94,742.93h1.78v6.75c2.12-1.18,3.96-2.46,5.52-3.85l1.21,1.5c-1.78,1.49-4.02,2.93-6.73,4.31v8.06c0,.23.04.39.12.47.1.12.31.18.64.18h3.22c.38,0,.64-.07.76-.23.3-.31.45-1.57.45-3.75l1.76.62c-.12,2.16-.29,3.51-.51,4.04-.29.71-.88,1.07-1.78,1.07h-4.66c-1.19,0-1.78-.51-1.78-1.54v-17.61Z"/>
      <path class="cls-2" d="M1314.22,749.88c.71,1.45,1.7,2.86,2.97,4.22l-.92,1.42c-.83-1.03-1.52-2.12-2.05-3.28v10.11h-1.68v-10.5c-.66,2.09-1.63,4.05-2.93,5.86l-.8-1.95c1.57-1.96,2.81-4.36,3.71-7.22h-3.26v-1.6h3.28v-4.02h1.68v4.02h2.81v1.6h-2.81v1.33ZM1321.31,743.28c-.23,1.59-.64,3.17-1.23,4.74-.66,1.74-1.46,3.22-2.4,4.45l-1.46-1.17c1.03-1.26,1.78-2.55,2.28-3.88.46-1.24.85-2.71,1.15-4.41l1.66.27ZM1319.77,759.78h.08c2.8-.23,4.83-.44,6.07-.61-.61-1.56-1.29-2.99-2.03-4.29l1.42-.72c.7,1.07,1.36,2.31,1.99,3.73.57,1.33,1.03,2.58,1.35,3.75l-1.72.72c-.14-.57-.29-1.15-.47-1.72-2.09.38-5.33.73-9.72,1.05l-.27-1.72c.82-.03,1.36-.05,1.62-.06.53-1.3,1.07-2.88,1.62-4.74.55-1.82.96-3.47,1.23-4.94l1.72.35c-.9,3.69-1.87,6.76-2.89,9.21ZM1327.65,752.71c-.94-1.08-1.76-2.54-2.46-4.37-.62-1.64-1.06-3.32-1.33-5.04l1.66-.25c.63,3.4,1.78,6.19,3.45,8.35l-1.31,1.31Z"/>
      <path class="cls-2" d="M1332.04,747.69h16.1v7.55h-14.33c-.22,3.23-1.02,5.67-2.4,7.32l-1.48-1.35c.75-.97,1.28-2.04,1.58-3.22.36-1.37.53-2.59.53-3.67v-6.62ZM1349.57,743.75v1.66h-19.48v-1.66h19.48ZM1346.39,749.31h-12.51v4.29h12.51v-4.29Z"/>
      <path class="cls-2" d="M1351.85,761.32l-1.13-.55c.48-1.41.74-2.99.78-4.74l1.11.04c-.07,2.09-.32,3.84-.76,5.25ZM1360.27,743.56v1.39h-2.97v1.83h2.56v1.29h-2.56v1.91h2.56v1.31h-2.56v2.07h2.83c-.1,3.95-.43,6.53-1,7.75-.42.86-1.18,1.29-2.28,1.29h-2.36l-.31-1.58,2.4.04c.38,0,.67-.08.86-.23.64-.49,1.01-2.47,1.11-5.93h-6.91v-11.16h8.63ZM1354.37,759.95l-1.11.1c.04-.59.06-1.2.06-1.85,0-.75-.03-1.46-.1-2.13l.94-.02c.12,1.46.19,2.76.2,3.9ZM1355.8,744.96h-2.54v1.83h2.54v-1.83ZM1355.8,748.08h-2.54v1.91h2.54v-1.91ZM1355.8,751.3h-2.54v2.07h2.54v-2.07ZM1356.19,759.42l-.96.2c0-1.12-.12-2.3-.35-3.55l.86-.12c.26,1.28.41,2.44.45,3.47ZM1357.79,758.58l-.86.2c-.09-1.08-.27-2.04-.51-2.87l.82-.16c.26.92.44,1.86.55,2.83ZM1361.67,743.56h8.33v8.8h-2.95c.3,3.29,1.57,6.13,3.81,8.51l-1.13,1.56c-2.42-2.53-3.84-5.88-4.24-10.07h-2.19v.9c0,3.83-.84,6.88-2.52,9.17l-1.29-1.23c1.46-2.01,2.19-4.68,2.19-8.02v-9.62ZM1368.31,745.18h-5.02v5.58h5.02v-5.58Z"/>
      <path class="cls-2" d="M1375.18,743.73h7.65v.84c0,5.71,1.74,10.16,5.23,13.35,1.08,1,2.35,1.89,3.81,2.69l-1.23,1.7c-4.87-2.98-7.78-6.92-8.74-11.83-.56,2.5-1.44,4.61-2.65,6.34-1.49,2.13-3.59,3.97-6.3,5.52l-1.17-1.66c1.93-.92,3.53-2.05,4.8-3.4,2.31-2.42,3.69-5.34,4.14-8.78.11-.74.16-1.74.16-2.99h-5.72v-1.76Z"/>
      <path class="cls-2" d="M1411.27,744.45v17.33h-16.88v-17.33h16.88ZM1409.45,746.19h-13.23v13.86h13.23v-13.86Z"/>
      <path class="cls-2" d="M1417.71,749c.79-1.16,1.57-2.47,2.34-3.94l1.48.68c-1.39,2.47-2.74,4.54-4.04,6.19.41-.01,1.25-.05,2.52-.12-.18-.55-.33-.99-.47-1.33l1.31-.49c.55,1.23.93,2.41,1.15,3.55l-1.46.49c-.04-.31-.09-.59-.14-.82-.37.05-.85.1-1.44.12v9.08h-1.62v-8.98l-1.41.06-1.41.08-.49.04-.14-1.62c.64,0,1.22,0,1.72-.02.26-.33.66-.87,1.19-1.62-1.01-1.18-2-2.11-2.97-2.81l.84-1.31c.33.23.56.4.7.51.78-1.13,1.48-2.41,2.09-3.83l1.54.57c-.83,1.75-1.65,3.18-2.46,4.29.57.55.97.96,1.19,1.23ZM1416.42,755.17c-.15,2.31-.49,4.26-1.03,5.84l-1.52-.57c.53-1.5.87-3.34,1.03-5.5l1.52.23ZM1421.24,754.72c.49,1.42.81,2.87.94,4.35l-1.48.27c-.11-1.28-.38-2.67-.82-4.16l1.35-.45ZM1432.72,754.93v1.62h-4.29v3.47h5.15v1.58h-12.12v-1.58h5.27v-3.47h-4.1v-1.62h4.1v-2.26h1.7v2.26h4.29ZM1428.93,749.98c1.37.83,3.02,1.46,4.96,1.89l-.64,1.66c-2.42-.66-4.32-1.49-5.7-2.5-1.54,1.05-3.14,1.88-4.78,2.48l-.86-1.54c1.52-.55,2.95-1.23,4.28-2.05-1.01-1-1.97-2.26-2.87-3.77l1.39-.66c.92,1.49,1.87,2.65,2.85,3.47,1.23-1.03,2.24-2.26,3.01-3.69h-8.39v-1.52h10.21v1.5c-.68,1.76-1.85,3.34-3.49,4.74Z"/>
      <path class="cls-2" d="M1445.66,746.09h7.87v15.89h-17.39v-15.89h7.75v-3.18h1.76v3.18ZM1443.9,747.77h-6.01v5.29h6.01v-5.29ZM1443.9,754.68h-6.01v5.62h6.01v-5.62ZM1451.79,747.77h-6.13v5.29h6.13v-5.29ZM1451.79,754.68h-6.13v5.62h6.13v-5.62Z"/>
      <path class="cls-2" d="M1470.35,752.38l-12.39-6.13.72-1.46,15.05,7.59-15.05,7.57-.72-1.46,12.39-6.11Z"/>
      <path class="cls-1" d="M1070.39,803.9c1.13,2.3,2.7,4.54,4.72,6.71l-1.47,2.25c-1.32-1.63-2.41-3.37-3.26-5.21v16.06h-2.67v-16.68c-1.04,3.32-2.6,6.43-4.66,9.32l-1.27-3.09c2.5-3.11,4.46-6.93,5.9-11.47h-5.18v-2.54h5.21v-6.39h2.67v6.39h4.46v2.54h-4.46v2.12ZM1081.67,793.41c-.37,2.52-1.02,5.03-1.95,7.53-1.04,2.76-2.31,5.11-3.81,7.07l-2.31-1.86c1.63-2,2.83-4.05,3.62-6.16.74-1.98,1.35-4.31,1.82-7l2.64.42ZM1079.22,819.64h.13c4.45-.37,7.67-.7,9.64-.98-.98-2.48-2.05-4.74-3.23-6.81l2.25-1.14c1.11,1.69,2.16,3.67,3.16,5.93.91,2.11,1.63,4.09,2.15,5.96l-2.74,1.14c-.22-.91-.47-1.82-.75-2.74-3.32.61-8.47,1.16-15.44,1.66l-.42-2.74c1.3-.04,2.16-.08,2.57-.1.85-2.06,1.71-4.57,2.57-7.53.87-2.89,1.52-5.51,1.95-7.85l2.74.55c-1.43,5.86-2.96,10.74-4.59,14.63ZM1091.73,808.4c-1.5-1.72-2.8-4.03-3.91-6.94-.98-2.61-1.68-5.28-2.12-8.01l2.64-.39c1,5.41,2.82,9.83,5.47,13.26l-2.09,2.08Z"/>
      <path class="cls-1" d="M1098.7,800.42h25.57v11.99h-22.77c-.35,5.13-1.62,9-3.81,11.63l-2.35-2.15c1.19-1.54,2.03-3.25,2.51-5.11.56-2.17.85-4.11.85-5.83v-10.52ZM1126.56,794.16v2.64h-30.95v-2.64h30.95ZM1121.51,802.99h-19.87v6.81h19.87v-6.81Z"/>
      <path class="cls-1" d="M1151.58,806.38c.59.24,1.14.55,1.66.94,2.06,1.52,3.1,3.54,3.1,6.06,0,2.3-.88,4.23-2.64,5.8-1.78,1.56-3.96,2.35-6.55,2.35s-4.77-.78-6.55-2.35-2.67-3.5-2.67-5.8c0-2.65,1.12-4.73,3.36-6.26.43-.3.9-.55,1.4-.75-.3-.15-.57-.32-.78-.49-1.63-1.19-2.44-2.88-2.44-5.05,0-1.85.64-3.39,1.92-4.63,1.37-1.35,3.29-2.02,5.77-2.02,1.67,0,3.18.37,4.53,1.11,1.11.61,1.94,1.53,2.51,2.77.41.85.62,1.77.62,2.77,0,2.17-.82,3.86-2.44,5.05-.22.17-.48.34-.78.49ZM1147.15,808.1c-1.82,0-3.28.47-4.37,1.4-1.15,1.02-1.73,2.3-1.73,3.84s.59,2.78,1.76,3.78c1.15,1.02,2.62,1.53,4.4,1.53,1.67,0,3.1-.51,4.27-1.53,1.15-1.02,1.73-2.28,1.73-3.78s-.58-2.82-1.73-3.84c-1.09-.93-2.53-1.4-4.33-1.4ZM1147.15,796.93c-1.43,0-2.57.4-3.42,1.2-.78.74-1.17,1.69-1.17,2.87s.39,2.18,1.17,2.97c.8.78,1.96,1.17,3.49,1.17,1.41,0,2.52-.39,3.32-1.17.78-.76,1.17-1.75,1.17-2.97s-.39-2.15-1.17-2.87c-.87-.8-2-1.2-3.39-1.2Z"/>
      <path class="cls-1" d="M1161.29,798.27c2.04-2.74,4.69-4.1,7.95-4.1,2.63,0,4.73.87,6.32,2.61,1.17,1.28,1.76,2.95,1.76,5.02,0,1.82-.49,3.55-1.47,5.18-1.54,2.65-4.64,6.38-9.29,11.18h11.92v2.87h-18.83c4.1-4.08,7.23-7.37,9.38-9.87,1.74-2.02,2.95-3.59,3.65-4.72.98-1.61,1.47-3.14,1.47-4.59,0-1.56-.53-2.79-1.6-3.68-.91-.74-2.02-1.11-3.32-1.11-2.78,0-5.01,1.52-6.68,4.56l-1.27-3.32Z"/>
      <path class="cls-1" d="M1191.46,822.64l-1.86-2.22c3.34-1.65,6.1-3.83,8.28-6.55l2.35,1.34c-1.06,1.39-2.43,2.78-4.1,4.17-1.59,1.33-3.14,2.41-4.66,3.26ZM1204.13,806.25c3.08-3.32,5.53-6.28,7.33-8.86l2.31,1.3c-1.37,1.93-3.12,4.09-5.25,6.48-1.56,1.76-2.9,3.16-4.01,4.2l2.31-.13,2.31-.13,6.03-.36c-.63-.89-1.45-1.93-2.44-3.13l2.28-1.34c2.37,2.69,4.34,5.52,5.93,8.47l-2.44,1.43c-.57-1.19-1.15-2.26-1.76-3.19l-10.16.68v12.09h-2.77v-11.92c-3,.09-5.26.16-6.78.23-3.54.13-5.94.21-7.2.23l-.2-2.57c.85,0,2.12-.02,3.81-.07,3.63-.09,6.16-.14,7.59-.16.5-.5.92-.93,1.27-1.3-3.08-2.74-5.98-4.82-8.7-6.26l1.6-2.02c1.19.63,2.31,1.31,3.36,2.05,1.22-1.48,2.36-3.09,3.42-4.85-2.82.15-6.27.24-10.33.26l-.59-2.54c12.31,0,21.27-.72,26.88-2.15l1.17,2.41c-4.17.98-8.8,1.6-13.88,1.86-1.39,2.32-2.95,4.46-4.69,6.42,1.43,1.04,2.63,2,3.58,2.87ZM1219.12,822.96c-3.54-2.13-6.51-4.71-8.9-7.75l2.15-1.43c1.95,2.61,4.81,4.92,8.57,6.94l-1.82,2.25Z"/>
      <path class="cls-1" d="M1228.76,802.37l.07-.1c1.37-2.15,2.57-4.17,3.62-6.06l2.44.98c-2.24,3.78-4.41,7.06-6.52,9.84,1.89-.09,3.31-.17,4.27-.26-.39-.91-.71-1.61-.95-2.08l2.12-.95c.98,1.89,1.85,3.89,2.61,6l-2.38.94c-.33-.91-.53-1.51-.62-1.79-.65.09-1.56.18-2.74.29v14.56h-2.57v-14.37c-1.63.11-3.4.2-5.31.26l-.2-2.41c.56,0,1.5-.03,2.8-.1.76-.96,1.39-1.8,1.89-2.54-1.2-1.41-2.82-2.93-4.89-4.56l1.4-2.08c.54.41.94.73,1.2.95,1.41-2.11,2.52-4.12,3.32-6.03l2.44.91c-1.35,2.8-2.64,5.06-3.88,6.78.76.72,1.38,1.33,1.86,1.82ZM1226.61,812.14c-.28,3.56-.84,6.66-1.66,9.29l-2.44-.88c.91-2.69,1.47-5.63,1.66-8.8l2.44.39ZM1234.23,811.56c.8,1.98,1.35,4.19,1.63,6.65l-2.44.55c-.15-2.15-.59-4.35-1.3-6.61l2.12-.59ZM1242.38,808.95c-.13,5-.89,8.5-2.28,10.52-1.19,1.76-2.97,3.18-5.31,4.27l-1.63-2.28c2.35-.98,4.02-2.3,5.02-3.97,1.02-1.65,1.55-4.5,1.6-8.54h2.61ZM1241.17,804.91h.13c3.76-.2,6.54-.38,8.34-.55-.8-1.11-1.77-2.24-2.9-3.39l2.22-1.34c2.13,2.11,3.94,4.56,5.44,7.36l-2.41,1.4c-.33-.72-.63-1.32-.91-1.82-5.39.54-10.31.9-14.76,1.08l-.26-2.57c1.35-.04,2.13-.07,2.35-.07,1.15-1.95,2.09-4.1,2.8-6.45h-5.67v-2.54h7.82v-3.16h2.74v3.16h7.92v2.54h-9.9c-.87,2.22-1.85,4.33-2.93,6.35ZM1248.47,808.95v11.21c0,.48.28.72.85.72h1.3c.5,0,.78-.34.85-1.01.04-.48.08-1.93.1-4.36l2.51.85c0,2.93-.14,4.8-.42,5.6-.35,1-1.13,1.5-2.35,1.5h-3.16c-1.54,0-2.31-.74-2.31-2.21v-12.28h2.64Z"/>
      <path class="cls-1" d="M1272.34,808.05l12.39,6.11-.72,1.46-15.05-7.57,15.05-7.59.72,1.46-12.39,6.13Z"/>
      <path class="cls-1" d="M1288.11,801.77h8.84v-3.22h1.82v3.22h8.84v1.7h-8.84v4.02h6.75v10.07h-15.32v-10.07h6.75v-4.02h-8.84v-1.7ZM1291.97,809.11v6.83h11.81v-6.83h-11.81Z"/>
      <path class="cls-1" d="M1321.91,807.58c-.12,2.64-.78,4.78-1.97,6.44-1.23,1.68-3.16,2.83-5.8,3.45l-.82-1.48c2.57-.49,4.39-1.54,5.45-3.16.85-1.27,1.32-3.02,1.41-5.25h-4.37c-.79,1.49-1.85,2.73-3.16,3.71l-1.25-1.21c1.29-.93,2.26-2.01,2.91-3.24.48-.93.87-2.26,1.17-4l1.83.12c-.22,1.08-.49,2.08-.82,2.99h9.58v1.62h-4.16Z"/>
      <path class="cls-1" d="M1330.52,801.48h1.46v13.53h1.25v-16.45h1.44v16.45h1.29v-13.53h1.42v15.13h-6.85v-15.13ZM1344.16,800.4h4.98v1.52h-4c.63.82,1.2,1.44,1.72,1.85.63.46,1.48.87,2.54,1.21l-.7,1.56c-1.79-.68-3.22-1.73-4.29-3.14-.3-.41-.55-.82-.76-1.23-.27.63-.58,1.16-.92,1.58-.87,1.13-2.19,2.05-3.94,2.75l-.84-1.52c2.09-.71,3.45-1.73,4.08-3.06h-3.84v-1.52h4.29c.1-.49.15-1.1.16-1.82h1.68c-.03.67-.09,1.28-.18,1.82ZM1349.61,806.9v1.52h-1.29v8.08c0,.57-.12.98-.35,1.21-.26.25-.68.37-1.25.37h-2.95l-.29-1.66,2.52.02c.26,0,.44-.05.55-.16.07-.08.1-.29.1-.64v-7.22h-8.65v-1.52h11.61ZM1344.93,809.71v5.56h-6.01v-5.56h6.01ZM1343.46,811.1h-3.01v2.75h3.01v-2.75Z"/>
      <path class="cls-1" d="M1354.72,804.66c.79-1.16,1.57-2.47,2.34-3.94l1.48.68c-1.39,2.48-2.74,4.54-4.04,6.19.41-.01,1.25-.05,2.52-.12-.18-.55-.33-.99-.47-1.33l1.31-.49c.55,1.23.93,2.41,1.15,3.55l-1.46.49c-.04-.32-.09-.59-.14-.82-.37.05-.85.1-1.44.12v9.08h-1.62v-8.98l-1.41.06-1.41.08-.49.04-.14-1.62c.64,0,1.22,0,1.72-.02.26-.33.66-.87,1.19-1.62-1.01-1.18-2-2.11-2.97-2.81l.84-1.31c.33.23.56.4.7.51.78-1.13,1.48-2.41,2.09-3.84l1.54.57c-.83,1.75-1.65,3.18-2.46,4.29.57.55.97.96,1.19,1.23ZM1353.42,810.83c-.15,2.31-.49,4.26-1.03,5.84l-1.52-.57c.53-1.5.87-3.33,1.03-5.5l1.52.22ZM1358.24,810.38c.49,1.42.81,2.87.94,4.35l-1.48.27c-.11-1.29-.38-2.67-.82-4.16l1.35-.45ZM1369.73,810.59v1.62h-4.29v3.47h5.15v1.58h-12.12v-1.58h5.27v-3.47h-4.1v-1.62h4.1v-2.26h1.7v2.26h4.29ZM1365.93,805.65c1.37.83,3.02,1.46,4.96,1.89l-.64,1.66c-2.42-.66-4.32-1.49-5.7-2.5-1.54,1.05-3.14,1.88-4.78,2.48l-.86-1.54c1.52-.55,2.95-1.23,4.28-2.05-1.01-1-1.97-2.25-2.87-3.77l1.39-.66c.92,1.49,1.87,2.65,2.85,3.47,1.23-1.03,2.24-2.25,3.01-3.69h-8.39v-1.52h10.21v1.5c-.68,1.76-1.85,3.34-3.49,4.74Z"/>
      <path class="cls-1" d="M1382.67,801.75h7.87v15.89h-17.39v-15.89h7.75v-3.18h1.76v3.18ZM1380.9,803.43h-6.01v5.29h6.01v-5.29ZM1380.9,810.34h-6.01v5.62h6.01v-5.62ZM1388.8,803.43h-6.13v5.29h6.13v-5.29ZM1388.8,810.34h-6.13v5.62h6.13v-5.62Z"/>
      <path class="cls-1" d="M1407.36,808.05l-12.39-6.13.72-1.46,15.05,7.59-15.05,7.57-.72-1.46,12.39-6.11Z"/>
      <path class="cls-1" d="M1070.39,859.57c1.13,2.3,2.7,4.54,4.72,6.71l-1.47,2.25c-1.32-1.63-2.41-3.37-3.26-5.21v16.06h-2.67v-16.68c-1.04,3.32-2.6,6.43-4.66,9.32l-1.27-3.09c2.5-3.11,4.46-6.93,5.9-11.47h-5.18v-2.54h5.21v-6.39h2.67v6.39h4.46v2.54h-4.46v2.12ZM1081.67,849.08c-.37,2.52-1.02,5.03-1.95,7.53-1.04,2.76-2.31,5.11-3.81,7.07l-2.31-1.86c1.63-2,2.83-4.05,3.62-6.16.74-1.98,1.35-4.31,1.82-7l2.64.42ZM1079.22,875.3h.13c4.45-.37,7.67-.7,9.64-.98-.98-2.48-2.05-4.74-3.23-6.81l2.25-1.14c1.11,1.69,2.16,3.67,3.16,5.93.91,2.11,1.63,4.09,2.15,5.96l-2.74,1.14c-.22-.91-.47-1.82-.75-2.74-3.32.61-8.47,1.16-15.44,1.66l-.42-2.74c1.3-.04,2.16-.08,2.57-.1.85-2.06,1.71-4.57,2.57-7.53.87-2.89,1.52-5.51,1.95-7.85l2.74.55c-1.43,5.86-2.96,10.74-4.59,14.63ZM1091.73,864.06c-1.5-1.72-2.8-4.03-3.91-6.94-.98-2.61-1.68-5.28-2.12-8.01l2.64-.39c1,5.41,2.82,9.83,5.47,13.26l-2.09,2.08Z"/>
      <path class="cls-1" d="M1098.7,856.08h25.57v11.99h-22.77c-.35,5.13-1.62,9-3.81,11.63l-2.35-2.15c1.19-1.54,2.03-3.25,2.51-5.11.56-2.17.85-4.11.85-5.83v-10.52ZM1126.56,849.83v2.64h-30.95v-2.64h30.95ZM1121.51,858.65h-19.87v6.81h19.87v-6.81Z"/>
      <path class="cls-1" d="M1137.83,850.38h18.6v3.03l-13.59,23.26h-3.55l13.81-23.42h-15.28v-2.87Z"/>
      <path class="cls-1" d="M1172.69,862.47c1.32.41,2.39.97,3.19,1.66,1.56,1.3,2.35,3.01,2.35,5.11,0,2.3-.92,4.21-2.77,5.73-1.78,1.48-4.23,2.22-7.36,2.22-2.93,0-5.66-.67-8.18-2.02l.94-2.9c2.09,1.39,4.51,2.08,7.27,2.08,2.11,0,3.79-.49,5.05-1.47,1.28-1,1.92-2.29,1.92-3.88,0-1.89-.98-3.27-2.93-4.14-1.11-.48-2.45-.72-4.04-.72h-2.41v-2.87h2.44c1.37,0,2.51-.3,3.42-.91,1.3-.82,1.96-2.01,1.96-3.55,0-1.45-.6-2.55-1.79-3.29-.85-.54-1.89-.81-3.13-.81-2.52,0-4.66,1.01-6.42,3.03l-1.2-2.93c2.28-1.98,4.82-2.96,7.62-2.96,2.39,0,4.38.71,5.96,2.12,1.32,1.22,1.99,2.78,1.99,4.69,0,2.69-1.29,4.63-3.88,5.8Z"/>
      <path class="cls-1" d="M1191.46,878.3l-1.86-2.22c3.34-1.65,6.1-3.83,8.28-6.55l2.35,1.34c-1.06,1.39-2.43,2.78-4.1,4.17-1.59,1.33-3.14,2.41-4.66,3.26ZM1204.13,861.91c3.08-3.32,5.53-6.28,7.33-8.86l2.31,1.3c-1.37,1.93-3.12,4.09-5.25,6.48-1.56,1.76-2.9,3.16-4.01,4.2l2.31-.13,2.31-.13,6.03-.36c-.63-.89-1.45-1.93-2.44-3.13l2.28-1.34c2.37,2.69,4.34,5.52,5.93,8.47l-2.44,1.43c-.57-1.19-1.15-2.26-1.76-3.19l-10.16.68v12.09h-2.77v-11.92c-3,.09-5.26.16-6.78.23-3.54.13-5.94.21-7.2.23l-.2-2.57c.85,0,2.12-.02,3.81-.07,3.63-.09,6.16-.14,7.59-.16.5-.5.92-.93,1.27-1.3-3.08-2.74-5.98-4.82-8.7-6.26l1.6-2.02c1.19.63,2.31,1.31,3.36,2.05,1.22-1.48,2.36-3.09,3.42-4.85-2.82.15-6.27.24-10.33.26l-.59-2.54c12.31,0,21.27-.72,26.88-2.15l1.17,2.41c-4.17.98-8.8,1.6-13.88,1.86-1.39,2.32-2.95,4.46-4.69,6.42,1.43,1.04,2.63,2,3.58,2.87ZM1219.12,878.62c-3.54-2.13-6.51-4.71-8.9-7.75l2.15-1.43c1.95,2.61,4.81,4.92,8.57,6.94l-1.82,2.25Z"/>
      <path class="cls-1" d="M1228.76,858.04l.07-.1c1.37-2.15,2.57-4.17,3.62-6.06l2.44.98c-2.24,3.78-4.41,7.06-6.52,9.84,1.89-.09,3.31-.17,4.27-.26-.39-.91-.71-1.61-.95-2.08l2.12-.95c.98,1.89,1.85,3.89,2.61,6l-2.38.94c-.33-.91-.53-1.51-.62-1.79-.65.09-1.56.18-2.74.29v14.56h-2.57v-14.37c-1.63.11-3.4.2-5.31.26l-.2-2.41c.56,0,1.5-.03,2.8-.1.76-.96,1.39-1.8,1.89-2.54-1.2-1.41-2.82-2.93-4.89-4.56l1.4-2.08c.54.41.94.73,1.2.95,1.41-2.11,2.52-4.12,3.32-6.03l2.44.91c-1.35,2.8-2.64,5.06-3.88,6.78.76.72,1.38,1.33,1.86,1.82ZM1226.61,867.81c-.28,3.56-.84,6.66-1.66,9.29l-2.44-.88c.91-2.69,1.47-5.63,1.66-8.8l2.44.39ZM1234.23,867.22c.8,1.98,1.35,4.19,1.63,6.65l-2.44.55c-.15-2.15-.59-4.35-1.3-6.61l2.12-.59ZM1242.38,864.62c-.13,5-.89,8.5-2.28,10.52-1.19,1.76-2.97,3.18-5.31,4.27l-1.63-2.28c2.35-.98,4.02-2.3,5.02-3.97,1.02-1.65,1.55-4.5,1.6-8.54h2.61ZM1241.17,860.58h.13c3.76-.2,6.54-.38,8.34-.55-.8-1.11-1.77-2.24-2.9-3.39l2.22-1.34c2.13,2.11,3.94,4.56,5.44,7.36l-2.41,1.4c-.33-.72-.63-1.32-.91-1.82-5.39.54-10.31.9-14.76,1.08l-.26-2.57c1.35-.04,2.13-.07,2.35-.07,1.15-1.95,2.09-4.1,2.8-6.45h-5.67v-2.54h7.82v-3.16h2.74v3.16h7.92v2.54h-9.9c-.87,2.22-1.85,4.33-2.93,6.35ZM1248.47,864.62v11.21c0,.48.28.72.85.72h1.3c.5,0,.78-.34.85-1.01.04-.48.08-1.93.1-4.36l2.51.85c0,2.93-.14,4.8-.42,5.6-.35,1-1.13,1.5-2.35,1.5h-3.16c-1.54,0-2.31-.74-2.31-2.21v-12.28h2.64Z"/>
      <path class="cls-1" d="M1271.15,863.71l9.91,6.11-.57,1.46-12.04-7.57,12.04-7.59.57,1.46-9.91,6.13Z"/>
      <path class="cls-1" d="M1283.76,857.44h7.07v-3.22h1.46v3.22h7.07v1.7h-7.07v4.02h5.4v10.07h-12.26v-10.07h5.4v-4.02h-7.07v-1.7ZM1286.85,864.78v6.83h9.45v-6.83h-9.45Z"/>
      <path class="cls-1" d="M1310.8,863.24c-.1,2.64-.62,4.78-1.58,6.44-.98,1.68-2.53,2.83-4.64,3.45l-.66-1.48c2.06-.49,3.51-1.54,4.36-3.16.68-1.27,1.06-3.02,1.13-5.25h-3.49c-.63,1.49-1.48,2.73-2.53,3.71l-1-1.21c1.03-.93,1.8-2.01,2.33-3.24.38-.93.69-2.26.94-4l1.46.12c-.17,1.08-.39,2.08-.66,2.99h7.66v1.62h-3.33Z"/>
      <path class="cls-1" d="M1317.69,857.15h1.16v13.53h1v-16.45h1.15v16.45h1.03v-13.53h1.13v15.13h-5.48v-15.13ZM1328.6,856.06h3.99v1.52h-3.2c.5.82.96,1.44,1.38,1.85.5.46,1.18.87,2.03,1.21l-.56,1.56c-1.43-.68-2.58-1.73-3.43-3.14-.24-.41-.44-.82-.61-1.23-.22.63-.46,1.16-.74,1.58-.7,1.13-1.75,2.05-3.15,2.75l-.67-1.52c1.67-.71,2.76-1.73,3.26-3.06h-3.07v-1.52h3.43c.08-.49.12-1.1.13-1.82h1.34c-.02.67-.07,1.28-.15,1.82ZM1332.96,862.56v1.52h-1.03v8.08c0,.57-.09.98-.28,1.21-.21.25-.54.37-1,.37h-2.36l-.23-1.66,2.02.02c.21,0,.36-.05.44-.16.05-.08.08-.29.08-.64v-7.22h-6.92v-1.52h9.28ZM1329.22,865.37v5.56h-4.81v-5.56h4.81ZM1328.04,866.77h-2.41v2.75h2.41v-2.75Z"/>
      <path class="cls-1" d="M1337.05,860.33c.63-1.16,1.26-2.47,1.87-3.94l1.18.68c-1.12,2.48-2.19,4.54-3.23,6.19.33-.01,1-.05,2.02-.12-.14-.55-.27-.99-.38-1.33l1.05-.49c.44,1.23.74,2.41.92,3.55l-1.17.49c-.03-.32-.07-.59-.11-.82-.3.05-.68.1-1.15.12v9.08h-1.3v-8.98l-1.13.06-1.13.08-.39.04-.11-1.62c.51,0,.97,0,1.38-.02.21-.33.52-.87.95-1.62-.81-1.18-1.6-2.11-2.38-2.81l.67-1.31c.26.23.45.4.56.51.62-1.13,1.18-2.41,1.67-3.84l1.23.57c-.67,1.75-1.32,3.18-1.97,4.29.46.55.78.96.95,1.23ZM1336.01,866.5c-.12,2.31-.39,4.26-.82,5.84l-1.21-.57c.43-1.5.7-3.33.82-5.5l1.21.22ZM1339.87,866.05c.39,1.42.65,2.87.75,4.35l-1.18.27c-.09-1.29-.31-2.67-.66-4.16l1.08-.45ZM1349.05,866.25v1.62h-3.43v3.47h4.12v1.58h-9.7v-1.58h4.22v-3.47h-3.28v-1.62h3.28v-2.26h1.36v2.26h3.43ZM1346.02,861.31c1.09.83,2.42,1.46,3.97,1.89l-.51,1.66c-1.94-.66-3.46-1.49-4.56-2.5-1.24,1.05-2.51,1.88-3.82,2.48l-.69-1.54c1.21-.55,2.36-1.23,3.43-2.05-.81-1-1.57-2.25-2.3-3.77l1.12-.66c.73,1.49,1.49,2.65,2.28,3.47.98-1.03,1.79-2.25,2.41-3.69h-6.71v-1.52h8.17v1.5c-.55,1.76-1.48,3.34-2.79,4.74Z"/>
      <path class="cls-1" d="M1359.41,857.42h6.3v15.89h-13.91v-15.89h6.2v-3.18h1.41v3.18ZM1358,859.1h-4.81v5.29h4.81v-5.29ZM1358,866.01h-4.81v5.62h4.81v-5.62ZM1364.31,859.1h-4.91v5.29h4.91v-5.29ZM1364.31,866.01h-4.91v5.62h4.91v-5.62Z"/>
      <path class="cls-1" d="M1382.28,873.66c-.62-.98-1.14-1.98-1.56-2.99-1-2.41-1.49-4.72-1.49-6.95,0-1.6.27-3.29.8-5.07.54-1.74,1.28-3.37,2.25-4.9h1.33c-.67,1.07-1.2,2.15-1.61,3.26-.85,2.25-1.28,4.49-1.28,6.71,0,2.58.56,5.14,1.67,7.67.32.72.72,1.48,1.21,2.28h-1.33Z"/>
      <path class="cls-1" d="M1388.64,861.21c.57,1.45,1.36,2.86,2.38,4.22l-.74,1.41c-.67-1.03-1.21-2.12-1.64-3.28v10.11h-1.34v-10.5c-.53,2.09-1.31,4.05-2.35,5.86l-.64-1.95c1.26-1.95,2.25-4.36,2.97-7.22h-2.61v-1.6h2.62v-4.02h1.34v4.02h2.25v1.6h-2.25v1.33ZM1394.32,854.61c-.19,1.59-.51,3.16-.98,4.74-.53,1.74-1.16,3.22-1.92,4.45l-1.16-1.17c.82-1.26,1.43-2.55,1.82-3.88.37-1.24.68-2.71.92-4.41l1.33.27ZM1393.09,871.11h.07c2.24-.23,3.86-.44,4.86-.62-.49-1.56-1.03-2.99-1.62-4.29l1.13-.72c.56,1.07,1.09,2.31,1.59,3.73.46,1.33.82,2.58,1.08,3.75l-1.38.72c-.11-.57-.24-1.15-.38-1.72-1.67.38-4.27.73-7.78,1.05l-.21-1.72c.66-.03,1.09-.05,1.3-.06.43-1.3.86-2.88,1.3-4.74.44-1.82.77-3.47.98-4.94l1.38.35c-.72,3.69-1.49,6.76-2.31,9.21ZM1399.39,864.04c-.75-1.08-1.41-2.54-1.97-4.37-.49-1.64-.85-3.32-1.07-5.05l1.33-.25c.5,3.4,1.42,6.19,2.75,8.35l-1.05,1.31Z"/>
      <path class="cls-1" d="M1402.9,859.01h12.88v7.55h-11.47c-.17,3.23-.82,5.67-1.92,7.32l-1.18-1.35c.6-.97,1.02-2.04,1.26-3.22.28-1.37.43-2.59.43-3.67v-6.62ZM1416.92,855.08v1.66h-15.58v-1.66h15.58ZM1414.38,860.64h-10.01v4.28h10.01v-4.28Z"/>
      <path class="cls-1" d="M1424.42,862.13h7.55c-.07,2.78-.2,5.07-.41,6.89-.19,1.71-.41,2.84-.66,3.4-.24.55-.58.92-1.03,1.11-.3.12-.68.18-1.16.18h-3.18l-.26-1.81,3.27.02c.61,0,1.04-.34,1.28-1.03.22-.66.41-2.26.56-4.82.05-.86.09-1.63.11-2.32h-6.18c-.24,2.28-.79,4.2-1.64,5.74-.89,1.59-2.14,3.01-3.77,4.27l-.92-1.62c2.1-1.49,3.52-3.32,4.25-5.48.59-1.72.89-4.33.9-7.81h-4.95v-1.68h7.02v-2.93h1.48v2.93h7.07v1.68h-9.17c-.01.78-.05,1.87-.13,3.26Z"/>
      <path class="cls-1" d="M1450.52,855.06v1.54h-7.12c-.16.93-.37,1.79-.61,2.58h7v14.13h-14.11v-14.13h5.71c.23-.7.42-1.56.57-2.58h-7.05v-1.54h15.6ZM1439.35,860.68h-2.3v11.11h2.3v-11.11ZM1444.78,860.68h-4.13v2.62h4.13v-2.62ZM1444.78,864.74h-4.13v2.69h4.13v-2.69ZM1444.78,868.86h-4.13v2.93h4.13v-2.93ZM1448.45,860.68h-2.35v11.11h2.35v-11.11Z"/>
      <path class="cls-1" d="M1452.82,873.66h-1.33c.67-1.08,1.2-2.17,1.61-3.26.85-2.24,1.28-4.47,1.28-6.68,0-2.6-.56-5.16-1.67-7.69-.32-.72-.72-1.48-1.21-2.28h1.33c.62,1,1.14,2,1.56,2.99.99,2.41,1.49,4.73,1.49,6.97,0,2.57-.63,5.19-1.89,7.85-.32.67-.71,1.37-1.16,2.09Z"/>
      <path class="cls-1" d="M1471.55,863.71l-9.91-6.13.57-1.46,12.04,7.59-12.04,7.57-.57-1.46,9.91-6.11Z"/>
      <path class="cls-8" d="M1070.39,915.23c1.13,2.3,2.7,4.54,4.72,6.71l-1.47,2.25c-1.32-1.63-2.41-3.37-3.26-5.21v16.06h-2.67v-16.68c-1.04,3.32-2.6,6.43-4.66,9.32l-1.27-3.09c2.5-3.11,4.46-6.93,5.9-11.47h-5.18v-2.54h5.21v-6.39h2.67v6.39h4.46v2.54h-4.46v2.12ZM1081.67,904.74c-.37,2.52-1.02,5.03-1.95,7.53-1.04,2.76-2.31,5.11-3.81,7.07l-2.31-1.86c1.63-2,2.83-4.05,3.62-6.16.74-1.98,1.35-4.31,1.82-7l2.64.42ZM1079.22,930.97h.13c4.45-.37,7.67-.7,9.64-.98-.98-2.48-2.05-4.74-3.23-6.81l2.25-1.14c1.11,1.69,2.16,3.67,3.16,5.93.91,2.11,1.63,4.09,2.15,5.96l-2.74,1.14c-.22-.91-.47-1.82-.75-2.74-3.32.61-8.47,1.16-15.44,1.66l-.42-2.74c1.3-.04,2.16-.08,2.57-.1.85-2.06,1.71-4.57,2.57-7.53.87-2.89,1.52-5.51,1.95-7.85l2.74.55c-1.43,5.86-2.96,10.74-4.59,14.63ZM1091.73,919.73c-1.5-1.72-2.8-4.03-3.91-6.94-.98-2.61-1.68-5.28-2.12-8.01l2.64-.39c1,5.41,2.82,9.83,5.47,13.26l-2.09,2.08Z"/>
      <path class="cls-8" d="M1098.7,911.74h25.57v11.99h-22.77c-.35,5.13-1.62,9-3.81,11.63l-2.35-2.15c1.19-1.54,2.03-3.25,2.51-5.11.56-2.17.85-4.11.85-5.83v-10.52ZM1126.56,905.49v2.64h-30.95v-2.64h30.95ZM1121.51,914.32h-19.87v6.81h19.87v-6.81Z"/>
      <path class="cls-8" d="M1137.83,906.04h18.6v3.03l-13.59,23.26h-3.55l13.81-23.42h-15.28v-2.87Z"/>
      <path class="cls-8" d="M1172.69,918.13c1.32.41,2.39.97,3.19,1.66,1.56,1.3,2.35,3.01,2.35,5.11,0,2.3-.92,4.21-2.77,5.73-1.78,1.48-4.23,2.22-7.36,2.22-2.93,0-5.66-.67-8.18-2.02l.94-2.9c2.09,1.39,4.51,2.08,7.27,2.08,2.11,0,3.79-.49,5.05-1.47,1.28-1,1.92-2.29,1.92-3.88,0-1.89-.98-3.27-2.93-4.14-1.11-.48-2.45-.72-4.04-.72h-2.41v-2.87h2.44c1.37,0,2.51-.3,3.42-.91,1.3-.82,1.96-2.01,1.96-3.55,0-1.45-.6-2.55-1.79-3.29-.85-.54-1.89-.81-3.13-.81-2.52,0-4.66,1.01-6.42,3.03l-1.2-2.93c2.28-1.98,4.82-2.96,7.62-2.96,2.39,0,4.38.71,5.96,2.12,1.32,1.22,1.99,2.78,1.99,4.69,0,2.69-1.29,4.63-3.88,5.8Z"/>
      <path class="cls-8" d="M1191.46,933.96l-1.86-2.22c3.34-1.65,6.1-3.83,8.28-6.55l2.35,1.34c-1.06,1.39-2.43,2.78-4.1,4.17-1.59,1.33-3.14,2.41-4.66,3.26ZM1204.13,917.58c3.08-3.32,5.53-6.28,7.33-8.86l2.31,1.3c-1.37,1.93-3.12,4.09-5.25,6.48-1.56,1.76-2.9,3.16-4.01,4.2l2.31-.13,2.31-.13,6.03-.36c-.63-.89-1.45-1.93-2.44-3.13l2.28-1.34c2.37,2.69,4.34,5.52,5.93,8.47l-2.44,1.43c-.57-1.19-1.15-2.26-1.76-3.19l-10.16.68v12.09h-2.77v-11.92c-3,.09-5.26.16-6.78.23-3.54.13-5.94.21-7.2.23l-.2-2.57c.85,0,2.12-.02,3.81-.07,3.63-.09,6.16-.14,7.59-.16.5-.5.92-.93,1.27-1.3-3.08-2.74-5.98-4.82-8.7-6.26l1.6-2.02c1.19.63,2.31,1.31,3.36,2.05,1.22-1.48,2.36-3.09,3.42-4.85-2.82.15-6.27.24-10.33.26l-.59-2.54c12.31,0,21.27-.72,26.88-2.15l1.17,2.41c-4.17.98-8.8,1.6-13.88,1.86-1.39,2.32-2.95,4.46-4.69,6.42,1.43,1.04,2.63,2,3.58,2.87ZM1219.12,934.29c-3.54-2.13-6.51-4.71-8.9-7.75l2.15-1.43c1.95,2.61,4.81,4.92,8.57,6.94l-1.82,2.25Z"/>
      <path class="cls-8" d="M1228.76,913.7l.07-.1c1.37-2.15,2.57-4.17,3.62-6.06l2.44.98c-2.24,3.78-4.41,7.06-6.52,9.84,1.89-.09,3.31-.17,4.27-.26-.39-.91-.71-1.61-.95-2.08l2.12-.95c.98,1.89,1.85,3.89,2.61,6l-2.38.94c-.33-.91-.53-1.51-.62-1.79-.65.09-1.56.18-2.74.29v14.56h-2.57v-14.37c-1.63.11-3.4.2-5.31.26l-.2-2.41c.56,0,1.5-.03,2.8-.1.76-.96,1.39-1.8,1.89-2.54-1.2-1.41-2.82-2.93-4.89-4.56l1.4-2.08c.54.41.94.73,1.2.95,1.41-2.11,2.52-4.12,3.32-6.03l2.44.91c-1.35,2.8-2.64,5.06-3.88,6.78.76.72,1.38,1.33,1.86,1.82ZM1226.61,923.47c-.28,3.56-.84,6.66-1.66,9.29l-2.44-.88c.91-2.69,1.47-5.63,1.66-8.8l2.44.39ZM1234.23,922.89c.8,1.98,1.35,4.19,1.63,6.65l-2.44.55c-.15-2.15-.59-4.35-1.3-6.61l2.12-.59ZM1242.38,920.28c-.13,5-.89,8.5-2.28,10.52-1.19,1.76-2.97,3.18-5.31,4.27l-1.63-2.28c2.35-.98,4.02-2.3,5.02-3.97,1.02-1.65,1.55-4.5,1.6-8.54h2.61ZM1241.17,916.24h.13c3.76-.2,6.54-.38,8.34-.55-.8-1.11-1.77-2.24-2.9-3.39l2.22-1.34c2.13,2.11,3.94,4.56,5.44,7.36l-2.41,1.4c-.33-.72-.63-1.32-.91-1.82-5.39.54-10.31.9-14.76,1.08l-.26-2.57c1.35-.04,2.13-.07,2.35-.07,1.15-1.95,2.09-4.1,2.8-6.45h-5.67v-2.54h7.82v-3.16h2.74v3.16h7.92v2.54h-9.9c-.87,2.22-1.85,4.33-2.93,6.35ZM1248.47,920.28v11.21c0,.48.28.72.85.72h1.3c.5,0,.78-.34.85-1.01.04-.48.08-1.93.1-4.36l2.51.85c0,2.93-.14,4.8-.42,5.6-.35,1-1.13,1.5-2.35,1.5h-3.16c-1.54,0-2.31-.74-2.31-2.21v-12.28h2.64Z"/>
      <path class="cls-8" d="M1270.61,919.37l8.79,6.11-.51,1.46-10.69-7.57,10.69-7.59.51,1.46-8.79,6.13Z"/>
      <path class="cls-8" d="M1281.8,913.1h6.27v-3.22h1.3v3.22h6.27v1.7h-6.27v4.02h4.79v10.07h-10.87v-10.07h4.79v-4.02h-6.27v-1.7ZM1284.54,920.44v6.83h8.39v-6.83h-8.39Z"/>
      <path class="cls-8" d="M1305.8,918.9c-.09,2.64-.55,4.78-1.4,6.44-.87,1.68-2.25,2.83-4.12,3.45l-.58-1.48c1.82-.49,3.12-1.54,3.87-3.16.6-1.27.94-3.02,1-5.25h-3.1c-.56,1.49-1.31,2.73-2.24,3.71l-.89-1.21c.91-.93,1.6-2.01,2.07-3.24.34-.93.62-2.26.83-4l1.3.12c-.16,1.08-.35,2.08-.58,2.99h6.8v1.62h-2.96Z"/>
      <path class="cls-8" d="M1311.91,912.81h1.03v13.53h.89v-16.45h1.02v16.45h.92v-13.53h1v15.13h-4.86v-15.13ZM1321.59,911.73h3.54v1.52h-2.84c.45.82.85,1.44,1.22,1.85.45.46,1.05.87,1.81,1.21l-.5,1.56c-1.27-.68-2.29-1.73-3.04-3.14-.21-.41-.39-.82-.54-1.23-.19.63-.41,1.16-.66,1.58-.62,1.13-1.55,2.05-2.79,2.75l-.6-1.52c1.49-.71,2.45-1.73,2.9-3.06h-2.72v-1.52h3.04c.07-.49.11-1.1.12-1.82h1.19c-.02.67-.06,1.28-.13,1.82ZM1325.47,918.23v1.52h-.92v8.08c0,.57-.08.98-.25,1.21-.18.25-.48.37-.89.37h-2.1l-.2-1.66,1.79.02c.18,0,.32-.05.39-.16.05-.08.07-.29.07-.64v-7.22h-6.14v-1.52h8.24ZM1322.15,921.04v5.56h-4.27v-5.56h4.27ZM1321.1,922.43h-2.14v2.75h2.14v-2.75Z"/>
      <path class="cls-8" d="M1333.47,917.49c.44,0,.81.24,1.12.72.26.42.39.91.39,1.46,0,.64-.17,1.18-.51,1.6-.29.37-.64.55-1.03.55-.46,0-.83-.23-1.14-.7-.26-.41-.39-.9-.39-1.48,0-.63.17-1.15.51-1.58.28-.38.63-.57,1.05-.57Z"/>
      <path class="cls-8" d="M1342.69,910.93h11.33v18h-11.33v-18ZM1343.98,918.97h8.72v-6.34h-8.72v6.34ZM1343.98,920.65v6.62h8.72v-6.62h-8.72Z"/>
      <path class="cls-8" d="M1362.5,915.09v-5.15h1.32v5.15h6.35v1.76h-6.13c.46,2.76,1.15,4.95,2.08,6.56.99,1.7,2.41,3.08,4.27,4.16l-.84,1.74c-1.98-1.31-3.5-2.99-4.56-5.02-.74-1.41-1.3-3.09-1.67-5.04-.31,1.57-.78,3.02-1.41,4.35-1.17,2.43-2.82,4.33-4.95,5.7l-.71-1.81c1.91-1.08,3.38-2.58,4.41-4.51.88-1.67,1.47-3.71,1.76-6.13h-6.06v-1.76h6.14Z"/>
      <path class="cls-8" d="M1373.63,910.74h1.21v3.9h2.88v-4.74h1.19v1.58h5.27v1.5h-5.27v1.66h6.17v1.5h-13.86v-1.5h2.4v-3.9ZM1372.08,929.01v-12.02h1.19v10.5h9.7v-10.5h1.22v12.02h-12.11ZM1377.05,921.55h-3.07v-1.42h3.6v-3.28h1.14v3.28h3.65v1.42h-3.15c.88,1.3,1.94,2.36,3.16,3.18l-.58,1.27c-1.18-.86-2.21-1.95-3.09-3.28v4h-1.14v-4c-1.02,1.53-2.06,2.66-3.13,3.38l-.53-1.27c1.12-.7,2.16-1.79,3.13-3.28ZM1375.74,916.79c.36.78.68,1.59.98,2.44l-1.08.55c-.25-.82-.55-1.63-.9-2.44l1-.55ZM1381.68,917.26c-.42,1.26-.76,2.13-1.03,2.6l-1.02-.55c.35-.74.69-1.61,1-2.6l1.05.55Z"/>
      <path class="cls-8" d="M1390.01,912.1v3.36h1.98v1.58h-1.98v.27c.48,1.24,1.17,2.51,2.07,3.79l-.7,1.5c-.58-1.07-1.04-2.08-1.37-3.04v9.82h-1.16v-9.64c-.59,1.97-1.38,3.75-2.37,5.33l-.54-1.83c.58-.78,1.16-1.87,1.75-3.26.47-1.13.83-2.12,1.05-2.95h-2.53v-1.58h2.65v-3.12c-.93.15-1.75.23-2.46.25l-.25-1.56c.9-.01,1.88-.12,2.94-.33.93-.19,1.72-.44,2.37-.76l.55,1.54c-.65.25-1.32.45-1.99.62ZM1398.52,921.36l1.43-.43.16,1.68-1.59.47v6.3h-1.22v-5.95l-5.21,1.54-.16-1.66,5.37-1.58v-11.79h1.22v11.42ZM1393.3,916.13c1.01.82,1.9,1.78,2.66,2.89l-.84,1.31c-.65-1.04-1.49-2.02-2.53-2.93l.71-1.27ZM1393.97,910.93c.99.85,1.88,1.83,2.66,2.95l-.83,1.33c-.75-1.13-1.59-2.15-2.53-3.06l.7-1.23Z"/>
      <path class="cls-8" d="M1403.23,919.91c.01-.62.01-.95.01-1v-7.05h4.72v-1.89h1.22v1.89h5.66v1.56h-10.42v5.48c0,4.54-.73,8.03-2.18,10.48l-.96-1.29c.64-1.11,1.11-2.28,1.4-3.51.19-.81.34-1.75.44-2.83-.48.38-1.17.87-2.08,1.46l-.2-1.85c.77-.36,1.57-.83,2.4-1.44ZM1401.81,913.47c.47,1.34.79,2.66.98,3.96l-1.11.55c-.13-1.19-.41-2.5-.84-3.94l.98-.57ZM1410.02,918.99h4.3v8.76c0,1.08-.37,1.62-1.12,1.62h-1.81l-.2-1.68h1.31c.29,0,.48-.05.55-.16.06-.11.09-.31.09-.62v-6.5h-2.77c.27,1,.66,1.87,1.17,2.62.41.62.92,1.21,1.53,1.78l-.71,1.33c-1.29-1.46-2.2-3.02-2.72-4.68-.08.37-.15.66-.22.88-.42,1.5-1.13,2.8-2.14,3.88l-.7-1.35c1.15-1.07,1.88-2.56,2.2-4.47h-2.29v8.96h-1.18v-10.38h3.64c.06-.62.1-1.36.12-2.24h-4.24v-1.5h10.02v1.5h-4.67c-.03.78-.08,1.52-.15,2.24Z"/>
      <path class="cls-8" d="M1416.31,910.54h4.09v1.44c-.17.94-.38,1.83-.61,2.67-.1.38-.33,1.19-.71,2.42.88,1.49,1.32,3.16,1.32,5,0,2.02-.58,3.03-1.75,3.03h-.73l-.19-1.66h.77c.5,0,.76-.55.76-1.66,0-.74-.13-1.54-.38-2.42-.22-.78-.54-1.52-.95-2.24.6-1.8,1.02-3.49,1.27-5.06h-1.72v17.35h-1.18v-18.87ZM1429.81,920.95h-3.07v6.01c0,.26.03.44.09.53.06.11.17.16.34.16h.82c.31,0,.5-.14.57-.43.08-.36.14-1.16.17-2.4l1.16.41c-.08,1.65-.18,2.71-.32,3.18-.11.37-.3.61-.57.74-.14.05-.36.08-.67.08h-1.59c-.34,0-.57-.03-.69-.1-.24-.14-.39-.43-.45-.88-.02-.14-.03-.47-.03-1v-6.3h-1.49c-.02,2.17-.36,3.97-1.02,5.39-.64,1.37-1.65,2.37-3.01,2.99l-.54-1.54c1.22-.51,2.1-1.35,2.62-2.54.5-1.11.74-2.54.74-4.31h-2.29v-1.58h9.22v1.58ZM1424.48,909.94h1.21v1.95h3.77v4.39h-1.16v-2.83h-6.45v2.83h-1.15v-4.39h3.78v-1.95ZM1428.03,917.08h-5.94v-1.52h5.94v1.52Z"/>
      <path class="cls-8" d="M1433.45,915.99c.56-1.16,1.12-2.47,1.66-3.94l1.05.68c-.99,2.48-1.95,4.54-2.87,6.19.29-.01.89-.05,1.79-.12-.13-.55-.24-.99-.33-1.33l.93-.49c.39,1.23.66,2.41.82,3.55l-1.03.49c-.03-.32-.06-.59-.1-.82-.26.05-.6.1-1.02.12v9.08h-1.15v-8.98l-1,.06-1,.08-.35.04-.1-1.62c.46,0,.86,0,1.22-.02.18-.33.47-.87.84-1.62-.72-1.18-1.42-2.11-2.11-2.81l.6-1.31c.23.23.4.4.5.51.55-1.13,1.05-2.41,1.48-3.84l1.09.57c-.59,1.75-1.17,3.18-1.75,4.29.41.55.69.96.84,1.23ZM1432.53,922.16c-.11,2.31-.35,4.26-.73,5.84l-1.08-.57c.38-1.5.62-3.33.73-5.5l1.08.22ZM1435.95,921.71c.35,1.42.57,2.87.67,4.35l-1.05.27c-.08-1.29-.27-2.67-.58-4.16l.96-.45ZM1444.11,921.92v1.62h-3.04v3.47h3.65v1.58h-8.6v-1.58h3.74v-3.47h-2.91v-1.62h2.91v-2.26h1.21v2.26h3.04ZM1441.41,916.98c.97.83,2.14,1.46,3.52,1.89l-.45,1.66c-1.72-.66-3.07-1.49-4.05-2.5-1.1,1.05-2.23,1.88-3.39,2.48l-.61-1.54c1.08-.55,2.09-1.23,3.04-2.05-.72-1-1.4-2.25-2.04-3.77l.99-.66c.65,1.49,1.33,2.65,2.02,3.47.87-1.03,1.59-2.25,2.14-3.69h-5.96v-1.52h7.25v1.5c-.49,1.76-1.31,3.34-2.48,4.74Z"/>
      <path class="cls-8" d="M1453.29,913.08h5.59v15.89h-12.35v-15.89h5.5v-3.18h1.25v3.18ZM1452.04,914.76h-4.27v5.29h4.27v-5.29ZM1452.04,921.67h-4.27v5.62h4.27v-5.62ZM1457.65,914.76h-4.35v5.29h4.35v-5.29ZM1457.65,921.67h-4.35v5.62h4.35v-5.62Z"/>
      <path class="cls-8" d="M1470.82,919.37l-8.79-6.13.51-1.46,10.69,7.59-10.69,7.57-.51-1.46,8.79-6.11Z"/>
      <path class="cls-6" d="M1065.71,972.54c.56,1.45,1.34,2.86,2.35,4.22l-.73,1.41c-.66-1.03-1.2-2.12-1.62-3.28v10.11h-1.33v-10.5c-.52,2.09-1.29,4.05-2.32,5.86l-.63-1.95c1.24-1.95,2.22-4.36,2.93-7.22h-2.58v-1.6h2.59v-4.02h1.33v4.02h2.22v1.6h-2.22v1.33ZM1071.31,965.93c-.18,1.59-.51,3.16-.97,4.74-.52,1.74-1.15,3.22-1.9,4.45l-1.15-1.17c.81-1.26,1.41-2.55,1.8-3.88.37-1.24.67-2.71.91-4.41l1.31.27ZM1070.1,982.44h.06c2.21-.23,3.81-.44,4.8-.62-.49-1.56-1.02-2.99-1.6-4.29l1.12-.72c.55,1.07,1.07,2.31,1.57,3.73.45,1.33.81,2.58,1.07,3.75l-1.36.72c-.11-.57-.23-1.15-.37-1.72-1.65.38-4.21.73-7.68,1.05l-.21-1.72c.65-.03,1.07-.05,1.28-.06.42-1.3.85-2.88,1.28-4.74.43-1.82.76-3.47.97-4.94l1.36.35c-.71,3.69-1.47,6.76-2.28,9.21ZM1076.32,975.37c-.75-1.08-1.39-2.54-1.94-4.37-.49-1.64-.84-3.32-1.05-5.05l1.31-.25c.5,3.4,1.4,6.19,2.72,8.35l-1.04,1.31Z"/>
      <path class="cls-6" d="M1079.79,970.34h12.72v7.55h-11.32c-.17,3.23-.8,5.67-1.9,7.32l-1.17-1.35c.59-.97,1.01-2.04,1.25-3.22.28-1.37.42-2.59.42-3.67v-6.62ZM1093.64,966.41v1.66h-15.39v-1.66h15.39ZM1091.13,971.96h-9.88v4.28h9.88v-4.28Z"/>
      <path class="cls-6" d="M1099.24,966.75h9.25v1.91l-6.76,14.64h-1.77l6.87-14.74h-7.6v-1.8Z"/>
      <path class="cls-6" d="M1111.72,969.28l2.92-2.52h1.39v16.55h-1.59v-14.35l-2.51,2.19-.21-1.87Z"/>
      <path class="cls-6" d="M1128.63,973.15c.49,0,.9.24,1.25.72.29.42.44.91.44,1.46,0,.64-.19,1.18-.57,1.6-.32.37-.71.55-1.15.55-.51,0-.93-.23-1.26-.7-.29-.41-.44-.9-.44-1.48,0-.63.19-1.15.57-1.58.31-.38.7-.57,1.17-.57Z"/>
      <path class="cls-6" d="M1137.73,966.75h9.25v1.91l-6.76,14.64h-1.77l6.87-14.74h-7.6v-1.8Z"/>
      <path class="cls-6" d="M1149.4,968.99c1.01-1.72,2.33-2.58,3.95-2.58,1.31,0,2.35.55,3.14,1.64.58.81.87,1.86.87,3.16,0,1.15-.24,2.24-.73,3.26-.77,1.67-2.31,4.01-4.62,7.03h5.93v1.81h-9.36c2.04-2.57,3.6-4.64,4.67-6.21.86-1.27,1.47-2.26,1.81-2.97.49-1.01.73-1.98.73-2.89,0-.98-.26-1.76-.79-2.32-.45-.46-1-.7-1.65-.7-1.38,0-2.49.96-3.32,2.87l-.63-2.09Z"/>
      <path class="cls-6" d="M1167.12,973.15c.49,0,.9.24,1.25.72.29.42.44.91.44,1.46,0,.64-.19,1.18-.57,1.6-.32.37-.71.55-1.15.55-.51,0-.93-.23-1.26-.7-.29-.41-.44-.9-.44-1.48,0-.63.19-1.15.57-1.58.31-.38.7-.57,1.17-.57Z"/>
      <path class="cls-6" d="M1176.23,966.75h9.25v1.91l-6.76,14.64h-1.77l6.87-14.74h-7.6v-1.8Z"/>
      <path class="cls-6" d="M1194.77,983.3h-1.56v-3.69h-6.11v-1.72l5.99-11.13h1.67v11.09h1.78v1.76h-1.78v3.69ZM1188.72,977.85h4.5v-8.43l-4.5,8.43Z"/>
      <path class="cls-6" d="M1202.89,984.33l-.92-1.39c1.66-1.04,3.03-2.41,4.11-4.12l1.17.84c-.53.87-1.21,1.75-2.04,2.62-.79.83-1.56,1.52-2.32,2.05ZM1209.19,974.01c1.53-2.09,2.75-3.95,3.64-5.58l1.15.82c-.68,1.22-1.55,2.58-2.61,4.08-.78,1.11-1.44,1.99-1.99,2.65l1.15-.08,1.15-.08,3-.22c-.31-.56-.72-1.22-1.22-1.97l1.13-.84c1.18,1.7,2.16,3.47,2.95,5.33l-1.21.9c-.28-.75-.57-1.42-.87-2.01l-5.05.43v7.61h-1.38v-7.51c-1.49.05-2.61.1-3.37.14-1.76.08-2.95.13-3.58.14l-.1-1.62c.42,0,1.05-.01,1.9-.04,1.8-.05,3.06-.09,3.77-.1.25-.31.46-.59.63-.82-1.53-1.72-2.98-3.03-4.33-3.94l.79-1.27c.59.4,1.15.83,1.67,1.29.61-.93,1.17-1.95,1.7-3.06-1.4.1-3.12.15-5.14.16l-.29-1.6c6.12,0,10.58-.45,13.36-1.35l.58,1.52c-2.07.62-4.38,1-6.9,1.17-.69,1.46-1.47,2.81-2.33,4.04.71.66,1.31,1.26,1.78,1.81ZM1216.64,984.53c-1.76-1.34-3.24-2.97-4.42-4.88l1.07-.9c.97,1.64,2.39,3.1,4.26,4.37l-.91,1.42Z"/>
      <path class="cls-6" d="M1221.44,971.57l.03-.06c.68-1.35,1.28-2.62,1.8-3.81l1.21.62c-1.11,2.38-2.19,4.44-3.24,6.19.94-.05,1.65-.11,2.12-.16-.19-.57-.35-1.01-.47-1.31l1.05-.59c.49,1.19.92,2.45,1.3,3.77l-1.18.59c-.16-.57-.26-.95-.31-1.13-.32.05-.78.12-1.36.18v9.17h-1.28v-9.04c-.81.07-1.69.12-2.64.16l-.1-1.52c.28,0,.75-.02,1.39-.06.38-.6.69-1.13.94-1.6-.59-.89-1.4-1.85-2.43-2.87l.7-1.31c.27.26.47.46.6.59.7-1.33,1.25-2.59,1.65-3.79l1.22.57c-.67,1.76-1.31,3.19-1.93,4.27.38.45.69.83.92,1.15ZM1220.37,977.73c-.14,2.24-.42,4.19-.83,5.84l-1.21-.55c.45-1.7.73-3.54.83-5.54l1.21.25ZM1224.16,977.36c.4,1.24.67,2.64.81,4.18l-1.21.35c-.08-1.35-.29-2.74-.65-4.16l1.05-.37ZM1228.21,975.72c-.07,3.14-.44,5.35-1.13,6.62-.59,1.11-1.48,2-2.64,2.69l-.81-1.44c1.17-.61,2-1.45,2.5-2.5.51-1.04.77-2.83.79-5.37h1.3ZM1227.61,973.17h.07c1.87-.12,3.25-.24,4.15-.35-.4-.7-.88-1.41-1.44-2.13l1.1-.84c1.06,1.33,1.96,2.87,2.71,4.63l-1.2.88c-.16-.45-.31-.83-.45-1.15-2.68.34-5.12.57-7.34.68l-.13-1.62c.67-.03,1.06-.04,1.17-.04.57-1.23,1.04-2.58,1.39-4.06h-2.82v-1.6h3.89v-1.99h1.36v1.99h3.94v1.6h-4.92c-.43,1.39-.92,2.73-1.46,4ZM1231.24,975.72v7.05c0,.3.14.45.42.45h.65c.25,0,.39-.21.42-.64.02-.3.04-1.22.05-2.75l1.25.53c0,1.85-.07,3.02-.21,3.53-.17.63-.56.94-1.17.94h-1.57c-.77,0-1.15-.46-1.15-1.39v-7.73h1.31Z"/>
      <path class="cls-6" d="M1249.55,984.98c-.62-.98-1.13-1.98-1.54-2.99-.98-2.41-1.48-4.72-1.48-6.95,0-1.6.26-3.29.79-5.07.53-1.74,1.27-3.37,2.22-4.9h1.31c-.66,1.07-1.19,2.15-1.59,3.26-.84,2.25-1.26,4.49-1.26,6.71,0,2.58.55,5.14,1.65,7.67.31.72.71,1.48,1.2,2.28h-1.31Z"/>
      <path class="cls-6" d="M1253.19,966.59h12.6v18h-12.6v-18ZM1254.63,974.63h9.7v-6.34h-9.7v6.34ZM1254.63,976.31v6.62h9.7v-6.62h-9.7Z"/>
      <path class="cls-6" d="M1275.24,970.75v-5.15h1.47v5.15h7.06v1.76h-6.82c.51,2.76,1.28,4.95,2.32,6.56,1.1,1.7,2.68,3.08,4.75,4.16l-.94,1.74c-2.2-1.31-3.89-2.99-5.07-5.02-.82-1.41-1.44-3.09-1.86-5.04-.35,1.57-.87,3.02-1.57,4.35-1.31,2.43-3.14,4.33-5.51,5.7l-.79-1.81c2.13-1.08,3.76-2.58,4.91-4.51.98-1.67,1.64-3.71,1.96-6.13h-6.74v-1.76h6.84Z"/>
      <path class="cls-6" d="M1287.62,966.41h1.34v3.9h3.21v-4.74h1.33v1.58h5.86v1.5h-5.86v1.66h6.87v1.5h-15.42v-1.5h2.67v-3.9ZM1285.9,984.68v-12.02h1.33v10.5h10.79v-10.5h1.36v12.02h-13.48ZM1291.43,977.21h-3.42v-1.42h4v-3.28h1.26v3.28h4.07v1.42h-3.5c.98,1.3,2.16,2.36,3.52,3.18l-.65,1.27c-1.32-.86-2.46-1.95-3.43-3.28v4h-1.26v-4c-1.13,1.53-2.29,2.66-3.48,3.38l-.58-1.27c1.24-.7,2.4-1.79,3.48-3.28ZM1289.97,972.46c.4.78.76,1.59,1.09,2.44l-1.2.55c-.28-.82-.62-1.63-1-2.44l1.12-.55ZM1296.58,972.93c-.46,1.26-.85,2.13-1.15,2.6l-1.13-.55c.39-.74.76-1.61,1.12-2.6l1.17.55Z"/>
      <path class="cls-6" d="M1305.84,967.76v3.36h2.2v1.58h-2.2v.27c.53,1.24,1.3,2.51,2.3,3.79l-.78,1.5c-.65-1.07-1.16-2.08-1.52-3.04v9.82h-1.3v-9.64c-.66,1.97-1.54,3.75-2.64,5.33l-.6-1.83c.65-.78,1.3-1.87,1.94-3.26.53-1.13.92-2.12,1.17-2.95h-2.82v-1.58h2.95v-3.12c-1.04.15-1.95.23-2.74.25l-.28-1.56c1-.01,2.1-.12,3.27-.33,1.04-.19,1.92-.44,2.64-.76l.62,1.54c-.72.25-1.46.45-2.22.62ZM1315.32,977.03l1.59-.43.18,1.68-1.77.47v6.3h-1.36v-5.95l-5.8,1.54-.18-1.66,5.98-1.58v-11.79h1.36v11.42ZM1309.51,971.8c1.12.82,2.11,1.78,2.96,2.89l-.94,1.31c-.72-1.04-1.66-2.02-2.82-2.93l.79-1.27ZM1310.25,966.59c1.1.85,2.09,1.83,2.97,2.95l-.92,1.33c-.83-1.13-1.77-2.15-2.82-3.06l.78-1.23Z"/>
      <path class="cls-6" d="M1320.55,975.57c.01-.62.02-.95.02-1v-7.05h5.25v-1.89h1.36v1.89h6.3v1.56h-11.6v5.48c0,4.54-.81,8.03-2.43,10.48l-1.07-1.29c.71-1.11,1.23-2.28,1.56-3.51.22-.81.38-1.75.49-2.83-.53.38-1.3.87-2.32,1.46l-.23-1.85c.85-.36,1.74-.83,2.67-1.44ZM1318.98,969.13c.52,1.34.88,2.66,1.08,3.96l-1.23.55c-.14-1.19-.45-2.5-.94-3.94l1.09-.57ZM1328.12,974.65h4.78v8.76c0,1.08-.42,1.62-1.25,1.62h-2.01l-.23-1.68h1.46c.32,0,.53-.05.62-.16.06-.11.1-.31.1-.62v-6.5h-3.08c.3,1,.73,1.87,1.3,2.62.45.62,1.02,1.21,1.7,1.78l-.79,1.33c-1.44-1.46-2.45-3.02-3.03-4.68-.09.37-.17.66-.24.88-.46,1.5-1.26,2.8-2.38,3.88l-.78-1.35c1.28-1.07,2.09-2.56,2.45-4.47h-2.54v8.96h-1.31v-10.38h4.05c.07-.62.11-1.36.13-2.24h-4.71v-1.5h11.15v1.5h-5.2c-.03.78-.09,1.52-.16,2.24Z"/>
      <path class="cls-6" d="M1335.12,966.2h4.55v1.44c-.19.94-.42,1.83-.68,2.67-.11.38-.37,1.19-.79,2.42.98,1.49,1.47,3.16,1.47,5,0,2.02-.65,3.03-1.94,3.03h-.81l-.21-1.66h.86c.56,0,.84-.55.84-1.66,0-.74-.14-1.54-.42-2.42-.25-.78-.6-1.52-1.05-2.24.67-1.8,1.14-3.49,1.41-5.06h-1.91v17.35h-1.31v-18.87ZM1350.14,976.62h-3.42v6.01c0,.26.03.44.1.53.07.11.19.16.37.16h.91c.34,0,.56-.14.63-.43.09-.36.15-1.16.19-2.4l1.3.41c-.09,1.65-.21,2.71-.36,3.18-.12.37-.33.61-.63.74-.15.05-.4.08-.75.08h-1.77c-.38,0-.63-.03-.76-.1-.27-.14-.44-.43-.5-.88-.02-.14-.03-.47-.03-1v-6.3h-1.65c-.02,2.17-.4,3.97-1.13,5.39-.71,1.37-1.83,2.37-3.35,2.99l-.6-1.54c1.36-.51,2.33-1.35,2.92-2.54.55-1.11.83-2.54.83-4.31h-2.54v-1.58h10.25v1.58ZM1344.21,965.61h1.34v1.95h4.2v4.39h-1.3v-2.83h-7.18v2.83h-1.28v-4.39h4.21v-1.95ZM1348.16,972.74h-6.61v-1.52h6.61v1.52Z"/>
      <path class="cls-6" d="M1353.41,966.73l1.59.16c-.5,2.82-.75,5.99-.75,9.52,0,3.16.17,5.64.5,7.44l-1.6.16c-.28-2.19-.42-4.64-.42-7.36,0-3.84.23-7.15.68-9.92ZM1357.86,975.39l1.36.53c-.55.97-.83,1.94-.83,2.89,0,.56.16,1,.47,1.31.35.34.76.55,1.25.64.52.1,1.1.14,1.73.14,1.36,0,2.62-.08,3.79-.25l.02,1.99c-1.15.11-2.2.16-3.18.16-1.65,0-2.87-.19-3.64-.57-1.22-.63-1.83-1.73-1.83-3.3,0-1.12.29-2.3.86-3.55ZM1357.51,968.44h7.79v1.85h-7.79v-1.85Z"/>
      <path class="cls-6" d="M1369.62,966.55l1.54.14c-.48,3.19-.71,6.4-.71,9.64,0,2.94.17,5.38.52,7.32l-1.49.27c-.31-1.98-.47-4.56-.47-7.73,0-3.34.2-6.55.62-9.64ZM1379.26,970.14h3.09v1.81h-3.09l.05,5.56c1.32.81,2.43,1.83,3.34,3.08l-.97,1.7c-.63-1.05-1.43-1.97-2.41-2.75v.76c-.01.97-.13,1.69-.36,2.15-.46.97-1.41,1.46-2.83,1.46-1.05,0-1.88-.3-2.49-.9-.7-.7-1.05-1.61-1.05-2.73,0-.94.26-1.75.79-2.42.67-.85,1.62-1.27,2.85-1.27.54,0,1.11.11,1.7.33l-.07-4.96h-5.02v-1.81h4.97l-.03-3.55h1.51l.03,3.55ZM1377.87,978.63c-.56-.31-1.13-.47-1.7-.47s-1.05.13-1.47.39c-.57.36-.86.93-.86,1.72,0,.71.23,1.24.7,1.6.38.29.86.43,1.46.43.91,0,1.48-.31,1.72-.94.11-.32.16-.79.16-1.44v-1.29Z"/>
      <path class="cls-6" d="M1386.5,976.31c-.46.64-1.06,1.33-1.78,2.05l-.53-1.93c1.65-1.49,3.09-3.7,4.31-6.64l1.17.76c-.57,1.42-1.16,2.64-1.75,3.65v10.87h-1.41v-8.76ZM1389.18,966.06c-.45,1.12-1.06,2.22-1.83,3.3-.76,1.07-1.55,1.93-2.38,2.6l-.74-1.68c1.47-1.01,2.73-2.65,3.77-4.9l1.18.68ZM1399.87,972.25v1.7h-2.66v9.39c0,.67-.12,1.13-.36,1.37-.23.23-.6.35-1.12.35h-2.85l-.24-1.91,2.67.02c.16,0,.28-.02.34-.06.1-.07.15-.24.15-.51v-8.65h-5.95v-1.7h10.01ZM1399.22,966.49v1.64h-8.68v-1.64h8.68Z"/>
      <path class="cls-6" d="M1410.03,970.69c.16.88.35,1.71.57,2.5,2.13-.15,3.75-.39,4.86-.72l.15,1.74c-1.04.25-2.44.44-4.21.57l-.26.02c.5,1.29,1.09,2.45,1.77,3.49l-1.28,1.15c-.83-1.27-1.53-2.79-2.09-4.55-.08.01-.73.03-1.98.04l-.32.02-5.25-.04v-1.7l5.04.08h.37c.07-.01.37-.02.92-.02h.73c-.17-.66-.36-1.5-.55-2.52-.51.03-.99.04-1.46.04h-4.45v-1.7l3.99.02h.37c.16,0,.59-.01,1.3-.04-.12-.89-.21-1.75-.26-2.58l1.57-.02c.04.77.12,1.61.23,2.52,1.67-.09,3.17-.29,4.49-.59l.13,1.76c-.99.22-2.32.38-3.98.49l-.37.04ZM1404.6,977.03l1.13.96c-.56.7-.84,1.34-.84,1.93s.26,1.09.78,1.48c.72.56,2.23.84,4.52.84,1.25,0,2.51-.07,3.77-.21l.03,1.87c-.97.09-2.1.14-3.37.14-2.03,0-3.48-.13-4.34-.39-.95-.3-1.68-.79-2.2-1.46-.48-.62-.71-1.31-.71-2.09,0-1.01.41-2.04,1.23-3.08Z"/>
      <path class="cls-6" d="M1426.54,968.66h5.31v1.62h-5.3v2.6h4.96v1.6h-4.96v2.95c1.58.71,3.23,1.98,4.96,3.81l-.97,1.78c-1.21-1.67-2.54-2.91-4-3.73v1.21c-.01.83-.14,1.5-.39,1.99-.55,1.05-1.54,1.58-2.98,1.58-1.26,0-2.23-.33-2.9-.99-.68-.66-1.02-1.51-1.02-2.56s.39-2,1.18-2.73c.76-.7,1.75-1.05,2.98-1.05.51,0,1.06.07,1.67.2v-2.48h-6.04v-1.6h6.04v-2.6h-6.29v-1.62h6.29v-2.19h1.46v2.19ZM1425.09,978.59c-.55-.19-1.11-.29-1.67-.29-.86,0-1.55.21-2.06.63-.49.41-.73.92-.73,1.52,0,.67.25,1.2.75,1.58.38.27.91.41,1.6.41,1,0,1.64-.34,1.91-1.03.13-.36.19-.78.19-1.27v-1.56Z"/>
      <path class="cls-6" d="M1438.88,970.88l5.98-.18-.02-.86c-.01-1.07-.03-2.24-.05-3.51h1.52l.02,1.19v2.03l.02,1.11,2.85-.08.02,1.76-2.85.08c.01.64.02,1.13.02,1.46.01.49.02.81.02.94,0,1.74-.17,2.89-.5,3.45-.37.59-1.04.88-2.03.88-.69,0-1.4-.09-2.12-.27l.05-1.72c.81.18,1.45.27,1.93.27s.79-.12.92-.35c.13-.25.2-.83.21-1.76.01-.15.02-.7.02-1.64v-1.21l-6.01.18v5.76c0,1.09.13,1.9.39,2.42.28.56.78.91,1.51,1.05.4.07,1.16.1,2.28.1,1.84,0,3.41-.06,4.73-.18l.02,1.82c-1.63.1-2.97.14-4.02.14-1.7,0-2.82-.06-3.37-.18-1.38-.31-2.28-1.17-2.69-2.58-.21-.71-.31-1.66-.31-2.85v-5.43l-2.61.08-.02-1.78,2.62-.08v-4.37h1.48v4.33Z"/>
      <path class="cls-6" d="M1455.89,966.24l1.65.57c-.91,2.52-1.76,5.25-2.56,8.2.39-.4.7-.68.94-.84.46-.33.97-.49,1.51-.49.98,0,1.71.46,2.19,1.37.33.66.5,1.85.5,3.57v.9c0,.74.05,1.31.16,1.7.08.29.23.51.45.68.24.19.51.29.83.29,1.07,0,1.81-.83,2.24-2.48.34-1.35.53-2.85.55-4.49l1.44.41c-.17,5.6-1.6,8.41-4.29,8.41-1.19,0-2.01-.54-2.46-1.62-.25-.56-.37-1.55-.37-2.97v-.53c0-.89-.04-1.57-.13-2.05-.08-.45-.23-.79-.47-1.03-.25-.25-.54-.37-.87-.37-.72,0-1.42.43-2.09,1.29-.36.45-.69,1.07-.99,1.85-.42,1.44-.85,3.22-1.28,5.35l-1.57-.62.49-1.85c1.35-5.18,2.23-8.48,2.62-9.9.14-.52.52-1.86,1.15-4.02.14-.45.26-.9.37-1.33Z"/>
      <path class="cls-6" d="M1468.51,984.98h-1.31c.66-1.08,1.19-2.17,1.59-3.26.84-2.24,1.26-4.47,1.26-6.68,0-2.6-.55-5.16-1.65-7.69-.31-.72-.71-1.48-1.2-2.28h1.31c.62,1,1.13,2,1.54,2.99.98,2.41,1.47,4.73,1.47,6.97,0,2.57-.62,5.19-1.86,7.85-.31.67-.7,1.37-1.15,2.09Z"/>
    </g>
    <path class="cls-10" d="M1195.81,479.83c2.42,0,4.47.84,6.15,2.52,1.68,1.68,2.52,3.71,2.52,6.09s-.84,4.41-2.52,6.09c-1.68,1.68-3.71,2.52-6.09,2.52s-4.41-.84-6.09-2.52c-1.68-1.68-2.52-3.71-2.52-6.09s.84-4.38,2.52-6.09c.92-.93,2.03-1.62,3.34-2.07.87-.3,1.77-.45,2.69-.45Z"/>
    <path class="cls-10" d="M1220.24,495.13c-1.86.7-3.75,1.31-5.66,1.83l-.51-1.78c.85-.2,2.02-.53,3.53-.96,1.19-.36,2.07-.64,2.65-.84v-7.73h-6.07v-1.7h6.07v-5.23h1.76v19.48h-1.76v-3.06ZM1224.95,478.7h1.78v6.75c2.12-1.18,3.96-2.46,5.52-3.85l1.21,1.5c-1.78,1.49-4.02,2.93-6.73,4.31v8.06c0,.23.04.39.12.47.1.12.31.18.64.18h3.22c.38,0,.64-.07.76-.23.3-.31.45-1.57.45-3.75l1.76.62c-.12,2.16-.29,3.51-.51,4.04-.29.71-.88,1.07-1.78,1.07h-4.66c-1.19,0-1.78-.51-1.78-1.54v-17.61Z"/>
    <path class="cls-10" d="M1240.23,485.65c.71,1.45,1.7,2.86,2.97,4.22l-.92,1.42c-.83-1.03-1.52-2.12-2.05-3.28v10.11h-1.68v-10.5c-.66,2.09-1.63,4.05-2.93,5.86l-.8-1.95c1.57-1.96,2.81-4.36,3.71-7.22h-3.26v-1.6h3.28v-4.02h1.68v4.02h2.81v1.6h-2.81v1.33ZM1247.32,479.05c-.23,1.59-.64,3.17-1.23,4.74-.66,1.74-1.46,3.22-2.4,4.45l-1.46-1.17c1.03-1.26,1.78-2.55,2.28-3.88.46-1.24.85-2.71,1.15-4.41l1.66.27ZM1245.79,495.56h.08c2.8-.23,4.83-.44,6.07-.61-.61-1.56-1.29-2.99-2.03-4.29l1.42-.72c.7,1.07,1.36,2.31,1.99,3.73.57,1.33,1.03,2.58,1.35,3.75l-1.72.72c-.14-.57-.29-1.15-.47-1.72-2.09.38-5.33.73-9.72,1.05l-.27-1.72c.82-.03,1.36-.05,1.62-.06.53-1.3,1.07-2.88,1.62-4.74.55-1.82.96-3.47,1.23-4.94l1.72.35c-.9,3.69-1.87,6.76-2.89,9.21ZM1253.66,488.48c-.94-1.08-1.76-2.54-2.46-4.37-.62-1.64-1.06-3.32-1.33-5.04l1.66-.25c.63,3.4,1.78,6.19,3.45,8.35l-1.31,1.31Z"/>
    <path class="cls-10" d="M1258.05,483.46h16.1v7.55h-14.33c-.22,3.23-1.02,5.67-2.4,7.32l-1.48-1.35c.75-.97,1.28-2.04,1.58-3.22.36-1.37.53-2.59.53-3.67v-6.62ZM1275.58,479.52v1.66h-19.48v-1.66h19.48ZM1272.4,485.08h-12.51v4.29h12.51v-4.29Z"/>
    <path class="cls-10" d="M1277.86,497.1l-1.13-.55c.48-1.41.74-2.99.78-4.74l1.11.04c-.07,2.09-.32,3.84-.76,5.25ZM1286.29,479.34v1.39h-2.97v1.83h2.56v1.29h-2.56v1.91h2.56v1.31h-2.56v2.07h2.83c-.1,3.95-.43,6.53-1,7.75-.42.86-1.18,1.29-2.28,1.29h-2.36l-.31-1.58,2.4.04c.38,0,.67-.08.86-.23.64-.49,1.01-2.47,1.11-5.93h-6.91v-11.16h8.63ZM1280.38,495.72l-1.11.1c.04-.59.06-1.2.06-1.85,0-.75-.03-1.46-.1-2.13l.94-.02c.12,1.46.19,2.76.2,3.9ZM1281.82,480.73h-2.54v1.83h2.54v-1.83ZM1281.82,483.85h-2.54v1.91h2.54v-1.91ZM1281.82,487.07h-2.54v2.07h2.54v-2.07ZM1282.2,495.19l-.96.2c0-1.12-.12-2.3-.35-3.55l.86-.12c.26,1.28.41,2.44.45,3.47ZM1283.8,494.35l-.86.2c-.09-1.08-.27-2.04-.51-2.87l.82-.16c.26.92.44,1.86.55,2.83ZM1287.68,479.34h8.33v8.8h-2.95c.3,3.29,1.57,6.13,3.81,8.51l-1.13,1.56c-2.42-2.53-3.84-5.88-4.24-10.07h-2.19v.9c0,3.83-.84,6.88-2.52,9.17l-1.29-1.23c1.46-2.01,2.19-4.68,2.19-8.02v-9.62ZM1294.32,480.96h-5.02v5.58h5.02v-5.58Z"/>
    <path class="cls-10" d="M1301.19,479.5h7.65v.84c0,5.71,1.74,10.16,5.23,13.35,1.08,1,2.35,1.89,3.81,2.69l-1.23,1.7c-4.87-2.98-7.78-6.92-8.74-11.83-.56,2.5-1.44,4.61-2.65,6.34-1.49,2.13-3.59,3.97-6.3,5.52l-1.17-1.66c1.93-.92,3.53-2.05,4.8-3.4,2.31-2.42,3.69-5.34,4.14-8.78.11-.74.16-1.74.16-2.99h-5.72v-1.76Z"/>
    <path class="cls-10" d="M1337.28,480.22v17.33h-16.88v-17.33h16.88ZM1335.46,481.96h-13.23v13.86h13.23v-13.86Z"/>
    <path class="cls-10" d="M664.68,510.66c2.42,0,4.47.84,6.15,2.52s2.52,3.71,2.52,6.09-.84,4.41-2.52,6.09-3.71,2.52-6.09,2.52-4.41-.84-6.09-2.52-2.52-3.71-2.52-6.09.84-4.38,2.52-6.09c.92-.93,2.03-1.62,3.34-2.07.88-.3,1.77-.45,2.69-.45Z"/>
    <path class="cls-10" d="M682.99,512.71h8.84v-3.22h1.83v3.22h8.84v1.7h-8.84v4.02h6.75v10.07h-15.32v-10.07h6.75v-4.02h-8.84v-1.7ZM686.84,520.05v6.83h11.81v-6.83h-11.81Z"/>
    <path class="cls-10" d="M716.78,518.51c-.12,2.64-.78,4.78-1.97,6.44-1.23,1.68-3.17,2.83-5.8,3.45l-.82-1.48c2.57-.49,4.39-1.54,5.45-3.16.85-1.27,1.32-3.02,1.42-5.25h-4.37c-.79,1.49-1.85,2.73-3.16,3.71l-1.25-1.21c1.28-.93,2.26-2.01,2.91-3.24.48-.93.87-2.26,1.17-4l1.83.12c-.22,1.08-.49,2.08-.82,2.99h9.58v1.62h-4.16Z"/>
    <path class="cls-10" d="M725.39,512.42h1.46v13.53h1.25v-16.45h1.44v16.45h1.29v-13.53h1.41v15.13h-6.85v-15.13ZM739.03,511.33h4.98v1.52h-4c.63.82,1.2,1.44,1.72,1.85.63.46,1.48.87,2.54,1.21l-.7,1.56c-1.79-.68-3.22-1.73-4.29-3.14-.3-.41-.55-.82-.76-1.23-.27.63-.58,1.16-.92,1.58-.88,1.13-2.19,2.05-3.94,2.75l-.84-1.52c2.09-.71,3.45-1.73,4.08-3.06h-3.83v-1.52h4.29c.1-.49.15-1.1.16-1.83h1.68c-.03.67-.09,1.28-.18,1.83ZM744.49,517.83v1.52h-1.29v8.08c0,.57-.12.98-.35,1.21-.26.25-.68.37-1.25.37h-2.95l-.29-1.66,2.52.02c.26,0,.44-.05.55-.16.07-.08.1-.29.1-.64v-7.22h-8.65v-1.52h11.61ZM739.81,520.64v5.56h-6.01v-5.56h6.01ZM738.33,522.04h-3.01v2.75h3.01v-2.75Z"/>
    <path class="cls-10" d="M676.06,739.78c.71,1.45,1.7,2.86,2.97,4.22l-.92,1.42c-.83-1.03-1.52-2.12-2.05-3.28v10.11h-1.68v-10.5c-.66,2.09-1.63,4.05-2.93,5.86l-.8-1.95c1.57-1.96,2.81-4.36,3.71-7.22h-3.26v-1.6h3.28v-4.02h1.68v4.02h2.81v1.6h-2.81v1.33ZM683.15,733.17c-.23,1.59-.64,3.17-1.23,4.74-.66,1.74-1.46,3.22-2.4,4.45l-1.46-1.17c1.03-1.26,1.78-2.55,2.28-3.88.46-1.24.85-2.71,1.15-4.41l1.66.27ZM681.61,749.68h.08c2.8-.23,4.83-.44,6.07-.61-.62-1.56-1.29-2.99-2.03-4.29l1.41-.72c.7,1.07,1.36,2.31,1.99,3.73.57,1.33,1.03,2.58,1.35,3.75l-1.72.72c-.14-.57-.29-1.15-.47-1.72-2.09.38-5.33.73-9.72,1.05l-.27-1.72c.82-.03,1.36-.05,1.62-.06.53-1.3,1.07-2.88,1.62-4.74.55-1.82.96-3.47,1.23-4.94l1.72.35c-.9,3.69-1.87,6.76-2.89,9.21ZM689.49,742.61c-.94-1.08-1.76-2.54-2.46-4.37-.62-1.64-1.06-3.32-1.33-5.04l1.66-.25c.63,3.4,1.78,6.19,3.45,8.35l-1.31,1.31Z"/>
    <path class="cls-10" d="M693.88,737.58h16.1v7.55h-14.33c-.22,3.23-1.02,5.67-2.4,7.32l-1.48-1.35c.75-.97,1.28-2.04,1.58-3.22.36-1.37.53-2.59.53-3.67v-6.62ZM711.41,733.65v1.66h-19.48v-1.66h19.48ZM708.23,739.2h-12.51v4.29h12.51v-4.29Z"/>
    <path class="cls-10" d="M718.46,735.86h3.88c-.45-.89-.96-1.72-1.52-2.5l1.6-.72c.79,1.16,1.4,2.24,1.83,3.22h2.83c.57-.9,1.07-1.91,1.5-3.03l1.76.64c-.36.81-.79,1.61-1.31,2.4h2.89v4.74h-1.7v-3.22h-15.05v3.22h-1.74v-4.74h3.1c-.42-.74-.91-1.48-1.46-2.23l1.6-.74c.7.96,1.3,1.95,1.8,2.97ZM729.13,738.94v5.11h-5.62c-.07.19-.15.47-.25.84-.1.3-.19.59-.29.86h7.92v6.17h-16.49v-6.17h6.75c.16-.37.35-.94.55-1.7h-5.5v-5.11h12.92ZM729.17,747.2h-13.06v3.2h13.06v-3.2ZM727.42,740.31h-9.52v2.34h9.52v-2.34Z"/>
    <path class="cls-10" d="M745.8,746.69c.98.82,1.93,1.48,2.85,1.97,1.33.72,2.9,1.31,4.72,1.74l-1,1.56c-1.85-.62-3.38-1.29-4.61-2.01-.74-.44-1.57-1.04-2.48-1.8-.16-.15-.42-.38-.78-.68v4.8h-1.66v-4.78c-1.83,1.83-4.45,3.31-7.85,4.45l-.92-1.52c1.86-.55,3.37-1.12,4.53-1.72,1.03-.52,2.02-1.19,2.99-2.01h-7.59v-1.42h8.84v-1.56h-7.36v-1.33h7.36v-1.48h-7.92v-1.39h4.53c-.19-.75-.4-1.41-.64-1.99h-4.82v-1.46h3.42c-.26-.64-.7-1.53-1.31-2.67l1.7-.55c.59,1.08,1.05,2.15,1.37,3.22h1.74v-3.2h1.64v3.2h2.24v-3.2h1.64v3.2h1.68c.6-1.16,1.07-2.23,1.42-3.22l1.7.55c-.25.66-.7,1.54-1.35,2.67h3.51v1.46h-4.88c-.19.64-.41,1.31-.66,1.99h4.7v1.39h-8.06v1.48h7.48v1.33h-7.48v1.56h8.9v1.42h-7.59ZM746.72,737.52h-6.13c.14.38.24.7.31.96.16.57.26.92.29,1.03h4.94c.23-.57.43-1.24.59-1.99Z"/>
    <path class="cls-10" d="M756.24,737.34h7.44v7.71h-5.76c-.14,3.1-.72,5.52-1.74,7.24l-1.44-1.27c1-1.69,1.5-3.91,1.5-6.64v-7.03ZM764.42,733.52v1.6h-9.39v-1.6h9.39ZM762.02,738.92h-4.1v4.51h4.1v-4.51ZM773.99,734.28c-1.13.44-2.28.77-3.42.98-.89.18-2.06.34-3.53.47v3.57h7.34v1.64h-2.5v11.38h-1.72v-11.38h-3.12v.49c0,1.94-.22,3.85-.66,5.74-.45,1.9-1.28,3.59-2.5,5.06l-1.56-1.19c1.07-1.11,1.82-2.37,2.26-3.77.49-1.61.74-3.39.74-5.33v-7.71c1.27-.03,2.6-.18,4-.45,1.38-.26,2.6-.62,3.67-1.07l1,1.56Z"/>
    <path class="cls-10" d="M792.61,733.95c2.42,0,4.47.84,6.15,2.52s2.52,3.71,2.52,6.09-.84,4.41-2.52,6.09-3.71,2.52-6.09,2.52-4.41-.84-6.09-2.52-2.52-3.71-2.52-6.09.84-4.38,2.52-6.09c.92-.93,2.03-1.62,3.34-2.07.88-.3,1.77-.45,2.69-.45Z"/>
  </g>
  <polygon class="cls-9" points="748.77 134.41 0 652.28 0 134.41 748.77 134.41"/>
  <g>
    <g>
      <rect class="cls-11" x=".8" y=".8" width="1918.39" height="132.8"/>
      <path class="cls-4" d="M1918.39,1.61v131.2H1.61V1.61h1916.79M1920,0H0v134.41h1920V0h0Z"/>
    </g>
    <g>
      <g>
        <path class="cls-5" d="M684.29,85.2h-14.1v-34.86h13.56c6.46,0,10.53,3.67,10.53,9.55,0,3.77-2.35,6.46-4.7,7.39,2.69,1.08,5.24,3.67,5.24,8.08,0,6.41-4.36,9.84-10.53,9.84ZM683.31,55.09h-7.83v9.99h7.83c3.38,0,5.68-1.76,5.68-4.99s-2.3-4.99-5.68-4.99ZM683.8,69.83h-8.32v10.63h8.32c3.67,0,5.73-2.25,5.73-5.34s-2.06-5.29-5.73-5.29Z"/>
        <path class="cls-5" d="M717.05,85.2v-2.5c-1.71,1.86-4.11,2.79-6.61,2.79s-4.65-.83-6.12-2.25c-1.91-1.86-2.5-4.21-2.5-7v-15.86h4.99v15.13c0,3.87,2.2,5.53,4.99,5.53s5.14-1.71,5.14-5.53v-15.13h4.99v24.83h-4.9Z"/>
        <path class="cls-5" d="M737.91,85.5c-4.06,0-7.49-.69-10.43-3.57l3.28-3.28c2.01,2.06,4.7,2.6,7.15,2.6,3.08,0,5.43-1.08,5.43-3.43,0-1.71-.93-2.69-3.33-2.94l-3.97-.34c-4.7-.44-7.34-2.5-7.34-6.86,0-4.9,4.16-7.59,9.35-7.59,3.77,0,6.9.78,9.21,2.79l-3.13,3.18c-1.57-1.32-3.77-1.81-6.12-1.81-3.04,0-4.5,1.27-4.5,3.18,0,1.71.98,2.6,3.43,2.84l3.48.29c5.14.44,7.83,2.69,7.83,7.05,0,5.19-4.41,7.88-10.33,7.88Z"/>
        <path class="cls-5" d="M766.65,85.2v-34.86h5.29v34.86h-5.29Z"/>
        <path class="cls-5" d="M795.59,85.2v-15.13c0-3.87-2.2-5.53-4.99-5.53s-5.14,1.71-5.14,5.53v15.13h-4.99v-24.83h4.9v2.5c1.71-1.86,4.11-2.79,6.61-2.79s4.65.83,6.12,2.25c1.91,1.86,2.5,4.21,2.5,7v15.86h-4.99Z"/>
        <path class="cls-5" d="M814.06,64.2v21.01h-4.99v-21.01h-2.84v-3.82h2.84v-3.38c0-3.57,2.15-6.9,6.81-6.9h3.13v4.26h-2.2c-1.86,0-2.74,1.08-2.74,2.89v3.13h4.95v3.82h-4.95Z"/>
        <path class="cls-5" d="M840.94,82.56c-1.62,1.66-4.06,2.94-7.44,2.94s-5.78-1.27-7.39-2.94c-2.35-2.45-2.94-5.58-2.94-9.79s.59-7.3,2.94-9.74c1.62-1.67,4.02-2.94,7.39-2.94s5.83,1.27,7.44,2.94c2.35,2.45,2.94,5.58,2.94,9.74s-.59,7.34-2.94,9.79ZM837.17,65.96c-.93-.93-2.2-1.42-3.67-1.42s-2.69.49-3.62,1.42c-1.52,1.52-1.71,4.11-1.71,6.81s.2,5.29,1.71,6.81c.93.93,2.15,1.47,3.62,1.47s2.74-.54,3.67-1.47c1.52-1.52,1.71-4.11,1.71-6.81s-.2-5.29-1.71-6.81Z"/>
        <path class="cls-5" d="M864.3,66.2c-1.13-1.13-2.01-1.67-3.72-1.67-2.69,0-4.95,2.15-4.95,5.58v15.08h-4.99v-24.83h4.9v2.69c1.27-1.76,3.82-2.99,6.61-2.99,2.4,0,4.21.64,5.92,2.35l-3.77,3.77Z"/>
        <path class="cls-5" d="M902.39,85.2v-15.13c0-3.87-2.2-5.53-4.99-5.53s-5.14,1.71-5.14,5.29v15.37h-4.99v-15.13c0-3.87-2.2-5.53-4.99-5.53s-5.14,1.71-5.14,5.53v15.13h-4.99v-24.83h4.9v2.5c1.66-1.81,4.11-2.79,6.61-2.79,3.08,0,5.48,1.22,7.05,3.62,2.01-2.45,4.5-3.62,7.79-3.62,2.55,0,4.8.83,6.27,2.25,1.91,1.86,2.64,4.21,2.64,7v15.86h-4.99Z"/>
        <path class="cls-5" d="M928.45,85.2v-2.25c-1.81,1.81-3.53,2.55-6.61,2.55s-5.14-.73-6.66-2.25c-1.27-1.32-1.96-3.23-1.96-5.34,0-4.16,2.89-7.15,8.62-7.15h6.51v-1.76c0-3.18-1.52-4.65-5.43-4.65-2.64,0-4.02.69-5.44,2.45l-3.23-3.08c2.3-2.74,4.7-3.62,8.86-3.62,6.86,0,10.23,2.94,10.23,8.52v16.6h-4.9ZM928.35,74.23h-5.73c-3.04,0-4.55,1.27-4.55,3.57s1.42,3.53,4.7,3.53c1.76,0,3.18-.2,4.5-1.42.78-.73,1.08-1.91,1.08-3.67v-2.01Z"/>
        <path class="cls-5" d="M948.43,85.2c-4.65,0-6.81-3.33-6.81-6.9v-14.1h-2.84v-3.82h2.84v-7.1h4.99v7.1h4.8v3.82h-4.8v13.86c0,1.81.88,2.89,2.74,2.89h2.06v4.26h-2.99Z"/>
        <path class="cls-5" d="M957.64,55.48v-5.29h5.29v5.29h-5.29ZM957.78,85.2v-24.83h4.99v24.83h-4.99Z"/>
        <path class="cls-5" d="M987.31,82.56c-1.62,1.66-4.06,2.94-7.44,2.94s-5.78-1.27-7.39-2.94c-2.35-2.45-2.94-5.58-2.94-9.79s.59-7.3,2.94-9.74c1.62-1.67,4.02-2.94,7.39-2.94s5.83,1.27,7.44,2.94c2.35,2.45,2.94,5.58,2.94,9.74s-.59,7.34-2.94,9.79ZM983.54,65.96c-.93-.93-2.2-1.42-3.67-1.42s-2.69.49-3.62,1.42c-1.52,1.52-1.71,4.11-1.71,6.81s.2,5.29,1.71,6.81c.93.93,2.15,1.47,3.62,1.47s2.74-.54,3.67-1.47c1.52-1.52,1.71-4.11,1.71-6.81s-.2-5.29-1.71-6.81Z"/>
        <path class="cls-5" d="M1012.14,85.2v-15.13c0-3.87-2.2-5.53-4.99-5.53s-5.14,1.71-5.14,5.53v15.13h-4.99v-24.83h4.9v2.5c1.71-1.86,4.11-2.79,6.61-2.79s4.65.83,6.12,2.25c1.91,1.86,2.5,4.21,2.5,7v15.86h-4.99Z"/>
        <path class="cls-5" d="M1051.26,85.2h-14.1v-34.86h13.56c6.46,0,10.53,3.67,10.53,9.55,0,3.77-2.35,6.46-4.7,7.39,2.69,1.08,5.24,3.67,5.24,8.08,0,6.41-4.36,9.84-10.53,9.84ZM1050.28,55.09h-7.83v9.99h7.83c3.38,0,5.68-1.76,5.68-4.99s-2.3-4.99-5.68-4.99ZM1050.77,69.83h-8.32v10.63h8.32c3.67,0,5.73-2.25,5.73-5.34s-2.06-5.29-5.73-5.29Z"/>
        <path class="cls-5" d="M1085.64,82.56c-1.62,1.66-4.06,2.94-7.44,2.94s-5.78-1.27-7.39-2.94c-2.35-2.45-2.94-5.58-2.94-9.79s.59-7.3,2.94-9.74c1.62-1.67,4.02-2.94,7.39-2.94s5.83,1.27,7.44,2.94c2.35,2.45,2.94,5.58,2.94,9.74s-.59,7.34-2.94,9.79ZM1081.87,65.96c-.93-.93-2.2-1.42-3.67-1.42s-2.69.49-3.62,1.42c-1.52,1.52-1.71,4.11-1.71,6.81s.2,5.29,1.71,6.81c.93.93,2.15,1.47,3.62,1.47s2.74-.54,3.67-1.47c1.52-1.52,1.71-4.11,1.71-6.81s-.2-5.29-1.71-6.81Z"/>
        <path class="cls-5" d="M1108.71,85.2v-2.25c-1.81,1.81-3.53,2.55-6.61,2.55s-5.14-.73-6.66-2.25c-1.27-1.32-1.96-3.23-1.96-5.34,0-4.16,2.89-7.15,8.62-7.15h6.51v-1.76c0-3.18-1.52-4.65-5.44-4.65-2.64,0-4.01.69-5.43,2.45l-3.23-3.08c2.3-2.74,4.7-3.62,8.86-3.62,6.86,0,10.23,2.94,10.23,8.52v16.6h-4.9ZM1108.61,74.23h-5.73c-3.04,0-4.55,1.27-4.55,3.57s1.42,3.53,4.7,3.53c1.76,0,3.18-.2,4.5-1.42.78-.73,1.08-1.91,1.08-3.67v-2.01Z"/>
        <path class="cls-5" d="M1134.95,66.2c-1.13-1.13-2.01-1.67-3.72-1.67-2.69,0-4.95,2.15-4.95,5.58v15.08h-4.99v-24.83h4.9v2.69c1.27-1.76,3.82-2.99,6.61-2.99,2.4,0,4.21.64,5.92,2.35l-3.77,3.77Z"/>
        <path class="cls-5" d="M1157.04,85.2v-2.64c-1.86,2.25-3.87,2.94-6.56,2.94-2.5,0-4.7-.83-6.07-2.2-2.4-2.45-2.79-6.41-2.79-10.53s.39-8.03,2.79-10.48c1.37-1.37,3.53-2.2,6.02-2.2,2.64,0,4.7.64,6.51,2.79v-12.53h4.99v34.86h-4.9ZM1151.8,64.54c-4.55,0-5.19,3.82-5.19,8.23s.64,8.28,5.19,8.28,5.14-3.87,5.14-8.28-.64-8.23-5.14-8.23Z"/>
        <path class="cls-5" d="M1191.46,85.5c-5.24,0-8.96-1.22-12.34-4.6l3.48-3.48c2.55,2.55,5.44,3.38,8.96,3.38,4.6,0,7.2-1.96,7.2-5.39,0-1.57-.39-2.79-1.37-3.62-.88-.78-2.06-1.22-3.82-1.47l-4.11-.59c-2.84-.44-5.04-1.32-6.56-2.79-1.71-1.57-2.6-3.82-2.6-6.71,0-6.07,4.41-10.18,11.65-10.18,4.65,0,7.83,1.18,10.82,3.97l-3.33,3.33c-2.15-2.06-4.7-2.69-7.69-2.69-4.11,0-6.32,2.25-6.32,5.43,0,1.27.34,2.45,1.27,3.23.88.78,1.91,1.27,3.82,1.57l4.16.64c3.18.49,4.95,1.22,6.46,2.6,1.86,1.71,2.84,4.11,2.84,7.15,0,6.41-5.19,10.23-12.53,10.23Z"/>
        <path class="cls-5" d="M1218.3,90.15c-.49,1.37-1.08,2.35-1.81,3.08-1.37,1.37-3.18,1.81-5.09,1.81h-2.01v-4.5h1.27c2.1,0,2.84-.64,3.57-2.64l1.37-3.87-8.67-23.65h5.29l5.93,17.48,5.78-17.48h5.34l-10.97,29.77Z"/>
        <path class="cls-5" d="M1241.46,85.5c-4.06,0-7.49-.69-10.43-3.57l3.28-3.28c2.01,2.06,4.7,2.6,7.15,2.6,3.08,0,5.44-1.08,5.44-3.43,0-1.71-.93-2.69-3.33-2.94l-3.97-.34c-4.7-.44-7.34-2.5-7.34-6.86,0-4.9,4.16-7.59,9.35-7.59,3.77,0,6.9.78,9.2,2.79l-3.13,3.18c-1.57-1.32-3.77-1.81-6.12-1.81-3.04,0-4.5,1.27-4.5,3.18,0,1.71.98,2.6,3.43,2.84l3.48.29c5.14.44,7.83,2.69,7.83,7.05,0,5.19-4.41,7.88-10.33,7.88Z"/>
        <path class="cls-5" d="M1265.26,85.2c-4.65,0-6.81-3.33-6.81-6.9v-14.1h-2.84v-3.82h2.84v-7.1h4.99v7.1h4.8v3.82h-4.8v13.86c0,1.81.88,2.89,2.74,2.89h2.06v4.26h-2.99Z"/>
        <path class="cls-5" d="M1278.29,74.23c0,4.31,2.2,6.95,6.32,6.95,2.79,0,4.26-.78,6.02-2.55l3.18,2.99c-2.55,2.55-4.95,3.87-9.3,3.87-6.22,0-11.16-3.28-11.16-12.73,0-8.08,4.16-12.68,10.53-12.68s10.53,4.8,10.53,12.05v2.11h-16.11ZM1288.77,67.38c-.83-1.86-2.55-3.13-4.9-3.13s-4.11,1.27-4.95,3.13c-.49,1.08-.59,1.86-.64,3.38h11.16c-.1-1.52-.2-2.3-.69-3.38Z"/>
        <path class="cls-5" d="M1331.27,85.2v-15.13c0-3.87-2.2-5.53-4.99-5.53s-5.14,1.71-5.14,5.29v15.37h-4.99v-15.13c0-3.87-2.2-5.53-4.99-5.53s-5.14,1.71-5.14,5.53v15.13h-4.99v-24.83h4.9v2.5c1.67-1.81,4.11-2.79,6.61-2.79,3.08,0,5.48,1.22,7.05,3.62,2.01-2.45,4.5-3.62,7.79-3.62,2.55,0,4.8.83,6.27,2.25,1.91,1.86,2.64,4.21,2.64,7v15.86h-4.99Z"/>
      </g>
      <g>
        <path class="cls-5" d="M583.98,31.79h64.69c1.69,0,3.07,1.37,3.07,3.07v64.69c0,1.69-1.37,3.07-3.07,3.07h-64.69c-1.69,0-3.07-1.37-3.07-3.07V34.85c.01-1.69,1.38-3.06,3.07-3.06Z"/>
        <path class="cls-3" d="M651.7,66.56v32.99c0,1.69-1.37,3.07-3.07,3.07h-31.45l-27.68-27.71h7v.32l.06.68.16.66.26.61.33.52.44.51.48.41.57.35.63.28.64.15.7.06.7-.06.66-.15.6-.28.57-.35.5-.41.44-.51.35-.52.26-.61.16-.66.06-.68v-.32h19.25v.31l.06.68.16.66.26.6.35.55.42.51.48.42.55.33.63.26.66.17.7.06.7-.06.66-.17.61-.26.57-.33.5-.42.42-.51.35-.55.28-.6.15-.66.06-.68v-.31h10.35v-14.76l-.06-.76-.17-.74-.25-.68-.38-.66-.45-.57,9.81,9.81Z"/>
        <path class="cls-7" d="M643.12,59.4l-.17-.74-.25-.68-.38-.66-.45-.57-.52-.51-.6-.47-.63-.35-.71-.26-.74-.17-.79-.06h-45.18l-.31.06-.26.09-.23.2-.16.2-.12.26-2.14,10.7v8.47h7.02v.32l.06.68.16.66.26.61.33.52.44.51.48.41.57.35.63.28.64.15.7.06.7-.06.66-.15.6-.28.57-.35.5-.41.44-.51.35-.52.26-.61.16-.66.06-.68v-.32h19.25v.31l.06.68.16.66.26.6.35.55.42.51.48.42.55.33.63.26.66.17.7.06.7-.06.66-.17.61-.26.57-.33.5-.42.42-.51.35-.55.28-.6.15-.66.06-.68v-.31h10.35v-14.76l-.07-.76ZM597.08,71.07h-5.21v-4.37l2.01-9.41h3.2v13.77ZM608.02,64.54h-8.61v-7.24h8.61v7.24ZM618.97,64.54h-8.61v-7.24h8.61v7.24ZM629.89,64.54h-8.59v-7.24h8.59v7.24ZM640.8,64.52h-8.55v-7.22h5.65l.6.06.54.16.48.28.42.35.36.41.26.5.16.54.06.57v4.37h.01Z"/>
      </g>
    </g>
  </g>
</svg>