<?xml version="1.0" encoding="UTF-8"?>
<svg id="_レイヤー_1" data-name="レイヤー 1" xmlns="http://www.w3.org/2000/svg" xmlns:xlink="http://www.w3.org/1999/xlink" viewBox="0 0 1920 1080">
  <defs>
    <style>
      .cls-1 {
        fill: #31b96e;
      }

      .cls-2 {
        fill: #30bced;
      }

      .cls-3 {
        fill: #e5e5e5;
      }

      .cls-4 {
        fill: #040000;
      }

      .cls-5 {
        fill: #fff;
      }

      .cls-6 {
        fill: #001545;
      }

      .cls-7 {
        fill: #ff717e;
      }

      .cls-8 {
        fill: #cbcbcb;
      }

      .cls-9 {
        fill: #b8caba;
      }

      .cls-10 {
        fill: url(#_名称未設定グラデーション_21);
      }
    </style>
    <linearGradient id="_名称未設定グラデーション_21" data-name="名称未設定グラデーション 21" x1="960" y1=".8" x2="960" y2="133.61" gradientUnits="userSpaceOnUse">
      <stop offset=".15" stop-color="#001545"/>
      <stop offset="1" stop-color="#000d2b"/>
    </linearGradient>
  </defs>
  <rect class="cls-5" width="1920" height="1080"/>
  <polygon class="cls-9" points="748.77 134.41 0 652.28 0 134.41 748.77 134.41"/>
  <g>
    <g>
      <g>
        <g>
          <g>
            <path class="cls-7" d="M1028.45,773.43c1.22,2.49,2.92,4.9,5.1,7.24l-1.58,2.43c-1.43-1.76-2.6-3.63-3.52-5.63v17.34h-2.88v-18c-1.13,3.59-2.8,6.94-5.03,10.06l-1.37-3.34c2.7-3.35,4.82-7.48,6.37-12.38h-5.59v-2.74h5.63v-6.89h2.88v6.89h4.82v2.74h-4.82v2.29ZM1040.61,762.11c-.4,2.72-1.1,5.43-2.11,8.12-1.12,2.98-2.5,5.52-4.11,7.63l-2.5-2c1.76-2.16,3.06-4.37,3.9-6.65.8-2.13,1.45-4.65,1.97-7.56l2.85.46ZM1037.98,790.42h.14c4.81-.4,8.28-.75,10.41-1.05-1.05-2.67-2.21-5.12-3.48-7.35l2.43-1.23c1.2,1.83,2.33,3.96,3.41,6.4.98,2.27,1.76,4.42,2.32,6.44l-2.95,1.23c-.24-.98-.5-1.97-.81-2.95-3.59.66-9.14,1.25-16.67,1.79l-.46-2.95c1.41-.05,2.33-.08,2.78-.11.91-2.23,1.84-4.93,2.78-8.12.94-3.12,1.64-5.94,2.11-8.47l2.95.6c-1.55,6.33-3.2,11.59-4.96,15.79ZM1051.48,778.28c-1.62-1.85-3.02-4.35-4.22-7.49-1.05-2.81-1.82-5.7-2.29-8.65l2.85-.42c1.08,5.84,3.05,10.61,5.91,14.31l-2.25,2.25Z"/>
            <path class="cls-7" d="M1059.01,769.67h27.6v12.94h-24.58c-.38,5.53-1.75,9.72-4.11,12.55l-2.53-2.32c1.29-1.66,2.19-3.5,2.71-5.52.61-2.34.91-4.44.91-6.29v-11.36ZM1089.07,762.92v2.85h-33.41v-2.85h33.41ZM1083.62,772.45h-21.45v7.35h21.45v-7.35Z"/>
            <path class="cls-7" d="M1101.24,763.52h20.08v3.27l-14.66,25.11h-3.83l14.91-25.28h-16.49v-3.09Z"/>
            <path class="cls-7" d="M1138.87,776.56c1.43.45,2.58,1.04,3.45,1.79,1.69,1.41,2.53,3.25,2.53,5.52,0,2.49-1,4.55-2.99,6.19-1.92,1.59-4.57,2.39-7.95,2.39-3.17,0-6.11-.73-8.83-2.18l1.02-3.13c2.25,1.5,4.86,2.25,7.84,2.25,2.27,0,4.09-.53,5.45-1.58,1.38-1.08,2.07-2.47,2.07-4.18,0-2.04-1.05-3.53-3.16-4.47-1.2-.52-2.65-.77-4.36-.77h-2.6v-3.09h2.64c1.48,0,2.71-.33,3.69-.98,1.41-.89,2.11-2.17,2.11-3.83,0-1.57-.65-2.75-1.93-3.55-.92-.59-2.04-.88-3.38-.88-2.72,0-5.03,1.09-6.93,3.27l-1.3-3.16c2.46-2.13,5.2-3.2,8.23-3.2,2.58,0,4.72.76,6.43,2.29,1.43,1.31,2.15,3,2.15,5.06,0,2.91-1.4,4.99-4.18,6.26Z"/>
            <path class="cls-7" d="M1159.12,793.65l-2-2.39c3.61-1.78,6.59-4.14,8.93-7.07l2.53,1.44c-1.15,1.5-2.63,3-4.43,4.5-1.71,1.43-3.39,2.6-5.03,3.52ZM1172.8,775.96c3.33-3.59,5.97-6.77,7.91-9.56l2.5,1.41c-1.48,2.09-3.36,4.42-5.66,7-1.69,1.9-3.13,3.41-4.33,4.54l2.5-.14,2.5-.14,6.51-.39c-.68-.96-1.56-2.09-2.64-3.38l2.46-1.44c2.55,2.91,4.69,5.96,6.4,9.14l-2.64,1.55c-.61-1.29-1.24-2.44-1.9-3.45l-10.97.74v13.05h-2.99v-12.87c-3.24.09-5.67.18-7.31.25-3.82.14-6.41.22-7.77.25l-.21-2.78c.92,0,2.29-.02,4.11-.07,3.92-.09,6.65-.15,8.19-.18.54-.54,1-1.01,1.37-1.41-3.33-2.95-6.46-5.2-9.39-6.75l1.72-2.18c1.29.68,2.5,1.42,3.62,2.22,1.31-1.59,2.54-3.34,3.69-5.24-3.05.16-6.76.26-11.15.28l-.63-2.74c13.29,0,22.96-.77,29.01-2.32l1.27,2.6c-4.5,1.05-9.49,1.72-14.98,2-1.5,2.51-3.19,4.82-5.06,6.93,1.55,1.12,2.84,2.16,3.87,3.09ZM1188.97,794c-3.82-2.3-7.02-5.09-9.6-8.37l2.32-1.55c2.11,2.81,5.19,5.31,9.25,7.49l-1.97,2.43Z"/>
            <path class="cls-7" d="M1199.38,771.78l.07-.11c1.48-2.32,2.78-4.5,3.9-6.54l2.64,1.06c-2.41,4.08-4.76,7.62-7.03,10.62,2.04-.09,3.57-.19,4.61-.28-.42-.98-.76-1.73-1.02-2.25l2.29-1.02c1.05,2.04,1.99,4.2,2.81,6.47l-2.57,1.02c-.35-.98-.57-1.63-.67-1.93-.7.09-1.69.2-2.95.32v15.72h-2.78v-15.51c-1.76.12-3.67.21-5.73.28l-.21-2.6c.61,0,1.62-.04,3.02-.11.82-1.03,1.5-1.95,2.04-2.74-1.29-1.52-3.05-3.16-5.27-4.92l1.51-2.25c.59.45,1.02.79,1.3,1.02,1.52-2.27,2.72-4.44,3.59-6.51l2.64.98c-1.45,3.02-2.85,5.46-4.18,7.31.82.77,1.49,1.43,2,1.97ZM1197.06,782.33c-.3,3.85-.9,7.19-1.79,10.02l-2.64-.95c.98-2.91,1.58-6.07,1.79-9.49l2.64.42ZM1205.29,781.7c.87,2.13,1.45,4.52,1.76,7.17l-2.64.6c-.16-2.32-.63-4.7-1.41-7.14l2.29-.63ZM1214.08,778.88c-.14,5.39-.96,9.18-2.46,11.36-1.29,1.9-3.2,3.43-5.73,4.61l-1.76-2.46c2.53-1.05,4.34-2.48,5.42-4.29,1.1-1.78,1.68-4.85,1.72-9.21h2.81ZM1212.78,774.52h.14c4.06-.21,7.06-.41,9-.6-.87-1.2-1.91-2.41-3.13-3.66l2.39-1.44c2.3,2.27,4.25,4.92,5.87,7.95l-2.6,1.51c-.35-.77-.68-1.43-.98-1.97-5.81.59-11.12.97-15.93,1.16l-.28-2.78c1.45-.05,2.3-.07,2.53-.07,1.24-2.11,2.25-4.43,3.02-6.96h-6.12v-2.74h8.44v-3.41h2.95v3.41h8.54v2.74h-10.69c-.94,2.39-1.99,4.68-3.17,6.86ZM1220.66,778.88v12.1c0,.52.3.77.91.77h1.41c.54,0,.84-.36.92-1.09.05-.52.08-2.09.11-4.71l2.71.91c0,3.16-.15,5.18-.46,6.05-.38,1.08-1.22,1.62-2.53,1.62h-3.41c-1.67,0-2.5-.8-2.5-2.39v-13.26h2.85Z"/>
            <path class="cls-7" d="M1028.45,811.05c1.22,2.49,2.92,4.9,5.1,7.24l-1.58,2.43c-1.43-1.76-2.6-3.63-3.52-5.63v17.34h-2.88v-18c-1.13,3.59-2.8,6.94-5.03,10.06l-1.37-3.34c2.7-3.35,4.82-7.48,6.37-12.38h-5.59v-2.74h5.63v-6.89h2.88v6.89h4.82v2.74h-4.82v2.29ZM1040.61,799.72c-.4,2.72-1.1,5.43-2.11,8.12-1.12,2.98-2.5,5.52-4.11,7.63l-2.5-2c1.76-2.16,3.06-4.37,3.9-6.65.8-2.13,1.45-4.65,1.97-7.56l2.85.46ZM1037.98,828.03h.14c4.81-.4,8.28-.75,10.41-1.05-1.05-2.67-2.21-5.12-3.48-7.35l2.43-1.23c1.2,1.83,2.33,3.96,3.41,6.4.98,2.27,1.76,4.42,2.32,6.44l-2.95,1.23c-.24-.98-.5-1.97-.81-2.95-3.59.66-9.14,1.25-16.67,1.79l-.46-2.95c1.41-.05,2.33-.08,2.78-.11.91-2.23,1.84-4.93,2.78-8.12.94-3.12,1.64-5.94,2.11-8.47l2.95.6c-1.55,6.33-3.2,11.59-4.96,15.79ZM1051.48,815.9c-1.62-1.85-3.02-4.35-4.22-7.49-1.05-2.81-1.82-5.7-2.29-8.65l2.85-.42c1.08,5.84,3.05,10.61,5.91,14.31l-2.25,2.25Z"/>
            <path class="cls-7" d="M1059.01,807.28h27.6v12.94h-24.58c-.38,5.53-1.75,9.72-4.11,12.55l-2.53-2.32c1.29-1.66,2.19-3.5,2.71-5.52.61-2.34.91-4.44.91-6.29v-11.36ZM1089.07,800.53v2.85h-33.41v-2.85h33.41ZM1083.62,810.06h-21.45v7.35h21.45v-7.35Z"/>
            <path class="cls-7" d="M1116.08,813.72c.63.26,1.23.6,1.79,1.02,2.23,1.64,3.34,3.82,3.34,6.54,0,2.49-.95,4.57-2.85,6.26-1.92,1.69-4.28,2.53-7.07,2.53s-5.15-.84-7.07-2.53-2.88-3.77-2.88-6.26c0-2.86,1.21-5.11,3.62-6.75.47-.33.97-.6,1.51-.81-.33-.16-.61-.34-.84-.53-1.76-1.29-2.64-3.11-2.64-5.45,0-1.99.69-3.66,2.07-4.99,1.48-1.45,3.55-2.18,6.22-2.18,1.8,0,3.43.4,4.89,1.2,1.2.66,2.1,1.65,2.71,2.99.44.91.67,1.91.67,2.99,0,2.34-.88,4.16-2.64,5.45-.23.19-.52.36-.84.53ZM1111.3,815.58c-1.97,0-3.54.5-4.71,1.51-1.24,1.1-1.86,2.49-1.86,4.15s.63,3,1.9,4.08c1.24,1.1,2.82,1.65,4.75,1.65,1.8,0,3.34-.55,4.61-1.65,1.24-1.1,1.86-2.46,1.86-4.08s-.62-3.05-1.86-4.15c-1.17-1.01-2.73-1.51-4.68-1.51ZM1111.3,803.52c-1.55,0-2.78.43-3.69,1.3-.84.8-1.27,1.83-1.27,3.09s.42,2.36,1.27,3.2c.87.84,2.12,1.27,3.76,1.27,1.52,0,2.72-.42,3.59-1.27.84-.82,1.27-1.89,1.27-3.2s-.42-2.32-1.27-3.09c-.94-.87-2.16-1.3-3.66-1.3Z"/>
            <path class="cls-7" d="M1126.56,804.96c2.2-2.95,5.06-4.43,8.58-4.43,2.84,0,5.11.94,6.82,2.81,1.27,1.38,1.9,3.19,1.9,5.42,0,1.97-.53,3.83-1.58,5.59-1.67,2.86-5.01,6.88-10.02,12.06h12.87v3.09h-20.33c4.43-4.41,7.81-7.96,10.13-10.65,1.88-2.18,3.19-3.88,3.94-5.1,1.05-1.73,1.58-3.39,1.58-4.96,0-1.69-.57-3.01-1.72-3.97-.98-.8-2.18-1.2-3.59-1.2-3,0-5.4,1.64-7.21,4.92l-1.37-3.59Z"/>
            <path class="cls-7" d="M1159.12,831.27l-2-2.39c3.61-1.78,6.59-4.14,8.93-7.07l2.53,1.44c-1.15,1.5-2.63,3-4.43,4.5-1.71,1.43-3.39,2.6-5.03,3.52ZM1172.8,813.58c3.33-3.59,5.97-6.77,7.91-9.56l2.5,1.41c-1.48,2.09-3.36,4.42-5.66,7-1.69,1.9-3.13,3.41-4.33,4.54l2.5-.14,2.5-.14,6.51-.39c-.68-.96-1.56-2.09-2.64-3.38l2.46-1.44c2.55,2.91,4.69,5.96,6.4,9.14l-2.64,1.55c-.61-1.29-1.24-2.44-1.9-3.45l-10.97.74v13.05h-2.99v-12.87c-3.24.09-5.67.18-7.31.25-3.82.14-6.41.22-7.77.25l-.21-2.78c.92,0,2.29-.02,4.11-.07,3.92-.09,6.65-.15,8.19-.18.54-.54,1-1.01,1.37-1.41-3.33-2.95-6.46-5.2-9.39-6.75l1.72-2.18c1.29.68,2.5,1.42,3.62,2.22,1.31-1.59,2.54-3.34,3.69-5.24-3.05.16-6.76.26-11.15.28l-.63-2.74c13.29,0,22.96-.77,29.01-2.32l1.27,2.6c-4.5,1.05-9.49,1.72-14.98,2-1.5,2.51-3.19,4.82-5.06,6.93,1.55,1.12,2.84,2.16,3.87,3.09ZM1188.97,831.62c-3.82-2.3-7.02-5.09-9.6-8.37l2.32-1.55c2.11,2.81,5.19,5.31,9.25,7.49l-1.97,2.43Z"/>
            <path class="cls-7" d="M1199.38,809.39l.07-.11c1.48-2.32,2.78-4.5,3.9-6.54l2.64,1.06c-2.41,4.08-4.76,7.62-7.03,10.62,2.04-.09,3.57-.19,4.61-.28-.42-.98-.76-1.73-1.02-2.25l2.29-1.02c1.05,2.04,1.99,4.2,2.81,6.47l-2.57,1.02c-.35-.98-.57-1.63-.67-1.93-.7.09-1.69.2-2.95.32v15.72h-2.78v-15.51c-1.76.12-3.67.21-5.73.28l-.21-2.6c.61,0,1.62-.04,3.02-.11.82-1.03,1.5-1.95,2.04-2.74-1.29-1.52-3.05-3.16-5.27-4.92l1.51-2.25c.59.45,1.02.79,1.3,1.02,1.52-2.27,2.72-4.44,3.59-6.51l2.64.98c-1.45,3.02-2.85,5.46-4.18,7.31.82.77,1.49,1.43,2,1.97ZM1197.06,819.94c-.3,3.85-.9,7.19-1.79,10.02l-2.64-.95c.98-2.91,1.58-6.07,1.79-9.49l2.64.42ZM1205.29,819.31c.87,2.13,1.45,4.52,1.76,7.17l-2.64.6c-.16-2.32-.63-4.7-1.41-7.14l2.29-.63ZM1214.08,816.5c-.14,5.39-.96,9.18-2.46,11.36-1.29,1.9-3.2,3.43-5.73,4.61l-1.76-2.46c2.53-1.05,4.34-2.48,5.42-4.29,1.1-1.78,1.68-4.85,1.72-9.21h2.81ZM1212.78,812.14h.14c4.06-.21,7.06-.41,9-.6-.87-1.2-1.91-2.41-3.13-3.66l2.39-1.44c2.3,2.27,4.25,4.92,5.87,7.95l-2.6,1.51c-.35-.77-.68-1.43-.98-1.97-5.81.59-11.12.97-15.93,1.16l-.28-2.78c1.45-.05,2.3-.07,2.53-.07,1.24-2.11,2.25-4.43,3.02-6.96h-6.12v-2.74h8.44v-3.41h2.95v3.41h8.54v2.74h-10.69c-.94,2.39-1.99,4.68-3.17,6.86ZM1220.66,816.5v12.1c0,.52.3.77.91.77h1.41c.54,0,.84-.36.92-1.09.05-.52.08-2.09.11-4.71l2.71.91c0,3.16-.15,5.18-.46,6.05-.38,1.08-1.22,1.62-2.53,1.62h-3.41c-1.67,0-2.5-.8-2.5-2.39v-13.26h2.85Z"/>
          </g>
          <g>
            <path class="cls-7" d="M1238.61,821.88l11.09,5.47-.64,1.3-13.48-6.78,13.48-6.8.64,1.3-11.09,5.49Z"/>
            <path class="cls-7" d="M1255.71,816.26h7.92v-2.88h1.63v2.88h7.92v1.52h-7.92v3.6h6.04v9.02h-13.72v-9.02h6.04v-3.6h-7.92v-1.52ZM1259.16,822.84v6.12h10.58v-6.12h-10.58Z"/>
            <path class="cls-7" d="M1285.98,821.46c-.11,2.36-.7,4.29-1.76,5.77-1.1,1.51-2.83,2.53-5.2,3.09l-.74-1.32c2.3-.44,3.93-1.38,4.89-2.83.76-1.14,1.18-2.71,1.27-4.7h-3.91c-.71,1.33-1.65,2.44-2.83,3.32l-1.12-1.08c1.15-.83,2.02-1.8,2.61-2.9.43-.83.78-2.03,1.05-3.58l1.63.11c-.2.97-.44,1.86-.74,2.68h8.58v1.45h-3.73Z"/>
            <path class="cls-7" d="M1293.69,816.01h1.3v12.12h1.12v-14.73h1.29v14.73h1.16v-12.12h1.27v13.55h-6.13v-13.55ZM1305.9,815.03h4.46v1.36h-3.58c.56.73,1.08,1.29,1.54,1.65.56.42,1.32.78,2.28,1.08l-.62,1.4c-1.6-.61-2.88-1.55-3.84-2.81-.27-.37-.5-.73-.68-1.1-.25.56-.52,1.03-.83,1.41-.78,1.02-1.96,1.84-3.53,2.46l-.75-1.36c1.87-.64,3.09-1.55,3.65-2.74h-3.43v-1.36h3.84c.09-.44.13-.99.15-1.63h1.51c-.03.6-.08,1.15-.17,1.63ZM1310.79,820.85v1.36h-1.16v7.24c0,.51-.1.88-.31,1.08-.23.22-.61.33-1.12.33h-2.64l-.26-1.49,2.26.02c.23,0,.4-.05.5-.15.06-.07.09-.26.09-.57v-6.46h-7.75v-1.36h10.4ZM1306.6,823.37v4.98h-5.38v-4.98h5.38ZM1305.28,824.62h-2.7v2.46h2.7v-2.46Z"/>
            <path class="cls-7" d="M1320.89,820.19c.55,0,1.02.21,1.41.64.33.38.5.81.5,1.3,0,.58-.21,1.05-.64,1.43-.37.33-.8.5-1.3.5-.58,0-1.05-.21-1.43-.62-.33-.37-.5-.81-.5-1.32,0-.56.21-1.03.64-1.41.35-.34.79-.51,1.32-.51Z"/>
            <path class="cls-7" d="M1332.52,814.32h14.29v16.13h-14.29v-16.13ZM1334.15,821.52h11v-5.67h-11v5.67ZM1334.15,823.02v5.93h11v-5.93h-11Z"/>
            <path class="cls-7" d="M1357.51,818.04v-4.61h1.67v4.61h8.01v1.58h-7.73c.58,2.47,1.45,4.43,2.63,5.88,1.25,1.52,3.04,2.76,5.38,3.73l-1.06,1.56c-2.5-1.18-4.42-2.67-5.75-4.5-.93-1.26-1.63-2.77-2.11-4.52-.39,1.41-.99,2.71-1.78,3.89-1.48,2.18-3.56,3.88-6.24,5.11l-.9-1.62c2.41-.97,4.27-2.31,5.57-4.04,1.11-1.49,1.85-3.32,2.22-5.49h-7.64v-1.58h7.75Z"/>
            <path class="cls-7" d="M1371.54,814.15h1.52v3.49h3.64v-4.24h1.51v1.41h6.65v1.34h-6.65v1.49h7.79v1.34h-17.48v-1.34h3.03v-3.49ZM1369.6,830.51v-10.76h1.51v9.4h12.23v-9.4h1.54v10.76h-15.28ZM1375.86,823.83h-3.88v-1.27h4.54v-2.94h1.43v2.94h4.61v1.27h-3.97c1.11,1.16,2.44,2.11,3.99,2.85l-.73,1.14c-1.49-.77-2.79-1.75-3.89-2.94v3.58h-1.43v-3.58c-1.29,1.37-2.6,2.38-3.95,3.03l-.66-1.14c1.41-.62,2.72-1.6,3.95-2.94ZM1374.21,819.57c.45.7.86,1.43,1.23,2.19l-1.36.5c-.32-.73-.7-1.46-1.14-2.19l1.27-.5ZM1381.7,819.99c-.53,1.13-.96,1.9-1.3,2.33l-1.29-.5c.44-.66.86-1.44,1.27-2.33l1.32.5Z"/>
            <path class="cls-7" d="M1392.21,815.36v3.01h2.5v1.41h-2.5v.24c.6,1.11,1.47,2.25,2.61,3.4l-.88,1.34c-.74-.96-1.31-1.86-1.73-2.72v8.8h-1.47v-8.63c-.75,1.76-1.74,3.35-2.99,4.77l-.68-1.63c.73-.7,1.47-1.67,2.2-2.92.6-1.02,1.04-1.9,1.32-2.64h-3.2v-1.41h3.34v-2.79c-1.17.14-2.21.21-3.1.22l-.31-1.4c1.14-.01,2.38-.11,3.71-.29,1.18-.17,2.17-.4,2.99-.68l.7,1.38c-.82.22-1.66.4-2.52.55ZM1402.95,823.66l1.8-.39.2,1.51-2,.42v5.64h-1.54v-5.33l-6.58,1.38-.2-1.49,6.78-1.41v-10.56h1.54v10.23ZM1396.36,818.98c1.27.73,2.39,1.6,3.36,2.59l-1.07,1.18c-.82-.93-1.89-1.81-3.2-2.63l.9-1.14ZM1397.2,814.32c1.25.76,2.37,1.64,3.36,2.64l-1.05,1.19c-.94-1.02-2.01-1.93-3.2-2.74l.88-1.1Z"/>
            <path class="cls-7" d="M1408.88,822.36c.01-.55.02-.85.02-.9v-6.32h5.95v-1.69h1.54v1.69h7.14v1.4h-13.15v4.9c0,4.07-.92,7.19-2.75,9.39l-1.21-1.16c.81-.99,1.4-2.04,1.76-3.14.24-.72.43-1.57.55-2.53-.6.34-1.48.78-2.63,1.3l-.26-1.65c.97-.32,1.98-.75,3.03-1.29ZM1407.1,816.59c.59,1.2,1,2.38,1.23,3.54l-1.4.5c-.16-1.07-.51-2.24-1.07-3.53l1.23-.51ZM1417.46,821.53h5.42v7.84c0,.97-.47,1.45-1.41,1.45h-2.28l-.26-1.51h1.65c.37,0,.6-.05.7-.15.07-.1.11-.28.11-.55v-5.82h-3.49c.34.89.83,1.68,1.47,2.35.51.55,1.16,1.08,1.93,1.6l-.9,1.19c-1.63-1.31-2.77-2.71-3.43-4.19-.1.33-.19.59-.28.79-.53,1.35-1.43,2.5-2.7,3.47l-.88-1.21c1.44-.96,2.37-2.29,2.77-4h-2.88v8.03h-1.49v-9.29h4.59c.07-.55.12-1.22.15-2h-5.34v-1.34h12.64v1.34h-5.9c-.04.7-.1,1.37-.18,2Z"/>
            <path class="cls-7" d="M1425.39,813.97h5.16v1.29c-.22.84-.48,1.64-.77,2.39-.12.34-.42,1.07-.9,2.17,1.11,1.33,1.67,2.83,1.67,4.48,0,1.81-.73,2.72-2.2,2.72h-.92l-.24-1.49h.97c.64,0,.96-.5.96-1.49,0-.66-.16-1.38-.48-2.17-.28-.7-.68-1.37-1.19-2,.76-1.62,1.29-3.13,1.6-4.54h-2.17v15.54h-1.49v-16.9ZM1442.42,823.3h-3.88v5.38c0,.23.04.39.11.48.07.1.21.15.42.15h1.03c.39,0,.63-.13.72-.39.1-.32.17-1.03.22-2.15l1.47.37c-.1,1.48-.23,2.43-.4,2.85-.14.33-.37.55-.72.66-.17.05-.45.07-.84.07h-2c-.43,0-.72-.03-.86-.09-.31-.12-.5-.39-.57-.79-.02-.12-.04-.42-.04-.9v-5.64h-1.87c-.02,1.95-.45,3.56-1.29,4.83-.81,1.22-2.08,2.12-3.8,2.68l-.68-1.38c1.54-.45,2.64-1.21,3.31-2.28.62-.99.94-2.28.94-3.86h-2.88v-1.41h11.62v1.41ZM1435.7,813.43h1.52v1.74h4.76v3.93h-1.47v-2.53h-8.14v2.53h-1.45v-3.93h4.78v-1.74ZM1440.18,819.83h-7.49v-1.36h7.49v1.36Z"/>
            <path class="cls-7" d="M1447.01,818.85c.71-1.04,1.41-2.22,2.09-3.53l1.32.61c-1.25,2.22-2.46,4.06-3.62,5.55.37-.01,1.12-.05,2.26-.11-.16-.49-.3-.89-.42-1.19l1.17-.44c.49,1.1.83,2.16,1.03,3.18l-1.3.44c-.04-.28-.08-.53-.13-.73-.33.05-.76.09-1.29.11v8.14h-1.45v-8.04l-1.27.06-1.27.07-.44.04-.13-1.45c.58,0,1.09,0,1.54-.02.23-.29.59-.78,1.07-1.45-.91-1.05-1.79-1.89-2.66-2.52l.75-1.18c.29.21.5.36.62.46.7-1.02,1.32-2.16,1.87-3.43l1.38.51c-.75,1.57-1.48,2.85-2.2,3.84.51.49.87.86,1.07,1.1ZM1445.85,824.38c-.13,2.07-.44,3.81-.92,5.23l-1.36-.51c.48-1.35.78-2.99.92-4.92l1.36.2ZM1450.17,823.98c.44,1.27.72,2.57.84,3.89l-1.32.24c-.1-1.15-.34-2.39-.74-3.73l1.21-.4ZM1460.45,824.16v1.45h-3.84v3.1h4.61v1.41h-10.85v-1.41h4.72v-3.1h-3.67v-1.45h3.67v-2.02h1.52v2.02h3.84ZM1457.05,819.73c1.22.75,2.71,1.31,4.44,1.69l-.57,1.49c-2.17-.59-3.87-1.33-5.11-2.24-1.38.94-2.81,1.68-4.28,2.22l-.77-1.38c1.36-.49,2.64-1.1,3.84-1.84-.91-.89-1.76-2.02-2.57-3.38l1.25-.59c.82,1.33,1.67,2.37,2.55,3.1,1.1-.92,2-2.02,2.7-3.31h-7.51v-1.36h9.15v1.34c-.61,1.58-1.65,2.99-3.12,4.24Z"/>
            <path class="cls-7" d="M1472.04,816.24h7.05v14.23h-15.57v-14.23h6.94v-2.85h1.58v2.85ZM1470.46,817.75h-5.38v4.74h5.38v-4.74ZM1470.46,823.94h-5.38v5.03h5.38v-5.03ZM1477.53,817.75h-5.49v4.74h5.49v-4.74ZM1477.53,823.94h-5.49v5.03h5.49v-5.03Z"/>
            <path class="cls-7" d="M1497.13,821.88l-11.09-5.49.64-1.3,13.48,6.8-13.48,6.78-.64-1.3,11.09-5.47Z"/>
          </g>
        </g>
        <g>
          <rect class="cls-7" x="1003.47" y="838.1" width="511.03" height="29.83" rx="14.92" ry="14.92"/>
          <g>
            <path class="cls-5" d="M1026.1,845.36h14.29v16.13h-14.29v-16.13ZM1027.73,852.56h11v-5.68h-11v5.68ZM1027.73,854.07v5.93h11v-5.93h-11Z"/>
            <path class="cls-5" d="M1051.1,849.09v-4.61h1.67v4.61h8.01v1.58h-7.73c.58,2.47,1.45,4.43,2.63,5.88,1.25,1.52,3.04,2.76,5.38,3.73l-1.06,1.56c-2.5-1.17-4.42-2.67-5.75-4.5-.93-1.26-1.63-2.77-2.11-4.52-.39,1.41-.99,2.71-1.78,3.89-1.48,2.18-3.56,3.88-6.24,5.11l-.9-1.62c2.41-.97,4.27-2.31,5.57-4.04,1.11-1.49,1.85-3.32,2.22-5.49h-7.64v-1.58h7.75Z"/>
            <path class="cls-5" d="M1065.13,845.2h1.52v3.49h3.64v-4.24h1.51v1.41h6.65v1.34h-6.65v1.49h7.79v1.34h-17.48v-1.34h3.03v-3.49ZM1063.18,861.56v-10.76h1.51v9.4h12.23v-9.4h1.54v10.76h-15.28ZM1069.44,854.88h-3.88v-1.27h4.54v-2.94h1.43v2.94h4.61v1.27h-3.97c1.11,1.16,2.44,2.11,3.99,2.85l-.73,1.14c-1.49-.77-2.79-1.75-3.89-2.94v3.58h-1.43v-3.58c-1.29,1.37-2.6,2.38-3.95,3.03l-.66-1.14c1.41-.62,2.72-1.6,3.95-2.94ZM1067.79,850.62c.45.7.86,1.43,1.23,2.19l-1.36.5c-.32-.73-.7-1.46-1.14-2.19l1.27-.5ZM1075.28,851.04c-.53,1.13-.96,1.9-1.3,2.33l-1.29-.5c.44-.66.86-1.44,1.27-2.33l1.32.5Z"/>
            <path class="cls-5" d="M1085.79,846.41v3.01h2.5v1.41h-2.5v.24c.6,1.11,1.47,2.25,2.61,3.4l-.88,1.34c-.74-.96-1.31-1.86-1.73-2.72v8.8h-1.47v-8.63c-.75,1.76-1.74,3.36-2.99,4.78l-.68-1.63c.73-.7,1.47-1.67,2.2-2.92.6-1.02,1.04-1.9,1.32-2.64h-3.2v-1.41h3.34v-2.79c-1.17.13-2.21.21-3.1.22l-.31-1.4c1.14-.01,2.38-.11,3.71-.29,1.18-.17,2.17-.4,2.99-.68l.7,1.38c-.82.22-1.66.4-2.52.55ZM1096.53,854.71l1.8-.39.2,1.51-2,.42v5.64h-1.54v-5.33l-6.58,1.38-.2-1.49,6.78-1.41v-10.56h1.54v10.23ZM1089.94,850.03c1.27.74,2.39,1.6,3.36,2.59l-1.07,1.18c-.82-.93-1.89-1.81-3.2-2.63l.9-1.14ZM1090.78,845.36c1.25.76,2.37,1.64,3.36,2.65l-1.05,1.19c-.94-1.02-2.01-1.93-3.2-2.74l.88-1.1Z"/>
            <path class="cls-5" d="M1102.46,853.41c.01-.55.02-.85.02-.9v-6.32h5.95v-1.69h1.54v1.69h7.14v1.4h-13.15v4.9c0,4.06-.92,7.19-2.75,9.38l-1.21-1.16c.81-.99,1.4-2.04,1.76-3.14.24-.72.43-1.57.55-2.53-.6.34-1.48.78-2.63,1.3l-.26-1.65c.97-.32,1.98-.75,3.03-1.29ZM1100.68,847.64c.59,1.2,1,2.38,1.23,3.54l-1.4.5c-.16-1.07-.51-2.24-1.07-3.53l1.23-.51ZM1111.04,852.58h5.42v7.84c0,.97-.47,1.45-1.41,1.45h-2.28l-.26-1.51h1.65c.37,0,.6-.05.7-.15.07-.1.11-.28.11-.55v-5.82h-3.49c.34.89.83,1.68,1.47,2.35.51.55,1.16,1.08,1.93,1.6l-.9,1.19c-1.63-1.31-2.77-2.71-3.43-4.19-.1.33-.19.59-.28.79-.53,1.35-1.43,2.5-2.7,3.47l-.88-1.21c1.44-.96,2.37-2.29,2.77-4h-2.88v8.03h-1.49v-9.29h4.59c.07-.55.12-1.22.15-2h-5.34v-1.34h12.64v1.34h-5.9c-.04.7-.1,1.37-.18,2Z"/>
            <path class="cls-5" d="M1118.98,845.01h5.16v1.29c-.22.84-.48,1.64-.77,2.39-.12.34-.42,1.06-.9,2.17,1.11,1.33,1.67,2.83,1.67,4.48,0,1.81-.73,2.72-2.2,2.72h-.92l-.24-1.49h.97c.64,0,.96-.5.96-1.49,0-.66-.16-1.38-.48-2.17-.28-.7-.68-1.37-1.19-2,.76-1.62,1.29-3.13,1.6-4.54h-2.17v15.54h-1.49v-16.9ZM1136,854.34h-3.88v5.38c0,.23.04.39.11.48.07.1.21.15.42.15h1.03c.39,0,.63-.13.72-.39.1-.32.17-1.03.22-2.15l1.47.37c-.1,1.48-.23,2.43-.4,2.85-.14.33-.37.55-.72.66-.17.05-.45.07-.84.07h-2c-.43,0-.72-.03-.86-.09-.31-.12-.5-.39-.57-.79-.02-.12-.04-.42-.04-.9v-5.64h-1.87c-.02,1.95-.45,3.56-1.29,4.83-.81,1.22-2.08,2.12-3.8,2.68l-.68-1.38c1.54-.45,2.64-1.21,3.31-2.28.62-.99.94-2.28.94-3.86h-2.88v-1.41h11.62v1.41ZM1129.28,844.48h1.52v1.74h4.76v3.93h-1.47v-2.53h-8.14v2.53h-1.45v-3.93h4.78v-1.74ZM1133.76,850.87h-7.49v-1.36h7.49v1.36Z"/>
            <path class="cls-5" d="M1146.12,851.24c.55,0,1.02.21,1.41.64.33.38.5.81.5,1.3,0,.58-.21,1.05-.64,1.43-.37.33-.8.5-1.3.5-.58,0-1.05-.21-1.43-.62-.33-.37-.5-.81-.5-1.32,0-.56.21-1.03.64-1.41.35-.34.79-.51,1.32-.51Z"/>
            <path class="cls-5" d="M1156.85,849.72c1.05.46,2.06,1.1,3.03,1.89l-.88,1.3c-.83-.72-1.82-1.37-2.96-1.93l.81-1.27ZM1160.7,855.35c-.89,2.54-2.06,4.71-3.51,6.54l-1.1-1.3c1.35-1.7,2.47-3.75,3.36-6.15l1.25.92ZM1157.76,844.78c1.1.46,2.13,1.1,3.09,1.91l-.94,1.32c-.88-.82-1.89-1.5-3.03-2.04l.88-1.19ZM1164.28,853.22c-.04,1.87-.2,3.4-.5,4.59-.4,1.58-1.34,2.96-2.81,4.13l-1.14-1.14c1.3-.96,2.13-2.05,2.5-3.29.29-1,.45-2.44.48-4.3h1.47ZM1170.55,850.3c-.38-.47-.84-.96-1.38-1.49l1.12-.77c1.32,1.18,2.49,2.55,3.51,4.11l-1.27.88c-.34-.56-.69-1.07-1.03-1.52-2.51.28-5.87.48-10.08.61l-.11-1.45c.07,0,.77-.01,2.09-.04.69-1.13,1.21-2.19,1.58-3.2h-3.67v-1.41h5.27v-1.52h1.56v1.52h5.42v1.41h-6.94c-.47,1.06-1,2.11-1.6,3.14l.81-.02c2.07-.06,3.64-.15,4.72-.26ZM1167.66,853.32v8.12h-1.45v-8.12h1.45ZM1171.04,853.15v6.72c0,.29.12.44.37.44h.48c.18,0,.31-.06.37-.18.07-.18.13-1.02.18-2.5l1.4.42c-.01.5-.06,1.15-.15,1.95-.07.67-.17,1.11-.28,1.3-.16.33-.48.5-.96.5h-1.74c-.38,0-.66-.1-.84-.31-.17-.18-.26-.42-.26-.72v-7.62h1.43Z"/>
            <path class="cls-5" d="M1182.85,844.44h1.62v15.37h5.66v-12.16h1.63v13.68h-16.14v-13.68h1.62v12.16h5.62v-15.37Z"/>
            <path class="cls-5" d="M1200.8,851.52h8.45c-.07,2.49-.23,4.54-.46,6.17-.21,1.53-.45,2.55-.73,3.05-.27.49-.66.82-1.16.99-.33.11-.77.17-1.3.17h-3.56l-.29-1.62,3.66.02c.69,0,1.16-.31,1.43-.92.24-.59.45-2.03.62-4.32.06-.77.1-1.46.13-2.08h-6.92c-.27,2.04-.88,3.76-1.84,5.14-.99,1.42-2.4,2.69-4.22,3.82l-1.03-1.45c2.35-1.33,3.94-2.97,4.76-4.9.66-1.54,1-3.88,1.01-7h-5.55v-1.51h7.86v-2.63h1.65v2.63h7.92v1.51h-10.27c-.01.7-.06,1.67-.15,2.92Z"/>
            <path class="cls-5" d="M1230.02,845.18v1.38h-7.97c-.18.83-.41,1.6-.68,2.31h7.84v12.65h-15.79v-12.65h6.39c.26-.62.47-1.4.64-2.31h-7.9v-1.38h17.47ZM1217.51,850.21h-2.57v9.96h2.57v-9.96ZM1223.59,850.21h-4.63v2.35h4.63v-2.35ZM1223.59,853.85h-4.63v2.41h4.63v-2.41ZM1223.59,857.54h-4.63v2.63h4.63v-2.63ZM1227.7,850.21h-2.63v9.96h2.63v-9.96Z"/>
            <path class="cls-5" d="M1233.65,854.07c-.53.58-1.2,1.19-2.02,1.84l-.61-1.73c1.87-1.33,3.5-3.32,4.88-5.95l1.32.68c-.65,1.27-1.31,2.36-1.98,3.27v9.73h-1.6v-7.84ZM1236.68,844.89c-.51,1-1.21,1.99-2.08,2.96-.86.96-1.76,1.73-2.7,2.33l-.84-1.51c1.67-.91,3.09-2.37,4.28-4.39l1.34.61ZM1248.8,850.43v1.52h-3.01v8.41c0,.6-.13,1.01-.4,1.23-.26.21-.68.31-1.27.31h-3.23l-.28-1.71,3.03.02c.18,0,.31-.02.39-.05.11-.06.17-.21.17-.46v-7.75h-6.74v-1.52h11.35ZM1248.07,845.27v1.47h-9.84v-1.47h9.84Z"/>
            <path class="cls-5" d="M1260.32,849.04c.18.78.4,1.53.64,2.24,2.41-.13,4.25-.35,5.51-.64l.17,1.56c-1.18.22-2.77.39-4.78.51l-.29.02c.56,1.15,1.23,2.19,2,3.12l-1.45,1.03c-.94-1.14-1.73-2.5-2.37-4.08-.08.01-.83.02-2.24.04l-.37.02-5.95-.04v-1.52l5.71.07h.42c.07-.01.42-.02,1.05-.02h.83c-.2-.59-.4-1.34-.62-2.26-.58.03-1.13.04-1.65.04h-5.05v-1.52l4.52.02h.42c.18,0,.67-.01,1.47-.04-.13-.8-.23-1.57-.29-2.31l1.78-.02c.05.69.13,1.44.26,2.26,1.9-.09,3.59-.26,5.09-.53l.15,1.58c-1.13.2-2.63.34-4.52.44l-.42.04ZM1254.17,854.71l1.29.86c-.64.62-.96,1.2-.96,1.73s.29.98.88,1.32c.82.5,2.53.75,5.12.75,1.42,0,2.85-.06,4.28-.18l.04,1.67c-1.1.09-2.38.13-3.82.13-2.3,0-3.94-.12-4.92-.35-1.08-.27-1.91-.7-2.5-1.3-.54-.55-.81-1.17-.81-1.87,0-.91.46-1.82,1.4-2.75Z"/>
          </g>
        </g>
      </g>
      <g>
        <g>
          <g>
            <path class="cls-1" d="M1028.45,906.16c1.22,2.48,2.92,4.9,5.1,7.24l-1.58,2.43c-1.43-1.76-2.6-3.63-3.52-5.63v17.34h-2.88v-18c-1.13,3.59-2.8,6.94-5.03,10.06l-1.37-3.34c2.7-3.35,4.82-7.48,6.37-12.38h-5.59v-2.74h5.63v-6.89h2.88v6.89h4.82v2.74h-4.82v2.29ZM1040.61,894.83c-.4,2.72-1.1,5.43-2.11,8.12-1.12,2.98-2.5,5.52-4.11,7.63l-2.5-2c1.76-2.16,3.06-4.37,3.9-6.65.8-2.13,1.45-4.65,1.97-7.56l2.85.46ZM1037.98,923.14h.14c4.81-.4,8.28-.75,10.41-1.06-1.05-2.67-2.21-5.12-3.48-7.35l2.43-1.23c1.2,1.83,2.33,3.96,3.41,6.4.98,2.27,1.76,4.42,2.32,6.43l-2.95,1.23c-.24-.99-.5-1.97-.81-2.95-3.59.66-9.14,1.25-16.67,1.79l-.46-2.95c1.41-.05,2.33-.08,2.78-.11.91-2.23,1.84-4.93,2.78-8.12.94-3.12,1.64-5.94,2.11-8.47l2.95.6c-1.55,6.33-3.2,11.59-4.96,15.79ZM1051.48,911.01c-1.62-1.85-3.02-4.35-4.22-7.49-1.05-2.81-1.82-5.7-2.29-8.65l2.85-.42c1.08,5.84,3.05,10.61,5.91,14.31l-2.25,2.25Z"/>
            <path class="cls-1" d="M1059.01,902.39h27.6v12.94h-24.58c-.38,5.53-1.75,9.72-4.11,12.55l-2.53-2.32c1.29-1.66,2.19-3.5,2.71-5.52.61-2.34.91-4.44.91-6.29v-11.36ZM1089.07,895.64v2.85h-33.41v-2.85h33.41ZM1083.62,905.17h-21.45v7.35h21.45v-7.35Z"/>
            <path class="cls-1" d="M1101.24,896.24h20.08v3.27l-14.66,25.11h-3.83l14.91-25.28h-16.49v-3.09Z"/>
            <path class="cls-1" d="M1138.87,909.29c1.43.45,2.58,1.04,3.45,1.79,1.69,1.41,2.53,3.25,2.53,5.52,0,2.49-1,4.55-2.99,6.19-1.92,1.59-4.57,2.39-7.95,2.39-3.17,0-6.11-.73-8.83-2.18l1.02-3.13c2.25,1.5,4.86,2.25,7.84,2.25,2.27,0,4.09-.53,5.45-1.58,1.38-1.08,2.07-2.47,2.07-4.18,0-2.04-1.05-3.53-3.16-4.47-1.2-.52-2.65-.77-4.36-.77h-2.6v-3.09h2.64c1.48,0,2.71-.33,3.69-.98,1.41-.89,2.11-2.17,2.11-3.83,0-1.57-.65-2.75-1.93-3.55-.92-.59-2.04-.88-3.38-.88-2.72,0-5.03,1.09-6.93,3.27l-1.3-3.17c2.46-2.13,5.2-3.2,8.23-3.2,2.58,0,4.72.76,6.43,2.29,1.43,1.31,2.15,3,2.15,5.06,0,2.91-1.4,4.99-4.18,6.26Z"/>
            <path class="cls-1" d="M1159.12,926.38l-2-2.39c3.61-1.78,6.59-4.14,8.93-7.07l2.53,1.44c-1.15,1.5-2.63,3-4.43,4.5-1.71,1.43-3.39,2.6-5.03,3.52ZM1172.8,908.69c3.33-3.59,5.97-6.77,7.91-9.56l2.5,1.41c-1.48,2.09-3.36,4.42-5.66,7-1.69,1.9-3.13,3.41-4.33,4.54l2.5-.14,2.5-.14,6.51-.39c-.68-.96-1.56-2.09-2.64-3.38l2.46-1.44c2.55,2.91,4.69,5.95,6.4,9.14l-2.64,1.55c-.61-1.29-1.24-2.44-1.9-3.45l-10.97.74v13.05h-2.99v-12.87c-3.24.09-5.67.18-7.31.25-3.82.14-6.41.22-7.77.25l-.21-2.78c.92,0,2.29-.02,4.11-.07,3.92-.09,6.65-.15,8.19-.18.54-.54,1-1.01,1.37-1.41-3.33-2.95-6.46-5.21-9.39-6.75l1.72-2.18c1.29.68,2.5,1.42,3.62,2.21,1.31-1.59,2.54-3.34,3.69-5.24-3.05.16-6.76.26-11.15.28l-.63-2.74c13.29,0,22.96-.77,29.01-2.32l1.27,2.6c-4.5,1.06-9.49,1.72-14.98,2-1.5,2.51-3.19,4.82-5.06,6.93,1.55,1.13,2.84,2.16,3.87,3.09ZM1188.97,926.73c-3.82-2.3-7.02-5.09-9.6-8.37l2.32-1.55c2.11,2.81,5.19,5.31,9.25,7.49l-1.97,2.43Z"/>
            <path class="cls-1" d="M1199.38,904.5l.07-.11c1.48-2.32,2.78-4.5,3.9-6.54l2.64,1.05c-2.41,4.08-4.76,7.62-7.03,10.62,2.04-.09,3.57-.19,4.61-.28-.42-.98-.76-1.73-1.02-2.25l2.29-1.02c1.05,2.04,1.99,4.2,2.81,6.47l-2.57,1.02c-.35-.98-.57-1.63-.67-1.93-.7.09-1.69.2-2.95.32v15.72h-2.78v-15.51c-1.76.12-3.67.21-5.73.28l-.21-2.6c.61,0,1.62-.04,3.02-.11.82-1.03,1.5-1.95,2.04-2.74-1.29-1.52-3.05-3.17-5.27-4.92l1.51-2.25c.59.45,1.02.79,1.3,1.02,1.52-2.27,2.72-4.44,3.59-6.5l2.64.98c-1.45,3.02-2.85,5.46-4.18,7.31.82.77,1.49,1.43,2,1.97ZM1197.06,915.05c-.3,3.84-.9,7.19-1.79,10.02l-2.64-.95c.98-2.91,1.58-6.07,1.79-9.49l2.64.42ZM1205.29,914.42c.87,2.13,1.45,4.52,1.76,7.17l-2.64.6c-.16-2.32-.63-4.7-1.41-7.14l2.29-.63ZM1214.08,911.61c-.14,5.39-.96,9.18-2.46,11.36-1.29,1.9-3.2,3.43-5.73,4.61l-1.76-2.46c2.53-1.05,4.34-2.48,5.42-4.29,1.1-1.78,1.68-4.85,1.72-9.21h2.81ZM1212.78,907.25h.14c4.06-.21,7.06-.41,9-.6-.87-1.2-1.91-2.42-3.13-3.66l2.39-1.44c2.3,2.27,4.25,4.92,5.87,7.95l-2.6,1.51c-.35-.77-.68-1.43-.98-1.97-5.81.59-11.12.97-15.93,1.16l-.28-2.78c1.45-.05,2.3-.07,2.53-.07,1.24-2.11,2.25-4.43,3.02-6.96h-6.12v-2.74h8.44v-3.41h2.95v3.41h8.54v2.74h-10.69c-.94,2.39-1.99,4.68-3.17,6.86ZM1220.66,911.61v12.1c0,.52.3.77.91.77h1.41c.54,0,.84-.36.92-1.09.05-.52.08-2.09.11-4.71l2.71.91c0,3.17-.15,5.18-.46,6.05-.38,1.08-1.22,1.62-2.53,1.62h-3.41c-1.67,0-2.5-.8-2.5-2.39v-13.26h2.85Z"/>
            <path class="cls-1" d="M1028.45,943.77c1.22,2.48,2.92,4.9,5.1,7.24l-1.58,2.43c-1.43-1.76-2.6-3.63-3.52-5.63v17.34h-2.88v-18c-1.13,3.59-2.8,6.94-5.03,10.06l-1.37-3.34c2.7-3.35,4.82-7.48,6.37-12.38h-5.59v-2.74h5.63v-6.89h2.88v6.89h4.82v2.74h-4.82v2.29ZM1040.61,932.45c-.4,2.72-1.1,5.43-2.11,8.12-1.12,2.98-2.5,5.52-4.11,7.63l-2.5-2c1.76-2.16,3.06-4.37,3.9-6.65.8-2.13,1.45-4.65,1.97-7.56l2.85.46ZM1037.98,960.75h.14c4.81-.4,8.28-.75,10.41-1.06-1.05-2.67-2.21-5.12-3.48-7.35l2.43-1.23c1.2,1.83,2.33,3.96,3.41,6.4.98,2.27,1.76,4.42,2.32,6.43l-2.95,1.23c-.24-.99-.5-1.97-.81-2.95-3.59.66-9.14,1.25-16.67,1.79l-.46-2.95c1.41-.05,2.33-.08,2.78-.11.91-2.23,1.84-4.93,2.78-8.12.94-3.12,1.64-5.94,2.11-8.47l2.95.6c-1.55,6.33-3.2,11.59-4.96,15.79ZM1051.48,948.62c-1.62-1.85-3.02-4.35-4.22-7.49-1.05-2.81-1.82-5.7-2.29-8.65l2.85-.42c1.08,5.84,3.05,10.61,5.91,14.31l-2.25,2.25Z"/>
            <path class="cls-1" d="M1059.01,940.01h27.6v12.94h-24.58c-.38,5.53-1.75,9.72-4.11,12.55l-2.53-2.32c1.29-1.66,2.19-3.5,2.71-5.52.61-2.34.91-4.44.91-6.29v-11.36ZM1089.07,933.25v2.85h-33.41v-2.85h33.41ZM1083.62,942.78h-21.45v7.35h21.45v-7.35Z"/>
            <path class="cls-1" d="M1116.08,946.44c.63.26,1.23.6,1.79,1.02,2.23,1.64,3.34,3.82,3.34,6.54,0,2.49-.95,4.57-2.85,6.26-1.92,1.69-4.28,2.53-7.07,2.53s-5.15-.84-7.07-2.53c-1.92-1.69-2.88-3.77-2.88-6.26,0-2.86,1.21-5.11,3.62-6.75.47-.33.97-.6,1.51-.81-.33-.16-.61-.34-.84-.53-1.76-1.29-2.64-3.11-2.64-5.45,0-1.99.69-3.66,2.07-4.99,1.48-1.45,3.55-2.18,6.22-2.18,1.8,0,3.43.4,4.89,1.2,1.2.66,2.1,1.65,2.71,2.99.44.91.67,1.91.67,2.99,0,2.34-.88,4.16-2.64,5.45-.23.19-.52.36-.84.53ZM1111.3,948.31c-1.97,0-3.54.5-4.71,1.51-1.24,1.1-1.86,2.49-1.86,4.15s.63,3,1.9,4.08c1.24,1.1,2.82,1.65,4.75,1.65,1.8,0,3.34-.55,4.61-1.65,1.24-1.1,1.86-2.46,1.86-4.08s-.62-3.05-1.86-4.15c-1.17-1.01-2.73-1.51-4.68-1.51ZM1111.3,936.24c-1.55,0-2.78.43-3.69,1.3-.84.8-1.27,1.83-1.27,3.09s.42,2.36,1.27,3.2c.87.84,2.12,1.27,3.76,1.27,1.52,0,2.72-.42,3.59-1.27.84-.82,1.27-1.89,1.27-3.2s-.42-2.32-1.27-3.09c-.94-.87-2.16-1.3-3.66-1.3Z"/>
            <path class="cls-1" d="M1126.56,937.69c2.2-2.95,5.06-4.43,8.58-4.43,2.84,0,5.11.94,6.82,2.81,1.27,1.38,1.9,3.19,1.9,5.42,0,1.97-.53,3.83-1.58,5.59-1.67,2.86-5.01,6.88-10.02,12.06h12.87v3.09h-20.33c4.43-4.41,7.81-7.96,10.13-10.66,1.88-2.18,3.19-3.88,3.94-5.1,1.05-1.73,1.58-3.39,1.58-4.96,0-1.69-.57-3.01-1.72-3.97-.98-.8-2.18-1.2-3.59-1.2-3,0-5.4,1.64-7.21,4.92l-1.37-3.59Z"/>
            <path class="cls-1" d="M1159.12,963.99l-2-2.39c3.61-1.78,6.59-4.14,8.93-7.07l2.53,1.44c-1.15,1.5-2.63,3-4.43,4.5-1.71,1.43-3.39,2.6-5.03,3.52ZM1172.8,946.3c3.33-3.59,5.97-6.77,7.91-9.56l2.5,1.41c-1.48,2.09-3.36,4.42-5.66,7-1.69,1.9-3.13,3.41-4.33,4.54l2.5-.14,2.5-.14,6.51-.39c-.68-.96-1.56-2.09-2.64-3.38l2.46-1.44c2.55,2.91,4.69,5.95,6.4,9.14l-2.64,1.55c-.61-1.29-1.24-2.44-1.9-3.45l-10.97.74v13.05h-2.99v-12.87c-3.24.09-5.67.18-7.31.25-3.82.14-6.41.22-7.77.25l-.21-2.78c.92,0,2.29-.02,4.11-.07,3.92-.09,6.65-.15,8.19-.18.54-.54,1-1.01,1.37-1.41-3.33-2.95-6.46-5.21-9.39-6.75l1.72-2.18c1.29.68,2.5,1.42,3.62,2.21,1.31-1.59,2.54-3.34,3.69-5.24-3.05.16-6.76.26-11.15.28l-.63-2.74c13.29,0,22.96-.77,29.01-2.32l1.27,2.6c-4.5,1.06-9.49,1.72-14.98,2-1.5,2.51-3.19,4.82-5.06,6.93,1.55,1.13,2.84,2.16,3.87,3.09ZM1188.97,964.34c-3.82-2.3-7.02-5.09-9.6-8.37l2.32-1.55c2.11,2.81,5.19,5.31,9.25,7.49l-1.97,2.43Z"/>
            <path class="cls-1" d="M1199.38,942.12l.07-.11c1.48-2.32,2.78-4.5,3.9-6.54l2.64,1.05c-2.41,4.08-4.76,7.62-7.03,10.62,2.04-.09,3.57-.19,4.61-.28-.42-.98-.76-1.73-1.02-2.25l2.29-1.02c1.05,2.04,1.99,4.2,2.81,6.47l-2.57,1.02c-.35-.98-.57-1.63-.67-1.93-.7.09-1.69.2-2.95.32v15.72h-2.78v-15.51c-1.76.12-3.67.21-5.73.28l-.21-2.6c.61,0,1.62-.04,3.02-.11.82-1.03,1.5-1.95,2.04-2.74-1.29-1.52-3.05-3.17-5.27-4.92l1.51-2.25c.59.45,1.02.79,1.3,1.02,1.52-2.27,2.72-4.44,3.59-6.5l2.64.98c-1.45,3.02-2.85,5.46-4.18,7.31.82.77,1.49,1.43,2,1.97ZM1197.06,952.67c-.3,3.84-.9,7.19-1.79,10.02l-2.64-.95c.98-2.91,1.58-6.07,1.79-9.49l2.64.42ZM1205.29,952.03c.87,2.13,1.45,4.52,1.76,7.17l-2.64.6c-.16-2.32-.63-4.7-1.41-7.14l2.29-.63ZM1214.08,949.22c-.14,5.39-.96,9.18-2.46,11.36-1.29,1.9-3.2,3.43-5.73,4.61l-1.76-2.46c2.53-1.05,4.34-2.48,5.42-4.29,1.1-1.78,1.68-4.85,1.72-9.21h2.81ZM1212.78,944.86h.14c4.06-.21,7.06-.41,9-.6-.87-1.2-1.91-2.42-3.13-3.66l2.39-1.44c2.3,2.27,4.25,4.92,5.87,7.95l-2.6,1.51c-.35-.77-.68-1.43-.98-1.97-5.81.59-11.12.97-15.93,1.16l-.28-2.78c1.45-.05,2.3-.07,2.53-.07,1.24-2.11,2.25-4.43,3.02-6.96h-6.12v-2.74h8.44v-3.41h2.95v3.41h8.54v2.74h-10.69c-.94,2.39-1.99,4.68-3.17,6.86ZM1220.66,949.22v12.1c0,.52.3.77.91.77h1.41c.54,0,.84-.36.92-1.09.05-.52.08-2.09.11-4.71l2.71.91c0,3.17-.15,5.18-.46,6.05-.38,1.08-1.22,1.62-2.53,1.62h-3.41c-1.67,0-2.5-.8-2.5-2.39v-13.26h2.85Z"/>
          </g>
          <g>
            <path class="cls-1" d="M1238.61,954.6l11.09,5.47-.64,1.3-13.48-6.78,13.48-6.8.64,1.3-11.09,5.49Z"/>
            <path class="cls-1" d="M1255.71,948.98h7.92v-2.88h1.63v2.88h7.92v1.52h-7.92v3.6h6.04v9.02h-13.72v-9.02h6.04v-3.6h-7.92v-1.52ZM1259.16,955.56v6.12h10.58v-6.12h-10.58Z"/>
            <path class="cls-1" d="M1285.98,954.18c-.11,2.36-.7,4.29-1.76,5.77-1.1,1.51-2.83,2.53-5.2,3.08l-.74-1.32c2.3-.44,3.93-1.38,4.89-2.83.76-1.14,1.18-2.71,1.27-4.7h-3.91c-.71,1.33-1.65,2.44-2.83,3.32l-1.12-1.08c1.15-.83,2.02-1.8,2.61-2.9.43-.83.78-2.03,1.05-3.58l1.63.11c-.2.97-.44,1.86-.74,2.68h8.58v1.45h-3.73Z"/>
            <path class="cls-1" d="M1293.69,948.73h1.3v12.12h1.12v-14.73h1.29v14.73h1.16v-12.12h1.27v13.55h-6.13v-13.55ZM1305.9,947.75h4.46v1.36h-3.58c.56.73,1.08,1.29,1.54,1.65.56.42,1.32.78,2.28,1.08l-.62,1.4c-1.6-.61-2.88-1.55-3.84-2.81-.27-.37-.5-.74-.68-1.1-.25.56-.52,1.04-.83,1.41-.78,1.02-1.96,1.84-3.53,2.46l-.75-1.36c1.87-.64,3.09-1.55,3.65-2.74h-3.43v-1.36h3.84c.09-.44.13-.99.15-1.63h1.51c-.03.6-.08,1.15-.17,1.63ZM1310.79,953.57v1.36h-1.16v7.24c0,.51-.1.88-.31,1.08-.23.22-.61.33-1.12.33h-2.64l-.26-1.49,2.26.02c.23,0,.4-.05.5-.15.06-.07.09-.26.09-.57v-6.46h-7.75v-1.36h10.4ZM1306.6,956.09v4.98h-5.38v-4.98h5.38ZM1305.28,957.34h-2.7v2.46h2.7v-2.46Z"/>
            <path class="cls-1" d="M1320.89,952.91c.55,0,1.02.21,1.41.64.33.38.5.81.5,1.3,0,.58-.21,1.05-.64,1.43-.37.33-.8.5-1.3.5-.58,0-1.05-.21-1.43-.62-.33-.37-.5-.81-.5-1.32,0-.56.21-1.03.64-1.41.35-.34.79-.51,1.32-.51Z"/>
            <path class="cls-1" d="M1332.52,947.04h14.29v16.13h-14.29v-16.13ZM1334.15,954.24h11v-5.68h-11v5.68ZM1334.15,955.74v5.93h11v-5.93h-11Z"/>
            <path class="cls-1" d="M1357.51,950.76v-4.61h1.67v4.61h8.01v1.58h-7.73c.58,2.47,1.45,4.43,2.63,5.88,1.25,1.52,3.04,2.76,5.38,3.73l-1.06,1.56c-2.5-1.17-4.42-2.67-5.75-4.5-.93-1.26-1.63-2.77-2.11-4.52-.39,1.41-.99,2.71-1.78,3.89-1.48,2.18-3.56,3.88-6.24,5.11l-.9-1.62c2.41-.97,4.27-2.31,5.57-4.04,1.11-1.49,1.85-3.32,2.22-5.49h-7.64v-1.58h7.75Z"/>
            <path class="cls-1" d="M1371.54,946.87h1.52v3.49h3.64v-4.24h1.51v1.41h6.65v1.34h-6.65v1.49h7.79v1.34h-17.48v-1.34h3.03v-3.49ZM1369.6,963.23v-10.76h1.51v9.4h12.23v-9.4h1.54v10.76h-15.28ZM1375.86,956.55h-3.88v-1.27h4.54v-2.94h1.43v2.94h4.61v1.27h-3.97c1.11,1.16,2.44,2.11,3.99,2.85l-.73,1.14c-1.49-.77-2.79-1.75-3.89-2.94v3.58h-1.43v-3.58c-1.29,1.37-2.6,2.38-3.95,3.03l-.66-1.14c1.41-.62,2.72-1.6,3.95-2.94ZM1374.21,952.29c.45.7.86,1.43,1.23,2.19l-1.36.5c-.32-.73-.7-1.46-1.14-2.19l1.27-.5ZM1381.7,952.71c-.53,1.13-.96,1.9-1.3,2.33l-1.29-.5c.44-.66.86-1.44,1.27-2.33l1.32.5Z"/>
            <path class="cls-1" d="M1392.21,948.08v3.01h2.5v1.41h-2.5v.24c.6,1.11,1.47,2.25,2.61,3.4l-.88,1.34c-.74-.96-1.31-1.86-1.73-2.72v8.8h-1.47v-8.63c-.75,1.76-1.74,3.36-2.99,4.78l-.68-1.63c.73-.7,1.47-1.67,2.2-2.92.6-1.02,1.04-1.9,1.32-2.64h-3.2v-1.41h3.34v-2.79c-1.17.13-2.21.21-3.1.22l-.31-1.4c1.14-.01,2.38-.11,3.71-.29,1.18-.17,2.17-.4,2.99-.68l.7,1.38c-.82.22-1.66.4-2.52.55ZM1402.95,956.38l1.8-.39.2,1.51-2,.42v5.64h-1.54v-5.33l-6.58,1.38-.2-1.49,6.78-1.41v-10.56h1.54v10.23ZM1396.36,951.7c1.27.74,2.39,1.6,3.36,2.59l-1.07,1.18c-.82-.93-1.89-1.81-3.2-2.63l.9-1.14ZM1397.2,947.04c1.25.76,2.37,1.64,3.36,2.65l-1.05,1.19c-.94-1.02-2.01-1.93-3.2-2.74l.88-1.1Z"/>
            <path class="cls-1" d="M1408.88,955.08c.01-.55.02-.85.02-.9v-6.32h5.95v-1.69h1.54v1.69h7.14v1.4h-13.15v4.9c0,4.06-.92,7.19-2.75,9.38l-1.21-1.16c.81-.99,1.4-2.04,1.76-3.14.24-.72.43-1.57.55-2.53-.6.34-1.48.78-2.63,1.3l-.26-1.65c.97-.32,1.98-.75,3.03-1.29ZM1407.1,949.31c.59,1.2,1,2.38,1.23,3.54l-1.4.5c-.16-1.07-.51-2.24-1.07-3.53l1.23-.51ZM1417.46,954.25h5.42v7.84c0,.97-.47,1.45-1.41,1.45h-2.28l-.26-1.51h1.65c.37,0,.6-.05.7-.15.07-.1.11-.28.11-.55v-5.82h-3.49c.34.89.83,1.68,1.47,2.35.51.55,1.16,1.08,1.93,1.6l-.9,1.19c-1.63-1.31-2.77-2.71-3.43-4.19-.1.33-.19.59-.28.79-.53,1.35-1.43,2.5-2.7,3.47l-.88-1.21c1.44-.96,2.37-2.29,2.77-4h-2.88v8.03h-1.49v-9.29h4.59c.07-.55.12-1.22.15-2h-5.34v-1.34h12.64v1.34h-5.9c-.04.7-.1,1.37-.18,2Z"/>
            <path class="cls-1" d="M1425.39,946.69h5.16v1.29c-.22.84-.48,1.64-.77,2.39-.12.34-.42,1.06-.9,2.17,1.11,1.33,1.67,2.83,1.67,4.48,0,1.81-.73,2.72-2.2,2.72h-.92l-.24-1.49h.97c.64,0,.96-.5.96-1.49,0-.66-.16-1.38-.48-2.17-.28-.7-.68-1.37-1.19-2,.76-1.62,1.29-3.13,1.6-4.54h-2.17v15.54h-1.49v-16.9ZM1442.42,956.02h-3.88v5.38c0,.23.04.39.11.48.07.1.21.15.42.15h1.03c.39,0,.63-.13.72-.39.1-.32.17-1.03.22-2.15l1.47.37c-.1,1.48-.23,2.43-.4,2.85-.14.33-.37.55-.72.66-.17.05-.45.07-.84.07h-2c-.43,0-.72-.03-.86-.09-.31-.12-.5-.39-.57-.79-.02-.12-.04-.42-.04-.9v-5.64h-1.87c-.02,1.95-.45,3.56-1.29,4.83-.81,1.22-2.08,2.12-3.8,2.68l-.68-1.38c1.54-.45,2.64-1.21,3.31-2.28.62-.99.94-2.28.94-3.86h-2.88v-1.41h11.62v1.41ZM1435.7,946.15h1.52v1.74h4.76v3.93h-1.47v-2.53h-8.14v2.53h-1.45v-3.93h4.78v-1.74ZM1440.18,952.55h-7.49v-1.36h7.49v1.36Z"/>
            <path class="cls-1" d="M1447.01,951.57c.71-1.04,1.41-2.22,2.09-3.53l1.32.61c-1.25,2.22-2.46,4.07-3.62,5.55.37-.01,1.12-.05,2.26-.11-.16-.49-.3-.89-.42-1.19l1.17-.44c.49,1.1.83,2.16,1.03,3.18l-1.3.44c-.04-.28-.08-.53-.13-.73-.33.05-.76.09-1.29.11v8.14h-1.45v-8.04l-1.27.05-1.27.07-.44.04-.13-1.45c.58,0,1.09,0,1.54-.02.23-.29.59-.78,1.07-1.45-.91-1.05-1.79-1.89-2.66-2.52l.75-1.17c.29.21.5.36.62.46.7-1.02,1.32-2.16,1.87-3.43l1.38.51c-.75,1.57-1.48,2.85-2.2,3.84.51.49.87.86,1.07,1.1ZM1445.85,957.1c-.13,2.07-.44,3.81-.92,5.23l-1.36-.51c.48-1.35.78-2.99.92-4.92l1.36.2ZM1450.17,956.7c.44,1.27.72,2.57.84,3.89l-1.32.24c-.1-1.15-.34-2.39-.74-3.73l1.21-.4ZM1460.45,956.88v1.45h-3.84v3.1h4.61v1.41h-10.85v-1.41h4.72v-3.1h-3.67v-1.45h3.67v-2.02h1.52v2.02h3.84ZM1457.05,952.45c1.22.75,2.71,1.31,4.44,1.69l-.57,1.49c-2.17-.59-3.87-1.33-5.11-2.24-1.38.94-2.81,1.68-4.28,2.22l-.77-1.38c1.36-.49,2.64-1.1,3.84-1.84-.91-.89-1.76-2.02-2.57-3.38l1.25-.59c.82,1.33,1.67,2.37,2.55,3.1,1.1-.92,2-2.02,2.7-3.31h-7.51v-1.36h9.15v1.34c-.61,1.58-1.65,2.99-3.12,4.24Z"/>
            <path class="cls-1" d="M1472.04,948.96h7.05v14.23h-15.57v-14.23h6.94v-2.85h1.58v2.85ZM1470.46,950.47h-5.38v4.74h5.38v-4.74ZM1470.46,956.66h-5.38v5.03h5.38v-5.03ZM1477.53,950.47h-5.49v4.74h5.49v-4.74ZM1477.53,956.66h-5.49v5.03h5.49v-5.03Z"/>
            <path class="cls-1" d="M1497.13,954.6l-11.09-5.49.64-1.3,13.48,6.8-13.48,6.78-.64-1.3,11.09-5.47Z"/>
          </g>
        </g>
        <g>
          <rect class="cls-1" x="1003.47" y="970.83" width="511.03" height="29.83" rx="14.92" ry="14.92"/>
          <g>
            <path class="cls-5" d="M1029.09,983.41c.64,1.3,1.52,2.56,2.66,3.78l-.83,1.27c-.75-.92-1.36-1.9-1.84-2.94v9.05h-1.51v-9.4c-.59,1.87-1.46,3.62-2.63,5.25l-.72-1.75c1.41-1.75,2.52-3.91,3.32-6.46h-2.92v-1.43h2.94v-3.6h1.51v3.6h2.52v1.43h-2.52v1.19ZM1035.45,977.5c-.21,1.42-.58,2.83-1.1,4.24-.59,1.55-1.3,2.88-2.15,3.99l-1.3-1.05c.92-1.13,1.6-2.28,2.04-3.47.42-1.11.76-2.43,1.03-3.95l1.49.24ZM1034.07,992.28h.07c2.51-.21,4.32-.39,5.44-.55-.55-1.4-1.16-2.67-1.82-3.84l1.27-.64c.62.96,1.22,2.07,1.78,3.34.51,1.19.92,2.31,1.21,3.36l-1.54.64c-.12-.51-.26-1.03-.42-1.54-1.87.34-4.77.66-8.71.94l-.24-1.54c.74-.02,1.22-.04,1.45-.05.48-1.16.96-2.58,1.45-4.24.49-1.63.86-3.1,1.1-4.43l1.54.31c-.81,3.31-1.67,6.05-2.59,8.25ZM1041.12,985.95c-.84-.97-1.58-2.27-2.2-3.91-.55-1.47-.95-2.98-1.19-4.52l1.49-.22c.56,3.05,1.59,5.54,3.09,7.47l-1.18,1.18Z"/>
            <path class="cls-5" d="M1045.05,981.45h14.42v6.76h-12.84c-.2,2.89-.91,5.08-2.15,6.56l-1.32-1.21c.67-.87,1.14-1.83,1.41-2.88.32-1.22.48-2.32.48-3.29v-5.93ZM1060.76,977.92v1.49h-17.45v-1.49h17.45ZM1057.91,982.9h-11.2v3.84h11.2v-3.84Z"/>
            <path class="cls-5" d="M1069.15,984.24h8.45c-.07,2.49-.23,4.54-.46,6.17-.21,1.53-.45,2.55-.73,3.05-.27.49-.66.82-1.16.99-.33.11-.77.17-1.3.17h-3.56l-.29-1.62,3.66.02c.69,0,1.16-.31,1.43-.92.24-.59.45-2.03.62-4.32.06-.77.1-1.46.13-2.08h-6.92c-.27,2.04-.88,3.76-1.84,5.14-.99,1.42-2.4,2.69-4.22,3.82l-1.03-1.45c2.35-1.33,3.94-2.97,4.76-4.9.66-1.54,1-3.88,1.01-7h-5.55v-1.51h7.86v-2.63h1.65v2.63h7.92v1.51h-10.27c-.01.7-.06,1.67-.15,2.92Z"/>
            <path class="cls-5" d="M1098.37,977.9v1.38h-7.97c-.18.83-.41,1.6-.68,2.31h7.84v12.65h-15.79v-12.65h6.39c.26-.62.47-1.4.64-2.31h-7.9v-1.38h17.47ZM1085.86,982.93h-2.57v9.96h2.57v-9.96ZM1091.94,982.93h-4.63v2.35h4.63v-2.35ZM1091.94,986.57h-4.63v2.41h4.63v-2.41ZM1091.94,990.26h-4.63v2.63h4.63v-2.63ZM1096.06,982.93h-2.63v9.96h2.63v-9.96Z"/>
            <path class="cls-5" d="M1102.01,986.79c-.53.58-1.2,1.19-2.02,1.84l-.61-1.73c1.87-1.33,3.5-3.32,4.88-5.95l1.32.68c-.65,1.27-1.31,2.36-1.98,3.27v9.73h-1.6v-7.84ZM1105.04,977.61c-.51,1-1.21,1.99-2.08,2.96-.86.96-1.76,1.73-2.7,2.33l-.84-1.51c1.67-.91,3.09-2.37,4.28-4.39l1.34.61ZM1117.16,983.15v1.52h-3.01v8.41c0,.6-.13,1.01-.4,1.23-.26.21-.68.31-1.27.31h-3.23l-.28-1.71,3.03.02c.18,0,.31-.02.39-.05.11-.06.17-.21.17-.46v-7.75h-6.74v-1.52h11.35ZM1116.42,977.99v1.47h-9.84v-1.47h9.84Z"/>
            <path class="cls-5" d="M1128.67,981.76c.18.78.4,1.53.64,2.24,2.41-.13,4.25-.35,5.51-.64l.17,1.56c-1.18.22-2.77.39-4.78.51l-.29.02c.56,1.15,1.23,2.19,2,3.12l-1.45,1.03c-.94-1.14-1.73-2.5-2.37-4.08-.08.01-.83.02-2.24.04l-.37.02-5.95-.04v-1.52l5.71.07h.42c.07-.01.42-.02,1.05-.02h.83c-.2-.59-.4-1.34-.62-2.26-.58.03-1.13.04-1.65.04h-5.05v-1.52l4.52.02h.42c.18,0,.67-.01,1.47-.04-.13-.8-.23-1.57-.29-2.31l1.78-.02c.05.69.13,1.44.26,2.26,1.9-.09,3.59-.26,5.09-.53l.15,1.58c-1.13.2-2.63.34-4.52.44l-.42.04ZM1122.52,987.43l1.29.86c-.64.62-.96,1.2-.96,1.73s.29.98.88,1.32c.82.5,2.53.75,5.12.75,1.42,0,2.85-.06,4.28-.18l.04,1.67c-1.1.09-2.38.13-3.82.13-2.3,0-3.94-.12-4.92-.35-1.08-.27-1.91-.7-2.5-1.3-.54-.55-.81-1.17-.81-1.87,0-.91.46-1.82,1.4-2.75Z"/>
          </g>
        </g>
      </g>
      <g>
        <g>
          <g>
            <path class="cls-2" d="M1028.45,678.23c1.22,2.49,2.92,4.9,5.1,7.24l-1.58,2.43c-1.43-1.76-2.6-3.63-3.52-5.63v17.34h-2.88v-18c-1.13,3.59-2.8,6.94-5.03,10.06l-1.37-3.34c2.7-3.35,4.82-7.48,6.37-12.38h-5.59v-2.74h5.63v-6.89h2.88v6.89h4.82v2.74h-4.82v2.29ZM1040.61,666.91c-.4,2.72-1.1,5.43-2.11,8.12-1.12,2.98-2.5,5.52-4.11,7.63l-2.5-2c1.76-2.16,3.06-4.37,3.9-6.65.8-2.13,1.45-4.65,1.97-7.56l2.85.46ZM1037.98,695.22h.14c4.81-.4,8.28-.75,10.41-1.05-1.05-2.67-2.21-5.12-3.48-7.35l2.43-1.23c1.2,1.83,2.33,3.96,3.41,6.4.98,2.27,1.76,4.42,2.32,6.44l-2.95,1.23c-.24-.98-.5-1.97-.81-2.95-3.59.66-9.14,1.25-16.67,1.79l-.46-2.95c1.41-.05,2.33-.08,2.78-.11.91-2.23,1.84-4.93,2.78-8.12.94-3.12,1.64-5.94,2.11-8.47l2.95.6c-1.55,6.33-3.2,11.59-4.96,15.79ZM1051.48,683.09c-1.62-1.85-3.02-4.35-4.22-7.49-1.05-2.81-1.82-5.7-2.29-8.65l2.85-.42c1.08,5.84,3.05,10.61,5.91,14.31l-2.25,2.25Z"/>
            <path class="cls-2" d="M1059.01,674.47h27.6v12.94h-24.58c-.38,5.53-1.75,9.72-4.11,12.55l-2.53-2.32c1.29-1.66,2.19-3.5,2.71-5.52.61-2.34.91-4.44.91-6.29v-11.36ZM1089.07,667.72v2.85h-33.41v-2.85h33.41ZM1083.62,677.25h-21.45v7.35h21.45v-7.35Z"/>
            <path class="cls-2" d="M1116.08,680.91c.63.26,1.23.6,1.79,1.02,2.23,1.64,3.34,3.82,3.34,6.54,0,2.49-.95,4.57-2.85,6.26-1.92,1.69-4.28,2.53-7.07,2.53s-5.15-.84-7.07-2.53-2.88-3.77-2.88-6.26c0-2.86,1.21-5.11,3.62-6.75.47-.33.97-.6,1.51-.81-.33-.16-.61-.34-.84-.53-1.76-1.29-2.64-3.11-2.64-5.45,0-1.99.69-3.66,2.07-4.99,1.48-1.45,3.55-2.18,6.22-2.18,1.8,0,3.43.4,4.89,1.2,1.2.66,2.1,1.65,2.71,2.99.44.91.67,1.91.67,2.99,0,2.34-.88,4.16-2.64,5.45-.23.19-.52.36-.84.53ZM1111.3,682.77c-1.97,0-3.54.5-4.71,1.51-1.24,1.1-1.86,2.49-1.86,4.15s.63,3,1.9,4.08c1.24,1.1,2.82,1.65,4.75,1.65,1.8,0,3.34-.55,4.61-1.65,1.24-1.1,1.86-2.46,1.86-4.08s-.62-3.05-1.86-4.15c-1.17-1.01-2.73-1.51-4.68-1.51ZM1111.3,670.71c-1.55,0-2.78.43-3.69,1.3-.84.8-1.27,1.83-1.27,3.09s.42,2.36,1.27,3.2c.87.84,2.12,1.27,3.76,1.27,1.52,0,2.72-.42,3.59-1.27.84-.82,1.27-1.89,1.27-3.2s-.42-2.32-1.27-3.09c-.94-.87-2.16-1.3-3.66-1.3Z"/>
            <path class="cls-2" d="M1128.32,672.64l6.33-4.33h3.02v28.38h-3.45v-24.62l-5.45,3.76-.46-3.2Z"/>
            <path class="cls-2" d="M1159.12,698.45l-2-2.39c3.61-1.78,6.59-4.14,8.93-7.07l2.53,1.44c-1.15,1.5-2.63,3-4.43,4.5-1.71,1.43-3.39,2.6-5.03,3.52ZM1172.8,680.77c3.33-3.59,5.97-6.77,7.91-9.56l2.5,1.41c-1.48,2.09-3.36,4.42-5.66,7-1.69,1.9-3.13,3.41-4.33,4.54l2.5-.14,2.5-.14,6.51-.39c-.68-.96-1.56-2.09-2.64-3.38l2.46-1.44c2.55,2.91,4.69,5.96,6.4,9.14l-2.64,1.55c-.61-1.29-1.24-2.44-1.9-3.45l-10.97.74v13.05h-2.99v-12.87c-3.24.09-5.67.18-7.31.25-3.82.14-6.41.22-7.77.25l-.21-2.78c.92,0,2.29-.02,4.11-.07,3.92-.09,6.65-.15,8.19-.18.54-.54,1-1.01,1.37-1.41-3.33-2.95-6.46-5.2-9.39-6.75l1.72-2.18c1.29.68,2.5,1.42,3.62,2.22,1.31-1.59,2.54-3.34,3.69-5.24-3.05.16-6.76.26-11.15.28l-.63-2.74c13.29,0,22.96-.77,29.01-2.32l1.27,2.6c-4.5,1.05-9.49,1.72-14.98,2-1.5,2.51-3.19,4.82-5.06,6.93,1.55,1.12,2.84,2.16,3.87,3.09ZM1188.97,698.8c-3.82-2.3-7.02-5.09-9.6-8.37l2.32-1.55c2.11,2.81,5.19,5.31,9.25,7.49l-1.97,2.43Z"/>
            <path class="cls-2" d="M1199.38,676.58l.07-.11c1.48-2.32,2.78-4.5,3.9-6.54l2.64,1.06c-2.41,4.08-4.76,7.62-7.03,10.62,2.04-.09,3.57-.19,4.61-.28-.42-.98-.76-1.73-1.02-2.25l2.29-1.02c1.05,2.04,1.99,4.2,2.81,6.47l-2.57,1.02c-.35-.98-.57-1.63-.67-1.93-.7.09-1.69.2-2.95.32v15.72h-2.78v-15.51c-1.76.12-3.67.21-5.73.28l-.21-2.6c.61,0,1.62-.04,3.02-.11.82-1.03,1.5-1.95,2.04-2.74-1.29-1.52-3.05-3.16-5.27-4.92l1.51-2.25c.59.45,1.02.79,1.3,1.02,1.52-2.27,2.72-4.44,3.59-6.51l2.64.98c-1.45,3.02-2.85,5.46-4.18,7.31.82.77,1.49,1.43,2,1.97ZM1197.06,687.13c-.3,3.85-.9,7.19-1.79,10.02l-2.64-.95c.98-2.91,1.58-6.07,1.79-9.49l2.64.42ZM1205.29,686.5c.87,2.13,1.45,4.52,1.76,7.17l-2.64.6c-.16-2.32-.63-4.7-1.41-7.14l2.29-.63ZM1214.08,683.68c-.14,5.39-.96,9.18-2.46,11.36-1.29,1.9-3.2,3.43-5.73,4.61l-1.76-2.46c2.53-1.05,4.34-2.48,5.42-4.29,1.1-1.78,1.68-4.85,1.72-9.21h2.81ZM1212.78,679.32h.14c4.06-.21,7.06-.41,9-.6-.87-1.2-1.91-2.41-3.13-3.66l2.39-1.44c2.3,2.27,4.25,4.92,5.87,7.95l-2.6,1.51c-.35-.77-.68-1.43-.98-1.97-5.81.59-11.12.97-15.93,1.16l-.28-2.78c1.45-.05,2.3-.07,2.53-.07,1.24-2.11,2.25-4.43,3.02-6.96h-6.12v-2.74h8.44v-3.41h2.95v3.41h8.54v2.74h-10.69c-.94,2.39-1.99,4.68-3.17,6.86ZM1220.66,683.68v12.1c0,.52.3.77.91.77h1.41c.54,0,.84-.36.92-1.09.05-.52.08-2.09.11-4.71l2.71.91c0,3.16-.15,5.18-.46,6.05-.38,1.08-1.22,1.62-2.53,1.62h-3.41c-1.67,0-2.5-.8-2.5-2.39v-13.26h2.85Z"/>
          </g>
          <g>
            <path class="cls-2" d="M1237.96,689.16l11.09,5.47-.64,1.3-13.48-6.78,13.48-6.8.64,1.3-11.09,5.49Z"/>
            <path class="cls-2" d="M1260.53,695.4c-1.67.62-3.35,1.17-5.07,1.63l-.46-1.6c.76-.18,1.81-.47,3.16-.86,1.07-.32,1.86-.57,2.37-.75v-6.92h-5.44v-1.52h5.44v-4.68h1.58v17.45h-1.58v-2.74ZM1264.76,680.69h1.6v6.04c1.9-1.05,3.54-2.2,4.94-3.45l1.08,1.34c-1.59,1.33-3.6,2.62-6.02,3.86v7.22c0,.21.04.35.11.42.08.11.28.17.57.17h2.88c.34,0,.57-.07.68-.2.27-.28.4-1.4.4-3.36l1.58.55c-.11,1.94-.26,3.14-.46,3.62-.26.64-.79.96-1.6.96h-4.17c-1.07,0-1.6-.46-1.6-1.38v-15.78Z"/>
            <path class="cls-2" d="M1278.44,686.92c.64,1.3,1.52,2.56,2.66,3.78l-.83,1.27c-.75-.92-1.36-1.9-1.84-2.94v9.05h-1.51v-9.4c-.59,1.87-1.46,3.62-2.63,5.25l-.72-1.74c1.41-1.75,2.52-3.91,3.32-6.46h-2.92v-1.43h2.94v-3.6h1.51v3.6h2.52v1.43h-2.52v1.19ZM1284.79,681c-.21,1.42-.58,2.83-1.1,4.24-.59,1.56-1.3,2.88-2.15,3.99l-1.3-1.05c.92-1.13,1.6-2.28,2.04-3.47.42-1.11.76-2.43,1.03-3.95l1.49.24ZM1283.42,695.79h.07c2.51-.21,4.32-.39,5.44-.55-.55-1.4-1.16-2.68-1.82-3.84l1.27-.64c.62.96,1.22,2.07,1.78,3.34.51,1.19.92,2.31,1.21,3.36l-1.54.64c-.12-.51-.26-1.03-.42-1.54-1.87.34-4.77.65-8.71.94l-.24-1.54c.74-.02,1.22-.04,1.45-.06.48-1.16.96-2.58,1.45-4.24.49-1.63.86-3.1,1.1-4.43l1.54.31c-.81,3.31-1.67,6.05-2.59,8.25ZM1290.47,689.45c-.84-.97-1.58-2.27-2.2-3.91-.55-1.47-.95-2.98-1.19-4.52l1.49-.22c.56,3.05,1.59,5.54,3.09,7.47l-1.18,1.18Z"/>
            <path class="cls-2" d="M1294.4,684.95h14.42v6.76h-12.84c-.2,2.89-.91,5.08-2.15,6.56l-1.32-1.21c.67-.87,1.14-1.83,1.41-2.88.32-1.22.48-2.32.48-3.29v-5.93ZM1310.1,681.43v1.49h-17.45v-1.49h17.45ZM1307.26,686.4h-11.2v3.84h11.2v-3.84Z"/>
            <path class="cls-2" d="M1312.14,697.17l-1.01-.5c.43-1.26.66-2.68.7-4.24l.99.04c-.06,1.87-.29,3.44-.68,4.7ZM1319.69,681.26v1.25h-2.66v1.63h2.3v1.16h-2.3v1.71h2.3v1.18h-2.3v1.85h2.54c-.09,3.54-.39,5.85-.9,6.94-.38.77-1.06,1.16-2.04,1.16h-2.11l-.28-1.41,2.15.04c.34,0,.6-.07.77-.2.58-.44.91-2.21.99-5.31h-6.19v-9.99h7.73ZM1314.4,695.93l-.99.09c.04-.53.05-1.08.05-1.65,0-.67-.03-1.31-.09-1.91l.84-.02c.11,1.31.17,2.47.18,3.49ZM1315.69,682.51h-2.28v1.63h2.28v-1.63ZM1315.69,685.3h-2.28v1.71h2.28v-1.71ZM1315.69,688.18h-2.28v1.85h2.28v-1.85ZM1316.04,695.46l-.86.18c0-1-.1-2.06-.31-3.18l.77-.11c.23,1.15.37,2.19.4,3.1ZM1317.47,694.7l-.77.18c-.09-.97-.24-1.82-.46-2.57l.73-.15c.23.82.4,1.67.5,2.53ZM1320.94,681.26h7.46v7.88h-2.64c.27,2.95,1.41,5.49,3.42,7.62l-1.01,1.4c-2.17-2.26-3.43-5.27-3.8-9.02h-1.96v.81c0,3.43-.75,6.17-2.26,8.21l-1.16-1.1c1.31-1.8,1.96-4.19,1.96-7.18v-8.61ZM1326.89,682.71h-4.5v5h4.5v-5Z"/>
            <path class="cls-2" d="M1333.04,681.41h6.85v.75c0,5.12,1.56,9.1,4.68,11.96.97.89,2.11,1.7,3.42,2.41l-1.1,1.52c-4.36-2.67-6.97-6.2-7.82-10.6-.5,2.24-1.29,4.13-2.37,5.67-1.33,1.91-3.21,3.56-5.64,4.94l-1.05-1.49c1.73-.82,3.16-1.84,4.3-3.05,2.07-2.17,3.31-4.79,3.71-7.86.1-.66.15-1.55.15-2.68h-5.12v-1.58Z"/>
            <path class="cls-2" d="M1365.37,682.05v15.52h-15.12v-15.52h15.12ZM1363.73,683.61h-11.85v12.42h11.85v-12.42Z"/>
            <path class="cls-2" d="M1371.13,686.13c.71-1.04,1.41-2.22,2.09-3.53l1.32.61c-1.25,2.22-2.46,4.06-3.62,5.55.37-.01,1.12-.05,2.26-.11-.16-.49-.3-.89-.42-1.19l1.17-.44c.49,1.1.83,2.16,1.03,3.18l-1.3.44c-.04-.28-.08-.53-.13-.73-.33.05-.76.09-1.29.11v8.14h-1.45v-8.04l-1.27.06-1.27.07-.44.04-.13-1.45c.58,0,1.09,0,1.54-.02.23-.29.59-.78,1.07-1.45-.91-1.05-1.79-1.89-2.66-2.52l.75-1.18c.29.21.5.36.62.46.7-1.02,1.32-2.16,1.87-3.43l1.38.51c-.75,1.57-1.48,2.85-2.2,3.84.51.49.87.86,1.07,1.1ZM1369.98,691.66c-.13,2.07-.44,3.81-.92,5.23l-1.36-.51c.48-1.35.78-2.99.92-4.92l1.36.2ZM1374.29,691.25c.44,1.27.72,2.57.84,3.89l-1.32.24c-.1-1.15-.34-2.39-.74-3.73l1.21-.4ZM1384.58,691.44v1.45h-3.84v3.1h4.61v1.41h-10.85v-1.41h4.72v-3.1h-3.67v-1.45h3.67v-2.02h1.52v2.02h3.84ZM1381.18,687.01c1.22.75,2.71,1.31,4.44,1.69l-.57,1.49c-2.17-.59-3.87-1.33-5.11-2.24-1.38.94-2.81,1.68-4.28,2.22l-.77-1.38c1.36-.49,2.64-1.1,3.84-1.84-.91-.89-1.76-2.02-2.57-3.38l1.25-.59c.82,1.33,1.67,2.37,2.55,3.1,1.1-.92,2-2.02,2.7-3.31h-7.51v-1.36h9.15v1.34c-.61,1.58-1.65,2.99-3.12,4.24Z"/>
            <path class="cls-2" d="M1396.17,683.52h7.05v14.23h-15.57v-14.23h6.94v-2.85h1.58v2.85ZM1394.59,685.03h-5.38v4.74h5.38v-4.74ZM1394.59,691.21h-5.38v5.03h5.38v-5.03ZM1401.66,685.03h-5.49v4.74h5.49v-4.74ZM1401.66,691.21h-5.49v5.03h5.49v-5.03Z"/>
            <path class="cls-2" d="M1421.25,689.16l-11.09-5.49.64-1.3,13.48,6.8-13.48,6.78-.64-1.3,11.09-5.47Z"/>
          </g>
        </g>
        <rect class="cls-2" x="1003.47" y="705.38" width="511.03" height="29.83" rx="14.92" ry="14.92"/>
      </g>
    </g>
    <g>
      <path class="cls-1" d="M796.99,960.06l-91.01-62.45c-2.38-1.64-3.81-4.34-3.82-7.23,0-2.89,1.41-5.6,3.79-7.25l180.24-124.67-322.39-222.98c-2.37-1.64-3.79-4.34-3.79-7.23s1.42-5.59,3.79-7.23l443.77-307.05c2.01-1.39,4.51-1.88,6.9-1.35q1.92.42,23.47,15.31c12.09,8.34,28.14,19.46,44.16,30.56,32.05,22.21,64.01,44.4,64.01,44.4l-10.03,14.45c-43.22-30-105.86-73.43-123.45-85.48l-428.38,296.4,322.39,222.98c2.37,1.64,3.79,4.35,3.79,7.23s-1.42,5.59-3.79,7.23l-180.2,124.64,80.48,55.23-9.95,14.5Z"/>
      <g>
        <path class="cls-7" d="M1105.14,330.43l-142.34-98.45-72.38,50.02-10-14.47,77.38-53.48c3.01-2.08,6.99-2.08,10,0l147.34,101.91-10,14.46Z"/>
        <path class="cls-7" d="M771.54,977.02l-115.46-79.41c-2.38-1.64-3.81-4.34-3.81-7.23s1.41-5.6,3.79-7.24l180.24-124.67-322.39-222.98c-2.37-1.64-3.79-4.35-3.79-7.23s1.42-5.59,3.79-7.23l366.51-253.49,10,14.46-356.06,246.25,322.39,222.98c2.37,1.64,3.79,4.35,3.79,7.23s-1.42,5.59-3.79,7.23l-180.21,124.65,104.95,72.19-9.96,14.49Z"/>
      </g>
      <g>
        <rect class="cls-8" x="795.8" y="143.93" width="447.64" height="7.03" transform="translate(97.2 606.25) rotate(-34.67)"/>
        <path class="cls-8" d="M749.7,990.23l-140.52-96.97c-.95-.66-1.52-1.74-1.52-2.89,0-1.16.57-2.24,1.52-2.89l186.51-129.01-328.66-227.32c-.95-.66-1.52-1.74-1.52-2.89s.57-2.24,1.52-2.89l366.51-253.49,4,5.79-362.33,250.59,328.66,227.32c.95.66,1.52,1.74,1.52,2.89s-.57,2.24-1.52,2.89l-186.51,129,136.33,94.08-4,5.79Z"/>
      </g>
      <path class="cls-4" d="M1073.3,360.41c-3.72,0-7.38-1.77-9.65-5.06-3.68-5.33-2.35-12.63,2.97-16.31l123.62-85.5c5.33-3.68,12.63-2.35,16.31,2.97,3.68,5.33,2.35,12.63-2.97,16.31l-123.62,85.5c-2.03,1.41-4.36,2.08-6.66,2.08Z"/>
      <g>
        <path d="M723.09,999.08h-318.42c-.65,0-1.17-.53-1.17-1.17s.53-1.17,1.17-1.17h318.42c.65,0,1.17.53,1.17,1.17s-.53,1.17-1.17,1.17Z"/>
        <g>
          <path d="M426.58,959.97c1.56,3.18,3.74,6.28,6.53,9.28l-2.03,3.11c-1.83-2.25-3.33-4.66-4.51-7.21v22.21h-3.69v-23.07c-1.44,4.6-3.59,8.89-6.44,12.89l-1.76-4.28c3.45-4.29,6.17-9.58,8.16-15.86h-7.16v-3.51h7.21v-8.83h3.69v8.83h6.17v3.51h-6.17v2.93ZM442.17,945.46c-.51,3.49-1.41,6.95-2.7,10.41-1.44,3.81-3.2,7.07-5.27,9.78l-3.2-2.57c2.25-2.76,3.92-5.6,5-8.52,1.02-2.73,1.86-5.96,2.52-9.69l3.65.58ZM438.79,981.73h.18c6.16-.51,10.6-.96,13.34-1.35-1.35-3.42-2.84-6.56-4.46-9.42l3.11-1.58c1.53,2.34,2.99,5.08,4.37,8.2,1.26,2.91,2.25,5.66,2.97,8.25l-3.78,1.58c-.3-1.26-.65-2.52-1.04-3.78-4.6.84-11.71,1.61-21.36,2.3l-.59-3.79c1.8-.06,2.99-.1,3.56-.13,1.17-2.85,2.36-6.32,3.56-10.41,1.2-4,2.1-7.62,2.7-10.86l3.78.77c-1.98,8.11-4.1,14.85-6.35,20.23ZM456.09,966.19c-2.07-2.37-3.88-5.57-5.41-9.6-1.35-3.6-2.33-7.3-2.93-11.08l3.65-.54c1.38,7.48,3.9,13.59,7.57,18.34l-2.88,2.88Z"/>
          <path d="M481.1,955.15h35.37v16.58h-31.49c-.48,7.09-2.24,12.45-5.27,16.08l-3.24-2.97c1.65-2.13,2.81-4.49,3.47-7.07.78-3,1.17-5.69,1.17-8.06v-14.55ZM519.62,946.5v3.65h-42.8v-3.65h42.8ZM512.63,958.71h-27.48v9.42h27.48v-9.42Z"/>
          <path d="M539.98,985.11l-2.48-1.22c1.05-3.09,1.62-6.56,1.71-10.41l2.43.09c-.15,4.59-.71,8.44-1.67,11.53ZM558.5,946.09v3.06h-6.53v4.01h5.63v2.84h-5.63v4.19h5.63v2.88h-5.63v4.55h6.22c-.21,8.68-.95,14.36-2.21,17.03-.93,1.89-2.6,2.84-5,2.84h-5.18l-.68-3.47,5.27.09c.84,0,1.47-.17,1.89-.5,1.41-1.08,2.22-5.42,2.43-13.02h-15.18v-24.51h18.97ZM545.53,982.09l-2.43.23c.09-1.29.14-2.64.14-4.05,0-1.65-.08-3.21-.23-4.69l2.07-.05c.27,3.21.42,6.07.45,8.56ZM548.68,949.16h-5.59v4.01h5.59v-4.01ZM548.68,956h-5.59v4.19h5.59v-4.19ZM548.68,963.08h-5.59v4.55h5.59v-4.55ZM549.54,980.92l-2.12.45c0-2.46-.26-5.06-.77-7.79l1.89-.27c.57,2.82.9,5.36.99,7.61ZM553.05,979.07l-1.89.45c-.21-2.37-.59-4.48-1.13-6.31l1.8-.36c.57,2.01.98,4.09,1.22,6.22ZM561.56,946.09h18.29v19.33h-6.49c.66,7.24,3.45,13.47,8.38,18.7l-2.48,3.42c-5.32-5.56-8.42-12.93-9.33-22.12h-4.82v1.98c0,8.41-1.85,15.12-5.54,20.14l-2.84-2.7c3.21-4.42,4.82-10.29,4.82-17.62v-21.13ZM576.16,949.65h-11.04v12.25h11.04v-12.25Z"/>
        </g>
      </g>
      <g>
        <path d="M1515.33,261.61h-318.42c-.65,0-1.17-.52-1.17-1.17s.53-1.17,1.17-1.17h318.42c.65,0,1.17.52,1.17,1.17s-.53,1.17-1.17,1.17Z"/>
        <g>
          <path d="M1296.75,207.18h3.83v4.01h19.37v3.6h-19.37v4.51h16.71v26.67c0,1.2-.33,2.13-.99,2.79-.69.75-1.61,1.13-2.75,1.13h-7.16l-.77-3.69,6.53.09c.87,0,1.31-.42,1.31-1.26v-22.3h-29.56v27.17h-3.83v-30.59h16.67v-4.51h-19.46v-3.6h19.46v-4.01ZM1286.7,229.48h5.14c-.6-1.83-1.32-3.57-2.16-5.23l3.51-.95c.93,1.89,1.73,3.95,2.39,6.17h5.81c.87-1.65,1.65-3.69,2.34-6.13l3.6.63c-.66,2.04-1.41,3.87-2.25,5.5h5.63v3.15h-10.27v4.37h10.27v3.15h-10.27v8.7h-3.65v-8.7h-10.09v-3.15h10.09v-4.37h-10.09v-3.15Z"/>
          <path d="M1325.04,220.11c2.58,1.14,5.06,2.69,7.43,4.64l-2.16,3.2c-2.04-1.77-4.46-3.35-7.25-4.73l1.98-3.11ZM1334.5,233.94c-2.19,6.22-5.06,11.56-8.61,16.04l-2.7-3.2c3.3-4.17,6.05-9.21,8.25-15.09l3.06,2.25ZM1327.29,207.99c2.7,1.14,5.23,2.7,7.57,4.69l-2.3,3.24c-2.16-2.01-4.64-3.68-7.43-5l2.16-2.93ZM1343.29,228.72c-.09,4.6-.5,8.35-1.22,11.26-.99,3.87-3.29,7.25-6.89,10.14l-2.79-2.79c3.18-2.34,5.23-5.03,6.13-8.06.72-2.46,1.11-5.98,1.17-10.54h3.6ZM1358.65,221.55c-.93-1.14-2.06-2.36-3.38-3.65l2.75-1.89c3.24,2.88,6.11,6.25,8.61,10.09l-3.11,2.16c-.84-1.38-1.68-2.63-2.52-3.74-6.16.69-14.4,1.19-24.74,1.49l-.27-3.56c.18,0,1.89-.03,5.14-.09,1.68-2.76,2.97-5.38,3.88-7.84h-9.01v-3.47h12.93v-3.74h3.83v3.74h13.29v3.47h-17.03c-1.14,2.61-2.45,5.18-3.92,7.7l1.98-.04c5.08-.15,8.94-.36,11.58-.63ZM1351.58,228.94v19.91h-3.56v-19.91h3.56ZM1359.87,228.54v16.49c0,.72.3,1.08.9,1.08h1.17c.45,0,.75-.15.9-.45.18-.45.33-2.49.45-6.13l3.42,1.04c-.03,1.23-.15,2.82-.36,4.78-.18,1.65-.41,2.72-.68,3.2-.39.81-1.17,1.22-2.34,1.22h-4.28c-.93,0-1.62-.26-2.07-.77-.42-.45-.63-1.04-.63-1.76v-18.7h3.51Z"/>
          <path d="M1388.84,207.18h3.96v37.71h13.88v-29.83h4.01v33.57h-39.6v-33.57h3.96v29.83h13.79v-37.71Z"/>
          <path d="M1417.27,247.64l-2.48-1.22c1.05-3.09,1.62-6.56,1.71-10.41l2.43.09c-.15,4.6-.71,8.44-1.67,11.53ZM1435.79,208.62v3.06h-6.53v4.01h5.63v2.84h-5.63v4.19h5.63v2.88h-5.63v4.55h6.22c-.21,8.68-.95,14.36-2.21,17.03-.93,1.89-2.6,2.84-5,2.84h-5.18l-.68-3.47,5.27.09c.84,0,1.47-.17,1.89-.5,1.41-1.08,2.22-5.42,2.43-13.02h-15.18v-24.51h18.97ZM1422.81,244.62l-2.43.23c.09-1.29.14-2.64.14-4.06,0-1.65-.08-3.21-.23-4.69l2.07-.04c.27,3.21.42,6.07.45,8.56ZM1425.96,211.68h-5.59v4.01h5.59v-4.01ZM1425.96,218.53h-5.59v4.19h5.59v-4.19ZM1425.96,225.61h-5.59v4.55h5.59v-4.55ZM1426.82,243.45l-2.12.45c0-2.46-.26-5.06-.77-7.79l1.89-.27c.57,2.82.9,5.36.99,7.61ZM1430.33,241.6l-1.89.45c-.21-2.37-.59-4.48-1.13-6.31l1.8-.36c.57,2.01.98,4.08,1.22,6.22ZM1438.85,208.62h18.29v19.33h-6.49c.66,7.24,3.45,13.47,8.38,18.7l-2.48,3.42c-5.32-5.56-8.42-12.93-9.33-22.12h-4.82v1.98c0,8.41-1.85,15.12-5.54,20.14l-2.84-2.7c3.21-4.42,4.82-10.29,4.82-17.62v-21.13ZM1453.45,212.18h-11.04v12.25h11.04v-12.25Z"/>
        </g>
      </g>
      <path class="cls-2" d="M820.95,942.64l-65.07-44.55c-2.39-1.63-3.82-4.34-3.83-7.23,0-2.89,1.41-5.61,3.79-7.25l180.24-124.68-97.48-67.42c-2.37-1.64-3.79-4.34-3.79-7.22s1.41-5.58,3.77-7.23l194.47-135.2-118.27-81.51,9.98-14.48,127.35,87.77c2.75,1.18,4.74,3.69,5.22,6.69.53,3.34-.89,6.68-3.66,8.61l-194.64,135.32,97.5,67.43c2.37,1.64,3.79,4.34,3.79,7.23s-1.42,5.59-3.79,7.23l-180.18,124.64,54.53,37.33-9.93,14.51Z"/>
      <rect class="cls-1" x="829.92" y="351.27" width="17.59" height="158.99" transform="translate(7.33 875.51) rotate(-55.33)"/>
      <rect class="cls-7" x="789.49" y="346.31" width="17.59" height="182" transform="translate(-15.48 845.08) rotate(-55.33)"/>
      <path class="cls-4" d="M836.29,526.29c-3.72,0-7.38-1.77-9.65-5.06-3.68-5.33-2.35-12.63,2.97-16.31l123.62-85.5c5.32-3.68,12.63-2.35,16.31,2.97,3.68,5.33,2.35,12.63-2.97,16.31l-123.62,85.5c-2.03,1.41-4.36,2.08-6.66,2.08Z"/>
      <path d="M1278.31,427.49h-318.42c-.65,0-1.17-.52-1.17-1.17s.53-1.17,1.17-1.17h318.42c.65,0,1.17.52,1.17,1.17s-.53,1.17-1.17,1.17Z"/>
      <g>
        <path d="M997.96,375.31h35.05v39.56h-35.05v-39.56ZM1001.97,392.97h26.99v-13.92h-26.99v13.92ZM1001.97,396.67v14.55h26.99v-14.55h-26.99Z"/>
        <path d="M1059.28,384.46v-11.31h4.1v11.31h19.64v3.87h-18.97c1.41,6.07,3.56,10.87,6.44,14.42,3.06,3.72,7.46,6.77,13.2,9.15l-2.61,3.83c-6.13-2.88-10.83-6.56-14.1-11.04-2.28-3.09-4.01-6.79-5.18-11.08-.96,3.45-2.42,6.64-4.37,9.55-3.63,5.35-8.74,9.52-15.32,12.53l-2.21-3.96c5.92-2.37,10.47-5.68,13.65-9.91,2.73-3.66,4.55-8.15,5.45-13.47h-18.74v-3.87h19.01Z"/>
        <path d="M1093.7,374.91h3.74v8.56h8.92v-10.41h3.69v3.47h16.31v3.29h-16.31v3.65h19.1v3.29h-42.89v-3.29h7.43v-8.56ZM1088.93,415.05v-26.4h3.69v23.07h30.01v-23.07h3.78v26.4h-37.49ZM1104.29,398.65h-9.51v-3.11h11.13v-7.21h3.51v7.21h11.31v3.11h-9.73c2.73,2.85,5.99,5.18,9.78,6.98l-1.8,2.79c-3.67-1.89-6.85-4.29-9.55-7.21v8.79h-3.51v-8.79c-3.15,3.36-6.38,5.84-9.69,7.43l-1.62-2.79c3.45-1.53,6.68-3.93,9.69-7.21ZM1100.23,388.2c1.11,1.71,2.12,3.5,3.02,5.36l-3.33,1.22c-.78-1.8-1.71-3.59-2.79-5.36l3.11-1.22ZM1118.62,389.23c-1.29,2.76-2.36,4.67-3.2,5.72l-3.15-1.22c1.08-1.62,2.12-3.53,3.11-5.72l3.24,1.22Z"/>
        <path d="M1144.39,377.88v7.39h6.13v3.47h-6.13v.59c1.47,2.73,3.6,5.51,6.4,8.34l-2.16,3.29c-1.8-2.34-3.21-4.57-4.24-6.67v21.58h-3.6v-21.18c-1.83,4.33-4.28,8.23-7.34,11.71l-1.67-4.01c1.8-1.71,3.6-4.1,5.41-7.16,1.47-2.49,2.55-4.66,3.24-6.49h-7.84v-3.47h8.2v-6.85c-2.88.33-5.42.51-7.61.54l-.77-3.42c2.79-.03,5.83-.27,9.1-.72,2.88-.42,5.33-.98,7.34-1.67l1.71,3.38c-2.01.54-4.07.99-6.17,1.35ZM1170.75,398.24l4.42-.95.5,3.69-4.91,1.04v13.83h-3.78v-13.07l-16.13,3.38-.5-3.65,16.63-3.47v-25.91h3.78v25.1ZM1154.57,386.76c3.12,1.8,5.87,3.92,8.25,6.35l-2.61,2.88c-2.01-2.28-4.63-4.43-7.84-6.44l2.21-2.79ZM1156.64,375.31c3.06,1.86,5.81,4.03,8.25,6.49l-2.57,2.93c-2.31-2.49-4.93-4.73-7.84-6.71l2.16-2.7Z"/>
        <path d="M1185.3,395.05c.03-1.35.04-2.09.04-2.21v-15.5h14.6v-4.15h3.78v4.15h17.53v3.42h-32.26v12.03c0,9.97-2.25,17.65-6.76,23.02l-2.97-2.84c1.98-2.43,3.42-5,4.33-7.7.6-1.77,1.05-3.84,1.35-6.22-1.47.84-3.62,1.91-6.44,3.2l-.63-4.06c2.37-.78,4.85-1.83,7.43-3.15ZM1180.93,380.9c1.44,2.94,2.45,5.84,3.02,8.7l-3.42,1.22c-.39-2.61-1.26-5.5-2.61-8.65l3.02-1.26ZM1206.34,393.02h13.29v19.24c0,2.37-1.16,3.56-3.47,3.56h-5.59l-.63-3.69h4.05c.9,0,1.47-.12,1.71-.36.18-.24.27-.69.27-1.35v-14.28h-8.56c.84,2.19,2.04,4.12,3.6,5.77,1.26,1.35,2.84,2.66,4.73,3.92l-2.21,2.93c-4-3.21-6.8-6.64-8.43-10.27-.24.81-.47,1.46-.68,1.94-1.29,3.3-3.5,6.14-6.62,8.52l-2.16-2.97c3.54-2.34,5.81-5.62,6.8-9.82h-7.07v19.69h-3.65v-22.8h11.26c.18-1.35.3-2.99.36-4.91h-13.11v-3.29h31v3.29h-14.46c-.09,1.71-.24,3.35-.45,4.91Z"/>
        <path d="M1225.8,374.46h12.66v3.15c-.54,2.07-1.17,4.03-1.89,5.86-.3.84-1.04,2.61-2.21,5.32,2.73,3.27,4.1,6.94,4.1,10.99,0,4.45-1.8,6.67-5.41,6.67h-2.25l-.58-3.65h2.39c1.56,0,2.34-1.22,2.34-3.65,0-1.62-.39-3.39-1.17-5.32-.69-1.71-1.67-3.35-2.93-4.91,1.86-3.96,3.17-7.67,3.92-11.13h-5.32v38.12h-3.65v-41.45ZM1267.57,397.34h-9.51v13.2c0,.57.09.96.27,1.17.18.24.53.36,1.04.36h2.52c.96,0,1.55-.32,1.76-.95.24-.78.42-2.54.54-5.27l3.6.9c-.24,3.63-.57,5.96-.99,6.98-.33.81-.92,1.35-1.76,1.62-.42.12-1.11.18-2.07.18h-4.91c-1.05,0-1.76-.08-2.12-.23-.75-.3-1.22-.95-1.4-1.94-.06-.3-.09-1.04-.09-2.21v-13.83h-4.6c-.06,4.78-1.11,8.73-3.15,11.85-1.98,3-5.09,5.2-9.33,6.58l-1.67-3.38c3.79-1.11,6.49-2.97,8.11-5.59,1.53-2.43,2.3-5.59,2.3-9.46h-7.07v-3.47h28.52v3.47ZM1251.08,373.15h3.74v4.28h11.67v9.64h-3.6v-6.22h-19.96v6.22h-3.56v-9.64h11.71v-4.28ZM1262.07,388.83h-18.38v-3.33h18.38v3.33Z"/>
      </g>
      <path class="cls-4" d="M723.1,1012.38c-3.72,0-7.38-1.76-9.65-5.06-3.68-5.33-2.35-12.63,2.97-16.31l123.62-85.5c5.33-3.68,12.63-2.35,16.31,2.97,3.68,5.33,2.35,12.63-2.97,16.31l-123.62,85.5c-2.03,1.41-4.36,2.08-6.66,2.08Z"/>
    </g>
    <g>
      <path class="cls-8" d="M1028.06,581.95c2.17,0,4,.75,5.51,2.26s2.26,3.32,2.26,5.45-.75,3.95-2.26,5.46c-1.51,1.51-3.32,2.26-5.46,2.26s-3.95-.75-5.46-2.26c-1.51-1.51-2.26-3.32-2.26-5.46s.75-3.92,2.26-5.45c.82-.83,1.82-1.45,2.99-1.85.78-.27,1.59-.4,2.41-.4Z"/>
      <path class="cls-8" d="M1049.93,595.65c-1.67.62-3.35,1.17-5.07,1.63l-.46-1.6c.76-.18,1.81-.47,3.16-.86,1.07-.32,1.86-.57,2.37-.75v-6.92h-5.44v-1.52h5.44v-4.68h1.58v17.45h-1.58v-2.74ZM1054.16,580.94h1.6v6.04c1.9-1.05,3.54-2.2,4.94-3.45l1.08,1.34c-1.59,1.33-3.6,2.62-6.02,3.86v7.22c0,.21.04.35.11.42.08.11.28.17.57.17h2.88c.34,0,.57-.07.68-.2.27-.28.4-1.4.4-3.36l1.58.55c-.11,1.94-.26,3.14-.46,3.62-.26.64-.79.96-1.6.96h-4.17c-1.07,0-1.6-.46-1.6-1.38v-15.78Z"/>
      <path class="cls-8" d="M1067.84,587.16c.64,1.3,1.52,2.56,2.66,3.78l-.83,1.27c-.75-.92-1.36-1.9-1.84-2.94v9.05h-1.51v-9.4c-.59,1.87-1.46,3.62-2.63,5.25l-.72-1.74c1.41-1.75,2.52-3.91,3.32-6.46h-2.92v-1.43h2.94v-3.6h1.51v3.6h2.52v1.43h-2.52v1.19ZM1074.19,581.25c-.21,1.42-.58,2.83-1.1,4.24-.59,1.56-1.3,2.88-2.15,3.99l-1.3-1.05c.92-1.13,1.6-2.28,2.04-3.47.42-1.11.76-2.43,1.03-3.95l1.49.24ZM1072.81,596.03h.07c2.51-.21,4.32-.39,5.44-.55-.55-1.4-1.16-2.68-1.82-3.84l1.27-.64c.62.96,1.22,2.07,1.78,3.34.51,1.19.92,2.31,1.21,3.36l-1.54.64c-.12-.51-.26-1.03-.42-1.54-1.87.34-4.77.65-8.71.94l-.24-1.54c.74-.02,1.22-.04,1.45-.06.48-1.16.96-2.58,1.45-4.24.49-1.63.86-3.1,1.1-4.43l1.54.31c-.81,3.31-1.67,6.05-2.59,8.25ZM1079.87,589.7c-.84-.97-1.58-2.27-2.2-3.91-.55-1.47-.95-2.98-1.19-4.52l1.49-.22c.56,3.05,1.59,5.54,3.09,7.47l-1.18,1.18Z"/>
      <path class="cls-8" d="M1083.8,585.2h14.42v6.76h-12.84c-.2,2.89-.91,5.08-2.15,6.56l-1.32-1.21c.67-.87,1.14-1.83,1.41-2.88.32-1.22.48-2.32.48-3.29v-5.93ZM1099.5,581.67v1.49h-17.45v-1.49h17.45ZM1096.65,586.65h-11.2v3.84h11.2v-3.84Z"/>
      <path class="cls-8" d="M1101.54,597.41l-1.01-.5c.43-1.26.66-2.68.7-4.24l.99.04c-.06,1.87-.29,3.44-.68,4.7ZM1109.09,581.51v1.25h-2.66v1.63h2.3v1.16h-2.3v1.71h2.3v1.18h-2.3v1.85h2.54c-.09,3.54-.39,5.85-.9,6.94-.38.77-1.06,1.16-2.04,1.16h-2.11l-.28-1.41,2.15.04c.34,0,.6-.07.77-.2.58-.44.91-2.21.99-5.31h-6.19v-9.99h7.73ZM1103.8,596.18l-.99.09c.04-.53.05-1.08.05-1.65,0-.67-.03-1.31-.09-1.91l.84-.02c.11,1.31.17,2.47.18,3.49ZM1105.08,582.76h-2.28v1.63h2.28v-1.63ZM1105.08,585.55h-2.28v1.71h2.28v-1.71ZM1105.08,588.43h-2.28v1.85h2.28v-1.85ZM1105.43,595.7l-.86.18c0-1-.1-2.06-.31-3.18l.77-.11c.23,1.15.37,2.19.4,3.1ZM1106.87,594.95l-.77.18c-.09-.97-.24-1.82-.46-2.57l.73-.15c.23.82.4,1.67.5,2.53ZM1110.34,581.51h7.46v7.88h-2.64c.27,2.95,1.41,5.49,3.42,7.62l-1.01,1.4c-2.17-2.26-3.43-5.27-3.8-9.02h-1.96v.81c0,3.43-.75,6.17-2.26,8.21l-1.16-1.1c1.31-1.8,1.96-4.19,1.96-7.18v-8.61ZM1116.29,582.96h-4.5v5h4.5v-5Z"/>
      <path class="cls-8" d="M1122.44,581.65h6.85v.75c0,5.12,1.56,9.1,4.68,11.96.97.89,2.11,1.7,3.42,2.41l-1.1,1.52c-4.36-2.67-6.97-6.2-7.82-10.6-.5,2.24-1.29,4.13-2.37,5.67-1.33,1.91-3.21,3.56-5.64,4.94l-1.05-1.49c1.73-.82,3.16-1.84,4.3-3.05,2.07-2.17,3.31-4.79,3.71-7.86.1-.66.15-1.55.15-2.68h-5.12v-1.58Z"/>
      <path class="cls-8" d="M1154.76,582.3v15.52h-15.12v-15.52h15.12ZM1153.13,583.86h-11.85v12.42h11.85v-12.42Z"/>
    </g>
    <g>
      <path class="cls-8" d="M663.66,754.38c.64,1.3,1.52,2.56,2.66,3.78l-.83,1.27c-.75-.92-1.36-1.9-1.84-2.94v9.05h-1.51v-9.4c-.59,1.87-1.46,3.62-2.63,5.25l-.72-1.74c1.41-1.75,2.52-3.91,3.32-6.46h-2.92v-1.43h2.94v-3.6h1.51v3.6h2.52v1.43h-2.52v1.19ZM670.02,748.47c-.21,1.42-.58,2.83-1.1,4.24-.59,1.56-1.3,2.88-2.15,3.99l-1.3-1.05c.92-1.13,1.6-2.28,2.04-3.47.42-1.11.76-2.43,1.03-3.95l1.49.24ZM668.64,763.25h.07c2.51-.21,4.32-.39,5.44-.55-.55-1.4-1.16-2.68-1.82-3.84l1.27-.64c.62.96,1.22,2.07,1.78,3.34.51,1.19.92,2.31,1.21,3.36l-1.54.64c-.12-.51-.26-1.03-.42-1.54-1.87.34-4.77.65-8.71.94l-.24-1.54c.74-.02,1.22-.04,1.45-.06.48-1.16.96-2.58,1.45-4.24.49-1.63.86-3.1,1.1-4.43l1.54.31c-.81,3.31-1.67,6.05-2.59,8.25ZM675.69,756.91c-.84-.97-1.58-2.27-2.2-3.91-.55-1.47-.95-2.98-1.19-4.52l1.49-.22c.56,3.05,1.59,5.54,3.09,7.47l-1.18,1.18Z"/>
      <path class="cls-8" d="M679.62,752.41h14.42v6.76h-12.84c-.2,2.89-.91,5.08-2.15,6.56l-1.32-1.21c.67-.87,1.14-1.83,1.41-2.88.32-1.22.48-2.32.48-3.29v-5.93ZM695.32,748.89v1.49h-17.45v-1.49h17.45ZM692.48,753.87h-11.2v3.84h11.2v-3.84Z"/>
      <path class="cls-8" d="M701.64,750.87h3.47c-.4-.8-.86-1.54-1.36-2.24l1.43-.64c.71,1.04,1.25,2,1.63,2.88h2.54c.51-.81.96-1.71,1.34-2.72l1.58.57c-.32.72-.71,1.44-1.18,2.15h2.59v4.24h-1.52v-2.88h-13.48v2.88h-1.56v-4.24h2.77c-.38-.66-.81-1.33-1.3-2l1.43-.66c.62.86,1.16,1.74,1.62,2.66ZM711.19,753.63v4.57h-5.03c-.06.17-.13.42-.22.75-.09.27-.17.53-.26.77h7.09v5.53h-14.77v-5.53h6.04c.15-.33.31-.84.5-1.52h-4.92v-4.57h11.57ZM711.23,761.03h-11.7v2.87h11.7v-2.87ZM709.67,754.86h-8.52v2.09h8.52v-2.09Z"/>
      <path class="cls-8" d="M726.12,760.57c.88.73,1.73,1.32,2.55,1.76,1.19.65,2.6,1.17,4.22,1.56l-.9,1.4c-1.65-.55-3.03-1.15-4.13-1.8-.66-.39-1.4-.93-2.22-1.62-.15-.13-.38-.34-.7-.61v4.3h-1.49v-4.28c-1.64,1.64-3.99,2.97-7.03,3.99l-.83-1.36c1.67-.49,3.02-1,4.06-1.54.92-.47,1.81-1.07,2.68-1.8h-6.8v-1.27h7.92v-1.4h-6.59v-1.19h6.59v-1.32h-7.09v-1.25h4.06c-.17-.67-.36-1.27-.57-1.78h-4.32v-1.3h3.07c-.23-.58-.62-1.37-1.17-2.39l1.52-.5c.53.97.94,1.93,1.23,2.88h1.56v-2.87h1.47v2.87h2v-2.87h1.47v2.87h1.51c.54-1.04.96-2,1.27-2.88l1.52.5c-.22.59-.62,1.38-1.21,2.39h3.14v1.3h-4.37c-.17.58-.37,1.17-.59,1.78h4.21v1.25h-7.22v1.32h6.7v1.19h-6.7v1.4h7.97v1.27h-6.8ZM726.95,752.36h-5.49c.12.34.21.63.28.86.15.51.23.82.26.92h4.43c.21-.51.39-1.11.53-1.78Z"/>
      <path class="cls-8" d="M735.47,752.19h6.67v6.91h-5.16c-.12,2.78-.64,4.94-1.56,6.48l-1.29-1.14c.89-1.52,1.34-3.5,1.34-5.95v-6.3ZM742.8,748.78v1.43h-8.41v-1.43h8.41ZM740.65,753.61h-3.67v4.04h3.67v-4.04ZM751.38,749.46c-1.02.39-2.04.69-3.07.88-.8.16-1.85.3-3.16.42v3.2h6.58v1.47h-2.24v10.19h-1.54v-10.19h-2.79v.44c0,1.74-.2,3.45-.59,5.14-.4,1.7-1.15,3.21-2.24,4.54l-1.4-1.07c.96-.99,1.63-2.12,2.02-3.38.44-1.44.66-3.04.66-4.77v-6.91c1.14-.02,2.33-.16,3.58-.4,1.24-.23,2.33-.55,3.29-.96l.9,1.4Z"/>
      <path class="cls-8" d="M768.05,749.16c2.17,0,4,.75,5.51,2.26s2.26,3.32,2.26,5.45-.75,3.95-2.26,5.46c-1.51,1.51-3.32,2.26-5.46,2.26s-3.95-.75-5.46-2.26c-1.51-1.51-2.26-3.32-2.26-5.46s.75-3.92,2.26-5.45c.82-.83,1.82-1.45,2.99-1.85.78-.27,1.59-.4,2.41-.4Z"/>
    </g>
    <g>
      <path class="cls-8" d="M502.49,618h7.92v-2.88h1.63v2.88h7.92v1.52h-7.92v3.6h6.04v9.02h-13.72v-9.02h6.04v-3.6h-7.92v-1.52ZM505.94,624.58v6.12h10.58v-6.12h-10.58Z"/>
      <path class="cls-8" d="M532.76,623.2c-.11,2.36-.7,4.29-1.76,5.77-1.1,1.51-2.83,2.53-5.2,3.09l-.74-1.32c2.3-.44,3.93-1.38,4.89-2.83.76-1.14,1.18-2.71,1.27-4.7h-3.91c-.71,1.33-1.65,2.44-2.83,3.32l-1.12-1.08c1.15-.83,2.02-1.8,2.61-2.9.43-.83.78-2.03,1.05-3.58l1.63.11c-.2.97-.44,1.86-.74,2.68h8.58v1.45h-3.73Z"/>
      <path class="cls-8" d="M540.47,617.74h1.3v12.12h1.12v-14.73h1.29v14.73h1.16v-12.12h1.27v13.55h-6.13v-13.55ZM552.68,616.77h4.46v1.36h-3.58c.56.73,1.08,1.29,1.54,1.65.56.42,1.32.78,2.28,1.08l-.62,1.4c-1.6-.61-2.88-1.55-3.84-2.81-.27-.37-.5-.73-.68-1.1-.25.56-.52,1.03-.83,1.41-.78,1.02-1.96,1.84-3.53,2.46l-.75-1.36c1.87-.64,3.09-1.55,3.65-2.74h-3.43v-1.36h3.84c.09-.44.13-.99.15-1.63h1.51c-.03.6-.08,1.15-.17,1.63ZM557.57,622.59v1.36h-1.16v7.24c0,.51-.1.88-.31,1.08-.23.22-.61.33-1.12.33h-2.64l-.26-1.49,2.26.02c.23,0,.4-.05.5-.15.06-.07.09-.26.09-.57v-6.46h-7.75v-1.36h10.4ZM553.38,625.11v4.98h-5.38v-4.98h5.38ZM552.06,626.36h-2.7v2.46h2.7v-2.46Z"/>
      <path class="cls-8" d="M573.84,616.16c2.17,0,4,.75,5.51,2.26s2.26,3.32,2.26,5.45-.75,3.95-2.26,5.46c-1.51,1.51-3.32,2.26-5.46,2.26s-3.95-.75-5.46-2.26c-1.51-1.51-2.26-3.32-2.26-5.46s.75-3.92,2.26-5.45c.82-.83,1.82-1.45,2.99-1.85.78-.27,1.59-.4,2.41-.4Z"/>
    </g>
  </g>
  <g>
    <g>
      <rect class="cls-10" x=".8" y=".8" width="1918.39" height="132.8"/>
      <path class="cls-4" d="M1918.39,1.61v131.2H1.61V1.61h1916.79M1920,0H0v134.41h1920V0h0Z"/>
    </g>
    <g>
      <g>
        <path class="cls-5" d="M684.29,85.2h-14.1v-34.86h13.56c6.46,0,10.53,3.67,10.53,9.55,0,3.77-2.35,6.46-4.7,7.39,2.69,1.08,5.24,3.67,5.24,8.08,0,6.41-4.36,9.84-10.53,9.84ZM683.31,55.09h-7.83v9.99h7.83c3.38,0,5.68-1.76,5.68-4.99s-2.3-4.99-5.68-4.99ZM683.8,69.83h-8.32v10.63h8.32c3.67,0,5.73-2.25,5.73-5.34s-2.06-5.29-5.73-5.29Z"/>
        <path class="cls-5" d="M717.05,85.2v-2.5c-1.71,1.86-4.11,2.79-6.61,2.79s-4.65-.83-6.12-2.25c-1.91-1.86-2.5-4.21-2.5-7v-15.86h4.99v15.13c0,3.87,2.2,5.53,4.99,5.53s5.14-1.71,5.14-5.53v-15.13h4.99v24.83h-4.9Z"/>
        <path class="cls-5" d="M737.91,85.5c-4.06,0-7.49-.69-10.43-3.57l3.28-3.28c2.01,2.06,4.7,2.6,7.15,2.6,3.08,0,5.43-1.08,5.43-3.43,0-1.71-.93-2.69-3.33-2.94l-3.97-.34c-4.7-.44-7.34-2.5-7.34-6.86,0-4.9,4.16-7.59,9.35-7.59,3.77,0,6.9.78,9.21,2.79l-3.13,3.18c-1.57-1.32-3.77-1.81-6.12-1.81-3.04,0-4.5,1.27-4.5,3.18,0,1.71.98,2.6,3.43,2.84l3.48.29c5.14.44,7.83,2.69,7.83,7.05,0,5.19-4.41,7.88-10.33,7.88Z"/>
        <path class="cls-5" d="M766.65,85.2v-34.86h5.29v34.86h-5.29Z"/>
        <path class="cls-5" d="M795.59,85.2v-15.13c0-3.87-2.2-5.53-4.99-5.53s-5.14,1.71-5.14,5.53v15.13h-4.99v-24.83h4.9v2.5c1.71-1.86,4.11-2.79,6.61-2.79s4.65.83,6.12,2.25c1.91,1.86,2.5,4.21,2.5,7v15.86h-4.99Z"/>
        <path class="cls-5" d="M814.06,64.2v21.01h-4.99v-21.01h-2.84v-3.82h2.84v-3.38c0-3.57,2.15-6.9,6.81-6.9h3.13v4.26h-2.2c-1.86,0-2.74,1.08-2.74,2.89v3.13h4.95v3.82h-4.95Z"/>
        <path class="cls-5" d="M840.94,82.56c-1.62,1.66-4.06,2.94-7.44,2.94s-5.78-1.27-7.39-2.94c-2.35-2.45-2.94-5.58-2.94-9.79s.59-7.3,2.94-9.74c1.62-1.67,4.02-2.94,7.39-2.94s5.83,1.27,7.44,2.94c2.35,2.45,2.94,5.58,2.94,9.74s-.59,7.34-2.94,9.79ZM837.17,65.96c-.93-.93-2.2-1.42-3.67-1.42s-2.69.49-3.62,1.42c-1.52,1.52-1.71,4.11-1.71,6.81s.2,5.29,1.71,6.81c.93.93,2.15,1.47,3.62,1.47s2.74-.54,3.67-1.47c1.52-1.52,1.71-4.11,1.71-6.81s-.2-5.29-1.71-6.81Z"/>
        <path class="cls-5" d="M864.3,66.2c-1.13-1.13-2.01-1.67-3.72-1.67-2.69,0-4.95,2.15-4.95,5.58v15.08h-4.99v-24.83h4.9v2.69c1.27-1.76,3.82-2.99,6.61-2.99,2.4,0,4.21.64,5.92,2.35l-3.77,3.77Z"/>
        <path class="cls-5" d="M902.39,85.2v-15.13c0-3.87-2.2-5.53-4.99-5.53s-5.14,1.71-5.14,5.29v15.37h-4.99v-15.13c0-3.87-2.2-5.53-4.99-5.53s-5.14,1.71-5.14,5.53v15.13h-4.99v-24.83h4.9v2.5c1.66-1.81,4.11-2.79,6.61-2.79,3.08,0,5.48,1.22,7.05,3.62,2.01-2.45,4.5-3.62,7.79-3.62,2.55,0,4.8.83,6.27,2.25,1.91,1.86,2.64,4.21,2.64,7v15.86h-4.99Z"/>
        <path class="cls-5" d="M928.45,85.2v-2.25c-1.81,1.81-3.53,2.55-6.61,2.55s-5.14-.73-6.66-2.25c-1.27-1.32-1.96-3.23-1.96-5.34,0-4.16,2.89-7.15,8.62-7.15h6.51v-1.76c0-3.18-1.52-4.65-5.43-4.65-2.64,0-4.02.69-5.44,2.45l-3.23-3.08c2.3-2.74,4.7-3.62,8.86-3.62,6.86,0,10.23,2.94,10.23,8.52v16.6h-4.9ZM928.35,74.23h-5.73c-3.04,0-4.55,1.27-4.55,3.57s1.42,3.53,4.7,3.53c1.76,0,3.18-.2,4.5-1.42.78-.73,1.08-1.91,1.08-3.67v-2.01Z"/>
        <path class="cls-5" d="M948.43,85.2c-4.65,0-6.81-3.33-6.81-6.9v-14.1h-2.84v-3.82h2.84v-7.1h4.99v7.1h4.8v3.82h-4.8v13.86c0,1.81.88,2.89,2.74,2.89h2.06v4.26h-2.99Z"/>
        <path class="cls-5" d="M957.64,55.48v-5.29h5.29v5.29h-5.29ZM957.78,85.2v-24.83h4.99v24.83h-4.99Z"/>
        <path class="cls-5" d="M987.31,82.56c-1.62,1.66-4.06,2.94-7.44,2.94s-5.78-1.27-7.39-2.94c-2.35-2.45-2.94-5.58-2.94-9.79s.59-7.3,2.94-9.74c1.62-1.67,4.02-2.94,7.39-2.94s5.83,1.27,7.44,2.94c2.35,2.45,2.94,5.58,2.94,9.74s-.59,7.34-2.94,9.79ZM983.54,65.96c-.93-.93-2.2-1.42-3.67-1.42s-2.69.49-3.62,1.42c-1.52,1.52-1.71,4.11-1.71,6.81s.2,5.29,1.71,6.81c.93.93,2.15,1.47,3.62,1.47s2.74-.54,3.67-1.47c1.52-1.52,1.71-4.11,1.71-6.81s-.2-5.29-1.71-6.81Z"/>
        <path class="cls-5" d="M1012.14,85.2v-15.13c0-3.87-2.2-5.53-4.99-5.53s-5.14,1.71-5.14,5.53v15.13h-4.99v-24.83h4.9v2.5c1.71-1.86,4.11-2.79,6.61-2.79s4.65.83,6.12,2.25c1.91,1.86,2.5,4.21,2.5,7v15.86h-4.99Z"/>
        <path class="cls-5" d="M1051.26,85.2h-14.1v-34.86h13.56c6.46,0,10.53,3.67,10.53,9.55,0,3.77-2.35,6.46-4.7,7.39,2.69,1.08,5.24,3.67,5.24,8.08,0,6.41-4.36,9.84-10.53,9.84ZM1050.28,55.09h-7.83v9.99h7.83c3.38,0,5.68-1.76,5.68-4.99s-2.3-4.99-5.68-4.99ZM1050.77,69.83h-8.32v10.63h8.32c3.67,0,5.73-2.25,5.73-5.34s-2.06-5.29-5.73-5.29Z"/>
        <path class="cls-5" d="M1085.64,82.56c-1.62,1.66-4.06,2.94-7.44,2.94s-5.78-1.27-7.39-2.94c-2.35-2.45-2.94-5.58-2.94-9.79s.59-7.3,2.94-9.74c1.62-1.67,4.02-2.94,7.39-2.94s5.83,1.27,7.44,2.94c2.35,2.45,2.94,5.58,2.94,9.74s-.59,7.34-2.94,9.79ZM1081.87,65.96c-.93-.93-2.2-1.42-3.67-1.42s-2.69.49-3.62,1.42c-1.52,1.52-1.71,4.11-1.71,6.81s.2,5.29,1.71,6.81c.93.93,2.15,1.47,3.62,1.47s2.74-.54,3.67-1.47c1.52-1.52,1.71-4.11,1.71-6.81s-.2-5.29-1.71-6.81Z"/>
        <path class="cls-5" d="M1108.71,85.2v-2.25c-1.81,1.81-3.53,2.55-6.61,2.55s-5.14-.73-6.66-2.25c-1.27-1.32-1.96-3.23-1.96-5.34,0-4.16,2.89-7.15,8.62-7.15h6.51v-1.76c0-3.18-1.52-4.65-5.44-4.65-2.64,0-4.01.69-5.43,2.45l-3.23-3.08c2.3-2.74,4.7-3.62,8.86-3.62,6.86,0,10.23,2.94,10.23,8.52v16.6h-4.9ZM1108.61,74.23h-5.73c-3.04,0-4.55,1.27-4.55,3.57s1.42,3.53,4.7,3.53c1.76,0,3.18-.2,4.5-1.42.78-.73,1.08-1.91,1.08-3.67v-2.01Z"/>
        <path class="cls-5" d="M1134.95,66.2c-1.13-1.13-2.01-1.67-3.72-1.67-2.69,0-4.95,2.15-4.95,5.58v15.08h-4.99v-24.83h4.9v2.69c1.27-1.76,3.82-2.99,6.61-2.99,2.4,0,4.21.64,5.92,2.35l-3.77,3.77Z"/>
        <path class="cls-5" d="M1157.04,85.2v-2.64c-1.86,2.25-3.87,2.94-6.56,2.94-2.5,0-4.7-.83-6.07-2.2-2.4-2.45-2.79-6.41-2.79-10.53s.39-8.03,2.79-10.48c1.37-1.37,3.53-2.2,6.02-2.2,2.64,0,4.7.64,6.51,2.79v-12.53h4.99v34.86h-4.9ZM1151.8,64.54c-4.55,0-5.19,3.82-5.19,8.23s.64,8.28,5.19,8.28,5.14-3.87,5.14-8.28-.64-8.23-5.14-8.23Z"/>
        <path class="cls-5" d="M1191.46,85.5c-5.24,0-8.96-1.22-12.34-4.6l3.48-3.48c2.55,2.55,5.44,3.38,8.96,3.38,4.6,0,7.2-1.96,7.2-5.39,0-1.57-.39-2.79-1.37-3.62-.88-.78-2.06-1.22-3.82-1.47l-4.11-.59c-2.84-.44-5.04-1.32-6.56-2.79-1.71-1.57-2.6-3.82-2.6-6.71,0-6.07,4.41-10.18,11.65-10.18,4.65,0,7.83,1.18,10.82,3.97l-3.33,3.33c-2.15-2.06-4.7-2.69-7.69-2.69-4.11,0-6.32,2.25-6.32,5.43,0,1.27.34,2.45,1.27,3.23.88.78,1.91,1.27,3.82,1.57l4.16.64c3.18.49,4.95,1.22,6.46,2.6,1.86,1.71,2.84,4.11,2.84,7.15,0,6.41-5.19,10.23-12.53,10.23Z"/>
        <path class="cls-5" d="M1218.3,90.15c-.49,1.37-1.08,2.35-1.81,3.08-1.37,1.37-3.18,1.81-5.09,1.81h-2.01v-4.5h1.27c2.1,0,2.84-.64,3.57-2.64l1.37-3.87-8.67-23.65h5.29l5.93,17.48,5.78-17.48h5.34l-10.97,29.77Z"/>
        <path class="cls-5" d="M1241.46,85.5c-4.06,0-7.49-.69-10.43-3.57l3.28-3.28c2.01,2.06,4.7,2.6,7.15,2.6,3.08,0,5.44-1.08,5.44-3.43,0-1.71-.93-2.69-3.33-2.94l-3.97-.34c-4.7-.44-7.34-2.5-7.34-6.86,0-4.9,4.16-7.59,9.35-7.59,3.77,0,6.9.78,9.2,2.79l-3.13,3.18c-1.57-1.32-3.77-1.81-6.12-1.81-3.04,0-4.5,1.27-4.5,3.18,0,1.71.98,2.6,3.43,2.84l3.48.29c5.14.44,7.83,2.69,7.83,7.05,0,5.19-4.41,7.88-10.33,7.88Z"/>
        <path class="cls-5" d="M1265.26,85.2c-4.65,0-6.81-3.33-6.81-6.9v-14.1h-2.84v-3.82h2.84v-7.1h4.99v7.1h4.8v3.82h-4.8v13.86c0,1.81.88,2.89,2.74,2.89h2.06v4.26h-2.99Z"/>
        <path class="cls-5" d="M1278.29,74.23c0,4.31,2.2,6.95,6.32,6.95,2.79,0,4.26-.78,6.02-2.55l3.18,2.99c-2.55,2.55-4.95,3.87-9.3,3.87-6.22,0-11.16-3.28-11.16-12.73,0-8.08,4.16-12.68,10.53-12.68s10.53,4.8,10.53,12.05v2.11h-16.11ZM1288.77,67.38c-.83-1.86-2.55-3.13-4.9-3.13s-4.11,1.27-4.95,3.13c-.49,1.08-.59,1.86-.64,3.38h11.16c-.1-1.52-.2-2.3-.69-3.38Z"/>
        <path class="cls-5" d="M1331.27,85.2v-15.13c0-3.87-2.2-5.53-4.99-5.53s-5.14,1.71-5.14,5.29v15.37h-4.99v-15.13c0-3.87-2.2-5.53-4.99-5.53s-5.14,1.71-5.14,5.53v15.13h-4.99v-24.83h4.9v2.5c1.67-1.81,4.11-2.79,6.61-2.79,3.08,0,5.48,1.22,7.05,3.62,2.01-2.45,4.5-3.62,7.79-3.62,2.55,0,4.8.83,6.27,2.25,1.91,1.86,2.64,4.21,2.64,7v15.86h-4.99Z"/>
      </g>
      <g>
        <path class="cls-5" d="M583.98,31.79h64.69c1.69,0,3.07,1.37,3.07,3.07v64.69c0,1.69-1.37,3.07-3.07,3.07h-64.69c-1.69,0-3.07-1.37-3.07-3.07V34.85c.01-1.69,1.38-3.06,3.07-3.06Z"/>
        <path class="cls-3" d="M651.7,66.56v32.99c0,1.69-1.37,3.07-3.07,3.07h-31.45l-27.68-27.71h7v.32l.06.68.16.66.26.61.33.52.44.51.48.41.57.35.63.28.64.15.7.06.7-.06.66-.15.6-.28.57-.35.5-.41.44-.51.35-.52.26-.61.16-.66.06-.68v-.32h19.25v.31l.06.68.16.66.26.6.35.55.42.51.48.42.55.33.63.26.66.17.7.06.7-.06.66-.17.61-.26.57-.33.5-.42.42-.51.35-.55.28-.6.15-.66.06-.68v-.31h10.35v-14.76l-.06-.76-.17-.74-.25-.68-.38-.66-.45-.57,9.81,9.81Z"/>
        <path class="cls-6" d="M643.12,59.4l-.17-.74-.25-.68-.38-.66-.45-.57-.52-.51-.6-.47-.63-.35-.71-.26-.74-.17-.79-.06h-45.18l-.31.06-.26.09-.23.2-.16.2-.12.26-2.14,10.7v8.47h7.02v.32l.06.68.16.66.26.61.33.52.44.51.48.41.57.35.63.28.64.15.7.06.7-.06.66-.15.6-.28.57-.35.5-.41.44-.51.35-.52.26-.61.16-.66.06-.68v-.32h19.25v.31l.06.68.16.66.26.6.35.55.42.51.48.42.55.33.63.26.66.17.7.06.7-.06.66-.17.61-.26.57-.33.5-.42.42-.51.35-.55.28-.6.15-.66.06-.68v-.31h10.35v-14.76l-.07-.76ZM597.08,71.07h-5.21v-4.37l2.01-9.41h3.2v13.77ZM608.02,64.54h-8.61v-7.24h8.61v7.24ZM618.97,64.54h-8.61v-7.24h8.61v7.24ZM629.89,64.54h-8.59v-7.24h8.59v7.24ZM640.8,64.52h-8.55v-7.22h5.65l.6.06.54.16.48.28.42.35.36.41.26.5.16.54.06.57v4.37h.01Z"/>
      </g>
    </g>
  </g>
</svg>