<?xml version="1.0" encoding="UTF-8"?>
<svg id="_レイヤー_1" data-name="レイヤー 1" xmlns="http://www.w3.org/2000/svg" xmlns:xlink="http://www.w3.org/1999/xlink" viewBox="0 0 1000 700">
  <defs>
    <style>
      .cls-1 {
        fill: #30bced;
      }

      .cls-1, .cls-2, .cls-3, .cls-4, .cls-5, .cls-6, .cls-7, .cls-8, .cls-9, .cls-10 {
        stroke-width: 0px;
      }

      .cls-2 {
        fill: #b8caba;
      }

      .cls-4 {
        fill: #989898;
      }

      .cls-5 {
        fill: none;
      }

      .cls-6 {
        fill: #040000;
      }

      .cls-7 {
        fill: #fff;
      }

      .cls-8 {
        fill: #cbcbcb;
      }

      .cls-11 {
        clip-path: url(#clippath);
      }

      .cls-9 {
        fill: #ff717e;
      }

      .cls-10 {
        fill: #31b96e;
      }
    </style>
    <clipPath id="clippath">
      <rect class="cls-5" width="1000" height="700"/>
    </clipPath>
  </defs>
  <g class="cls-11">
    <g>
      <rect class="cls-7" x="-55" y="-55" width="1099" height="860"/>
      <path class="cls-3" d="M1045,806H-56V-56h1101v862ZM-54,804h1097V-54H-54v858Z"/>
    </g>
    <polygon class="cls-2" points="367.25 0 0 254 0 0 367.25 0"/>
    <g>
      <g>
        <path class="cls-1" d="M413.39,616.51l-55.5-38c-2.04-1.39-3.26-3.7-3.26-6.17,0-2.47,1.2-4.78,3.23-6.19l153.73-106.34-83.14-57.5c-2.03-1.4-3.23-3.71-3.23-6.17s1.21-4.77,3.23-6.17l303.67-210.04-100.52-69.28,8.51-12.35,109.47,75.44c2.03,1.4,3.24,3.7,3.24,6.17s-1.21,4.77-3.23,6.17l-303.69,210.05,83.14,57.5c2.03,1.4,3.23,3.71,3.23,6.17s-1.21,4.77-3.23,6.17l-153.69,106.31,46.51,31.84-8.47,12.38Z"/>
        <path class="cls-10" d="M392.96,631.38l-77.62-53.27c-2.03-1.4-3.25-3.7-3.26-6.17s1.2-4.78,3.23-6.18l153.73-106.34-274.98-190.19c-2.03-1.4-3.23-3.71-3.23-6.17s1.21-4.77,3.23-6.17L506.68,40.68c2.57-1.78,5.97-1.77,8.53,0l111.53,77.14-8.53,12.34-107.26-74.19-299.43,207.09,274.98,190.19c2.03,1.4,3.23,3.71,3.23,6.17s-1.21,4.77-3.23,6.17l-153.7,106.31,68.65,47.11-8.49,12.37Z"/>
        <g>
          <rect class="cls-9" x="433.65" y="-71.95" width="391.32" height="15" transform="translate(148.39 346.52) rotate(-34.67)"/>
          <path class="cls-9" d="M371.26,645.83l-98.48-67.73c-2.03-1.4-3.25-3.7-3.25-6.17s1.21-4.78,3.23-6.18l153.73-106.34-274.98-190.19c-2.03-1.4-3.23-3.71-3.23-6.17s1.21-4.77,3.23-6.17L464.13,40.68c2.57-1.78,5.97-1.77,8.53,0l127.67,88.31-8.53,12.34-123.41-85.36-299.43,207.09,274.98,190.19c2.03,1.4,3.23,3.71,3.23,6.17s-1.21,4.77-3.23,6.17l-153.71,106.32,89.52,61.57-8.5,12.36Z"/>
        </g>
        <g>
          <rect class="cls-8" x="391.94" y="-64.75" width="381.82" height="6" transform="translate(138.62 320.59) rotate(-34.67)"/>
          <path class="cls-8" d="M352.62,657.1l-119.85-82.71c-.81-.56-1.3-1.48-1.3-2.47s.48-1.91,1.29-2.47l159.08-110.04L111.52,265.53c-.81-.56-1.29-1.48-1.29-2.47s.48-1.91,1.29-2.47L424.13,44.38l3.41,4.93L118.5,263.06l280.33,193.89c.81.56,1.29,1.48,1.29,2.47s-.48,1.91-1.29,2.47l-159.08,110.03,116.28,80.25-3.41,4.94Z"/>
        </g>
        <path class="cls-6" d="M564.64,166.9c-3.17,0-6.29-1.51-8.23-4.31-3.14-4.54-2.01-10.77,2.54-13.91l105.44-72.93c4.54-3.14,10.77-2.01,13.91,2.54s2.01,10.77-2.54,13.91l-105.44,72.93c-1.74,1.2-3.72,1.78-5.68,1.78Z"/>
        <path class="cls-6" d="M329.94,676c-3.17,0-6.29-1.51-8.23-4.31-3.14-4.54-2.01-10.77,2.54-13.91l105.44-72.93c4.54-3.14,10.77-2.01,13.91,2.54s2.01,10.77-2.54,13.91l-105.44,72.93c-1.74,1.2-3.72,1.78-5.68,1.78Z"/>
        <g>
          <path class="cls-3" d="M329.93,664.66H58.33c-.55,0-1-.45-1-1s.45-1,1-1h271.6c.55,0,1,.45,1,1s-.45,1-1,1Z"/>
          <g>
            <path class="cls-3" d="M77.02,631.3c1.33,2.72,3.19,5.36,5.57,7.92l-1.73,2.65c-1.56-1.92-2.84-3.97-3.84-6.15v18.95h-3.15v-19.68c-1.23,3.92-3.06,7.58-5.5,10.99l-1.5-3.65c2.95-3.66,5.27-8.17,6.96-13.53h-6.11v-3h6.15v-7.53h3.15v7.53h5.27v3h-5.27v2.5ZM90.31,618.92c-.44,2.97-1.2,5.93-2.31,8.88-1.23,3.25-2.73,6.03-4.5,8.34l-2.73-2.19c1.92-2.36,3.34-4.78,4.27-7.26.87-2.33,1.59-5.09,2.15-8.26l3.11.5ZM87.43,649.86h.15c5.25-.44,9.04-.82,11.38-1.15-1.15-2.92-2.42-5.6-3.8-8.03l2.65-1.34c1.31,2,2.55,4.33,3.73,6.99,1.08,2.49,1.92,4.83,2.54,7.03l-3.23,1.35c-.26-1.08-.55-2.15-.88-3.23-3.92.72-9.99,1.37-18.22,1.96l-.5-3.23c1.54-.05,2.55-.09,3.04-.12,1-2.43,2.01-5.39,3.04-8.88,1.02-3.41,1.79-6.5,2.31-9.26l3.23.65c-1.69,6.92-3.5,12.67-5.42,17.25ZM102.19,636.6c-1.77-2.02-3.31-4.75-4.61-8.19-1.15-3.07-1.99-6.23-2.5-9.45l3.11-.46c1.18,6.38,3.33,11.59,6.46,15.64l-2.46,2.46Z"/>
            <path class="cls-3" d="M123.52,627.19h30.17v14.14h-26.86c-.41,6.05-1.91,10.62-4.5,13.72l-2.77-2.54c1.41-1.82,2.4-3.83,2.96-6.03.67-2.56,1-4.85,1-6.88v-12.41ZM156.37,619.81v3.11h-36.51v-3.11h36.51ZM150.42,630.22h-23.44v8.03h23.44v-8.03Z"/>
            <path class="cls-3" d="M173.74,652.74l-2.11-1.04c.9-2.64,1.38-5.6,1.46-8.88l2.08.08c-.13,3.92-.6,7.2-1.42,9.84ZM189.54,619.46v2.61h-5.57v3.42h4.8v2.42h-4.8v3.57h4.8v2.46h-4.8v3.88h5.3c-.18,7.4-.81,12.25-1.88,14.53-.79,1.61-2.22,2.42-4.27,2.42h-4.42l-.58-2.96,4.5.08c.72,0,1.25-.14,1.61-.42,1.2-.92,1.9-4.62,2.08-11.11h-12.95v-20.91h16.18ZM178.47,650.17l-2.08.19c.08-1.1.12-2.25.12-3.46,0-1.41-.06-2.74-.19-4l1.77-.04c.23,2.74.36,5.18.38,7.3ZM181.16,622.08h-4.77v3.42h4.77v-3.42ZM181.16,627.92h-4.77v3.57h4.77v-3.57ZM181.16,633.95h-4.77v3.88h4.77v-3.88ZM181.89,649.17l-1.81.38c0-2.1-.22-4.32-.65-6.65l1.61-.23c.49,2.41.77,4.57.85,6.5ZM184.89,647.59l-1.61.38c-.18-2.02-.5-3.82-.96-5.38l1.54-.31c.49,1.72.83,3.48,1.04,5.3ZM192.15,619.46h15.6v16.49h-5.53c.56,6.17,2.95,11.49,7.15,15.95l-2.11,2.92c-4.54-4.74-7.19-11.03-7.96-18.87h-4.11v1.69c0,7.17-1.58,12.9-4.73,17.18l-2.42-2.31c2.74-3.77,4.11-8.78,4.11-15.03v-18.02ZM204.6,622.5h-9.42v10.45h9.42v-10.45Z"/>
          </g>
        </g>
        <g>
          <path class="cls-3" d="M941.67,82.63h-271.6c-.55,0-1-.45-1-1s.45-1,1-1h271.6c.55,0,1,.45,1,1s-.45,1-1,1Z"/>
          <g>
            <path class="cls-3" d="M702.54,38.13h29.9v33.74h-29.9v-33.74ZM705.96,53.19h23.02v-11.88h-23.02v11.88ZM705.96,56.34v12.41h23.02v-12.41h-23.02Z"/>
            <path class="cls-3" d="M754.84,45.93v-9.65h3.5v9.65h16.76v3.31h-16.18c1.2,5.18,3.04,9.27,5.5,12.3,2.61,3.18,6.37,5.78,11.26,7.8l-2.23,3.27c-5.23-2.46-9.24-5.6-12.03-9.42-1.95-2.64-3.42-5.79-4.42-9.45-.82,2.95-2.06,5.66-3.73,8.15-3.1,4.56-7.46,8.12-13.07,10.68l-1.88-3.38c5.05-2.02,8.93-4.84,11.64-8.45,2.33-3.13,3.88-6.96,4.65-11.49h-15.99v-3.31h16.22Z"/>
            <path class="cls-3" d="M784.2,37.78h3.19v7.3h7.61v-8.88h3.15v2.96h13.91v2.81h-13.91v3.11h16.29v2.81h-36.59v-2.81h6.34v-7.3ZM780.13,72.02v-22.52h3.15v19.68h25.59v-19.68h3.23v22.52h-31.97ZM793.24,58.03h-8.11v-2.65h9.49v-6.15h3v6.15h9.65v2.65h-8.3c2.33,2.43,5.11,4.42,8.34,5.96l-1.54,2.38c-3.13-1.61-5.84-3.66-8.15-6.15v7.49h-3v-7.49c-2.69,2.87-5.44,4.98-8.26,6.34l-1.38-2.38c2.95-1.31,5.7-3.36,8.26-6.15ZM789.78,49.12c.95,1.46,1.81,2.99,2.58,4.57l-2.84,1.04c-.67-1.54-1.46-3.06-2.38-4.57l2.65-1.04ZM805.46,50c-1.1,2.36-2.01,3.98-2.73,4.88l-2.69-1.04c.92-1.38,1.81-3.01,2.65-4.88l2.77,1.04Z"/>
            <path class="cls-3" d="M827.44,40.32v6.3h5.23v2.96h-5.23v.5c1.25,2.33,3.07,4.7,5.46,7.11l-1.84,2.81c-1.54-2-2.74-3.89-3.61-5.69v18.41h-3.07v-18.06c-1.56,3.69-3.65,7.02-6.26,9.99l-1.42-3.42c1.54-1.46,3.08-3.5,4.61-6.11,1.25-2.13,2.18-3.97,2.77-5.53h-6.69v-2.96h6.99v-5.84c-2.46.28-4.62.44-6.5.46l-.65-2.92c2.38-.03,4.97-.23,7.76-.62,2.46-.36,4.55-.83,6.26-1.42l1.46,2.88c-1.72.46-3.47.85-5.26,1.15ZM849.92,57.69l3.77-.81.42,3.15-4.19.88v11.8h-3.23v-11.14l-13.76,2.88-.42-3.11,14.18-2.96v-22.1h3.23v21.41ZM836.12,47.89c2.66,1.54,5.01,3.34,7.03,5.42l-2.23,2.46c-1.72-1.95-3.95-3.78-6.69-5.5l1.88-2.38ZM837.89,38.13c2.61,1.59,4.96,3.43,7.03,5.53l-2.19,2.5c-1.97-2.13-4.2-4.04-6.69-5.73l1.84-2.31Z"/>
            <path class="cls-3" d="M862.33,54.96c.03-1.15.04-1.78.04-1.88v-13.22h12.45v-3.54h3.23v3.54h14.95v2.92h-27.52v10.26c0,8.51-1.92,15.05-5.76,19.64l-2.54-2.42c1.69-2.08,2.92-4.27,3.69-6.57.51-1.51.9-3.28,1.15-5.3-1.25.72-3.09,1.63-5.5,2.73l-.54-3.46c2.02-.67,4.14-1.56,6.34-2.69ZM858.61,42.89c1.23,2.51,2.09,4.98,2.58,7.42l-2.92,1.04c-.33-2.23-1.08-4.69-2.23-7.38l2.58-1.08ZM880.28,53.23h11.34v16.41c0,2.02-.99,3.04-2.96,3.04h-4.76l-.54-3.15h3.46c.77,0,1.26-.1,1.46-.31.15-.21.23-.59.23-1.15v-12.18h-7.3c.72,1.87,1.74,3.51,3.07,4.92,1.08,1.15,2.42,2.27,4.04,3.34l-1.88,2.5c-3.41-2.74-5.8-5.66-7.19-8.76-.21.69-.4,1.24-.58,1.65-1.1,2.82-2.99,5.24-5.65,7.26l-1.84-2.54c3.02-2,4.96-4.79,5.8-8.38h-6.03v16.79h-3.11v-19.45h9.61c.15-1.15.25-2.55.31-4.19h-11.18v-2.81h26.44v2.81h-12.34c-.08,1.46-.21,2.86-.38,4.19Z"/>
            <path class="cls-3" d="M896.88,37.4h10.8v2.69c-.46,1.77-1,3.43-1.61,5-.26.72-.88,2.23-1.88,4.54,2.33,2.79,3.5,5.92,3.5,9.38,0,3.79-1.54,5.69-4.61,5.69h-1.92l-.5-3.11h2.04c1.33,0,2-1.04,2-3.11,0-1.38-.33-2.9-1-4.54-.59-1.46-1.42-2.86-2.5-4.19,1.59-3.38,2.7-6.55,3.34-9.49h-4.53v32.51h-3.11v-35.36ZM932.51,56.92h-8.11v11.26c0,.49.08.82.23,1,.15.21.45.31.88.31h2.15c.82,0,1.32-.27,1.5-.81.21-.67.36-2.16.46-4.5l3.07.77c-.21,3.1-.49,5.08-.84,5.96-.28.69-.78,1.15-1.5,1.38-.36.1-.95.15-1.77.15h-4.19c-.9,0-1.5-.06-1.81-.19-.64-.26-1.04-.81-1.19-1.65-.05-.26-.08-.88-.08-1.88v-11.8h-3.92c-.05,4.07-.95,7.44-2.69,10.11-1.69,2.56-4.34,4.43-7.96,5.61l-1.42-2.88c3.23-.95,5.53-2.54,6.92-4.77,1.31-2.08,1.96-4.77,1.96-8.07h-6.03v-2.96h24.33v2.96ZM918.44,36.28h3.19v3.65h9.95v8.22h-3.07v-5.3h-17.02v5.3h-3.04v-8.22h9.99v-3.65ZM927.82,49.65h-15.68v-2.84h15.68v2.84Z"/>
          </g>
        </g>
      </g>
      <g>
        <path class="cls-6" d="M709.42,426.5l-1.59-1.9c2.86-1.41,5.22-3.28,7.08-5.6l2.01,1.14c-.91,1.19-2.08,2.38-3.51,3.57-1.36,1.13-2.68,2.06-3.99,2.79ZM720.26,412.48c2.64-2.84,4.73-5.37,6.27-7.58l1.98,1.11c-1.17,1.65-2.67,3.5-4.49,5.55-1.34,1.5-2.48,2.7-3.43,3.59l1.98-.11,1.98-.11,5.16-.31c-.54-.76-1.24-1.65-2.09-2.68l1.95-1.14c2.02,2.3,3.72,4.72,5.07,7.25l-2.09,1.23c-.48-1.02-.98-1.93-1.5-2.73l-8.69.59v10.34h-2.37v-10.2c-2.56.07-4.5.14-5.8.2-3.03.11-5.08.18-6.16.19l-.17-2.2c.72,0,1.81-.02,3.26-.06,3.1-.07,5.27-.12,6.49-.14.43-.43.79-.8,1.09-1.11-2.64-2.34-5.12-4.12-7.44-5.35l1.37-1.73c1.02.54,1.98,1.12,2.87,1.76,1.04-1.26,2.02-2.65,2.93-4.15-2.42.13-5.36.21-8.83.22l-.5-2.17c10.53,0,18.2-.61,22.99-1.84l1,2.06c-3.57.84-7.52,1.37-11.87,1.59-1.19,1.99-2.53,3.82-4.01,5.49,1.23.89,2.25,1.71,3.07,2.45ZM733.08,426.78c-3.03-1.82-5.56-4.03-7.61-6.63l1.84-1.23c1.67,2.23,4.11,4.21,7.33,5.94l-1.56,1.92Z"/>
        <path class="cls-6" d="M741.33,409.17l.06-.08c1.17-1.84,2.2-3.57,3.09-5.18l2.09.84c-1.91,3.23-3.77,6.04-5.57,8.42,1.62-.07,2.83-.15,3.65-.22-.33-.78-.6-1.37-.81-1.78l1.81-.81c.84,1.62,1.58,3.33,2.23,5.13l-2.03.81c-.28-.78-.46-1.29-.53-1.53-.56.07-1.34.16-2.34.25v12.46h-2.2v-12.29c-1.39.09-2.91.17-4.54.22l-.17-2.06c.48,0,1.28-.03,2.4-.08.65-.82,1.19-1.54,1.62-2.17-1.02-1.21-2.42-2.51-4.18-3.9l1.2-1.78c.46.35.81.62,1.03.81,1.21-1.8,2.16-3.52,2.84-5.16l2.09.78c-1.15,2.4-2.26,4.33-3.32,5.8.65.61,1.18,1.13,1.59,1.56ZM739.49,417.53c-.24,3.05-.72,5.69-1.42,7.94l-2.09-.75c.78-2.3,1.25-4.81,1.42-7.52l2.09.33ZM746.01,417.02c.69,1.69,1.15,3.59,1.39,5.68l-2.09.47c-.13-1.84-.5-3.72-1.11-5.66l1.81-.5ZM752.98,414.79c-.11,4.27-.76,7.27-1.95,9-1.02,1.5-2.54,2.72-4.54,3.65l-1.39-1.95c2.01-.84,3.44-1.97,4.29-3.4.87-1.41,1.33-3.85,1.37-7.3h2.23ZM751.95,411.34h.11c3.21-.17,5.59-.32,7.13-.47-.69-.95-1.51-1.91-2.48-2.9l1.9-1.14c1.82,1.8,3.37,3.9,4.65,6.3l-2.06,1.2c-.28-.61-.54-1.13-.78-1.56-4.61.46-8.81.77-12.62.92l-.22-2.2c1.15-.04,1.82-.06,2.01-.06.98-1.67,1.78-3.51,2.4-5.52h-4.85v-2.17h6.69v-2.7h2.34v2.7h6.77v2.17h-8.47c-.74,1.89-1.58,3.71-2.51,5.43ZM758.19,414.79v9.59c0,.41.24.61.72.61h1.11c.43,0,.67-.29.72-.86.04-.41.06-1.65.08-3.73l2.15.72c0,2.51-.12,4.11-.36,4.79-.3.85-.97,1.28-2.01,1.28h-2.7c-1.32,0-1.98-.63-1.98-1.9v-10.51h2.26Z"/>
        <path class="cls-6" d="M781.04,419.53c2.71,2.42,6.25,4.12,10.62,5.13l-1.25,2.31c-2.38-.72-4.39-1.56-6.05-2.51-1.88-1.08-3.53-2.38-4.96-3.9v6.94h-2.34v-6.85c-1.15,1.19-2.58,2.31-4.29,3.37-2.16,1.34-4.39,2.35-6.72,3.04l-1.03-2.23c4.5-1.32,7.98-3.08,10.45-5.29h-10.39v-1.95h11.98v-2.06h2.34v2.06h12.09v1.95h-10.45ZM777.2,407.05h10.5v1.78h-2.42c-.82,1.41-1.86,2.61-3.12,3.59,1.56.37,4.08,1.13,7.55,2.29l-1.5,2.01c-2.58-1.08-5.39-2.02-8.42-2.84-.58.28-1.13.5-1.67.67-3.23,1.02-6.8,1.64-10.7,1.84l-.61-2.12c3.7-.13,6.9-.54,9.61-1.23-2.3-.52-4.38-.94-6.21-1.25.93-.84,1.87-1.82,2.81-2.95h-4.04v-1.78h5.49c.59-.78,1.07-1.46,1.42-2.03h-7.86v3.73h-2.34v-5.74h11.37v-1.98h2.42v1.98h11.42v5.74h-2.34v-3.73h-10.06c-.33.61-.77,1.29-1.31,2.03ZM775.77,408.83c-.56.67-1.14,1.32-1.75,1.95,2.23.35,4.07.69,5.52,1,1.11-.67,2.17-1.65,3.18-2.95h-6.94Z"/>
        <path class="cls-6" d="M805.62,405.18v-4.15h2.4v4.15h10.7v19.87c0,1.62-.79,2.42-2.37,2.42h-4.85l-.39-2.4,4.46.03c.52,0,.78-.24.78-.72v-16.97h-8.19c.32,2.1.99,3.94,2.03,5.52,1.38,2.12,3.34,4.01,5.91,5.69l-1.56,2.01c-1.93-1.47-3.56-3.03-4.88-4.68-1.15-1.43-2.09-3.12-2.81-5.07-.84,2.02-1.77,3.73-2.81,5.1-1.36,1.78-3.04,3.29-5.04,4.51l-1.45-2.06c4.51-2.41,7.14-6.08,7.89-11.01h-8.17v20.06h-2.4v-22.29h10.76Z"/>
        <path class="cls-1" d="M594.27,458.09c.97,1.97,2.31,3.88,4.04,5.74l-1.25,1.92c-1.13-1.39-2.06-2.88-2.79-4.46v13.74h-2.29v-14.27c-.89,2.84-2.22,5.5-3.98,7.97l-1.09-2.65c2.14-2.66,3.82-5.93,5.04-9.81h-4.43v-2.17h4.46v-5.46h2.29v5.46h3.82v2.17h-3.82v1.81ZM603.91,449.11c-.32,2.16-.87,4.3-1.67,6.44-.89,2.36-1.98,4.38-3.26,6.05l-1.98-1.59c1.39-1.71,2.42-3.46,3.09-5.27.63-1.69,1.15-3.69,1.56-5.99l2.26.36ZM601.82,471.55h.11c3.81-.32,6.56-.59,8.25-.84-.84-2.12-1.76-4.06-2.76-5.82l1.92-.98c.95,1.45,1.85,3.14,2.7,5.07.78,1.8,1.39,3.5,1.84,5.1l-2.34.98c-.19-.78-.4-1.56-.64-2.34-2.84.52-7.25.99-13.21,1.42l-.36-2.34c1.11-.04,1.85-.06,2.2-.08.72-1.76,1.46-3.91,2.2-6.44.74-2.47,1.3-4.71,1.67-6.72l2.34.47c-1.23,5.02-2.54,9.19-3.93,12.51ZM612.53,461.93c-1.28-1.47-2.4-3.45-3.34-5.94-.84-2.23-1.44-4.51-1.81-6.85l2.26-.33c.85,4.63,2.41,8.41,4.68,11.34l-1.78,1.78Z"/>
        <path class="cls-1" d="M618.49,455.11h21.87v10.25h-19.48c-.3,4.38-1.38,7.7-3.26,9.95l-2.01-1.84c1.02-1.32,1.74-2.78,2.15-4.38.48-1.86.72-3.52.72-4.99v-9ZM642.31,449.76v2.26h-26.47v-2.26h26.47ZM638,457.31h-17v5.82h17v-5.82Z"/>
        <path class="cls-1" d="M663.72,460.21c.5.21.97.47,1.42.81,1.76,1.3,2.65,3.03,2.65,5.18,0,1.97-.75,3.62-2.26,4.96-1.52,1.34-3.39,2.01-5.6,2.01s-4.08-.67-5.6-2.01-2.29-2.99-2.29-4.96c0-2.27.96-4.05,2.87-5.35.37-.26.77-.47,1.2-.64-.26-.13-.48-.27-.67-.42-1.39-1.02-2.09-2.46-2.09-4.32,0-1.58.55-2.9,1.64-3.96,1.17-1.15,2.81-1.73,4.93-1.73,1.43,0,2.72.32,3.87.95.95.52,1.66,1.31,2.15,2.37.35.72.53,1.51.53,2.37,0,1.86-.7,3.3-2.09,4.32-.19.15-.41.29-.67.42ZM659.93,461.68c-1.56,0-2.81.4-3.73,1.2-.98.87-1.48,1.97-1.48,3.29s.5,2.38,1.5,3.23c.98.87,2.24,1.31,3.76,1.31,1.43,0,2.65-.44,3.65-1.31.98-.87,1.48-1.95,1.48-3.23s-.49-2.41-1.48-3.29c-.93-.8-2.16-1.2-3.71-1.2ZM659.93,452.12c-1.23,0-2.2.34-2.93,1.03-.67.63-1,1.45-1,2.45s.33,1.87,1,2.54c.69.67,1.68,1,2.98,1,1.21,0,2.16-.33,2.84-1,.67-.65,1-1.5,1-2.54s-.33-1.84-1-2.45c-.74-.69-1.71-1.03-2.9-1.03Z"/>
        <path class="cls-1" d="M673.41,453.66l5.02-3.43h2.4v22.49h-2.73v-19.51l-4.32,2.98-.36-2.54Z"/>
        <path class="cls-1" d="M697.82,474.11l-1.59-1.9c2.86-1.41,5.22-3.28,7.08-5.6l2.01,1.14c-.91,1.19-2.08,2.38-3.51,3.57-1.36,1.13-2.68,2.06-3.99,2.79ZM708.66,460.09c2.64-2.84,4.73-5.37,6.27-7.58l1.98,1.11c-1.17,1.65-2.67,3.5-4.49,5.55-1.34,1.5-2.48,2.7-3.43,3.59l1.98-.11,1.98-.11,5.16-.31c-.54-.76-1.24-1.65-2.09-2.68l1.95-1.14c2.02,2.3,3.72,4.72,5.07,7.25l-2.09,1.23c-.48-1.02-.98-1.93-1.5-2.73l-8.69.59v10.34h-2.37v-10.2c-2.56.07-4.5.14-5.8.2-3.03.11-5.08.18-6.16.19l-.17-2.2c.72,0,1.81-.02,3.26-.06,3.1-.07,5.27-.12,6.49-.14.43-.43.79-.8,1.09-1.11-2.64-2.34-5.12-4.12-7.44-5.35l1.37-1.73c1.02.54,1.98,1.12,2.87,1.76,1.04-1.26,2.02-2.65,2.93-4.15-2.42.13-5.36.21-8.83.22l-.5-2.17c10.53,0,18.2-.61,22.99-1.84l1,2.06c-3.57.84-7.52,1.37-11.87,1.59-1.19,1.99-2.53,3.82-4.01,5.49,1.23.89,2.25,1.71,3.07,2.45ZM721.48,474.39c-3.03-1.82-5.56-4.03-7.61-6.63l1.84-1.23c1.67,2.23,4.11,4.21,7.33,5.94l-1.56,1.92Z"/>
        <path class="cls-1" d="M729.73,456.78l.06-.08c1.17-1.84,2.2-3.57,3.09-5.18l2.09.84c-1.91,3.23-3.77,6.04-5.57,8.42,1.62-.07,2.83-.15,3.65-.22-.33-.78-.6-1.37-.81-1.78l1.81-.81c.84,1.62,1.58,3.33,2.23,5.13l-2.03.81c-.28-.78-.46-1.29-.53-1.53-.56.07-1.34.16-2.34.25v12.46h-2.2v-12.29c-1.39.09-2.91.17-4.54.22l-.17-2.06c.48,0,1.28-.03,2.4-.08.65-.82,1.19-1.54,1.62-2.17-1.02-1.21-2.42-2.51-4.18-3.9l1.2-1.78c.46.35.81.62,1.03.81,1.21-1.8,2.16-3.52,2.84-5.16l2.09.78c-1.15,2.4-2.26,4.33-3.32,5.8.65.61,1.18,1.13,1.59,1.56ZM727.89,465.14c-.24,3.05-.72,5.69-1.42,7.94l-2.09-.75c.78-2.3,1.25-4.81,1.42-7.52l2.09.33ZM734.41,464.64c.69,1.69,1.15,3.59,1.39,5.68l-2.09.47c-.13-1.84-.5-3.72-1.11-5.66l1.81-.5ZM741.38,462.41c-.11,4.27-.76,7.27-1.95,9-1.02,1.5-2.54,2.72-4.54,3.65l-1.39-1.95c2.01-.84,3.44-1.97,4.29-3.4.87-1.41,1.33-3.85,1.37-7.3h2.23ZM740.35,458.95h.11c3.21-.17,5.59-.32,7.13-.47-.69-.95-1.51-1.91-2.48-2.9l1.9-1.14c1.82,1.8,3.37,3.9,4.65,6.3l-2.06,1.2c-.28-.61-.54-1.13-.78-1.56-4.61.46-8.81.77-12.62.92l-.22-2.2c1.15-.04,1.82-.06,2.01-.06.98-1.67,1.78-3.51,2.4-5.52h-4.85v-2.17h6.69v-2.7h2.34v2.7h6.77v2.17h-8.47c-.74,1.89-1.58,3.71-2.51,5.43ZM746.59,462.41v9.59c0,.41.24.61.72.61h1.11c.43,0,.67-.29.72-.86.04-.41.06-1.65.08-3.73l2.15.72c0,2.51-.12,4.11-.36,4.79-.3.85-.97,1.28-2.01,1.28h-2.7c-1.32,0-1.98-.63-1.98-1.9v-10.51h2.26Z"/>
        <path class="cls-1" d="M767.01,461.63l10.59,5.23-.61,1.25-12.87-6.47,12.87-6.49.61,1.25-10.59,5.24Z"/>
        <path class="cls-1" d="M785.73,467.6c-1.59.6-3.2,1.12-4.84,1.56l-.44-1.53c.72-.18,1.73-.45,3.02-.82,1.02-.3,1.77-.54,2.26-.72v-6.61h-5.19v-1.46h5.19v-4.47h1.51v16.66h-1.51v-2.61ZM789.76,453.55h1.53v5.77c1.81-1.01,3.39-2.1,4.72-3.3l1.04,1.28c-1.52,1.27-3.44,2.5-5.75,3.68v6.89c0,.2.04.33.11.4.08.1.26.16.54.16h2.75c.33,0,.54-.06.65-.19.26-.27.39-1.34.39-3.21l1.51.53c-.11,1.85-.25,3-.44,3.46-.25.61-.75.91-1.53.91h-3.98c-1.02,0-1.53-.44-1.53-1.32v-15.07Z"/>
        <path class="cls-1" d="M802.83,459.49c.61,1.24,1.46,2.44,2.54,3.61l-.79,1.21c-.71-.88-1.3-1.81-1.75-2.81v8.65h-1.44v-8.98c-.56,1.79-1.4,3.46-2.51,5.02l-.68-1.67c1.34-1.67,2.4-3.73,3.17-6.17h-2.79v-1.37h2.81v-3.44h1.44v3.44h2.4v1.37h-2.4v1.14ZM808.9,453.84c-.2,1.36-.55,2.71-1.05,4.05-.56,1.49-1.25,2.75-2.05,3.81l-1.25-1c.88-1.08,1.53-2.18,1.95-3.31.4-1.06.72-2.32.98-3.77l1.42.23ZM807.58,467.96h.07c2.4-.2,4.13-.37,5.19-.53-.53-1.33-1.1-2.56-1.74-3.67l1.21-.61c.6.91,1.16,1.98,1.7,3.19.49,1.13.88,2.2,1.16,3.21l-1.47.61c-.12-.49-.25-.98-.4-1.47-1.79.33-4.56.63-8.31.89l-.23-1.47c.7-.02,1.16-.04,1.39-.05.46-1.11.92-2.46,1.39-4.05.47-1.56.82-2.96,1.05-4.23l1.47.3c-.77,3.16-1.6,5.78-2.47,7.88ZM814.32,461.91c-.81-.92-1.51-2.17-2.1-3.74-.53-1.4-.91-2.84-1.14-4.31l1.42-.21c.54,2.91,1.52,5.29,2.95,7.14l-1.12,1.12Z"/>
        <path class="cls-1" d="M818.07,457.62h13.77v6.45h-12.26c-.19,2.76-.87,4.85-2.05,6.26l-1.26-1.16c.64-.83,1.09-1.75,1.35-2.75.3-1.17.46-2.22.46-3.14v-5.67ZM833.07,454.25v1.42h-16.66v-1.42h16.66ZM830.35,459h-10.7v3.67h10.7v-3.67Z"/>
        <path class="cls-1" d="M835.01,469.28l-.96-.47c.41-1.2.63-2.56.67-4.05l.95.03c-.06,1.79-.28,3.29-.65,4.49ZM842.22,454.09v1.19h-2.54v1.56h2.19v1.1h-2.19v1.63h2.19v1.12h-2.19v1.77h2.42c-.08,3.38-.37,5.59-.86,6.63-.36.74-1.01,1.1-1.95,1.1h-2.02l-.26-1.35,2.05.04c.33,0,.57-.06.74-.19.55-.42.87-2.11.95-5.07h-5.91v-9.54h7.38ZM837.17,468.1l-.95.09c.04-.5.05-1.03.05-1.58,0-.64-.03-1.25-.09-1.82l.81-.02c.1,1.25.16,2.36.17,3.33ZM838.4,455.28h-2.18v1.56h2.18v-1.56ZM838.4,457.95h-2.18v1.63h2.18v-1.63ZM838.4,460.7h-2.18v1.77h2.18v-1.77ZM838.73,467.65l-.82.18c0-.96-.1-1.97-.3-3.03l.74-.1c.22,1.1.35,2.09.39,2.96ZM840.1,466.93l-.74.18c-.08-.92-.23-1.74-.44-2.46l.7-.14c.22.78.38,1.59.47,2.42ZM843.41,454.09h7.12v7.52h-2.53c.26,2.82,1.34,5.24,3.26,7.28l-.96,1.33c-2.07-2.16-3.28-5.03-3.63-8.61h-1.88v.77c0,3.27-.72,5.89-2.16,7.84l-1.1-1.05c1.25-1.72,1.88-4,1.88-6.86v-8.23ZM849.1,455.48h-4.3v4.77h4.3v-4.77Z"/>
        <path class="cls-1" d="M854.97,454.23h6.54v.72c0,4.89,1.49,8.69,4.47,11.42.92.85,2.01,1.62,3.26,2.3l-1.05,1.46c-4.16-2.55-6.65-5.92-7.47-10.12-.48,2.14-1.23,3.95-2.26,5.42-1.27,1.82-3.07,3.4-5.38,4.72l-1-1.42c1.65-.78,3.02-1.75,4.1-2.91,1.98-2.07,3.16-4.57,3.54-7.51.09-.63.14-1.48.14-2.56h-4.89v-1.51Z"/>
        <path class="cls-1" d="M885.84,454.84v14.82h-14.44v-14.82h14.44ZM884.28,456.33h-11.31v11.86h11.31v-11.86Z"/>
        <path class="cls-1" d="M891.35,458.74c.68-.99,1.34-2.12,2-3.37l1.26.58c-1.19,2.12-2.34,3.88-3.46,5.3.35-.01,1.07-.05,2.16-.1-.15-.47-.29-.85-.4-1.14l1.12-.42c.47,1.05.79,2.06.98,3.03l-1.25.42c-.04-.27-.08-.5-.12-.7-.32.05-.73.08-1.23.11v7.77h-1.39v-7.68l-1.21.05-1.21.07-.42.04-.12-1.39c.55,0,1.04,0,1.47-.02.22-.28.56-.74,1.02-1.39-.87-1.01-1.71-1.81-2.54-2.4l.72-1.12c.28.2.48.35.6.44.67-.97,1.26-2.06,1.79-3.28l1.32.49c-.71,1.5-1.42,2.72-2.1,3.67.49.47.83.82,1.02,1.05ZM890.25,464.02c-.13,1.98-.42,3.64-.88,5l-1.3-.49c.46-1.29.75-2.85.88-4.7l1.3.19ZM894.37,463.63c.42,1.22.69,2.46.81,3.72l-1.26.23c-.09-1.1-.33-2.29-.7-3.56l1.16-.39ZM904.19,463.81v1.39h-3.67v2.96h4.4v1.35h-10.37v-1.35h4.51v-2.96h-3.51v-1.39h3.51v-1.93h1.46v1.93h3.67ZM900.95,459.58c1.17.71,2.58,1.25,4.25,1.61l-.54,1.42c-2.07-.56-3.7-1.27-4.88-2.14-1.32.9-2.68,1.61-4.09,2.12l-.74-1.32c1.3-.47,2.52-1.05,3.67-1.75-.87-.85-1.68-1.93-2.46-3.23l1.19-.56c.78,1.27,1.6,2.26,2.44,2.96,1.05-.88,1.91-1.93,2.58-3.16h-7.17v-1.3h8.74v1.28c-.58,1.51-1.58,2.86-2.98,4.05Z"/>
        <path class="cls-1" d="M915.26,456.25h6.74v13.59h-14.87v-13.59h6.63v-2.72h1.51v2.72ZM913.75,457.69h-5.14v4.53h5.14v-4.53ZM913.75,463.6h-5.14v4.81h5.14v-4.81ZM920.5,457.69h-5.25v4.53h5.25v-4.53ZM920.5,463.6h-5.25v4.81h5.25v-4.81Z"/>
        <path class="cls-1" d="M936.38,461.63l-10.59-5.24.61-1.25,12.87,6.49-12.87,6.47-.61-1.25,10.59-5.23Z"/>
        <path class="cls-10" d="M594.27,505.7c.97,1.97,2.31,3.88,4.04,5.74l-1.25,1.92c-1.13-1.39-2.06-2.88-2.79-4.46v13.74h-2.29v-14.27c-.89,2.84-2.22,5.5-3.98,7.97l-1.09-2.65c2.14-2.66,3.82-5.93,5.04-9.81h-4.43v-2.17h4.46v-5.46h2.29v5.46h3.82v2.17h-3.82v1.81ZM603.91,496.73c-.32,2.16-.87,4.3-1.67,6.44-.89,2.36-1.98,4.38-3.26,6.05l-1.98-1.59c1.39-1.71,2.42-3.46,3.09-5.27.63-1.69,1.15-3.69,1.56-5.99l2.26.36ZM601.82,519.16h.11c3.81-.32,6.56-.59,8.25-.84-.84-2.12-1.76-4.06-2.76-5.82l1.92-.98c.95,1.45,1.85,3.14,2.7,5.07.78,1.8,1.39,3.5,1.84,5.1l-2.34.98c-.19-.78-.4-1.56-.64-2.34-2.84.52-7.25.99-13.21,1.42l-.36-2.34c1.11-.04,1.85-.06,2.2-.08.72-1.76,1.46-3.91,2.2-6.44.74-2.47,1.3-4.71,1.67-6.72l2.34.47c-1.23,5.02-2.54,9.19-3.93,12.51ZM612.53,509.54c-1.28-1.47-2.4-3.45-3.34-5.94-.84-2.23-1.44-4.51-1.81-6.85l2.26-.33c.85,4.63,2.41,8.41,4.68,11.34l-1.78,1.78Z"/>
        <path class="cls-10" d="M618.49,502.72h21.87v10.25h-19.48c-.3,4.38-1.38,7.7-3.26,9.95l-2.01-1.84c1.02-1.32,1.74-2.78,2.15-4.38.48-1.86.72-3.52.72-4.99v-9ZM642.31,497.37v2.26h-26.47v-2.26h26.47ZM638,504.92h-17v5.82h17v-5.82Z"/>
        <path class="cls-10" d="M663.72,507.82c.5.2.97.47,1.42.81,1.76,1.3,2.65,3.03,2.65,5.18,0,1.97-.75,3.62-2.26,4.96-1.52,1.34-3.39,2.01-5.6,2.01s-4.08-.67-5.6-2.01-2.29-2.99-2.29-4.96c0-2.27.96-4.05,2.87-5.35.37-.26.77-.47,1.2-.64-.26-.13-.48-.27-.67-.42-1.39-1.02-2.09-2.46-2.09-4.32,0-1.58.55-2.9,1.64-3.96,1.17-1.15,2.81-1.73,4.93-1.73,1.43,0,2.72.32,3.87.95.95.52,1.66,1.31,2.15,2.37.35.72.53,1.51.53,2.37,0,1.86-.7,3.3-2.09,4.32-.19.15-.41.29-.67.42ZM659.93,509.29c-1.56,0-2.81.4-3.73,1.2-.98.87-1.48,1.97-1.48,3.29s.5,2.38,1.5,3.23c.98.87,2.24,1.31,3.76,1.31,1.43,0,2.65-.44,3.65-1.31.98-.87,1.48-1.95,1.48-3.23s-.49-2.42-1.48-3.29c-.93-.8-2.16-1.2-3.71-1.2ZM659.93,499.74c-1.23,0-2.2.34-2.93,1.03-.67.63-1,1.45-1,2.45s.33,1.87,1,2.54c.69.67,1.68,1,2.98,1,1.21,0,2.16-.33,2.84-1,.67-.65,1-1.5,1-2.54s-.33-1.84-1-2.45c-.74-.69-1.71-1.03-2.9-1.03Z"/>
        <path class="cls-10" d="M672.02,500.88c1.75-2.34,4.01-3.51,6.8-3.51,2.25,0,4.05.74,5.41,2.23,1,1.1,1.5,2.53,1.5,4.29,0,1.56-.42,3.04-1.25,4.43-1.32,2.27-3.97,5.45-7.94,9.56h10.2v2.45h-16.11c3.51-3.49,6.19-6.31,8.03-8.44,1.49-1.73,2.53-3.07,3.12-4.04.84-1.37,1.25-2.68,1.25-3.93,0-1.34-.46-2.39-1.37-3.15-.78-.63-1.73-.95-2.84-.95-2.38,0-4.28,1.3-5.71,3.9l-1.09-2.84Z"/>
        <path class="cls-10" d="M697.82,521.72l-1.59-1.9c2.86-1.41,5.22-3.28,7.08-5.6l2.01,1.14c-.91,1.19-2.08,2.38-3.51,3.57-1.36,1.13-2.68,2.06-3.99,2.79ZM708.66,507.71c2.64-2.84,4.73-5.37,6.27-7.58l1.98,1.11c-1.17,1.65-2.67,3.5-4.49,5.55-1.34,1.5-2.48,2.7-3.43,3.59l1.98-.11,1.98-.11,5.16-.31c-.54-.76-1.24-1.65-2.09-2.68l1.95-1.14c2.02,2.3,3.72,4.72,5.07,7.25l-2.09,1.23c-.48-1.02-.98-1.93-1.5-2.73l-8.69.58v10.34h-2.37v-10.2c-2.56.07-4.5.14-5.8.19-3.03.11-5.08.18-6.16.2l-.17-2.2c.72,0,1.81-.02,3.26-.06,3.1-.07,5.27-.12,6.49-.14.43-.43.79-.8,1.09-1.11-2.64-2.34-5.12-4.12-7.44-5.35l1.37-1.73c1.02.54,1.98,1.12,2.87,1.75,1.04-1.26,2.02-2.65,2.93-4.15-2.42.13-5.36.2-8.83.22l-.5-2.17c10.53,0,18.2-.61,22.99-1.84l1,2.06c-3.57.84-7.52,1.37-11.87,1.59-1.19,1.99-2.53,3.82-4.01,5.49,1.23.89,2.25,1.71,3.07,2.45ZM721.48,522c-3.03-1.82-5.56-4.03-7.61-6.63l1.84-1.23c1.67,2.23,4.11,4.21,7.33,5.94l-1.56,1.92Z"/>
        <path class="cls-10" d="M729.73,504.39l.06-.08c1.17-1.84,2.2-3.57,3.09-5.18l2.09.84c-1.91,3.23-3.77,6.04-5.57,8.42,1.62-.07,2.83-.15,3.65-.22-.33-.78-.6-1.37-.81-1.78l1.81-.81c.84,1.62,1.58,3.33,2.23,5.13l-2.03.81c-.28-.78-.46-1.29-.53-1.53-.56.07-1.34.16-2.34.25v12.46h-2.2v-12.29c-1.39.09-2.91.17-4.54.22l-.17-2.06c.48,0,1.28-.03,2.4-.08.65-.82,1.19-1.54,1.62-2.17-1.02-1.21-2.42-2.51-4.18-3.9l1.2-1.78c.46.35.81.62,1.03.81,1.21-1.8,2.16-3.52,2.84-5.16l2.09.78c-1.15,2.4-2.26,4.33-3.32,5.8.65.61,1.18,1.13,1.59,1.56ZM727.89,512.75c-.24,3.05-.72,5.69-1.42,7.94l-2.09-.75c.78-2.3,1.25-4.81,1.42-7.52l2.09.33ZM734.41,512.25c.69,1.69,1.15,3.58,1.39,5.68l-2.09.47c-.13-1.84-.5-3.72-1.11-5.66l1.81-.5ZM741.38,510.02c-.11,4.27-.76,7.27-1.95,9-1.02,1.5-2.54,2.72-4.54,3.65l-1.39-1.95c2.01-.84,3.44-1.97,4.29-3.4.87-1.41,1.33-3.85,1.37-7.3h2.23ZM740.35,506.56h.11c3.21-.17,5.59-.33,7.13-.47-.69-.95-1.51-1.91-2.48-2.9l1.9-1.14c1.82,1.8,3.37,3.9,4.65,6.3l-2.06,1.2c-.28-.61-.54-1.13-.78-1.56-4.61.46-8.81.77-12.62.92l-.22-2.2c1.15-.04,1.82-.06,2.01-.06.98-1.67,1.78-3.51,2.4-5.52h-4.85v-2.17h6.69v-2.7h2.34v2.7h6.77v2.17h-8.47c-.74,1.9-1.58,3.71-2.51,5.43ZM746.59,510.02v9.59c0,.41.24.61.72.61h1.11c.43,0,.67-.29.72-.86.04-.41.06-1.65.08-3.73l2.15.72c0,2.51-.12,4.11-.36,4.79-.3.85-.97,1.28-2.01,1.28h-2.7c-1.32,0-1.98-.63-1.98-1.89v-10.51h2.26Z"/>
        <path class="cls-10" d="M767.01,509.24l10.59,5.23-.61,1.25-12.87-6.47,12.87-6.49.61,1.25-10.59,5.24Z"/>
        <path class="cls-10" d="M780.5,503.88h7.56v-2.75h1.56v2.75h7.56v1.46h-7.56v3.44h5.77v8.61h-13.1v-8.61h5.77v-3.44h-7.56v-1.46ZM783.8,510.16v5.84h10.1v-5.84h-10.1Z"/>
        <path class="cls-10" d="M809.4,508.84c-.11,2.26-.67,4.09-1.68,5.51-1.05,1.44-2.71,2.42-4.96,2.95l-.7-1.26c2.2-.42,3.75-1.32,4.67-2.7.72-1.09,1.13-2.58,1.21-4.49h-3.74c-.68,1.27-1.58,2.33-2.7,3.17l-1.07-1.04c1.1-.79,1.93-1.72,2.49-2.77.41-.79.74-1.93,1-3.42l1.56.11c-.19.92-.42,1.78-.7,2.56h8.19v1.39h-3.56Z"/>
        <path class="cls-10" d="M816.77,503.63h1.25v11.58h1.07v-14.07h1.23v14.07h1.1v-11.58h1.21v12.94h-5.86v-12.94ZM828.44,502.7h4.26v1.3h-3.42c.54.7,1.03,1.23,1.47,1.58.54.4,1.26.74,2.17,1.04l-.6,1.33c-1.53-.58-2.75-1.48-3.67-2.68-.26-.35-.47-.7-.65-1.05-.23.54-.5.99-.79,1.35-.75.97-1.87,1.75-3.37,2.35l-.72-1.3c1.79-.61,2.95-1.48,3.49-2.61h-3.28v-1.3h3.67c.08-.42.13-.94.14-1.56h1.44c-.02.57-.08,1.09-.16,1.56ZM833.1,508.26v1.3h-1.1v6.91c0,.49-.1.84-.3,1.03-.22.21-.58.32-1.07.32h-2.53l-.25-1.42,2.16.02c.22,0,.38-.05.47-.14.06-.07.09-.25.09-.54v-6.17h-7.4v-1.3h9.93ZM829.1,510.67v4.75h-5.14v-4.75h5.14ZM827.84,511.86h-2.58v2.35h2.58v-2.35Z"/>
        <path class="cls-10" d="M837.47,506.35c.68-.99,1.34-2.12,2-3.37l1.26.58c-1.19,2.12-2.34,3.88-3.46,5.3.35-.01,1.07-.05,2.16-.11-.15-.47-.29-.85-.4-1.14l1.12-.42c.47,1.05.79,2.06.98,3.04l-1.25.42c-.04-.27-.08-.5-.12-.7-.32.05-.73.08-1.23.11v7.77h-1.39v-7.68l-1.21.05-1.21.07-.42.03-.12-1.38c.55,0,1.04,0,1.47-.02.22-.28.56-.74,1.02-1.39-.87-1.01-1.71-1.81-2.54-2.4l.72-1.12c.28.2.48.34.6.44.67-.97,1.26-2.06,1.79-3.28l1.32.49c-.71,1.5-1.42,2.72-2.1,3.67.49.47.83.82,1.02,1.05ZM836.36,511.63c-.13,1.98-.42,3.64-.88,5l-1.3-.49c.46-1.29.75-2.85.88-4.7l1.3.19ZM840.49,511.24c.42,1.22.69,2.46.81,3.72l-1.26.23c-.09-1.1-.33-2.29-.7-3.56l1.16-.39ZM850.31,511.42v1.39h-3.67v2.96h4.4v1.35h-10.37v-1.35h4.51v-2.96h-3.51v-1.39h3.51v-1.93h1.46v1.93h3.67ZM847.06,507.19c1.17.71,2.58,1.25,4.25,1.61l-.54,1.42c-2.07-.56-3.7-1.27-4.88-2.14-1.32.9-2.68,1.61-4.09,2.12l-.74-1.32c1.3-.47,2.52-1.05,3.67-1.75-.87-.85-1.68-1.93-2.46-3.23l1.19-.56c.78,1.27,1.6,2.26,2.44,2.96,1.05-.88,1.91-1.93,2.58-3.16h-7.17v-1.3h8.74v1.28c-.58,1.51-1.58,2.86-2.98,4.05Z"/>
        <path class="cls-10" d="M861.38,503.86h6.74v13.59h-14.87v-13.59h6.63v-2.72h1.51v2.72ZM859.87,505.3h-5.14v4.53h5.14v-4.53ZM859.87,511.21h-5.14v4.81h5.14v-4.81ZM866.62,505.3h-5.25v4.53h5.25v-4.53ZM866.62,511.21h-5.25v4.81h5.25v-4.81Z"/>
        <path class="cls-10" d="M882.49,509.24l-10.59-5.24.61-1.25,12.87,6.49-12.87,6.47-.61-1.25,10.59-5.23Z"/>
        <path class="cls-10" d="M594.27,553.31c.97,1.97,2.31,3.88,4.04,5.74l-1.25,1.92c-1.13-1.39-2.06-2.88-2.79-4.46v13.74h-2.29v-14.27c-.89,2.84-2.22,5.5-3.98,7.97l-1.09-2.65c2.14-2.66,3.82-5.93,5.04-9.81h-4.43v-2.17h4.46v-5.46h2.29v5.46h3.82v2.17h-3.82v1.81ZM603.91,544.34c-.32,2.16-.87,4.3-1.67,6.44-.89,2.36-1.98,4.38-3.26,6.05l-1.98-1.59c1.39-1.71,2.42-3.46,3.09-5.27.63-1.69,1.15-3.69,1.56-5.99l2.26.36ZM601.82,566.77h.11c3.81-.32,6.56-.59,8.25-.84-.84-2.12-1.76-4.06-2.76-5.82l1.92-.98c.95,1.45,1.85,3.14,2.7,5.07.78,1.8,1.39,3.5,1.84,5.1l-2.34.98c-.19-.78-.4-1.56-.64-2.34-2.84.52-7.25.99-13.21,1.42l-.36-2.34c1.11-.04,1.85-.06,2.2-.08.72-1.76,1.46-3.91,2.2-6.44.74-2.47,1.3-4.71,1.67-6.72l2.34.47c-1.23,5.02-2.54,9.19-3.93,12.51ZM612.53,557.16c-1.28-1.47-2.4-3.45-3.34-5.94-.84-2.23-1.44-4.51-1.81-6.86l2.26-.33c.85,4.63,2.41,8.41,4.68,11.34l-1.78,1.78Z"/>
        <path class="cls-10" d="M618.49,550.33h21.87v10.25h-19.48c-.3,4.38-1.38,7.7-3.26,9.95l-2.01-1.84c1.02-1.32,1.74-2.78,2.15-4.38.48-1.86.72-3.52.72-4.99v-9ZM642.31,544.98v2.26h-26.47v-2.26h26.47ZM638,552.53h-17v5.82h17v-5.82Z"/>
        <path class="cls-10" d="M651.96,545.45h15.91v2.59l-11.62,19.9h-3.04l11.82-20.04h-13.07v-2.45Z"/>
        <path class="cls-10" d="M681.77,555.79c1.13.35,2.04.83,2.73,1.42,1.34,1.11,2.01,2.57,2.01,4.38,0,1.97-.79,3.6-2.37,4.9-1.52,1.26-3.62,1.9-6.3,1.9-2.51,0-4.84-.58-6.99-1.73l.81-2.48c1.78,1.19,3.86,1.78,6.21,1.78,1.8,0,3.24-.42,4.32-1.25,1.1-.85,1.64-1.96,1.64-3.32,0-1.62-.84-2.8-2.51-3.54-.95-.41-2.1-.61-3.46-.61h-2.06v-2.45h2.09c1.17,0,2.15-.26,2.93-.78,1.12-.71,1.67-1.72,1.67-3.04,0-1.24-.51-2.18-1.53-2.81-.72-.46-1.62-.7-2.67-.7-2.16,0-3.99.86-5.49,2.59l-1.03-2.51c1.95-1.69,4.12-2.54,6.52-2.54,2.04,0,3.74.6,5.1,1.81,1.13,1.04,1.7,2.38,1.7,4.01,0,2.3-1.11,3.96-3.32,4.96Z"/>
        <path class="cls-10" d="M697.82,569.33l-1.59-1.9c2.86-1.41,5.22-3.28,7.08-5.6l2.01,1.14c-.91,1.19-2.08,2.38-3.51,3.57-1.36,1.13-2.68,2.06-3.99,2.79ZM708.66,555.32c2.64-2.84,4.73-5.37,6.27-7.58l1.98,1.11c-1.17,1.65-2.67,3.5-4.49,5.55-1.34,1.5-2.48,2.7-3.43,3.59l1.98-.11,1.98-.11,5.16-.31c-.54-.76-1.24-1.65-2.09-2.68l1.95-1.14c2.02,2.3,3.72,4.72,5.07,7.25l-2.09,1.23c-.48-1.02-.98-1.93-1.5-2.73l-8.69.58v10.34h-2.37v-10.2c-2.56.07-4.5.14-5.8.19-3.03.11-5.08.18-6.16.2l-.17-2.2c.72,0,1.81-.02,3.26-.06,3.1-.07,5.27-.12,6.49-.14.43-.43.79-.8,1.09-1.11-2.64-2.34-5.12-4.12-7.44-5.35l1.37-1.73c1.02.54,1.98,1.12,2.87,1.75,1.04-1.26,2.02-2.65,2.93-4.15-2.42.13-5.36.2-8.83.22l-.5-2.17c10.53,0,18.2-.61,22.99-1.84l1,2.06c-3.57.84-7.52,1.37-11.87,1.59-1.19,1.99-2.53,3.82-4.01,5.49,1.23.89,2.25,1.71,3.07,2.45ZM721.48,569.61c-3.03-1.82-5.56-4.03-7.61-6.63l1.84-1.23c1.67,2.23,4.11,4.21,7.33,5.94l-1.56,1.92Z"/>
        <path class="cls-10" d="M729.73,552l.06-.08c1.17-1.84,2.2-3.57,3.09-5.18l2.09.84c-1.91,3.23-3.77,6.04-5.57,8.42,1.62-.07,2.83-.15,3.65-.22-.33-.78-.6-1.37-.81-1.78l1.81-.81c.84,1.62,1.58,3.33,2.23,5.13l-2.03.81c-.28-.78-.46-1.29-.53-1.53-.56.07-1.34.16-2.34.25v12.46h-2.2v-12.29c-1.39.09-2.91.17-4.54.22l-.17-2.06c.48,0,1.28-.03,2.4-.08.65-.82,1.19-1.54,1.62-2.17-1.02-1.21-2.42-2.51-4.18-3.9l1.2-1.78c.46.35.81.62,1.03.81,1.21-1.8,2.16-3.52,2.84-5.16l2.09.78c-1.15,2.4-2.26,4.33-3.32,5.8.65.61,1.18,1.13,1.59,1.56ZM727.89,560.36c-.24,3.05-.72,5.69-1.42,7.94l-2.09-.75c.78-2.3,1.25-4.81,1.42-7.52l2.09.33ZM734.41,559.86c.69,1.69,1.15,3.58,1.39,5.68l-2.09.47c-.13-1.84-.5-3.72-1.11-5.66l1.81-.5ZM741.38,557.63c-.11,4.27-.76,7.27-1.95,9-1.02,1.5-2.54,2.72-4.54,3.65l-1.39-1.95c2.01-.84,3.44-1.97,4.29-3.4.87-1.41,1.33-3.85,1.37-7.3h2.23ZM740.35,554.18h.11c3.21-.17,5.59-.33,7.13-.47-.69-.95-1.51-1.91-2.48-2.9l1.9-1.14c1.82,1.8,3.37,3.9,4.65,6.3l-2.06,1.2c-.28-.61-.54-1.13-.78-1.56-4.61.46-8.81.77-12.62.92l-.22-2.2c1.15-.04,1.82-.06,2.01-.06.98-1.67,1.78-3.51,2.4-5.52h-4.85v-2.17h6.69v-2.7h2.34v2.7h6.77v2.17h-8.47c-.74,1.9-1.58,3.71-2.51,5.43ZM746.59,557.63v9.59c0,.41.24.61.72.61h1.11c.43,0,.67-.29.72-.86.04-.41.06-1.65.08-3.73l2.15.72c0,2.51-.12,4.11-.36,4.79-.3.85-.97,1.28-2.01,1.28h-2.7c-1.32,0-1.98-.63-1.98-1.89v-10.51h2.26Z"/>
        <path class="cls-10" d="M765.99,556.86l8.47,5.23-.49,1.25-10.3-6.47,10.3-6.49.49,1.25-8.47,5.24Z"/>
        <path class="cls-10" d="M776.78,551.49h6.05v-2.75h1.25v2.75h6.05v1.46h-6.05v3.44h4.62v8.61h-10.48v-8.61h4.62v-3.44h-6.05v-1.46ZM779.42,557.77v5.84h8.08v-5.84h-8.08Z"/>
        <path class="cls-10" d="M799.9,556.45c-.08,2.26-.53,4.09-1.35,5.51-.84,1.44-2.17,2.42-3.97,2.95l-.56-1.26c1.76-.42,3-1.32,3.73-2.7.58-1.09.9-2.58.97-4.49h-2.99c-.54,1.27-1.26,2.33-2.16,3.17l-.86-1.04c.88-.79,1.54-1.72,1.99-2.77.33-.79.59-1.93.8-3.42l1.25.11c-.15.92-.34,1.78-.56,2.56h6.55v1.39h-2.85Z"/>
        <path class="cls-10" d="M805.8,551.24h1v11.58h.86v-14.07h.98v14.07h.88v-11.58h.97v12.94h-4.69v-12.94ZM815.13,550.31h3.41v1.3h-2.74c.43.7.82,1.23,1.18,1.58.43.4,1.01.74,1.74,1.04l-.48,1.33c-1.23-.58-2.2-1.48-2.93-2.68-.21-.35-.38-.7-.52-1.05-.19.54-.4.99-.63,1.35-.6.97-1.5,1.75-2.69,2.35l-.58-1.3c1.43-.61,2.36-1.48,2.79-2.61h-2.62v-1.3h2.93c.07-.42.1-.94.11-1.56h1.15c-.02.57-.06,1.09-.13,1.56ZM818.86,555.87v1.3h-.88v6.91c0,.49-.08.84-.24,1.03-.18.21-.46.32-.86.32h-2.02l-.2-1.42,1.73.02c.18,0,.3-.05.38-.14.05-.07.07-.25.07-.54v-6.17h-5.92v-1.3h7.94ZM815.66,558.28v4.75h-4.11v-4.75h4.11ZM814.65,559.47h-2.06v2.35h2.06v-2.35Z"/>
        <path class="cls-10" d="M822.35,553.96c.54-.99,1.08-2.12,1.6-3.37l1.01.58c-.95,2.12-1.88,3.88-2.76,5.3.28-.01.86-.05,1.73-.11-.12-.47-.23-.85-.32-1.14l.9-.42c.37,1.05.64,2.06.79,3.04l-1,.42c-.03-.27-.06-.5-.1-.7-.25.05-.58.08-.98.11v7.77h-1.11v-7.68l-.97.05-.97.07-.34.03-.1-1.38c.44,0,.83,0,1.18-.02.18-.28.45-.74.81-1.39-.69-1.01-1.37-1.81-2.04-2.4l.58-1.12c.22.2.38.34.48.44.53-.97,1.01-2.06,1.43-3.28l1.05.49c-.57,1.5-1.13,2.72-1.68,3.67.39.47.66.82.81,1.05ZM821.47,559.24c-.1,1.98-.34,3.64-.7,5l-1.04-.49c.36-1.29.6-2.85.7-4.7l1.04.19ZM824.77,558.86c.34,1.22.55,2.46.65,3.72l-1.01.23c-.07-1.1-.26-2.29-.56-3.56l.93-.39ZM832.62,559.03v1.39h-2.93v2.96h3.52v1.35h-8.29v-1.35h3.61v-2.96h-2.81v-1.39h2.81v-1.93h1.16v1.93h2.93ZM830.03,554.8c.94.71,2.07,1.25,3.4,1.61l-.43,1.42c-1.66-.56-2.96-1.27-3.9-2.14-1.06.9-2.15,1.61-3.27,2.12l-.59-1.32c1.04-.47,2.02-1.05,2.93-1.75-.69-.85-1.35-1.93-1.96-3.23l.95-.56c.63,1.27,1.28,2.26,1.95,2.96.84-.88,1.53-1.93,2.06-3.16h-5.74v-1.3h6.99v1.28c-.47,1.51-1.26,2.86-2.39,4.05Z"/>
        <path class="cls-10" d="M841.48,551.47h5.39v13.59h-11.9v-13.59h5.3v-2.72h1.21v2.72ZM840.27,552.91h-4.11v4.53h4.11v-4.53ZM840.27,558.82h-4.11v4.81h4.11v-4.81ZM845.68,552.91h-4.2v4.53h4.2v-4.53ZM845.68,558.82h-4.2v4.81h4.2v-4.81Z"/>
        <path class="cls-10" d="M861.04,565.36c-.53-.84-.98-1.7-1.33-2.56-.85-2.06-1.28-4.04-1.28-5.95,0-1.37.23-2.81.69-4.33.46-1.48,1.1-2.88,1.92-4.19h1.14c-.57.91-1.03,1.84-1.38,2.79-.73,1.93-1.09,3.84-1.09,5.74,0,2.21.48,4.4,1.43,6.56.27.62.62,1.27,1.04,1.95h-1.14Z"/>
        <path class="cls-10" d="M866.49,554.72c.49,1.24,1.17,2.44,2.04,3.61l-.63,1.21c-.57-.88-1.04-1.81-1.4-2.81v8.65h-1.15v-8.98c-.45,1.79-1.12,3.46-2.01,5.02l-.55-1.67c1.08-1.67,1.92-3.73,2.54-6.17h-2.23v-1.37h2.25v-3.44h1.15v3.44h1.92v1.37h-1.92v1.14ZM871.34,549.07c-.16,1.36-.44,2.71-.84,4.05-.45,1.49-1,2.75-1.64,3.81l-1-1c.7-1.08,1.22-2.18,1.56-3.32.32-1.06.58-2.32.79-3.77l1.14.23ZM870.29,563.19h.06c1.92-.2,3.3-.37,4.15-.53-.42-1.33-.88-2.55-1.39-3.67l.97-.61c.48.91.93,1.98,1.36,3.19.39,1.13.7,2.2.93,3.21l-1.18.61c-.09-.49-.2-.98-.32-1.47-1.43.33-3.65.62-6.65.89l-.18-1.47c.56-.02.93-.04,1.11-.05.37-1.11.73-2.46,1.11-4.05.37-1.55.66-2.96.84-4.23l1.18.3c-.62,3.16-1.28,5.78-1.98,7.88ZM875.68,557.14c-.65-.92-1.21-2.17-1.68-3.74-.42-1.4-.73-2.84-.91-4.32l1.14-.21c.43,2.91,1.22,5.29,2.36,7.14l-.9,1.12Z"/>
        <path class="cls-10" d="M878.68,552.84h11.02v6.45h-9.81c-.15,2.76-.7,4.85-1.64,6.26l-1.01-1.16c.51-.83.88-1.75,1.08-2.75.24-1.17.36-2.22.36-3.14v-5.67ZM890.68,549.47v1.42h-13.33v-1.42h13.33ZM888.5,554.23h-8.56v3.67h8.56v-3.67Z"/>
        <path class="cls-10" d="M897.09,555.51h6.46c-.06,2.37-.17,4.34-.35,5.89-.16,1.46-.35,2.43-.56,2.91-.21.47-.5.78-.88.95-.25.11-.58.16-1,.16h-2.72l-.22-1.54,2.79.02c.52,0,.89-.29,1.09-.88.19-.56.35-1.94.48-4.12.05-.74.08-1.4.1-1.98h-5.29c-.21,1.95-.67,3.59-1.4,4.91-.76,1.36-1.83,2.57-3.23,3.65l-.79-1.39c1.8-1.27,3.01-2.84,3.63-4.68.5-1.47.76-3.7.77-6.68h-4.24v-1.44h6v-2.51h1.26v2.51h6.05v1.44h-7.84c0,.67-.05,1.6-.11,2.79Z"/>
        <path class="cls-10" d="M919.41,549.45v1.32h-6.09c-.14.8-.31,1.53-.52,2.21h5.99v12.08h-12.07v-12.08h4.88c.2-.6.36-1.33.49-2.21h-6.03v-1.32h13.34ZM909.86,554.26h-1.96v9.51h1.96v-9.51ZM914.5,554.26h-3.54v2.25h3.54v-2.25ZM914.5,557.73h-3.54v2.3h3.54v-2.3ZM914.5,561.26h-3.54v2.51h3.54v-2.51ZM917.65,554.26h-2.01v9.51h2.01v-9.51Z"/>
        <path class="cls-10" d="M921.38,565.36h-1.14c.57-.92,1.03-1.85,1.38-2.79.73-1.92,1.09-3.82,1.09-5.72,0-2.22-.48-4.41-1.43-6.58-.27-.62-.62-1.27-1.04-1.95h1.14c.53.85.98,1.71,1.33,2.56.85,2.06,1.28,4.05,1.28,5.96,0,2.2-.54,4.44-1.61,6.72-.27.57-.6,1.17-1,1.79Z"/>
        <path class="cls-10" d="M937.4,556.86l-8.48-5.24.49-1.25,10.3,6.49-10.3,6.47-.49-1.25,8.48-5.23Z"/>
        <path class="cls-9" d="M594.27,600.92c.97,1.97,2.31,3.88,4.04,5.74l-1.25,1.92c-1.13-1.39-2.06-2.88-2.79-4.46v13.74h-2.29v-14.27c-.89,2.84-2.22,5.5-3.98,7.97l-1.09-2.65c2.14-2.66,3.82-5.93,5.04-9.81h-4.43v-2.17h4.46v-5.46h2.29v5.46h3.82v2.17h-3.82v1.81ZM603.91,591.95c-.32,2.16-.87,4.3-1.67,6.44-.89,2.36-1.98,4.38-3.26,6.05l-1.98-1.59c1.39-1.71,2.42-3.46,3.09-5.27.63-1.69,1.15-3.69,1.56-5.99l2.26.36ZM601.82,614.38h.11c3.81-.32,6.56-.59,8.25-.84-.84-2.12-1.76-4.06-2.76-5.82l1.92-.98c.95,1.45,1.85,3.14,2.7,5.07.78,1.8,1.39,3.5,1.84,5.1l-2.34.98c-.19-.78-.4-1.56-.64-2.34-2.84.52-7.25.99-13.21,1.42l-.36-2.34c1.11-.04,1.85-.06,2.2-.08.72-1.76,1.46-3.91,2.2-6.44.74-2.47,1.3-4.71,1.67-6.72l2.34.47c-1.23,5.02-2.54,9.19-3.93,12.51ZM612.53,604.77c-1.28-1.47-2.4-3.45-3.34-5.94-.84-2.23-1.44-4.51-1.81-6.86l2.26-.33c.85,4.63,2.41,8.41,4.68,11.34l-1.78,1.78Z"/>
        <path class="cls-9" d="M618.49,597.94h21.87v10.25h-19.48c-.3,4.38-1.38,7.7-3.26,9.95l-2.01-1.84c1.02-1.32,1.74-2.78,2.15-4.38.48-1.86.72-3.52.72-4.99v-9ZM642.31,592.59v2.26h-26.47v-2.26h26.47ZM638,600.14h-17v5.82h17v-5.82Z"/>
        <path class="cls-9" d="M651.96,593.07h15.91v2.59l-11.62,19.9h-3.04l11.82-20.04h-13.07v-2.45Z"/>
        <path class="cls-9" d="M681.77,603.4c1.13.35,2.04.83,2.73,1.42,1.34,1.11,2.01,2.57,2.01,4.38,0,1.97-.79,3.6-2.37,4.9-1.52,1.26-3.62,1.9-6.3,1.9-2.51,0-4.84-.58-6.99-1.73l.81-2.48c1.78,1.19,3.86,1.78,6.21,1.78,1.8,0,3.24-.42,4.32-1.25,1.1-.85,1.64-1.96,1.64-3.32,0-1.62-.84-2.8-2.51-3.54-.95-.41-2.1-.61-3.46-.61h-2.06v-2.45h2.09c1.17,0,2.15-.26,2.93-.78,1.12-.71,1.67-1.72,1.67-3.04,0-1.24-.51-2.18-1.53-2.81-.72-.46-1.62-.7-2.67-.7-2.16,0-3.99.86-5.49,2.59l-1.03-2.51c1.95-1.69,4.12-2.54,6.52-2.54,2.04,0,3.74.6,5.1,1.81,1.13,1.04,1.7,2.38,1.7,4.01,0,2.3-1.11,3.96-3.32,4.96Z"/>
        <path class="cls-9" d="M697.82,616.95l-1.59-1.9c2.86-1.41,5.22-3.28,7.08-5.6l2.01,1.14c-.91,1.19-2.08,2.38-3.51,3.57-1.36,1.13-2.68,2.06-3.99,2.79ZM708.66,602.93c2.64-2.84,4.73-5.37,6.27-7.58l1.98,1.11c-1.17,1.65-2.67,3.5-4.49,5.55-1.34,1.5-2.48,2.7-3.43,3.59l1.98-.11,1.98-.11,5.16-.31c-.54-.76-1.24-1.65-2.09-2.68l1.95-1.14c2.02,2.3,3.72,4.72,5.07,7.25l-2.09,1.23c-.48-1.02-.98-1.93-1.5-2.73l-8.69.58v10.34h-2.37v-10.2c-2.56.07-4.5.14-5.8.19-3.03.11-5.08.18-6.16.2l-.17-2.2c.72,0,1.81-.02,3.26-.06,3.1-.07,5.27-.12,6.49-.14.43-.43.79-.8,1.09-1.11-2.64-2.34-5.12-4.12-7.44-5.35l1.37-1.73c1.02.54,1.98,1.12,2.87,1.75,1.04-1.26,2.02-2.65,2.93-4.15-2.42.13-5.36.2-8.83.22l-.5-2.17c10.53,0,18.2-.61,22.99-1.84l1,2.06c-3.57.84-7.52,1.37-11.87,1.59-1.19,1.99-2.53,3.82-4.01,5.49,1.23.89,2.25,1.71,3.07,2.45ZM721.48,617.23c-3.03-1.82-5.56-4.03-7.61-6.63l1.84-1.23c1.67,2.23,4.11,4.21,7.33,5.94l-1.56,1.92Z"/>
        <path class="cls-9" d="M729.73,599.61l.06-.08c1.17-1.84,2.2-3.57,3.09-5.18l2.09.84c-1.91,3.23-3.77,6.04-5.57,8.42,1.62-.07,2.83-.15,3.65-.22-.33-.78-.6-1.37-.81-1.78l1.81-.81c.84,1.62,1.58,3.33,2.23,5.13l-2.03.81c-.28-.78-.46-1.29-.53-1.53-.56.07-1.34.16-2.34.25v12.46h-2.2v-12.29c-1.39.09-2.91.17-4.54.22l-.17-2.06c.48,0,1.28-.03,2.4-.08.65-.82,1.19-1.54,1.62-2.17-1.02-1.21-2.42-2.51-4.18-3.9l1.2-1.78c.46.35.81.62,1.03.81,1.21-1.8,2.16-3.52,2.84-5.16l2.09.78c-1.15,2.4-2.26,4.33-3.32,5.8.65.61,1.18,1.13,1.59,1.56ZM727.89,607.97c-.24,3.05-.72,5.69-1.42,7.94l-2.09-.75c.78-2.3,1.25-4.81,1.42-7.52l2.09.33ZM734.41,607.47c.69,1.69,1.15,3.58,1.39,5.68l-2.09.47c-.13-1.84-.5-3.72-1.11-5.66l1.81-.5ZM741.38,605.24c-.11,4.27-.76,7.27-1.95,9-1.02,1.5-2.54,2.72-4.54,3.65l-1.39-1.95c2.01-.84,3.44-1.97,4.29-3.4.87-1.41,1.33-3.85,1.37-7.3h2.23ZM740.35,601.79h.11c3.21-.17,5.59-.33,7.13-.47-.69-.95-1.51-1.91-2.48-2.9l1.9-1.14c1.82,1.8,3.37,3.9,4.65,6.3l-2.06,1.2c-.28-.61-.54-1.13-.78-1.56-4.61.46-8.81.77-12.62.92l-.22-2.2c1.15-.04,1.82-.06,2.01-.06.98-1.67,1.78-3.51,2.4-5.52h-4.85v-2.17h6.69v-2.7h2.34v2.7h6.77v2.17h-8.47c-.74,1.9-1.58,3.71-2.51,5.43ZM746.59,605.24v9.59c0,.41.24.61.72.61h1.11c.43,0,.67-.29.72-.86.04-.41.06-1.65.08-3.73l2.15.72c0,2.51-.12,4.11-.36,4.79-.3.85-.97,1.28-2.01,1.28h-2.7c-1.32,0-1.98-.63-1.98-1.89v-10.51h2.26Z"/>
        <path class="cls-9" d="M765.53,604.47l7.52,5.23-.44,1.25-9.14-6.47,9.14-6.49.44,1.25-7.52,5.24Z"/>
        <path class="cls-9" d="M775.1,599.1h5.37v-2.75h1.11v2.75h5.37v1.46h-5.37v3.44h4.1v8.61h-9.3v-8.61h4.1v-3.44h-5.37v-1.46ZM777.44,605.38v5.84h7.17v-5.84h-7.17Z"/>
        <path class="cls-9" d="M795.62,604.07c-.07,2.26-.47,4.09-1.2,5.51-.75,1.44-1.92,2.42-3.52,2.95l-.5-1.26c1.56-.42,2.67-1.32,3.31-2.7.51-1.09.8-2.58.86-4.49h-2.65c-.48,1.27-1.12,2.33-1.92,3.17l-.76-1.04c.78-.79,1.37-1.72,1.77-2.77.29-.79.53-1.93.71-3.42l1.11.11c-.13.92-.3,1.78-.5,2.56h5.82v1.39h-2.53Z"/>
        <path class="cls-9" d="M800.85,598.86h.88v11.58h.76v-14.07h.87v14.07h.78v-11.58h.86v12.94h-4.16v-12.94ZM809.14,597.93h3.03v1.3h-2.43c.38.7.73,1.23,1.05,1.58.38.4.9.74,1.54,1.04l-.42,1.33c-1.09-.58-1.96-1.48-2.6-2.68-.18-.35-.34-.7-.46-1.05-.17.54-.35.99-.56,1.35-.53.97-1.33,1.75-2.39,2.35l-.51-1.3c1.27-.61,2.1-1.48,2.48-2.61h-2.33v-1.3h2.6c.06-.42.09-.94.1-1.56h1.02c-.02.57-.05,1.09-.11,1.56ZM812.45,603.49v1.3h-.78v6.91c0,.49-.07.84-.21,1.03-.16.21-.41.32-.76.32h-1.79l-.17-1.42,1.53.02c.16,0,.27-.05.34-.14.04-.07.06-.25.06-.54v-6.17h-5.26v-1.3h7.05ZM809.61,605.89v4.75h-3.65v-4.75h3.65ZM808.71,607.08h-1.83v2.35h1.83v-2.35Z"/>
        <path class="cls-9" d="M819.3,602.85c.37,0,.69.21.96.61.22.36.34.78.34,1.25,0,.55-.15,1.01-.44,1.37-.25.32-.54.47-.88.47-.39,0-.71-.2-.97-.6-.22-.35-.34-.77-.34-1.26,0-.54.15-.99.44-1.35.24-.33.54-.49.9-.49Z"/>
        <path class="cls-9" d="M827.18,597.24h9.69v15.4h-9.69v-15.4ZM828.29,604.12h7.46v-5.42h-7.46v5.42ZM828.29,605.56v5.67h7.46v-5.67h-7.46Z"/>
        <path class="cls-9" d="M844.13,600.8v-4.4h1.13v4.4h5.43v1.51h-5.24c.39,2.36.98,4.23,1.78,5.61.85,1.45,2.06,2.64,3.65,3.56l-.72,1.49c-1.69-1.12-2.99-2.55-3.9-4.3-.63-1.2-1.11-2.64-1.43-4.31-.27,1.34-.67,2.58-1.21,3.72-1,2.08-2.42,3.71-4.23,4.88l-.61-1.54c1.63-.92,2.89-2.21,3.77-3.86.76-1.43,1.26-3.17,1.51-5.24h-5.18v-1.51h5.25Z"/>
        <path class="cls-9" d="M853.64,597.08h1.03v3.33h2.47v-4.05h1.02v1.35h4.51v1.28h-4.51v1.42h5.28v1.28h-11.86v-1.28h2.05v-3.33ZM852.32,612.71v-10.28h1.02v8.98h8.29v-8.98h1.05v10.28h-10.36ZM856.57,606.33h-2.63v-1.21h3.08v-2.81h.97v2.81h3.13v1.21h-2.69c.76,1.11,1.66,2.02,2.7,2.72l-.5,1.09c-1.01-.74-1.89-1.67-2.64-2.81v3.42h-.97v-3.42c-.87,1.31-1.76,2.27-2.68,2.89l-.45-1.09c.96-.6,1.85-1.53,2.68-2.81ZM855.45,602.26c.31.67.58,1.36.83,2.09l-.92.47c-.22-.7-.47-1.4-.77-2.09l.86-.47ZM860.53,602.66c-.36,1.08-.65,1.82-.88,2.23l-.87-.47c.3-.63.59-1.37.86-2.23l.9.47Z"/>
        <path class="cls-9" d="M867.65,598.24v2.88h1.69v1.35h-1.69v.23c.41,1.06,1,2.15,1.77,3.25l-.6,1.28c-.5-.91-.89-1.78-1.17-2.6v8.4h-1v-8.24c-.51,1.68-1.18,3.2-2.03,4.56l-.46-1.56c.5-.67,1-1.6,1.49-2.79.41-.97.71-1.81.9-2.53h-2.17v-1.35h2.27v-2.67c-.8.13-1.5.2-2.1.21l-.21-1.33c.77-.01,1.61-.11,2.52-.28.8-.16,1.47-.38,2.03-.65l.47,1.32c-.56.21-1.12.39-1.71.53ZM874.94,606.17l1.22-.37.14,1.44-1.36.4v5.38h-1.05v-5.09l-4.46,1.32-.14-1.42,4.59-1.35v-10.08h1.05v9.77ZM870.47,601.7c.86.7,1.62,1.53,2.28,2.47l-.72,1.12c-.56-.89-1.28-1.72-2.17-2.51l.61-1.09ZM871.04,597.24c.85.73,1.61,1.57,2.28,2.53l-.71,1.14c-.64-.97-1.36-1.84-2.17-2.61l.6-1.05Z"/>
        <path class="cls-9" d="M878.96,604.92c0-.53.01-.81.01-.86v-6.03h4.04v-1.61h1.05v1.61h4.84v1.33h-8.92v4.68c0,3.88-.62,6.87-1.87,8.96l-.82-1.11c.55-.95.95-1.95,1.2-3,.17-.69.29-1.5.37-2.42-.41.33-1,.74-1.78,1.25l-.17-1.58c.66-.3,1.34-.71,2.05-1.23ZM877.75,599.42c.4,1.15.68,2.27.83,3.39l-.95.47c-.11-1.02-.35-2.14-.72-3.37l.83-.49ZM884.78,604.14h3.67v7.49c0,.92-.32,1.39-.96,1.39h-1.54l-.17-1.44h1.12c.25,0,.41-.05.47-.14.05-.09.07-.27.07-.53v-5.56h-2.37c.23.85.57,1.6,1,2.25.35.53.78,1.04,1.31,1.53l-.61,1.14c-1.1-1.25-1.88-2.58-2.33-4-.07.32-.13.57-.19.75-.36,1.29-.97,2.39-1.83,3.32l-.6-1.16c.98-.91,1.61-2.19,1.88-3.82h-1.96v7.67h-1.01v-8.88h3.11c.05-.53.08-1.16.1-1.91h-3.62v-1.28h8.57v1.28h-4c-.03.67-.07,1.3-.12,1.91Z"/>
        <path class="cls-9" d="M890.16,596.91h3.5v1.23c-.15.81-.32,1.57-.52,2.28-.08.33-.29,1.02-.61,2.07.76,1.27,1.13,2.7,1.13,4.28,0,1.73-.5,2.6-1.49,2.6h-.62l-.16-1.42h.66c.43,0,.65-.47.65-1.42,0-.63-.11-1.32-.32-2.07-.19-.67-.46-1.3-.81-1.91.51-1.54.88-2.99,1.08-4.33h-1.47v14.84h-1.01v-16.14ZM901.7,605.82h-2.63v5.14c0,.22.02.38.07.46.05.09.15.14.29.14h.7c.27,0,.43-.12.49-.37.07-.3.12-.99.15-2.05l1,.35c-.07,1.42-.16,2.32-.27,2.72-.09.32-.25.53-.49.63-.12.05-.31.07-.57.07h-1.36c-.29,0-.49-.03-.59-.09-.21-.12-.34-.37-.39-.75-.02-.12-.02-.4-.02-.86v-5.38h-1.27c-.02,1.86-.31,3.4-.87,4.61-.55,1.17-1.41,2.02-2.58,2.56l-.46-1.32c1.05-.43,1.79-1.16,2.24-2.17.42-.95.63-2.18.63-3.68h-1.96v-1.35h7.88v1.35ZM897.14,596.4h1.03v1.67h3.22v3.75h-1v-2.42h-5.52v2.42h-.98v-3.75h3.24v-1.67ZM900.18,602.5h-5.08v-1.3h5.08v1.3Z"/>
        <path class="cls-9" d="M904.81,601.57c.48-.99.96-2.12,1.42-3.37l.9.58c-.85,2.12-1.66,3.88-2.45,5.3.25-.01.76-.05,1.53-.11-.11-.47-.2-.85-.29-1.14l.8-.42c.33,1.05.56,2.06.7,3.04l-.88.42c-.02-.27-.05-.5-.09-.7-.22.05-.51.08-.87.11v7.77h-.98v-7.68l-.86.05-.86.07-.3.03-.09-1.38c.39,0,.74,0,1.05-.02.16-.28.4-.74.72-1.39-.61-1.01-1.22-1.81-1.81-2.4l.51-1.12c.2.2.34.34.42.44.47-.97.9-2.06,1.27-3.28l.93.49c-.51,1.5-1,2.72-1.49,3.67.35.47.59.82.72,1.05ZM904.03,606.85c-.09,1.98-.3,3.64-.62,5l-.92-.49c.32-1.29.53-2.85.62-4.7l.92.19ZM906.96,606.47c.3,1.22.49,2.46.57,3.72l-.9.23c-.07-1.1-.23-2.29-.5-3.56l.82-.39ZM913.93,606.64v1.39h-2.6v2.96h3.12v1.35h-7.36v-1.35h3.2v-2.96h-2.49v-1.39h2.49v-1.93h1.03v1.93h2.6ZM911.62,602.42c.83.71,1.83,1.25,3.01,1.61l-.39,1.42c-1.47-.56-2.62-1.27-3.46-2.14-.94.9-1.91,1.61-2.9,2.12l-.52-1.32c.92-.47,1.79-1.05,2.6-1.75-.62-.85-1.2-1.93-1.74-3.23l.85-.56c.56,1.27,1.13,2.26,1.73,2.96.75-.88,1.36-1.93,1.83-3.16h-5.09v-1.3h6.2v1.28c-.42,1.51-1.12,2.86-2.12,4.05Z"/>
        <path class="cls-9" d="M921.79,599.08h4.78v13.59h-10.56v-13.59h4.71v-2.72h1.07v2.72ZM920.72,600.52h-3.65v4.53h3.65v-4.53ZM920.72,606.43h-3.65v4.81h3.65v-4.81ZM925.51,600.52h-3.72v4.53h3.72v-4.53ZM925.51,606.43h-3.72v4.81h3.72v-4.81Z"/>
        <path class="cls-9" d="M936.78,604.47l-7.52-5.24.44-1.25,9.14,6.49-9.14,6.47-.44-1.25,7.52-5.23Z"/>
        <path class="cls-4" d="M590.27,649.94c.48,1.24,1.15,2.44,2.01,3.61l-.62,1.21c-.56-.88-1.03-1.81-1.39-2.81v8.65h-1.14v-8.98c-.44,1.79-1.1,3.46-1.98,5.02l-.54-1.67c1.06-1.67,1.9-3.73,2.51-6.17h-2.2v-1.37h2.22v-3.44h1.14v3.44h1.9v1.37h-1.9v1.14ZM595.06,644.29c-.16,1.36-.43,2.71-.83,4.05-.44,1.49-.98,2.75-1.62,3.81l-.98-1c.69-1.08,1.21-2.18,1.54-3.32.31-1.06.57-2.32.78-3.77l1.12.23ZM594.02,658.41h.06c1.89-.2,3.26-.37,4.1-.53-.42-1.33-.87-2.55-1.37-3.67l.96-.61c.47.91.92,1.98,1.34,3.19.39,1.13.69,2.2.91,3.21l-1.16.61c-.09-.49-.2-.98-.32-1.47-1.41.33-3.6.62-6.57.89l-.18-1.47c.55-.02.92-.04,1.09-.05.36-1.11.73-2.46,1.09-4.05.37-1.55.65-2.96.83-4.23l1.16.3c-.61,3.16-1.26,5.78-1.95,7.88ZM599.34,652.36c-.64-.92-1.19-2.17-1.66-3.74-.42-1.4-.72-2.84-.9-4.32l1.12-.21c.42,2.91,1.2,5.29,2.33,7.14l-.89,1.12Z"/>
        <path class="cls-4" d="M602.31,648.06h10.88v6.45h-9.69c-.15,2.76-.69,4.85-1.62,6.26l-1-1.16c.51-.83.86-1.75,1.07-2.75.24-1.17.36-2.22.36-3.14v-5.67ZM614.15,644.7v1.42h-13.16v-1.42h13.16ZM612.01,649.45h-8.45v3.67h8.45v-3.67Z"/>
        <path class="cls-4" d="M618.95,645h7.91v1.63l-5.78,12.52h-1.51l5.88-12.61h-6.5v-1.54Z"/>
        <path class="cls-4" d="M629.62,647.15l2.49-2.16h1.19v14.15h-1.36v-12.28l-2.15,1.88-.18-1.6Z"/>
        <path class="cls-4" d="M644.08,650.47c.42,0,.77.21,1.07.61.25.36.37.78.37,1.25,0,.55-.16,1.01-.49,1.37-.28.32-.6.47-.98.47-.43,0-.79-.2-1.08-.6-.25-.35-.37-.77-.37-1.26,0-.54.16-.99.49-1.35.27-.33.6-.49,1-.49Z"/>
        <path class="cls-4" d="M651.87,645h7.91v1.63l-5.78,12.52h-1.51l5.88-12.61h-6.5v-1.54Z"/>
        <path class="cls-4" d="M661.85,646.91c.87-1.47,2-2.21,3.38-2.21,1.12,0,2.01.47,2.69,1.4.5.69.75,1.59.75,2.7,0,.98-.21,1.91-.62,2.79-.66,1.43-1.97,3.43-3.95,6.02h5.07v1.54h-8.01c1.75-2.2,3.08-3.97,3.99-5.31.74-1.09,1.26-1.94,1.55-2.54.42-.87.62-1.69.62-2.47,0-.84-.23-1.5-.68-1.98-.39-.4-.86-.6-1.41-.6-1.18,0-2.13.82-2.84,2.46l-.54-1.79Z"/>
        <path class="cls-4" d="M677.01,650.47c.42,0,.77.21,1.07.61.25.36.37.78.37,1.25,0,.55-.16,1.01-.49,1.37-.28.32-.6.47-.98.47-.43,0-.79-.2-1.08-.6-.25-.35-.37-.77-.37-1.26,0-.54.16-.99.49-1.35.27-.33.6-.49,1-.49Z"/>
        <path class="cls-4" d="M684.8,645h7.91v1.63l-5.78,12.52h-1.51l5.88-12.61h-6.5v-1.54Z"/>
        <path class="cls-4" d="M700.66,659.15h-1.33v-3.16h-5.22v-1.47l5.13-9.52h1.43v9.49h1.52v1.51h-1.52v3.16ZM695.48,654.48h3.85v-7.21l-3.85,7.21Z"/>
        <path class="cls-4" d="M707.6,660.03l-.79-1.19c1.42-.89,2.6-2.06,3.52-3.53l1,.72c-.45.75-1.04,1.5-1.75,2.25-.67.71-1.33,1.3-1.98,1.75ZM712.99,651.2c1.31-1.79,2.35-3.38,3.12-4.77l.98.7c-.58,1.04-1.33,2.2-2.23,3.49-.67.95-1.23,1.7-1.7,2.26l.98-.07.98-.07,2.56-.19c-.27-.48-.62-1.04-1.04-1.68l.97-.72c1.01,1.45,1.85,2.97,2.52,4.56l-1.04.77c-.24-.64-.49-1.22-.75-1.72l-4.32.37v6.51h-1.18v-6.42c-1.28.05-2.24.09-2.88.12-1.51.07-2.53.11-3.06.12l-.08-1.38c.36,0,.9-.01,1.62-.04,1.54-.05,2.62-.08,3.23-.09.21-.27.39-.5.54-.7-1.31-1.47-2.54-2.6-3.7-3.37l.68-1.09c.51.34.98.71,1.43,1.11.52-.79,1-1.67,1.46-2.61-1.2.08-2.67.13-4.39.14l-.25-1.37c5.24,0,9.05-.39,11.43-1.16l.5,1.3c-1.77.53-3.74.86-5.9,1-.59,1.25-1.26,2.4-2,3.46.61.56,1.12,1.08,1.52,1.54ZM719.37,660.2c-1.51-1.15-2.77-2.54-3.78-4.17l.91-.77c.83,1.4,2.05,2.65,3.64,3.74l-.78,1.21Z"/>
        <path class="cls-4" d="M723.47,649.12l.03-.05c.58-1.16,1.09-2.25,1.54-3.26l1.04.53c-.95,2.03-1.88,3.8-2.77,5.3.8-.05,1.41-.09,1.81-.14-.17-.49-.3-.87-.4-1.12l.9-.51c.42,1.02.79,2.09,1.11,3.23l-1.01.51c-.14-.49-.23-.81-.26-.96-.28.05-.67.1-1.16.16v7.84h-1.09v-7.74c-.69.06-1.45.11-2.26.14l-.08-1.3c.24,0,.64-.02,1.19-.05.32-.51.59-.97.8-1.37-.51-.76-1.2-1.58-2.08-2.46l.6-1.12c.23.22.4.39.51.51.6-1.13,1.07-2.22,1.41-3.25l1.04.49c-.57,1.51-1.12,2.72-1.65,3.65.32.39.59.71.79.98ZM722.56,654.38c-.12,1.92-.36,3.58-.71,5l-1.04-.47c.39-1.45.62-3.03.71-4.74l1.04.21ZM725.8,654.06c.34,1.06.57,2.26.69,3.58l-1.04.3c-.06-1.16-.25-2.34-.55-3.56l.9-.32ZM729.26,652.66c-.06,2.69-.38,4.58-.97,5.67-.51.95-1.26,1.71-2.26,2.3l-.69-1.23c1-.53,1.71-1.24,2.13-2.14.43-.89.66-2.42.68-4.59h1.11ZM728.75,650.48h.06c1.6-.1,2.78-.2,3.55-.3-.34-.6-.75-1.2-1.23-1.82l.94-.72c.91,1.13,1.68,2.46,2.31,3.96l-1.03.75c-.14-.39-.27-.71-.39-.98-2.29.29-4.38.49-6.28.58l-.11-1.39c.57-.02.91-.04,1-.04.49-1.05.89-2.21,1.19-3.47h-2.41v-1.37h3.33v-1.7h1.16v1.7h3.37v1.37h-4.21c-.37,1.19-.79,2.33-1.25,3.42ZM731.85,652.66v6.03c0,.26.12.39.36.39h.55c.21,0,.33-.18.36-.54.02-.26.03-1.04.04-2.35l1.07.46c0,1.58-.06,2.58-.18,3.02-.15.54-.48.81-1,.81h-1.34c-.66,0-.98-.4-.98-1.19v-6.61h1.12Z"/>
        <path class="cls-4" d="M747.51,660.59c-.53-.84-.97-1.7-1.32-2.56-.84-2.06-1.26-4.04-1.26-5.95,0-1.37.23-2.81.68-4.33.45-1.48,1.08-2.88,1.9-4.19h1.12c-.56.91-1.02,1.84-1.36,2.79-.72,1.93-1.08,3.84-1.08,5.74,0,2.21.47,4.4,1.41,6.56.27.62.61,1.27,1.03,1.95h-1.12Z"/>
        <path class="cls-4" d="M750.63,644.85h10.78v15.4h-10.78v-15.4ZM751.86,651.73h8.3v-5.42h-8.3v5.42ZM751.86,653.17v5.67h8.3v-5.67h-8.3Z"/>
        <path class="cls-4" d="M769.49,648.42v-4.4h1.26v4.4h6.04v1.51h-5.83c.43,2.36,1.09,4.23,1.98,5.61.94,1.45,2.3,2.64,4.06,3.56l-.8,1.49c-1.88-1.12-3.33-2.55-4.34-4.3-.7-1.2-1.23-2.64-1.59-4.31-.3,1.34-.74,2.58-1.34,3.72-1.12,2.08-2.69,3.71-4.71,4.88l-.68-1.54c1.82-.92,3.22-2.21,4.2-3.86.84-1.43,1.4-3.17,1.68-5.24h-5.76v-1.51h5.85Z"/>
        <path class="cls-4" d="M780.08,644.7h1.15v3.33h2.74v-4.05h1.14v1.35h5.02v1.28h-5.02v1.42h5.88v1.28h-13.19v-1.28h2.29v-3.33ZM778.61,660.32v-10.28h1.14v8.98h9.23v-8.98h1.16v10.28h-11.53ZM783.33,653.94h-2.92v-1.21h3.42v-2.81h1.08v2.81h3.48v1.21h-2.99c.84,1.11,1.84,2.02,3.01,2.72l-.55,1.09c-1.13-.74-2.11-1.67-2.94-2.81v3.42h-1.08v-3.42c-.97,1.31-1.96,2.27-2.98,2.89l-.5-1.09c1.06-.6,2.05-1.53,2.98-2.81ZM782.08,649.87c.34.67.65,1.36.93,2.09l-1.03.47c-.24-.7-.53-1.4-.86-2.09l.96-.47ZM787.74,650.27c-.4,1.08-.72,1.82-.98,2.23l-.97-.47c.33-.63.65-1.37.96-2.23l1,.47Z"/>
        <path class="cls-4" d="M795.67,645.85v2.88h1.88v1.35h-1.88v.23c.45,1.06,1.11,2.15,1.97,3.25l-.67,1.28c-.55-.91-.99-1.78-1.3-2.6v8.4h-1.11v-8.24c-.56,1.68-1.32,3.2-2.26,4.56l-.51-1.56c.55-.67,1.11-1.6,1.66-2.79.45-.97.79-1.81,1-2.53h-2.41v-1.35h2.52v-2.67c-.89.13-1.67.2-2.34.21l-.24-1.33c.86-.01,1.79-.11,2.8-.28.89-.16,1.64-.38,2.26-.65l.53,1.32c-.62.21-1.25.39-1.9.53ZM803.77,653.78l1.36-.37.15,1.44-1.51.4v5.38h-1.16v-5.09l-4.96,1.32-.15-1.42,5.11-1.35v-10.08h1.16v9.77ZM798.8,649.31c.96.7,1.81,1.53,2.54,2.47l-.8,1.12c-.62-.89-1.42-1.72-2.41-2.51l.68-1.09ZM799.43,644.85c.94.73,1.79,1.57,2.54,2.53l-.79,1.14c-.71-.97-1.51-1.84-2.41-2.61l.67-1.05Z"/>
        <path class="cls-4" d="M808.25,652.54c0-.53.01-.81.01-.86v-6.03h4.49v-1.61h1.16v1.61h5.39v1.33h-9.92v4.68c0,3.88-.69,6.87-2.08,8.96l-.91-1.11c.61-.95,1.05-1.95,1.33-3,.18-.69.32-1.5.42-2.42-.45.33-1.11.74-1.98,1.25l-.19-1.58c.73-.3,1.49-.71,2.29-1.23ZM806.9,647.03c.44,1.15.75,2.27.93,3.39l-1.05.47c-.12-1.02-.39-2.14-.8-3.37l.93-.49ZM814.72,651.75h4.09v7.49c0,.92-.36,1.39-1.07,1.39h-1.72l-.19-1.44h1.25c.28,0,.45-.05.53-.14.05-.09.08-.27.08-.53v-5.56h-2.63c.26.85.63,1.6,1.11,2.25.39.53.87,1.04,1.46,1.53l-.68,1.14c-1.23-1.25-2.09-2.58-2.59-4-.07.32-.14.57-.21.75-.4,1.29-1.08,2.39-2.04,3.32l-.67-1.16c1.09-.91,1.79-2.19,2.09-3.82h-2.18v7.67h-1.12v-8.88h3.46c.06-.53.09-1.16.11-1.91h-4.03v-1.28h9.53v1.28h-4.45c-.03.67-.07,1.3-.14,1.91Z"/>
        <path class="cls-4" d="M820.7,644.52h3.89v1.23c-.17.81-.36,1.57-.58,2.28-.09.33-.32,1.02-.68,2.07.84,1.27,1.26,2.7,1.26,4.28,0,1.73-.55,2.6-1.66,2.6h-.69l-.18-1.42h.73c.48,0,.72-.47.72-1.42,0-.63-.12-1.32-.36-2.07-.21-.67-.51-1.3-.9-1.91.57-1.54.97-2.99,1.21-4.33h-1.63v14.84h-1.12v-16.14ZM833.55,653.43h-2.92v5.14c0,.22.03.38.08.46.06.09.16.14.32.14h.78c.29,0,.48-.12.54-.37.07-.3.13-.99.17-2.05l1.11.35c-.07,1.42-.18,2.32-.31,2.72-.1.32-.28.53-.54.63-.13.05-.34.07-.64.07h-1.51c-.32,0-.54-.03-.65-.09-.23-.12-.37-.37-.43-.75-.02-.12-.03-.4-.03-.86v-5.38h-1.41c-.02,1.86-.34,3.4-.97,4.61-.61,1.17-1.57,2.02-2.87,2.56l-.51-1.32c1.16-.43,2-1.16,2.49-2.17.47-.95.71-2.18.71-3.68h-2.18v-1.35h8.77v1.35ZM828.48,644.01h1.15v1.67h3.59v3.75h-1.11v-2.42h-6.14v2.42h-1.09v-3.75h3.6v-1.67ZM831.86,650.12h-5.65v-1.3h5.65v1.3Z"/>
        <path class="cls-4" d="M836.35,644.98l1.36.14c-.42,2.41-.64,5.12-.64,8.14,0,2.7.14,4.82.43,6.37l-1.37.14c-.24-1.87-.36-3.97-.36-6.3,0-3.29.19-6.12.58-8.49ZM840.16,652.38l1.16.46c-.47.83-.71,1.66-.71,2.47,0,.48.13.85.4,1.12.3.29.65.47,1.07.54.44.08.94.12,1.48.12,1.16,0,2.24-.07,3.24-.21v1.7c-.97.09-1.87.14-2.7.14-1.41,0-2.45-.16-3.12-.49-1.04-.54-1.57-1.48-1.57-2.82,0-.96.25-1.97.73-3.03ZM839.85,646.43h6.67v1.58h-6.67v-1.58Z"/>
        <path class="cls-4" d="M850.22,644.82l1.32.12c-.41,2.72-.61,5.47-.61,8.24,0,2.51.15,4.6.44,6.26l-1.28.23c-.27-1.7-.4-3.9-.4-6.61,0-2.85.17-5.6.53-8.24ZM858.46,647.89h2.65v1.54h-2.65l.04,4.75c1.13.69,2.08,1.57,2.85,2.63l-.83,1.46c-.54-.9-1.22-1.68-2.06-2.35v.65c0,.83-.11,1.44-.3,1.84-.4.83-1.21,1.25-2.42,1.25-.9,0-1.61-.26-2.13-.77-.6-.6-.9-1.37-.9-2.33,0-.81.23-1.5.68-2.07.57-.72,1.39-1.09,2.44-1.09.46,0,.95.09,1.46.28l-.06-4.24h-4.29v-1.54h4.25l-.03-3.03h1.29l.03,3.03ZM857.27,655.15c-.48-.27-.97-.4-1.46-.4s-.9.11-1.26.33c-.49.3-.73.8-.73,1.47,0,.61.2,1.06.6,1.37.32.25.74.37,1.25.37.78,0,1.27-.27,1.47-.81.09-.27.14-.68.14-1.23v-1.1Z"/>
        <path class="cls-4" d="M864.66,653.17c-.4.55-.91,1.13-1.52,1.75l-.46-1.65c1.41-1.27,2.64-3.17,3.69-5.68l1,.65c-.49,1.22-.99,2.26-1.5,3.12v9.3h-1.21v-7.49ZM866.94,644.4c-.39.96-.91,1.9-1.57,2.82-.65.91-1.33,1.65-2.04,2.23l-.64-1.44c1.26-.87,2.33-2.26,3.23-4.19l1.01.58ZM876.09,649.7v1.46h-2.27v8.03c0,.57-.1.96-.3,1.17-.19.2-.51.3-.96.3h-2.44l-.21-1.63,2.29.02c.14,0,.24-.02.29-.05.08-.06.12-.2.12-.44v-7.4h-5.09v-1.46h8.56ZM875.54,644.77v1.4h-7.43v-1.4h7.43Z"/>
        <path class="cls-4" d="M884.78,648.36c.14.75.3,1.46.49,2.14,1.82-.13,3.21-.33,4.16-.61l.12,1.49c-.89.21-2.09.38-3.6.49l-.22.02c.42,1.1.93,2.09,1.51,2.98l-1.09.98c-.71-1.09-1.31-2.38-1.79-3.89-.06.01-.63.02-1.69.04l-.28.02-4.49-.04v-1.46l4.31.07h.32c.06-.01.32-.02.79-.02h.62c-.15-.56-.31-1.28-.47-2.16-.43.02-.85.04-1.25.04h-3.81v-1.46l3.41.02h.32c.14,0,.51-.01,1.11-.04-.1-.76-.18-1.5-.22-2.21l1.34-.02c.04.66.1,1.37.19,2.16,1.43-.08,2.71-.25,3.84-.51l.11,1.51c-.85.19-1.99.33-3.41.42l-.32.04ZM880.14,653.78l.97.82c-.48.6-.72,1.15-.72,1.65s.22.94.67,1.26c.62.48,1.91.72,3.87.72,1.07,0,2.15-.06,3.23-.18l.03,1.6c-.83.08-1.79.12-2.88.12-1.74,0-2.97-.11-3.71-.33-.81-.26-1.44-.67-1.88-1.25-.41-.53-.61-1.12-.61-1.79,0-.87.35-1.74,1.05-2.63Z"/>
        <path class="cls-4" d="M898.9,646.63h4.54v1.39h-4.53v2.23h4.24v1.37h-4.24v2.53c1.35.61,2.76,1.7,4.24,3.26l-.83,1.53c-1.04-1.43-2.18-2.49-3.42-3.19v1.03c0,.71-.12,1.28-.33,1.7-.47.9-1.32,1.35-2.55,1.35-1.08,0-1.91-.28-2.48-.84-.58-.56-.87-1.29-.87-2.19s.34-1.71,1.01-2.33c.65-.6,1.5-.89,2.55-.89.43,0,.91.06,1.43.17v-2.12h-5.17v-1.37h5.17v-2.23h-5.38v-1.39h5.38v-1.88h1.25v1.88ZM897.67,655.12c-.47-.16-.95-.25-1.43-.25-.74,0-1.33.18-1.76.54-.42.35-.62.78-.62,1.3,0,.57.21,1.02.64,1.35.32.23.78.35,1.37.35.86,0,1.4-.29,1.63-.88.11-.3.17-.67.17-1.09v-1.33Z"/>
        <path class="cls-4" d="M909.46,648.52l5.11-.16v-.74c-.02-.91-.04-1.91-.05-3h1.3v1.02s.01,1.33.01,1.33v1.35s2.45-.07,2.45-.07v1.51s-2.42.07-2.42.07c0,.55.01.96.01,1.25,0,.42.01.69.01.81,0,1.49-.14,2.47-.43,2.95-.31.5-.89.75-1.73.75-.59,0-1.2-.08-1.82-.23l.04-1.47c.69.15,1.24.23,1.65.23s.68-.1.79-.3c.11-.21.17-.71.18-1.51,0-.13.01-.6.01-1.4v-1.03l-5.14.16v4.93c0,.94.11,1.63.33,2.07.24.48.67.78,1.29.89.34.06.99.09,1.95.09,1.57,0,2.92-.05,4.05-.16v1.56c-1.38.08-2.53.12-3.42.12-1.45,0-2.41-.05-2.88-.16-1.18-.27-1.95-1-2.3-2.21-.18-.61-.26-1.42-.26-2.44v-4.65l-2.23.07v-1.53s2.23-.07,2.23-.07v-3.74h1.26v3.7Z"/>
        <path class="cls-4" d="M924.01,644.56l1.41.49c-.78,2.15-1.51,4.49-2.19,7.02.33-.34.6-.58.8-.72.4-.28.83-.42,1.29-.42.84,0,1.46.39,1.87,1.18.29.56.43,1.58.43,3.05v.77c0,.63.05,1.12.14,1.46.06.25.19.44.39.58.2.16.44.25.71.25.91,0,1.55-.71,1.91-2.12.29-1.16.45-2.44.47-3.84l1.23.35c-.15,4.79-1.37,7.19-3.67,7.19-1.02,0-1.72-.46-2.11-1.39-.21-.48-.32-1.33-.32-2.54v-.46c0-.76-.04-1.34-.11-1.75-.06-.39-.2-.68-.4-.88-.21-.21-.46-.32-.75-.32-.62,0-1.21.37-1.79,1.11-.3.39-.59.91-.84,1.58-.36,1.23-.73,2.75-1.09,4.58l-1.34-.53.42-1.58c1.16-4.43,1.9-7.25,2.25-8.47.12-.44.45-1.59.98-3.44.12-.39.23-.77.32-1.14Z"/>
        <path class="cls-4" d="M934.8,660.59h-1.12c.56-.92,1.02-1.85,1.36-2.79.72-1.92,1.08-3.82,1.08-5.72,0-2.22-.47-4.41-1.41-6.58-.27-.62-.61-1.27-1.03-1.95h1.12c.53.85.97,1.71,1.32,2.56.84,2.06,1.26,4.05,1.26,5.96,0,2.2-.53,4.44-1.59,6.72-.27.57-.6,1.17-.98,1.79Z"/>
      </g>
      <g>
        <path class="cls-4" d="M701.55,228.5c2.07,0,3.82.72,5.26,2.16,1.44,1.44,2.16,3.17,2.16,5.21s-.72,3.77-2.16,5.21c-1.44,1.44-3.17,2.16-5.21,2.16s-3.77-.72-5.21-2.16c-1.44-1.44-2.16-3.17-2.16-5.21s.72-3.75,2.16-5.21c.78-.79,1.74-1.39,2.86-1.77.75-.26,1.51-.39,2.3-.39Z"/>
        <path class="cls-4" d="M722.44,241.59c-1.59.6-3.2,1.12-4.84,1.56l-.44-1.53c.72-.18,1.73-.45,3.02-.82,1.02-.3,1.77-.54,2.26-.72v-6.61h-5.19v-1.46h5.19v-4.47h1.51v16.66h-1.51v-2.61ZM726.47,227.54h1.53v5.77c1.81-1.01,3.39-2.1,4.72-3.3l1.04,1.28c-1.52,1.27-3.44,2.5-5.75,3.68v6.89c0,.2.04.33.11.4.08.1.26.16.54.16h2.75c.33,0,.54-.06.65-.19.26-.27.39-1.34.39-3.21l1.51.53c-.11,1.85-.25,3-.44,3.46-.25.61-.75.91-1.53.91h-3.98c-1.02,0-1.53-.44-1.53-1.32v-15.07Z"/>
        <path class="cls-4" d="M739.54,233.49c.61,1.24,1.46,2.44,2.54,3.61l-.79,1.21c-.71-.88-1.3-1.81-1.75-2.81v8.65h-1.44v-8.98c-.56,1.79-1.4,3.46-2.51,5.02l-.68-1.67c1.34-1.67,2.4-3.73,3.17-6.17h-2.79v-1.37h2.81v-3.44h1.44v3.44h2.4v1.37h-2.4v1.14ZM745.61,227.84c-.2,1.36-.55,2.71-1.05,4.05-.56,1.49-1.25,2.75-2.05,3.81l-1.25-1c.88-1.08,1.53-2.18,1.95-3.31.4-1.06.72-2.32.98-3.77l1.42.23ZM744.29,241.96h.07c2.4-.2,4.13-.37,5.19-.53-.53-1.33-1.1-2.56-1.74-3.67l1.21-.61c.6.91,1.16,1.98,1.7,3.19.49,1.13.88,2.2,1.16,3.21l-1.47.61c-.12-.49-.25-.98-.4-1.47-1.79.33-4.56.63-8.31.89l-.23-1.47c.7-.02,1.16-.04,1.39-.05.46-1.11.92-2.46,1.39-4.05.47-1.56.82-2.96,1.05-4.23l1.47.3c-.77,3.16-1.6,5.78-2.47,7.88ZM751.03,235.91c-.81-.92-1.51-2.17-2.1-3.74-.53-1.4-.91-2.84-1.14-4.31l1.42-.21c.54,2.91,1.52,5.29,2.95,7.14l-1.12,1.12Z"/>
        <path class="cls-4" d="M754.78,231.61h13.77v6.45h-12.26c-.19,2.76-.87,4.85-2.05,6.26l-1.26-1.16c.64-.83,1.09-1.75,1.35-2.75.3-1.17.46-2.22.46-3.14v-5.67ZM769.78,228.24v1.42h-16.66v-1.42h16.66ZM767.06,232.99h-10.7v3.67h10.7v-3.67Z"/>
        <path class="cls-4" d="M771.73,243.27l-.96-.47c.41-1.2.63-2.56.67-4.05l.95.03c-.06,1.79-.28,3.29-.65,4.49ZM778.94,228.08v1.19h-2.54v1.56h2.19v1.1h-2.19v1.63h2.19v1.12h-2.19v1.77h2.42c-.08,3.38-.37,5.59-.86,6.63-.36.74-1.01,1.1-1.95,1.1h-2.02l-.26-1.35,2.05.04c.33,0,.57-.06.74-.19.55-.42.87-2.11.95-5.07h-5.91v-9.54h7.38ZM773.88,242.1l-.95.09c.04-.5.05-1.03.05-1.58,0-.64-.03-1.25-.09-1.82l.81-.02c.1,1.25.16,2.36.17,3.33ZM775.11,229.28h-2.18v1.56h2.18v-1.56ZM775.11,231.94h-2.18v1.63h2.18v-1.63ZM775.11,234.7h-2.18v1.77h2.18v-1.77ZM775.45,241.64l-.82.18c0-.96-.1-1.97-.3-3.03l.74-.1c.22,1.1.35,2.09.39,2.96ZM776.81,240.92l-.74.18c-.08-.92-.23-1.74-.44-2.46l.7-.14c.22.78.38,1.59.47,2.42ZM780.13,228.08h7.12v7.52h-2.53c.26,2.82,1.34,5.24,3.26,7.28l-.96,1.33c-2.07-2.16-3.28-5.03-3.63-8.61h-1.88v.77c0,3.27-.72,5.89-2.16,7.84l-1.1-1.05c1.25-1.72,1.88-4,1.88-6.86v-8.23ZM785.81,229.47h-4.3v4.77h4.3v-4.77Z"/>
        <path class="cls-4" d="M791.69,228.22h6.54v.72c0,4.89,1.49,8.69,4.47,11.42.92.85,2.01,1.62,3.26,2.3l-1.05,1.46c-4.16-2.55-6.65-5.92-7.47-10.12-.48,2.14-1.23,3.95-2.26,5.42-1.27,1.82-3.07,3.4-5.38,4.72l-1-1.42c1.65-.78,3.02-1.75,4.1-2.91,1.98-2.07,3.16-4.57,3.54-7.51.09-.63.14-1.48.14-2.56h-4.89v-1.51Z"/>
        <path class="cls-4" d="M822.56,228.84v14.82h-14.44v-14.82h14.44ZM821,230.33h-11.31v11.86h11.31v-11.86Z"/>
      </g>
      <g>
        <path class="cls-4" d="M247.24,254.87c2.07,0,3.82.72,5.26,2.16s2.16,3.17,2.16,5.21-.72,3.77-2.16,5.21-3.17,2.16-5.21,2.16-3.77-.72-5.21-2.16-2.16-3.17-2.16-5.21.72-3.75,2.16-5.21c.78-.79,1.74-1.39,2.86-1.77.75-.26,1.51-.39,2.3-.39Z"/>
        <path class="cls-4" d="M262.9,256.63h7.56v-2.75h1.56v2.75h7.56v1.46h-7.56v3.44h5.77v8.61h-13.1v-8.61h5.77v-3.44h-7.56v-1.46ZM266.2,262.91v5.84h10.1v-5.84h-10.1Z"/>
        <path class="cls-4" d="M291.81,261.59c-.1,2.26-.67,4.09-1.68,5.51-1.05,1.44-2.71,2.42-4.96,2.95l-.7-1.26c2.2-.42,3.75-1.32,4.67-2.7.73-1.09,1.13-2.58,1.21-4.49h-3.74c-.68,1.27-1.58,2.33-2.7,3.17l-1.07-1.03c1.1-.79,1.93-1.72,2.49-2.77.41-.79.74-1.94,1-3.42l1.56.11c-.19.92-.42,1.78-.7,2.56h8.19v1.39h-3.56Z"/>
        <path class="cls-4" d="M299.18,256.38h1.25v11.58h1.07v-14.07h1.23v14.07h1.1v-11.58h1.21v12.94h-5.86v-12.94ZM310.84,255.45h4.26v1.3h-3.42c.54.7,1.03,1.23,1.47,1.58.54.4,1.26.74,2.17,1.03l-.6,1.33c-1.53-.58-2.75-1.48-3.67-2.68-.26-.35-.47-.7-.65-1.05-.23.54-.5.99-.79,1.35-.75.97-1.87,1.75-3.37,2.35l-.72-1.3c1.79-.61,2.95-1.48,3.49-2.61h-3.28v-1.3h3.67c.08-.42.13-.94.14-1.56h1.44c-.02.57-.08,1.09-.16,1.56ZM315.51,261.01v1.3h-1.11v6.91c0,.49-.1.84-.3,1.04-.22.21-.58.32-1.07.32h-2.53l-.25-1.42,2.16.02c.22,0,.38-.05.47-.14.06-.07.09-.25.09-.54v-6.17h-7.4v-1.3h9.93ZM311.51,263.41v4.75h-5.14v-4.75h5.14ZM310.25,264.61h-2.58v2.35h2.58v-2.35Z"/>
      </g>
      <g>
        <path class="cls-4" d="M256.98,450.85c.61,1.24,1.46,2.44,2.54,3.61l-.79,1.21c-.71-.88-1.3-1.81-1.75-2.81v8.65h-1.44v-8.98c-.56,1.79-1.4,3.46-2.51,5.02l-.68-1.67c1.34-1.67,2.4-3.73,3.17-6.17h-2.79v-1.37h2.81v-3.44h1.44v3.44h2.4v1.37h-2.4v1.14ZM263.04,445.2c-.2,1.36-.55,2.71-1.05,4.05-.56,1.49-1.25,2.75-2.05,3.81l-1.25-1c.88-1.08,1.53-2.18,1.95-3.31.4-1.06.73-2.32.98-3.77l1.42.23ZM261.73,459.32h.07c2.4-.2,4.13-.37,5.19-.53-.53-1.33-1.1-2.56-1.74-3.67l1.21-.61c.6.91,1.16,1.98,1.7,3.19.49,1.13.88,2.2,1.16,3.21l-1.47.61c-.12-.49-.25-.98-.4-1.47-1.79.33-4.56.63-8.31.89l-.23-1.47c.7-.02,1.16-.04,1.39-.05.46-1.11.92-2.46,1.39-4.05.47-1.56.82-2.96,1.05-4.23l1.47.3c-.77,3.16-1.6,5.78-2.47,7.88ZM268.46,453.27c-.81-.92-1.51-2.17-2.1-3.74-.53-1.4-.91-2.84-1.14-4.31l1.42-.21c.54,2.91,1.52,5.29,2.95,7.14l-1.12,1.12Z"/>
        <path class="cls-4" d="M272.22,448.97h13.77v6.45h-12.26c-.19,2.76-.87,4.85-2.05,6.26l-1.26-1.16c.64-.83,1.09-1.75,1.35-2.75.3-1.17.46-2.22.46-3.14v-5.67ZM287.22,445.61v1.42h-16.66v-1.42h16.66ZM284.5,450.36h-10.7v3.67h10.7v-3.67Z"/>
        <path class="cls-4" d="M293.25,447.5h3.31c-.39-.76-.82-1.47-1.3-2.14l1.37-.61c.68.99,1.2,1.91,1.56,2.75h2.42c.49-.77.92-1.64,1.28-2.6l1.51.54c-.3.69-.68,1.37-1.12,2.05h2.47v4.05h-1.46v-2.75h-12.87v2.75h-1.49v-4.05h2.65c-.36-.63-.78-1.27-1.25-1.91l1.37-.63c.6.82,1.11,1.67,1.54,2.54ZM302.37,450.13v4.37h-4.81c-.06.16-.13.4-.21.72-.08.26-.16.5-.25.74h6.77v5.28h-14.1v-5.28h5.77c.14-.32.3-.8.47-1.46h-4.7v-4.37h11.05ZM302.4,457.2h-11.17v2.74h11.17v-2.74ZM300.91,451.31h-8.14v2h8.14v-2Z"/>
        <path class="cls-4" d="M316.63,456.76c.84.7,1.65,1.26,2.44,1.68,1.13.62,2.48,1.12,4.03,1.49l-.86,1.33c-1.58-.53-2.89-1.1-3.95-1.72-.63-.37-1.34-.89-2.12-1.54-.14-.13-.36-.32-.67-.58v4.1h-1.42v-4.09c-1.57,1.57-3.81,2.84-6.72,3.81l-.79-1.3c1.59-.47,2.88-.96,3.88-1.47.88-.44,1.73-1.02,2.56-1.72h-6.49v-1.21h7.56v-1.33h-6.3v-1.14h6.3v-1.26h-6.77v-1.19h3.88c-.16-.64-.35-1.21-.54-1.7h-4.12v-1.25h2.93c-.22-.55-.6-1.31-1.12-2.28l1.46-.47c.5.92.89,1.84,1.18,2.75h1.49v-2.74h1.4v2.74h1.91v-2.74h1.4v2.74h1.44c.51-.99.92-1.91,1.21-2.75l1.46.47c-.21.56-.6,1.32-1.16,2.28h3v1.25h-4.17c-.16.55-.35,1.12-.56,1.7h4.02v1.19h-6.89v1.26h6.4v1.14h-6.4v1.33h7.61v1.21h-6.49ZM317.42,448.92h-5.24c.12.33.2.6.26.82.14.49.22.78.25.88h4.23c.2-.49.37-1.06.51-1.7Z"/>
        <path class="cls-4" d="M325.56,448.76h6.37v6.6h-4.93c-.12,2.65-.61,4.72-1.49,6.19l-1.23-1.09c.85-1.45,1.28-3.34,1.28-5.68v-6.02ZM332.56,445.5v1.37h-8.03v-1.37h8.03ZM330.5,450.11h-3.51v3.86h3.51v-3.86ZM340.75,446.15c-.97.37-1.95.66-2.93.84-.76.15-1.77.29-3.02.4v3.05h6.28v1.4h-2.14v9.73h-1.47v-9.73h-2.67v.42c0,1.66-.19,3.3-.56,4.91-.39,1.63-1.1,3.07-2.14,4.33l-1.33-1.02c.91-.95,1.56-2.02,1.93-3.23.42-1.38.63-2.9.63-4.56v-6.6c1.09-.02,2.23-.15,3.42-.39,1.18-.22,2.23-.53,3.14-.91l.86,1.33Z"/>
        <path class="cls-4" d="M356.67,445.87c2.07,0,3.82.72,5.26,2.16s2.16,3.17,2.16,5.21-.72,3.77-2.16,5.21-3.17,2.16-5.21,2.16-3.77-.72-5.21-2.16-2.16-3.17-2.16-5.21.72-3.75,2.16-5.21c.78-.79,1.74-1.39,2.86-1.77.75-.26,1.51-.39,2.3-.39Z"/>
      </g>
    </g>
  </g>
</svg>