<?xml version="1.0" encoding="UTF-8"?>
<svg id="_レイヤー_1" xmlns="http://www.w3.org/2000/svg" version="1.1" viewBox="0 0 1920 1920">
  <!-- Generator: Adobe Illustrator 29.1.0, SVG Export Plug-In . SVG Version: 2.1.0 Build 142)  -->
  <defs>
    <style>
      .st0 {
        fill: #c6c6c6;
      }

      .st1 {
        fill: #fff;
      }

      .st2 {
        fill: #dcdddd;
      }

      .st3 {
        fill: #001545;
      }
    </style>
  </defs>
  <g>
    <path class="st1" d="M385.2,716.8h444.3c11.6,0,21.1,9.4,21.1,21.1v444.3c0,11.6-9.4,21.1-21.1,21.1h-444.3c-11.6,0-21.1-9.4-21.1-21.1v-444.4c.1-11.6,9.5-21,21.1-21Z"/>
    <g>
      <path class="st1" d="M944.7,808.2h-37v-91.5h35.6c17,0,27.6,9.6,27.6,25s-6.2,17-12.3,19.4c7.1,2.8,13.8,9.6,13.8,21.2,0,17-11.5,25.9-27.7,25.9h0ZM942.1,729.2h-20.6v26.2h20.6c8.9,0,14.9-4.6,14.9-13.1s-6-13.1-14.9-13.1h0ZM943.4,767.9h-21.8v27.9h21.8c9.6,0,15-5.9,15-14s-5.4-13.9-15-13.9Z"/>
      <path class="st1" d="M1029.2,808.2v-6.5c-4.5,4.9-10.8,7.3-17.3,7.3s-12.2-2.2-16.1-5.9c-5-4.9-6.5-11-6.5-18.4v-41.6h13.1v39.7c0,10.2,5.8,14.5,13.1,14.5s13.5-4.5,13.5-14.5v-39.7h13.1v65.1h-12.9Z"/>
      <path class="st1" d="M1083.5,809c-10.7,0-19.7-1.8-27.4-9.4l8.6-8.6c5.3,5.4,12.3,6.8,18.8,6.8s14.3-2.8,14.3-9-2.4-7.1-8.7-7.7l-10.4-.9c-12.3-1.2-19.3-6.5-19.3-18s10.9-19.9,24.5-19.9,18.1,2,24.2,7.3l-8.2,8.3c-4.1-3.5-9.9-4.8-16.1-4.8s-11.8,3.3-11.8,8.3,2.6,6.8,9,7.5l9.1.8c13.5,1.2,20.6,7.1,20.6,18.5,0,13.8-11.6,20.8-27.2,20.8h0Z"/>
      <path class="st1" d="M907.7,932.3v-91.5h13.9v91.5h-13.9Z"/>
      <path class="st1" d="M981.8,932.3v-39.7c0-10.2-5.8-14.5-13.1-14.5s-13.5,4.5-13.5,14.5v39.7h-13.1v-65.1h12.9v6.5c4.5-4.9,10.8-7.3,17.3-7.3s12.2,2.2,16.1,5.9c5,4.9,6.5,11,6.5,18.4v41.6h-13.1Z"/>
      <path class="st1" d="M1028.6,877.2v55.1h-13.1v-55.1h-7.5v-10h7.5v-8.9c0-9.4,5.7-18.1,17.9-18.1h8.2v11.2h-5.8c-4.9,0-7.2,2.8-7.2,7.6v8.2h13v10h-13Z"/>
      <path class="st1" d="M1098.3,925.4c-4.2,4.4-10.7,7.7-19.5,7.7s-15.2-3.3-19.4-7.7c-6.2-6.4-7.7-14.7-7.7-25.7s1.5-19.1,7.7-25.6c4.2-4.4,10.5-7.7,19.4-7.7s15.3,3.3,19.5,7.7c6.2,6.4,7.7,14.6,7.7,25.6s-1.5,19.3-7.7,25.7ZM1088.4,881.8c-2.4-2.4-5.8-3.7-9.6-3.7s-7.1,1.3-9.5,3.7c-4,4-4.5,10.8-4.5,17.9s.5,13.9,4.5,17.9,5.7,3.8,9.5,3.8,7.2-1.4,9.6-3.8c4-4,4.5-10.8,4.5-17.9s-.5-13.9-4.5-17.9Z"/>
      <path class="st1" d="M1158.8,882.5c-2.9-3-5.3-4.4-9.8-4.4-7.1,0-13,5.7-13,14.7v39.6h-13.1v-65.1h12.8v7.1c3.3-4.6,10-7.8,17.3-7.8s11.1,1.7,15.5,6.2l-9.7,9.7h0Z"/>
      <path class="st1" d="M1260.2,932.3v-39.7c0-10.2-5.8-14.5-13.1-14.5s-13.5,4.5-13.5,13.9v40.3h-13.1v-39.7c0-10.2-5.8-14.5-13.1-14.5s-13.5,4.5-13.5,14.5v39.7h-13.1v-65.1h12.8v6.5c4.4-4.8,10.8-7.3,17.3-7.3s14.4,3.2,18.5,9.5c5.3-6.4,11.8-9.5,20.4-9.5s12.6,2.2,16.4,5.9c5,4.9,6.9,11,6.9,18.4v41.6h-12.9Z"/>
      <path class="st1" d="M1327.9,932.3v-5.9c-4.8,4.8-9.2,6.7-17.3,6.7s-13.5-1.9-17.5-5.9c-3.3-3.5-5.1-8.5-5.1-14,0-10.9,7.6-18.8,22.6-18.8h17.1v-4.6c0-8.3-4-12.2-14.3-12.2s-10.5,1.8-14.3,6.4l-8.5-8.1c6-7.2,12.3-9.5,23.2-9.5,18,0,26.8,7.7,26.8,22.3v43.5h-12.7ZM1327.6,903.5h-15c-8,0-11.9,3.3-11.9,9.4s3.7,9.2,12.3,9.2,8.3-.5,11.8-3.7c2.1-1.9,2.8-5,2.8-9.6v-5.3h0Z"/>
      <path class="st1" d="M1379.1,932.3c-12.2,0-17.9-8.7-17.9-18.1v-37h-7.4v-10h7.4v-18.6h13.1v18.6h12.6v10h-12.6v36.4c0,4.8,2.3,7.6,7.2,7.6h5.4v11.2h-7.8Z"/>
      <path class="st1" d="M1401.7,854.3v-13.9h13.9v13.9h-13.9ZM1402,932.3v-65.1h13.1v65.1h-13.1Z"/>
      <path class="st1" d="M1478.4,925.4c-4.2,4.4-10.7,7.7-19.5,7.7s-15.2-3.3-19.4-7.7c-6.2-6.4-7.7-14.7-7.7-25.7s1.5-19.1,7.7-25.6c4.2-4.4,10.5-7.7,19.4-7.7s15.3,3.3,19.5,7.7c6.2,6.4,7.7,14.6,7.7,25.6s-1.5,19.3-7.7,25.7ZM1468.5,881.8c-2.4-2.4-5.8-3.7-9.6-3.7s-7.1,1.3-9.5,3.7c-4,4-4.5,10.8-4.5,17.9s.5,13.9,4.5,17.9,5.7,3.8,9.5,3.8,7.2-1.4,9.6-3.8c4-4,4.5-10.8,4.5-17.9s-.5-13.9-4.5-17.9Z"/>
      <path class="st1" d="M1542.7,932.3v-39.7c0-10.2-5.8-14.5-13.1-14.5s-13.5,4.5-13.5,14.5v39.7h-13.1v-65.1h12.8v6.5c4.5-4.9,10.8-7.3,17.3-7.3s12.2,2.2,16.1,5.9c5,4.9,6.6,11,6.6,18.4v41.6h-13.1Z"/>
      <path class="st1" d="M944.7,1054.9h-37v-91.5h35.6c17,0,27.6,9.6,27.6,25s-6.2,17-12.3,19.4c7.1,2.8,13.8,9.6,13.8,21.2,0,16.9-11.5,25.8-27.7,25.9h0ZM942.1,975.8h-20.6v26.2h20.6c8.9,0,14.9-4.6,14.9-13.1s-6-13-14.9-13.1h0ZM943.4,1014.5h-21.8v27.9h21.8c9.6,0,15-5.9,15-14s-5.4-13.9-15-13.9Z"/>
      <path class="st1" d="M1034.4,1047.9c-4.2,4.4-10.7,7.7-19.5,7.7s-15.2-3.3-19.4-7.7c-6.2-6.4-7.7-14.7-7.7-25.7s1.5-19.1,7.7-25.6c4.2-4.4,10.5-7.7,19.4-7.7s15.3,3.3,19.5,7.7c6.2,6.4,7.7,14.6,7.7,25.6s-1.6,19.3-7.7,25.7ZM1024.5,1004.4c-2.4-2.4-5.8-3.7-9.6-3.7s-7.1,1.3-9.5,3.7c-4,4-4.5,10.8-4.5,17.9s.5,13.9,4.5,17.9,5.7,3.8,9.5,3.8,7.2-1.4,9.6-3.8c4-4,4.5-10.8,4.5-17.9s-.5-14-4.5-17.9Z"/>
      <path class="st1" d="M1095,1054.9v-5.9c-4.8,4.8-9.2,6.7-17.3,6.7s-13.5-1.9-17.5-5.9c-3.3-3.5-5.1-8.5-5.1-14,0-10.9,7.6-18.8,22.6-18.8h17.1v-4.6c0-8.3-4-12.2-14.3-12.2s-10.5,1.8-14.3,6.4l-8.5-8.1c6-7.2,12.3-9.5,23.2-9.5,18,0,26.8,7.7,26.8,22.3v43.5h-12.7ZM1094.8,1026.1h-15c-8,0-11.9,3.3-11.9,9.4s3.7,9.2,12.3,9.2,8.3-.5,11.8-3.7c2.1-1.9,2.8-5,2.8-9.6v-5.3h0Z"/>
      <path class="st1" d="M1162.8,1005c-2.9-3-5.3-4.4-9.8-4.4-7.1,0-13,5.7-13,14.7v39.6h-13v-65.1h12.8v7.1c3.3-4.6,10-7.8,17.3-7.8s11.1,1.7,15.5,6.2l-9.8,9.7h0Z"/>
      <path class="st1" d="M1221.3,1054.9v-6.9c-4.9,5.9-10.2,7.7-17.2,7.7s-12.3-2.2-15.9-5.8c-6.3-6.4-7.3-16.8-7.3-27.6s1-21.1,7.3-27.5c3.6-3.6,9.2-5.8,15.8-5.8s12.3,1.7,17.1,7.3v-32.9h13.1v91.5h-12.9ZM1207.5,1000.7c-11.9,0-13.6,10-13.6,21.6s1.7,21.7,13.6,21.7,13.5-10.2,13.5-21.7-1.7-21.6-13.5-21.6Z"/>
      <path class="st1" d="M931.9,1178.2c-13.8,0-23.5-3.2-32.4-12.1l9.1-9.1c6.7,6.7,14.3,8.9,23.5,8.9s18.9-5.1,18.9-14.1-1-7.3-3.6-9.5c-2.3-2.1-5.4-3.2-10-3.8l-10.8-1.5c-7.5-1.2-13.2-3.5-17.2-7.3-4.5-4.1-6.8-10-6.8-17.6,0-15.9,11.6-26.7,30.6-26.7s20.6,3.1,28.4,10.4l-8.7,8.7c-5.7-5.4-12.3-7.1-20.2-7.1s-16.6,5.9-16.6,14.3.9,6.4,3.3,8.5c2.3,2.1,5,3.3,10,4.1l10.9,1.7c8.3,1.3,13,3.2,17,6.8,4.9,4.5,7.5,10.8,7.5,18.8,0,16.6-13.6,26.6-32.9,26.6h0Z"/>
      <path class="st1" d="M1000.2,1190.4c-1.3,3.6-2.8,6.2-4.8,8.1-3.6,3.6-8.3,4.8-13.4,4.8h-5.3v-11.8h3.3c5.5,0,7.5-1.7,9.4-6.9l3.6-10.2-22.7-62.1h13.9l15.5,45.9,15.2-45.9h14l-28.7,78.1h0Z"/>
      <path class="st1" d="M1061.5,1178.2c-10.7,0-19.7-1.8-27.4-9.4l8.6-8.6c5.3,5.4,12.3,6.8,18.8,6.8s14.3-2.8,14.3-9-2.4-7.1-8.7-7.7l-10.4-.9c-12.3-1.2-19.3-6.6-19.3-18s10.9-19.9,24.5-19.9,18.1,2.1,24.2,7.3l-8.2,8.3c-4.1-3.5-9.9-4.8-16.1-4.8s-11.8,3.3-11.8,8.3,2.6,6.8,9,7.4l9.1.8c13.5,1.2,20.6,7.1,20.6,18.5,0,13.8-11.7,20.9-27.2,20.9h0Z"/>
      <path class="st1" d="M1124.5,1177.4c-12.2,0-17.9-8.7-17.9-18.1v-37h-7.4v-10h7.4v-18.6h13.1v18.6h12.6v10h-12.6v36.4c0,4.8,2.3,7.6,7.2,7.6h5.4v11.2h-7.8Z"/>
      <path class="st1" d="M1156.6,1148.6c0,11.3,5.8,18.2,16.6,18.2s11.2-2.1,15.8-6.7l8.3,7.8c-6.7,6.7-13,10.2-24.4,10.2-16.3,0-29.3-8.6-29.3-33.4s10.9-33.3,27.6-33.3,27.6,12.6,27.6,31.6v5.5h-42.2ZM1184.1,1130.6c-2.2-4.9-6.7-8.2-12.8-8.2s-10.8,3.3-13,8.2c-1.3,2.8-1.5,4.9-1.7,8.9h29.3c-.2-4-.5-6.1-1.8-8.9Z"/>
      <path class="st1" d="M1294.7,1177.4v-39.7c0-10.2-5.8-14.5-13.1-14.5s-13.5,4.5-13.5,13.9v40.3h-13.1v-39.7c0-10.2-5.8-14.5-13.1-14.5s-13.5,4.5-13.5,14.5v39.7h-13.1v-65.1h12.8v6.6c4.4-4.8,10.8-7.3,17.3-7.3s14.4,3.2,18.5,9.5c5.3-6.4,11.8-9.5,20.4-9.5s12.6,2.2,16.4,5.9c5,4.9,6.9,11.1,6.9,18.4v41.6h-12.9Z"/>
    </g>
  </g>
  <g>
    <path class="st2" d="M844.5,1863.3h-7.6v11.1h-2v-26.1h9.6c4.5,0,7.9,2.8,7.9,7.5s-3.3,7.5-7.9,7.5ZM844.3,1850h-7.4v11.5h7.4c3.6,0,6.1-1.8,6.1-5.8s-2.4-5.7-6.1-5.7Z"/>
    <path class="st2" d="M868.6,1872.6c-1.3,1.3-2.9,1.9-4.9,1.9s-3.6-.7-4.9-1.9c-1.9-1.9-2.2-4.6-2.2-7.1s.3-5.2,2.2-7.1c1.3-1.3,2.9-1.9,4.9-1.9s3.6.7,4.9,1.9c1.9,1.9,2.2,4.6,2.2,7.1s-.3,5.3-2.2,7.1ZM867.4,1859.6c-1-1-2.2-1.5-3.7-1.5s-2.7.5-3.7,1.5c-1.5,1.5-1.6,3.8-1.6,5.9s0,4.4,1.6,5.9,2.2,1.5,3.7,1.5,2.7-.5,3.7-1.5c1.5-1.5,1.6-3.8,1.6-5.9s0-4.4-1.6-5.9Z"/>
    <path class="st2" d="M893.3,1874.4h-1.9l-5-14.8-5,14.8h-1.9l-5.7-17.7h2l4.5,15.5,5.1-15.5h1.8l5.1,15.5,4.5-15.5h2l-5.5,17.7h0Z"/>
    <path class="st2" d="M903.9,1865.9c0,4.5,2,7,5.8,7s3.4-.6,4.9-2.1l1.4,1.1c-1.8,1.8-3.5,2.7-6.4,2.7-4.9,0-7.5-3.2-7.5-9.1s2.6-9.1,7.1-9.1,7.1,3.2,7.1,8.6v.8h-12.4ZM913.7,1861.1c-.8-1.9-2.5-3-4.6-3s-3.7,1.1-4.6,3c-.5,1.1-.5,1.7-.6,3.3h10.4c-.1-1.7-.2-2.3-.6-3.3h0Z"/>
    <path class="st2" d="M928.8,1858.1c-3,0-4.7,2.5-4.7,5.4v10.9h-1.9v-17.7h1.9v2.3c1-1.7,3.1-2.6,5.2-2.6s3,.4,4.3,1.7l-1.4,1.4c-1.1-1.1-1.9-1.4-3.4-1.4h0Z"/>
    <path class="st2" d="M938,1865.9c0,4.5,2,7,5.8,7s3.4-.6,4.9-2.1l1.4,1.1c-1.8,1.8-3.5,2.7-6.4,2.7-4.9,0-7.5-3.2-7.5-9.1s2.6-9.1,7.1-9.1,7.1,3.2,7.1,8.6v.8h-12.4ZM947.8,1861.1c-.8-1.9-2.5-3-4.6-3s-3.7,1.1-4.6,3c-.5,1.1-.5,1.7-.6,3.3h10.4c0-1.7-.1-2.3-.6-3.3h0Z"/>
    <path class="st2" d="M967.2,1874.4v-2.3c-1.6,2.1-3.2,2.5-5.2,2.5s-3.4-.6-4.3-1.5c-1.8-1.8-2.3-4.7-2.3-7.5s.5-5.7,2.3-7.5c.9-.9,2.5-1.5,4.3-1.5s3.7.4,5.2,2.5v-10.7h1.9v26.1h-1.9ZM962.2,1858.1c-4.3,0-5,3.7-5,7.4s.7,7.4,5,7.4,5-3.7,5-7.4-.7-7.4-5-7.4Z"/>
    <path class="st2" d="M997,1873c-.9.9-2.5,1.5-4.3,1.5s-3.7-.4-5.2-2.5v2.3h-1.9v-26.1h1.9v10.7c1.6-2.1,3.2-2.5,5.2-2.5s3.4.6,4.3,1.5c1.8,1.8,2.3,4.7,2.3,7.5s-.5,5.8-2.3,7.6h0ZM992.4,1858.1c-4.3,0-5,3.7-5,7.4s.7,7.4,5,7.4,5-3.7,5-7.4-.7-7.4-5-7.4Z"/>
    <path class="st2" d="M1008.8,1879.2c-.3.9-.7,1.7-1.2,2.1-.9.8-2.2,1.1-3.3,1.1h-.9v-1.7h.7c2,0,2.6-.7,3.2-2.4l1.4-3.9-6.5-17.7h2l5.3,15.5,5.3-15.5h2l-8,22.5h0Z"/>
    <path class="st2" d="M1037.8,1850v24.4h-2v-24.4h-7.8v-1.8h17.6v1.8h-7.8Z"/>
    <path class="st2" d="M1048.6,1877.1h-1.9l10.4-31.6h1.9l-10.4,31.6Z"/>
    <path class="st2" d="M1083.1,1874.4v-21.5l-7.9,17.9h-2l-8.1-17.9v21.5h-2v-26.1h2l9.1,20.1,8.9-20.1h2v26.1h-2Z"/>
  </g>
  <g>
    <path class="st3" d="M816.2,903.7c-.2-1.6-.7-3.4-1.7-4.6-3.3-3.9-6.8-7.7-10.3-11.4-.7-.8-.9-1.5-.6-2.4.3-.9.6-1.9.9-2.8.7-2.6,1.5-5.1,2.2-7.7.3-1,.2-2-.7-2.7-.9-.8-1.9-.9-3-.5-4.2,1.7-8.3,3.4-12.4,5.2-.4.2-.8.4-1.3.6,0-.3,0-.6,0-.7,1.2-5,.5-9.8-1.1-14.6-1.5-4.3-3.2-8.6-4.8-12.9-.1-.4-.4-.8-.4-1.2-.3-1.7.3-2.4,2-2.4,1.3,0,2.6,0,3.9,0,2.2-.2,4.7.5,6.1-2.1.2-.5.8-1.1.7-1.4-.1-.4-.9-.6-1.4-.8-1-.5-2.2-.9-3.1-1.7-1.5-1.2-2.8-2.5-4.1-3.8-.3-.3-.4-.9-.4-1.3.2-1.8.6-3.6.6-5.5,0-1.5.5-2.5,1.8-3.2.7-.4,1.6-1,.9-2.3-1,.4-1.9.8-3.1,1.4-.4-2-.8-3.9-1.1-5.8,0-.5,0-1,.2-1.4,1-1.8,2-3.6,2.9-5.4.4-.8.5-1.8.7-2.7-.2,0-.3-.1-.5-.2-2.4,1.4-2.5,4.4-4.4,6.2-.9-1.8-1.6-3.6-2.6-5.1-1.4-2.1-.7-3.8.6-5.4.6-.7,1.3-1.4,1.9-2.1.3-.3.3-.8.5-1.2-.4,0-.9-.1-1.3,0-1.6.4-2.5,1.6-3.3,2.9-.4.6-.7,1.2-1.1,1.7-1.6-1.5-3.1-2.8-4.6-4.2-1.1-1-1.3-2.9-.5-4.1.1-.2.4-.3.6-.4,1.1-.2,2.3-.2,3.4-.5.7-.2,1.5-.5,2.1-.9.3-.2.4-.8.6-1.2-.4-.1-.9-.4-1.3-.4-1.4.2-2.7.5-4.2.8.3-.6.7-1.2.9-1.9.1-.3,0-.6,0-.9-.3,0-.8,0-1,.1-.7.7-1.4,1.5-1.8,2.4-.6,1.4-1,2.9-1.5,4.5-1.4-.8-2.2-1.9-2.9-3.2-1.3-2.4-.7-4.9-.1-7.3.2-.8.4-1.7.6-2.7-2,.7-2.5,2-2.7,3.6-.1,1.3-.2,2.6-.3,3.9,0,.7-.4,1.1-1.1.7-.4-.2-.8-.3-1.1-.5-1.9-1.2-3.9-2.4-5.8-3.5-1-.6-1.9-.6-2.3.2-.4.8,0,1.6,1.2,2,1.5.5,3,.9,4.5,1.4.4.2.7.7,1,1.1-.4.3-.8.7-1.2.9-1.3.6-2.7,1-4,1.6-.3.1-.6.6-.8.9.3.2.6.5,1,.6,1.6.4,3-.4,4.3-1.2,1.9-1.3,4-1.5,5.7-.3.3.2.5.6.6,1,0,.2-.5.4-.8.5-1.2.3-2.5.6-3.7,1-.3.1-.5.6-.8.9.3.2.7.7,1,.7.8,0,1.6,0,2.3-.3,2.8-1.2,5.3-.9,7.5,1.4.4.4.6,1,.9,1.5-.5.3-1,.6-1.6.8-1.8.6-3.6,1.1-5.4,1.7-.4.1-.7.7-1,1,.5.1,1,.5,1.4.4,1.8-.4,3.5-1,5.3-1.5,1.3-.3,2.6-1.3,3.8-.2,1.2,1.2,2.1,2.7,3.2,4.1,0,.1-.2.2-.3.4-.3,0-.6,0-.9,0-1.4-.3-2.7-.8-4.1-.9-.6,0-1.5.3-1.7.7-.4.9.5,1.1,1.1,1.5.2.1.5.1.7.1,1.1.1,2.3.3,3.4.3,2.1,0,3.4,1.1,4.2,2.9,1,2.6,1.3,5.4,1.4,8.2,0,.4-.1.8-.3,1.3-.6-.3-1.1-.5-1.7-.8.3-1.8.5-3.7.8-5.6-.2,0-.3-.1-.5-.2-.4.4-.9.8-1.1,1.3-.3.8-.4,1.8-.6,2.6,0,.4-.2.9-.5,1.1-.2.1-.8-.2-1-.4-.7-.8-1.5-1.7-2-2.6-.7-1.3-1.2-2.8-1.9-4.2-.2-.4-.8-.6-1.2-.8,0,.5-.1,1,0,1.4,0,.3.2.5.3.8.4,1.5-.1,2.2-1.6,2-1.7-.3-3.4-.8-5.1-1.3-.4-.1-.8-.6-1-1-.5-1.3-.8-2.7-1.2-4.1-.3-1,0-2.2-1.7-2.8-.1.6-.4,1.1-.3,1.6.1.8.5,1.6.7,2.4.3,1.1.5,2.2.8,3.6-2.2-.6-4-1-5.8-1.5-.2,0-.4-.3-.6-.6-1-1.8-.6-3.1,1.1-4.2,1-.6,1.7-1.4,1.5-2.7-1.8-.3-2.5,1.4-3.8,2.2-.2-.9-.3-1.8-.5-2.6-.1-.4-.6-.7-.9-1-.3.3-.7.6-.9,1.1-.2.4-.1.9,0,1.3.3,1,.7,1.9.9,2.8.2.9.3,1.9.6,3.2-1.9-.5-3.4-1.1-5-1.4-1.3-.2-2.2-.9-2.7-2-.9-1.7-1.7-3.5-2.6-5.2-.5-1-.9-2.1-2.5-2.6,0,1.1,0,2.1.2,2.8.7,1.6,1.5,3.1,2.4,4.6.5.8.4,1.2-.4,1.5-.7.3-1.5.6-2.2.6-1.6.1-3.2,0-4.8.1-.7,0-1.8.6-1.8.9,0,1,1.1,1.1,1.9,1.2.8.1,1.6.1,2.5.2.3,0,.5,0,.8,0-.9,1.1-1.7,2-2.4,3.1-.4.5-.7,1.3,0,1.8.7.4,1.3,0,1.7-.7.9-1.3,1.7-2.7,2.7-4,.3-.4.7-.7,1.2-.8,1.8-.5,3.5-.6,5.3,0,.9.3,1.8.4,2.8.6,1.6.4,3.3.8,5,1.2-1.3,2.7-4.4,2.4-6,4.4.9.2,1.7.4,2.4,0,.8-.3,1.3-1.1,2.1-1.5,1.2-.6,2.5-1.1,3.7-1.7,0,.1.2.3.3.4-.5.7-1,1.4-1.7,2-1.7,1.7-3.5,3.3-5.2,5-.6.6-1.1,1.3-.4,1.9.4.3,1.4.1,2-.2.6-.3.9-1,1.4-1.5,1-1.1,2.1-2.2,3.2-3.2.3.4.3.6.3.7,0,.9.1,1.8.3,2.7,0,.2.5.6.7.5.2,0,.6-.4.6-.7,0-.6,0-1.2,0-1.8-.2-1.9-.2-3.8.6-5.5,2.5.4,4.8.7,7.2,1.1.4,0,.8.4,1.5.7-1.8.8-3.3,1.3-4.7,2.1-.5.3-1,1.5-.8,1.9.4.8,1,0,1.6-.3,1.4-.7,2.8-1.7,4.2-1.8,2.5-.3,4.9,0,6.5,2.4,1.5,2.3,2.2,4.8,2.6,7.5,0,.3,0,.9-.2,1-.3.1-.8,0-1.1-.2-1.8-.9-3.5-2.1-5.4-2.8-1.1-.4-2.4-.2-3.6,0-.6,0-.8.5-.4,1.1,1.3,1.8,2.9,3.3,5,4.4-.4.5-.8.8-1.1,1.3-3,4-3.1,8.5-2.1,13.1.7,3.5,1.7,6.9,1.6,10.5,0,3-.7,5.9-2.6,8.2-2.5,3.2-5.9,5.1-9.8,6-4.1,1-8.2,1.2-12.4,1.3-3.7.1-7.4.5-10.7,2.3-1.4.7-2.6,1.8-4,2.7-.9-2.2-2.7-3.5-4.8-4.6-.8-.4-1.4-1.1-2.1-1.7-.2-.2-.3-.5-.4-.7-.1-.4-.2-.9-.4-1.3-.5.2-1.2.3-1.6.7-2.8,2.5-2,7.7,1.5,9.4,1.8.9,3.5,1.8,5.3,2.6,0,1.4-.1,3.4,0,5.3.2,3.5,2.3,6.5,3.2,9.8.3,1,.5,2,.6,3-3.5,3.2-7.4,6.7-11.6,10.3-.7-.9-.9-2-.7-3.3.3-1.3.5-2.6.7-3.8,0-.4-.2-.8-.4-1.2-.4.2-.9.4-1,.7-.4.8-.8,1.6-1,2.5-.3,1.1-.5,2.3-.7,3.3-2.1-.8-4.2-1.5-6.2-2.4-.6-.3-1.1-.9-1.4-1.6-.3-.7-.4-1.6-.5-2.4-.2-1.4-.4-2.8-.6-4.2-.1,0-.3,0-.4,0-1.2,2.2,0,4.6-.3,7.2-.9-.4-1.7-.6-2.5-1-3.3-2-5.2-5.4-1.3-8.6,0,0,.1-.1.2-.2.2-.4.5-.7.7-1.1.3-1,0-1.4-1.1-1.3-1.4.2-1.8,1.3-2.3,2.3-.2.4-.4.9-.5,1.3-.8-.7-1.5-1.4-2.2-2.1-.2.1-.4.2-.5.4.8,2.6,1.7,5.2,2.6,8.1-2.1-.1-4,.1-5.1-1.7-1.1-1.7-2.1-3.5-3.1-5.3-.4-.6-.8-1.3-1.6-.9-.8.4-.7,1.1-.3,1.8.2.4.5.8.7,1.1.8,1.2,1.6,2.4,2.5,3.6-.9,0-1.7-.3-2.4-.2-.4,0-1,.5-1.2,1,0,.3.4,1,.7,1.2.5.3,1.2.3,1.8.4,1.3.1,2.6.2,3.9.3.4,0,.7.2,1.1.4-.3.3-.6.8-.9,1-1.3.8-2.6,1.4-3.8,2.2-.4.3-.7,1.2-.6,1.6.3.9,1.2.7,1.8.3,1.4-.9,2.8-1.9,4.1-3,1.5-1.3,3.1-2.1,5.2-1.5.9.3,1.1.7.4,1.4-.6.5-1.3.9-1.8,1.4-.3.3-.4.7-.6,1.1.4,0,.9.2,1.2,0,.7-.3,1.5-.7,2.1-1.2,2.2-1.7,4.5-1.1,6.7,0,.9.5.8,1,0,1.6-.7.5-1.5,1-2.2,1.6-.9.8-2,1.4-1.6,3.1.5-.2,1.1-.3,1.4-.6,1.5-1.1,2.9-2.3,4.3-3.5.7-.6,1.5-.7,2.3-.2.9.6,1.8,1.1,2.6,1.7-3.3,2.8-6.7,5.5-10.2,8.2-.3-.7-.5-1.4-.9-2.1-.6-1.3-1.3-2.7-2.2-3.8-.3-.4-1.4-.2-2.1-.3.1.6.1,1.2.4,1.7.9,1.6,2,3.2,2.9,4.9.1.2.3.5.4.8-.6.5-1.3,1-1.9,1.4-.9,0-1.8-.2-2.6-.3-.5,0-1.2-.4-1.5-.8-.9-1.6-1.5-3.3-2.3-5-.5-1.1-1.1-2.2-1.9-3.1-.2-.3-1.1-.5-1.4-.3-.8.4-.2.9.1,1.4,1.4,2.4,2.9,4.7,3.8,7.7-2.2-.3-4.3-.3-6.2-.8-1.9-.4-2.7-3-1.5-4.6.4-.5.9-1,1.1-1.6.2-.5.2-1.5,0-1.7-.6-.5-1.3,0-1.7.7-.5.9-.9,1.7-1.4,2.6-.9-1.2-1.8-2.4-2.7-3.6-.1,0-.2.2-.3.2,0,2.5.8,4.6,2.3,6.6.4.5.4,1.3.5,2-.7.1-1.6.6-2.2.4-1.4-.7-2.7-1.5-3.9-2.5-1.2-1-2.1-2.4-3.3-3.5-.5-.4-1.7-.8-1.9-.6-.7.7-.1,1.5.5,2.1,0,0,.2.2.3.3,1.8,1.6,3.5,3.1,5.3,4.7-.3,0-.7,0-1,0-1.4.3-2.9.5-4.3.9-.4.1-.9.7-1,1.1,0,.3.4,1,.7,1,1,.2,2,.4,3,.3,1.1-.1,2.3-.5,3.4-.8-.8,2.2-2.4,4-2.1,6.7.6-.3,1.1-.5,1.4-.8.5-.8.8-1.6,1.1-2.4,1-3.7,2.5-5.1,5.4-5.3-.3,1.5-.6,3.1-.8,4.7,0,.3.5.7.8,1.1.3-.3.8-.5.9-.9.3-.8.4-1.7.5-2.6.2-1.7,1.2-2.7,2.9-2.7,1.1,0,2.1,0,3.2.2,1.2,0,2.4.2,3.6.3,0,.1,0,.3,0,.4-.3.3-.5.6-.8.9-.9.8-1.8,1.6-2.7,2.5-6.2,4.2-12.4,7.8-18.4,10.4.3-3.7-.5-7.4-2-11-2-4.6-5.1-8.4-8.1-12.4-1.5-2-3-3.9-4.3-5.9-.6-.9-.2-1.7.8-2,1.7-.6,3.5-1.2,5.3-1.7,2.1-.6,3.9-1.3,4.6-3.7.4-1.2.2-1.8-1.1-1.7-2.1.1-3.9-.6-5.6-1.8-.9-.6-2-1.1-3-1.4-1.1-.3-1.4-.9-1.7-1.8-.5-1.5-1-3-1.8-4.4-.8-1.4-.9-2.7,0-4.1.5-.7.6-1.5-.4-2.3-.4.5-.7,1-1,1.5-.5,1.1-1.1,1.2-1.9.3-1-1.2-2.5-2.1-2.5-3.9,0-.2-.3-.5-.4-.7-.2-.5-.4-1.1-.4-1.6-.1-2.1.2-4.3-.8-6.6-2,2.1-.6,4.7-1.4,6.9-.5-.3-.9-.5-1.3-.8-1.2-.9-2.3-2-3.6-2.5-1.7-.7-2-2-2-3.5,0-1.3.3-2.5.4-3.8,0-.4-.3-.9-.5-1-.3-.1-.9.1-1.1.4-.4.6-.6,1.3-.7,1.9-.2,1.3-.2,2.6-.3,3.9-2.3-.5-4.5-1.1-6.7-1.6-1-.2-1.2-.9-1.4-1.7-.2-.7-.3-1.3.4-1.8.4-.3.4-.9.6-1.4-.1,0-.3-.1-.4-.2-.4.2-.8.3-1,.4-.5-.9-.9-1.6-1.5-2.6-1.2,2.5-.2,4.5.4,6.5-1.1.3-2.9,0-3.2-.7-.8-2-1.5-4-.5-6.2.3-.8.2-1.8.2-2.8,0-.2-.3-.6-.5-.6-.2,0-.6.2-.7.4-.3.8-.8,1.6-.8,2.4,0,1.8,0,3.6.1,5.5,0,0-.1,0-.1.1-1.1-2.4-2.3-4.7-3.5-7.2-1.4,1.4-.4,2.6-.2,3.8-1.4-.5-2.7-1-4-1.4-.5-.1-1,.2-1.5.3.3.5.4,1.1.8,1.5.2.2.6.3,1,.4,1.1.3,2.2.4,3.4.7,1.6.4,2.2,1.3,1.9,3.1-2-.2-4-.4-6.1-.5-1.4,0-2.8-.1-4.1,0-.3,0-.6.5-.9.8.3.3.5.6.9.8.8.3,1.6.6,2.5.6,1.5,0,3,0,4.5,0,.3,0,.6.2.9.3-.2.3-.3.7-.5.9-1.3,1.1-2.6,2.2-3.9,3.4-.3.3-.4.9-.6,1.4.5,0,1.1,0,1.6-.1.1,0,.3-.2.4-.3,1.7-1.5,3.3-3.1,5-4.5,1.4-1.2,3-1.3,4.7-.8,0,.3,0,.5-.2.6-.7.8-1.4,1.6-2,2.4-.2.2-.2.5-.3.8.3,0,.7.3.9.2.5-.2,1.1-.5,1.5-1,2-2.2,4.4-2.7,7.1-1.7.4.1.7.5,1.1.7-.3.3-.4.8-.8,1-1.1.8-2.4,1.5-3.4,2.4-.5.4-.8,1.7-.6,2,.6.7,1.4,0,2-.4.2-.1.3-.3.4-.5.4-.5.9-.9,1.4-1.4.4,1,.4,2.2,1.9,2.5-.2-.8-.4-1.5-.5-2.1-.2-1.1,0-1.9,1.2-2.6.9-.5,1.6-.5,2.4-.1,1.4.7,3,1,4.1,2.4-2.1,1.1-4.6,1.4-6,3.7,1.9.3,3.4-.5,5-1.2,1.5-.6,3-1.5,4.5-.5,2.2,1.4,3.8,3.3,4.3,6,0,.5-.1,1-.2,1.7-.9-.4-1.7-.5-2.2-1-1.3-1-2.4-2.2-3.6-3.3-.6-.6-1.1-1.2-1.8-1.7-.2-.2-.7,0-1,0,0,.3,0,.7.2,1,.2.4.6.7.8,1.1.2.5.7,1.3.4,1.6-.4.5-1.1.9-1.7,1-1.5.2-2.9.3-4.4.2-.5,0-1.2-.3-1.5-.7-1.2-1.4-2.3-2.9-3.4-4.3-.5-.6-1-.7-1.8-.2,1,2,3.1,3.3,3.4,5.8-1,.1-2,.2-3,.4-3.1.5-3.5.4-5.1-2.4-.1-.2-.3-.5-.4-.7-.7-.9-1.4-1.8-2.1-2.7-.1-.2-.8-.2-.9,0-.2.2-.1.7,0,1,.1.3.4.6.6.8-.9-.3-1.9-.6-2.8-1-.1.2-.2.4-.3.6.6.4,1.1.9,1.7,1.3,1.1.7,2.3,1.3,3.4,2.1.4.3.5.8.8,1.2,0,.1-.1.3-.2.4-2.2,0-4.3.2-6.5.2-.6,0-1.5-.7-1.7-1.3-.5-1.2-.6-2.6-.8-3.9,0-.2-.1-.4-.2-.7-1.4.7-.9,1.8-1,2.9-1.2-1.8-2.4-3.7-3.7-5.5-.2,0-.3.1-.5.2,0,.7-.2,1.3-.1,2,.3,2.4,1.8,4,3.4,5.5,1,1,1.1,1.6-.1,2.3-2,1.1-4.1,2.1-6.1,3.3-.5.3-.7.9-1.1,1.3.5.2,1,.5,1.6.7.2,0,.5,0,.7-.1,1.7-.8,3.4-1.6,5-2.6,1.3-.8,2.5-1.9,4.3-2-.9,2.4-1.2,4.8-.8,7.2,0,.5.6.9.9,1.4.3-.5.8-.9.8-1.4.2-1.7.3-3.5.4-5.2,0-1.1.3-2.2,1.6-2.3,2.1-.3,4.3-.5,6.7-.7-1.5,2.8-4.2,4.3-5.3,7.1,2.2-.7,3.9-1.9,5.1-4.1.4,2.1.7,4,1,5.8,1.1.3,1.7-.2,1.6-1.1-.1-1.3-.3-2.6-.8-3.8-.7-1.8-.7-2.5.8-3.4.2-.1.5-.2.8-.3,2.6-.5,5.1-1,7.7-1.4.7-.1,1.4,0,2.1,0,0,.1.1.3.2.4-1.1.9-2.3,1.8-3.3,2.8-.8.8-1.7,1.7-2.2,2.8-.3.4-.1,1.5.2,1.8.6.4,1.1-.2,1.6-.8,1.2-1.5,2.3-3,3.7-4.2,1.9-1.7,4.2-2.8,6.8-1.6,3.2,1.5,4.8,4.5,6.4,7.5-.5,0-1,0-1.3-.2-.9-.5-1.7-1.2-2.6-1.6-2.3-.9-4.7-1-7.2,0,1.8,2.6,3.7,4.8,6.9,5.5-1.9,3.1-1.8,6.2-1.1,9.3.6,3.1,2.3,5.7,3.8,8.3,1.8,3.1,3.2,6.4,3.4,10,0,1.4-.3,2.7-1.2,3.8-2.6,3.2-8.4,4.1-12,2.7-2.1-.8-4.2-1.7-6.3-2.5-4.5-1.6-9.2-2.7-14-1.4-1.3.4-2.5,1-3.8,1.5,0-1,.2-1.9.2-2.8.1-4.1-1.2-6.7-5.2-7.3-2.3-.4-4.5.6-5.2,2.2.5.6,1.1,1.1,1.4,1.7.5.9.9,2,1.1,3,.5,3,2.1,5.2,5,6.3-.3.5-.5.9-.7,1.4-.6,1.2-1,2.5-1.2,3.8-.4,0-.9,0-1.3,0,0,.5-.1.9,0,1.4.1.5.5.9.7,1.4,0,.1.1.2.2.3,0,1,0,1.9,0,2.9,0,1.3,0,2.3-.4,3.2-1.4-.8-2.9-1.5-4.4-2.2-1.2-.5-1.6-1.4-1.6-2.6,0-.9.1-1.8,0-2.7-.1-1-.5-1.9-.8-2.8,0-.2-.4-.4-.6-.6-.2.3-.5.6-.5.9,0,1.2,0,2.3.1,3.5,0,.9.2,1.9.4,3.1-2.7-1.1-4.4-2.6-5.3-5.2-.4-1.2-.2-2,.9-2.7.8-.4,1.4-1.2,1.2-2.6-1,.5-1.8.8-2.6,1.2-.4-1.4-.1-3.1-1.8-3.9-.8.8-.9,1-.6,2.1.4,1.9.8,3.8,1.1,5.6.5,2.6.7,2.9-2.3,1.8-2.2-.8-4.4-1.6-6.6-2.3-.6-.2-1.4.3-2,.4.4.6.7,1.4,1.2,1.7,1.4.6,2.9.9,4.4,1.3.9.2,1.7.4,2.7.6-1.6,2.1-4.3,2-5.6,4.1,1,0,2-.2,2.8-.6,1.4-.6,2.8-1.4,4.2-2.1,1.3-.6,2.6-.5,3.9,0,.9.3.9.8.2,1.3-.6.5-1.3.9-1.9,1.3-.3.2-.6.6-1,.9,1.3.9,2.4.2,3.2-.4,2.4-1.5,4.6-1.1,6.8.3,1.2.7,1.2,1.1,0,1.8-1.1.7-2.3,1.3-3.3,2.1-.1,0-.2.2-.3.3-1.8.5-3.7,1-5.1,2.3-.8.7-1.3,1.7-2,2.5-.3.3-.6.6-.9,1,0-.2-.2-.3-.3-.5-.3.2-.8.2-.9.5-.4.6-.7,1.2-1,1.9-.5-1-.9-1.9-1.4-2.8-.2-.3-.6-.5-.9-.7-.2.3-.4.7-.5,1-.3,1.4.6,2.4,1.3,3.5.1.2.3.4.4.6-1.1,1.2-2.3,2.3-3.4,3.4-.2,0-.3,0-.5,0-1.2,0-2.2-.5-3-1.5-.8-1-1.8-1.9-2.7-2.7-.5-.4-1.1-.7-1.9-1.3.1,2.1,1.1,3.2,2.2,4.3,1,1,.9,1.5-.4,2.1-.7.3-1.5.5-2.1.9-1.1.6-2.3,1.2-3.3,1.9-.3.2-.3.8-.5,1.3.4.1.9.4,1.2.3,1.2-.4,2.4-.8,3.5-1.3,1.3-.6,2.6-1.3,4.2-2.1-.1.5-.3.9-.4,1.4-2.4,1.8-5,3.3-8.1,3.8-.4,0-.9.5-1.1.9-1.2,1.4-2.9,1.6-4.2.3-.5-.4-1-.8-1.6-1.3-1.7,2.5-3.3,4.8-5,7.2.5.2.8.3,1.1.4,3.9.5,7.5-.3,10.7-2.6,1.6-1.1,2.9-2.5,4.5-3.5,1-.6,2-1.2,3-1.8-.2,1.5.1,2.2.9,2.8.3-.5.8-.9.9-1.4.2-.9.3-1.8.4-2.7.9-.5,1.9-1,2.8-1.6,1.6-.8,3.2-1.6,4.8-2.4.6,0,1.2,0,1.8,0,0,.1,0,.3.1.4-.6.6-1.1,1.3-1.7,1.9-.5.6-1,1.2-1.5,1.8,0,.1,0,.3,0,.4-1.8,2.4-3.6,4.8-5.6,7.1-1.8,2-3.8,4-6.6,4.7-.4.1-.9.6-1.1,1.1-1,1.8-2.6,2.3-4.3,1.1-.5-.3-.9-.9-1.3-1.3-.1.1-.3.3-.4.4-1.2,2.6-2.3,5.2-3.6,8.1,1.8-.2,3.5-.1,5-.6,2.2-.6,4.2-1.9,5.8-3.5,1.5-1.5,2.8-3.3,4.3-4.7,2.5-2.3,5.2-4.3,7.8-6.5,4.6-3.9,9.7-6.8,15.1-9.2-.5.4-1.1.7-1.5,1.1-.5.5-1,1.1-1.3,1.7-.1.3.2.9.3,1.3.4-.2.8-.3,1.1-.6.7-.7,1.3-1.6,2.1-2.2,1.6-1.4,5.7-2.5,7.9-.8,2.6,1.9,4.2,4.6,5.5,8-.7-.2-1.1-.3-1.4-.5-2.3-1.2-4.8-1.7-7.4-1.5-.9,0-1.8.3-2.2,1.2,1.6,2.1,3.8,3.1,6.1,3.8-.4.8-.9,1.6-1.2,2.4-1.4,3.7-.8,7.4.7,10.9.6,1.4,1.2,2.8,1.9,4.2-4.5,5.6-9.3,10.6-14.3,14.5-2.3-1-4.7-2.1-7.1-3-3.1-1.2-6.3-1.4-9.5-.7-1.4.3-2.7.8-4.1,1.3,0-1.5,0-3.1,0-4.6,0-2-1.2-4-2.8-4.3-1.5-.3-3.1-.4-4.7-.3-1.1,0-2.1.5-2.7,1.8,2.3.2,2.6,2,2.9,3.6.5,3,1.8,5.3,4.4,6.5-.7,1.7-1.6,3.3-2,5-.4,2.1-.6,4.2-.9,6.3-25.9,8.3-82.7,26-103.2,28-.1-.2-.3-.4-.5-.6l-.7-2.2s-2.1-2.4-4.1-3.2c-2-.8-3.2,2-3.2,2-.9-.6-2.6-1.5-4-1.1-.5.2-1.2.6-1.5,1.8-.1.5-.3.9-.3,1.2l-2.2.5.4,4.8c-2.8,2.6-6.3,3.7-10.1,3.6-.9,0,0-.1-.9-.2,1.1-3.4,1.3-6.5-1.9-8.5-.6-.3-1.1-.7-1.5-1.2.9-.4,1.5-1.4,1.4-2.4-.2-1.1-1.1-1.8-2.2-1.9-1.5-1.8-3.2-3.3-2.9-6.2,0-.9-2.5-2.8-4.1-3-3.6-.5-10.1,0-13.8,0-4,0-7.2,2.2-10.6,4-1.4.7-2.9,1.4-4.4,1.8-.4-.5-1.1-.8-1.9-.7-1.1.2-1.9,1.1-1.8,2,.1,1,1.2,1.6,2.3,1.5.6,0,1.1-.4,1.5-.9,1.5,0,3.1.1,4.6.3,2.6.4,5.2.9,7.7,1.7.8.3,1.5,1.8,1.5,2.8.1,1.6-.3,3.3,0,4.4-.4,0-.8,0-1.1.1-6.2.9-11.5,4.1-15.1,8.7-.3,0-.6,0-.9,0-.1-.8-.2-2.3-.6-3.7-.3-1.1-.8-2.9-1.3-2.9-1.4,0-3.1.3-4.2,1.2-1.1.9-1.6,1.6-3.3,1.4-3-.3-5.1,3.7-3.6,6.3.4.6.7,1.3.8,1.9.4,1.8.7,2.8,1.1,3.3-3.9,2.1-8.7,4.9-11.3,7.3-.2.2-.2.6,0,.8.1.1.3.2.5.2.1,0,.2,0,.3-.1,2.7-2.5,8.3-5.7,12.3-7.8,0,0,.1,0,.2,0-3.6,4-9.2,11.3-6.9,16.3.1.2.4.4.6.3,0,0,.1,0,.2,0,.3-.1.4-.5.3-.8-2.4-4.9,4.8-13.1,7.9-16.4,0,0,.2,0,.3,0,.4-.1.9-.1,1.3-.2.1.3.3.5.4.8l.7,1.9c0,.3.2.5.3.7-.5,2.6-.6,5.3-.2,8.1.5,3.7,1.9,7.1,3.9,10,1.5,4.9,3.4,9.6,6.2,14,1.4,2.2,3.3,4.1,5.1,6.3-1.1.9-2.2,2-3.5,2.9-3.6,2.7-5.8,6.5-7.1,10.8-2.3,7.7,3,15.1,10.8,14.5,6.2-.5,12.2-2.3,18.3-3.5.8-.2,1.6-.3,2.4-.4,8.9-1.3,17.8-2.9,26.8-3.8,7.5-.8,15.2-.6,22.7-1.4,5.3-.5,10.5-1.7,15.7-2.7,4.9-.9,9.4-2.8,13-6.3,8.6-8.3,8.2-23.5-2.2-29.6-3.1-1.8-6.6-2.4-9.9-.4-2.3,1.4-3.2,5.4-2.1,8-.5-.4-1-.8-1.6-1.1-1.7-1-3.6-1.5-5.5-1.1,1.2-4.6,1.4-9.3,1.5-14.1,0-4.3-.5-8.8,2.4-12.8,2.3-3.2,5.7-4.2,8.1-1.7-1,1.6-3.5,2.7-2.2,5.3,0,0-.8.8-1.2.9-2.8.4-2.8,2.2-2.2,4.3l-.3.5.4.2c.2.7.3,1.5.3,2.2,0,2.5,1.3,3.5,3.6,3.5,2.4,0,3.8-.9,4.1-3.4.2-1.9.8-3.8,1.3-5.9-1.2-.8-2.5-1.6-3.9-2.4l4.7-6.8c-.2-3.5-1.2-6.3-4.2-7.4-5.3-2.1-10.6-1.7-15.7,1.2-5.2,3-9.1,7.3-12.4,12-.6-.9-1.2-1.8-1.9-2.8-1.2-1.7-2.6-3.6-3.9-6-1.4-2.5-2.3-4.5-2.8-6.1l1.7-2s.4,0,1-.2c3.5.4,7.5.5,11.9.5,20.2,0,48.6-3.5,74.3-7.5-2,2.5-4.2,4.8-6.5,7-2,1.8-4.1,3.4-6.8,4.1-.5.1-1.1.6-1.4,1.1-.6,1-1.5,1.5-2.5,1.3-.7-.1-1.4-.5-2.1-.9-1.2-.7-1.6-.6-2.1.6-.5,1.1-1,2.2-1.6,3.3-.5,1-1.1,1.9-1.8,2.9.5.2.9.4,1.3.4,1.3,0,2.6-.1,3.9-.4,3.8-.9,6.7-3.2,9.3-6,.7-.7,1.3-1.6,2.1-2.1,4-2.8,8-5.5,12.1-8.2,2-1.3,4.2-2.4,6.4-3.6.2,0,.3.2.5.2,0,1.7,0,3.5,0,5.2.1,2.3.5,4.5.6,6.8,0,.4-.3.9-.6,1.3-.3.5-.7.9-.9,1.4-.5,1.8-2.1,2.8-3.9,2.4-.6-.1-1.3-.2-2-.1-.3,0-.9.6-.8.9.2,1.7.5,3.3.8,5,.1.6.5,1.5.8,1.5.6,0,1.3-.4,1.8-.8,1.5-1.4,2.9-2.8,4.2-4.4.9-1.2,2-2.6,2.2-4,.5-2.8.6-5.7.8-8.6.2-2,.4-4.1.8-6.1.2-1.4.9-2.5,2.5-2.8.2,0,.4,0,.6-.1.5,0,1-.2,1.6-.2,2.9-.2,5.9-.3,8.8-.5,3.2-.3,6-1.2,8.7-2.6,13.7-2.5,23.2-4.4,24.4-4.7,2.2.6,4.5,1.1,6.8,1.3.3.5,1,.8,2.2,1,.9.2,1.9.4,2.7.2,1.5-.4,2.6.1,3.7.9.5.3.9.6,1.4,1,1.8,1.1,3.6,2.3,5.7,3.6-1,1.2-1.8,2.5-2.9,3.2-1.4.8-2.9,1.3-4,2.5-.8,1-1.5.8-2.3-.3-.6-.9-1.3-.6-1.8,0-1.1,1.4-2.1,2.9-3.1,4.4-.2.3-.1.8-.2,1.3.5,0,1,0,1.4,0,2.5-.8,5-1.4,7.4-2.4,1.1-.5,2-1.5,2.9-2.4,1.4-1.5,2.6-3,3.9-4.6.5-.6,1-.6,1.6-.3,1.4.8,2.8,1.5,4.1,2.5,2.8,1.9,5.9,3.6,7.8,6.5.8,1.2,1.9,1.8,3.1,2.2,1.3.4,2.1,1.1,2.3,2.4.2,1.5,1.2,1.4,2.2,1.3,2-.2,3.9-.3,5.9-.5.4,0,.9,0,1.4,0-.9-1.7-3.3-3.3-5-3.9-2.5-.9-4.9-2-7.1-3.5-4.6-3.1-8.6-6.8-12.6-10.6,2.3-2.6,4.5-5.1,6.8-7.6,4.3-1.3,8.5-3,12.6-4.8.1.5.2,1,.3,1.5.2,1.1.9,1.2,1.7.7.3-.2.7-.5.9-.8.9-1,1.7-2.2,2.7-3.1.6-.6,1.1-1.1,1.6-1.8,3.6-1.8,6.9-3.7,10.1-5.6,17.8-10.7,31.3-22.8,32.9-24.2.1,0,.2,0,.4,0,5.4,0,10.5-1.8,15.1-5.3.7,3.2,1.2,3.6,4.2,3.6.7,0,1.5-.2,2.2-.2.5,0,1.1,0,1.5.2,2.4,1.5,4.7,3.1,7.1,4.7,1.4.9,1.4,2-.2,2.8-1.5.8-3,1.6-4,3.1-.5.7-1.3,1-2,0-.7-1-1.5-.7-2,0-1,1.5-1.9,3.1-2.6,4.7-.4.9,0,1.4,1,1.1,2.3-.8,4.5-1.7,6.7-2.7,1.6-.7,2.8-2,3.6-3.6.5-1,1.1-2,1.8-3.1.6.7,1.1,1.3,1.5,1.9,2.2,3,4.3,6.1,2.9,10.2-.2.7-.7,1.2-1.1,1.8-.3.3-.7.6-1.1.8.6,2.1,1.1,4.1,1.7,6.2.1.4.4.8.6,1.2.4-.3.9-.5,1.1-.9.5-.9,1-1.9,1.3-2.9,1-2.7,1.7-5.3.5-8.2-1.5-3.9-2.8-7.8-4.2-11.8-.4-1-.3-1.8.4-2.8,2.5-3.3,5-6.7,7.4-10.1,1.2-1.6.1-4-1.8-4.1-1.8,0-3.7,0-5.5,0-4,.2-8.1.5-12.2.7.2-.4.4-.7.6-1,1.3-1.8,2.2-3.9,2.5-6.1,6-10.4,11-24.8,15-43.2,3.8-17.3,5.9-34.8,7-47,1.4-1.4,3-2.5,4.8-3.3,1.7,2.6,2.2,3.6,6.4,1.2.8-.5,1.9-.6,2.9-.6,1.4,0,2.8.3,4.3.5,1.6.3,3.2.7,5.2,1.1-.5,1.4-.8,2.7-1.5,3.6-.9,1.1-1.8,2-2,3.4-.3,1.3-1.1,1.6-2.2,1-.8-.4-1.4,0-1.6.7-.4,1.8-.7,3.7-1,5.5,0,.3.2.7.4,1.1.6-.4,1.2-.6,1.6-1,1.1-.9,2.3-1.9,3.3-2.9,2-1.9,3.5-3.9,3.6-6.9,0-1.3.6-2.5,1-3.9,4.2,2.5,8.6,4.1,9.8,9.2.3,1.2.3,2.2-.4,3.1-.5.6-.3,1.1,0,1.6,1,1.2,2.1,2.4,3.1,3.7.4.5.8,1,1.3,1.7.2-.4.4-.5.4-.6,0-2,.4-4,.2-5.9ZM662.3,894.5c1.9-.7,2.5,0,2.7,3-.9-1-1.7-1.9-2.7-3ZM443.6,1125.6c.2,0,.4.1.6.2-.2,0-.5,0-.7,0,0,0,0,0,.1-.1ZM441.9,1120.4c.3,0,.7,0,1,0,.5.4.7.9,0,1.8-.6.8-.9,1.8-1.5,2.6-.1.1-.2.3-.3.4-1-.3-2-.6-3-1.1.8-2.1,1.4-3.8,3.9-3.7ZM439,1127.3c-1.6,1.4-3.4,2.5-5.7,2.8,1.2-1.1,2.3-2.3,3.3-3.6.8.3,1.6.6,2.4.8ZM435,1119.3c1.1.5,1.9,1.2.6,2.8-.8,1-1.2,2.4-2,3.4-.3.4-.7.8-1,1.2,0,0-.2-.1-.2-.1-.9.2-1.8.7-2.7,1.1.4-3.6,2.7-6.1,5.3-8.5ZM425.5,1118.2c1.8-1.6,3.4-2.3,5.6-.7.7.5,1.5.8,2.3,1.1,0,0,0,0-.1.1-2.8,2.1-4.4,4.9-5.4,8.2-.4,1.4-.5,2.8-.3,4.1-1.5.8-3.1,1.3-5,1.5-.7,0-1.4-.6-2.1-1,.5-.4,1.1-.8,1.6-1.3.4-.3.8-.7,1.3-1-.4-.5-1-1.5-1.2-1.4-1.2.3-2.3.9-3.6,1.5.5-4.7,3.5-8,7-11.1ZM428.4,1139.3c-3.2.5-5.6-1.3-8.2-4,3.2.1,5.8-.5,8.2-1.7,1.4,2.8,4.2,4.6,7.7,4.4.5,0,.9-.1,1.4-.2-3,.5-6,1-9,1.5ZM452.2,1132.9c-.2,0-.3,0-.5,0,.3-.3.6-.5,1-.9,0,0,0,0,0,0,.1.2.3.3.4.5-.3,0-.7.1-1,.2ZM455.7,1131.8s0,0-.1,0c-.2,0-.8-.8-.7-1,.3-.4.8-.7,1.5-1.3-.7-.4-1.3-.7-1.9-1.1-.5,1-1,2-1.4,3-.7-.4-1.4-.8-2.1-1.2-.5,1.1-1,2.1-1.5,3.2-4.1.7-8.1,1.5-12.2,2.1-2.5.4-4.3-1-6.3-3,4.6.2,7.8-1.8,10.5-4.5,5.4.9,10.9,0,16.6-.8-.7,1.6-1.5,3.2-2.3,4.6ZM457.9,1124.5c-1.7.3-3.3.6-5,.7-2.9.2-5.7,0-8.4-1.4.6-1.6,1.1-2.9,3-2.8,3.7.1,7.4.2,11.2.3.5,1.9.4,2.8-.9,3.3ZM460.1,1131c.5-1,1.5-2.3,1.9-3.9,0,0,0-.2,0-.2.4,0,.8,0,1.4,0l.5,3.7c-1.3.1-2.6.2-3.9.4ZM513.7,1087.6c-.4,0-.8-.1-1.1-.2,0-1.1-.1-2.3-.2-3.5l1.8,1c-.1.9-.4,1.7-.5,2.6ZM514.2,1083.7s0,0,0,0l-1.9-1.1c0-.8,0-1.5-.1-2.3,2.9-.1,1.9,2.2,2.1,3.4ZM516.2,1087.4c.2-.8,0-1.7,0-2.6l1.5-.2c-.3,1-.7,2-1.5,2.8ZM517.9,1080.4c.1,1,.1,2.1,0,3l-1.8.3c0-1.3.3-2.4,1.7-3.3ZM763.7,993.5c-.9,2.4-1.6,4.5-2.5,6.7-1.6-1.4-3-2.7-4.6-4.2,2.3-1.1,4.3-2.3,7.1-2.6ZM742.1,938.8c-1.2-.6-2.4-1.1-3.6-1.7-.2-1.2-.3-2.5-.8-3.6-.9-2.2-1-4.1.4-5.7,1,1.7,2,3.4,3,5.1.5.9.9,1.8,1.2,2.7.2.7-.2,1.5-.1,2.3,0,.3,0,.7,0,1ZM732.7,929.1c-.2,0-.4,0-.6,0,0-.1.2-.3.3-.4,0,0,0-.1.1-.2,0,.2.1.4.2.6ZM729,934.5c1.2,1.2,2.3,2.5,3.4,3.7-.4.3-.5.3-.6.2-1.5-.7-3.1-.8-4.6-.7.6-1.1,1.2-2.1,1.8-3.2ZM730.6,931.8c.2-.3.4-.6.5-.9.7-.1,1.4-.2,2.1-.2.5,0,1.2.5,1.3.9.4,1.3.5,2.6.7,3.9-.1,0-.3.1-.4.2-1.4-1.3-2.8-2.6-4.2-3.9ZM734.8,927.1c-.2-.3-.4-.6-.7-.8.5-.7,1.1-1.4,1.6-2.1.5.8.9,1.3,1.2,1.8,0,0,0,0,0,.1-.3.3-.7.6-.9.9-.5.6-.9.6-1.3,0ZM740,996.5c-3.1,2-6.4,3.2-10,3.6,2.4-.7,4.7-1.6,7.1-2.6.9-.4,1.9-.7,2.9-1ZM735.4,909.2c-.8,1.6-2.1,2.9-3.3,4.2-1.6,1.6-3,3.2-3.7,5.2-.9-.8-1.7-1.6-2.6-2.3-.2-.1-.3-.2-.4-.4,3.9-3.3,7.6-6.6,10.9-9.7,0,1-.2,2-.7,2.9ZM724.1,917.7c-.4.2-.7.4-1.1.5-.1,0-.3,0-.4.1.4-.3.8-.7,1.3-1,.1.1.2.3.3.4ZM720,920.4c.1,0,.2,0,.4,0,1.3-.1,2.6-.2,3.9-.6,1.5-.4,2.8-.3,3.7.8,0,.5,0,.9,0,1.4,0,.6-.2,1.3-.3,1.9-.4,1.8-.8,3.5-1.2,5.3-1-1-1.9-1.9-2.7-3.1-.8-1.1-1.1-2.4-1.8-3.6-.2-.3-.8-.5-1.2-.7-.2.5-.6,1-.5,1.4.2.7.6,1.4,1,2.1.8,1.3.3,2.3-1.1,2.2-1.7,0-3.4,0-5.1-.3-.6,0-1.3-.6-1.6-1.1,0-.2-.2-.3-.2-.5,2.3-1.8,4.6-3.6,6.8-5.4ZM711.6,927c0,.2.1.3.2.5-.3,0-.5,0-.8,0,.2-.1.4-.3.6-.4ZM701.1,934.4c0,.2,0,.3,0,.3.7.4,1.5.4,2.1-.3,1-1.2,2.1-2.4,3.2-3.4,1-.9,2-1.8,3.5-1.8,2.6,0,5.2,0,7.7,0,.4,0,.7.3,1.1.4-.2.4-.4.9-.7,1-1.1.6-2.3,1-3.3,1.7-.8.6-1.5,1.4-2,2.3-.2.3.3,1,.4,1.6.4-.1,1-.1,1.3-.4,1.2-1,2.2-2.2,3.4-3.1,2.5-1.7,5.3-2.3,7.9-.9-.4,1.5-.7,3-1.2,4.5-.2.6-.4,1.1-.6,1.7-.6.2-1.2.6-1.5,1.3.2.2.5.5.7.7-.9,1.9-2,3.7-3.7,5.1-.4.4-.4,1.1-.7,1.6-.3.6-.4,1.2-.8,1.7-.7.9-1.8.9-2.8.7-1.9-.4-2.1-.2-2,1.7,0,1.5,0,2.9,0,4.4,0,.8,0,1.5-.2,2.8,1.8-1,3.3-1.7,4.6-2.7,2.4-1.7,3.6-4.3,4.8-6.9.8-1.8,1-3.8,1.9-5.5.3-.5.6-1.1.9-1.6,1.2.6,2.4.9,3.6,1.2-.3,2.2-.9,4.2-.8,6.2.2,3.6,1.7,6.8,3.7,9.9,1.9,2.9,3.6,5.8,4.3,9.3.5,2.1.8,4.3-.7,6.1-2.6,3.1-6.2,4.1-10,3.5-2.7-.5-5.3-1.6-7.9-2.5-5.9-1.9-11.7-2.8-17.4.3-.9-1.7-1.7-3.4-2.8-4.9-2.1-3-4-3.7-6.4-2.9,2.8-3.5,5.7-7.1,8.6-10.6.7-.8,1.1-1.7.7-2.7-.4-1.1-1.3-1.9-2.6-1.9-1.1,0-2.1,0-3.2-.1.4-1,.9-2,1.2-3.1.5-1.7-.3-2.9-2.1-2.7-1.8.2-3.5,1-5.2,1.5-1.8.5-3.7.8-5.8,1.3.4-1,.8-1.7,1-2.4.3-1,.4-1.9.5-2.9,5.6-2.4,11.4-5.6,17.2-9.4ZM694.6,993.4c0,2-.5,3.8-1.5,5.5-.8,1.2-1.6,2.5-3.2,2.7-1.3.2-2.7.2-4.1.3-.9,0-1.6.3-2,1.1-.8,1.6-1.6,3.2-2.4,4.9-.5,1-.9,2.1-1.5,3.1-2.1,3.3-4.1,6.6-6.4,9.7-2.3,3.2-4.8,6.2-8.8,7.7-.4.1-.7.6-.8,1-.5,1.3-1.4,1.9-2.8,1.7-.7-.1-1.5-.5-2.1-.8-.9-.5-1.3-.2-1.7.6-.4,1-.8,2.1-1.2,3.1-1.9-.1-3.8-.2-5.7-.3-1.4,0-2.9,0-4.7,0,.6-.7,1-1.1,1.3-1.6.4-.5.8-1,1.1-1.5,3.3-5.5,3-11.2,1.3-17-1.3-4.2-3.7-7.8-6-11.5-1.7-2.7-3.5-5.3-5.1-8,0,0,0-.1,0-.2.5-.8,1.1-1.6,1.6-2.4,1.2-.3,2.4-.5,3.5-.9,2.2-.7,5-.4,5.7-3.5.1-.5.6-1.2.4-1.3-.4-.4-1-.5-1.6-.6-1-.3-2.1-.3-3-.8-.1,0-.2-.1-.4-.2,4.5-7.3,8.3-14.5,11.4-20.6,2.9-.4,5.8-1.3,8.6-2.5,2.2-.9,4.4-1.6,6.8-1.5.2.7.3,1.2.4,1.8.2,1.1,1,1.7,2,1.8,2.7.3,5.3-.3,7.7-1.2,1.7-.6,3.3-1.6,5-2.5-1.2,5.2-2.9,10-5,14.6-.3.7-1.3.7-1.8,0-.8-.9-1.4-1-2.1,0-1.1,1.5-2,3.1-2.9,4.7-.4.8,0,1.2.9.9.8-.2,1.5-.4,2.4-.5-.1.9-.3,1.7-.3,2.5,0,.3.2.7.4.9.1.1.6,0,.8-.3.6-.5,1.3-1,1.8-1.6,1.6-1.8,2.4-4.2,4.5-5.5.3-.2.4-.6.6-.9.5-.8,1-1.6,1.5-2.4,0,0,0,.1,0,.2,2-.9,2.9.7,3.8,1.9,1.5,2.1,3.2,3.8,5.9,4.2-1.5,2.6-2.3,5.2-2.3,8,0,2.5,0,4.9,0,7.4ZM657.2,1040.2c-1.9.4-3.7.8-5.6,1-.2-.2-.3-.3-.5-.5,2.2-.5,4.1-1,6.1-1.4,0,.1.2.3.2.4,0,.2-.2.3-.2.5ZM686.5,969.9c-.3.5-.8.9-1.3,1.3-.1,0-.2-.2-.3-.2,2.1-4.5,4.2-9,6.3-13.4.2,0,.5.2.7.3-.3,1-.6,2-1,2.9-1.4,3.1-2.9,6.2-4.4,9.2ZM633.6,970.8c.1.4,0,.9,0,1.3h-1.6c-.5-1.2-.3-2.4-.5-3.6.3-.2.7-.4,1-.7.4,1,.7,1.9,1.1,2.9ZM621.4,956.2c-.4.3-.8.5-1.4.7,0,0,0,0-.1,0,.1,0,.3-.2.4-.2.3-.2.7-.4,1.1-.5ZM630,972.1c-.7-.2-1.3-.3-1.7-.7-.3-.3-.7-.6-1-1,.9-.3,1.8-.7,2.6-1.1,0,.9.3,1.8,0,2.7ZM631.9,974c2.9-.9,3.8,0,3.7,2.9,0,.4-.1.7-.2,1.5-1.3-1.6-2.3-3-3.5-4.4ZM638.8,980.8c-.3-2-.7-4.1-1.1-6.3-.1-.9-.1-1.8.6-2.7.6-.7,1.5-1.4.8-2.9-.9.7-1.7,1.4-2.6,2.1-.7-1.2-1.4-2.4-2.1-3.6-.2-.3-.3-.6-.4-.8.2-.2.4-.4.6-.6,2.1-2.2,4.1-4.7,6.2-7,0,0,.2.2.4.4,2.1,2,4.5,3.5,7.4,4,2,.4,4,.4,5.9.2-3,5.9-6.8,12.9-11.1,19.9-1.6-.9-3.1-1.9-4.7-2.8ZM630.7,1003.7c.9,2.1,1.8,4.3,2.1,6.7.5,4.1-.3,6.8-4.6,8.4-3.2,1.1-6.3.9-9.4-.5-.6-.3-1.2-.5-1.8-.8,4.8-3.8,9.4-8.5,13.7-13.8ZM473.3,1053.5c.2-.8.6-1,.8-1,.7-.2,1.8.3,2.6.7-.1.1-.3.2-.4.3l-1.7,1h-1.6c0-.3.2-.6.3-1ZM470.8,1068.9c1.2-1,2.4-2,3.7-2.9.6-.4,1.2-.7,1.8-1,.9,1.7,1.7,3.1,2.4,4.2,2.6,4.4,3.2,5.5,2.2,9.2-.2.8-.4,1.4-.5,2-.4,1.5-.7,2.5-1.1,3.4-.6-.6-1.1-1.2-1.7-1.8-.1-1.8-.6-3.7-1.3-5.6-1.2-3.1-3.1-5.7-5.3-7.5ZM471.9,1119.2c3.4-.7,6.8-1.4,10.2-2.1,0,.3.2.9.3,1.4.2.6.4,1.1.6,1.8-2.9,2-6.4,3.4-9.8,4l-1.3-5.1ZM474.6,1129.7l-.7-2.6c.2,0,.5,0,.7,0,3.4-.6,6.8-1.7,10.1-2.7,1,1.3,2.2,2.8,3.3,4.2-4.4.4-8.9.8-13.4,1.2ZM494.1,1130.4c.2,0,.4,0,.7-.1,0,0,0,0,0,0-.2,0-.5,0-.7,0ZM500.9,1129.1s0,0,0,0c0,0,0,0,0,0,0,0,0,0,0,0ZM500.2,1124.5c-.4.6-.7,1.3-1.1,1.9.3.2.6.3.8.5-1.2.3-2.3.5-3.4.6-1.6-1.9-3.3-3.9-5.3-6.2,4.3-.3,7.9-1.3,11-3.2,3.2,1,6.5,1,10-.4-.8,3.6-4.7,6.5-9.2,8.2-.6-.7-1.4-1.3-2.8-1.4ZM494.4,1118.8c1.1-.8,2.2-1.6,3.1-2.7.6.4,1.3.7,1.9,1-1.5.8-3.2,1.4-5.1,1.7ZM504.7,1116.4c.9-.7,1.8-1.5,2.6-2.4.7.4,1.4.8,2,1.1,0,0,0,0,0,.1,0,0,0,0,0,0,.5.2.9.4,1.4.6-.3.3-.6.6-1,.6-1.7.1-3.5.2-5.2,0ZM504,1129.2c0-.2,0-.5,0-.7,2.9-.8,5.5-2.1,7.7-4.3,2-1.9,3.3-4.3,4-6.9,3.5.7,7.1.4,10.8-1.1-1.6,7.5-13.5,12.5-22.4,12.9ZM515.1,1104.3c.5-.6.6-2.6.3-2.7-1.9-.7-1.9-2.1-1.1-3.2.9-1.2,2.2-2.4,3.6-2.7,3.4-.7,7.6,2.6,8.4,6.5.5,2.5.8,5,1.2,7.7-2-.5-3.9-2.1-5.4.2-.3.4.3,1.4.7,2.8.8-1.3,1.1-1.8,1.7-2.8.5.9,1.3,1.9,1.1,2.3-.4.8-1.4,1.9-2.1,2-2.4.2-4.8.3-7.2,0,.3-3.6-.6-7.2-2.9-10,.7.1,1.5.1,1.8-.2ZM502.9,1104.8c.2-.4.3-.9.5-1.3.6-.7,1.4-1.3,2.2-1.5,2.6-.6,5.8,2,6.4,5,.4,1.9.6,3.8.9,5.9-1.1-.3-2.3-1.1-3.2-.6-2.2-1.3-4.1-3-5.9-4.9,0-.4,0-.7-.1-.8-.5-.2-.8-.4-1-.7,0-.3,0-.7.2-1ZM500.6,1109.3c1.2.7,2.7,1.6,4.3,2.6-1,1.5-2.2,2.8-3.4,3.8-2.3-.9-4.3-2.4-6-4.1,1.7-.8,3.4-1.6,5.1-2.3ZM492.2,1113.1c.3-.1.5-.2.7-.3.8.5,1.8,1.1,2.8,1.7-1.3,1.9-2.8,3.2-4.5,4.1-.3-.3-.6-.7-.7-1.5-.4-1.9-.4-3.2,1.6-4ZM489.1,1123c1,1.3,2.3,3,3.6,4.6,0,0,0,0,0,0-.8,0-1.6-.1-2.3-.2-.1,0-.3-.1-.3-.2-1-1.1-2-2.3-3-3.6.7-.2,1.4-.4,2.2-.7ZM487.9,1119.7c-.2,0-.5,0-.7.1-1.2.1-2.1.2-2.4-1.4-.2-1.3-.3-2.2.7-2.8.5-.1,1-.2,1.5-.3,0,.5.2,1.1.4,1.8.2.8.5,1.5.8,2.4,0,0-.2.1-.3.2ZM482,1067.9c1.4,2.5,2.8,4.4,4,6.1.8,1.1,1.6,2.2,2.2,3.2-.9,1.4-1.8,2.9-2.7,4.4-1.6,2.8-3.1,5.5-4.7,8.3-.3,0-.5-.2-.8-.3.1-.6.3-1.1.4-1.7.2-.7.9-1.8.6-2-.3-.4-.7-.8-1-1.2.6-1.1.9-2.2,1.4-4,.2-.6.3-1.2.5-2,1.2-4.2.3-5.7-2.3-10.1-.7-1.1-1.5-2.5-2.4-4.2.8-.5,1.6-1.1,2.1-2.2.6,1.6,1.5,3.5,2.7,5.7ZM485.8,1058.3c.2,0,.4-.2.5-.3.2-.1.2-.3.2-.5,21-2.2,76.7-19.5,102.7-27.9,0,.7-.2,1.5-.3,2.2-.5,3.1-1.7,5.8-4.6,7.3-1.5.8-3.3,1.2-4.9,1.8-2.6,1-4.9,2.2-5.9,4.9-.2.4-.4.7-.6,1.1-.9,1.3-1.9,2.6-2.9,3.9-30,4.7-64,8.8-84.1,7.4ZM611.2,1042c.3-.2.9-.3,1.3-.2,1.6.3,3.1.8,4.7.9-2.6.5-5.6,1.1-8.8,1.7,1-.7,2-1.5,2.9-2.4ZM631.2,1040.3c1.7-.5,3.5-.8,5.4-.5,0,.2,0,.4,0,.6,0,.4,0,.7,0,.9-1.9-.2-3.7-.6-5.5-1.1ZM655.1,1044.5c-.9-.8-1.7-1.6-2.5-2.4,1.4-.2,2.7-.5,4.1-.7-.5,1-1,2-1.5,3.1ZM665.5,1037.9c.2-.6.3-1.1,0-1.8-.3-.7-.8-1.2-1.4-1.5.6-.5,1.3-1.1,1.9-1.8,1.4-1.6,2.5-3.4,4-4.9,2.6-2.5,5.4-4.9,8.2-7.3,1.5-1.3,3.2-2.4,5-3.8.1.7.2,1.2.2,1.6.1,1,.1,2.1.3,3.1.2,1.7,1.1,3.3-.5,4.8-.3.2-.4.7-.4,1.1-.1,1.2-.9,1.8-1.9,2-1.2.2-2.4,0-3.6,0-.8,0-1.1.4-1,1.1.2,1,.4,1.9.6,2.9-3.7,1.7-7.5,3.1-11.3,4.4ZM685.3,1029.4c.7-1.6,1.1-3.3,1.1-5.2,0-2.9.1-5.8.3-8.7,0-.4.4-1,.7-1.2,2.5-1.3,5.1-2.5,7.7-3.6,1.6-.7,3.1-1.7,4.8-1.9,6.5-1,11.8-4,15.7-9.3.1,0,.2,0,.3,0,3.2,1.9,6.7,2,10.2,1.6-3.2,2.9-20,17.5-40.8,28.4ZM754.8,978.8c0-3.4-.6-6.8-2-10-2-4.7-5.4-8.5-8.5-12.5-1.5-1.9-3.2-3.8-4.7-5.7-1-1.3-.7-2.3.9-2.8.4.4.8.8,1.5.9.3-.4.6-.9.7-1.4,0-.1,0-.2.1-.4.7-.2,1.5-.5,2.2-.8,1.8-.7,4-.9,4.3-3.6,0-.6.5-1.4.3-1.7-.3-.4-1.1-.4-1.7-.4-1-.2-2.1-.1-3.1-.5.2-1.2.2-2.5,0-3.7-.2-1.6-1.1-3.2-1.7-4.8-1-2.5-2-4.9-2.9-7.4-1.1-2.8-.9-4.1,1.5-5.9,1.8-1.3,4-2,5.9-3.2,2.1-1.3,4.1-2.7,6-4.2,2.9-2.4,4.8-5.6,6-9.2.3-.8.7-1,1.4-1.1,1.1-.2,2.3-.3,3.3-.7,4.2-1.6,7.9-4.1,11.1-7.3-2.2,22.6-7.7,61.9-20.7,86.2ZM782.5,826.3c2.7.4,2.8.6,2.2,3.5,0,.5-.3.9-.5,1.5-.8-1.8-1.5-3.4-2.2-5,.3,0,.4,0,.5,0ZM794.9,883.1c1.7-1.7,3.1-3.5,5.5-4.4,0,2.1,0,4,0,6.2-1.9-.6-3.6-1.2-5.5-1.8Z"/>
    <g>
      <polygon class="st0" points="806.1 1068.4 807.4 1075.8 814.8 1077.2 808.1 1080.7 809 1088.2 803.7 1082.9 796.8 1086.1 800.2 1079.4 795 1073.9 802.5 1075 806.1 1068.4"/>
      <polygon class="st0" points="800.6 976.8 805.5 982.6 812.6 979.9 808.7 986.4 813.4 992.3 806 990.5 801.9 996.8 801.3 989.3 794 987.3 801 984.4 800.6 976.8"/>
      <polygon class="st0" points="701.8 1151.5 702.8 1157.1 708.4 1156.2 704.6 1160.5 708.9 1164.3 703.2 1164 702.8 1169.7 699.5 1165 694.8 1168.3 696.4 1162.8 690.9 1161.2 696.2 1159 694 1153.7 699 1156.5 701.8 1151.5"/>
      <polygon class="st0" points="381.2 1152.1 382.2 1157.8 387.9 1156.8 384 1161.1 388.3 1164.9 382.6 1164.6 382.3 1170.3 378.9 1165.6 374.3 1169 375.8 1163.5 370.3 1161.9 375.6 1159.7 373.4 1154.4 378.5 1157.1 381.2 1152.1"/>
      <polygon class="st0" points="687.7 1093 686.7 1098.7 692.3 1099.7 687.2 1102.4 689.9 1107.5 684.6 1105.2 682.4 1110.4 680.9 1104.9 675.3 1106.4 678.7 1101.8 674.1 1098.4 679.8 1098.1 679.6 1092.4 683.4 1096.8 687.7 1093"/>
      <polygon class="st0" points="284.4 1212.6 283.3 1218.2 289 1219.3 283.9 1222 286.6 1227 281.3 1224.7 279 1230 277.5 1224.5 272 1225.9 275.4 1221.3 270.8 1217.9 276.5 1217.7 276.3 1212 280 1216.3 284.4 1212.6"/>
      <polygon class="st0" points="531.4 1165.3 534.4 1170.1 539.3 1167.1 537.4 1172.5 542.8 1174.4 537.3 1176.3 539.2 1181.7 534.4 1178.7 531.3 1183.5 530.7 1177.8 525 1178.4 529 1174.4 525 1170.3 530.7 1171 531.4 1165.3"/>
      <polygon class="st0" points="803.4 1033.6 815 1034.1 803.9 1030.7 809.6 1025.3 802.8 1029 803.2 1017.4 799.8 1028.5 794.5 1022.8 798.1 1029.7 786.5 1029.2 797.6 1032.6 791.9 1037.9 798.8 1034.3 798.3 1045.9 801.8 1034.8 807.1 1040.5 803.4 1033.6"/>
      <polygon class="st0" points="323.9 1203.9 334 1209.5 325.7 1201.4 333.2 1199.3 325.4 1199.4 331.1 1189.3 323 1197.6 320.9 1190.1 321 1197.9 310.8 1192.2 319.2 1200.3 311.7 1202.5 319.5 1202.4 313.8 1212.5 321.9 1204.2 324 1211.7 323.9 1203.9"/>
      <polygon class="st0" points="676.8 1129.1 674.8 1138.7 684.5 1138.3 675.3 1141.4 680.5 1149.7 673.2 1143.2 668.6 1151.8 670.6 1142.3 660.8 1142.6 670.1 1139.5 664.9 1131.3 672.2 1137.7 676.8 1129.1"/>
      <polygon class="st0" points="245.5 1235.3 243.5 1244.9 253.3 1244.5 244 1247.6 249.2 1255.9 241.9 1249.4 237.4 1258 239.3 1248.5 229.6 1248.8 238.8 1245.7 233.6 1237.5 240.9 1243.9 245.5 1235.3"/>
      <polygon class="st0" points="636.9 1125.7 636.2 1139.2 649.5 1136.7 637.4 1142.8 646.2 1153 634.9 1145.7 630.4 1158.4 631.2 1144.9 617.9 1147.4 629.9 1141.3 621.2 1131.1 632.5 1138.4 636.9 1125.7"/>
      <polygon class="st0" points="778.6 1059.4 780.4 1067.7 787.5 1062.9 782.2 1069.6 790.3 1072.1 781.8 1072.1 784.8 1080.1 779.5 1073.4 775.2 1080.7 777.1 1072.4 768.7 1073.6 776.4 1070 770.2 1064.1 777.9 1067.8 778.6 1059.4"/>
      <polygon class="st0" points="725.5 1115.3 722 1127.7 734.3 1123.8 723 1130.1 734.5 1136.1 722 1132.5 725.9 1144.8 719.7 1133.5 713.7 1145 717.3 1132.5 704.9 1136.4 716.3 1130.2 704.7 1124.2 717.2 1127.8 713.3 1115.4 719.6 1126.8 725.5 1115.3"/>
      <polygon class="st0" points="598.3 1179.5 603.5 1189.9 601.1 1178.5 608.5 1181 602 1176.7 612.4 1171.5 601 1173.9 603.5 1166.5 599.2 1173 594 1162.6 596.4 1174 589 1171.5 595.5 1175.8 585.1 1181 596.5 1178.6 594 1186 598.3 1179.5"/>
      <polygon class="st0" points="461.9 1205.6 451.1 1213.6 461.4 1222.3 449.1 1216.9 446.8 1230.1 445.3 1216.8 432.6 1221.4 443.5 1213.4 433.1 1204.7 445.5 1210.1 447.8 1196.9 449.3 1210.2 461.9 1205.6"/>
      <polygon class="st0" points="559.4 1182.5 551.9 1193.7 564.5 1198.4 551.1 1197.4 553.3 1210.7 547.4 1198.6 537 1207.1 544.6 1196 532 1191.3 545.4 1192.3 543.2 1179 549.1 1191.1 559.4 1182.5"/>
      <polygon class="st0" points="627.9 1090.1 621.8 1101 634.1 1102.7 621.8 1104.7 628.1 1115.5 618.9 1107.1 614.4 1118.7 615.2 1106.3 603.4 1110 613.6 1102.9 603.2 1096 615.2 1099.5 614.2 1087.1 618.8 1098.7 627.9 1090.1"/>
      <polygon class="st0" points="370.5 1171.5 359.5 1178.3 371.3 1183.7 358.7 1180.7 363.2 1192.9 356.4 1181.9 351 1193.7 354 1181 341.8 1185.6 352.8 1178.7 341 1173.4 353.7 1176.3 349.1 1164.2 356 1175.2 361.3 1163.4 358.4 1176 370.5 1171.5"/>
      <polygon class="st0" points="749.5 1062.9 738.5 1069.7 750.3 1075.1 737.7 1072.1 742.2 1084.3 735.4 1073.3 730 1085.1 732.9 1072.4 720.8 1077 731.8 1070.1 720 1064.8 732.6 1067.7 728.1 1055.6 734.9 1066.6 740.3 1054.8 737.4 1067.4 749.5 1062.9"/>
      <polygon class="st0" points="764.5 1114.7 753.4 1121.5 765.2 1126.9 752.6 1124 757.2 1136.1 750.3 1125.1 744.9 1136.9 747.9 1124.3 735.7 1128.8 746.8 1122 735 1116.6 747.6 1119.5 743 1107.4 749.9 1118.4 755.3 1106.6 752.3 1119.2 764.5 1114.7"/>
      <polygon class="st0" points="411.9 1168.8 404.3 1179.9 417 1184.6 403.5 1183.7 405.8 1196.9 399.9 1184.8 389.5 1193.4 397.1 1182.3 384.4 1177.6 397.9 1178.5 395.6 1165.2 401.5 1177.4 411.9 1168.8"/>
      <polygon class="st0" points="597 1128.2 588.9 1138.4 601.8 1139.5 588.9 1140.9 597.3 1150.9 587.1 1142.8 586 1155.7 584.6 1142.8 574.6 1151.1 582.7 1141 569.8 1139.9 582.7 1138.4 574.4 1128.5 584.5 1136.6 585.6 1123.7 587.1 1136.6 597 1128.2"/>
      <polygon class="st0" points="482.9 1190.3 487.5 1201 485.8 1189.5 493.1 1192.4 486.8 1187.7 497.5 1183.1 486 1184.8 488.9 1177.5 484.2 1183.8 479.7 1173.1 481.3 1184.6 474.1 1181.7 480.3 1186.4 469.7 1191 481.2 1189.3 478.3 1196.5 482.9 1190.3"/>
      <polygon class="st0" points="460.6 1179.4 447.5 1182.6 453.7 1194.6 444.4 1184.9 437.1 1196.2 440.9 1183.3 427.4 1182.7 440.5 1179.5 434.3 1167.6 443.6 1177.3 450.8 1165.9 447.1 1178.8 460.6 1179.4"/>
      <polygon class="st0" points="524.2 1162.4 514.4 1170.1 525.1 1176.4 513 1173.5 514.7 1185.9 509.4 1174.6 500.9 1183.6 506.3 1172.5 493.9 1171.4 506.1 1168.7 499.2 1158.3 508.9 1166.2 512.7 1154.3 512.6 1166.8 524.2 1162.4"/>
      <polygon class="st0" points="574.2 1152.3 562.4 1157.7 573.5 1164.5 561.3 1160.1 564.4 1172.7 558.9 1160.9 552.1 1172 556.6 1159.8 544 1162.8 555.7 1157.4 544.6 1150.6 556.8 1155.1 553.8 1142.5 559.3 1154.2 566 1143.1 561.6 1155.3 574.2 1152.3"/>
    </g>
  </g>
</svg>