<?xml version="1.0" encoding="utf-8"?>
<!-- Generator: Adobe Illustrator 28.2.0, SVG Export Plug-In . SVG Version: 6.00 Build 0)  -->
<svg version="1.1" id="_レイヤー_1" xmlns="http://www.w3.org/2000/svg" xmlns:xlink="http://www.w3.org/1999/xlink" x="0px"
	 y="0px" viewBox="0 0 1920 1920" style="enable-background:new 0 0 1920 1920;" xml:space="preserve">
<style type="text/css">
	.st0{fill:#FFFFFF;}
	.st1{fill:#F4F4F4;}
	.st2{fill:#313333;}
	.st3{fill:#DCDDDD;}
</style>
<g>
	<g>
		<path class="st0" d="M385.2,716.8h444.3c11.6,0,21.1,9.4,21.1,21.1v444.3c0,11.6-9.4,21.1-21.1,21.1H385.2
			c-11.6,0-21.1-9.4-21.1-21.1V737.8C364.2,726.2,373.6,716.8,385.2,716.8z"/>
		<path class="st1" d="M850.3,955.6v226.6c0,11.6-9.4,21.1-21.1,21.1h-216L423.1,1013h48.1v2.2l0.4,4.7l1.1,4.5l1.8,4.2l2.3,3.6
			l3,3.5l3.3,2.8l3.9,2.4l4.3,1.9l4.4,1l4.8,0.4l4.8-0.4l4.5-1l4.1-1.9l3.9-2.4l3.4-2.8l3-3.5l2.4-3.6l1.8-4.2l1.1-4.5l0.4-4.7v-2.2
			h132.2v2.1l0.4,4.7l1.1,4.5l1.8,4.1l2.4,3.8l2.9,3.5l3.3,2.9l3.8,2.3l4.3,1.8l4.5,1.2l4.8,0.4l4.8-0.4l4.5-1.2l4.2-1.8l3.9-2.3
			l3.4-2.9l2.9-3.5l2.4-3.8l1.9-4.1l1-4.5l0.4-4.7v-2.1h71.1V911.6l-0.4-5.2l-1.2-5.1l-1.7-4.7l-2.6-4.5l-3.1-3.9L850.3,955.6z"/>
		<g>
			<path class="st2" d="M791.4,906.4l-1.2-5.1l-1.7-4.7l-2.6-4.5l-3.1-3.9l-3.6-3.5l-4.1-3.2l-4.3-2.4l-4.9-1.8l-5.1-1.2l-5.4-0.4
				l0,0H445.1l-2.1,0.4l-1.8,0.6l-1.6,1.4l-1.1,1.4l-0.8,1.8L423,954.8v58.2h48.2v2.2l0.4,4.7l1.1,4.5l1.8,4.2l2.3,3.6l3,3.5
				l3.3,2.8l3.9,2.4l4.3,1.9l4.4,1l4.8,0.4l4.8-0.4l4.5-1l4.1-1.9l3.9-2.4l3.4-2.8l3-3.5l2.4-3.6l1.8-4.2l1.1-4.5l0.4-4.7v-2.2
				h132.2v2.1l0.4,4.7l1.1,4.5l1.8,4.1l2.4,3.8l2.9,3.5l3.3,2.9l3.8,2.3l4.3,1.8l4.5,1.2l4.8,0.4l4.8-0.4l4.5-1.2l4.2-1.8l3.9-2.3
				l3.4-2.9l2.9-3.5l2.4-3.8l1.9-4.1l1-4.5l0.4-4.7v-2.1h71.1V911.6L791.4,906.4z M475.2,986.6h-35.8v-30l13.8-64.6h22V986.6z
				 M550.3,941.7h-59.1V892h59.1V941.7z M625.5,941.7h-59.1V892h59.1V941.7z M700.5,941.7h-59V892h59V941.7z M775.4,941.6h-58.7V892
				h38.8l4.1,0.4l3.7,1.1l3.3,1.9l2.9,2.4l2.5,2.8l1.8,3.4l1.1,3.7l0.4,3.9V941.6z"/>
		</g>
	</g>
	<g>
		<path class="st0" d="M944.7,808.2h-37v-91.5h35.6c17,0,27.6,9.6,27.6,25c0,9.9-6.2,17-12.3,19.4c7.1,2.8,13.8,9.6,13.8,21.2
			C972.3,799.3,960.9,808.2,944.7,808.2L944.7,808.2z M942.1,729.2h-20.6v26.2h20.6c8.9,0,14.9-4.6,14.9-13.1S951,729.2,942.1,729.2
			L942.1,729.2z M943.4,767.9h-21.8v27.9h21.8c9.6,0,15-5.9,15-14S953,767.9,943.4,767.9z"/>
		<path class="st0" d="M1029.2,808.2v-6.5c-4.5,4.9-10.8,7.3-17.3,7.3s-12.2-2.2-16.1-5.9c-5-4.9-6.5-11-6.5-18.4v-41.6h13.1v39.7
			c0,10.2,5.8,14.5,13.1,14.5s13.5-4.5,13.5-14.5v-39.7h13.1v65.1L1029.2,808.2L1029.2,808.2z"/>
		<path class="st0" d="M1083.5,809c-10.7,0-19.7-1.8-27.4-9.4l8.6-8.6c5.3,5.4,12.3,6.8,18.8,6.8c8.1,0,14.3-2.8,14.3-9
			c0-4.5-2.4-7.1-8.7-7.7l-10.4-0.9c-12.3-1.2-19.3-6.5-19.3-18c0-12.8,10.9-19.9,24.5-19.9c9.9,0,18.1,2,24.2,7.3l-8.2,8.3
			c-4.1-3.5-9.9-4.8-16.1-4.8c-8,0-11.8,3.3-11.8,8.3c0,4.5,2.6,6.8,9,7.5l9.1,0.8c13.5,1.2,20.6,7.1,20.6,18.5
			C1110.6,802,1099.1,809,1083.5,809L1083.5,809z"/>
		<path class="st0" d="M907.7,932.3v-91.5h13.9v91.5H907.7z"/>
		<path class="st0" d="M981.8,932.3v-39.7c0-10.2-5.8-14.5-13.1-14.5s-13.5,4.5-13.5,14.5v39.7h-13.1v-65.1H955v6.5
			c4.5-4.9,10.8-7.3,17.3-7.3s12.2,2.2,16.1,5.9c5,4.9,6.5,11,6.5,18.4v41.6L981.8,932.3L981.8,932.3z"/>
		<path class="st0" d="M1028.6,877.2v55.1h-13.1v-55.1h-7.5v-10h7.5v-8.9c0-9.4,5.7-18.1,17.9-18.1h8.2v11.2h-5.8
			c-4.9,0-7.2,2.8-7.2,7.6v8.2h13v10L1028.6,877.2L1028.6,877.2z"/>
		<path class="st0" d="M1098.3,925.4c-4.2,4.4-10.7,7.7-19.5,7.7s-15.2-3.3-19.4-7.7c-6.2-6.4-7.7-14.7-7.7-25.7s1.5-19.1,7.7-25.6
			c4.2-4.4,10.5-7.7,19.4-7.7s15.3,3.3,19.5,7.7c6.2,6.4,7.7,14.6,7.7,25.6S1104.5,919,1098.3,925.4z M1088.4,881.8
			c-2.4-2.4-5.8-3.7-9.6-3.7s-7.1,1.3-9.5,3.7c-4,4-4.5,10.8-4.5,17.9s0.5,13.9,4.5,17.9c2.4,2.4,5.7,3.8,9.5,3.8s7.2-1.4,9.6-3.8
			c4-4,4.5-10.8,4.5-17.9S1092.4,885.8,1088.4,881.8z"/>
		<path class="st0" d="M1158.8,882.5c-2.9-3-5.3-4.4-9.8-4.4c-7.1,0-13,5.7-13,14.7v39.6h-13.1v-65.1h12.8v7.1
			c3.3-4.6,10-7.8,17.3-7.8c6.3,0,11.1,1.7,15.5,6.2L1158.8,882.5L1158.8,882.5z"/>
		<path class="st0" d="M1260.2,932.3v-39.7c0-10.2-5.8-14.5-13.1-14.5s-13.5,4.5-13.5,13.9v40.3h-13.1v-39.7
			c0-10.2-5.8-14.5-13.1-14.5s-13.5,4.5-13.5,14.5v39.7h-13.1v-65.1h12.8v6.5c4.4-4.8,10.8-7.3,17.3-7.3c8.1,0,14.4,3.2,18.5,9.5
			c5.3-6.4,11.8-9.5,20.4-9.5c6.7,0,12.6,2.2,16.4,5.9c5,4.9,6.9,11,6.9,18.4v41.6L1260.2,932.3L1260.2,932.3z"/>
		<path class="st0" d="M1327.9,932.3v-5.9c-4.8,4.8-9.2,6.7-17.3,6.7s-13.5-1.9-17.5-5.9c-3.3-3.5-5.1-8.5-5.1-14
			c0-10.9,7.6-18.8,22.6-18.8h17.1v-4.6c0-8.3-4-12.2-14.3-12.2c-6.9,0-10.5,1.8-14.3,6.4l-8.5-8.1c6-7.2,12.3-9.5,23.2-9.5
			c18,0,26.8,7.7,26.8,22.3v43.5L1327.9,932.3L1327.9,932.3z M1327.6,903.5h-15c-8,0-11.9,3.3-11.9,9.4s3.7,9.2,12.3,9.2
			c4.6,0,8.3-0.5,11.8-3.7c2.1-1.9,2.8-5,2.8-9.6L1327.6,903.5L1327.6,903.5z"/>
		<path class="st0" d="M1379.1,932.3c-12.2,0-17.9-8.7-17.9-18.1v-37h-7.4v-10h7.4v-18.6h13.1v18.6h12.6v10h-12.6v36.4
			c0,4.8,2.3,7.6,7.2,7.6h5.4v11.2L1379.1,932.3L1379.1,932.3z"/>
		<path class="st0" d="M1401.7,854.3v-13.9h13.9v13.9H1401.7z M1402,932.3v-65.1h13.1v65.1H1402z"/>
		<path class="st0" d="M1478.4,925.4c-4.2,4.4-10.7,7.7-19.5,7.7s-15.2-3.3-19.4-7.7c-6.2-6.4-7.7-14.7-7.7-25.7s1.5-19.1,7.7-25.6
			c4.2-4.4,10.5-7.7,19.4-7.7s15.3,3.3,19.5,7.7c6.2,6.4,7.7,14.6,7.7,25.6S1484.6,919,1478.4,925.4z M1468.5,881.8
			c-2.4-2.4-5.8-3.7-9.6-3.7s-7.1,1.3-9.5,3.7c-4,4-4.5,10.8-4.5,17.9s0.5,13.9,4.5,17.9c2.4,2.4,5.7,3.8,9.5,3.8s7.2-1.4,9.6-3.8
			c4-4,4.5-10.8,4.5-17.9S1472.5,885.8,1468.5,881.8z"/>
		<path class="st0" d="M1542.7,932.3v-39.7c0-10.2-5.8-14.5-13.1-14.5s-13.5,4.5-13.5,14.5v39.7H1503v-65.1h12.8v6.5
			c4.5-4.9,10.8-7.3,17.3-7.3s12.2,2.2,16.1,5.9c5,4.9,6.6,11,6.6,18.4v41.6L1542.7,932.3L1542.7,932.3z"/>
		<path class="st0" d="M944.7,1054.9h-37v-91.5h35.6c17,0,27.6,9.6,27.6,25c0,9.9-6.2,17-12.3,19.4c7.1,2.8,13.8,9.6,13.8,21.2
			C972.3,1045.9,960.9,1054.8,944.7,1054.9L944.7,1054.9z M942.1,975.8h-20.6v26.2h20.6c8.9,0,14.9-4.6,14.9-13.1
			S951,975.9,942.1,975.8L942.1,975.8z M943.4,1014.5h-21.8v27.9h21.8c9.6,0,15-5.9,15-14S953,1014.5,943.4,1014.5z"/>
		<path class="st0" d="M1034.4,1047.9c-4.2,4.4-10.7,7.7-19.5,7.7s-15.2-3.3-19.4-7.7c-6.2-6.4-7.7-14.7-7.7-25.7s1.5-19.1,7.7-25.6
			c4.2-4.4,10.5-7.7,19.4-7.7s15.3,3.3,19.5,7.7c6.2,6.4,7.7,14.6,7.7,25.6S1040.5,1041.5,1034.4,1047.9z M1024.5,1004.4
			c-2.4-2.4-5.8-3.7-9.6-3.7s-7.1,1.3-9.5,3.7c-4,4-4.5,10.8-4.5,17.9c0,7.1,0.5,13.9,4.5,17.9c2.4,2.4,5.7,3.8,9.5,3.8
			s7.2-1.4,9.6-3.8c4-4,4.5-10.8,4.5-17.9S1028.5,1008.3,1024.5,1004.4z"/>
		<path class="st0" d="M1095,1054.9v-5.9c-4.8,4.8-9.2,6.7-17.3,6.7s-13.5-1.9-17.5-5.9c-3.3-3.5-5.1-8.5-5.1-14
			c0-10.9,7.6-18.8,22.6-18.8h17.1v-4.6c0-8.3-4-12.2-14.3-12.2c-6.9,0-10.5,1.8-14.3,6.4l-8.5-8.1c6-7.2,12.3-9.5,23.2-9.5
			c18,0,26.8,7.7,26.8,22.3v43.5L1095,1054.9L1095,1054.9z M1094.8,1026.1h-15c-8,0-11.9,3.3-11.9,9.4s3.7,9.2,12.3,9.2
			c4.6,0,8.3-0.5,11.8-3.7c2.1-1.9,2.8-5,2.8-9.6L1094.8,1026.1L1094.8,1026.1z"/>
		<path class="st0" d="M1162.8,1005c-2.9-3-5.3-4.4-9.8-4.4c-7.1,0-13,5.7-13,14.7v39.6H1127v-65.1h12.8v7.1
			c3.3-4.6,10-7.8,17.3-7.8c6.3,0,11.1,1.7,15.5,6.2L1162.8,1005L1162.8,1005z"/>
		<path class="st0" d="M1221.3,1054.9v-6.9c-4.9,5.9-10.2,7.7-17.2,7.7c-6.6,0-12.3-2.2-15.9-5.8c-6.3-6.4-7.3-16.8-7.3-27.6
			s1-21.1,7.3-27.5c3.6-3.6,9.2-5.8,15.8-5.8c6.9,0,12.3,1.7,17.1,7.3v-32.9h13.1v91.5L1221.3,1054.9L1221.3,1054.9z M1207.5,1000.7
			c-11.9,0-13.6,10-13.6,21.6s1.7,21.7,13.6,21.7s13.5-10.2,13.5-21.7S1219.3,1000.7,1207.5,1000.7z"/>
		<path class="st0" d="M931.9,1178.2c-13.8,0-23.5-3.2-32.4-12.1l9.1-9.1c6.7,6.7,14.3,8.9,23.5,8.9c12.1,0,18.9-5.1,18.9-14.1
			c0-4.1-1-7.3-3.6-9.5c-2.3-2.1-5.4-3.2-10-3.8l-10.8-1.5c-7.5-1.2-13.2-3.5-17.2-7.3c-4.5-4.1-6.8-10-6.8-17.6
			c0-15.9,11.6-26.7,30.6-26.7c12.2,0,20.6,3.1,28.4,10.4l-8.7,8.7c-5.7-5.4-12.3-7.1-20.2-7.1c-10.8,0-16.6,5.9-16.6,14.3
			c0,3.3,0.9,6.4,3.3,8.5c2.3,2.1,5,3.3,10,4.1l10.9,1.7c8.3,1.3,13,3.2,17,6.8c4.9,4.5,7.5,10.8,7.5,18.8
			C964.8,1168.2,951.2,1178.2,931.9,1178.2L931.9,1178.2z"/>
		<path class="st0" d="M1000.2,1190.4c-1.3,3.6-2.8,6.2-4.8,8.1c-3.6,3.6-8.3,4.8-13.4,4.8h-5.3v-11.8h3.3c5.5,0,7.5-1.7,9.4-6.9
			l3.6-10.2l-22.7-62.1h13.9l15.5,45.9l15.2-45.9h14L1000.2,1190.4L1000.2,1190.4z"/>
		<path class="st0" d="M1061.5,1178.2c-10.7,0-19.7-1.8-27.4-9.4l8.6-8.6c5.3,5.4,12.3,6.8,18.8,6.8c8.1,0,14.3-2.8,14.3-9
			c0-4.5-2.4-7.1-8.7-7.7l-10.4-0.9c-12.3-1.2-19.3-6.6-19.3-18c0-12.8,10.9-19.9,24.5-19.9c9.9,0,18.1,2.1,24.2,7.3l-8.2,8.3
			c-4.1-3.5-9.9-4.8-16.1-4.8c-8,0-11.8,3.3-11.8,8.3c0,4.5,2.6,6.8,9,7.4l9.1,0.8c13.5,1.2,20.6,7.1,20.6,18.5
			C1088.6,1171.1,1077,1178.2,1061.5,1178.2L1061.5,1178.2z"/>
		<path class="st0" d="M1124.5,1177.4c-12.2,0-17.9-8.7-17.9-18.1v-37h-7.4v-10h7.4v-18.6h13.1v18.6h12.6v10h-12.6v36.4
			c0,4.8,2.3,7.6,7.2,7.6h5.4v11.2L1124.5,1177.4L1124.5,1177.4z"/>
		<path class="st0" d="M1156.6,1148.6c0,11.3,5.8,18.2,16.6,18.2c7.3,0,11.2-2.1,15.8-6.7l8.3,7.8c-6.7,6.7-13,10.2-24.4,10.2
			c-16.3,0-29.3-8.6-29.3-33.4c0-21.2,10.9-33.3,27.6-33.3s27.6,12.6,27.6,31.6v5.5L1156.6,1148.6L1156.6,1148.6z M1184.1,1130.6
			c-2.2-4.9-6.7-8.2-12.8-8.2s-10.8,3.3-13,8.2c-1.3,2.8-1.5,4.9-1.7,8.9h29.3C1185.7,1135.5,1185.4,1133.4,1184.1,1130.6z"/>
		<path class="st0" d="M1294.7,1177.4v-39.7c0-10.2-5.8-14.5-13.1-14.5s-13.5,4.5-13.5,13.9v40.3H1255v-39.7
			c0-10.2-5.8-14.5-13.1-14.5s-13.5,4.5-13.5,14.5v39.7h-13.1v-65.1h12.8v6.6c4.4-4.8,10.8-7.3,17.3-7.3c8.1,0,14.4,3.2,18.5,9.5
			c5.3-6.4,11.8-9.5,20.4-9.5c6.7,0,12.6,2.2,16.4,5.9c5,4.9,6.9,11.1,6.9,18.4v41.6L1294.7,1177.4L1294.7,1177.4z"/>
	</g>
</g>
<g>
	<path class="st3" d="M844.5,1863.3h-7.6v11.1h-2v-26.1h9.6c4.5,0,7.9,2.8,7.9,7.5S849.1,1863.3,844.5,1863.3z M844.3,1850h-7.4
		v11.5h7.4c3.6,0,6.1-1.8,6.1-5.8S848,1850,844.3,1850z"/>
	<path class="st3" d="M868.6,1872.6c-1.3,1.3-2.9,1.9-4.9,1.9s-3.6-0.7-4.9-1.9c-1.9-1.9-2.2-4.6-2.2-7.1s0.3-5.2,2.2-7.1
		c1.3-1.3,2.9-1.9,4.9-1.9s3.6,0.7,4.9,1.9c1.9,1.9,2.2,4.6,2.2,7.1S870.5,1870.8,868.6,1872.6z M867.4,1859.6c-1-1-2.2-1.5-3.7-1.5
		s-2.7,0.5-3.7,1.5c-1.5,1.5-1.6,3.8-1.6,5.9s0.1,4.4,1.6,5.9c1,1,2.2,1.5,3.7,1.5s2.7-0.5,3.7-1.5c1.5-1.5,1.6-3.8,1.6-5.9
		S868.9,1861.1,867.4,1859.6z"/>
	<path class="st3" d="M893.3,1874.4h-1.9l-5-14.8l-5,14.8h-1.9l-5.7-17.7h2l4.5,15.5l5.1-15.5h1.8l5.1,15.5l4.5-15.5h2L893.3,1874.4
		L893.3,1874.4z"/>
	<path class="st3" d="M903.9,1865.9c0,4.5,2,7,5.8,7c2.1,0,3.4-0.6,4.9-2.1l1.4,1.1c-1.8,1.8-3.5,2.7-6.4,2.7
		c-4.9,0-7.5-3.2-7.5-9.1s2.6-9.1,7.1-9.1s7.1,3.2,7.1,8.6v0.8L903.9,1865.9L903.9,1865.9z M913.7,1861.1c-0.8-1.9-2.5-3-4.6-3
		s-3.7,1.1-4.6,3c-0.5,1.1-0.5,1.7-0.6,3.3h10.4C914.2,1862.7,914.1,1862.1,913.7,1861.1L913.7,1861.1z"/>
	<path class="st3" d="M928.8,1858.1c-3,0-4.7,2.5-4.7,5.4v10.9h-1.9v-17.7h1.9v2.3c1-1.7,3.1-2.6,5.2-2.6c1.7,0,3,0.4,4.3,1.7
		l-1.4,1.4C931.1,1858.4,930.3,1858.1,928.8,1858.1L928.8,1858.1z"/>
	<path class="st3" d="M938,1865.9c0,4.5,2,7,5.8,7c2.1,0,3.4-0.6,4.9-2.1l1.4,1.1c-1.8,1.8-3.5,2.7-6.4,2.7c-4.9,0-7.5-3.2-7.5-9.1
		s2.6-9.1,7.1-9.1s7.1,3.2,7.1,8.6v0.8L938,1865.9L938,1865.9z M947.8,1861.1c-0.8-1.9-2.5-3-4.6-3s-3.7,1.1-4.6,3
		c-0.5,1.1-0.5,1.7-0.6,3.3h10.4C948.4,1862.7,948.3,1862.1,947.8,1861.1L947.8,1861.1z"/>
	<path class="st3" d="M967.2,1874.4v-2.3c-1.6,2.1-3.2,2.5-5.2,2.5c-1.9,0-3.4-0.6-4.3-1.5c-1.8-1.8-2.3-4.7-2.3-7.5
		s0.5-5.7,2.3-7.5c0.9-0.9,2.5-1.5,4.3-1.5c2,0,3.7,0.4,5.2,2.5v-10.7h1.9v26.1L967.2,1874.4L967.2,1874.4z M962.2,1858.1
		c-4.3,0-5,3.7-5,7.4s0.7,7.4,5,7.4s5-3.7,5-7.4S966.5,1858.1,962.2,1858.1z"/>
	<path class="st3" d="M997,1873c-0.9,0.9-2.5,1.5-4.3,1.5c-2,0-3.7-0.4-5.2-2.5v2.3h-1.9v-26.1h1.9v10.7c1.6-2.1,3.2-2.5,5.2-2.5
		c1.9,0,3.4,0.6,4.3,1.5c1.8,1.8,2.3,4.7,2.3,7.5S998.8,1871.2,997,1873L997,1873z M992.4,1858.1c-4.3,0-5,3.7-5,7.4s0.7,7.4,5,7.4
		s5-3.7,5-7.4S996.7,1858.1,992.4,1858.1z"/>
	<path class="st3" d="M1008.8,1879.2c-0.3,0.9-0.7,1.7-1.2,2.1c-0.9,0.8-2.2,1.1-3.3,1.1h-0.9v-1.7h0.7c2,0,2.6-0.7,3.2-2.4l1.4-3.9
		l-6.5-17.7h2l5.3,15.5l5.3-15.5h2L1008.8,1879.2L1008.8,1879.2z"/>
	<path class="st3" d="M1037.8,1850v24.4h-2V1850h-7.8v-1.8h17.6v1.8H1037.8L1037.8,1850z"/>
	<path class="st3" d="M1048.6,1877.1h-1.9l10.4-31.6h1.9L1048.6,1877.1z"/>
	<path class="st3" d="M1083.1,1874.4v-21.5l-7.9,17.9h-2l-8.1-17.9v21.5h-2v-26.1h2l9.1,20.1l8.9-20.1h2v26.1H1083.1L1083.1,1874.4z
		"/>
</g>
</svg>
