<?xml version="1.0" encoding="UTF-8"?>
<svg id="_レイヤー_1" data-name=" レイヤー 1" xmlns="http://www.w3.org/2000/svg" viewBox="0 0 1191.7 1165.7">
  <defs>
    <style>
      .cls-1 {
        fill: #c6c6c6;
      }

      .cls-2 {
        fill: #fff;
      }

      .cls-3 {
        fill: #dcdddd;
      }

      .cls-4 {
        fill: #001545;
      }
    </style>
  </defs>
  <g>
    <path class="cls-2" d="M21.1.1h444.3c11.6,0,21.1,9.4,21.1,21.1v444.3c0,11.6-9.4,21.1-21.1,21.1H21.1c-11.6,0-21.1-9.4-21.1-21.1V21.1C.1,9.5,9.5.1,21.1.1Z"/>
    <g>
      <path class="cls-2" d="M580.6,91.5h-37V0h35.6c17,0,27.6,9.6,27.6,25,0,9.9-6.2,17-12.3,19.4,7.1,2.8,13.8,9.6,13.8,21.2-.1,17-11.5,25.9-27.7,25.9h0ZM578,12.5h-20.6v26.2h20.6c8.9,0,14.9-4.6,14.9-13.1s-6-13.1-14.9-13.1h0ZM579.3,51.2h-21.8v27.9h21.8c9.6,0,15-5.9,15-14s-5.4-13.9-15-13.9Z"/>
      <path class="cls-2" d="M665.1,91.5v-6.5c-4.5,4.9-10.8,7.3-17.3,7.3s-12.2-2.2-16.1-5.9c-5-4.9-6.5-11-6.5-18.4V26.4h13.1v39.7c0,10.2,5.8,14.5,13.1,14.5s13.5-4.5,13.5-14.5V26.4h13.1v65.1h-12.9Z"/>
      <path class="cls-2" d="M719.4,92.3c-10.7,0-19.7-1.8-27.4-9.4l8.6-8.6c5.3,5.4,12.3,6.8,18.8,6.8,8.1,0,14.3-2.8,14.3-9,0-4.5-2.4-7.1-8.7-7.7l-10.4-.9c-12.3-1.2-19.3-6.5-19.3-18,0-12.8,10.9-19.9,24.5-19.9,9.9,0,18.1,2,24.2,7.3l-8.2,8.3c-4.1-3.5-9.9-4.8-16.1-4.8-8,0-11.8,3.3-11.8,8.3,0,4.5,2.6,6.8,9,7.5l9.1.8c13.5,1.2,20.6,7.1,20.6,18.5-.1,13.8-11.6,20.8-27.2,20.8h0Z"/>
      <path class="cls-2" d="M543.6,215.6v-91.5h13.9v91.5h-13.9Z"/>
      <path class="cls-2" d="M617.7,215.6v-39.7c0-10.2-5.8-14.5-13.1-14.5s-13.5,4.5-13.5,14.5v39.7h-13.1v-65.1h12.9v6.5c4.5-4.9,10.8-7.3,17.3-7.3s12.2,2.2,16.1,5.9c5,4.9,6.5,11,6.5,18.4v41.6h-13.1Z"/>
      <path class="cls-2" d="M664.5,160.5v55.1h-13.1v-55.1h-7.5v-10h7.5v-8.9c0-9.4,5.7-18.1,17.9-18.1h8.2v11.2h-5.8c-4.9,0-7.2,2.8-7.2,7.6v8.2h13v10h-13Z"/>
      <path class="cls-2" d="M734.2,208.7c-4.2,4.4-10.7,7.7-19.5,7.7s-15.2-3.3-19.4-7.7c-6.2-6.4-7.7-14.7-7.7-25.7s1.5-19.1,7.7-25.6c4.2-4.4,10.5-7.7,19.4-7.7s15.3,3.3,19.5,7.7c6.2,6.4,7.7,14.6,7.7,25.6s-1.5,19.3-7.7,25.7ZM724.3,165.1c-2.4-2.4-5.8-3.7-9.6-3.7s-7.1,1.3-9.5,3.7c-4,4-4.5,10.8-4.5,17.9s.5,13.9,4.5,17.9c2.4,2.4,5.7,3.8,9.5,3.8s7.2-1.4,9.6-3.8c4-4,4.5-10.8,4.5-17.9s-.5-13.9-4.5-17.9Z"/>
      <path class="cls-2" d="M794.7,165.8c-2.9-3-5.3-4.4-9.8-4.4-7.1,0-13,5.7-13,14.7v39.6h-13.1v-65.1h12.8v7.1c3.3-4.6,10-7.8,17.3-7.8,6.3,0,11.1,1.7,15.5,6.2l-9.7,9.7h0Z"/>
      <path class="cls-2" d="M896.1,215.6v-39.7c0-10.2-5.8-14.5-13.1-14.5s-13.5,4.5-13.5,13.9v40.3h-13.1v-39.7c0-10.2-5.8-14.5-13.1-14.5s-13.5,4.5-13.5,14.5v39.7h-13.1v-65.1h12.8v6.5c4.4-4.8,10.8-7.3,17.3-7.3,8.1,0,14.4,3.2,18.5,9.5,5.3-6.4,11.8-9.5,20.4-9.5,6.7,0,12.6,2.2,16.4,5.9,5,4.9,6.9,11,6.9,18.4v41.6h-12.9Z"/>
      <path class="cls-2" d="M963.8,215.6v-5.9c-4.8,4.8-9.2,6.7-17.3,6.7s-13.5-1.9-17.5-5.9c-3.3-3.5-5.1-8.5-5.1-14,0-10.9,7.6-18.8,22.6-18.8h17.1v-4.6c0-8.3-4-12.2-14.3-12.2-6.9,0-10.5,1.8-14.3,6.4l-8.5-8.1c6-7.2,12.3-9.5,23.2-9.5,18,0,26.8,7.7,26.8,22.3v43.5l-12.7.1h0ZM963.5,186.8h-15c-8,0-11.9,3.3-11.9,9.4s3.7,9.2,12.3,9.2c4.6,0,8.3-.5,11.8-3.7,2.1-1.9,2.8-5,2.8-9.6v-5.3h0Z"/>
      <path class="cls-2" d="M1015,215.6c-12.2,0-17.9-8.7-17.9-18.1v-37h-7.4v-10h7.4v-18.6h13.1v18.6h12.6v10h-12.6v36.4c0,4.8,2.3,7.6,7.2,7.6h5.4v11.2l-7.8-.1h0Z"/>
      <path class="cls-2" d="M1037.6,137.6v-13.9h13.9v13.9h-13.9ZM1037.9,215.6v-65.1h13.1v65.1h-13.1Z"/>
      <path class="cls-2" d="M1114.3,208.7c-4.2,4.4-10.7,7.7-19.5,7.7s-15.2-3.3-19.4-7.7c-6.2-6.4-7.7-14.7-7.7-25.7s1.5-19.1,7.7-25.6c4.2-4.4,10.5-7.7,19.4-7.7s15.3,3.3,19.5,7.7c6.2,6.4,7.7,14.6,7.7,25.6s-1.5,19.3-7.7,25.7ZM1104.4,165.1c-2.4-2.4-5.8-3.7-9.6-3.7s-7.1,1.3-9.5,3.7c-4,4-4.5,10.8-4.5,17.9s.5,13.9,4.5,17.9c2.4,2.4,5.7,3.8,9.5,3.8s7.2-1.4,9.6-3.8c4-4,4.5-10.8,4.5-17.9s-.5-13.9-4.5-17.9Z"/>
      <path class="cls-2" d="M1178.6,215.6v-39.7c0-10.2-5.8-14.5-13.1-14.5s-13.5,4.5-13.5,14.5v39.7h-13.1v-65.1h12.8v6.5c4.5-4.9,10.8-7.3,17.3-7.3s12.2,2.2,16.1,5.9c5,4.9,6.6,11,6.6,18.4v41.6h-13.1Z"/>
      <path class="cls-2" d="M580.6,338.2h-37v-91.5h35.6c17,0,27.6,9.6,27.6,25,0,9.9-6.2,17-12.3,19.4,7.1,2.8,13.8,9.6,13.8,21.2-.1,16.9-11.5,25.8-27.7,25.9h0ZM578,259.1h-20.6v26.2h20.6c8.9,0,14.9-4.6,14.9-13.1s-6-13-14.9-13.1h0ZM579.3,297.8h-21.8v27.9h21.8c9.6,0,15-5.9,15-14s-5.4-13.9-15-13.9Z"/>
      <path class="cls-2" d="M670.3,331.2c-4.2,4.4-10.7,7.7-19.5,7.7s-15.2-3.3-19.4-7.7c-6.2-6.4-7.7-14.7-7.7-25.7s1.5-19.1,7.7-25.6c4.2-4.4,10.5-7.7,19.4-7.7s15.3,3.3,19.5,7.7c6.2,6.4,7.7,14.6,7.7,25.6s-1.6,19.3-7.7,25.7ZM660.4,287.7c-2.4-2.4-5.8-3.7-9.6-3.7s-7.1,1.3-9.5,3.7c-4,4-4.5,10.8-4.5,17.9s.5,13.9,4.5,17.9c2.4,2.4,5.7,3.8,9.5,3.8s7.2-1.4,9.6-3.8c4-4,4.5-10.8,4.5-17.9s-.5-14-4.5-17.9Z"/>
      <path class="cls-2" d="M730.9,338.2v-5.9c-4.8,4.8-9.2,6.7-17.3,6.7s-13.5-1.9-17.5-5.9c-3.3-3.5-5.1-8.5-5.1-14,0-10.9,7.6-18.8,22.6-18.8h17.1v-4.6c0-8.3-4-12.2-14.3-12.2-6.9,0-10.5,1.8-14.3,6.4l-8.5-8.1c6-7.2,12.3-9.5,23.2-9.5,18,0,26.8,7.7,26.8,22.3v43.5l-12.7.1h0ZM730.7,309.4h-15c-8,0-11.9,3.3-11.9,9.4s3.7,9.2,12.3,9.2c4.6,0,8.3-.5,11.8-3.7,2.1-1.9,2.8-5,2.8-9.6v-5.3h0Z"/>
      <path class="cls-2" d="M798.7,288.3c-2.9-3-5.3-4.4-9.8-4.4-7.1,0-13,5.7-13,14.7v39.6h-13v-65.1h12.8v7.1c3.3-4.6,10-7.8,17.3-7.8,6.3,0,11.1,1.7,15.5,6.2l-9.8,9.7h0Z"/>
      <path class="cls-2" d="M857.2,338.2v-6.9c-4.9,5.9-10.2,7.7-17.2,7.7-6.6,0-12.3-2.2-15.9-5.8-6.3-6.4-7.3-16.8-7.3-27.6s1-21.1,7.3-27.5c3.6-3.6,9.2-5.8,15.8-5.8s12.3,1.7,17.1,7.3v-32.9h13.1v91.5h-12.9ZM843.4,284c-11.9,0-13.6,10-13.6,21.6s1.7,21.7,13.6,21.7,13.5-10.2,13.5-21.7-1.7-21.6-13.5-21.6Z"/>
      <path class="cls-2" d="M567.8,461.5c-13.8,0-23.5-3.2-32.4-12.1l9.1-9.1c6.7,6.7,14.3,8.9,23.5,8.9,12.1,0,18.9-5.1,18.9-14.1,0-4.1-1-7.3-3.6-9.5-2.3-2.1-5.4-3.2-10-3.8l-10.8-1.5c-7.5-1.2-13.2-3.5-17.2-7.3-4.5-4.1-6.8-10-6.8-17.6,0-15.9,11.6-26.7,30.6-26.7,12.2,0,20.6,3.1,28.4,10.4l-8.7,8.7c-5.7-5.4-12.3-7.1-20.2-7.1-10.8,0-16.6,5.9-16.6,14.3,0,3.3.9,6.4,3.3,8.5,2.3,2.1,5,3.3,10,4.1l10.9,1.7c8.3,1.3,13,3.2,17,6.8,4.9,4.5,7.5,10.8,7.5,18.8,0,16.6-13.6,26.6-32.9,26.6h0Z"/>
      <path class="cls-2" d="M636.1,473.7c-1.3,3.6-2.8,6.2-4.8,8.1-3.6,3.6-8.3,4.8-13.4,4.8h-5.3v-11.8h3.3c5.5,0,7.5-1.7,9.4-6.9l3.6-10.2-22.7-62.1h13.9l15.5,45.9,15.2-45.9h14l-28.7,78.1h0Z"/>
      <path class="cls-2" d="M697.4,461.5c-10.7,0-19.7-1.8-27.4-9.4l8.6-8.6c5.3,5.4,12.3,6.8,18.8,6.8,8.1,0,14.3-2.8,14.3-9,0-4.5-2.4-7.1-8.7-7.7l-10.4-.9c-12.3-1.2-19.3-6.6-19.3-18,0-12.8,10.9-19.9,24.5-19.9,9.9,0,18.1,2.1,24.2,7.3l-8.2,8.3c-4.1-3.5-9.9-4.8-16.1-4.8-8,0-11.8,3.3-11.8,8.3,0,4.5,2.6,6.8,9,7.4l9.1.8c13.5,1.2,20.6,7.1,20.6,18.5-.1,13.8-11.7,20.9-27.2,20.9h0Z"/>
      <path class="cls-2" d="M760.4,460.7c-12.2,0-17.9-8.7-17.9-18.1v-37h-7.4v-10h7.4v-18.6h13.1v18.6h12.6v10h-12.6v36.4c0,4.8,2.3,7.6,7.2,7.6h5.4v11.2l-7.8-.1h0Z"/>
      <path class="cls-2" d="M792.5,431.9c0,11.3,5.8,18.2,16.6,18.2,7.3,0,11.2-2.1,15.8-6.7l8.3,7.8c-6.7,6.7-13,10.2-24.4,10.2-16.3,0-29.3-8.6-29.3-33.4,0-21.2,10.9-33.3,27.6-33.3s27.6,12.6,27.6,31.6v5.5l-42.2.1h0ZM820,413.9c-2.2-4.9-6.7-8.2-12.8-8.2s-10.8,3.3-13,8.2c-1.3,2.8-1.5,4.9-1.7,8.9h29.3c-.2-4-.5-6.1-1.8-8.9Z"/>
      <path class="cls-2" d="M930.6,460.7v-39.7c0-10.2-5.8-14.5-13.1-14.5s-13.5,4.5-13.5,13.9v40.3h-13.1v-39.7c0-10.2-5.8-14.5-13.1-14.5s-13.5,4.5-13.5,14.5v39.7h-13.1v-65.1h12.8v6.6c4.4-4.8,10.8-7.3,17.3-7.3,8.1,0,14.4,3.2,18.5,9.5,5.3-6.4,11.8-9.5,20.4-9.5,6.7,0,12.6,2.2,16.4,5.9,5,4.9,6.9,11.1,6.9,18.4v41.6l-12.9-.1h0Z"/>
    </g>
  </g>
  <g>
    <path class="cls-3" d="M480.4,1146.6h-7.6v11.1h-2v-26.1h9.6c4.5,0,7.9,2.8,7.9,7.5s-3.3,7.5-7.9,7.5ZM480.2,1133.3h-7.4v11.5h7.4c3.6,0,6.1-1.8,6.1-5.8s-2.4-5.7-6.1-5.7Z"/>
    <path class="cls-3" d="M504.5,1155.9c-1.3,1.3-2.9,1.9-4.9,1.9s-3.6-.7-4.9-1.9c-1.9-1.9-2.2-4.6-2.2-7.1s.3-5.2,2.2-7.1c1.3-1.3,2.9-1.9,4.9-1.9s3.6.7,4.9,1.9c1.9,1.9,2.2,4.6,2.2,7.1s-.3,5.3-2.2,7.1ZM503.3,1142.9c-1-1-2.2-1.5-3.7-1.5s-2.7.5-3.7,1.5c-1.5,1.5-1.6,3.8-1.6,5.9s.1,4.4,1.6,5.9c1,1,2.2,1.5,3.7,1.5s2.7-.5,3.7-1.5c1.5-1.5,1.6-3.8,1.6-5.9s-.1-4.4-1.6-5.9Z"/>
    <path class="cls-3" d="M529.2,1157.7h-1.9l-5-14.8-5,14.8h-1.9l-5.7-17.7h2l4.5,15.5,5.1-15.5h1.8l5.1,15.5,4.5-15.5h2l-5.5,17.7h0Z"/>
    <path class="cls-3" d="M539.8,1149.2c0,4.5,2,7,5.8,7,2.1,0,3.4-.6,4.9-2.1l1.4,1.1c-1.8,1.8-3.5,2.7-6.4,2.7-4.9,0-7.5-3.2-7.5-9.1s2.6-9.1,7.1-9.1,7.1,3.2,7.1,8.6v.8l-12.4.1h0ZM549.6,1144.4c-.8-1.9-2.5-3-4.6-3s-3.7,1.1-4.6,3c-.5,1.1-.5,1.7-.6,3.3h10.4c-.1-1.7-.2-2.3-.6-3.3h0Z"/>
    <path class="cls-3" d="M564.7,1141.4c-3,0-4.7,2.5-4.7,5.4v10.9h-1.9v-17.7h1.9v2.3c1-1.7,3.1-2.6,5.2-2.6,1.7,0,3,.4,4.3,1.7l-1.4,1.4c-1.1-1.1-1.9-1.4-3.4-1.4h0Z"/>
    <path class="cls-3" d="M573.9,1149.2c0,4.5,2,7,5.8,7,2.1,0,3.4-.6,4.9-2.1l1.4,1.1c-1.8,1.8-3.5,2.7-6.4,2.7-4.9,0-7.5-3.2-7.5-9.1s2.6-9.1,7.1-9.1,7.1,3.2,7.1,8.6v.8l-12.4.1h0ZM583.7,1144.4c-.8-1.9-2.5-3-4.6-3s-3.7,1.1-4.6,3c-.5,1.1-.5,1.7-.6,3.3h10.4c0-1.7-.1-2.3-.6-3.3h0Z"/>
    <path class="cls-3" d="M603.1,1157.7v-2.3c-1.6,2.1-3.2,2.5-5.2,2.5s-3.4-.6-4.3-1.5c-1.8-1.8-2.3-4.7-2.3-7.5s.5-5.7,2.3-7.5c.9-.9,2.5-1.5,4.3-1.5,2,0,3.7.4,5.2,2.5v-10.7h1.9v26.1l-1.9-.1h0ZM598.1,1141.4c-4.3,0-5,3.7-5,7.4s.7,7.4,5,7.4,5-3.7,5-7.4-.7-7.4-5-7.4Z"/>
    <path class="cls-3" d="M632.9,1156.3c-.9.9-2.5,1.5-4.3,1.5-2,0-3.7-.4-5.2-2.5v2.3h-1.9v-26.1h1.9v10.7c1.6-2.1,3.2-2.5,5.2-2.5s3.4.6,4.3,1.5c1.8,1.8,2.3,4.7,2.3,7.5s-.5,5.8-2.3,7.6h0ZM628.3,1141.4c-4.3,0-5,3.7-5,7.4s.7,7.4,5,7.4,5-3.7,5-7.4-.7-7.4-5-7.4Z"/>
    <path class="cls-3" d="M644.7,1162.5c-.3.9-.7,1.7-1.2,2.1-.9.8-2.2,1.1-3.3,1.1h-.9v-1.7h.7c2,0,2.6-.7,3.2-2.4l1.4-3.9-6.5-17.7h2l5.3,15.5,5.3-15.5h2l-8,22.5h0Z"/>
    <path class="cls-3" d="M673.7,1133.3v24.4h-2v-24.4h-7.8v-1.8h17.6v1.8h-7.8Z"/>
    <path class="cls-3" d="M684.5,1160.4h-1.9l10.4-31.6h1.9l-10.4,31.6Z"/>
    <path class="cls-3" d="M719,1157.7v-21.5l-7.9,17.9h-2l-8.1-17.9v21.5h-2v-26.1h2l9.1,20.1,8.9-20.1h2v26.1h-2Z"/>
  </g>
  <g>
    <path class="cls-4" d="M35.74,192.97c0,.14.15.27.37.64.5-.63.9-1.16,1.32-1.67,1.03-1.22,2.07-2.44,3.1-3.66.43-.51.6-.98.09-1.61-.75-.92-.71-1.91-.43-3.11,1.2-5.17,5.63-6.78,9.78-9.23.37,1.42.92,2.66.96,3.91.09,2.93,1.62,5.01,3.61,6.87,1.07,1,2.2,1.96,3.33,2.89.43.36.95.61,1.58,1,.16-.49.4-.84.35-1.14-.29-1.85-.6-3.71-1-5.54-.18-.83-.81-1.12-1.61-.73-1.13.55-1.97.29-2.22-1.01-.29-1.44-1.2-2.33-2.05-3.4-.72-.9-.94-2.19-1.49-3.56,1.93-.42,3.54-.82,5.17-1.11,1.41-.25,2.83-.49,4.25-.51.98-.01,2.1.15,2.93.62,4.23,2.42,4.76,1.47,6.45-1.18,1.84.77,3.42,1.92,4.84,3.28,1.13,12.2,3.23,29.67,7.02,46.98,4.04,18.43,9.06,32.84,15.02,43.19.35,2.18,1.22,4.23,2.52,6.08.2.29.38.6.61.98-4.15-.26-8.18-.54-12.22-.75-1.83-.09-3.66-.09-5.49,0-1.94.1-2.96,2.44-1.79,4.08,2.44,3.4,4.87,6.81,7.42,10.13.73.95.78,1.75.41,2.78-1.4,3.92-2.64,7.91-4.18,11.77-1.15,2.9-.47,5.54.52,8.21.37.99.82,1.97,1.33,2.89.22.39.71.63,1.07.93.22-.39.51-.77.63-1.19.58-2.03,1.12-4.07,1.68-6.15-.35-.26-.78-.48-1.05-.82-.43-.55-.88-1.15-1.1-1.8-1.37-4.04.7-7.13,2.89-10.17.43-.6.92-1.15,1.51-1.89.64,1.12,1.27,2.08,1.76,3.1.77,1.62,1.92,2.88,3.55,3.59,2.21.97,4.45,1.87,6.71,2.7.91.33,1.39-.2.96-1.07-.79-1.61-1.67-3.2-2.64-4.71-.5-.78-1.31-1.05-2.01-.08-.7.96-1.5.71-2.02-.04-1.04-1.48-2.47-2.3-4.02-3.11-1.51-.79-1.52-1.88-.15-2.82,2.34-1.6,4.69-3.15,7.08-4.66.4-.26,1.02-.25,1.54-.23.73.02,1.46.24,2.2.24,3.01.04,3.56-.36,4.23-3.57,4.65,3.53,9.7,5.31,15.14,5.31.12,0,.24,0,.36,0,1.58,1.45,15.06,13.55,32.86,24.23,3.13,1.88,6.51,3.77,10.07,5.59.44.62.96,1.21,1.55,1.76.98.92,1.76,2.06,2.65,3.08.27.3.59.58.93.79.84.51,1.46.42,1.7-.68.11-.51.23-1.02.34-1.53,4.07,1.8,8.3,3.43,12.61,4.75,2.25,2.52,4.49,5.04,6.77,7.59-3.93,3.78-7.99,7.48-12.58,10.6-2.23,1.51-4.56,2.65-7.08,3.53-1.72.6-4.13,2.19-4.99,3.92.51,0,.95-.03,1.37,0,1.97.15,3.94.33,5.91.48,1.04.08,2.04.18,2.22-1.34.16-1.3,1.04-2.04,2.3-2.42,1.26-.38,2.34-1.03,3.13-2.21,1.95-2.91,5.03-4.53,7.81-6.47,1.31-.91,2.75-1.62,4.12-2.45.63-.39,1.11-.35,1.6.25,1.27,1.55,2.52,3.12,3.88,4.59.85.91,1.78,1.92,2.88,2.37,2.4.99,4.94,1.66,7.43,2.43.37.11.81.02,1.35.02-.08-.51-.03-.97-.23-1.27-1-1.49-2.03-2.98-3.15-4.38-.49-.62-1.19-.9-1.83,0-.79,1.09-1.4,1.26-2.25.3-1.12-1.28-2.62-1.75-3.99-2.55-1.15-.67-1.9-2-2.93-3.16,2.11-1.33,3.89-2.45,5.68-3.59.48-.31.96-.63,1.43-.96,1.13-.79,2.23-1.36,3.74-.92.81.24,1.8,0,2.69-.18,1.22-.24,1.84-.48,2.17-1.03,2.29-.27,4.55-.7,6.77-1.33,1.22.25,10.64,2.17,24.39,4.69,2.63,1.44,5.51,2.37,8.67,2.64,2.92.25,5.86.33,8.78.51.52.03,1.04.12,1.56.2.2.03.4.07.6.1,1.53.29,2.25,1.38,2.48,2.83.32,2.03.56,4.07.77,6.11.29,2.87.31,5.79.85,8.61.27,1.43,1.3,2.81,2.24,4.01,1.25,1.59,2.71,3.02,4.16,4.43.46.44,1.18.8,1.79.81.27,0,.69-.92.81-1.47.35-1.64.63-3.3.82-4.96.03-.28-.49-.85-.82-.9-.63-.1-1.31.01-1.95.15-1.85.39-3.4-.58-3.94-2.4-.15-.5-.6-.9-.86-1.38-.23-.41-.6-.87-.57-1.29.16-2.26.5-4.5.64-6.76.11-1.73.02-3.47.02-5.2.16-.08.32-.16.49-.24,2.13,1.18,4.33,2.24,6.38,3.56,4.09,2.64,8.12,5.39,12.12,8.17.81.56,1.43,1.38,2.1,2.12,2.58,2.79,5.49,5.1,9.26,6.01,1.27.3,2.6.34,3.91.43.36.02.75-.21,1.27-.38-.65-1.07-1.25-1.99-1.76-2.95-.58-1.08-1.1-2.19-1.6-3.31-.54-1.21-.98-1.31-2.14-.57-.63.41-1.34.83-2.07.95-1.09.18-1.95-.3-2.55-1.33-.27-.47-.84-.95-1.36-1.1-2.67-.72-4.79-2.34-6.76-4.15-2.37-2.17-4.52-4.53-6.53-7.02,25.63,3.97,54.07,7.49,74.25,7.5,4.41,0,8.42-.17,11.92-.54.59.11,1.01.17,1.01.17l1.66,2.03c-.58,1.65-1.46,3.65-2.84,6.13-1.33,2.4-2.71,4.32-3.93,6.01-.7.98-1.36,1.9-1.93,2.79-3.26-4.78-7.13-9.04-12.36-12.04-5.01-2.88-10.31-3.36-15.66-1.23-2.96,1.18-3.99,3.94-4.16,7.44l4.71,6.79c-1.32.83-2.65,1.67-3.86,2.43.46,2.11,1.01,3.98,1.25,5.89.32,2.54,1.75,3.44,4.12,3.39,2.34-.04,3.65-1.02,3.6-3.53-.01-.73.11-1.48.27-2.21l.44-.25-.28-.49c.53-2.13.6-3.92-2.23-4.35-.47-.07-1.28-.8-1.24-.87,1.35-2.6-1.22-3.69-2.18-5.3,2.47-2.5,5.83-1.54,8.15,1.68,2.86,3.97,2.26,8.45,2.35,12.79.11,4.77.32,9.5,1.52,14.06-1.88-.42-3.78.07-5.52,1.11-.57.33-1.08.71-1.57,1.12,1.09-2.65.24-6.61-2.09-8.03-3.32-2.02-6.78-1.47-9.89.37-10.39,6.15-10.77,21.37-2.18,29.63,3.65,3.5,8.09,5.41,13,6.31,5.22.96,10.42,2.17,15.69,2.67,7.56.71,15.2.55,22.74,1.35,8.95.96,17.84,2.53,26.76,3.84.8.12,1.6.29,2.4.44,6.09,1.23,12.14,3.06,18.29,3.53,7.73.6,13.05-6.76,10.77-14.49-1.26-4.28-3.42-8.01-7.06-10.76-1.24-.94-2.39-1.99-3.47-2.9,1.76-2.18,3.62-4.12,5.05-6.33,2.82-4.34,4.68-9.08,6.18-13.95,1.98-2.93,3.37-6.31,3.92-10.04.41-2.79.3-5.52-.21-8.14.09-.25.17-.49.26-.74l.68-1.91c.13-.26.27-.51.4-.77.43.06.87.08,1.28.19.1.03.16.05.26.07,3.13,3.26,10.23,11.44,7.88,16.39-.13.28-.01.62.27.75.05.02.11.04.16.05.24.03.48-.09.59-.32,2.38-5-3.26-12.37-6.85-16.34.06.01.13.03.19.05,3.98,2.11,9.55,5.26,12.28,7.78.09.08.19.13.3.14.18.03.36-.03.5-.18.21-.23.2-.59-.03-.8-2.57-2.37-7.43-5.22-11.31-7.32.46-.52.71-1.53,1.11-3.34.15-.67.49-1.32.84-1.93,1.51-2.59-.6-6.61-3.58-6.33-1.64.15-2.2-.52-3.25-1.41-1.02-.87-2.75-1.18-4.17-1.16-.44,0-1,1.83-1.25,2.88-.35,1.44-.47,2.94-.58,3.71-.3,0-.58-.02-.87-.02-3.65-4.53-8.92-7.76-15.12-8.67-.38-.05-.75-.07-1.13-.11.21-1.13-.2-2.8-.08-4.41.07-.99.78-2.5,1.54-2.76,2.46-.83,5.06-1.31,7.65-1.68,1.52-.22,3.07-.28,4.61-.34.31.45.82.8,1.45.89,1.12.16,2.14-.49,2.28-1.46.14-.97-.65-1.89-1.77-2.05-.78-.11-1.49.18-1.91.69-1.51-.38-2.99-1.09-4.39-1.83-3.39-1.77-6.62-3.98-10.63-4.01-3.7-.03-10.16-.49-13.8,0-1.54.21-4.16,2.14-4.06,3.04.32,2.93-1.38,4.42-2.9,6.2-1.09.1-2.01.84-2.16,1.91-.15,1.03.45,1.96,1.38,2.4-.38.46-.93.84-1.49,1.19-3.26,1.99-3.01,5.08-1.94,8.5-.96.07-.06.17-.93.19-3.81.09-7.28-.94-10.07-3.57l.36-4.79-2.18-.52c-.1-.3-.22-.68-.35-1.18-.3-1.19-.98-1.64-1.5-1.82-1.32-.46-3.01.46-3.96,1.08,0,0-1.17-2.77-3.22-1.96-2.05.8-4.11,3.2-4.11,3.2l-.74,2.15c-.17.2-.33.42-.47.63-20.5-2.03-77.38-19.74-103.23-28.04-.25-2.1-.48-4.19-.89-6.26-.33-1.69-1.27-3.26-1.97-4.98,2.65-1.19,3.88-3.54,4.4-6.53.27-1.54.6-3.35,2.86-3.55-.58-1.28-1.65-1.71-2.71-1.77-1.55-.09-3.15-.04-4.67.27-1.68.34-2.81,2.26-2.84,4.31-.02,1.54,0,3.08,0,4.59-1.38-.43-2.7-.97-4.07-1.26-3.21-.67-6.43-.49-9.48.69-2.39.92-4.75,1.94-7.09,2.99-5-3.9-9.81-8.91-14.31-14.47.64-1.41,1.31-2.8,1.88-4.23,1.43-3.54,2.03-7.19.65-10.92-.31-.84-.77-1.62-1.16-2.44,2.33-.76,4.57-1.71,6.15-3.83-.49-.92-1.32-1.18-2.25-1.24-2.6-.17-5.06.34-7.38,1.53-.35.18-.76.25-1.45.46,1.33-3.31,2.93-6.01,5.53-7.96,2.22-1.67,6.33-.63,7.95.8.76.67,1.37,1.53,2.1,2.24.29.28.74.41,1.12.6.13-.44.48-.97.35-1.29-.28-.65-.76-1.25-1.27-1.74-.44-.42-1.01-.72-1.51-1.08,5.39,2.37,10.49,5.3,15.07,9.19,2.59,2.19,5.28,4.25,7.79,6.53,1.57,1.42,2.83,3.19,4.32,4.7,1.63,1.65,3.62,2.87,5.83,3.52,1.5.43,3.13.38,4.98.57-1.27-2.88-2.43-5.49-3.58-8.09-.14-.14-.29-.28-.43-.43-.43.44-.82.95-1.31,1.29-1.64,1.15-3.34.65-4.29-1.12-.24-.44-.68-.95-1.11-1.06-2.82-.72-4.84-2.65-6.61-4.7-1.98-2.27-3.77-4.7-5.58-7.12,0-.16-.02-.31-.09-.42-.45-.64-.98-1.21-1.48-1.81-.55-.65-1.11-1.3-1.67-1.94.04-.14.07-.27.11-.41.6,0,1.2,0,1.8,0,1.61.78,3.23,1.55,4.81,2.4.95.51,1.89,1.03,2.83,1.56.1.91.22,1.81.42,2.7.11.5.56.92.87,1.39.77-.64,1.07-1.33.9-2.83,1.01.59,2.01,1.19,3,1.81,1.61,1.02,2.97,2.41,4.53,3.52,3.2,2.28,6.79,3.14,10.7,2.61.35-.05.68-.22,1.14-.37-1.68-2.44-3.28-4.78-4.97-7.23-.59.48-1.13.86-1.6,1.31-1.32,1.26-3.05,1.12-4.22-.3-.3-.36-.72-.78-1.15-.85-3.14-.54-5.75-2.01-8.13-3.84-.11-.42-.23-.87-.37-1.36,1.52.78,2.82,1.5,4.17,2.11,1.14.52,2.33.96,3.53,1.32.35.1.81-.21,1.23-.33-.16-.43-.19-1.05-.5-1.26-1.04-.7-2.17-1.29-3.3-1.86-.69-.35-1.45-.56-2.14-.9-1.25-.62-1.34-1.17-.35-2.12,1.11-1.07,2.01-2.23,2.16-4.29-.82.55-1.41.86-1.88,1.29-.95.87-1.9,1.75-2.73,2.74-.81.97-1.84,1.41-3,1.48-.16,0-.32.01-.47.02-1.18-1.1-2.32-2.24-3.44-3.4.15-.2.29-.4.43-.6.73-1.06,1.59-2.04,1.29-3.45-.07-.36-.32-.68-.49-1.02-.32.23-.76.38-.94.69-.51.87-.92,1.81-1.4,2.77-.37-.69-.64-1.35-1.04-1.91-.18-.26-.61-.34-.94-.5-.07.17-.19.34-.28.51-.31-.32-.61-.64-.92-.96-.73-.77-1.28-1.72-2.03-2.47-1.41-1.39-3.27-1.83-5.08-2.35-.09-.12-.18-.23-.29-.32-1.01-.82-2.17-1.44-3.27-2.15-1.14-.73-1.12-1.07.07-1.81,2.21-1.37,4.42-1.75,6.81-.29.86.53,1.87,1.31,3.22.37-.4-.35-.7-.65-1.04-.9-.63-.46-1.29-.87-1.9-1.35-.69-.54-.63-1.01.24-1.32,1.32-.46,2.66-.53,3.94.07,1.41.66,2.75,1.46,4.18,2.08.87.38,1.84.52,2.85.57-1.27-2.09-3.98-2.07-5.61-4.12,1.02-.22,1.89-.38,2.75-.61,1.49-.4,3.01-.74,4.43-1.33.55-.23.83-1.09,1.23-1.65-.69-.16-1.46-.61-2.04-.44-2.23.66-4.38,1.54-6.58,2.29-3.05,1.05-2.82.75-2.33-1.85.36-1.89.74-3.77,1.14-5.64.23-1.09.18-1.35-.63-2.12-1.67.85-1.46,2.56-1.82,3.93-.77-.35-1.59-.73-2.58-1.18-.21,1.43.47,2.19,1.22,2.63,1.18.69,1.34,1.48.93,2.67-.86,2.51-2.61,4.06-5.3,5.15.15-1.18.31-2.12.38-3.07.09-1.15.15-2.31.14-3.46,0-.3-.33-.59-.51-.88-.22.2-.56.36-.65.6-.31.92-.63,1.85-.77,2.81-.13.9-.04,1.83-.02,2.74.01,1.22-.43,2.06-1.63,2.6-1.5.68-2.95,1.46-4.4,2.23-.33-.82-.45-1.84-.41-3.16.03-.96.03-1.92-.02-2.88.07-.11.13-.22.2-.33.27-.45.6-.9.74-1.39.12-.42,0-.91-.01-1.36-.41.05-.89-.01-1.27.07-.25-1.29-.64-2.56-1.24-3.79-.22-.44-.46-.88-.72-1.37,2.86-1.15,4.42-3.3,4.97-6.32.19-1.03.63-2.04,1.11-2.99.3-.6.88-1.06,1.41-1.68-.68-1.63-2.88-2.6-5.2-2.23-4.06.64-5.35,3.21-5.24,7.31.02.92.12,1.84.19,2.79-1.3-.52-2.54-1.17-3.85-1.52-4.82-1.3-9.44-.22-13.97,1.41-2.12.76-4.19,1.68-6.29,2.48-3.61,1.38-9.45.56-12.04-2.68-.91-1.13-1.24-2.42-1.19-3.79.15-3.66,1.61-6.91,3.36-10.05,1.49-2.67,3.16-5.27,3.8-8.34.65-3.18.73-6.27-1.15-9.34,3.22-.64,5.08-2.85,6.89-5.45-2.53-1.04-4.92-.93-7.25,0-.93.36-1.71,1.08-2.59,1.58-.37.21-.84.25-1.35.2,1.55-3.07,3.13-6.05,6.36-7.54,2.6-1.2,4.88-.05,6.8,1.62,1.41,1.23,2.56,2.77,3.74,4.24.45.56.97,1.19,1.56.76.35-.26.48-1.36.22-1.81-.58-1.02-1.38-1.94-2.23-2.76-1.03-1-2.2-1.87-3.3-2.8.06-.15.12-.3.17-.44.7-.03,1.43-.17,2.11-.06,2.57.43,5.13.95,7.69,1.44.28.05.58.13.82.27,1.44.85,1.48,1.57.76,3.39-.47,1.19-.65,2.53-.78,3.82-.09.88.47,1.36,1.6,1.06.31-1.81.64-3.69,1.02-5.83,1.24,2.2,2.98,3.41,5.14,4.12-1.06-2.76-3.76-4.29-5.26-7.07,2.43.25,4.58.39,6.71.71,1.23.18,1.47,1.28,1.55,2.35.14,1.74.2,3.49.41,5.22.06.49.55.93.84,1.39.3-.45.79-.87.87-1.35.4-2.42.07-4.79-.83-7.18,1.76.06,2.93,1.18,4.27,1.96,1.62.93,3.31,1.73,4.98,2.57.21.11.52.19.72.12.54-.19,1.06-.47,1.58-.72-.35-.45-.62-1.07-1.08-1.33-2.02-1.14-4.13-2.11-6.14-3.26-1.22-.7-1.16-1.3-.12-2.28,1.63-1.53,3.16-3.15,3.45-5.5.08-.65-.08-1.32-.13-1.98-.17-.05-.34-.11-.5-.16-1.22,1.84-2.45,3.69-3.67,5.53-.09-1.08.45-2.2-.97-2.87-.08.26-.16.46-.2.67-.26,1.32-.37,2.69-.83,3.93-.21.58-1.08,1.25-1.68,1.28-2.15.09-4.3-.09-6.45-.16-.07-.13-.14-.26-.21-.38.26-.4.44-.93.8-1.18,1.08-.75,2.26-1.37,3.37-2.09.6-.39,1.14-.88,1.72-1.33-.11-.19-.22-.38-.32-.58-.91.32-1.82.64-2.76.97.2-.26.49-.51.6-.82.1-.3.14-.79-.03-.96-.17-.16-.79-.17-.94,0-.75.85-1.43,1.77-2.11,2.68-.17.23-.29.49-.43.73-1.66,2.76-2.03,2.92-5.11,2.38-.96-.17-1.93-.24-2.97-.36.31-2.5,2.42-3.79,3.38-5.78-.75-.49-1.32-.41-1.8.19-1.13,1.44-2.21,2.92-3.41,4.3-.34.39-.99.69-1.5.7-1.47.03-2.95-.04-4.4-.24-.63-.09-1.38-.46-1.74-.96-.21-.28.21-1.08.45-1.6.18-.4.57-.7.76-1.09.14-.28.11-.64.16-.96-.34,0-.79-.15-1.01.02-.64.5-1.18,1.13-1.78,1.69-1.19,1.11-2.35,2.27-3.61,3.3-.54.44-1.31.6-2.21.98-.09-.72-.27-1.24-.19-1.72.44-2.69,2.03-4.62,4.27-6.01,1.59-.99,3.08-.09,4.55.54,1.54.66,3.05,1.45,4.98,1.16-1.41-2.27-3.89-2.56-6.02-3.66,1.09-1.43,2.73-1.72,4.13-2.39.8-.39,1.56-.41,2.44.11,1.08.64,1.33,1.48,1.16,2.57-.11.65-.28,1.28-.47,2.12,1.51-.29,1.47-1.51,1.92-2.48.48.5.93.96,1.38,1.42.14.15.24.34.41.46.63.44,1.43,1.11,2.03.38.26-.32-.11-1.56-.57-1.99-1.01-.93-2.27-1.59-3.39-2.42-.33-.24-.52-.67-.77-1.01.35-.24.67-.57,1.06-.71,2.74-1.01,5.1-.44,7.1,1.71.4.43.97.73,1.51.97.23.1.59-.11.89-.18-.1-.28-.12-.61-.3-.83-.66-.83-1.36-1.61-2.04-2.42-.09-.11-.09-.3-.17-.57,1.75-.58,3.34-.42,4.72.75,1.71,1.46,3.34,3.02,5.01,4.53.12.11.25.26.4.27.54.07,1.08.1,1.63.15-.2-.48-.28-1.1-.63-1.43-1.26-1.17-2.61-2.23-3.9-3.36-.24-.21-.34-.59-.51-.89.31-.1.62-.29.94-.29,1.5-.02,3,.08,4.5-.01.84-.05,1.67-.34,2.48-.62.33-.12.57-.5.86-.76-.31-.29-.6-.82-.92-.84-1.37-.08-2.76-.06-4.13.03-2.03.13-4.05.34-6.07.52-.21-1.76.37-2.69,1.94-3.08,1.11-.27,2.24-.46,3.35-.72.36-.08.8-.17,1-.42.35-.43.54-.99.8-1.49-.51-.1-1.08-.38-1.53-.26-1.3.36-2.55.88-3.98,1.39.22-1.16,1.15-2.35-.2-3.75-1.19,2.48-2.33,4.85-3.47,7.23-.05-.05-.1-.09-.15-.14.05-1.82.18-3.65.1-5.47-.04-.81-.49-1.62-.82-2.39-.09-.2-.47-.43-.67-.39-.21.04-.51.38-.51.59.02.93-.1,1.95.24,2.76.92,2.2.29,4.2-.54,6.19-.26.64-2.06.97-3.18.67.65-1.99,1.61-3.99.41-6.5-.59,1.01-1.04,1.78-1.54,2.63-.25-.1-.63-.26-1.02-.43-.13.06-.25.13-.38.19.19.48.25,1.13.6,1.4.74.55.6,1.16.42,1.84-.21.76-.37,1.47-1.38,1.67-2.24.45-4.46,1.04-6.72,1.58-.09-1.22-.12-2.55-.3-3.86-.09-.67-.34-1.36-.7-1.94-.16-.28-.8-.51-1.09-.4-.28.11-.55.69-.54,1.04.06,1.26.35,2.52.37,3.78.03,1.49-.3,2.73-1.98,3.45-1.33.57-2.41,1.69-3.62,2.55-.41.29-.86.52-1.33.81-.8-2.27.59-4.82-1.39-6.93-1.08,2.38-.72,4.54-.84,6.65-.03.54-.26,1.07-.43,1.6-.09.27-.4.5-.39.75.06,1.87-1.43,2.77-2.45,3.95-.82.94-1.38.81-1.91-.3-.25-.52-.64-.98-.99-1.5-1.04.73-.91,1.56-.42,2.25.98,1.4.81,2.67.05,4.12-.73,1.4-1.24,2.93-1.77,4.42-.31.88-.64,1.55-1.71,1.82-1.06.26-2.09.8-3.02,1.4-1.73,1.12-3.5,1.86-5.63,1.75-1.28-.07-1.45.51-1.1,1.7.69,2.34,2.52,3.08,4.58,3.67,1.78.51,3.54,1.09,5.29,1.7.99.35,1.36,1.16.78,2.01-1.38,2.02-2.89,3.96-4.34,5.93-2.94,3.98-6.09,7.85-8.08,12.42-1.54,3.55-2.28,7.21-2.02,10.96-5.95-2.58-12.19-6.21-18.38-10.37-.87-.84-1.79-1.63-2.67-2.46-.29-.27-.52-.59-.78-.88.03-.13.05-.26.08-.39,1.19-.11,2.38-.24,3.57-.32,1.05-.08,2.1-.14,3.16-.15,1.66-.02,2.68.98,2.87,2.68.11.89.26,1.78.53,2.63.11.35.59.59.9.88.27-.38.79-.78.75-1.13-.18-1.6-.52-3.18-.79-4.7,2.83.19,4.33,1.63,5.35,5.3.24.85.61,1.69,1.07,2.44.22.36.78.51,1.36.85.25-2.74-1.32-4.55-2.14-6.72,1.19.3,2.3.72,3.45.84.98.11,2.01-.05,2.98-.26.31-.07.76-.74.69-1.02-.11-.43-.56-.98-.97-1.09-1.4-.4-2.86-.65-4.3-.94-.34-.07-.7-.07-1.03-.1,1.82-1.61,3.58-3.18,5.34-4.74.09-.08.17-.18.26-.27.62-.61,1.17-1.39.51-2.11-.2-.22-1.45.18-1.94.62-1.19,1.06-2.12,2.42-3.33,3.45-1.17,1-2.51,1.86-3.9,2.51-.55.25-1.44-.23-2.17-.38.17-.67.15-1.49.54-1.98,1.55-1.97,2.4-4.13,2.32-6.62-.12-.08-.23-.15-.35-.23-.91,1.2-1.83,2.39-2.72,3.56-.47-.89-.92-1.76-1.39-2.62-.38-.7-1.06-1.14-1.68-.66-.3.24-.24,1.21-.06,1.75.2.59.74,1.07,1.12,1.61,1.17,1.59.41,4.16-1.53,4.59-1.97.43-4.02.51-6.22.76.86-2.98,2.38-5.31,3.8-7.7.27-.46.94-.98.12-1.39-.36-.18-1.21-.01-1.44.29-.73.96-1.33,2.03-1.86,3.12-.81,1.64-1.46,3.36-2.32,4.98-.22.42-.93.75-1.46.82-.85.13-1.72.21-2.64.29-.64-.47-1.29-.95-1.92-1.43.11-.28.22-.54.36-.79.92-1.64,1.96-3.22,2.87-4.86.28-.51.29-1.16.43-1.74-.72.09-1.78-.08-2.1.33-.89,1.14-1.53,2.49-2.17,3.8-.34.69-.6,1.41-.88,2.13-3.51-2.68-6.93-5.45-10.2-8.2.86-.59,1.75-1.14,2.64-1.7.8-.51,1.57-.39,2.28.18,1.44,1.17,2.85,2.37,4.31,3.51.38.3.9.41,1.43.63.43-1.71-.7-2.39-1.57-3.14-.68-.59-1.49-1.02-2.21-1.56-.74-.55-.84-1.15.09-1.6,2.23-1.08,4.45-1.7,6.7,0,.65.49,1.38.89,2.13,1.2.34.14.81-.02,1.22-.05-.18-.38-.28-.84-.56-1.11-.56-.53-1.28-.9-1.83-1.44-.72-.7-.55-1.17.38-1.44,2.04-.59,3.63.2,5.16,1.48,1.28,1.08,2.67,2.04,4.06,2.98.6.41,1.45.61,1.75-.27.14-.43-.19-1.32-.58-1.59-1.21-.84-2.57-1.45-3.84-2.21-.38-.23-.62-.67-.93-1.01.36-.13.72-.33,1.09-.36,1.31-.12,2.63-.16,3.95-.27.6-.05,1.26-.1,1.78-.37.37-.2.84-.87.75-1.16-.14-.42-.72-.89-1.16-.95-.74-.11-1.53.09-2.44.18.84-1.22,1.65-2.39,2.45-3.58.25-.37.5-.75.73-1.15.4-.69.45-1.44-.32-1.81-.82-.4-1.23.27-1.59.92-1,1.77-1.97,3.57-3.08,5.28-1.17,1.8-3.08,1.56-5.14,1.69.92-2.87,1.76-5.47,2.59-8.08-.17-.12-.35-.24-.52-.36-.69.65-1.38,1.31-2.17,2.05-.15-.39-.32-.85-.51-1.3-.45-1.07-.89-2.17-2.26-2.33-1.02-.12-1.42.34-1.08,1.3.15.41.45.76.69,1.14.04.07.11.12.18.17,3.88,3.24,1.99,6.64-1.29,8.6-.71.42-1.53.66-2.45,1.04-.21-2.58.91-4.97-.28-7.21-.13-.01-.25-.02-.38-.04-.2,1.39-.38,2.78-.6,4.16-.12.8-.16,1.65-.48,2.38-.27.61-.78,1.3-1.36,1.56-2.01.88-4.09,1.59-6.24,2.41-.21-1.02-.37-2.18-.68-3.29-.24-.85-.59-1.69-1.02-2.47-.19-.33-.68-.49-1.04-.73-.14.4-.43.81-.38,1.18.17,1.29.45,2.57.72,3.85.28,1.34.04,2.41-.67,3.33-4.19-3.57-8.1-7.08-11.59-10.32.12-.98.36-1.97.64-2.96.93-3.32,3.01-6.28,3.21-9.83.11-1.97,0-3.96-.01-5.35,1.72-.86,3.49-1.73,5.26-2.63,3.53-1.79,4.38-6.94,1.53-9.45-.42-.37-1.07-.47-1.61-.7-.12.43-.22.88-.36,1.3-.09.25-.2.54-.39.71-.67.59-1.31,1.29-2.09,1.67-2.14,1.03-3.93,2.36-4.83,4.57-1.37-.94-2.62-1.95-4.01-2.7-3.33-1.8-7.02-2.2-10.72-2.33-4.16-.15-8.32-.31-12.38-1.31-3.89-.96-7.31-2.84-9.78-6.01-1.83-2.35-2.47-5.22-2.56-8.21-.11-3.6.86-7.02,1.6-10.49.99-4.64.93-9.13-2.07-13.14-.32-.42-.69-.81-1.09-1.26,2.1-1.06,3.72-2.52,5.02-4.36.44-.62.23-1.03-.35-1.07-1.19-.09-2.51-.31-3.57.1-1.9.73-3.62,1.89-5.44,2.84-.32.17-.81.3-1.1.17-.2-.09-.29-.68-.24-1.01.41-2.66,1.17-5.18,2.65-7.48,1.59-2.48,4.04-2.75,6.5-2.43,1.47.19,2.85,1.13,4.22,1.84.57.29,1.17,1.07,1.6.29.21-.38-.32-1.57-.82-1.87-1.35-.8-2.86-1.32-4.66-2.11.66-.33,1.05-.66,1.5-.74,2.34-.39,4.7-.71,7.15-1.07.85,1.67.81,3.56.64,5.48-.05.61-.08,1.23,0,1.82.04.26.37.62.61.65.21.03.63-.31.68-.54.16-.87.2-1.77.28-2.65.02-.16.02-.32.3-.71,1.06,1.07,2.13,2.14,3.18,3.22.48.5.82,1.22,1.39,1.53.56.3,1.57.5,1.98.2.74-.55.24-1.3-.35-1.86-1.75-1.65-3.52-3.28-5.23-4.97-.62-.61-1.11-1.36-1.65-2.05.09-.13.18-.25.27-.38,1.25.55,2.54,1.03,3.74,1.67.74.39,1.29,1.19,2.05,1.49.69.28,1.55.13,2.41-.09-1.63-1.96-4.69-1.69-5.99-4.4,1.71-.43,3.36-.86,5.01-1.25.92-.22,1.88-.27,2.76-.58,1.79-.62,3.55-.45,5.3.01.43.12.89.46,1.16.83.93,1.29,1.8,2.63,2.66,3.97.44.68,1.02,1.1,1.75.66.74-.45.47-1.22.09-1.76-.73-1.03-1.57-1.99-2.44-3.06.29-.02.55-.03.8-.04.82-.06,1.64-.07,2.45-.21.78-.13,1.87-.14,1.85-1.19,0-.31-1.17-.81-1.84-.88-1.57-.15-3.18-.03-4.76-.15-.76-.06-1.51-.35-2.24-.61-.81-.29-.88-.78-.43-1.54.87-1.48,1.73-2.98,2.39-4.57.31-.75.15-1.7.21-2.82-1.6.54-1.99,1.68-2.5,2.64-.92,1.71-1.7,3.5-2.6,5.22-.57,1.09-1.42,1.78-2.74,2.02-1.56.28-3.07.83-4.96,1.37.22-1.3.32-2.25.55-3.17.25-.96.66-1.87.92-2.83.11-.41.13-.93-.03-1.3-.17-.41-.59-.71-.9-1.05-.3.34-.74.63-.87,1.03-.26.8-.35,1.66-.52,2.57-1.3-.8-1.94-2.46-3.75-2.18-.18,1.34.53,2.1,1.52,2.7,1.75,1.06,2.13,2.44,1.14,4.2-.13.23-.34.52-.58.58-1.76.48-3.54.9-5.75,1.46.3-1.42.49-2.52.77-3.61.2-.8.6-1.55.74-2.35.08-.5-.16-1.05-.28-1.64-1.6.55-1.39,1.79-1.67,2.76-.4,1.37-.72,2.77-1.18,4.11-.14.41-.58.89-.98,1-1.69.5-3.39.98-5.13,1.26-1.49.25-2.02-.5-1.61-1.97.08-.28.3-.53.32-.81.03-.47-.05-.95-.09-1.42-.42.27-1.02.44-1.22.82-.7,1.36-1.18,2.85-1.91,4.2-.51.95-1.26,1.78-1.97,2.61-.23.26-.82.53-1.03.42-.28-.15-.42-.67-.51-1.06-.21-.87-.26-1.79-.56-2.63-.18-.5-.71-.88-1.08-1.32-.15.06-.3.13-.46.19.25,1.86.51,3.72.76,5.56-.58.26-1.07.47-1.72.76-.11-.51-.28-.89-.26-1.27.12-2.78.33-5.56,1.38-8.18.75-1.86,2.11-2.87,4.16-2.93,1.15-.04,2.29-.2,3.43-.32.24-.02.51-.03.71-.15.57-.34,1.54-.6,1.11-1.45-.22-.43-1.16-.76-1.72-.68-1.37.18-2.71.63-4.06.95-.3.07-.62.04-.93.05-.1-.12-.2-.23-.3-.35,1.05-1.37,1.96-2.88,3.19-4.07,1.16-1.12,2.55-.09,3.8.23,1.78.45,3.53,1.04,5.32,1.46.42.1.94-.23,1.41-.37-.33-.35-.59-.87-.99-1.01-1.78-.62-3.61-1.11-5.4-1.7-.55-.18-1.05-.53-1.56-.81.3-.51.53-1.09.93-1.51,2.13-2.3,4.64-2.66,7.48-1.42.69.3,1.52.34,2.29.33.35,0,.7-.43,1.05-.66-.25-.31-.44-.81-.76-.91-1.21-.39-2.46-.62-3.68-.96-.32-.09-.85-.38-.83-.53.03-.34.27-.76.56-.97,1.73-1.23,3.81-1.03,5.72.29,1.25.87,2.6,1.68,4.25,1.24.36-.1.66-.42.99-.64-.28-.31-.5-.77-.84-.92-1.33-.57-2.71-1-4.04-1.56-.45-.19-.81-.61-1.2-.92.34-.39.61-.96,1.03-1.12,1.46-.55,2.98-.92,4.46-1.43,1.17-.4,1.63-1.25,1.21-2.02-.41-.76-1.28-.83-2.32-.19-1.93,1.18-3.85,2.37-5.78,3.53-.35.21-.75.35-1.12.52-.76.34-1.06-.02-1.12-.74-.1-1.31-.17-2.62-.31-3.92-.17-1.58-.73-2.92-2.71-3.6.22,1.04.39,1.88.57,2.72.56,2.44,1.21,4.89-.12,7.3-.69,1.26-1.56,2.36-2.94,3.15-.51-1.59-.87-3.11-1.49-4.51-.39-.9-1.14-1.65-1.81-2.4-.17-.19-.65-.1-.99-.14-.02.31-.14.65-.04.91.24.63.58,1.23.9,1.87-1.48-.29-2.82-.6-4.18-.78-.41-.05-.87.24-1.31.38.18.4.26.96.57,1.16.63.4,1.36.71,2.09.87,1.11.24,2.25.3,3.38.48.22.03.46.2.59.38.83,1.17.62,3.07-.45,4.06-1.5,1.37-3.02,2.72-4.64,4.18-.3-.49-.68-1.1-1.05-1.72-.8-1.34-1.77-2.52-3.35-2.94-.41-.11-.88,0-1.32,0,.16.42.24.9.5,1.24.57.74,1.29,1.36,1.87,2.1,1.31,1.67,2.07,3.34.63,5.45-1.05,1.55-1.74,3.34-2.64,5.14-1.86-1.84-1.99-4.89-4.37-6.24-.17.06-.33.12-.5.18.22.9.28,1.87.68,2.68.9,1.84,1.99,3.59,2.94,5.41.22.41.33.98.25,1.43-.31,1.86-.71,3.72-1.11,5.75-1.23-.54-2.15-.94-3.11-1.36-.71,1.27.19,1.86.91,2.26,1.31.74,1.76,1.75,1.82,3.21.08,1.83.47,3.65.64,5.48.04.43-.1,1.03-.39,1.32-1.32,1.33-2.66,2.67-4.13,3.83-.91.71-2.06,1.11-3.1,1.66-.49.26-1.22.44-1.37.84-.13.33.44.92.69,1.4,1.33,2.64,3.87,1.94,6.05,2.14,1.3.12,2.62.04,3.93.04,1.78,0,2.39.69,2.04,2.43-.08.4-.29.77-.43,1.16-1.61,4.3-3.31,8.57-4.8,12.91-1.63,4.74-2.24,9.61-1.09,14.59.04.19,0,.39,0,.74-.5-.22-.9-.4-1.31-.57-4.14-1.72-8.28-3.46-12.44-5.16-1.07-.44-2.09-.27-3.01.48-.89.74-.97,1.71-.7,2.7.7,2.59,1.45,5.15,2.2,7.73.28.95.61,1.89.9,2.84.28.91.14,1.6-.59,2.38-3.51,3.74-7.04,7.49-10.31,11.44-1,1.2-1.49,3.03-1.69,4.63-.24,1.94.09,3.95.19,5.93ZM186.8,180.8c.21-2.94.81-3.62,2.71-2.96-.97,1.06-1.84,2.01-2.71,2.96ZM408.33,409.07c-.24.03-.48.04-.72.06.2-.08.4-.12.6-.2.04.05.08.09.12.14ZM413.84,407.4c-1,.49-2.01.85-3.04,1.13-.1-.13-.21-.25-.31-.38-.62-.79-.9-1.85-1.53-2.64-.74-.93-.56-1.44-.06-1.81.33,0,.66-.01.99-.03,2.57-.1,3.19,1.62,3.95,3.72ZM415.15,409.83c1.07,1.27,2.16,2.5,3.32,3.6-2.28-.32-4.13-1.35-5.72-2.79.8-.23,1.6-.49,2.39-.81ZM422.06,411.06c-.94-.42-1.8-.89-2.72-1.14-.06-.01-.13.04-.21.12-.34-.4-.67-.8-1-1.22-.81-1.04-1.18-2.41-2-3.45-1.26-1.6-.48-2.25.63-2.78,2.64,2.33,4.91,4.87,5.3,8.47ZM433.27,412.61c-1.23-.55-2.35-1.16-3.56-1.48-.27-.07-.81.91-1.23,1.4.42.35.84.7,1.26,1.04.54.43,1.09.85,1.63,1.27-.71.34-1.44,1.04-2.11.98-1.87-.16-3.53-.7-5.02-1.49.19-1.29.11-2.67-.3-4.08-.97-3.27-2.61-6.12-5.4-8.22-.05-.04-.09-.08-.13-.11.84-.29,1.68-.55,2.35-1.06,2.17-1.65,3.81-.9,5.56.65,3.47,3.06,6.44,6.38,6.95,11.1ZM414.35,421.15c.45.05.9.13,1.35.17,3.48.27,6.32-1.58,7.71-4.35,2.32,1.16,4.97,1.84,8.17,1.7-2.61,2.72-5.03,4.46-8.23,3.98-3-.45-6-.96-9-1.49ZM398.58,415.95c.15-.18.3-.35.44-.52,0-.02-.01-.03-.02-.05.43.33.77.58,1.03.86-.16-.03-.31-.06-.47-.09-.33-.06-.66-.13-.98-.2ZM393.7,410.42c5.68.73,11.15,1.67,16.57.77,2.71,2.73,5.86,4.7,10.5,4.5-1.99,2.08-3.84,3.41-6.29,3.04-4.07-.61-8.12-1.35-12.17-2.08-.51-1.06-1.02-2.12-1.53-3.18-.68.39-1.36.79-2.11,1.22-.48-.99-.96-1.98-1.44-2.98-.59.34-1.18.68-1.85,1.08.74.61,1.25.9,1.53,1.34.09.13-.53,1-.74.97-.04,0-.09-.01-.13-.02-.87-1.47-1.66-3-2.33-4.65ZM392.99,404.5c3.77-.07,7.49-.13,11.2-.27,1.96-.08,2.44,1.24,3.02,2.85-2.67,1.32-5.51,1.58-8.4,1.39-1.67-.1-3.32-.43-4.97-.7-1.23-.48-1.32-1.32-.85-3.27ZM387.77,413.97l.54-3.69c.58-.04,1.04-.1,1.41-.06.03.08.05.15.08.24.4,1.52,1.41,2.88,1.91,3.85-1.31-.12-2.63-.23-3.94-.35ZM337.61,368.26l1.84-1.05c-.06,1.16-.12,2.33-.18,3.48-.38.06-.77.12-1.15.19-.14-.87-.39-1.75-.51-2.62ZM339.64,363.54c-.04.79-.08,1.55-.12,2.34l-1.95,1.1s0-.01,0-.02c.17-1.25-.82-3.53,2.07-3.42ZM334.13,367.88l1.46.22c-.08.89-.17,1.79.02,2.62-.76-.87-1.22-1.83-1.49-2.83ZM335.66,366.96l-1.76-.26c-.12-.98-.1-2,.01-3.05,1.47.87,1.75,2.05,1.74,3.31ZM95.22,279.4c-1.59,1.44-3.04,2.74-4.62,4.16-.83-2.26-1.6-4.35-2.48-6.74,2.77.29,4.77,1.45,7.1,2.58ZM109.68,221.16c.06-.75-.27-1.55-.1-2.26.22-.95.68-1.87,1.17-2.73.98-1.72,1.99-3.41,3-5.11,1.43,1.65,1.31,3.57.42,5.74-.47,1.15-.56,2.46-.81,3.64-1.21.55-2.42,1.13-3.64,1.68-.05-.31-.07-.64-.04-.98ZM119.23,211.88c.04.06.08.12.12.19.09.15.18.3.27.45-.18-.03-.37-.05-.57-.08.07-.18.13-.37.18-.55ZM124.6,221c-1.57-.02-3.13.09-4.63.75-.1.04-.24,0-.6-.25,1.15-1.2,2.25-2.47,3.4-3.66.61,1.05,1.22,2.1,1.83,3.16ZM116.97,219.04c-.13-.06-.26-.12-.39-.18.21-1.3.33-2.62.68-3.88.11-.41.84-.87,1.31-.9.69-.05,1.38.06,2.08.16.18.3.36.6.53.9-1.4,1.3-2.81,2.6-4.21,3.9ZM115.69,210.32c-.27-.34-.6-.65-.94-.94.02-.04.04-.07.06-.11.34-.56.72-1.09,1.21-1.85.53.73,1.07,1.43,1.6,2.13-.22.28-.44.56-.65.84-.41.54-.78.52-1.27-.08ZM114.72,280.83c2.3,1.03,4.64,1.96,7.05,2.61-3.59-.4-6.91-1.66-9.98-3.63,1.01.29,2,.6,2.93,1.02ZM115.62,189.62c3.3,3.06,6.95,6.35,10.86,9.69-.14.12-.28.24-.44.35-.92.65-1.76,1.44-2.63,2.28-.73-1.98-2.18-3.62-3.74-5.23-1.24-1.28-2.51-2.64-3.33-4.2-.49-.94-.69-1.91-.72-2.89ZM128.01,200.61c.41.35.83.7,1.25,1.05-.14-.03-.29-.07-.43-.11-.4-.11-.76-.35-1.14-.52.11-.13.21-.28.31-.42ZM138.59,209.12c-.08.16-.15.32-.23.47-.3.54-1.04,1.06-1.64,1.14-1.67.23-3.37.28-5.06.29-1.48.01-1.91-.92-1.14-2.25.38-.66.81-1.34.99-2.07.09-.4-.3-.91-.48-1.37-.4.23-.97.37-1.16.71-.65,1.18-1,2.54-1.77,3.62-.78,1.11-1.75,2.08-2.72,3.05-.4-1.78-.78-3.55-1.19-5.32-.15-.64-.36-1.31-.3-1.94.04-.5.04-.97,0-1.43.91-1.12,2.22-1.24,3.67-.83,1.25.35,2.58.45,3.88.57.12.01.24,0,.36-.04,2.22,1.81,4.49,3.62,6.81,5.38ZM140.75,210.75c-.26.02-.5.04-.78.07.07-.18.12-.34.18-.51.2.15.4.29.59.44ZM167.94,227.11c.12.95.29,1.9.55,2.86.2.74.57,1.44.96,2.42-2.11-.47-3.97-.83-5.79-1.31-1.76-.46-3.46-1.25-5.25-1.49-1.73-.23-2.54.95-2.07,2.65.29,1.06.78,2.06,1.19,3.11-1.04.05-2.1.15-3.17.14-1.36-.02-2.2.75-2.64,1.86-.38.96.06,1.85.74,2.68,2.88,3.5,5.74,7.02,8.59,10.55-2.42-.76-4.31-.11-6.4,2.91-1.06,1.53-1.84,3.26-2.76,4.92-5.71-3.16-11.57-2.22-17.44-.34-2.63.84-5.2,2-7.9,2.46-3.84.67-7.41-.34-10.03-3.45-1.53-1.82-1.15-4-.68-6.14.75-3.42,2.47-6.39,4.34-9.25,1.99-3.03,3.5-6.25,3.68-9.86.1-1.98-.52-4-.84-6.16,1.15-.26,2.38-.6,3.55-1.17.3.54.6,1.08.9,1.62.91,1.68,1.11,3.73,1.88,5.5,1.13,2.6,2.4,5.18,4.77,6.91,1.33.97,2.85,1.69,4.6,2.7-.09-1.23-.16-1.99-.19-2.75-.04-1.47-.1-2.95-.06-4.42.05-1.93-.12-2.1-2-1.69-1.03.22-2.07.24-2.8-.67-.38-.48-.57-1.12-.83-1.69-.24-.54-.29-1.27-.68-1.63-1.63-1.47-2.77-3.23-3.65-5.12.24-.21.48-.43.71-.68-.37-.7-.91-1.12-1.53-1.34-.2-.55-.39-1.1-.56-1.66-.45-1.47-.83-2.97-1.19-4.47,2.52-1.37,5.4-.8,7.86.94,1.24.88,2.24,2.09,3.41,3.08.33.28.88.29,1.33.42.15-.53.6-1.24.41-1.57-.53-.87-1.22-1.72-2.05-2.31-.99-.7-2.2-1.08-3.26-1.7-.32-.19-.46-.69-.68-1.05.36-.14.71-.39,1.07-.4,2.58-.04,5.16-.01,7.73-.02,1.49,0,2.54.89,3.53,1.79,1.16,1.06,2.19,2.26,3.23,3.44.64.73,1.44.69,2.1.29.06-.03.09-.17.1-.33,5.8,3.77,11.63,7.04,17.22,9.39ZM157.13,269.34c0-2.85-.78-5.48-2.27-8.03,2.7-.41,4.35-2.13,5.87-4.22.85-1.16,1.76-2.83,3.75-1.9.03-.05.05-.1.08-.15.52.78.98,1.61,1.48,2.4.2.32.33.75.61.93,2.12,1.36,2.93,3.77,4.54,5.52.55.6,1.2,1.12,1.84,1.63.22.18.71.37.82.27.24-.21.43-.62.42-.93-.04-.8-.2-1.59-.31-2.46.85.19,1.63.34,2.4.54.89.23,1.29-.14.87-.93-.89-1.63-1.83-3.24-2.91-4.75-.69-.97-1.3-.86-2.09.04-.53.6-1.49.59-1.8-.09-2.14-4.64-3.76-9.46-5.01-14.61,1.78.89,3.35,1.84,5.04,2.48,2.48.94,5.07,1.52,7.74,1.24.97-.1,1.79-.64,1.97-1.76.09-.57.25-1.13.4-1.82,2.41-.09,4.6.64,6.77,1.54,2.81,1.18,5.67,2.08,8.6,2.49,3.04,6.1,6.9,13.31,11.39,20.64-.12.07-.24.14-.36.2-.9.47-2.02.53-3.02.81-.56.16-1.17.3-1.6.65-.13.11.31.87.43,1.34.75,3.09,3.6,2.73,5.75,3.46,1.14.39,2.35.58,3.52.89.53.79,1.06,1.57,1.61,2.35-.03.05-.05.1-.08.16-1.66,2.69-3.46,5.3-5.14,7.97-2.32,3.68-4.78,7.31-6.03,11.51-1.72,5.79-2.01,11.55,1.26,17,.31.53.69,1.02,1.07,1.5.34.44.72.86,1.33,1.57-1.8,0-3.24-.06-4.67.01-1.91.1-3.82.21-5.73.32-.41-1.03-.81-2.05-1.21-3.08-.33-.84-.76-1.15-1.66-.61-.64.39-1.37.72-2.1.84-1.34.23-2.29-.35-2.77-1.68-.14-.39-.48-.86-.84-1-3.9-1.45-6.42-4.5-8.75-7.68-2.3-3.13-4.34-6.45-6.44-9.72-.61-.96-1-2.06-1.51-3.09-.81-1.63-1.63-3.24-2.44-4.87-.42-.84-1.1-1.12-2.01-1.14-1.36-.03-2.73-.06-4.07-.26-1.56-.24-2.43-1.51-3.19-2.71-1.04-1.64-1.54-3.5-1.53-5.48.01-2.45,0-4.91,0-7.36ZM194.33,323.02c.08-.14.16-.29.24-.43,1.92.46,3.85.92,6.06,1.45-.17.16-.33.32-.5.47-1.85-.26-3.72-.61-5.58-1.02-.07-.16-.15-.31-.23-.47ZM160.82,243.97c-.43-.92-.7-1.91-1.04-2.87.24-.1.47-.2.71-.29,2.11,4.48,4.22,8.96,6.34,13.44-.1.08-.21.17-.31.25-.43-.44-1.01-.81-1.27-1.33-1.52-3.04-2.99-6.12-4.42-9.2ZM219.24,251.13c.32.23.65.45.99.66-.14,1.19-.02,2.44-.48,3.59h-1.59c0-.45-.11-.92.02-1.32.34-.99.67-1.97,1.06-2.93ZM231.48,240.03c.13.08.26.16.39.24-.04-.01-.08-.02-.12-.04-.54-.2-.99-.43-1.38-.68.39.1.8.3,1.11.48ZM221.83,252.65c.85.41,1.73.76,2.63,1.07-.33.33-.65.66-.99.97-.4.37-1.08.44-1.74.69-.19-.92,0-1.84.1-2.73ZM216.39,261.75c-.12-.76-.22-1.12-.23-1.48-.09-3.03.82-3.89,3.7-2.95-1.16,1.47-2.21,2.81-3.47,4.42ZM208.35,266.86c-4.33-7.05-8.08-13.99-11.09-19.93,1.94.17,3.91.11,5.93-.24,2.89-.5,5.27-1.98,7.37-3.99.21-.2.43-.38.44-.39,2.07,2.38,4.03,4.79,6.16,7.04.19.2.39.39.6.58-.11.28-.24.56-.39.83-.65,1.17-1.34,2.32-2.05,3.55-.95-.77-1.76-1.42-2.64-2.14-.68,1.5.15,2.23.79,2.91.76.81.78,1.72.64,2.65-.33,2.18-.74,4.35-1.08,6.32-1.58.94-3.1,1.91-4.66,2.79ZM234.79,300.82c-.6.27-1.2.54-1.8.81-3.1,1.39-6.25,1.63-9.45.48-4.22-1.52-5.1-4.3-4.55-8.36.32-2.39,1.15-4.58,2.09-6.72,4.31,5.25,8.91,10.02,13.71,13.8ZM378.78,337.79l-1.55.06-1.71-.97c-.13-.12-.25-.21-.38-.32.82-.48,1.91-.96,2.62-.74.13.05.54.19.76,1.02.1.38.19.68.27.95ZM375.64,359.71c-.74,1.87-1.15,3.77-1.3,5.62-.59.58-1.16,1.19-1.73,1.8-.45-.91-.72-1.89-1.13-3.42-.15-.58-.33-1.23-.54-1.99-1.04-3.7-.42-4.76,2.18-9.21.67-1.14,1.48-2.54,2.41-4.23.59.28,1.19.57,1.75.96,1.28.9,2.46,1.97,3.7,2.93-2.22,1.85-4.12,4.42-5.34,7.53ZM378.56,407.59c-3.4-.66-6.83-2.08-9.75-4.04.23-.69.45-1.25.61-1.83.15-.52.24-1.05.31-1.39,3.41.72,6.8,1.42,10.18,2.13l-1.34,5.13ZM363.72,411.84c1.12-1.44,2.27-2.92,3.29-4.24,3.37,1.05,6.72,2.1,10.14,2.7.22.04.45.05.68.08l-.69,2.65c-4.5-.4-8.98-.8-13.42-1.19ZM356.93,413.64s.03-.03.04-.05c.23.04.45.08.67.12-.23-.02-.48-.04-.71-.06ZM350.84,412.42s.06.01.08.02c-.02,0-.04,0-.06,0,0,0-.01-.02-.02-.02ZM348.81,409.25c-4.52-1.69-8.46-4.56-9.24-8.18,3.48,1.4,6.79,1.36,9.96.4,3.14,1.88,6.74,2.88,11.02,3.15-1.97,2.31-3.64,4.28-5.27,6.19-1.12-.12-2.27-.33-3.42-.62.27-.15.53-.29.84-.47-.36-.64-.73-1.29-1.09-1.91-1.36.16-2.22.7-2.79,1.44ZM352.28,400.39c.65-.31,1.3-.66,1.94-1.04.98,1.08,2.02,1.97,3.14,2.72-1.85-.29-3.54-.83-5.09-1.68ZM341.94,399.66c-.32-.02-.66-.26-.96-.58.47-.2.93-.39,1.39-.62.02.03.03.05.05.08.01-.05.03-.09.04-.14.68-.35,1.36-.71,2.03-1.11.83.91,1.7,1.71,2.6,2.44-1.7.16-3.45.07-5.16-.07ZM325.31,399.55c3.74,1.5,7.34,1.72,10.81,1.06.71,2.54,2.06,4.94,4.04,6.85,2.22,2.13,4.84,3.46,7.7,4.28-.04.23-.07.47-.1.71-8.93-.4-20.84-5.43-22.45-12.9ZM338.47,387.75c-2.24,2.79-3.17,6.4-2.86,9.99-2.36.28-4.81.15-7.19-.04-.79-.06-1.72-1.15-2.15-1.99-.21-.41.6-1.33,1.07-2.26.61,1,.94,1.54,1.72,2.79.36-1.43.95-2.41.67-2.84-1.52-2.32-3.44-.76-5.4-.23.39-2.64.64-5.18,1.15-7.68.81-3.89,5.01-7.26,8.44-6.52,1.34.29,2.69,1.54,3.56,2.71.83,1.12.78,2.53-1.07,3.22-.24.09-.21,2.12.31,2.67.26.28,1.07.31,1.76.18ZM349.04,389.16c-.19.28-.5.54-1,.72-.09.03-.12.37-.11.77-1.79,1.9-3.71,3.63-5.89,4.92-.98-.43-2.1.33-3.23.63.3-2.01.49-3.96.88-5.86.62-2.97,3.82-5.54,6.44-4.99.79.17,1.59.78,2.21,1.47.17.45.32.89.51,1.33.12.28.19.69.17,1.02ZM356.26,394.89c-1.76,1.77-3.7,3.28-6.02,4.14-1.24-1-2.38-2.25-3.4-3.8,1.63-1,3.17-1.94,4.33-2.65,1.69.76,3.38,1.54,5.09,2.31ZM361.21,400.39c-.15.75-.39,1.21-.71,1.5-1.72-.87-3.21-2.19-4.49-4.12,1.05-.65,2.02-1.23,2.84-1.74.25.11.5.23.75.33,2.02.84,1.97,2.17,1.61,4.03ZM364.81,406.92c-1.07,1.26-2.06,2.42-3.04,3.57-.09.1-.22.21-.34.22-.78.1-1.57.24-2.34.2,0,0-.02-.03-.03-.03,1.29-1.66,2.54-3.27,3.59-4.62.73.21,1.44.43,2.16.65ZM363.59,402.79c.31-.9.58-1.64.79-2.39.19-.67.31-1.36.41-1.82.5.1.98.21,1.48.31,1.03.64.97,1.57.73,2.82-.31,1.6-1.17,1.52-2.39,1.38-.24-.03-.48-.08-.71-.12-.1-.06-.21-.11-.3-.18ZM372.43,345.59c.52,1.09,1.26,1.72,2.1,2.18-.91,1.67-1.71,3.05-2.38,4.18-2.58,4.43-3.45,5.92-2.29,10.08.21.75.38,1.4.53,1.97.47,1.78.77,2.9,1.41,4.02-.35.38-.7.77-1.05,1.16-.24.26.42,1.34.63,2.05.17.56.28,1.13.42,1.7-.27.1-.54.19-.8.29-1.57-2.75-3.13-5.52-4.71-8.27-.87-1.51-1.77-2.97-2.71-4.41.6-.99,1.33-2.02,2.16-3.17,1.23-1.71,2.63-3.66,4-6.12,1.22-2.2,2.08-4.07,2.68-5.65ZM281.8,334.21c-.99-1.27-1.96-2.57-2.9-3.89-.24-.34-.49-.68-.64-1.05-1.09-2.73-3.4-3.99-5.95-4.95-1.65-.62-3.38-1.05-4.93-1.85-2.91-1.51-4.12-4.24-4.58-7.32-.11-.73-.2-1.46-.29-2.2,25.97,8.35,81.74,25.72,102.69,27.89,0,.19.06.35.22.46.13.09.3.18.5.26-20.14,1.42-54.17-2.69-84.13-7.37ZM243.52,327.67c-3.24-.6-6.21-1.16-8.85-1.66,1.57-.13,3.11-.64,4.68-.92.41-.07,1-.06,1.26.18.93.88,1.9,1.68,2.91,2.4ZM215.07,324.72c.03-.27.05-.57.06-.92,0-.2.03-.4.05-.63,1.89-.29,3.68-.05,5.42.47-1.81.48-3.66.84-5.52,1.08ZM195.13,324.67c1.35.28,2.7.53,4.05.74-.86.81-1.66,1.58-2.53,2.41-.55-1.13-1.04-2.15-1.52-3.15ZM174.94,316.8c.22-.96.43-1.92.61-2.89.12-.62-.17-1.09-.97-1.06-1.21.04-2.45.16-3.63-.04-.98-.16-1.76-.83-1.9-1.99-.05-.39-.18-.87-.44-1.11-1.59-1.47-.77-3.15-.54-4.8.14-1.02.19-2.05.29-3.07.05-.47.13-.93.24-1.62,1.79,1.36,3.45,2.5,4.98,3.79,2.8,2.37,5.61,4.74,8.25,7.29,1.49,1.44,2.57,3.31,3.96,4.86.58.65,1.2,1.22,1.85,1.75-.59.29-1.05.8-1.36,1.47-.31.67-.29,1.26-.05,1.81-3.81-1.25-7.59-2.73-11.29-4.39ZM125.72,284.25c3.51.47,6.99.33,10.22-1.56.06-.04.16,0,.27,0,3.93,5.31,9.21,8.27,15.74,9.28,1.65.26,3.2,1.22,4.76,1.93,2.57,1.17,5.13,2.38,7.65,3.65.36.18.71.78.73,1.2.14,2.9.25,5.8.27,8.7.01,1.91.38,3.65,1.12,5.23-20.77-10.94-37.53-25.53-40.76-28.43ZM76.27,175.87c3.19,3.19,6.87,5.66,11.11,7.25,1.05.39,2.21.52,3.33.69.7.11,1.13.31,1.38,1.07,1.19,3.58,3.12,6.74,5.99,9.19,1.85,1.58,3.9,2.96,5.98,4.24,1.92,1.19,4.15,1.91,5.95,3.24,2.42,1.79,2.6,3.06,1.51,5.89-.95,2.47-1.97,4.92-2.95,7.38-.62,1.58-1.48,3.13-1.73,4.76-.18,1.2-.12,2.48.05,3.72-.97.32-2.07.3-3.11.47-.59.1-1.4.08-1.67.45-.23.3.25,1.08.3,1.66.22,2.63,2.48,2.84,4.26,3.56.73.3,1.47.55,2.21.8.04.12.08.23.12.35.17.49.5.92.75,1.36.69-.13,1.15-.48,1.51-.9,1.56.58,1.9,1.52.88,2.85-1.5,1.96-3.17,3.79-4.7,5.74-3.11,3.97-6.51,7.76-8.53,12.46-1.38,3.21-2.05,6.56-2,10-13-24.36-18.49-63.62-20.66-86.23ZM69.77,109.59c-.73,1.66-1.42,3.24-2.2,5.02-.22-.62-.43-1.07-.53-1.54-.6-2.94-.48-3.12,2.23-3.5.08-.01.16,0,.49.02ZM51.39,168.17c.02-2.14.03-4.07.04-6.16,2.42.88,3.76,2.69,5.49,4.36-1.9.62-3.61,1.17-5.53,1.8Z"/>
    <g>
      <polygon class="cls-1" points="45.64 351.69 44.41 359.15 36.99 360.54 43.69 364.01 42.73 371.51 48.1 366.2 54.93 369.44 51.54 362.68 56.73 357.19 49.26 358.32 45.64 351.69"/>
      <polygon class="cls-1" points="51.16 260.13 46.24 265.87 39.17 263.21 43.11 269.66 38.39 275.56 45.74 273.81 49.9 280.12 50.51 272.58 57.79 270.58 50.81 267.68 51.16 260.13"/>
      <polygon class="cls-1" points="149.97 434.79 149.01 440.44 143.36 439.48 147.17 443.76 142.9 447.58 148.62 447.27 148.95 452.99 152.27 448.32 156.94 451.63 155.36 446.12 160.87 444.53 155.57 442.33 157.77 437.04 152.75 439.81 149.97 434.79"/>
      <polygon class="cls-1" points="470.54 435.42 469.57 441.07 463.92 440.11 467.74 444.39 463.47 448.21 469.19 447.9 469.52 453.62 472.83 448.95 477.51 452.26 475.93 446.75 481.44 445.17 476.14 442.97 478.33 437.67 473.32 440.44 470.54 435.42"/>
      <polygon class="cls-1" points="164.05 376.32 165.11 381.96 159.48 383.02 164.55 385.71 161.87 390.78 167.13 388.49 169.42 393.74 170.91 388.21 176.44 389.69 173.04 385.07 177.66 381.67 171.93 381.45 172.14 375.72 168.4 380.06 164.05 376.32"/>
      <polygon class="cls-1" points="567.39 495.87 568.45 501.5 562.82 502.57 567.88 505.25 565.21 510.32 570.46 508.03 572.76 513.29 574.25 507.76 579.78 509.23 576.38 504.62 580.99 501.22 575.27 501 575.48 495.27 571.74 499.61 567.39 495.87"/>
      <polygon class="cls-1" points="320.39 448.56 317.36 453.43 312.49 450.41 314.41 455.81 309.01 457.74 314.43 459.61 312.57 465.03 317.41 461.95 320.49 466.78 321.1 461.09 326.8 461.7 322.73 457.66 326.76 453.59 321.07 454.25 320.39 448.56"/>
      <polygon class="cls-1" points="48.35 316.94 36.75 317.37 47.85 313.95 42.13 308.65 49.02 312.29 48.59 300.69 52.01 311.79 57.31 306.07 53.66 312.97 65.27 312.53 54.17 315.95 59.88 321.25 52.99 317.61 53.43 329.21 50.01 318.11 44.71 323.83 48.35 316.94"/>
      <polygon class="cls-1" points="527.89 487.16 517.75 492.83 526.08 484.74 518.58 482.61 526.37 482.73 520.71 472.59 528.8 480.92 530.92 473.42 530.81 481.21 540.95 475.54 532.62 483.64 540.12 485.76 532.32 485.65 537.99 495.78 529.9 487.46 527.78 494.96 527.89 487.16"/>
      <polygon class="cls-1" points="175.01 412.43 176.97 421.97 167.23 421.62 176.47 424.7 171.3 432.96 178.59 426.49 183.15 435.1 181.19 425.55 190.93 425.91 181.69 422.83 186.86 414.57 179.57 421.04 175.01 412.43"/>
      <polygon class="cls-1" points="606.28 518.64 608.23 528.18 598.49 527.83 607.74 530.91 602.56 539.17 609.85 532.7 614.42 541.31 612.46 531.76 622.2 532.12 612.95 529.04 618.13 520.78 610.84 527.25 606.28 518.64"/>
      <polygon class="cls-1" points="214.83 409.04 215.56 422.48 202.32 420.01 214.33 426.11 205.57 436.33 216.85 428.98 221.33 441.68 220.6 428.23 233.84 430.71 221.83 424.61 230.59 414.39 219.31 421.73 214.83 409.04"/>
      <polygon class="cls-1" points="73.21 342.66 71.35 350.97 64.28 346.22 69.61 352.86 61.5 355.43 70.01 355.4 66.96 363.35 72.24 356.68 76.56 364.01 74.63 355.72 83.06 356.93 75.37 353.26 81.57 347.42 73.92 351.14 73.21 342.66"/>
      <polygon class="cls-1" points="126.23 398.57 129.82 411.03 117.46 407.12 128.81 413.39 117.31 419.37 129.77 415.77 125.86 428.13 132.12 416.78 138.11 428.29 134.51 415.83 146.87 419.73 135.52 413.47 147.03 407.49 134.57 411.08 138.48 398.72 132.21 410.07 126.23 398.57"/>
      <polygon class="cls-1" points="253.49 462.83 248.31 473.23 250.63 461.85 243.24 464.32 249.74 460.02 239.35 454.84 250.73 457.16 248.25 449.77 252.55 456.27 257.74 445.88 255.41 457.26 262.8 454.79 256.3 459.08 266.69 464.27 255.32 461.94 257.79 469.34 253.49 462.83"/>
      <polygon class="cls-1" points="389.84 488.93 400.67 496.92 390.36 505.57 402.69 500.17 405.02 513.43 406.51 500.05 419.16 504.66 408.32 496.68 418.64 488.04 406.31 493.43 403.98 480.17 402.48 493.55 389.84 488.93"/>
      <polygon class="cls-1" points="292.34 465.83 299.89 476.97 287.28 481.68 300.7 480.71 298.47 493.98 304.35 481.87 314.73 490.44 307.18 479.29 319.79 474.59 306.36 475.56 308.59 462.28 302.72 474.39 292.34 465.83"/>
      <polygon class="cls-1" points="223.88 373.44 229.99 384.27 217.67 386.05 229.96 388.03 223.66 398.77 232.88 390.4 237.34 402.01 236.55 389.59 248.41 393.34 238.21 386.22 248.53 379.28 236.6 382.82 237.61 370.42 232.95 381.96 223.88 373.44"/>
      <polygon class="cls-1" points="481.23 454.77 492.25 461.61 480.45 466.99 493.08 464.04 488.54 476.19 495.38 465.17 500.76 476.97 497.81 464.35 509.96 468.88 498.94 462.04 510.74 456.66 498.11 459.61 502.65 447.47 495.81 458.48 490.43 446.68 493.38 459.31 481.23 454.77"/>
      <polygon class="cls-1" points="102.27 346.17 113.28 353.01 101.48 358.39 114.11 355.44 109.57 367.59 116.41 356.57 121.79 368.37 118.84 355.75 130.99 360.28 119.98 353.44 131.77 348.06 119.15 351.01 123.69 338.87 116.84 349.88 111.46 338.08 114.41 350.71 102.27 346.17"/>
      <polygon class="cls-1" points="87.32 397.98 98.33 404.83 86.53 410.21 99.16 407.26 94.62 419.41 101.46 408.39 106.84 420.19 103.89 407.56 116.04 412.1 105.02 405.26 116.82 399.88 104.2 402.83 108.73 390.68 101.89 401.7 96.51 389.9 99.46 402.52 87.32 397.98"/>
      <polygon class="cls-1" points="439.89 452.08 447.43 463.22 434.82 467.93 448.25 466.96 446.01 480.24 451.89 468.13 462.27 476.7 454.72 465.55 467.34 460.86 453.91 461.82 456.15 448.54 450.27 460.65 439.89 452.08"/>
      <polygon class="cls-1" points="254.78 411.54 262.87 421.67 249.95 422.8 262.84 424.24 254.5 434.17 264.63 426.07 265.76 438.99 267.2 426.1 277.13 434.44 269.04 424.31 281.95 423.18 269.07 421.74 277.4 411.81 267.27 419.91 266.15 406.99 264.71 419.87 254.78 411.54"/>
      <polygon class="cls-1" points="368.84 473.59 364.25 484.26 365.93 472.77 358.68 475.65 364.93 471 354.27 466.41 365.76 468.08 362.87 460.84 367.53 467.09 372.12 456.43 370.44 467.92 377.68 465.04 371.43 469.69 382.1 474.28 370.61 472.6 373.5 479.84 368.84 473.59"/>
      <polygon class="cls-1" points="391.22 462.72 404.29 465.95 398.08 477.89 407.4 468.18 414.63 479.53 410.89 466.6 424.34 466.02 411.27 462.79 417.49 450.86 408.16 460.56 400.93 449.21 404.67 462.14 391.22 462.72"/>
      <polygon class="cls-1" points="327.54 445.69 337.33 453.36 326.63 459.72 338.74 456.84 337.04 469.17 342.35 457.91 350.92 466.93 345.43 455.76 357.83 454.67 345.67 452.01 352.55 441.64 342.89 449.49 339.07 437.64 339.18 450.09 327.54 445.69"/>
      <polygon class="cls-1" points="277.61 435.56 289.36 441.04 278.29 447.79 290.47 443.36 287.42 455.96 292.9 444.21 299.65 455.28 295.21 443.09 307.81 446.15 296.06 440.67 307.13 433.92 294.95 438.36 298 425.76 292.52 437.51 285.78 426.44 290.21 438.62 277.61 435.56"/>
    </g>
  </g>
</svg>