<?xml version="1.0" encoding="UTF-8"?>
<svg id="_レイヤー_1" data-name=" レイヤー 1" xmlns="http://www.w3.org/2000/svg" xmlns:xlink="http://www.w3.org/1999/xlink" version="1.1" viewBox="0 0 1920 1920">
  <defs>
    <style>
      .cls-1 {
        fill: url(#Gold_2);
      }

      .cls-1, .cls-2, .cls-3, .cls-4, .cls-5, .cls-6, .cls-7, .cls-8, .cls-9, .cls-10, .cls-11, .cls-12, .cls-13, .cls-14, .cls-15, .cls-16, .cls-17, .cls-18, .cls-19, .cls-20, .cls-21, .cls-22, .cls-23, .cls-24, .cls-25, .cls-26, .cls-27, .cls-28, .cls-29, .cls-30, .cls-31, .cls-32, .cls-33, .cls-34, .cls-35, .cls-36, .cls-37, .cls-38, .cls-39, .cls-40, .cls-41, .cls-42, .cls-43, .cls-44, .cls-45, .cls-46, .cls-47, .cls-48, .cls-49, .cls-50, .cls-51, .cls-52, .cls-53, .cls-54, .cls-55, .cls-56, .cls-57, .cls-58, .cls-59, .cls-60, .cls-61, .cls-62, .cls-63, .cls-64, .cls-65, .cls-66, .cls-67, .cls-68, .cls-69, .cls-70, .cls-71, .cls-72, .cls-73, .cls-74, .cls-75, .cls-76, .cls-77, .cls-78, .cls-79, .cls-80, .cls-81, .cls-82, .cls-83, .cls-84, .cls-85, .cls-86, .cls-87, .cls-88, .cls-89, .cls-90, .cls-91, .cls-92, .cls-93, .cls-94, .cls-95, .cls-96, .cls-97, .cls-98, .cls-99, .cls-100, .cls-101, .cls-102, .cls-103, .cls-104, .cls-105, .cls-106, .cls-107, .cls-108, .cls-109, .cls-110, .cls-111, .cls-112 {
        stroke-width: 0px;
      }

      .cls-113 {
        clip-path: url(#clippath);
      }

      .cls-2 {
        fill: #dcdddd;
      }

      .cls-114 {
        clip-path: url(#clippath-1);
      }

      .cls-115 {
        clip-path: url(#clippath-4);
      }

      .cls-116 {
        clip-path: url(#clippath-3);
      }

      .cls-117 {
        clip-path: url(#clippath-2);
      }

      .cls-118 {
        clip-path: url(#clippath-6);
      }

      .cls-119 {
        clip-path: url(#clippath-5);
      }

      .cls-3 {
        fill: #001545;
      }

      .cls-4 {
        fill: url(#Gold_26);
        fill-rule: evenodd;
      }

      .cls-5 {
        fill: url(#Gold_2-113);
      }

      .cls-6 {
        fill: url(#Gold_2-110);
      }

      .cls-7 {
        fill: url(#Gold_2-114);
      }

      .cls-8 {
        fill: url(#Gold_2-112);
      }

      .cls-9 {
        fill: url(#Gold_2-111);
      }

      .cls-10 {
        fill: url(#Gold_2-108);
      }

      .cls-11 {
        fill: url(#Gold_2-104);
      }

      .cls-12 {
        fill: url(#Gold_2-106);
      }

      .cls-13 {
        fill: url(#Gold_2-109);
      }

      .cls-14 {
        fill: url(#Gold_2-103);
      }

      .cls-15 {
        fill: url(#Gold_2-100);
      }

      .cls-16 {
        fill: url(#Gold_2-107);
      }

      .cls-17 {
        fill: url(#Gold_2-101);
      }

      .cls-18 {
        fill: url(#Gold_2-105);
      }

      .cls-19 {
        fill: url(#Gold_2-102);
      }

      .cls-120 {
        fill: url(#Gold_2-9);
      }

      .cls-20 {
        fill: #fff;
      }

      .cls-21 {
        fill: url(#Gold_2-8);
      }

      .cls-22 {
        fill: url(#Gold_2-6);
      }

      .cls-23 {
        fill: url(#Gold_2-7);
      }

      .cls-24 {
        fill: url(#Gold_2-4);
      }

      .cls-25 {
        fill: url(#Gold_2-3);
      }

      .cls-26 {
        fill: url(#Gold_2-2);
      }

      .cls-27 {
        fill: url(#Gold_2-5);
      }

      .cls-28 {
        fill: url(#Gold_2-76);
      }

      .cls-29 {
        fill: url(#Gold_2-78);
      }

      .cls-30 {
        fill: url(#Gold_2-77);
      }

      .cls-31 {
        fill: url(#Gold_2-69);
      }

      .cls-32 {
        fill: url(#Gold_2-68);
      }

      .cls-33 {
        fill: url(#Gold_2-64);
      }

      .cls-34 {
        fill: url(#Gold_2-65);
      }

      .cls-35 {
        fill: url(#Gold_2-61);
      }

      .cls-36 {
        fill: url(#Gold_2-63);
      }

      .cls-37 {
        fill: url(#Gold_2-62);
      }

      .cls-38 {
        fill: url(#Gold_2-60);
      }

      .cls-39 {
        fill: url(#Gold_2-71);
      }

      .cls-40 {
        fill: url(#Gold_2-79);
      }

      .cls-41 {
        fill: url(#Gold_2-74);
      }

      .cls-42 {
        fill: url(#Gold_2-72);
      }

      .cls-43 {
        fill: url(#Gold_2-73);
      }

      .cls-44 {
        fill: url(#Gold_2-70);
      }

      .cls-45 {
        fill: url(#Gold_2-75);
      }

      .cls-46 {
        fill: url(#Gold_2-67);
      }

      .cls-47 {
        fill: url(#Gold_2-66);
      }

      .cls-48 {
        fill: url(#Gold_2-97);
      }

      .cls-49 {
        fill: url(#Gold_2-98);
      }

      .cls-50 {
        fill: url(#Gold_2-80);
      }

      .cls-51 {
        fill: url(#Gold_2-81);
      }

      .cls-52 {
        fill: url(#Gold_2-91);
      }

      .cls-53 {
        fill: url(#Gold_2-92);
      }

      .cls-54 {
        fill: url(#Gold_2-90);
      }

      .cls-55 {
        fill: url(#Gold_2-89);
      }

      .cls-56 {
        fill: url(#Gold_2-87);
      }

      .cls-57 {
        fill: url(#Gold_2-88);
      }

      .cls-58 {
        fill: url(#Gold_2-86);
      }

      .cls-59 {
        fill: url(#Gold_2-83);
      }

      .cls-60 {
        fill: url(#Gold_2-82);
      }

      .cls-61 {
        fill: url(#Gold_2-84);
      }

      .cls-62 {
        fill: url(#Gold_2-99);
      }

      .cls-63 {
        fill: url(#Gold_2-96);
      }

      .cls-64 {
        fill: url(#Gold_2-85);
      }

      .cls-65 {
        fill: url(#Gold_2-95);
      }

      .cls-66 {
        fill: url(#Gold_2-94);
      }

      .cls-67 {
        fill: url(#Gold_2-93);
      }

      .cls-68 {
        fill: url(#Gold_2-34);
      }

      .cls-69 {
        fill: url(#Gold_2-30);
      }

      .cls-70 {
        fill: url(#Gold_2-38);
      }

      .cls-71 {
        fill: url(#Gold_2-36);
      }

      .cls-72 {
        fill: url(#Gold_2-35);
      }

      .cls-73 {
        fill: url(#Gold_2-37);
      }

      .cls-74 {
        fill: url(#Gold_2-31);
      }

      .cls-75 {
        fill: url(#Gold_2-33);
      }

      .cls-76 {
        fill: url(#Gold_2-32);
      }

      .cls-77 {
        fill: url(#Gold_2-27);
      }

      .cls-78 {
        fill: url(#Gold_2-20);
      }

      .cls-79 {
        fill: url(#Gold_2-26);
      }

      .cls-80 {
        fill: url(#Gold_2-25);
      }

      .cls-81 {
        fill: url(#Gold_2-28);
      }

      .cls-82 {
        fill: url(#Gold_2-23);
      }

      .cls-83 {
        fill: url(#Gold_2-24);
      }

      .cls-84 {
        fill: url(#Gold_2-22);
      }

      .cls-85 {
        fill: url(#Gold_2-21);
      }

      .cls-86 {
        fill: url(#Gold_2-39);
      }

      .cls-87 {
        fill: url(#Gold_2-41);
      }

      .cls-88 {
        fill: url(#Gold_2-48);
      }

      .cls-89 {
        fill: url(#Gold_2-42);
      }

      .cls-90 {
        fill: url(#Gold_2-40);
      }

      .cls-91 {
        fill: url(#Gold_2-46);
      }

      .cls-92 {
        fill: url(#Gold_2-45);
      }

      .cls-93 {
        fill: url(#Gold_2-47);
      }

      .cls-94 {
        fill: url(#Gold_2-43);
      }

      .cls-95 {
        fill: url(#Gold_2-44);
      }

      .cls-96 {
        fill: url(#Gold_2-59);
      }

      .cls-97 {
        fill: url(#Gold_2-19);
      }

      .cls-98 {
        fill: url(#Gold_2-16);
      }

      .cls-99 {
        fill: url(#Gold_2-11);
      }

      .cls-100 {
        fill: url(#Gold_2-14);
      }

      .cls-101 {
        fill: url(#Gold_2-17);
      }

      .cls-102 {
        fill: url(#Gold_2-13);
      }

      .cls-103 {
        fill: url(#Gold_2-10);
      }

      .cls-104 {
        fill: url(#Gold_2-54);
      }

      .cls-105 {
        fill: url(#Gold_2-53);
      }

      .cls-106 {
        fill: url(#Gold_2-51);
      }

      .cls-107 {
        fill: url(#Gold_2-50);
      }

      .cls-108 {
        fill: url(#Gold_2-56);
      }

      .cls-109 {
        fill: url(#Gold_2-58);
      }

      .cls-110 {
        fill: url(#Gold_2-57);
      }

      .cls-111 {
        fill: url(#Gold_2-55);
      }

      .cls-121 {
        fill: url(#Gold_2-29);
      }

      .cls-122 {
        fill: url(#Gold_2-49);
      }

      .cls-123 {
        fill: url(#Gold_2-52);
      }

      .cls-124 {
        fill: url(#Gold_2-18);
      }

      .cls-125 {
        fill: url(#Gold_2-15);
      }

      .cls-126 {
        fill: url(#Gold_2-12);
      }

      .cls-112 {
        fill: #e5e5e5;
      }
    </style>
    <linearGradient id="Gold_26" data-name="Gold 26" x1="775.8" y1="908.2" x2="841" y2="908.2" gradientTransform="translate(2458.9 1018.8) rotate(157.2)" gradientUnits="userSpaceOnUse">
      <stop offset="0" stop-color="#fbc926"/>
      <stop offset=".3" stop-color="#fffbcc"/>
      <stop offset=".3" stop-color="#f8efba"/>
      <stop offset=".4" stop-color="#e7d18d"/>
      <stop offset=".6" stop-color="#cca246"/>
      <stop offset=".6" stop-color="#c3922e"/>
      <stop offset=".9" stop-color="#eed688"/>
      <stop offset="1" stop-color="#fffbcc"/>
    </linearGradient>
    <linearGradient id="Gold_2" data-name="Gold 2" x1="885.7" y1="1141.2" x2="1003.5" y2="1141.2" gradientTransform="translate(1627.9 1245.1) rotate(163)" gradientUnits="userSpaceOnUse">
      <stop offset="0" stop-color="#b77a2a"/>
      <stop offset="0" stop-color="#c48c39"/>
      <stop offset=".4" stop-color="#e6bc60"/>
      <stop offset=".5" stop-color="#f4cf6f"/>
      <stop offset=".6" stop-color="#e6bc60"/>
      <stop offset=".9" stop-color="#c48c39"/>
      <stop offset="1" stop-color="#b77a2a"/>
    </linearGradient>
    <linearGradient id="Gold_2-2" data-name="Gold 2" x1="383.8" y1="1242.7" x2="455.2" y2="1242.7" gradientTransform="translate(1222.9 -68.9) rotate(66)" xlink:href="#Gold_2"/>
    <linearGradient id="Gold_2-3" data-name="Gold 2" x1="1048.8" y1="1272.4" x2="1122" y2="1272.4" gradientTransform="translate(1160.4 2383.6) rotate(-126)" xlink:href="#Gold_2"/>
    <linearGradient id="Gold_2-4" data-name="Gold 2" x1="263" y1="-35.9" x2="288.5" y2="-35.9" gradientTransform="translate(-168.3 218.1) rotate(-14.2)" xlink:href="#Gold_2"/>
    <linearGradient id="Gold_2-5" data-name="Gold 2" x1="173.4" y1="339.4" x2="198.8" y2="339.4" gradientTransform="translate(-168.3 218.1) rotate(-14.2)" xlink:href="#Gold_2"/>
    <linearGradient id="Gold_2-6" data-name="Gold 2" x1="1011.6" y1="1099.6" x2="1036.6" y2="1099.6" gradientTransform="translate(1513.3 1287.4) rotate(177.5)" xlink:href="#Gold_2"/>
    <linearGradient id="Gold_2-7" data-name="Gold 2" x1="618.3" y1="1058.8" x2="644.8" y2="1058.8" gradientTransform="translate(1888.2 440.4) rotate(126.9)" xlink:href="#Gold_2"/>
    <linearGradient id="Gold_2-8" data-name="Gold 2" x1="843.9" y1="1044.1" x2="912.3" y2="1044.1" gradientTransform="translate(2186.8 1292.9) rotate(172.3)" xlink:href="#Gold_2"/>
    <linearGradient id="Gold_2-9" data-name="Gold 2" x1="926.4" y1="299" x2="963.9" y2="299" gradientTransform="matrix(1,0,0,1,0,0)" xlink:href="#Gold_2"/>
    <linearGradient id="Gold_2-10" data-name="Gold 2" x1="926.4" y1="299" x2="963.9" y2="299" gradientTransform="matrix(1,0,0,1,0,0)" xlink:href="#Gold_2"/>
    <clipPath id="clippath">
      <polygon class="cls-103" points="926.4 295.4 945 285.3 963.9 290 950.7 312.7 926.4 295.4"/>
    </clipPath>
    <linearGradient id="Gold_2-11" data-name="Gold 2" x1="915.7" y1="292.6" x2="974.8" y2="292.6" gradientTransform="matrix(1,0,0,1,0,0)" xlink:href="#Gold_2"/>
    <linearGradient id="Gold_2-12" data-name="Gold 2" x1="176.2" y1="97.1" x2="201.8" y2="97.1" gradientTransform="matrix(1,0,0,1,0,0)" xlink:href="#Gold_2"/>
    <linearGradient id="Gold_2-13" data-name="Gold 2" x1="176.2" y1="97.1" x2="201.8" y2="97.1" gradientTransform="matrix(1,0,0,1,0,0)" xlink:href="#Gold_2"/>
    <clipPath id="clippath-1">
      <polygon class="cls-102" points="176.2 82.4 201.5 80.8 201.8 111.8 176.5 113.3 176.2 82.4"/>
    </clipPath>
    <linearGradient id="Gold_2-14" data-name="Gold 2" x1="153.7" y1="97.1" x2="224.3" y2="97.1" gradientTransform="matrix(1,0,0,1,0,0)" xlink:href="#Gold_2"/>
    <linearGradient id="Gold_2-15" data-name="Gold 2" x1="57.8" y1="764.2" x2="97.4" y2="764.2" gradientTransform="matrix(1,0,0,1,0,0)" xlink:href="#Gold_2"/>
    <linearGradient id="Gold_2-16" data-name="Gold 2" x1="57.8" y1="764.2" x2="97.4" y2="764.2" gradientTransform="matrix(1,0,0,1,0,0)" xlink:href="#Gold_2"/>
    <clipPath id="clippath-2">
      <polygon class="cls-98" points="80.4 760.1 97.4 774.7 74.9 768.3 57.8 753.6 80.4 760.1"/>
    </clipPath>
    <linearGradient id="Gold_2-17" data-name="Gold 2" x1="45.4" y1="764.2" x2="109.9" y2="764.2" gradientTransform="matrix(1,0,0,1,0,0)" xlink:href="#Gold_2"/>
    <linearGradient id="Gold_2-18" data-name="Gold 2" x1="105.8" y1="219" x2="132.8" y2="219" gradientTransform="matrix(1,0,0,1,0,0)" xlink:href="#Gold_2"/>
    <linearGradient id="Gold_2-19" data-name="Gold 2" x1="105.8" y1="219" x2="132.8" y2="219" gradientTransform="matrix(1,0,0,1,0,0)" xlink:href="#Gold_2"/>
    <clipPath id="clippath-3">
      <polygon class="cls-97" points="105.8 221 115.3 204.5 132.8 217.1 123.3 233.6 105.8 221"/>
    </clipPath>
    <linearGradient id="Gold_2-20" data-name="Gold 2" x1="97.9" y1="219.1" x2="140.8" y2="219.1" gradientTransform="matrix(1,0,0,1,0,0)" xlink:href="#Gold_2"/>
    <linearGradient id="Gold_2-21" data-name="Gold 2" x1="728.4" y1="201.2" x2="748.1" y2="201.2" gradientTransform="translate(-301 1032.9) rotate(-67.1)" xlink:href="#Gold_2"/>
    <linearGradient id="Gold_2-22" data-name="Gold 2" x1="613.2" y1="136.4" x2="722.1" y2="136.4" gradientTransform="translate(-316.3 864.6) rotate(-57.9)" xlink:href="#Gold_2"/>
    <linearGradient id="Gold_2-23" data-name="Gold 2" x1="694.9" y1="97.7" x2="728.8" y2="97.7" gradientTransform="translate(-291.2 894.8) rotate(-60.7)" xlink:href="#Gold_2"/>
    <linearGradient id="Gold_2-24" data-name="Gold 2" x1="502" y1="49.9" x2="565.2" y2="49.9" gradientTransform="translate(-296.1 592.9) rotate(-42.6)" xlink:href="#Gold_2"/>
    <linearGradient id="Gold_2-25" data-name="Gold 2" x1="680.6" y1="1299.2" x2="765.1" y2="1299.2" gradientTransform="translate(1520 805.5) rotate(139.7)" xlink:href="#Gold_2"/>
    <linearGradient id="Gold_2-26" data-name="Gold 2" x1="1152.9" y1="966.4" x2="1207.8" y2="966.4" gradientTransform="translate(1048.7 1437.4) rotate(-166.8)" xlink:href="#Gold_2"/>
    <linearGradient id="Gold_2-27" data-name="Gold 2" x1="711.2" y1="32.1" x2="784.8" y2="32.1" gradientTransform="translate(-264.6 884.7) rotate(-61.8)" xlink:href="#Gold_2"/>
    <linearGradient id="Gold_2-28" data-name="Gold 2" x1="641.8" y1="-10.9" x2="687.1" y2="-10.9" gradientTransform="translate(-278.7 755.6) rotate(-54.1)" xlink:href="#Gold_2"/>
    <linearGradient id="Gold_2-29" data-name="Gold 2" x1="298.6" y1="281.7" x2="319.1" y2="281.7" gradientTransform="matrix(1,0,0,1,0,0)" xlink:href="#Gold_2"/>
    <linearGradient id="Gold_2-30" data-name="Gold 2" x1="298.6" y1="281.7" x2="319.1" y2="281.7" gradientTransform="matrix(1,0,0,1,0,0)" xlink:href="#Gold_2"/>
    <clipPath id="clippath-4">
      <polygon class="cls-69" points="298.6 279.4 309.3 275.7 319.1 285 315 287.6 298.6 279.4"/>
    </clipPath>
    <linearGradient id="Gold_2-31" data-name="Gold 2" x1="298" y1="280.6" x2="320.5" y2="280.6" gradientTransform="matrix(1,0,0,1,0,0)" xlink:href="#Gold_2"/>
    <linearGradient id="Gold_2-32" data-name="Gold 2" x1="1039.6" y1="1132.9" x2="1054.2" y2="1132.9" gradientTransform="translate(1275.7 1836.1) rotate(-167.1)" xlink:href="#Gold_2"/>
    <linearGradient id="Gold_2-33" data-name="Gold 2" x1="1180.7" y1="1013.3" x2="1195.3" y2="1013.3" gradientTransform="translate(1275.7 1836.1) rotate(-167.1)" xlink:href="#Gold_2"/>
    <linearGradient id="Gold_2-34" data-name="Gold 2" x1="63.2" y1="937.2" x2="77.1" y2="937.2" gradientTransform="translate(584.4 -195.7) rotate(35.4)" xlink:href="#Gold_2"/>
    <linearGradient id="Gold_2-35" data-name="Gold 2" x1="603.2" y1="1327.2" x2="621.7" y2="1327.2" gradientTransform="translate(1616 567.6) rotate(113.5)" xlink:href="#Gold_2"/>
    <linearGradient id="Gold_2-36" data-name="Gold 2" x1="993.3" y1="1131.1" x2="1030.4" y2="1131.1" gradientTransform="translate(1532.9 1472.1) rotate(162.5)" xlink:href="#Gold_2"/>
    <linearGradient id="Gold_2-37" data-name="Gold 2" x1="266.4" y1="490.2" x2="296.3" y2="490.2" gradientTransform="translate(443.4 -280.7) rotate(30.2)" xlink:href="#Gold_2"/>
    <linearGradient id="Gold_2-38" data-name="Gold 2" x1="795.7" y1="860.1" x2="833.7" y2="860.1" gradientTransform="translate(2764 1321.1) rotate(162.4)" xlink:href="#Gold_2"/>
    <linearGradient id="Gold_2-39" data-name="Gold 2" x1="739.9" y1="343.7" x2="759.2" y2="343.7" gradientTransform="translate(-125.2 180.5) rotate(-11.4)" xlink:href="#Gold_2"/>
    <linearGradient id="Gold_2-40" data-name="Gold 2" x1="961.7" y1="1163.5" x2="988.4" y2="1163.5" gradientTransform="translate(1470.4 1077) rotate(170.6)" xlink:href="#Gold_2"/>
    <linearGradient id="Gold_2-41" data-name="Gold 2" x1="396.7" y1="430.6" x2="435.3" y2="430.6" gradientTransform="translate(157.3 -135.7) rotate(11.4)" xlink:href="#Gold_2"/>
    <linearGradient id="Gold_2-42" data-name="Gold 2" x1="1421" y1="431.8" x2="1430.6" y2="431.8" gradientTransform="translate(19.4 1257) rotate(-66.4)" xlink:href="#Gold_2"/>
    <linearGradient id="Gold_2-43" data-name="Gold 2" x1="892.7" y1="1329.2" x2="902.5" y2="1329.2" gradientTransform="translate(1707.5 1101.7) rotate(131.7)" xlink:href="#Gold_2"/>
    <linearGradient id="Gold_2-44" data-name="Gold 2" x1="1821.2" y1="998.4" x2="1892" y2="998.4" gradientTransform="translate(-202.3 404.1) rotate(-16)" xlink:href="#Gold_2"/>
    <linearGradient id="Gold_2-45" data-name="Gold 2" x1="1155" y1="504.1" x2="1192" y2="504.1" gradientTransform="translate(2487.7 -113) rotate(102)" xlink:href="#Gold_2"/>
    <linearGradient id="Gold_2-46" data-name="Gold 2" x1="1329.7" y1="1276.8" x2="1451.2" y2="1276.8" gradientTransform="translate(1589.6 1994.2) rotate(-128.3)" xlink:href="#Gold_2"/>
    <linearGradient id="Gold_2-47" data-name="Gold 2" x1="790.4" y1="1031.5" x2="815.5" y2="1031.5" gradientTransform="translate(2406.7 1067.7) rotate(168.9)" xlink:href="#Gold_2"/>
    <linearGradient id="Gold_2-48" data-name="Gold 2" x1="954" y1="1236.1" x2="1023" y2="1236.1" gradientTransform="translate(2035.3 2153.4) rotate(-150.5)" xlink:href="#Gold_2"/>
    <linearGradient id="Gold_2-49" data-name="Gold 2" x1="1744" y1="479.8" x2="1758.1" y2="479.8" gradientTransform="matrix(1,0,0,1,0,0)" xlink:href="#Gold_2"/>
    <linearGradient id="Gold_2-50" data-name="Gold 2" x1="1744" y1="479.8" x2="1758.1" y2="479.8" gradientTransform="matrix(1,0,0,1,0,0)" xlink:href="#Gold_2"/>
    <clipPath id="clippath-5">
      <polygon class="cls-107" points="1758.1 482 1747.7 494.1 1744 477.7 1754.4 465.6 1758.1 482"/>
    </clipPath>
    <linearGradient id="Gold_2-51" data-name="Gold 2" x1="1739.1" y1="479.9" x2="1763" y2="479.9" gradientTransform="matrix(1,0,0,1,0,0)" xlink:href="#Gold_2"/>
    <linearGradient id="Gold_2-52" data-name="Gold 2" x1="1567.1" y1="265.3" x2="1607.3" y2="265.3" gradientTransform="matrix(1,0,0,1,0,0)" xlink:href="#Gold_2"/>
    <linearGradient id="Gold_2-53" data-name="Gold 2" x1="1567.1" y1="265.3" x2="1607.3" y2="265.3" gradientTransform="matrix(1,0,0,1,0,0)" xlink:href="#Gold_2"/>
    <clipPath id="clippath-6">
      <polygon class="cls-105" points="1584.2 260.1 1607.3 263.9 1590 270.6 1567.1 266.7 1584.2 260.1"/>
    </clipPath>
    <linearGradient id="Gold_2-54" data-name="Gold 2" x1="1536.1" y1="265.2" x2="1638.4" y2="265.2" gradientTransform="matrix(1,0,0,1,0,0)" xlink:href="#Gold_2"/>
    <linearGradient id="Gold_2-55" data-name="Gold 2" x1="1316.1" y1="230.7" x2="1391.1" y2="230.7" gradientTransform="translate(730.4 -614.9) rotate(38.6)" xlink:href="#Gold_2"/>
    <linearGradient id="Gold_2-56" data-name="Gold 2" x1="1627.3" y1="424.3" x2="1646.1" y2="424.3" gradientTransform="translate(-119.7 267.1) rotate(-12)" xlink:href="#Gold_2"/>
    <linearGradient id="Gold_2-57" data-name="Gold 2" x1="1490" y1="705.9" x2="1519.3" y2="705.9" gradientTransform="translate(-188.6 1057.5) rotate(-47)" xlink:href="#Gold_2"/>
    <linearGradient id="Gold_2-58" data-name="Gold 2" x1="1196.7" y1="1152.2" x2="1236.6" y2="1152.2" gradientTransform="translate(1117.2 2184.8) rotate(-122.8)" xlink:href="#Gold_2"/>
    <linearGradient id="Gold_2-59" data-name="Gold 2" x1="1825.7" y1="1038.3" x2="1853.5" y2="1038.3" gradientTransform="translate(-123.2 1326.2) rotate(-51)" xlink:href="#Gold_2"/>
    <linearGradient id="Gold_2-60" data-name="Gold 2" x1="684.6" y1="545.6" x2="715.6" y2="545.6" gradientTransform="translate(2065.2 -250.5) rotate(103.5)" xlink:href="#Gold_2"/>
    <linearGradient id="Gold_2-61" data-name="Gold 2" x1="1670.8" y1="1127.8" x2="1708.8" y2="1127.8" gradientTransform="translate(207.3 1795.6) rotate(-74.3)" xlink:href="#Gold_2"/>
    <linearGradient id="Gold_2-62" data-name="Gold 2" x1="1284.3" y1="149.2" x2="1306.2" y2="149.2" gradientTransform="translate(1404.9 -777) rotate(63.3)" xlink:href="#Gold_2"/>
    <linearGradient id="Gold_2-63" data-name="Gold 2" x1="1597" y1="181.7" x2="1616.4" y2="181.7" gradientTransform="translate(-101.8 267.4) rotate(-12.4)" xlink:href="#Gold_2"/>
    <linearGradient id="Gold_2-64" data-name="Gold 2" x1="900.8" y1="1071" x2="921.3" y2="1071" gradientTransform="translate(2208.1 1517.2) rotate(-177)" xlink:href="#Gold_2"/>
    <linearGradient id="Gold_2-65" data-name="Gold 2" x1="240.6" y1="678.2" x2="251.9" y2="678.2" gradientTransform="translate(1157.1 -335.3) rotate(75.8)" xlink:href="#Gold_2"/>
    <linearGradient id="Gold_2-66" data-name="Gold 2" x1="425.9" y1="447.5" x2="437.2" y2="447.5" gradientTransform="translate(1157.1 -335.3) rotate(75.8)" xlink:href="#Gold_2"/>
    <linearGradient id="Gold_2-67" data-name="Gold 2" x1="506.7" y1="211.8" x2="518" y2="211.8" gradientTransform="translate(1157.1 -335.3) rotate(75.8)" xlink:href="#Gold_2"/>
    <linearGradient id="Gold_2-68" data-name="Gold 2" x1="869.5" y1="-165.3" x2="880.8" y2="-165.3" gradientTransform="translate(1157.1 -335.3) rotate(75.8)" xlink:href="#Gold_2"/>
    <linearGradient id="Gold_2-69" data-name="Gold 2" x1="1016.9" y1="-81.4" x2="1028.1" y2="-81.4" gradientTransform="translate(1157.1 -335.3) rotate(75.8)" xlink:href="#Gold_2"/>
    <linearGradient id="Gold_2-70" data-name="Gold 2" x1="1130" y1="122.9" x2="1167.5" y2="122.9" gradientTransform="translate(1551 -767.1) rotate(70.6)" xlink:href="#Gold_2"/>
    <linearGradient id="Gold_2-71" data-name="Gold 2" x1="1011" y1="1213.5" x2="1049.6" y2="1213.5" gradientTransform="translate(1729.1 2252.2) rotate(-143.4)" xlink:href="#Gold_2"/>
    <linearGradient id="Gold_2-72" data-name="Gold 2" x1="1157.2" y1="1295.2" x2="1194.8" y2="1295.2" gradientTransform="translate(2055.8 1859.5) rotate(-146)" xlink:href="#Gold_2"/>
    <linearGradient id="Gold_2-73" data-name="Gold 2" x1="1242.7" y1="838.6" x2="1283.6" y2="838.6" gradientTransform="translate(840.6 1818.4) rotate(-124.7)" xlink:href="#Gold_2"/>
    <linearGradient id="Gold_2-74" data-name="Gold 2" x1="75.4" y1="1141.5" x2="89.4" y2="1141.5" gradientTransform="translate(612.3 -164.6) rotate(34.4)" xlink:href="#Gold_2"/>
    <linearGradient id="Gold_2-75" data-name="Gold 2" x1="1085.9" y1="816.1" x2="1100" y2="816.1" gradientTransform="translate(894.4 1933.4) rotate(-152.7)" xlink:href="#Gold_2"/>
    <linearGradient id="Gold_2-76" data-name="Gold 2" x1="241.4" y1="413.3" x2="264.1" y2="413.3" gradientTransform="translate(-387.9 501.6) rotate(-35.8)" xlink:href="#Gold_2"/>
    <linearGradient id="Gold_2-77" data-name="Gold 2" x1="742.6" y1="1206.8" x2="763" y2="1206.8" gradientTransform="translate(1648.2 764.1) rotate(149.7)" xlink:href="#Gold_2"/>
    <linearGradient id="Gold_2-78" data-name="Gold 2" x1="1056.8" y1="217.8" x2="1087.1" y2="217.8" gradientTransform="translate(-20 1292) rotate(-88.8)" xlink:href="#Gold_2"/>
    <linearGradient id="Gold_2-79" data-name="Gold 2" x1="366.5" y1="496.7" x2="448.3" y2="496.7" gradientTransform="translate(599.5 -357.4) rotate(38.5)" xlink:href="#Gold_2"/>
    <linearGradient id="Gold_2-80" data-name="Gold 2" x1="1177.3" y1="922.5" x2="1231.8" y2="922.5" gradientTransform="translate(1173 1653.5) rotate(-148.7)" xlink:href="#Gold_2"/>
    <linearGradient id="Gold_2-81" data-name="Gold 2" x1="559.4" y1="1059.1" x2="590" y2="1059.1" gradientTransform="translate(1830.3 360) rotate(126)" xlink:href="#Gold_2"/>
    <linearGradient id="Gold_2-82" data-name="Gold 2" x1="368.3" y1="868.1" x2="403.9" y2="868.1" gradientTransform="translate(1553.7 -114.7) rotate(96.9)" xlink:href="#Gold_2"/>
    <linearGradient id="Gold_2-83" data-name="Gold 2" x1="966.2" y1="1102.9" x2="1020.8" y2="1102.9" gradientTransform="translate(1672.5 1237.3) rotate(178)" xlink:href="#Gold_2"/>
    <linearGradient id="Gold_2-84" data-name="Gold 2" x1="317.2" y1="743.3" x2="346.3" y2="743.3" gradientTransform="translate(1360 -273.2) rotate(84)" xlink:href="#Gold_2"/>
    <linearGradient id="Gold_2-85" data-name="Gold 2" x1="501.1" y1="1028.2" x2="539.5" y2="1028.2" gradientTransform="translate(1795.9 250.4) rotate(122.3)" xlink:href="#Gold_2"/>
    <linearGradient id="Gold_2-86" data-name="Gold 2" x1="708" y1="95" x2="736.6" y2="95" gradientTransform="translate(-77.1 122.2) rotate(-8)" xlink:href="#Gold_2"/>
    <linearGradient id="Gold_2-87" data-name="Gold 2" x1="1475.1" y1="526.1" x2="1532.2" y2="526.1" gradientTransform="translate(-144.6 1017.3) rotate(-47.5)" xlink:href="#Gold_2"/>
    <linearGradient id="Gold_2-88" data-name="Gold 2" x1="555.6" y1="724.3" x2="665" y2="724.3" gradientTransform="translate(2164.6 26.2) rotate(119.1)" xlink:href="#Gold_2"/>
    <linearGradient id="Gold_2-89" data-name="Gold 2" x1="963.6" y1="139.2" x2="1059" y2="139.2" gradientTransform="translate(355.6 -385) rotate(24.4)" xlink:href="#Gold_2"/>
    <linearGradient id="Gold_2-90" data-name="Gold 2" x1="1163.1" y1="110.1" x2="1238.9" y2="110.1" gradientTransform="translate(-1.2 1.9) rotate(0)" xlink:href="#Gold_2"/>
    <linearGradient id="Gold_2-91" data-name="Gold 2" x1="603.3" y1="341.7" x2="653" y2="341.7" gradientTransform="translate(1357.9 -574.5) rotate(74)" xlink:href="#Gold_2"/>
    <linearGradient id="Gold_2-92" data-name="Gold 2" x1="1461.6" y1="922.8" x2="1488.9" y2="922.8" gradientTransform="translate(937.9 1795) rotate(-113.8)" xlink:href="#Gold_2"/>
    <linearGradient id="Gold_2-93" data-name="Gold 2" x1="1003.5" y1="1126.8" x2="1053.5" y2="1126.8" gradientTransform="translate(1963.2 1396.1) rotate(-168.3)" xlink:href="#Gold_2"/>
    <linearGradient id="Gold_2-94" data-name="Gold 2" x1="497.5" y1="726" x2="542.3" y2="726" gradientTransform="translate(2051.5 -65) rotate(117.8)" xlink:href="#Gold_2"/>
    <linearGradient id="Gold_2-95" data-name="Gold 2" x1="1266.1" y1="554.6" x2="1339.5" y2="554.6" gradientTransform="translate(1951.4 -449.5) rotate(79.3)" xlink:href="#Gold_2"/>
    <linearGradient id="Gold_2-96" data-name="Gold 2" x1="985.4" y1="616.5" x2="1007.7" y2="616.5" gradientTransform="translate(2724.4 402.2) rotate(123.3)" xlink:href="#Gold_2"/>
    <linearGradient id="Gold_2-97" data-name="Gold 2" x1="1432" y1="1298.6" x2="1465.2" y2="1298.6" gradientTransform="translate(-116.5 1701.2) rotate(-66)" xlink:href="#Gold_2"/>
    <linearGradient id="Gold_2-98" data-name="Gold 2" x1="821.6" y1="994.3" x2="863.3" y2="994.3" gradientTransform="translate(2491.6 1884.6) rotate(-178.4)" xlink:href="#Gold_2"/>
    <linearGradient id="Gold_2-99" data-name="Gold 2" x1="1501.5" y1="1248.7" x2="1537.7" y2="1248.7" gradientTransform="translate(-194.5 1501.7) rotate(-58.1)" xlink:href="#Gold_2"/>
    <linearGradient id="Gold_2-100" data-name="Gold 2" x1="960.7" y1="604.1" x2="986.9" y2="604.1" gradientTransform="translate(2709.6 359.7) rotate(122.9)" xlink:href="#Gold_2"/>
    <linearGradient id="Gold_2-101" data-name="Gold 2" x1="599.4" y1="1558.4" x2="599.4" y2="1475.4" gradientTransform="matrix(1,0,0,1,0,0)" xlink:href="#Gold_2"/>
    <linearGradient id="Gold_2-102" data-name="Gold 2" x1="655.7" y1="1558.4" x2="655.7" y2="1502" gradientTransform="matrix(1,0,0,1,0,0)" xlink:href="#Gold_2"/>
    <linearGradient id="Gold_2-103" data-name="Gold 2" x1="720.8" y1="1559.1" x2="720.8" y2="1476.1" gradientTransform="matrix(1,0,0,1,0,0)" xlink:href="#Gold_2"/>
    <linearGradient id="Gold_2-104" data-name="Gold 2" x1="802.5" y1="1558.4" x2="802.5" y2="1476.1" gradientTransform="matrix(1,0,0,1,0,0)" xlink:href="#Gold_2"/>
    <linearGradient id="Gold_2-105" data-name="Gold 2" x1="870.3" y1="1558.4" x2="870.3" y2="1502" gradientTransform="matrix(1,0,0,1,0,0)" xlink:href="#Gold_2"/>
    <linearGradient id="Gold_2-106" data-name="Gold 2" x1="931.7" y1="1558.4" x2="931.7" y2="1502" gradientTransform="matrix(1,0,0,1,0,0)" xlink:href="#Gold_2"/>
    <linearGradient id="Gold_2-107" data-name="Gold 2" x1="980" y1="1558.4" x2="980" y2="1477" gradientTransform="matrix(1,0,0,1,0,0)" xlink:href="#Gold_2"/>
    <linearGradient id="Gold_2-108" data-name="Gold 2" x1="1019.7" y1="1558.4" x2="1019.7" y2="1502.7" gradientTransform="matrix(1,0,0,1,0,0)" xlink:href="#Gold_2"/>
    <linearGradient id="Gold_2-109" data-name="Gold 2" x1="1067.6" y1="1559.1" x2="1067.6" y2="1502" gradientTransform="matrix(1,0,0,1,0,0)" xlink:href="#Gold_2"/>
    <linearGradient id="Gold_2-110" data-name="Gold 2" x1="1123.5" y1="1558.4" x2="1123.5" y2="1502" gradientTransform="matrix(1,0,0,1,0,0)" xlink:href="#Gold_2"/>
    <linearGradient id="Gold_2-111" data-name="Gold 2" x1="1164.2" y1="1559.1" x2="1164.2" y2="1502" gradientTransform="matrix(1,0,0,1,0,0)" xlink:href="#Gold_2"/>
    <linearGradient id="Gold_2-112" data-name="Gold 2" x1="1219.9" y1="1559.1" x2="1219.9" y2="1502" gradientTransform="matrix(1,0,0,1,0,0)" xlink:href="#Gold_2"/>
    <linearGradient id="Gold_2-113" data-name="Gold 2" x1="1277.6" y1="1558.4" x2="1277.6" y2="1502" gradientTransform="matrix(1,0,0,1,0,0)" xlink:href="#Gold_2"/>
    <linearGradient id="Gold_2-114" data-name="Gold 2" x1="1319.3" y1="1583.6" x2="1319.3" y2="1502.7" gradientTransform="matrix(1,0,0,1,0,0)" xlink:href="#Gold_2"/>
  </defs>
  <g>
    <g>
      <path class="cls-20" d="M385.2,716.8h444.3c11.6,0,21.1,9.4,21.1,21.1v444.3c0,11.6-9.4,21.1-21.1,21.1h-444.3c-11.6,0-21.1-9.4-21.1-21.1v-444.4c.1-11.6,9.5-21,21.1-21Z"/>
      <path class="cls-112" d="M850.3,955.6v226.6c0,11.6-9.4,21.1-21.1,21.1h-216l-190.1-190.3h48.1v2.2l.4,4.7,1.1,4.5,1.8,4.2,2.3,3.6,3,3.5,3.3,2.8,3.9,2.4,4.3,1.9,4.4,1,4.8.4,4.8-.4,4.5-1,4.1-1.9,3.9-2.4,3.4-2.8,3-3.5,2.4-3.6,1.8-4.2,1.1-4.5.4-4.7v-2.2h132.2v2.1l.4,4.7,1.1,4.5,1.8,4.1,2.4,3.8,2.9,3.5,3.3,2.9,3.8,2.3,4.3,1.8,4.5,1.2,4.8.4,4.8-.4,4.5-1.2,4.2-1.8,3.9-2.3,3.4-2.9,2.9-3.5,2.4-3.8,1.9-4.1,1-4.5.4-4.7v-2.1h71.1v-101.4l-.4-5.2-1.2-5.1-1.7-4.7-2.6-4.5-3.1-3.9,67.4,67.4Z"/>
      <path class="cls-3" d="M791.4,906.4l-1.2-5.1-1.7-4.7-2.6-4.5-3.1-3.9-3.6-3.5-4.1-3.2-4.3-2.4-4.9-1.8-5.1-1.2-5.4-.4h-310.3l-2.1.4-1.8.6-1.6,1.4-1.1,1.4-.8,1.8-14.7,73.5v58.2h48.2v2.2l.4,4.7,1.1,4.5,1.8,4.2,2.3,3.6,3,3.5,3.3,2.8,3.9,2.4,4.3,1.9,4.4,1,4.8.4,4.8-.4,4.5-1,4.1-1.9,3.9-2.4,3.4-2.8,3-3.5,2.4-3.6,1.8-4.2,1.1-4.5.4-4.7v-2.2h132.2v2.1l.4,4.7,1.1,4.5,1.8,4.1,2.4,3.8,2.9,3.5,3.3,2.9,3.8,2.3,4.3,1.8,4.5,1.2,4.8.4,4.8-.4,4.5-1.2,4.2-1.8,3.9-2.3,3.4-2.9,2.9-3.5,2.4-3.8,1.9-4.1,1-4.5.4-4.7v-2.1h71.1v-101.4l-.5-5.2ZM475.2,986.6h-35.8v-30l13.8-64.6h22v94.6ZM550.3,941.7h-59.1v-49.7h59.1v49.7ZM625.5,941.7h-59.1v-49.7h59.1v49.7ZM700.5,941.7h-59v-49.7h59v49.7ZM775.4,941.6h-58.7v-49.6h38.8l4.1.4,3.7,1.1,3.3,1.9,2.9,2.4,2.5,2.8,1.8,3.4,1.1,3.7.4,3.9v30h.1Z"/>
    </g>
    <g>
      <path class="cls-20" d="M944.7,808.2h-37v-91.5h35.6c17,0,27.6,9.6,27.6,25s-6.2,17-12.3,19.4c7.1,2.8,13.8,9.6,13.8,21.2,0,17-11.5,25.9-27.7,25.9h0ZM942.1,729.2h-20.6v26.2h20.6c8.9,0,14.9-4.6,14.9-13.1s-6-13.1-14.9-13.1h0ZM943.4,767.9h-21.8v27.9h21.8c9.6,0,15-5.9,15-14s-5.4-13.9-15-13.9Z"/>
      <path class="cls-20" d="M1029.2,808.2v-6.5c-4.5,4.9-10.8,7.3-17.3,7.3s-12.2-2.2-16.1-5.9c-5-4.9-6.5-11-6.5-18.4v-41.6h13.1v39.7c0,10.2,5.8,14.5,13.1,14.5s13.5-4.5,13.5-14.5v-39.7h13.1v65.1h-12.9Z"/>
      <path class="cls-20" d="M1083.5,809c-10.7,0-19.7-1.8-27.4-9.4l8.6-8.6c5.3,5.4,12.3,6.8,18.8,6.8s14.3-2.8,14.3-9-2.4-7.1-8.7-7.7l-10.4-.9c-12.3-1.2-19.3-6.5-19.3-18s10.9-19.9,24.5-19.9,18.1,2,24.2,7.3l-8.2,8.3c-4.1-3.5-9.9-4.8-16.1-4.8s-11.8,3.3-11.8,8.3,2.6,6.8,9,7.5l9.1.8c13.5,1.2,20.6,7.1,20.6,18.5,0,13.8-11.6,20.8-27.2,20.8h0Z"/>
      <path class="cls-20" d="M907.7,932.3v-91.5h13.9v91.5h-13.9Z"/>
      <path class="cls-20" d="M981.8,932.3v-39.7c0-10.2-5.8-14.5-13.1-14.5s-13.5,4.5-13.5,14.5v39.7h-13.1v-65.1h12.9v6.5c4.5-4.9,10.8-7.3,17.3-7.3s12.2,2.2,16.1,5.9c5,4.9,6.5,11,6.5,18.4v41.6h-13.1Z"/>
      <path class="cls-20" d="M1028.6,877.2v55.1h-13.1v-55.1h-7.5v-10h7.5v-8.9c0-9.4,5.7-18.1,17.9-18.1h8.2v11.2h-5.8c-4.9,0-7.2,2.8-7.2,7.6v8.2h13v10h-13Z"/>
      <path class="cls-20" d="M1098.3,925.4c-4.2,4.4-10.7,7.7-19.5,7.7s-15.2-3.3-19.4-7.7c-6.2-6.4-7.7-14.7-7.7-25.7s1.5-19.1,7.7-25.6c4.2-4.4,10.5-7.7,19.4-7.7s15.3,3.3,19.5,7.7c6.2,6.4,7.7,14.6,7.7,25.6s-1.5,19.3-7.7,25.7ZM1088.4,881.8c-2.4-2.4-5.8-3.7-9.6-3.7s-7.1,1.3-9.5,3.7c-4,4-4.5,10.8-4.5,17.9s.5,13.9,4.5,17.9,5.7,3.8,9.5,3.8,7.2-1.4,9.6-3.8c4-4,4.5-10.8,4.5-17.9s-.5-13.9-4.5-17.9Z"/>
      <path class="cls-20" d="M1158.8,882.5c-2.9-3-5.3-4.4-9.8-4.4-7.1,0-13,5.7-13,14.7v39.6h-13.1v-65.1h12.8v7.1c3.3-4.6,10-7.8,17.3-7.8s11.1,1.7,15.5,6.2l-9.7,9.7h0Z"/>
      <path class="cls-20" d="M1260.2,932.3v-39.7c0-10.2-5.8-14.5-13.1-14.5s-13.5,4.5-13.5,13.9v40.3h-13.1v-39.7c0-10.2-5.8-14.5-13.1-14.5s-13.5,4.5-13.5,14.5v39.7h-13.1v-65.1h12.8v6.5c4.4-4.8,10.8-7.3,17.3-7.3s14.4,3.2,18.5,9.5c5.3-6.4,11.8-9.5,20.4-9.5s12.6,2.2,16.4,5.9c5,4.9,6.9,11,6.9,18.4v41.6h-12.9Z"/>
      <path class="cls-20" d="M1327.9,932.3v-5.9c-4.8,4.8-9.2,6.7-17.3,6.7s-13.5-1.9-17.5-5.9c-3.3-3.5-5.1-8.5-5.1-14,0-10.9,7.6-18.8,22.6-18.8h17.1v-4.6c0-8.3-4-12.2-14.3-12.2s-10.5,1.8-14.3,6.4l-8.5-8.1c6-7.2,12.3-9.5,23.2-9.5,18,0,26.8,7.7,26.8,22.3v43.5h-12.7ZM1327.6,903.5h-15c-8,0-11.9,3.3-11.9,9.4s3.7,9.2,12.3,9.2,8.3-.5,11.8-3.7c2.1-1.9,2.8-5,2.8-9.6v-5.3h0Z"/>
      <path class="cls-20" d="M1379.1,932.3c-12.2,0-17.9-8.7-17.9-18.1v-37h-7.4v-10h7.4v-18.6h13.1v18.6h12.6v10h-12.6v36.4c0,4.8,2.3,7.6,7.2,7.6h5.4v11.2h-7.8Z"/>
      <path class="cls-20" d="M1401.7,854.3v-13.9h13.9v13.9h-13.9ZM1402,932.3v-65.1h13.1v65.1h-13.1Z"/>
      <path class="cls-20" d="M1478.4,925.4c-4.2,4.4-10.7,7.7-19.5,7.7s-15.2-3.3-19.4-7.7c-6.2-6.4-7.7-14.7-7.7-25.7s1.5-19.1,7.7-25.6c4.2-4.4,10.5-7.7,19.4-7.7s15.3,3.3,19.5,7.7c6.2,6.4,7.7,14.6,7.7,25.6s-1.5,19.3-7.7,25.7ZM1468.5,881.8c-2.4-2.4-5.8-3.7-9.6-3.7s-7.1,1.3-9.5,3.7c-4,4-4.5,10.8-4.5,17.9s.5,13.9,4.5,17.9,5.7,3.8,9.5,3.8,7.2-1.4,9.6-3.8c4-4,4.5-10.8,4.5-17.9s-.5-13.9-4.5-17.9Z"/>
      <path class="cls-20" d="M1542.7,932.3v-39.7c0-10.2-5.8-14.5-13.1-14.5s-13.5,4.5-13.5,14.5v39.7h-13.1v-65.1h12.8v6.5c4.5-4.9,10.8-7.3,17.3-7.3s12.2,2.2,16.1,5.9c5,4.9,6.6,11,6.6,18.4v41.6h-13.1Z"/>
      <path class="cls-20" d="M944.7,1054.9h-37v-91.5h35.6c17,0,27.6,9.6,27.6,25s-6.2,17-12.3,19.4c7.1,2.8,13.8,9.6,13.8,21.2,0,16.9-11.5,25.8-27.7,25.9h0ZM942.1,975.8h-20.6v26.2h20.6c8.9,0,14.9-4.6,14.9-13.1s-6-13-14.9-13.1h0ZM943.4,1014.5h-21.8v27.9h21.8c9.6,0,15-5.9,15-14s-5.4-13.9-15-13.9Z"/>
      <path class="cls-20" d="M1034.4,1047.9c-4.2,4.4-10.7,7.7-19.5,7.7s-15.2-3.3-19.4-7.7c-6.2-6.4-7.7-14.7-7.7-25.7s1.5-19.1,7.7-25.6c4.2-4.4,10.5-7.7,19.4-7.7s15.3,3.3,19.5,7.7c6.2,6.4,7.7,14.6,7.7,25.6s-1.6,19.3-7.7,25.7ZM1024.5,1004.4c-2.4-2.4-5.8-3.7-9.6-3.7s-7.1,1.3-9.5,3.7c-4,4-4.5,10.8-4.5,17.9s.5,13.9,4.5,17.9,5.7,3.8,9.5,3.8,7.2-1.4,9.6-3.8c4-4,4.5-10.8,4.5-17.9s-.5-14-4.5-17.9Z"/>
      <path class="cls-20" d="M1095,1054.9v-5.9c-4.8,4.8-9.2,6.7-17.3,6.7s-13.5-1.9-17.5-5.9c-3.3-3.5-5.1-8.5-5.1-14,0-10.9,7.6-18.8,22.6-18.8h17.1v-4.6c0-8.3-4-12.2-14.3-12.2s-10.5,1.8-14.3,6.4l-8.5-8.1c6-7.2,12.3-9.5,23.2-9.5,18,0,26.8,7.7,26.8,22.3v43.5h-12.7ZM1094.8,1026.1h-15c-8,0-11.9,3.3-11.9,9.4s3.7,9.2,12.3,9.2,8.3-.5,11.8-3.7c2.1-1.9,2.8-5,2.8-9.6v-5.3h0Z"/>
      <path class="cls-20" d="M1162.8,1005c-2.9-3-5.3-4.4-9.8-4.4-7.1,0-13,5.7-13,14.7v39.6h-13v-65.1h12.8v7.1c3.3-4.6,10-7.8,17.3-7.8s11.1,1.7,15.5,6.2l-9.8,9.7h0Z"/>
      <path class="cls-20" d="M1221.3,1054.9v-6.9c-4.9,5.9-10.2,7.7-17.2,7.7s-12.3-2.2-15.9-5.8c-6.3-6.4-7.3-16.8-7.3-27.6s1-21.1,7.3-27.5c3.6-3.6,9.2-5.8,15.8-5.8s12.3,1.7,17.1,7.3v-32.9h13.1v91.5h-12.9ZM1207.5,1000.7c-11.9,0-13.6,10-13.6,21.6s1.7,21.7,13.6,21.7,13.5-10.2,13.5-21.7-1.7-21.6-13.5-21.6Z"/>
      <path class="cls-20" d="M931.9,1178.2c-13.8,0-23.5-3.2-32.4-12.1l9.1-9.1c6.7,6.7,14.3,8.9,23.5,8.9s18.9-5.1,18.9-14.1-1-7.3-3.6-9.5c-2.3-2.1-5.4-3.2-10-3.8l-10.8-1.5c-7.5-1.2-13.2-3.5-17.2-7.3-4.5-4.1-6.8-10-6.8-17.6,0-15.9,11.6-26.7,30.6-26.7s20.6,3.1,28.4,10.4l-8.7,8.7c-5.7-5.4-12.3-7.1-20.2-7.1s-16.6,5.9-16.6,14.3.9,6.4,3.3,8.5c2.3,2.1,5,3.3,10,4.1l10.9,1.7c8.3,1.3,13,3.2,17,6.8,4.9,4.5,7.5,10.8,7.5,18.8,0,16.6-13.6,26.6-32.9,26.6h0Z"/>
      <path class="cls-20" d="M1000.2,1190.4c-1.3,3.6-2.8,6.2-4.8,8.1-3.6,3.6-8.3,4.8-13.4,4.8h-5.3v-11.8h3.3c5.5,0,7.5-1.7,9.4-6.9l3.6-10.2-22.7-62.1h13.9l15.5,45.9,15.2-45.9h14l-28.7,78.1h0Z"/>
      <path class="cls-20" d="M1061.5,1178.2c-10.7,0-19.7-1.8-27.4-9.4l8.6-8.6c5.3,5.4,12.3,6.8,18.8,6.8s14.3-2.8,14.3-9-2.4-7.1-8.7-7.7l-10.4-.9c-12.3-1.2-19.3-6.6-19.3-18s10.9-19.9,24.5-19.9,18.1,2.1,24.2,7.3l-8.2,8.3c-4.1-3.5-9.9-4.8-16.1-4.8s-11.8,3.3-11.8,8.3,2.6,6.8,9,7.4l9.1.8c13.5,1.2,20.6,7.1,20.6,18.5,0,13.8-11.7,20.9-27.2,20.9h0Z"/>
      <path class="cls-20" d="M1124.5,1177.4c-12.2,0-17.9-8.7-17.9-18.1v-37h-7.4v-10h7.4v-18.6h13.1v18.6h12.6v10h-12.6v36.4c0,4.8,2.3,7.6,7.2,7.6h5.4v11.2h-7.8Z"/>
      <path class="cls-20" d="M1156.6,1148.6c0,11.3,5.8,18.2,16.6,18.2s11.2-2.1,15.8-6.7l8.3,7.8c-6.7,6.7-13,10.2-24.4,10.2-16.3,0-29.3-8.6-29.3-33.4s10.9-33.3,27.6-33.3,27.6,12.6,27.6,31.6v5.5h-42.2ZM1184.1,1130.6c-2.2-4.9-6.7-8.2-12.8-8.2s-10.8,3.3-13,8.2c-1.3,2.8-1.5,4.9-1.7,8.9h29.3c-.2-4-.5-6.1-1.8-8.9Z"/>
      <path class="cls-20" d="M1294.7,1177.4v-39.7c0-10.2-5.8-14.5-13.1-14.5s-13.5,4.5-13.5,13.9v40.3h-13.1v-39.7c0-10.2-5.8-14.5-13.1-14.5s-13.5,4.5-13.5,14.5v39.7h-13.1v-65.1h12.8v6.6c4.4-4.8,10.8-7.3,17.3-7.3s14.4,3.2,18.5,9.5c5.3-6.4,11.8-9.5,20.4-9.5s12.6,2.2,16.4,5.9c5,4.9,6.9,11.1,6.9,18.4v41.6h-12.9Z"/>
    </g>
  </g>
  <g>
    <path class="cls-2" d="M844.5,1863.3h-7.6v11.1h-2v-26.1h9.6c4.5,0,7.9,2.8,7.9,7.5s-3.3,7.5-7.9,7.5ZM844.3,1850h-7.4v11.5h7.4c3.6,0,6.1-1.8,6.1-5.8s-2.4-5.7-6.1-5.7Z"/>
    <path class="cls-2" d="M868.6,1872.6c-1.3,1.3-2.9,1.9-4.9,1.9s-3.6-.7-4.9-1.9c-1.9-1.9-2.2-4.6-2.2-7.1s.3-5.2,2.2-7.1c1.3-1.3,2.9-1.9,4.9-1.9s3.6.7,4.9,1.9c1.9,1.9,2.2,4.6,2.2,7.1s-.3,5.3-2.2,7.1ZM867.4,1859.6c-1-1-2.2-1.5-3.7-1.5s-2.7.5-3.7,1.5c-1.5,1.5-1.6,3.8-1.6,5.9s0,4.4,1.6,5.9,2.2,1.5,3.7,1.5,2.7-.5,3.7-1.5c1.5-1.5,1.6-3.8,1.6-5.9s0-4.4-1.6-5.9Z"/>
    <path class="cls-2" d="M893.3,1874.4h-1.9l-5-14.8-5,14.8h-1.9l-5.7-17.7h2l4.5,15.5,5.1-15.5h1.8l5.1,15.5,4.5-15.5h2l-5.5,17.7h0Z"/>
    <path class="cls-2" d="M903.9,1865.9c0,4.5,2,7,5.8,7s3.4-.6,4.9-2.1l1.4,1.1c-1.8,1.8-3.5,2.7-6.4,2.7-4.9,0-7.5-3.2-7.5-9.1s2.6-9.1,7.1-9.1,7.1,3.2,7.1,8.6v.8h-12.4ZM913.7,1861.1c-.8-1.9-2.5-3-4.6-3s-3.7,1.1-4.6,3c-.5,1.1-.5,1.7-.6,3.3h10.4c-.1-1.7-.2-2.3-.6-3.3h0Z"/>
    <path class="cls-2" d="M928.8,1858.1c-3,0-4.7,2.5-4.7,5.4v10.9h-1.9v-17.7h1.9v2.3c1-1.7,3.1-2.6,5.2-2.6s3,.4,4.3,1.7l-1.4,1.4c-1.1-1.1-1.9-1.4-3.4-1.4h0Z"/>
    <path class="cls-2" d="M938,1865.9c0,4.5,2,7,5.8,7s3.4-.6,4.9-2.1l1.4,1.1c-1.8,1.8-3.5,2.7-6.4,2.7-4.9,0-7.5-3.2-7.5-9.1s2.6-9.1,7.1-9.1,7.1,3.2,7.1,8.6v.8h-12.4ZM947.8,1861.1c-.8-1.9-2.5-3-4.6-3s-3.7,1.1-4.6,3c-.5,1.1-.5,1.7-.6,3.3h10.4c0-1.7-.1-2.3-.6-3.3h0Z"/>
    <path class="cls-2" d="M967.2,1874.4v-2.3c-1.6,2.1-3.2,2.5-5.2,2.5s-3.4-.6-4.3-1.5c-1.8-1.8-2.3-4.7-2.3-7.5s.5-5.7,2.3-7.5c.9-.9,2.5-1.5,4.3-1.5s3.7.4,5.2,2.5v-10.7h1.9v26.1h-1.9ZM962.2,1858.1c-4.3,0-5,3.7-5,7.4s.7,7.4,5,7.4,5-3.7,5-7.4-.7-7.4-5-7.4Z"/>
    <path class="cls-2" d="M997,1873c-.9.9-2.5,1.5-4.3,1.5s-3.7-.4-5.2-2.5v2.3h-1.9v-26.1h1.9v10.7c1.6-2.1,3.2-2.5,5.2-2.5s3.4.6,4.3,1.5c1.8,1.8,2.3,4.7,2.3,7.5s-.5,5.8-2.3,7.6h0ZM992.4,1858.1c-4.3,0-5,3.7-5,7.4s.7,7.4,5,7.4,5-3.7,5-7.4-.7-7.4-5-7.4Z"/>
    <path class="cls-2" d="M1008.8,1879.2c-.3.9-.7,1.7-1.2,2.1-.9.8-2.2,1.1-3.3,1.1h-.9v-1.7h.7c2,0,2.6-.7,3.2-2.4l1.4-3.9-6.5-17.7h2l5.3,15.5,5.3-15.5h2l-8,22.5h0Z"/>
    <path class="cls-2" d="M1037.8,1850v24.4h-2v-24.4h-7.8v-1.8h17.6v1.8h-7.8Z"/>
    <path class="cls-2" d="M1048.6,1877.1h-1.9l10.4-31.6h1.9l-10.4,31.6Z"/>
    <path class="cls-2" d="M1083.1,1874.4v-21.5l-7.9,17.9h-2l-8.1-17.9v21.5h-2v-26.1h2l9.1,20.1,8.9-20.1h2v26.1h-2Z"/>
  </g>
  <g>
    <polygon class="cls-4" points="1359.2 459.5 1368.3 482.1 1392.7 483.8 1374.1 499.6 1379.9 523.2 1359.2 510.4 1338.5 523.2 1344.3 499.6 1325.6 483.8 1349.9 482.1 1359.2 459.5"/>
    <polygon class="cls-1" points="447 466.5 406.1 463.6 380.6 497.6 370.5 455.3 331.8 440.2 366.8 417.2 368.4 373.7 400.1 401.5 439.6 389.8 424.4 430.2 447 466.5"/>
    <polygon class="cls-26" points="291 842.1 266.3 840.4 250.8 861 244.7 835.4 221.5 826.3 242.5 812.3 243.5 786.1 262.7 802.9 286.4 795.7 277.3 820.2 291 842.1"/>
    <polygon class="cls-25" points="1582.4 780.3 1557.7 778.5 1542.2 799.1 1536.1 773.6 1513 764.4 1534 750.5 1535 724.2 1554.1 741 1577.8 734 1568.7 758.3 1582.4 780.3"/>
    <polygon class="cls-24" points="102.9 123.4 93.8 122.8 88.3 130.2 85.9 121 77.6 117.6 85.3 112.6 85.6 103.1 92.6 109.2 101.1 106.6 97.8 115.5 102.9 123.4"/>
    <polygon class="cls-27" points="107.8 509.2 98.7 508.6 93.2 516 90.8 506.8 82.6 503.5 90.2 498.4 90.5 488.9 97.5 495 106 492.5 102.7 501.3 107.8 509.2"/>
    <polygon class="cls-22" points="454.6 240.9 445.4 240.2 439.9 247.8 437.8 238.5 429.3 235.2 436.9 230.1 437.2 220.6 444.2 226.7 453.1 224.1 449.7 233 454.6 240.9"/>
    <polygon class="cls-23" points="673.3 316 664.4 315.3 658.9 322.7 656.5 313.5 648.3 310.2 655.9 305.2 656.2 295.7 663.2 301.8 671.8 299.2 668.4 308.1 673.3 316"/>
    <polygon class="cls-21" points="1211.8 396.1 1187.2 394.3 1171.6 414.9 1165.6 389.4 1142.3 380.3 1163.4 366.4 1164.3 340.1 1183.5 356.9 1207.2 349.8 1198.1 374.3 1211.8 396.1"/>
    <g>
      <polygon class="cls-120" points="926.4 295.4 945 285.3 963.9 290 950.7 312.7 926.4 295.4"/>
      <g class="cls-113">
        <polygon class="cls-99" points="935.9 240.2 915.7 300.5 954.4 345 974.8 284.9 935.9 240.2"/>
      </g>
    </g>
    <g>
      <polygon class="cls-126" points="176.2 82.4 201.5 80.8 201.8 111.8 176.5 113.3 176.2 82.4"/>
      <g class="cls-114">
        <polygon class="cls-100" points="224.3 59.1 166.2 76 153.7 135.1 211.9 118.4 224.3 59.1"/>
      </g>
    </g>
    <g>
      <polygon class="cls-125" points="80.4 760.1 97.4 774.7 74.9 768.3 57.8 753.6 80.4 760.1"/>
      <g class="cls-117">
        <polygon class="cls-101" points="109.9 779.7 94.1 760.5 45.4 748.6 61.2 767.8 109.9 779.7"/>
      </g>
    </g>
    <g>
      <polygon class="cls-124" points="105.8 221 115.3 204.5 132.8 217.1 123.3 233.6 105.8 221"/>
      <g class="cls-116">
        <polygon class="cls-78" points="112.5 181.1 97.9 224.7 126.2 257.1 140.8 213.4 112.5 181.1"/>
      </g>
    </g>
    <path class="cls-85" d="M227.2,465.6s2.4-11.6-6.2-20c-8.6-8.5-38.7-20.3-38.7-20.3l-42.2-13.4-23.7-12.5s-6,11.3,6.4,19.1c12.4,7.7,36.1,14.9,36.1,14.9l43.8,14.1s21.9,11.1,24.6,18.2Z"/>
    <path class="cls-84" d="M116.7,412.2s3.3-15,10.2-19.3c6.6-4.4,31.6-21.7,44.2-26.1,12.9-4.4,26.1-18.2,26.1-18.2l-3.5-16.7s-12.3,12.5-26.1,17.4c-13.7,4.8-37.6,21.4-37.6,21.4,0,0-16.1,11-16.8,22.1-.9,11.1,3.5,19.4,3.5,19.4Z"/>
    <path class="cls-82" d="M193.6,331.7s-11.1-9.5-35.1-11.3c-24.1-1.9-54.6-12.8-59.3-20.4,0,0-1.3,14.5,4,18.2,5.3,3.9,16.6,12.3,31.6,14.5,15,2.1,31.6,5.1,31.6,5.1,0,0,15,3.4,16.8,4,3.1-.8,10.4-10.2,10.4-10.2Z"/>
    <path class="cls-83" d="M167.1,276.5s-3.4,4.5-18.6,7.2c-15.7,2.8-41.8,2.2-51.3-5.2-9.3-7.3-5.5-17.5-5.5-17.5,0,0,20.1,9.4,28.7,8.1,8.9-1.4,42-12.7,42-12.7l4.7,20Z"/>
    <path class="cls-80" d="M100.3,313.7s1.1-12.4,6.8-17.5c5.5-5.3,14.6-10.9,21-14.5,6.2-3.7,34-12.5,38.2-8.8l-4.2-16.9s-13.3-4.8-30.1,4.6c-16.8,9.5-25.9,15.8-31.2,22.1-5.5,6.3-5.7,12.2-5.7,12.2l5.1,18.9Z"/>
    <path class="cls-79" d="M147.6,231.4s-3.5,7.4-15,8.9c-11.3,1.6-31.8,7.1-41.3-6.1-.3-8.8,4.9-11.5,4.9-11.5,0,0,6,3.2,11.7,3.1,6-.2,36.5-12.3,36.5-12.3l3.3,17.9Z"/>
    <path class="cls-77" d="M91,268.4s4-13.2,10.2-17.8c6.4-4.4,31.8-21.6,46.2-19.5-1.4-6.2-3.1-17.5-3.1-17.5,0,0-11.3-1.3-21.5,4.4-10.2,5.7-24.8,14.7-29.2,20.4-4.2,5.5-6.6,13.9-6.6,13.9l4,16.1Z"/>
    <path class="cls-81" d="M91,231s8.4-19.5,24.8-20.5v-17.4s-10.8,2.4-19.9,9.9c-9.1,7.5-7.8,10.5-7.8,10.5l2.8,17.4Z"/>
    <g>
      <polygon class="cls-121" points="298.6 279.4 309.3 275.7 319.1 285 315 287.6 298.6 279.4"/>
      <g class="cls-115">
        <polygon class="cls-74" points="317.5 288.7 320.5 280 301 272.5 298 281.2 317.5 288.7"/>
      </g>
    </g>
    <polygon class="cls-76" points="502.1 495.3 505.8 512.1 516.1 499.7 512.8 483.1 502.1 495.3"/>
    <polygon class="cls-75" points="337.8 580.2 341.5 596.9 351.8 584.5 348.5 567.9 337.8 580.2"/>
    <polygon class="cls-68" points="105 610.7 101.4 594.1 91.1 606.3 94.7 623.1 105 610.7"/>
    <polygon class="cls-72" points="174.5 597.6 151.7 593.7 134.6 600.4 157.5 604.2 174.5 597.6"/>
    <polygon class="cls-71" points="209.2 700.1 233.6 717.5 246.4 694.6 222.3 677.4 209.2 700.1"/>
    <polygon class="cls-73" points="458.5 281.8 434.2 264.4 421.1 287.3 445.4 304.5 458.5 281.8"/>
    <polygon class="cls-70" points="1715 731.4 1712 764.1 1738.8 765.3 1741.8 732.6 1715 731.4"/>
    <polygon class="cls-86" points="682.4 347.7 666.9 366.2 672.1 391.2 687.9 372.7 682.4 347.7"/>
    <polygon class="cls-90" points="327.8 85.4 301.7 64.3 310.2 90.1 336.4 111 327.8 85.4"/>
    <polygon class="cls-87" points="476.8 363.7 459.7 370.3 482.6 374.1 499.7 367.3 476.8 363.7"/>
    <polygon class="cls-89" points="1004.6 133.6 988.1 118.8 965.9 111.9 982.4 126.7 1004.6 133.6"/>
    <polygon class="cls-94" points="137.2 898.7 120.8 883.9 98.5 876.9 115 891.8 137.2 898.7"/>
    <polygon class="cls-95" points="1892 872.5 1867.3 870.7 1851.7 891.4 1845.7 865.9 1822.5 856.7 1843.5 842.6 1844.5 816.4 1863.7 833.4 1887.5 826.3 1878.3 850.6 1892 872.5"/>
    <polygon class="cls-92" points="1769.7 927.9 1745.7 910.5 1732.7 933.2 1756.7 950.6 1769.7 927.9"/>
    <polygon class="cls-91" points="1781.3 149.2 1740.2 146.3 1714.6 180.3 1704.5 138.3 1666.2 123.1 1700.8 99.9 1702.7 56.4 1734.1 84.3 1773.7 72.5 1758.5 112.9 1781.3 149.2"/>
    <polygon class="cls-93" points="1433.2 217.2 1424 216.6 1418.5 224 1416.1 214.8 1407.8 211.4 1415.5 206.4 1415.7 196.9 1422.8 203 1431.3 200.4 1427.9 209.3 1433.2 217.2"/>
    <polygon class="cls-88" points="1813.5 608.4 1788.5 606.6 1773.3 627.2 1767.2 601.8 1743.7 592.6 1764.8 578.5 1766 552.3 1784.9 569.2 1808.9 562.1 1799.7 586.4 1813.5 608.4"/>
    <g>
      <polygon class="cls-122" points="1758.1 482 1747.7 494.1 1744 477.7 1754.4 465.6 1758.1 482"/>
      <g class="cls-119">
        <polygon class="cls-106" points="1740.7 515.9 1763 480.9 1761.4 443.8 1739.1 478.8 1740.7 515.9"/>
      </g>
    </g>
    <g>
      <polygon class="cls-123" points="1584.2 260.1 1607.3 263.9 1590 270.6 1567.1 266.7 1584.2 260.1"/>
      <g class="cls-118">
        <polygon class="cls-104" points="1638.4 254.4 1572.6 250.7 1536.1 276 1601.9 279.7 1638.4 254.4"/>
      </g>
    </g>
    <polygon class="cls-111" points="1649.4 429.3 1675.3 431.1 1660.9 408.4 1670.7 382.9 1645.7 390.3 1625.9 372.8 1624.7 400.2 1602.8 414.7 1627.2 424.2 1633.6 450.8 1649.4 429.3"/>
    <polygon class="cls-108" points="1559.2 339.8 1575.7 348.1 1579.6 345.6 1569.9 336.3 1559.2 339.8"/>
    <polygon class="cls-110" points="1374.3 438.5 1351.5 434.6 1334.4 441.2 1357.3 445 1374.3 438.5"/>
    <polygon class="cls-109" points="1409.1 540.9 1433.5 558.3 1446.2 535.4 1422.1 518.2 1409.1 540.9"/>
    <polygon class="cls-96" points="1859.8 546.5 1835.5 529.1 1822.3 552 1846.7 569.4 1859.8 546.5"/>
    <polygon class="cls-38" points="1355.5 315.2 1379.9 321.3 1388 291.7 1363.7 285.5 1355.5 315.2"/>
    <polygon class="cls-35" points="1738.6 460.4 1738.9 491.4 1763.9 489.8 1763.4 458.8 1738.6 460.4"/>
    <polygon class="cls-37" points="1837.9 443.5 1852.5 457.4 1868 452.1 1844 439.7 1837.9 443.5"/>
    <polygon class="cls-36" points="1495.8 97.8 1501.3 122.8 1516.9 104.3 1511.6 79.3 1495.8 97.8"/>
    <polygon class="cls-33" points="1344.4 396.4 1354.2 405.7 1364.6 402.2 1348.4 393.8 1344.4 396.4"/>
    <polygon class="cls-34" points="555.1 65.5 544.7 77.1 564.9 74.7 575.5 63.1 555.1 65.5"/>
    <polygon class="cls-47" points="824.2 188.4 813.9 200 834 197.6 844.7 186 824.2 188.4"/>
    <polygon class="cls-46" points="1072.6 208.9 1062.2 220.5 1082.4 218.1 1093 206.5 1072.6 208.9"/>
    <polygon class="cls-32" points="1527.2 468 1516.9 479.6 1537 477.2 1547.7 465.6 1527.2 468"/>
    <polygon class="cls-31" points="1482.1 631.4 1471.7 643 1491.9 640.6 1502.5 629 1482.1 631.4"/>
    <polygon class="cls-44" points="1805.9 359.5 1829.3 372.6 1827.5 354.7 1804 341.8 1805.9 359.5"/>
    <polygon class="cls-39" points="1615.3 666 1638.7 679.1 1636.8 661.3 1613.4 648.3 1615.3 666"/>
    <polygon class="cls-42" points="1791.2 113.6 1791.9 144.6 1816.9 143 1816.5 112 1791.2 113.6"/>
    <polygon class="cls-43" points="793.9 289.9 807.6 306 829.3 315.2 815.5 299.2 793.9 289.9"/>
    <polygon class="cls-41" points="42 825.8 38.4 809 28 821.4 31.4 838.1 42 825.8"/>
    <polygon class="cls-45" points="305.3 708.6 302 692.2 291.6 704.5 295.3 720.7 305.3 708.6"/>
    <polygon class="cls-28" points="65.8 690.8 62.4 674.2 51.7 686.4 55.4 703.2 65.8 690.8"/>
    <polygon class="cls-30" points="382.4 99.9 386 116.6 396.4 104.2 392.8 87.6 382.4 99.9"/>
    <polygon class="cls-29" points="230.4 222.2 206.9 209.3 208.7 227 232.2 240.1 230.4 222.2"/>
    <path class="cls-40" d="M627.8,328s5.5-6.6,3.9-15.2c-1.6-8.9-13.6-28.4-13.6-28.4l-18-25-8.3-17.3s-7.4,5.1-3.5,14.7c3.9,9.9,14.1,23.6,14.1,23.6l18.6,26.1s7.9,15.7,6.7,21.4Z"/>
    <path class="cls-50" d="M587.3,250.5s7.1-8.1,12.4-8.5c5.2-.2,24.8-1.5,33.3.7,8.3,2,20.4-1.5,20.4-1.5l4.2-12.1s-11.2,3.3-20.3.9c-9.1-2.1-28.1-.8-28.1-.8,0,0-12.6.8-16.9,7.5-4.3,6.8-5,13.8-5,13.8Z"/>
    <path class="cls-51" d="M657.5,229s-2.5-10.4-14.8-21c-12.5-10.4-25-29.6-24.8-36.2,0,0-5.9,8.9-4.4,13.5,1.5,4.4,4.6,14.2,11.9,21.4,7.4,7.2,15.1,15.8,15.1,15.8,0,0,6.9,7.9,7.7,9.1,2,.6,9.2-2.6,9.2-2.6Z"/>
    <path class="cls-60" d="M662.9,183.3s-3.3,1.6-12.7-2.6c-9.3-4.2-23.2-15-25.6-23.4-2.5-8.4,3.2-13.5,3.2-13.5,0,0,7.4,14.1,12.7,16.4,5.1,2.7,27.2,8.3,27.2,8.3l-4.7,14.8Z"/>
    <path class="cls-59" d="M613.6,181s5.1-7.6,10-8.7c4.9-1.1,11.8-1.2,16.5-1,4.6.1,22.8,5.2,23.7,9.3l3.9-12.6s-5.5-8.2-18-8.7c-12.4-.5-19.5,0-24.6,1.8-5.3,2.2-7.4,5.7-7.4,5.7l-4.2,14.2Z"/>
    <path class="cls-61" d="M668.6,146.7s-4.5,3.3-11.3,0c-6.6-3.5-19.7-8-20.2-20.1,3.2-5.9,6.8-5.7,6.8-5.7,0,0,2,4.3,5.2,6.6,3.2,2.3,23.9,6.3,23.9,6.3l-4.5,12.9Z"/>
    <path class="cls-64" d="M624.8,148.4s6.9-7.1,11.9-7.6c4.9-.3,24.9-1.5,31.9,5.4,1.6-4.4,4.5-12.3,4.5-12.3,0,0-5.5-5.3-13-5.6-7.5-.3-18.8,0-23,1.7-4.3,2-8.6,6.5-8.6,6.5l-3.7,11.9Z"/>
    <path class="cls-58" d="M638.2,124.3s11.4-9.2,20.7-3.7c1.9-3.1,6.1-11,6.1-11,0,0-6.6-2.7-14.2-1.3-7.6,1.1-8.1,3.7-8.1,3.7l-4.6,12.3Z"/>
    <path class="cls-56" d="M1317.3,290.4s1.1-11.7-8.3-18.9c-9.2-7.2-39.9-15.2-39.9-15.2l-42.9-8.1-24.4-9.2s-4.6,11.8,8.2,17.9c13.1,6.1,37.1,10.1,37.1,10.1l44.3,8.5s22.7,8.2,26,14.9Z"/>
    <path class="cls-57" d="M1203.2,251.5s1.8-15,7.8-20.1c6.1-5.2,28.8-25.2,40.6-31.1,12-5.7,23.6-21,23.6-21l-5.2-15.9s-10.7,13.7-23.6,20.2c-13.1,6.4-34.7,25.6-34.7,25.6,0,0-14.7,12.8-14.2,23.8.4,10.9,5.7,18.4,5.7,18.4Z"/>
    <path class="cls-55" d="M1269.8,163.4s-11.8-8-35.6-6.8c-23.8,1.2-55-6-60.2-12.8,0,0,.2,14.4,5.9,17.6,5.5,3,17.4,9.9,32.5,10.2,15,.2,31.6,1.2,31.6,1.2,0,0,14.8,1.4,16.8,1.7,3-1.1,8.9-11.2,8.9-11.2Z"/>
    <path class="cls-54" d="M1237.9,112.5s-2.6,4.7-17.4,9.5c-14.9,4.6-40.8,7.2-50.8,1.1-10.1-6.1-7.3-16.5-7.3-16.5,0,0,20.5,6.7,29,4.3,8.5-2.3,39.7-17.3,39.7-17.3l6.7,18.9Z"/>
    <path class="cls-52" d="M1176.6,157.1s-.2-12.2,4.6-18.1c5-5.8,13.3-12.5,18.9-16.7,5.9-4.3,32.1-16.4,36.6-13.2l-5.9-16.2s-13.5-3.1-29,8.2c-15.5,11.3-23.5,18.6-28.1,25.4-4.6,6.8-4.1,12.6-4.1,12.6l6.9,18Z"/>
    <path class="cls-53" d="M1213.9,70.6s-2.6,7.7-13.7,10.6c-10.9,3-30.5,10.9-41.3-.9-1.1-8.7,3.7-11.9,3.7-11.9,0,0,5.8,2.4,11.8,1.6,5.7-.9,34.3-16.4,34.3-16.4l5.2,17Z"/>
    <path class="cls-67" d="M1162.4,113.9s2.4-13.5,8.1-18.7c5.7-5.2,28.8-25.1,43.2-24.9-2-5.8-5-16.6-5-16.6,0,0-11.1,0-20.5,6.8-9.4,6.8-22.7,17.5-26.2,23.5-3.6,5.9-5.2,14.5-5.2,14.5l5.6,15.3Z"/>
    <path class="cls-66" d="M1158.3,77.2s6-20.2,22-23.2c-.4-5.1-1.9-17-1.9-17,0,0-10,3.7-18.4,12.1-8,8.4-6.3,11.2-6.3,11.2l4.6,16.9Z"/>
    <path class="cls-65" d="M1674.1,966.3s-2.4-11.2-16.1-24.5c-13.7-13.2-27.1-35.3-26.5-42.1,0,0-7.4,8.1-5.9,13.1,1.5,4.8,4.5,15.6,12.6,24.6,8.2,8.9,16.7,19.1,16.7,19.1,0,0,7.5,9.4,8.4,10.7,2.3,1.2,10.7-1,10.7-1Z"/>
    <path class="cls-63" d="M1683.1,919.7s-4,1.1-14.5-5c-10.5-6.1-26.2-19.8-28.6-29-2.3-9.2,4.6-13.3,4.6-13.3,0,0,7.8,15.6,13.7,19.2,5.9,3.7,30.9,13.6,30.9,13.6l-6.1,14.4Z"/>
    <path class="cls-48" d="M1626.1,908.6s6.2-6.9,11.9-7.3c5.7-.2,13.9.9,19.1,1.8,5.5,1.1,26.2,9.7,27.1,14.1l5.1-12.3s-5.8-9.6-20.2-12.4c-14.5-2.8-22.6-3.5-28.7-2.4-6.1,1.1-8.8,4.5-8.8,4.5l-5.5,14Z"/>
    <path class="cls-49" d="M1691.7,882.6s-5.5,2.7-13.1-2.2c-7.6-4.7-22.5-11.8-22.3-24.5,3.9-5.4,8.2-4.4,8.2-4.4,0,0,2,4.8,5.7,7.8,3.6,2.8,27.4,10.9,27.4,10.9l-6,12.4Z"/>
    <path class="cls-62" d="M1640.8,876.4s8.4-6,14.2-5.6c5.8.5,28.9,2.9,36.7,11.5,1.8-4.3,5.9-12.1,5.9-12.1,0,0-6.2-6.5-14.8-8.2-8.7-1.7-21.6-3.5-26.7-2.3-5.1,1.1-10.5,5-10.5,5l-4.9,11.8Z"/>
    <path class="cls-15" d="M1657.6,853.9s13.9-7.6,24.2,0c2.4-3,7.7-10.5,7.7-10.5,0,0-7.5-3.8-16.3-4-8.9,0-9.3,2.5-9.3,2.5l-6.3,12Z"/>
  </g>
  <g>
    <path class="cls-17" d="M616.6,1514.5l-36,39.1h34.9l-.9,4.9h-42.1l1-4.9,39.6-43.2c5.1-5.5,7.5-9.9,7.5-16.8s-4.6-13.3-12.4-13.3-15.7,4.5-18.3,16.4h-5.8c2.8-14.1,11.9-21.3,24-21.3s18,6.5,18,18.3-4.4,15-9.7,20.8Z"/>
    <path class="cls-19" d="M679.3,1523.1l-7,35.2h-5.7l6.9-34.5c.3-2,.7-4.2.7-5.9,0-7.5-4.9-11.1-11.7-11.1s-15.5,1.8-18.6,17.3l-6.8,34.2h-5.7l11.1-55.7h5.7l-1.3,6.6c3.8-4.5,9.1-7.3,17.2-7.3s15.7,6.1,15.7,15.8-.2,3.6-.6,5.3Z"/>
    <path class="cls-14" d="M731,1558.4h-5.7l1.5-7.2c-5.7,6.9-11.2,7.9-16.3,7.9-12,0-16.3-7.6-16.3-18.3s.5-6.8,1.2-10.3c1.7-8.9,4.5-17.2,9.8-22.5,4.4-4.4,9.4-6,15.3-6s11.2,1.6,14.3,8.4l6.9-34.3h5.7l-16.4,82.3ZM720.7,1506.9c-12.7,0-17.3,11.7-19.6,23.7-.7,3.6-1.3,7.3-1.3,10.5,0,7.4,2.8,13.2,11.4,13.2,12.7,0,17.3-11.7,19.6-23.7.7-3.6,1.3-7.3,1.3-10.5,0-7.4-2.8-13.2-11.4-13.2Z"/>
    <path class="cls-11" d="M827.8,1558.4l-2.9-20h-36.3l-10.9,20h-6.6l45.1-82.3h5.3l12.4,82.3h-6.1ZM817.4,1484.4l-26.1,48.8h33l-6.9-48.8Z"/>
    <path class="cls-18" d="M894,1523.1l-7,35.2h-5.7l6.9-34.5c.3-2,.7-4.2.7-5.9,0-7.5-4.9-11.1-11.7-11.1s-15.5,1.8-18.6,17.3l-6.8,34.2h-5.7l11.1-55.7h5.7l-1.3,6.6c3.8-4.5,9.1-7.3,17.2-7.3s15.7,6.1,15.7,15.8-.2,3.6-.6,5.3Z"/>
    <path class="cls-12" d="M955.3,1523.1l-7,35.2h-5.7l6.9-34.5c.3-2,.7-4.2.7-5.9,0-7.5-4.9-11.1-11.7-11.1s-15.5,1.8-18.6,17.3l-6.8,34.2h-5.7l11.1-55.7h5.7l-1.3,6.6c3.8-4.5,9.1-7.3,17.2-7.3s15.7,6.1,15.7,15.8-.2,3.6-.6,5.3Z"/>
    <path class="cls-16" d="M974.5,1558.4h-5.7l11.1-55.7h5.7l-11.1,55.7ZM989.7,1484h-6.9l1.4-6.9h6.9l-1.4,6.9Z"/>
    <path class="cls-10" d="M1011.6,1558.4h-5.7l-8.2-55.7h5.8l6.5,48.6,25.3-48.6h6.5l-30.2,55.7Z"/>
    <path class="cls-13" d="M1088.5,1531.7h-36.9c-.5,2.7-.8,5.2-.8,8.2,0,8.1,3.9,14.2,13.1,14.2s11.6-2.3,16.6-6.9l3.8,3.8c-6,5.5-12.1,8.1-20.7,8.1s-18.4-6.9-18.4-19.1,7.2-38,27.2-38,17.3,8.8,17.3,18.7-.5,6.7-1.3,11ZM1072.4,1506.9c-9.2,0-16.3,6.5-19.9,20.3h31.2c.3-2.1.6-3.7.6-6.5,0-9.8-5.8-13.9-11.9-13.9Z"/>
    <path class="cls-6" d="M1141.1,1511c-1.7-2.3-4.4-4.2-8.7-4.2-9.1,0-16.4,7.6-18.3,17.2l-6.8,34.3h-5.7l11.1-55.7h5.7l-1.5,7.4c3.6-5.1,9.2-8.1,16.3-8.1s9.2,1.8,12.1,5.2l-4.3,3.8Z"/>
    <path class="cls-9" d="M1183.8,1511.5c-4-3.4-7.5-4.7-14-4.7-10.5,0-15.7,6.9-15.7,13.2s3.4,6.5,9.6,7.3l7.5,1c9.8,1.4,13.6,4.9,13.6,13.3s-1.2,7.4-5.3,11.4c-4.3,4-11.3,6.1-18.9,6.1s-15.5-2.5-20.2-7.9l4.3-3.7c3.9,4.6,8.7,6.7,16.5,6.7,12.5,0,18-7,18-12.9s-3.5-7.4-8.9-8.1l-7.6-1c-12.4-1.7-14.1-7.6-14.1-11.9s1.6-8.8,5-12.1,9.4-6.1,17.2-6.1,12.8,2.1,17.2,5.9l-4.2,3.6Z"/>
    <path class="cls-8" d="M1242.6,1520.3l-7.6,38.1h-5.5l1.3-5.8c-4.6,4.6-9.5,6.5-17,6.5s-17.1-2.4-17.1-13.1,1.4-9.2,5.1-12.9c4.6-4.6,10.1-5.9,16.3-5.9h17.7l1.4-6.9c.2-1.2.5-2.7.5-4.2,0-6.1-4.9-9.1-12.4-9.1s-11.8,2.2-16.4,7.3l-3.6-3.9c5.2-5.9,11-8.3,19.9-8.3s18,2,18,14.1-.2,2.8-.5,4.2ZM1218.6,1531.7c-9.5,0-16.3,4.7-16.3,14.3s3.6,8.2,12.7,8.2,9.9-1.6,13.3-4.9c2.4-2.4,4.2-5.7,5-9.8l1.5-7.9h-16.2Z"/>
    <path class="cls-5" d="M1295.2,1511c-1.7-2.3-4.4-4.2-8.7-4.2-9.1,0-16.4,7.6-18.3,17.2l-6.8,34.3h-5.7l11.1-55.7h5.7l-1.5,7.4c3.6-5.1,9.2-8.1,16.3-8.1s9.2,1.8,12.1,5.2l-4.3,3.8Z"/>
    <path class="cls-7" d="M1309.5,1573.6c-2.1,3.9-3.5,5.4-4.9,6.7-2.4,2.2-5.5,3.2-10.7,3.2h-2.9l1-4.9h2.2c6,0,7.9-1.8,11.1-8.1l6.5-12.4-8.2-55.6h5.8l6.5,48.6,25.3-48.6h6.4l-38,70.9Z"/>
  </g>
</svg>