<?xml version="1.0" encoding="UTF-8"?>
<svg id="_レイヤー_1" data-name=" レイヤー 1" xmlns="http://www.w3.org/2000/svg" version="1.1" viewBox="0 0 1920 1920">
  <defs>
    <style>
      .cls-1 {
        fill: #efe34b;
      }

      .cls-1, .cls-2, .cls-3, .cls-4, .cls-5 {
        stroke-width: 0px;
      }

      .cls-2 {
        fill: #dcdddd;
      }

      .cls-3 {
        fill: #001545;
      }

      .cls-4 {
        fill: #fff;
      }

      .cls-5 {
        fill: #e5e5e5;
      }
    </style>
  </defs>
  <g>
    <path class="cls-2" d="M844.5,1863.3h-7.6v11.1h-2v-26.1h9.6c4.5,0,7.9,2.8,7.9,7.5s-3.3,7.5-7.9,7.5ZM844.3,1850h-7.4v11.5h7.4c3.6,0,6.1-1.8,6.1-5.8s-2.4-5.7-6.1-5.7Z"/>
    <path class="cls-2" d="M868.6,1872.6c-1.3,1.3-2.9,1.9-4.9,1.9s-3.6-.7-4.9-1.9c-1.9-1.9-2.2-4.6-2.2-7.1s.3-5.2,2.2-7.1c1.3-1.3,2.9-1.9,4.9-1.9s3.6.7,4.9,1.9c1.9,1.9,2.2,4.6,2.2,7.1s-.3,5.3-2.2,7.1ZM867.4,1859.6c-1-1-2.2-1.5-3.7-1.5s-2.7.5-3.7,1.5c-1.5,1.5-1.6,3.8-1.6,5.9s0,4.4,1.6,5.9,2.2,1.5,3.7,1.5,2.7-.5,3.7-1.5c1.5-1.5,1.6-3.8,1.6-5.9s0-4.4-1.6-5.9Z"/>
    <path class="cls-2" d="M893.3,1874.4h-1.9l-5-14.8-5,14.8h-1.9l-5.7-17.7h2l4.5,15.5,5.1-15.5h1.8l5.1,15.5,4.5-15.5h2l-5.5,17.7h0Z"/>
    <path class="cls-2" d="M903.9,1865.9c0,4.5,2,7,5.8,7s3.4-.6,4.9-2.1l1.4,1.1c-1.8,1.8-3.5,2.7-6.4,2.7-4.9,0-7.5-3.2-7.5-9.1s2.6-9.1,7.1-9.1,7.1,3.2,7.1,8.6v.8h-12.4,0ZM913.7,1861.1c-.8-1.9-2.5-3-4.6-3s-3.7,1.1-4.6,3c-.5,1.1-.5,1.7-.6,3.3h10.4c0-1.7-.2-2.3-.6-3.3h0Z"/>
    <path class="cls-2" d="M928.8,1858.1c-3,0-4.7,2.5-4.7,5.4v10.9h-1.9v-17.7h1.9v2.3c1-1.7,3.1-2.6,5.2-2.6s3,.4,4.3,1.7l-1.4,1.4c-1.1-1.1-1.9-1.4-3.4-1.4h0Z"/>
    <path class="cls-2" d="M938,1865.9c0,4.5,2,7,5.8,7s3.4-.6,4.9-2.1l1.4,1.1c-1.8,1.8-3.5,2.7-6.4,2.7-4.9,0-7.5-3.2-7.5-9.1s2.6-9.1,7.1-9.1,7.1,3.2,7.1,8.6v.8h-12.4,0ZM947.8,1861.1c-.8-1.9-2.5-3-4.6-3s-3.7,1.1-4.6,3c-.5,1.1-.5,1.7-.6,3.3h10.4c0-1.7,0-2.3-.6-3.3h0Z"/>
    <path class="cls-2" d="M967.2,1874.4v-2.3c-1.6,2.1-3.2,2.5-5.2,2.5s-3.4-.6-4.3-1.5c-1.8-1.8-2.3-4.7-2.3-7.5s.5-5.7,2.3-7.5c.9-.9,2.5-1.5,4.3-1.5s3.7.4,5.2,2.5v-10.7h1.9v26.1h-1.9ZM962.2,1858.1c-4.3,0-5,3.7-5,7.4s.7,7.4,5,7.4,5-3.7,5-7.4-.7-7.4-5-7.4Z"/>
    <path class="cls-2" d="M997,1873c-.9.9-2.5,1.5-4.3,1.5s-3.7-.4-5.2-2.5v2.3h-1.9v-26.1h1.9v10.7c1.6-2.1,3.2-2.5,5.2-2.5s3.4.6,4.3,1.5c1.8,1.8,2.3,4.7,2.3,7.5s-.5,5.8-2.3,7.6h0ZM992.4,1858.1c-4.3,0-5,3.7-5,7.4s.7,7.4,5,7.4,5-3.7,5-7.4-.7-7.4-5-7.4Z"/>
    <path class="cls-2" d="M1008.8,1879.2c-.3.9-.7,1.7-1.2,2.1-.9.8-2.2,1.1-3.3,1.1h-.9v-1.7h.7c2,0,2.6-.7,3.2-2.4l1.4-3.9-6.5-17.7h2l5.3,15.5,5.3-15.5h2l-8,22.5h0Z"/>
    <path class="cls-2" d="M1037.8,1850v24.4h-2v-24.4h-7.8v-1.8h17.6v1.8h-7.8,0Z"/>
    <path class="cls-2" d="M1048.6,1877.1h-1.9l10.4-31.6h1.9l-10.4,31.6Z"/>
    <path class="cls-2" d="M1083.1,1874.4v-21.5l-7.9,17.9h-2l-8.1-17.9v21.5h-2v-26.1h2l9.1,20.1,8.9-20.1h2v26.1h-2Z"/>
  </g>
  <g>
    <g>
      <polygon class="cls-1" points="627.1 1355.1 618.8 1338 628.3 1321.6 609.4 1324.1 596.7 1310 593.3 1328.7 576 1336.5 592.7 1345.5 594.7 1364.4 608.5 1351.3 627.1 1355.1"/>
      <polygon class="cls-1" points="598.8 696.3 608.6 688.4 620.7 692 616.2 680.3 623.3 669.9 610.7 670.6 603.1 660.6 599.8 672.8 588 676.9 598.5 683.8 598.8 696.3"/>
      <polygon class="cls-1" points="815.9 1431.5 819.3 1413.4 836.1 1406 820 1397.2 818.1 1379 804.8 1391.6 786.9 1387.7 794.7 1404.3 785.5 1420.1 803.7 1417.8 815.9 1431.5"/>
      <polygon class="cls-1" points="846.5 375.7 833.4 368.1 832.2 353.1 821 363.2 806.3 359.7 812.4 373.5 804.6 386.3 819.6 384.8 829.4 396.2 832.5 381.5 846.5 375.7"/>
      <polygon class="cls-1" points="452.6 697.3 467.1 688.5 482.5 695.4 478.6 678.9 490 666.4 473.1 665 464.7 650.3 458.2 666 441.6 669.5 454.4 680.5 452.6 697.3"/>
      <polygon class="cls-1" points="646 1461.4 638.6 1456.2 638.7 1447.2 631.5 1452.6 623 1449.7 625.9 1458.2 620.5 1465.5 629.5 1465.3 634.7 1472.7 637.4 1464.1 646 1461.4"/>
      <polygon class="cls-1" points="725.5 1371.1 725.6 1385.7 713.7 1394 727.6 1398.5 731.8 1412.4 740.3 1400.5 754.9 1400.8 746.2 1389.1 751 1375.3 737.1 1379.9 725.5 1371.1"/>
      <polygon class="cls-1" points="879 309.6 886.7 316.7 885.2 327.1 894.3 321.9 903.7 326.5 901.7 316.3 908.9 308.7 898.5 307.5 893.6 298.3 889.3 307.8 879 309.6"/>
      <polygon class="cls-1" points="489.2 1221.1 497.3 1225.8 498 1235.3 505.1 1229 514.2 1231.2 510.5 1222.6 515.4 1214.6 506 1215.5 499.9 1208.3 497.9 1217.5 489.2 1221.1"/>
      <polygon class="cls-1" points="736 377.1 727.8 366.8 731.7 354.3 719.4 358.8 708.6 351.3 709.2 364.4 698.7 372.3 711.3 375.8 715.6 388.2 722.9 377.3 736 377.1"/>
      <polygon class="cls-1" points="390 1231.4 397.9 1228.7 404.7 1233.6 404.5 1225.2 411.2 1220.3 403.2 1217.9 400.6 1210 395.9 1216.9 387.6 1216.9 392.6 1223.5 390 1231.4"/>
      <polygon class="cls-1" points="470.1 589.2 465.7 580.3 470.5 571.6 460.6 573.1 453.8 565.9 452.2 575.7 443.2 579.9 452 584.5 453.3 594.3 460.4 587.4 470.1 589.2"/>
      <polygon class="cls-1" points="1175 1488.1 1160.8 1491.9 1149.7 1482.3 1148.8 1497 1136.3 1504.6 1150 1509.9 1153.4 1524.2 1162.7 1512.9 1177.3 1514.1 1169.4 1501.7 1175 1488.1"/>
      <polygon class="cls-1" points="643.9 1223.8 652.2 1229 652.6 1238.7 660.1 1232.5 669.5 1235.1 665.8 1226 671.3 1217.9 661.5 1218.6 655.5 1210.9 653.1 1220.4 643.9 1223.8"/>
      <polygon class="cls-1" points="1169.7 365.1 1178 361.9 1185.4 366.9 1184.9 358 1192 352.6 1183.4 350.2 1180.4 341.8 1175.6 349.3 1166.6 349.5 1172.2 356.5 1169.7 365.1"/>
      <polygon class="cls-1" points="1145 424.1 1152.2 412.8 1165.6 412.3 1157 401.9 1160.7 389.1 1148.3 394 1137.1 386.5 1138 399.9 1127.4 408.1 1140.4 411.5 1145 424.1"/>
      <polygon class="cls-1" points="917.8 464 903.9 429.7 936.4 412.3 899.6 415 893.1 378.6 884.3 414.5 847.7 409.4 879 428.9 862.9 462.2 891.2 438.3 917.8 464"/>
      <polygon class="cls-1" points="1264.9 378.1 1251.8 398.4 1230.3 387.5 1245.6 406.2 1228.6 423.3 1251.1 414.6 1262.1 436 1260.7 411.9 1284.5 408.1 1261.2 401.9 1264.9 378.1"/>
      <polygon class="cls-1" points="560.7 645 541 615 568.8 592.3 534.2 601.8 521.1 568.4 519.5 604.2 483.6 606.2 517.2 618.9 508.1 653.6 530.5 625.6 560.7 645"/>
      <polygon class="cls-1" points="630.2 580.6 618.1 599.5 598 589.4 612.3 606.8 596.5 622.8 617.4 614.6 627.7 634.6 626.4 612.2 648.6 608.5 626.8 602.8 630.2 580.6"/>
      <polygon class="cls-1" points="530.2 1251.9 559.1 1266.9 547.2 1297.2 570.3 1274.3 595.4 1295 580.9 1265.9 608.3 1248.5 576.2 1253.3 568 1221.8 562.7 1253.9 530.2 1251.9"/>
      <polygon class="cls-1" points="511 552.2 529.6 541.4 542.3 558.7 537.7 537.7 558.1 531 536.7 528.9 536.7 507.4 528 527.1 507.6 520.5 523.6 534.8 511 552.2"/>
      <polygon class="cls-1" points="1036.2 396.6 1040.8 371.4 1066.4 373.3 1043.8 361.1 1053.6 337.4 1035 355.1 1015.4 338.5 1026.6 361.6 1004.7 375.1 1030.2 371.7 1036.2 396.6"/>
      <polygon class="cls-1" points="790.8 540.3 797.5 526.1 812.4 531.3 801 520.5 810.6 508 796.7 515.5 787.8 502.5 790.7 518 775.5 522.5 791.2 524.5 790.8 540.3"/>
      <polygon class="cls-1" points="798.7 443.4 764.7 431.1 773.3 396 751.1 424.6 720.4 405.4 740.7 435.4 713 458.7 747.8 448.7 761.5 482.2 762.6 446 798.7 443.4"/>
      <polygon class="cls-1" points="1120.4 1519.8 1090.5 1510.6 1096.5 1479.9 1078.5 1505.5 1051.2 1490.4 1070 1515.4 1047.1 1536.7 1076.7 1526.5 1089.9 1554.9 1089.4 1523.6 1120.4 1519.8"/>
      <polygon class="cls-1" points="749.9 531.7 731.3 539.5 721.6 521.8 723.2 541.9 703.4 545.6 723 550.3 720.4 570.3 730.9 553 749.2 561.7 736 546.4 749.9 531.7"/>
      <polygon class="cls-1" points="695.4 1476.8 709.9 1469.8 718.3 1483.5 716.2 1467.5 731.8 1463.7 716 1460.9 717.2 1444.9 709.6 1459 694.7 1452.9 705.8 1464.5 695.4 1476.8"/>
      <polygon class="cls-1" points="573 1352.3 539.1 1346.7 541.2 1312.4 525.4 1342.9 493.4 1330.4 517.5 1354.9 495.7 1381.4 526.4 1366 544.9 1395 539.8 1361 573 1352.3"/>
      <polygon class="cls-1" points="729.5 1325.7 712.7 1305.9 730.6 1287.2 706.6 1297 694.2 1274.2 696.2 1300.1 670.7 1304.7 695.9 1310.9 692.4 1336.6 706.1 1314.5 729.5 1325.7"/>
      <polygon class="cls-1" points="841.2 446.3 829.6 456.3 818.5 445.8 824.4 459.9 811 467.2 826.3 465.9 829.1 481 832.6 466.1 847.7 468 834.7 460.1 841.2 446.3"/>
      <path class="cls-1" d="M1103.5,327.1c-1.5-.6-3.1.2-3.7,1.7s.2,3.1,1.7,3.7,3.1-.2,3.7-1.7-.2-3.1-1.7-3.7Z"/>
      <path class="cls-1" d="M614.5,480.8c2.6-4.8.9-10.8-3.9-13.5-4.8-2.6-10.8-.9-13.5,3.9-2.6,4.8-.9,10.8,3.9,13.5,4.8,2.6,10.8.9,13.5-3.9Z"/>
      <path class="cls-1" d="M599.5,523.2c-2.4.8-3.6,3.4-2.8,5.7.8,2.4,3.4,3.6,5.7,2.8,2.4-.8,3.6-3.4,2.8-5.7-.8-2.4-3.4-3.6-5.7-2.8Z"/>
      <path class="cls-1" d="M798.4,327c4-2.4,5.2-7.6,2.8-11.6s-7.6-5.2-11.6-2.8c-4,2.4-5.2,7.6-2.8,11.6s7.6,5.2,11.6,2.8Z"/>
      <path class="cls-1" d="M1228.9,355.2c-2.4-.2-4.5,1.7-4.7,4.1-.2,2.4,1.7,4.5,4.1,4.7,2.4.2,4.5-1.7,4.7-4.1.2-2.4-1.7-4.5-4.1-4.7Z"/>
      <path class="cls-1" d="M391.6,693.5c.8-2.2-.4-4.6-2.6-5.4-2.2-.8-4.6.4-5.4,2.6-.8,2.2.4,4.6,2.6,5.4,2.2.8,4.6-.4,5.4-2.6Z"/>
      <circle class="cls-1" cx="840.8" cy="1539.5" r="10.4"/>
      <path class="cls-1" d="M993.6,1533.7c-1.5-4.3-6.2-6.6-10.5-5.1s-6.6,6.2-5.1,10.5,6.2,6.6,10.5,5.1,6.6-6.2,5.1-10.5Z"/>
      <path class="cls-1" d="M878.5,1496.4c4.4-1.4,6.7-6.2,5.3-10.5-1.4-4.4-6.2-6.7-10.5-5.3-4.4,1.4-6.7,6.2-5.3,10.5,1.4,4.4,6.2,6.7,10.5,5.3Z"/>
      <path class="cls-1" d="M1074.5,405.2c-2.6-3-7-3.3-10-.8s-3.3,7-.8,10c2.6,3,7,3.3,10,.8,3-2.6,3.3-7,.8-10Z"/>
      <path class="cls-1" d="M1015.3,1486.3c3.2-3.3,3.2-8.5,0-11.8-3.3-3.2-8.5-3.2-11.8,0-3.2,3.3-3.2,8.5,0,11.8,3.3,3.2,8.5,3.2,11.8,0Z"/>
      <path class="cls-1" d="M938.8,1460.9c-1.7-1.6-4.4-1.6-6,0s-1.6,4.4,0,6c1.7,1.6,4.4,1.6,6,0s1.6-4.4,0-6Z"/>
      <path class="cls-1" d="M651.1,1394.4c.5-3.6-2-6.8-5.6-7.3s-6.8,2-7.3,5.6,2,6.8,5.6,7.3,6.8-2,7.3-5.6Z"/>
      <path class="cls-1" d="M550.8,686.1c1.5-4.7-1.1-9.7-5.8-11.2s-9.7,1.1-11.2,5.8,1.1,9.7,5.8,11.2,9.7-1.1,11.2-5.8Z"/>
      <path class="cls-1" d="M467.2,1282.5c1.6-.3,2.6-1.8,2.3-3.3s-1.8-2.6-3.3-2.3c-1.6.3-2.6,1.8-2.3,3.3.3,1.6,1.8,2.6,3.3,2.3Z"/>
      <path class="cls-1" d="M1290.8,435.9c-1.8-.8-3.8,0-4.6,1.8s0,3.8,1.8,4.6,3.8,0,4.6-1.8,0-3.8-1.8-4.6Z"/>
      <path class="cls-1" d="M979.5,438.3c4.2-.8,7-4.8,6.2-9s-4.8-7-9-6.2-7,4.8-6.2,9,4.8,7,9,6.2Z"/>
      <path class="cls-1" d="M785.9,1487c-2.6,1-4,3.9-3,6.6,1,2.6,3.9,4,6.6,3,2.6-1,4-3.9,3-6.6-1-2.6-3.9-4-6.6-3Z"/>
      <path class="cls-1" d="M1240.4,1476.9c-1-4.2-5.3-6.7-9.4-5.7-4.2,1-6.7,5.3-5.7,9.4,1,4.2,5.3,6.7,9.4,5.7,4.2-1,6.7-5.3,5.7-9.4Z"/>
      <path class="cls-1" d="M686,593.3c2.9-2.3,3.4-6.6,1.1-9.5-2.3-2.9-6.6-3.4-9.5-1.1-2.9,2.3-3.4,6.6-1.1,9.5,2.3,2.9,6.6,3.4,9.5,1.1Z"/>
      <path class="cls-1" d="M410.7,631.2c-4.1,4.9-3.5,12.3,1.5,16.4,4.9,4.1,12.3,3.5,16.4-1.5,4.1-4.9,3.5-12.3-1.5-16.4-4.9-4.1-12.3-3.5-16.4,1.5Z"/>
      <path class="cls-1" d="M1311.3,390.6c2.3,1.6,5.4,1,7-1.2,1.6-2.3,1-5.4-1.2-7-2.3-1.6-5.4-1-7,1.2-1.6,2.3-1,5.4,1.2,7Z"/>
      <path class="cls-1" d="M1010,312.4c5.3-4.5,6-12.5,1.5-17.8s-12.5-6-17.8-1.5-6,12.5-1.5,17.8,12.5,6,17.8,1.5Z"/>
      <path class="cls-1" d="M675.7,502.1c-1.6-2.7-5.2-3.6-7.9-2s-3.6,5.2-2,7.9,5.2,3.6,7.9,2,3.6-5.2,2-7.9h0Z"/>
      <path class="cls-1" d="M551,463.1c-1.6-2.7-5.2-3.6-7.9-2s-3.6,5.2-2,7.9c1.6,2.7,5.2,3.6,7.9,2s3.6-5.2,2-7.9Z"/>
      <path class="cls-1" d="M859.4,1435.4c2.7,4.7,8.7,6.4,13.4,3.8,4.7-2.7,6.4-8.7,3.8-13.4-2.7-4.7-8.7-6.4-13.4-3.8-4.7,2.7-6.4,8.7-3.8,13.4Z"/>
      <path class="cls-1" d="M908,1548c2.5,3.4,7.2,4.1,10.5,1.6,3.4-2.5,4.1-7.2,1.6-10.5-2.5-3.4-7.2-4.1-10.5-1.6-3.4,2.5-4.1,7.2-1.6,10.5Z"/>
      <path class="cls-1" d="M943.1,347.9c-6.5,5.4-7.4,15-2,21.4,5.4,6.5,15,7.4,21.4,2,6.5-5.4,7.4-15,2-21.4-5.4-6.5-15-7.4-21.4-2Z"/>
      <path class="cls-1" d="M640.1,415.2c3.4-6.4,1.1-14.3-5.3-17.7-6.4-3.4-14.3-1.1-17.7,5.3s-1.1,14.3,5.3,17.7c6.4,3.4,14.3,1.1,17.7-5.3Z"/>
      <path class="cls-1" d="M473.7,519.8c2,1.5,4.9,1.1,6.5-.9,1.5-2,1.1-4.9-.9-6.5-2-1.5-4.9-1.1-6.5.9-1.5,2-1.1,4.9.9,6.5Z"/>
      <polygon class="cls-1" points="1371 448.4 1366.6 439.5 1371.4 430.8 1361.5 432.3 1354.7 425.1 1353.1 434.9 1344.1 439.1 1352.9 443.7 1354.2 453.5 1361.3 446.6 1371 448.4"/>
    </g>
    <g>
      <path class="cls-1" d="M938.1,1321.7l-21.9,22.4h24.2l-2.1,10.2h-38.7l2.1-10.2,28.4-28.9c3.8-3.9,5.5-6.3,5.5-10.2s-2.3-6.6-6.3-6.6-8,2.2-9.5,8.6h-11.5c2.2-12.5,10.2-18.8,22.2-18.8s16.6,5.9,16.6,16.3-5,13.2-8.9,17.2h0Z"/>
      <path class="cls-1" d="M992.3,1324.3l-6,30h-11.4l5.9-29.2c.2-1.1.4-2.2.4-3.1,0-4.1-2.8-6-5.7-6s-8.3,1.7-9.8,9.2l-5.9,29.1h-11.4l9.6-48h11l-.8,4.6c3-3.3,7.7-5.2,12.6-5.2s12.3,3.8,12.3,13.3-.3,3.8-.6,5.3h-.2Z"/>
      <path class="cls-1" d="M1035,1354.3h-11.1l1-4.6c-3.2,3.7-7.4,5.2-11.9,5.2-10.1,0-13-7.4-13-13.5s.6-6.9,1.5-11.2c1.9-9.9,4-16.1,7.7-19.8,3.7-3.7,7.8-4.7,12.2-4.7s8.5,1.5,10.9,5.2l4.4-22.2h11.4l-13.1,65.6h0ZM1023.7,1316c-6.8,0-8.9,5.5-10.7,14.3-.5,2.5-1,5.7-1,7.7s.7,6.6,5.7,6.6,8.9-5.6,10.7-14.4c.5-2.5,1-5.7,1-7.7s-.7-6.5-5.7-6.5Z"/>
      <path class="cls-1" d="M1104.9,1354.3l-1.4-12h-22.2l-6.2,12h-13l35.8-65.6h9.7l9.7,65.6h-12.4ZM1099.5,1307.1l-13.2,25.3h16.3l-3.1-25.3h0Z"/>
      <path class="cls-1" d="M1167.9,1324.3l-6,30h-11.4l5.9-29.2c.2-1.1.4-2.2.4-3.1,0-4.1-2.8-6-5.7-6s-8.3,1.7-9.8,9.2l-5.9,29.1h-11.4l9.6-48h11l-.8,4.6c3-3.3,7.7-5.2,12.6-5.2s12.3,3.8,12.3,13.3-.3,3.8-.6,5.3h-.2Z"/>
      <path class="cls-1" d="M1218.1,1324.3l-6,30h-11.4l5.9-29.2c.2-1.1.4-2.2.4-3.1,0-4.1-2.8-6-5.7-6s-8.3,1.7-9.8,9.2l-5.9,29.1h-11.4l9.6-48h11l-.8,4.6c3-3.3,7.7-5.2,12.6-5.2s12.3,3.8,12.3,13.3-.3,3.8-.6,5.3h-.2Z"/>
      <path class="cls-1" d="M1235.8,1354.3h-11.4l9.3-46.6h11.4l-9.3,46.6ZM1247,1298.3h-11.7l1.8-9.5h11.8l-1.9,9.5h0Z"/>
      <path class="cls-1" d="M1268.3,1354.3h-9l-7.2-48h11.3l3.4,31,15.5-31h12.3l-26.3,48h0Z"/>
      <path class="cls-1" d="M1333.9,1333.8h-28.8c-.2,1.1-.4,2.3-.4,3.4,0,4.7,2.7,8,8.2,8s8.1-1.7,11.4-4.9l6,7.6c-5,4.6-11.5,7-18.7,7s-17.8-4.2-17.8-16.9,7.8-32.3,24.4-32.3,17.1,6.7,17.1,17.1-.6,7.2-1.5,10.9h.1ZM1317.6,1315.1c-4.9,0-8.9,3.1-11.1,11h17.6c.2-1,.3-2.2.3-3.2,0-5.1-2.8-7.7-6.8-7.7h0Z"/>
      <path class="cls-1" d="M1372.6,1319c-1.2-1.6-2.8-2.9-5.3-2.9-4.5,0-8.6,3.7-9.7,9.2l-5.8,29h-11.4l9.6-48h11.1l-1,4.7c2.7-3.2,7.2-5.3,12.2-5.3s7.7,1.5,10.2,4.5l-9.9,8.8h0Z"/>
      <path class="cls-1" d="M1412,1318.5c-2.2-2.3-5.7-3.4-9.1-3.4-5.8,0-8.4,2.9-8.4,5.8s1.5,3.1,4.4,3.6l6.2,1c8.6,1.4,11.6,5.8,11.6,12.4s-2,8.6-5.2,11.6c-3.9,3.8-10.5,5.3-16.7,5.3s-14.3-2.6-18.5-7.2l8.2-7.2c2.4,2.8,5.6,4.6,11.1,4.6s9.8-3.1,9.8-6-1.8-3.5-4.5-4l-6.3-1c-8.8-1.5-11.5-6.4-11.5-10.9s1.7-8.8,4.9-12,9.1-5.5,15.9-5.5,11.8,1.7,16,5.9l-7.8,6.9h0Z"/>
      <path class="cls-1" d="M1464.1,1323.3l-6.3,31h-11l.8-4.2c-2.7,2.7-6.4,4.7-11.6,4.7-8.4,0-13.7-5.3-13.7-12.6s1.6-8.6,4.3-11.3c3.6-3.5,8.5-5,14-5h11.4l.6-2.9c.2-.9.3-1.6.3-2.5,0-3.2-2.3-5.2-7.1-5.2s-7.9,1.8-10.3,4.5l-5.9-7.7c3.9-4,8.9-6.5,17.8-6.5s17.1,3.1,17.1,13.4-.2,3-.5,4.2h0ZM1441.7,1333.7c-5.2,0-8.2,3.1-8.2,7.4s1.9,4.5,6.1,4.5,5.7-1.2,7.5-3,2.4-3.7,2.9-6.1l.6-2.9h-8.9Z"/>
      <path class="cls-1" d="M1502,1319c-1.2-1.6-2.8-2.9-5.3-2.9-4.5,0-8.6,3.7-9.7,9.2l-5.8,29h-11.4l9.6-48h11.1l-1,4.7c2.7-3.2,7.2-5.3,12.2-5.3s7.7,1.5,10.2,4.5l-9.9,8.8h0Z"/>
      <path class="cls-1" d="M1525.8,1362.1c-1.1,2.1-2.5,4.1-4,5.6-3,3-6.6,4.2-11.4,4.2h-4.4l2.1-10.3h2.6c3.3,0,4.8-1.6,6.5-5l3-5.7-6.8-44.6h11.3l3.5,31,15.4-31h12.1l-30,55.8h.1Z"/>
    </g>
  </g>
  <g>
    <g>
      <path class="cls-4" d="M385.2,716.8h444.3c11.6,0,21.1,9.4,21.1,21.1v444.3c0,11.6-9.4,21.1-21.1,21.1h-444.3c-11.6,0-21.1-9.4-21.1-21.1v-444.4c.1-11.6,9.5-21,21.1-21h0Z"/>
      <path class="cls-5" d="M850.3,955.6v226.6c0,11.6-9.4,21.1-21.1,21.1h-216l-190.1-190.3h48.1v2.2l.4,4.7,1.1,4.5,1.8,4.2,2.3,3.6,3,3.5,3.3,2.8,3.9,2.4,4.3,1.9,4.4,1,4.8.4,4.8-.4,4.5-1,4.1-1.9,3.9-2.4,3.4-2.8,3-3.5,2.4-3.6,1.8-4.2,1.1-4.5.4-4.7v-2.2h132.2v2.1l.4,4.7,1.1,4.5,1.8,4.1,2.4,3.8,2.9,3.5,3.3,2.9,3.8,2.3,4.3,1.8,4.5,1.2,4.8.4,4.8-.4,4.5-1.2,4.2-1.8,3.9-2.3,3.4-2.9,2.9-3.5,2.4-3.8,1.9-4.1,1-4.5.4-4.7v-2.1h71.1v-101.4l-.4-5.2-1.2-5.1-1.7-4.7-2.6-4.5-3.1-3.9,67.4,67.4h0Z"/>
      <path class="cls-3" d="M791.4,906.4l-1.2-5.1-1.7-4.7-2.6-4.5-3.1-3.9-3.6-3.5-4.1-3.2-4.3-2.4-4.9-1.8-5.1-1.2-5.4-.4h-310.3l-2.1.4-1.8.6-1.6,1.4-1.1,1.4-.8,1.8-14.7,73.5v58.2h48.2v2.2l.4,4.7,1.1,4.5,1.8,4.2,2.3,3.6,3,3.5,3.3,2.8,3.9,2.4,4.3,1.9,4.4,1,4.8.4,4.8-.4,4.5-1,4.1-1.9,3.9-2.4,3.4-2.8,3-3.5,2.4-3.6,1.8-4.2,1.1-4.5.4-4.7v-2.2h132.2v2.1l.4,4.7,1.1,4.5,1.8,4.1,2.4,3.8,2.9,3.5,3.3,2.9,3.8,2.3,4.3,1.8,4.5,1.2,4.8.4,4.8-.4,4.5-1.2,4.2-1.8,3.9-2.3,3.4-2.9,2.9-3.5,2.4-3.8,1.9-4.1,1-4.5.4-4.7v-2.1h71.1v-101.4l-.5-5.2h0ZM475.2,986.6h-35.8v-30l13.8-64.6h22v94.6ZM550.3,941.7h-59.1v-49.7h59.1v49.7ZM625.5,941.7h-59.1v-49.7h59.1v49.7ZM700.5,941.7h-59v-49.7h59v49.7ZM775.4,941.6h-58.7v-49.6h38.8l4.1.4,3.7,1.1,3.3,1.9,2.9,2.4,2.5,2.8,1.8,3.4,1.1,3.7.4,3.9v30h.1Z"/>
    </g>
    <g>
      <path class="cls-4" d="M944.7,808.2h-37v-91.5h35.6c17,0,27.6,9.6,27.6,25s-6.2,17-12.3,19.4c7.1,2.8,13.8,9.6,13.8,21.2,0,17-11.5,25.9-27.7,25.9h0ZM942.1,729.2h-20.6v26.2h20.6c8.9,0,14.9-4.6,14.9-13.1s-6-13.1-14.9-13.1h0ZM943.4,767.9h-21.8v27.9h21.8c9.6,0,15-5.9,15-14s-5.4-13.9-15-13.9Z"/>
      <path class="cls-4" d="M1029.2,808.2v-6.5c-4.5,4.9-10.8,7.3-17.3,7.3s-12.2-2.2-16.1-5.9c-5-4.9-6.5-11-6.5-18.4v-41.6h13.1v39.7c0,10.2,5.8,14.5,13.1,14.5s13.5-4.5,13.5-14.5v-39.7h13.1v65.1h-12.9Z"/>
      <path class="cls-4" d="M1083.5,809c-10.7,0-19.7-1.8-27.4-9.4l8.6-8.6c5.3,5.4,12.3,6.8,18.8,6.8s14.3-2.8,14.3-9-2.4-7.1-8.7-7.7l-10.4-.9c-12.3-1.2-19.3-6.5-19.3-18s10.9-19.9,24.5-19.9,18.1,2,24.2,7.3l-8.2,8.3c-4.1-3.5-9.9-4.8-16.1-4.8s-11.8,3.3-11.8,8.3,2.6,6.8,9,7.5l9.1.8c13.5,1.2,20.6,7.1,20.6,18.5s-11.6,20.8-27.2,20.8h0Z"/>
      <path class="cls-4" d="M907.7,932.3v-91.5h13.9v91.5h-13.9Z"/>
      <path class="cls-4" d="M981.8,932.3v-39.7c0-10.2-5.8-14.5-13.1-14.5s-13.5,4.5-13.5,14.5v39.7h-13.1v-65.1h12.9v6.5c4.5-4.9,10.8-7.3,17.3-7.3s12.2,2.2,16.1,5.9c5,4.9,6.5,11,6.5,18.4v41.6h-13.1Z"/>
      <path class="cls-4" d="M1028.6,877.2v55.1h-13.1v-55.1h-7.5v-10h7.5v-8.9c0-9.4,5.7-18.1,17.9-18.1h8.2v11.2h-5.8c-4.9,0-7.2,2.8-7.2,7.6v8.2h13v10h-13Z"/>
      <path class="cls-4" d="M1098.3,925.4c-4.2,4.4-10.7,7.7-19.5,7.7s-15.2-3.3-19.4-7.7c-6.2-6.4-7.7-14.7-7.7-25.7s1.5-19.1,7.7-25.6c4.2-4.4,10.5-7.7,19.4-7.7s15.3,3.3,19.5,7.7c6.2,6.4,7.7,14.6,7.7,25.6s-1.5,19.3-7.7,25.7ZM1088.4,881.8c-2.4-2.4-5.8-3.7-9.6-3.7s-7.1,1.3-9.5,3.7c-4,4-4.5,10.8-4.5,17.9s.5,13.9,4.5,17.9,5.7,3.8,9.5,3.8,7.2-1.4,9.6-3.8c4-4,4.5-10.8,4.5-17.9s-.5-13.9-4.5-17.9Z"/>
      <path class="cls-4" d="M1158.8,882.5c-2.9-3-5.3-4.4-9.8-4.4-7.1,0-13,5.7-13,14.7v39.6h-13.1v-65.1h12.8v7.1c3.3-4.6,10-7.8,17.3-7.8s11.1,1.7,15.5,6.2l-9.7,9.7h0Z"/>
      <path class="cls-4" d="M1260.2,932.3v-39.7c0-10.2-5.8-14.5-13.1-14.5s-13.5,4.5-13.5,13.9v40.3h-13.1v-39.7c0-10.2-5.8-14.5-13.1-14.5s-13.5,4.5-13.5,14.5v39.7h-13.1v-65.1h12.8v6.5c4.4-4.8,10.8-7.3,17.3-7.3s14.4,3.2,18.5,9.5c5.3-6.4,11.8-9.5,20.4-9.5s12.6,2.2,16.4,5.9c5,4.9,6.9,11,6.9,18.4v41.6h-12.9Z"/>
      <path class="cls-4" d="M1327.9,932.3v-5.9c-4.8,4.8-9.2,6.7-17.3,6.7s-13.5-1.9-17.5-5.9c-3.3-3.5-5.1-8.5-5.1-14,0-10.9,7.6-18.8,22.6-18.8h17.1v-4.6c0-8.3-4-12.2-14.3-12.2s-10.5,1.8-14.3,6.4l-8.5-8.1c6-7.2,12.3-9.5,23.2-9.5,18,0,26.8,7.7,26.8,22.3v43.5h-12.7,0ZM1327.6,903.5h-15c-8,0-11.9,3.3-11.9,9.4s3.7,9.2,12.3,9.2,8.3-.5,11.8-3.7c2.1-1.9,2.8-5,2.8-9.6v-5.3h0Z"/>
      <path class="cls-4" d="M1379.1,932.3c-12.2,0-17.9-8.7-17.9-18.1v-37h-7.4v-10h7.4v-18.6h13.1v18.6h12.6v10h-12.6v36.4c0,4.8,2.3,7.6,7.2,7.6h5.4v11.2h-7.8,0Z"/>
      <path class="cls-4" d="M1401.7,854.3v-13.9h13.9v13.9h-13.9ZM1402,932.3v-65.1h13.1v65.1h-13.1Z"/>
      <path class="cls-4" d="M1478.4,925.4c-4.2,4.4-10.7,7.7-19.5,7.7s-15.2-3.3-19.4-7.7c-6.2-6.4-7.7-14.7-7.7-25.7s1.5-19.1,7.7-25.6c4.2-4.4,10.5-7.7,19.4-7.7s15.3,3.3,19.5,7.7c6.2,6.4,7.7,14.6,7.7,25.6s-1.5,19.3-7.7,25.7ZM1468.5,881.8c-2.4-2.4-5.8-3.7-9.6-3.7s-7.1,1.3-9.5,3.7c-4,4-4.5,10.8-4.5,17.9s.5,13.9,4.5,17.9,5.7,3.8,9.5,3.8,7.2-1.4,9.6-3.8c4-4,4.5-10.8,4.5-17.9s-.5-13.9-4.5-17.9Z"/>
      <path class="cls-4" d="M1542.7,932.3v-39.7c0-10.2-5.8-14.5-13.1-14.5s-13.5,4.5-13.5,14.5v39.7h-13.1v-65.1h12.8v6.5c4.5-4.9,10.8-7.3,17.3-7.3s12.2,2.2,16.1,5.9c5,4.9,6.6,11,6.6,18.4v41.6h-13.1Z"/>
      <path class="cls-4" d="M944.7,1054.9h-37v-91.5h35.6c17,0,27.6,9.6,27.6,25s-6.2,17-12.3,19.4c7.1,2.8,13.8,9.6,13.8,21.2,0,16.9-11.5,25.8-27.7,25.9h0ZM942.1,975.8h-20.6v26.2h20.6c8.9,0,14.9-4.6,14.9-13.1s-6-13-14.9-13.1h0ZM943.4,1014.5h-21.8v27.9h21.8c9.6,0,15-5.9,15-14s-5.4-13.9-15-13.9Z"/>
      <path class="cls-4" d="M1034.4,1047.9c-4.2,4.4-10.7,7.7-19.5,7.7s-15.2-3.3-19.4-7.7c-6.2-6.4-7.7-14.7-7.7-25.7s1.5-19.1,7.7-25.6c4.2-4.4,10.5-7.7,19.4-7.7s15.3,3.3,19.5,7.7c6.2,6.4,7.7,14.6,7.7,25.6s-1.6,19.3-7.7,25.7ZM1024.5,1004.4c-2.4-2.4-5.8-3.7-9.6-3.7s-7.1,1.3-9.5,3.7c-4,4-4.5,10.8-4.5,17.9s.5,13.9,4.5,17.9,5.7,3.8,9.5,3.8,7.2-1.4,9.6-3.8c4-4,4.5-10.8,4.5-17.9s-.5-14-4.5-17.9Z"/>
      <path class="cls-4" d="M1095,1054.9v-5.9c-4.8,4.8-9.2,6.7-17.3,6.7s-13.5-1.9-17.5-5.9c-3.3-3.5-5.1-8.5-5.1-14,0-10.9,7.6-18.8,22.6-18.8h17.1v-4.6c0-8.3-4-12.2-14.3-12.2s-10.5,1.8-14.3,6.4l-8.5-8.1c6-7.2,12.3-9.5,23.2-9.5,18,0,26.8,7.7,26.8,22.3v43.5h-12.7,0ZM1094.8,1026.1h-15c-8,0-11.9,3.3-11.9,9.4s3.7,9.2,12.3,9.2,8.3-.5,11.8-3.7c2.1-1.9,2.8-5,2.8-9.6v-5.3h0Z"/>
      <path class="cls-4" d="M1162.8,1005c-2.9-3-5.3-4.4-9.8-4.4-7.1,0-13,5.7-13,14.7v39.6h-13v-65.1h12.8v7.1c3.3-4.6,10-7.8,17.3-7.8s11.1,1.7,15.5,6.2l-9.8,9.7h0Z"/>
      <path class="cls-4" d="M1221.3,1054.9v-6.9c-4.9,5.9-10.2,7.7-17.2,7.7s-12.3-2.2-15.9-5.8c-6.3-6.4-7.3-16.8-7.3-27.6s1-21.1,7.3-27.5c3.6-3.6,9.2-5.8,15.8-5.8s12.3,1.7,17.1,7.3v-32.9h13.1v91.5h-12.9ZM1207.5,1000.7c-11.9,0-13.6,10-13.6,21.6s1.7,21.7,13.6,21.7,13.5-10.2,13.5-21.7-1.7-21.6-13.5-21.6Z"/>
      <path class="cls-4" d="M931.9,1178.2c-13.8,0-23.5-3.2-32.4-12.1l9.1-9.1c6.7,6.7,14.3,8.9,23.5,8.9s18.9-5.1,18.9-14.1-1-7.3-3.6-9.5c-2.3-2.1-5.4-3.2-10-3.8l-10.8-1.5c-7.5-1.2-13.2-3.5-17.2-7.3-4.5-4.1-6.8-10-6.8-17.6,0-15.9,11.6-26.7,30.6-26.7s20.6,3.1,28.4,10.4l-8.7,8.7c-5.7-5.4-12.3-7.1-20.2-7.1s-16.6,5.9-16.6,14.3.9,6.4,3.3,8.5c2.3,2.1,5,3.3,10,4.1l10.9,1.7c8.3,1.3,13,3.2,17,6.8,4.9,4.5,7.5,10.8,7.5,18.8,0,16.6-13.6,26.6-32.9,26.6h0Z"/>
      <path class="cls-4" d="M1000.2,1190.4c-1.3,3.6-2.8,6.2-4.8,8.1-3.6,3.6-8.3,4.8-13.4,4.8h-5.3v-11.8h3.3c5.5,0,7.5-1.7,9.4-6.9l3.6-10.2-22.7-62.1h13.9l15.5,45.9,15.2-45.9h14l-28.7,78.1h0Z"/>
      <path class="cls-4" d="M1061.5,1178.2c-10.7,0-19.7-1.8-27.4-9.4l8.6-8.6c5.3,5.4,12.3,6.8,18.8,6.8s14.3-2.8,14.3-9-2.4-7.1-8.7-7.7l-10.4-.9c-12.3-1.2-19.3-6.6-19.3-18s10.9-19.9,24.5-19.9,18.1,2.1,24.2,7.3l-8.2,8.3c-4.1-3.5-9.9-4.8-16.1-4.8s-11.8,3.3-11.8,8.3,2.6,6.8,9,7.4l9.1.8c13.5,1.2,20.6,7.1,20.6,18.5s-11.7,20.9-27.2,20.9h0Z"/>
      <path class="cls-4" d="M1124.5,1177.4c-12.2,0-17.9-8.7-17.9-18.1v-37h-7.4v-10h7.4v-18.6h13.1v18.6h12.6v10h-12.6v36.4c0,4.8,2.3,7.6,7.2,7.6h5.4v11.2h-7.8,0Z"/>
      <path class="cls-4" d="M1156.6,1148.6c0,11.3,5.8,18.2,16.6,18.2s11.2-2.1,15.8-6.7l8.3,7.8c-6.7,6.7-13,10.2-24.4,10.2-16.3,0-29.3-8.6-29.3-33.4s10.9-33.3,27.6-33.3,27.6,12.6,27.6,31.6v5.5h-42.2ZM1184.1,1130.6c-2.2-4.9-6.7-8.2-12.8-8.2s-10.8,3.3-13,8.2c-1.3,2.8-1.5,4.9-1.7,8.9h29.3c-.2-4-.5-6.1-1.8-8.9Z"/>
      <path class="cls-4" d="M1294.7,1177.4v-39.7c0-10.2-5.8-14.5-13.1-14.5s-13.5,4.5-13.5,13.9v40.3h-13.1v-39.7c0-10.2-5.8-14.5-13.1-14.5s-13.5,4.5-13.5,14.5v39.7h-13.1v-65.1h12.8v6.6c4.4-4.8,10.8-7.3,17.3-7.3s14.4,3.2,18.5,9.5c5.3-6.4,11.8-9.5,20.4-9.5s12.6,2.2,16.4,5.9c5,4.9,6.9,11.1,6.9,18.4v41.6h-12.9Z"/>
    </g>
  </g>
</svg>