<?xml version="1.0" encoding="UTF-8"?>
<svg id="_レイヤー_1" data-name=" レイヤー 1" xmlns="http://www.w3.org/2000/svg" xmlns:xlink="http://www.w3.org/1999/xlink" version="1.1" viewBox="0 0 1920 1920">
  <defs>
    <style>
      .cls-1 {
        fill: #dcdddd;
      }

      .cls-1, .cls-2, .cls-3, .cls-4, .cls-5, .cls-6, .cls-7, .cls-8, .cls-9, .cls-10, .cls-11, .cls-12, .cls-13, .cls-14, .cls-15, .cls-16, .cls-17, .cls-18, .cls-19, .cls-20, .cls-21, .cls-22, .cls-23, .cls-24, .cls-25, .cls-26, .cls-27, .cls-28, .cls-29, .cls-30, .cls-31, .cls-32, .cls-33, .cls-34, .cls-35, .cls-36, .cls-37, .cls-38, .cls-39, .cls-40, .cls-41, .cls-42, .cls-43, .cls-44, .cls-45, .cls-46, .cls-47, .cls-48, .cls-49, .cls-50, .cls-51, .cls-52, .cls-53, .cls-54, .cls-55, .cls-56, .cls-57, .cls-58, .cls-59, .cls-60, .cls-61, .cls-62, .cls-63, .cls-64, .cls-65, .cls-66, .cls-67, .cls-68, .cls-69, .cls-70, .cls-71, .cls-72, .cls-73, .cls-74, .cls-75, .cls-76, .cls-77, .cls-78, .cls-79, .cls-80, .cls-81, .cls-82, .cls-83, .cls-84, .cls-85, .cls-86, .cls-87, .cls-88, .cls-89, .cls-90, .cls-91, .cls-92, .cls-93, .cls-94, .cls-95, .cls-96, .cls-97, .cls-98, .cls-99 {
        stroke-width: 0px;
      }

      .cls-2 {
        fill: url(#linear-gradient);
      }

      .cls-3 {
        fill: url(#linear-gradient-38);
      }

      .cls-4 {
        fill: url(#linear-gradient-33);
      }

      .cls-5 {
        fill: url(#linear-gradient-29);
      }

      .cls-6 {
        fill: url(#linear-gradient-32);
      }

      .cls-7 {
        fill: url(#linear-gradient-30);
      }

      .cls-8 {
        fill: url(#linear-gradient-31);
      }

      .cls-9 {
        fill: url(#linear-gradient-36);
      }

      .cls-10 {
        fill: url(#linear-gradient-39);
      }

      .cls-11 {
        fill: url(#linear-gradient-34);
      }

      .cls-12 {
        fill: url(#linear-gradient-37);
      }

      .cls-13 {
        fill: url(#linear-gradient-35);
      }

      .cls-14 {
        fill: url(#linear-gradient-28);
      }

      .cls-15 {
        fill: url(#linear-gradient-25);
      }

      .cls-16 {
        fill: url(#linear-gradient-11);
      }

      .cls-17 {
        fill: url(#linear-gradient-12);
      }

      .cls-18 {
        fill: url(#linear-gradient-13);
      }

      .cls-19 {
        fill: url(#linear-gradient-10);
      }

      .cls-20 {
        fill: url(#linear-gradient-17);
      }

      .cls-21 {
        fill: url(#linear-gradient-16);
      }

      .cls-22 {
        fill: url(#linear-gradient-19);
      }

      .cls-23 {
        fill: url(#linear-gradient-15);
      }

      .cls-24 {
        fill: url(#linear-gradient-23);
      }

      .cls-25 {
        fill: url(#linear-gradient-21);
      }

      .cls-26 {
        fill: url(#linear-gradient-18);
      }

      .cls-27 {
        fill: url(#linear-gradient-14);
      }

      .cls-28 {
        fill: url(#linear-gradient-22);
      }

      .cls-29 {
        fill: url(#linear-gradient-20);
      }

      .cls-30 {
        fill: url(#linear-gradient-27);
      }

      .cls-31 {
        fill: url(#linear-gradient-24);
      }

      .cls-32 {
        fill: url(#linear-gradient-26);
      }

      .cls-33 {
        fill: url(#linear-gradient-45);
      }

      .cls-34 {
        fill: url(#linear-gradient-46);
      }

      .cls-35 {
        fill: url(#linear-gradient-44);
      }

      .cls-36 {
        fill: url(#linear-gradient-48);
      }

      .cls-37 {
        fill: url(#linear-gradient-49);
      }

      .cls-38 {
        fill: url(#linear-gradient-47);
      }

      .cls-39 {
        fill: url(#linear-gradient-42);
      }

      .cls-40 {
        fill: url(#linear-gradient-43);
      }

      .cls-41 {
        fill: url(#linear-gradient-40);
      }

      .cls-42 {
        fill: url(#linear-gradient-41);
      }

      .cls-43 {
        fill: url(#linear-gradient-59);
      }

      .cls-44 {
        fill: url(#linear-gradient-57);
      }

      .cls-45 {
        fill: url(#linear-gradient-58);
      }

      .cls-46 {
        fill: url(#linear-gradient-55);
      }

      .cls-47 {
        fill: url(#linear-gradient-56);
      }

      .cls-48 {
        fill: url(#linear-gradient-53);
      }

      .cls-49 {
        fill: url(#linear-gradient-51);
      }

      .cls-50 {
        fill: url(#linear-gradient-52);
      }

      .cls-51 {
        fill: url(#linear-gradient-50);
      }

      .cls-52 {
        fill: url(#linear-gradient-54);
      }

      .cls-53 {
        fill: url(#linear-gradient-60);
      }

      .cls-54 {
        fill: url(#linear-gradient-61);
      }

      .cls-55 {
        fill: url(#linear-gradient-62);
      }

      .cls-56 {
        fill: url(#linear-gradient-65);
      }

      .cls-57 {
        fill: url(#linear-gradient-79);
      }

      .cls-58 {
        fill: url(#linear-gradient-78);
      }

      .cls-59 {
        fill: url(#linear-gradient-77);
      }

      .cls-60 {
        fill: url(#linear-gradient-75);
      }

      .cls-61 {
        fill: url(#linear-gradient-76);
      }

      .cls-62 {
        fill: url(#linear-gradient-74);
      }

      .cls-63 {
        fill: url(#linear-gradient-67);
      }

      .cls-64 {
        fill: url(#linear-gradient-68);
      }

      .cls-65 {
        fill: url(#linear-gradient-66);
      }

      .cls-66 {
        fill: url(#linear-gradient-63);
      }

      .cls-67 {
        fill: url(#linear-gradient-69);
      }

      .cls-68 {
        fill: url(#linear-gradient-64);
      }

      .cls-69 {
        fill: url(#linear-gradient-71);
      }

      .cls-70 {
        fill: url(#linear-gradient-72);
      }

      .cls-71 {
        fill: url(#linear-gradient-70);
      }

      .cls-72 {
        fill: url(#linear-gradient-73);
      }

      .cls-73 {
        fill: url(#linear-gradient-84);
      }

      .cls-74 {
        fill: url(#linear-gradient-85);
      }

      .cls-75 {
        fill: url(#linear-gradient-82);
      }

      .cls-76 {
        fill: url(#linear-gradient-83);
      }

      .cls-77 {
        fill: url(#linear-gradient-89);
      }

      .cls-78 {
        fill: url(#linear-gradient-88);
      }

      .cls-79 {
        fill: url(#linear-gradient-86);
      }

      .cls-80 {
        fill: url(#linear-gradient-87);
      }

      .cls-81 {
        fill: url(#linear-gradient-80);
      }

      .cls-82 {
        fill: url(#linear-gradient-81);
      }

      .cls-83 {
        fill: url(#linear-gradient-91);
      }

      .cls-84 {
        fill: url(#linear-gradient-92);
      }

      .cls-85 {
        fill: url(#linear-gradient-93);
      }

      .cls-86 {
        fill: url(#linear-gradient-90);
      }

      .cls-87 {
        fill: url(#linear-gradient-94);
      }

      .cls-88 {
        fill: url(#linear-gradient-95);
      }

      .cls-89 {
        fill: #001545;
      }

      .cls-90 {
        fill: url(#linear-gradient-4);
      }

      .cls-91 {
        fill: url(#linear-gradient-2);
      }

      .cls-92 {
        fill: url(#linear-gradient-3);
      }

      .cls-93 {
        fill: url(#linear-gradient-8);
      }

      .cls-94 {
        fill: url(#linear-gradient-9);
      }

      .cls-95 {
        fill: url(#linear-gradient-7);
      }

      .cls-96 {
        fill: url(#linear-gradient-5);
      }

      .cls-97 {
        fill: url(#linear-gradient-6);
      }

      .cls-98 {
        fill: #fff;
      }

      .cls-99 {
        fill: #e5e5e5;
      }
    </style>
    <linearGradient id="linear-gradient" x1="1615.9" y1="702.1" x2="372.4" y2="1483.8" gradientUnits="userSpaceOnUse">
      <stop offset="0" stop-color="#fff3a6"/>
      <stop offset=".1" stop-color="#f9df7b"/>
      <stop offset=".2" stop-color="#f4d874"/>
      <stop offset=".3" stop-color="#d9b149"/>
      <stop offset=".4" stop-color="#c59529"/>
      <stop offset=".6" stop-color="#b98416"/>
      <stop offset=".6" stop-color="#b57e10"/>
      <stop offset=".8" stop-color="#e5c25b"/>
      <stop offset=".8" stop-color="#f9df7b"/>
      <stop offset=".9" stop-color="#f5da75"/>
      <stop offset=".9" stop-color="#eccc66"/>
      <stop offset=".9" stop-color="#dcb64d"/>
      <stop offset="1" stop-color="#c6962b"/>
      <stop offset="1" stop-color="#b57e10"/>
    </linearGradient>
    <linearGradient id="linear-gradient-2" x1="1384.4" y1="333.8" x2="140.9" y2="1115.6" xlink:href="#linear-gradient"/>
    <linearGradient id="linear-gradient-3" x1="1320.2" y1="231.7" x2="76.7" y2="1013.4" xlink:href="#linear-gradient"/>
    <linearGradient id="linear-gradient-4" x1="1419.9" y1="390.3" x2="176.4" y2="1172.1" xlink:href="#linear-gradient"/>
    <linearGradient id="linear-gradient-5" x1="1376.6" y1="321.3" x2="133.1" y2="1103.1" xlink:href="#linear-gradient"/>
    <linearGradient id="linear-gradient-6" x1="1704.3" y1="842.6" x2="460.8" y2="1624.4" xlink:href="#linear-gradient"/>
    <linearGradient id="linear-gradient-7" x1="1244.1" y1="110.6" x2=".6" y2="892.4" xlink:href="#linear-gradient"/>
    <linearGradient id="linear-gradient-8" x1="1284.6" y1="175" x2="41.1" y2="956.8" xlink:href="#linear-gradient"/>
    <linearGradient id="linear-gradient-9" x1="1678.7" y1="801.9" x2="435.1" y2="1583.6" xlink:href="#linear-gradient"/>
    <linearGradient id="linear-gradient-10" x1="1676.3" y1="798.1" x2="432.8" y2="1579.9" xlink:href="#linear-gradient"/>
    <linearGradient id="linear-gradient-11" x1="1237.5" y1="100.1" x2="-6.1" y2="881.8" xlink:href="#linear-gradient"/>
    <linearGradient id="linear-gradient-12" x1="1530.3" y1="565.9" x2="286.8" y2="1347.7" xlink:href="#linear-gradient"/>
    <linearGradient id="linear-gradient-13" x1="1210.9" y1="57.7" x2="-32.7" y2="839.5" xlink:href="#linear-gradient"/>
    <linearGradient id="linear-gradient-14" x1="1483.2" y1="491" x2="239.7" y2="1272.8" xlink:href="#linear-gradient"/>
    <linearGradient id="linear-gradient-15" x1="1233.3" y1="93.3" x2="-10.3" y2="875.1" xlink:href="#linear-gradient"/>
    <linearGradient id="linear-gradient-16" x1="1846.8" y1="1069.3" x2="603.2" y2="1851" xlink:href="#linear-gradient"/>
    <linearGradient id="linear-gradient-17" x1="1580.9" y1="646.3" x2="337.3" y2="1428.1" xlink:href="#linear-gradient"/>
    <linearGradient id="linear-gradient-18" x1="1308.1" y1="212.3" x2="64.5" y2="994.1" xlink:href="#linear-gradient"/>
    <linearGradient id="linear-gradient-19" x1="1336.7" y1="257.9" x2="93.2" y2="1039.6" xlink:href="#linear-gradient"/>
    <linearGradient id="linear-gradient-20" x1="1348.2" y1="276.3" x2="104.7" y2="1058" xlink:href="#linear-gradient"/>
    <linearGradient id="linear-gradient-21" x1="1288.5" y1="181.2" x2="44.9" y2="962.9" xlink:href="#linear-gradient"/>
    <linearGradient id="linear-gradient-22" x1="1380.7" y1="327.9" x2="137.2" y2="1109.6" xlink:href="#linear-gradient"/>
    <linearGradient id="linear-gradient-23" x1="1351.4" y1="281.2" x2="107.8" y2="1063" xlink:href="#linear-gradient"/>
    <linearGradient id="linear-gradient-24" x1="1268.7" y1="149.8" x2="25.2" y2="931.6" xlink:href="#linear-gradient"/>
    <linearGradient id="linear-gradient-25" x1="1291.5" y1="186" x2="48" y2="967.8" xlink:href="#linear-gradient"/>
    <linearGradient id="linear-gradient-26" x1="1574" y1="635.3" x2="330.4" y2="1417.1" xlink:href="#linear-gradient"/>
    <linearGradient id="linear-gradient-27" x1="1317.8" y1="227.8" x2="74.3" y2="1009.6" xlink:href="#linear-gradient"/>
    <linearGradient id="linear-gradient-28" x1="1234" y1="94.5" x2="-9.6" y2="876.3" xlink:href="#linear-gradient"/>
    <linearGradient id="linear-gradient-29" x1="1298.3" y1="196.9" x2="54.8" y2="978.6" xlink:href="#linear-gradient"/>
    <linearGradient id="linear-gradient-30" x1="1301.7" y1="202.2" x2="58.2" y2="984" xlink:href="#linear-gradient"/>
    <linearGradient id="linear-gradient-31" x1="1252" y1="123.2" x2="8.5" y2="904.9" xlink:href="#linear-gradient"/>
    <linearGradient id="linear-gradient-32" x1="1831.5" y1="1044.9" x2="587.9" y2="1826.7" xlink:href="#linear-gradient"/>
    <linearGradient id="linear-gradient-33" x1="1294.6" y1="190.9" x2="51" y2="972.6" xlink:href="#linear-gradient"/>
    <linearGradient id="linear-gradient-34" x1="1347.2" y1="274.6" x2="103.6" y2="1056.3" xlink:href="#linear-gradient"/>
    <linearGradient id="linear-gradient-35" x1="1703.8" y1="841.9" x2="460.3" y2="1623.6" xlink:href="#linear-gradient"/>
    <linearGradient id="linear-gradient-36" x1="1603.2" y1="681.8" x2="359.7" y2="1463.6" xlink:href="#linear-gradient"/>
    <linearGradient id="linear-gradient-37" x1="1629.5" y1="723.7" x2="386" y2="1505.5" xlink:href="#linear-gradient"/>
    <linearGradient id="linear-gradient-38" x1="1284.3" y1="174.5" x2="40.7" y2="956.3" xlink:href="#linear-gradient"/>
    <linearGradient id="linear-gradient-39" x1="1488.1" y1="498.8" x2="244.6" y2="1280.5" xlink:href="#linear-gradient"/>
    <linearGradient id="linear-gradient-40" x1="1498.4" y1="515.2" x2="254.9" y2="1296.9" xlink:href="#linear-gradient"/>
    <linearGradient id="linear-gradient-41" x1="1303" y1="204.3" x2="59.5" y2="986.1" xlink:href="#linear-gradient"/>
    <linearGradient id="linear-gradient-42" x1="1410.2" y1="374.9" x2="166.7" y2="1156.6" xlink:href="#linear-gradient"/>
    <linearGradient id="linear-gradient-43" x1="1228.3" y1="85.4" x2="-15.3" y2="867.1" xlink:href="#linear-gradient"/>
    <linearGradient id="linear-gradient-44" x1="1250" y1="120" x2="6.5" y2="901.8" xlink:href="#linear-gradient"/>
    <linearGradient id="linear-gradient-45" x1="1211.1" y1="58.2" x2="-32.4" y2="839.9" xlink:href="#linear-gradient"/>
    <linearGradient id="linear-gradient-46" x1="1506.8" y1="528.5" x2="263.2" y2="1310.2" xlink:href="#linear-gradient"/>
    <linearGradient id="linear-gradient-47" x1="1457.5" y1="450" x2="213.9" y2="1231.8" xlink:href="#linear-gradient"/>
    <linearGradient id="linear-gradient-48" x1="1266.1" y1="145.6" x2="22.5" y2="927.3" xlink:href="#linear-gradient"/>
    <linearGradient id="linear-gradient-49" x1="1774.5" y1="954.3" x2="530.9" y2="1736" gradientTransform="translate(1371.9 -120.7) rotate(46.2)" xlink:href="#linear-gradient"/>
    <linearGradient id="linear-gradient-50" x1="1813.6" y1="1016.6" x2="570.1" y2="1798.3" xlink:href="#linear-gradient"/>
    <linearGradient id="linear-gradient-51" x1="1761" y1="932.8" x2="517.4" y2="1714.5" xlink:href="#linear-gradient"/>
    <linearGradient id="linear-gradient-52" x1="1329.6" y1="246.7" x2="86.1" y2="1028.4" xlink:href="#linear-gradient"/>
    <linearGradient id="linear-gradient-53" x1="1795.2" y1="987.2" x2="551.6" y2="1769" xlink:href="#linear-gradient"/>
    <linearGradient id="linear-gradient-54" x1="1766.9" y1="942.2" x2="523.4" y2="1724" xlink:href="#linear-gradient"/>
    <linearGradient id="linear-gradient-55" x1="1652.7" y1="760.5" x2="409.1" y2="1542.3" xlink:href="#linear-gradient"/>
    <linearGradient id="linear-gradient-56" x1="1350.3" y1="279.5" x2="106.8" y2="1061.3" xlink:href="#linear-gradient"/>
    <linearGradient id="linear-gradient-57" x1="1433.2" y1="411.5" x2="189.7" y2="1193.2" xlink:href="#linear-gradient"/>
    <linearGradient id="linear-gradient-58" x1="1550.9" y1="598.7" x2="307.4" y2="1380.5" xlink:href="#linear-gradient"/>
    <linearGradient id="linear-gradient-59" x1="1432.5" y1="410.2" x2="188.9" y2="1192" xlink:href="#linear-gradient"/>
    <linearGradient id="linear-gradient-60" x1="1313.3" y1="220.6" x2="69.7" y2="1002.4" xlink:href="#linear-gradient"/>
    <linearGradient id="linear-gradient-61" x1="1737.5" y1="895.4" x2="493.9" y2="1677.1" xlink:href="#linear-gradient"/>
    <linearGradient id="linear-gradient-62" x1="1336.1" y1="257" x2="92.6" y2="1038.7" xlink:href="#linear-gradient"/>
    <linearGradient id="linear-gradient-63" x1="1857.7" y1="1086.6" x2="614.2" y2="1868.4" xlink:href="#linear-gradient"/>
    <linearGradient id="linear-gradient-64" x1="1300.2" y1="199.9" x2="56.7" y2="981.7" xlink:href="#linear-gradient"/>
    <linearGradient id="linear-gradient-65" x1="1399" y1="357" x2="155.5" y2="1138.7" xlink:href="#linear-gradient"/>
    <linearGradient id="linear-gradient-66" x1="1248.8" y1="118.1" x2="5.2" y2="899.8" xlink:href="#linear-gradient"/>
    <linearGradient id="linear-gradient-67" x1="1307.6" y1="211.6" x2="64.1" y2="993.4" xlink:href="#linear-gradient"/>
    <linearGradient id="linear-gradient-68" x1="1546.9" y1="592.4" x2="303.4" y2="1374.1" xlink:href="#linear-gradient"/>
    <linearGradient id="linear-gradient-69" x1="1262.3" y1="139.6" x2="18.8" y2="921.4" xlink:href="#linear-gradient"/>
    <linearGradient id="linear-gradient-70" x1="1259.7" y1="135.5" x2="16.2" y2="917.2" xlink:href="#linear-gradient"/>
    <linearGradient id="linear-gradient-71" x1="1206.8" y1="51.3" x2="-36.7" y2="833.1" xlink:href="#linear-gradient"/>
    <linearGradient id="linear-gradient-72" x1="1359.7" y1="294.6" x2="116.2" y2="1076.3" xlink:href="#linear-gradient"/>
    <linearGradient id="linear-gradient-73" x1="1391.5" y1="345" x2="147.9" y2="1126.8" xlink:href="#linear-gradient"/>
    <linearGradient id="linear-gradient-74" x1="1732.6" y1="887.7" x2="489.1" y2="1669.4" xlink:href="#linear-gradient"/>
    <linearGradient id="linear-gradient-75" x1="1796.6" y1="989.5" x2="553.1" y2="1771.2" xlink:href="#linear-gradient"/>
    <linearGradient id="linear-gradient-76" x1="1387.2" y1="338.2" x2="143.6" y2="1120" xlink:href="#linear-gradient"/>
    <linearGradient id="linear-gradient-77" x1="1274.1" y1="158.3" x2="30.5" y2="940" xlink:href="#linear-gradient"/>
    <linearGradient id="linear-gradient-78" x1="1204.5" y1="47.6" x2="-39" y2="829.4" xlink:href="#linear-gradient"/>
    <linearGradient id="linear-gradient-79" x1="1456.6" y1="448.7" x2="213.1" y2="1230.4" xlink:href="#linear-gradient"/>
    <linearGradient id="linear-gradient-80" x1="1209.7" y1="55.9" x2="-33.9" y2="837.6" xlink:href="#linear-gradient"/>
    <linearGradient id="linear-gradient-81" x1="1447.1" y1="433.6" x2="203.6" y2="1215.3" xlink:href="#linear-gradient"/>
    <linearGradient id="linear-gradient-82" x1="923.3" y1="1354.3" x2="923.3" y2="1288.1" xlink:href="#linear-gradient"/>
    <linearGradient id="linear-gradient-83" x1="970.7" y1="1354.3" x2="970.7" y2="1305.7" xlink:href="#linear-gradient"/>
    <linearGradient id="linear-gradient-84" x1="1024.1" y1="1354.9" x2="1024.1" y2="1288.7" xlink:href="#linear-gradient"/>
    <linearGradient id="linear-gradient-85" x1="1089.7" y1="1354.3" x2="1089.7" y2="1288.7" xlink:href="#linear-gradient"/>
    <linearGradient id="linear-gradient-86" x1="1146.2" y1="1354.3" x2="1146.2" y2="1305.7" xlink:href="#linear-gradient"/>
    <linearGradient id="linear-gradient-87" x1="1196.4" y1="1354.3" x2="1196.4" y2="1305.7" xlink:href="#linear-gradient"/>
    <linearGradient id="linear-gradient-88" x1="1236.6" y1="1354.3" x2="1236.6" y2="1288.9" xlink:href="#linear-gradient"/>
    <linearGradient id="linear-gradient-89" x1="1273.3" y1="1354.3" x2="1273.3" y2="1306.3" xlink:href="#linear-gradient"/>
    <linearGradient id="linear-gradient-90" x1="1314.6" y1="1354.9" x2="1314.6" y2="1305.7" xlink:href="#linear-gradient"/>
    <linearGradient id="linear-gradient-91" x1="1361.4" y1="1354.3" x2="1361.4" y2="1305.7" xlink:href="#linear-gradient"/>
    <linearGradient id="linear-gradient-92" x1="1398" y1="1354.9" x2="1398" y2="1305.7" xlink:href="#linear-gradient"/>
    <linearGradient id="linear-gradient-93" x1="1443.4" y1="1354.8" x2="1443.4" y2="1305.7" xlink:href="#linear-gradient"/>
    <linearGradient id="linear-gradient-94" x1="1490.9" y1="1354.3" x2="1490.9" y2="1305.7" xlink:href="#linear-gradient"/>
    <linearGradient id="linear-gradient-95" x1="1530.9" y1="1371.9" x2="1530.9" y2="1306.3" xlink:href="#linear-gradient"/>
  </defs>
  <g>
    <path class="cls-1" d="M844.5,1863.3h-7.6v11.1h-2v-26.1h9.6c4.5,0,7.9,2.8,7.9,7.5s-3.3,7.5-7.9,7.5ZM844.3,1850h-7.4v11.5h7.4c3.6,0,6.1-1.8,6.1-5.8s-2.4-5.7-6.1-5.7Z"/>
    <path class="cls-1" d="M868.6,1872.6c-1.3,1.3-2.9,1.9-4.9,1.9s-3.6-.7-4.9-1.9c-1.9-1.9-2.2-4.6-2.2-7.1s.3-5.2,2.2-7.1c1.3-1.3,2.9-1.9,4.9-1.9s3.6.7,4.9,1.9c1.9,1.9,2.2,4.6,2.2,7.1s-.3,5.3-2.2,7.1ZM867.4,1859.6c-1-1-2.2-1.5-3.7-1.5s-2.7.5-3.7,1.5c-1.5,1.5-1.6,3.8-1.6,5.9s0,4.4,1.6,5.9,2.2,1.5,3.7,1.5,2.7-.5,3.7-1.5c1.5-1.5,1.6-3.8,1.6-5.9s0-4.4-1.6-5.9Z"/>
    <path class="cls-1" d="M893.3,1874.4h-1.9l-5-14.8-5,14.8h-1.9l-5.7-17.7h2l4.5,15.5,5.1-15.5h1.8l5.1,15.5,4.5-15.5h2l-5.5,17.7h0Z"/>
    <path class="cls-1" d="M903.9,1865.9c0,4.5,2,7,5.8,7s3.4-.6,4.9-2.1l1.4,1.1c-1.8,1.8-3.5,2.7-6.4,2.7-4.9,0-7.5-3.2-7.5-9.1s2.6-9.1,7.1-9.1,7.1,3.2,7.1,8.6v.8h-12.4ZM913.7,1861.1c-.8-1.9-2.5-3-4.6-3s-3.7,1.1-4.6,3c-.5,1.1-.5,1.7-.6,3.3h10.4c-.1-1.7-.2-2.3-.6-3.3h0Z"/>
    <path class="cls-1" d="M928.8,1858.1c-3,0-4.7,2.5-4.7,5.4v10.9h-1.9v-17.7h1.9v2.3c1-1.7,3.1-2.6,5.2-2.6s3,.4,4.3,1.7l-1.4,1.4c-1.1-1.1-1.9-1.4-3.4-1.4h0Z"/>
    <path class="cls-1" d="M938,1865.9c0,4.5,2,7,5.8,7s3.4-.6,4.9-2.1l1.4,1.1c-1.8,1.8-3.5,2.7-6.4,2.7-4.9,0-7.5-3.2-7.5-9.1s2.6-9.1,7.1-9.1,7.1,3.2,7.1,8.6v.8h-12.4ZM947.8,1861.1c-.8-1.9-2.5-3-4.6-3s-3.7,1.1-4.6,3c-.5,1.1-.5,1.7-.6,3.3h10.4c0-1.7-.1-2.3-.6-3.3h0Z"/>
    <path class="cls-1" d="M967.2,1874.4v-2.3c-1.6,2.1-3.2,2.5-5.2,2.5s-3.4-.6-4.3-1.5c-1.8-1.8-2.3-4.7-2.3-7.5s.5-5.7,2.3-7.5c.9-.9,2.5-1.5,4.3-1.5s3.7.4,5.2,2.5v-10.7h1.9v26.1h-1.9ZM962.2,1858.1c-4.3,0-5,3.7-5,7.4s.7,7.4,5,7.4,5-3.7,5-7.4-.7-7.4-5-7.4Z"/>
    <path class="cls-1" d="M997,1873c-.9.9-2.5,1.5-4.3,1.5s-3.7-.4-5.2-2.5v2.3h-1.9v-26.1h1.9v10.7c1.6-2.1,3.2-2.5,5.2-2.5s3.4.6,4.3,1.5c1.8,1.8,2.3,4.7,2.3,7.5s-.5,5.8-2.3,7.6h0ZM992.4,1858.1c-4.3,0-5,3.7-5,7.4s.7,7.4,5,7.4,5-3.7,5-7.4-.7-7.4-5-7.4Z"/>
    <path class="cls-1" d="M1008.8,1879.2c-.3.9-.7,1.7-1.2,2.1-.9.8-2.2,1.1-3.3,1.1h-.9v-1.7h.7c2,0,2.6-.7,3.2-2.4l1.4-3.9-6.5-17.7h2l5.3,15.5,5.3-15.5h2l-8,22.5h0Z"/>
    <path class="cls-1" d="M1037.8,1850v24.4h-2v-24.4h-7.8v-1.8h17.6v1.8h-7.8Z"/>
    <path class="cls-1" d="M1048.6,1877.1h-1.9l10.4-31.6h1.9l-10.4,31.6Z"/>
    <path class="cls-1" d="M1083.1,1874.4v-21.5l-7.9,17.9h-2l-8.1-17.9v21.5h-2v-26.1h2l9.1,20.1,8.9-20.1h2v26.1h-2Z"/>
  </g>
  <g>
    <g>
      <polygon class="cls-2" points="614.3 1363.8 606 1346.7 615.5 1330.3 596.6 1332.8 583.9 1318.7 580.5 1337.4 563.2 1345.2 579.9 1354.2 581.9 1373.1 595.7 1360 614.3 1363.8"/>
      <polygon class="cls-91" points="589.3 825.3 596.6 829.3 597.3 837.6 603.4 831.9 611.5 833.7 608 826.2 612.2 819.1 604 820.1 598.5 813.8 596.9 822 589.3 825.3"/>
      <polygon class="cls-92" points="586 705 595.8 697.1 607.9 700.7 603.4 689 610.5 678.6 597.9 679.3 590.3 669.3 587 681.5 575.2 685.6 585.7 692.5 586 705"/>
      <polygon class="cls-90" points="444.2 993.8 438.1 999.9 429.6 998.3 433.5 1006 429.4 1013.6 438 1012.2 443.9 1018.5 445.2 1010 453 1006.2 445.3 1002.3 444.2 993.8"/>
      <polygon class="cls-96" points="374.7 919.6 372.4 938.2 355.8 946.9 372.8 954.8 375.9 973.3 388.7 959.6 407.2 962.3 398.1 945.9 406.5 929.2 388.1 932.7 374.7 919.6"/>
      <polygon class="cls-97" points="803.1 1440.2 806.5 1422.1 823.3 1414.7 807.2 1405.9 805.3 1387.7 792 1400.3 774.1 1396.4 781.9 1413 772.7 1428.8 790.9 1426.5 803.1 1440.2"/>
      <polygon class="cls-95" points="833.7 384.4 820.6 376.8 819.4 361.8 808.2 371.9 793.5 368.4 799.6 382.2 791.8 395 806.8 393.5 816.6 404.9 819.7 390.2 833.7 384.4"/>
      <polygon class="cls-93" points="446.1 713.4 460.6 704.6 476 711.5 472.1 695 483.5 682.5 466.6 681.1 458.2 666.4 451.7 682.1 435.1 685.6 447.9 696.6 446.1 713.4"/>
      <polygon class="cls-94" points="633.2 1470.1 625.8 1464.9 625.9 1455.9 618.7 1461.3 610.2 1458.4 613.1 1466.9 607.7 1474.2 616.7 1474 621.9 1481.4 624.6 1472.8 633.2 1470.1"/>
      <polygon class="cls-19" points="712.7 1379.8 712.8 1394.4 700.9 1402.7 714.8 1407.2 719 1421.1 727.5 1409.2 742.1 1409.5 733.4 1397.8 738.2 1384 724.3 1388.6 712.7 1379.8"/>
      <polygon class="cls-16" points="866.2 318.3 873.9 325.4 872.4 335.8 881.5 330.6 890.9 335.2 888.9 325 896.1 317.4 885.7 316.2 880.8 307 876.5 316.5 866.2 318.3"/>
      <polygon class="cls-17" points="493.2 1208 501.3 1212.7 502 1222.2 509.1 1215.9 518.2 1218.1 514.5 1209.5 519.4 1201.5 510 1202.4 503.9 1195.2 501.9 1204.4 493.2 1208"/>
      <polygon class="cls-18" points="723.2 385.8 715 375.5 718.9 363 706.6 367.5 695.8 360 696.4 373.1 685.9 381 698.5 384.5 702.8 396.9 710.1 386 723.2 385.8"/>
      <polygon class="cls-27" points="362.5 1197.9 370.4 1195.2 377.2 1200.1 377 1191.7 383.7 1186.8 375.7 1184.4 373.1 1176.5 368.4 1183.4 360.1 1183.4 365.1 1190 362.5 1197.9"/>
      <polygon class="cls-23" points="457.3 597.9 452.9 589 457.7 580.3 447.8 581.8 441 574.6 439.4 584.4 430.4 588.6 439.2 593.2 440.5 603 447.6 596.1 457.3 597.9"/>
      <polygon class="cls-21" points="1162.2 1496.8 1148 1500.6 1136.9 1491 1136 1505.7 1123.5 1513.3 1137.2 1518.6 1140.6 1532.9 1149.9 1521.6 1164.5 1522.8 1156.6 1510.4 1162.2 1496.8"/>
      <polygon class="cls-20" points="631.1 1232.5 639.4 1237.7 639.8 1247.4 647.3 1241.2 656.7 1243.8 653 1234.7 658.5 1226.6 648.7 1227.3 642.7 1219.6 640.3 1229.1 631.1 1232.5"/>
      <polygon class="cls-26" points="371.6 817.9 367 809.1 371.7 800.2 361.8 801.9 354.8 794.7 353.4 804.6 344.4 809 353.3 813.4 354.7 823.4 361.7 816.2 371.6 817.9"/>
      <polygon class="cls-22" points="1156.9 373.8 1165.2 370.6 1172.6 375.6 1172.1 366.7 1179.2 361.3 1170.6 358.9 1167.6 350.5 1162.8 358 1153.8 358.2 1159.4 365.2 1156.9 373.8"/>
      <polygon class="cls-29" points="1132.2 432.8 1139.4 421.5 1152.8 421 1144.2 410.6 1147.9 397.8 1135.5 402.7 1124.3 395.2 1125.2 408.6 1114.6 416.8 1127.6 420.2 1132.2 432.8"/>
      <polygon class="cls-25" points="905 472.7 891.1 438.4 923.6 421 886.8 423.7 880.3 387.3 871.5 423.2 834.9 418.1 866.2 437.6 850.1 470.9 878.4 447 905 472.7"/>
      <polygon class="cls-28" points="1252.1 386.8 1239 407.1 1217.5 396.2 1232.8 414.9 1215.8 432 1238.3 423.3 1249.3 444.7 1247.9 420.6 1271.7 416.8 1248.4 410.6 1252.1 386.8"/>
      <polygon class="cls-24" points="590.9 809.4 590.8 774.1 625.9 770.2 592.2 759.5 599.4 724.9 578.8 753.6 548.1 736 569 764.5 542.9 788.3 576.4 777.2 590.9 809.4"/>
      <polygon class="cls-31" points="547.9 653.7 528.2 623.7 556 601 521.4 610.5 508.3 577.1 506.7 612.9 470.8 614.9 504.4 627.6 495.3 662.3 517.7 634.3 547.9 653.7"/>
      <polygon class="cls-15" points="617.4 589.3 605.3 608.2 585.2 598.1 599.5 615.5 583.7 631.5 604.6 623.3 614.9 643.3 613.6 620.9 635.8 617.2 614 611.5 617.4 589.3"/>
      <polygon class="cls-32" points="517.4 1260.6 546.3 1275.6 534.4 1305.9 557.5 1283 582.6 1303.7 568.1 1274.6 595.5 1257.2 563.4 1262 555.2 1230.5 549.9 1262.6 517.4 1260.6"/>
      <polygon class="cls-30" points="497.3 723 506.5 734.3 496.2 744.6 509.7 739.4 516.3 752.3 515.6 737.8 529.9 735.6 515.9 731.8 518.2 717.5 510.3 729.6 497.3 723"/>
      <polygon class="cls-14" points="498.2 560.9 516.8 550.1 529.5 567.4 524.9 546.4 545.3 539.7 523.9 537.6 523.9 516.1 515.2 535.8 494.8 529.2 510.8 543.5 498.2 560.9"/>
      <polygon class="cls-5" points="1023.4 405.3 1028 380.1 1053.6 382 1031 369.8 1040.8 346.1 1022.2 363.8 1002.6 347.2 1013.8 370.3 991.9 383.8 1017.4 380.4 1023.4 405.3"/>
      <polygon class="cls-7" points="778 549 784.7 534.8 799.6 540 788.2 529.2 797.8 516.7 783.9 524.2 775 511.2 777.9 526.7 762.7 531.2 778.4 533.2 778 549"/>
      <polygon class="cls-8" points="785.9 452.1 751.9 439.8 760.5 404.7 738.3 433.3 707.6 414.1 727.9 444.1 700.2 467.4 735 457.4 748.7 490.9 749.8 454.7 785.9 452.1"/>
      <polygon class="cls-6" points="1107.6 1528.5 1077.7 1519.3 1083.7 1488.6 1065.7 1514.2 1038.4 1499.1 1057.2 1524.1 1034.3 1545.4 1063.9 1535.2 1077.1 1563.6 1076.6 1532.3 1107.6 1528.5"/>
      <polygon class="cls-4" points="737.1 540.4 718.5 548.2 708.8 530.5 710.4 550.6 690.6 554.3 710.2 559 707.6 579 718.1 561.7 736.4 570.4 723.2 555.1 737.1 540.4"/>
      <polygon class="cls-11" points="441 908.5 454.2 862.6 501.2 871 461.6 844.2 484.1 802.1 446.5 831.5 413.3 797.1 429.6 842 386.6 862.8 434.4 861.2 441 908.5"/>
      <polygon class="cls-13" points="682.6 1485.5 697.1 1478.5 705.5 1492.2 703.4 1476.2 719 1472.4 703.2 1469.6 704.4 1453.6 696.8 1467.7 681.9 1461.6 693 1473.2 682.6 1485.5"/>
      <polygon class="cls-9" points="560.2 1361 526.3 1355.4 528.4 1321.1 512.6 1351.6 480.6 1339.1 504.7 1363.6 482.9 1390.1 513.6 1374.7 532.1 1403.7 527 1369.7 560.2 1361"/>
      <polygon class="cls-12" points="716.7 1334.4 699.9 1314.6 717.8 1295.9 693.8 1305.7 681.4 1282.9 683.4 1308.8 657.9 1313.4 683.1 1319.6 679.6 1345.3 693.3 1323.2 716.7 1334.4"/>
      <polygon class="cls-3" points="828.4 455 816.8 465 805.7 454.5 811.6 468.6 798.2 475.9 813.5 474.6 816.3 489.7 819.8 474.8 834.9 476.7 821.9 468.8 828.4 455"/>
      <polygon class="cls-10" points="484.4 1073.1 481.9 1113.1 441.8 1114.9 479.1 1129.6 468.4 1168.2 493.9 1137.3 527.3 1159.4 505.8 1125.6 537.2 1100.7 498.4 1110.7 484.4 1073.1"/>
      <polygon class="cls-41" points="448.1 1224.5 442 1190.2 475.4 1180.5 440.9 1175.7 442.1 1140.9 426.9 1172.3 394.1 1160.4 419.2 1184.6 397.8 1212 428.6 1195.6 448.1 1224.5"/>
      <path class="cls-42" d="M1090.7,335.8c-1.5-.6-3.1.2-3.7,1.7-.6,1.5.2,3.1,1.7,3.7,1.5.6,3.1-.2,3.7-1.7.6-1.5-.2-3.1-1.7-3.7Z"/>
      <path class="cls-39" d="M586.1,897.3c0-3.8-3.1-6.8-6.9-6.8-3.8,0-6.8,3.1-6.8,6.9,0,3.8,3.1,6.8,6.9,6.8,3.8,0,6.8-3.1,6.8-6.9Z"/>
      <path class="cls-40" d="M601.7,489.5c2.6-4.8.9-10.8-3.9-13.5-4.8-2.6-10.8-.9-13.5,3.9-2.6,4.8-.9,10.8,3.9,13.5,4.8,2.6,10.8.9,13.5-3.9Z"/>
      <path class="cls-35" d="M586.7,531.9c-2.4.8-3.6,3.4-2.8,5.7.8,2.4,3.4,3.6,5.7,2.8,2.4-.8,3.6-3.4,2.8-5.7-.8-2.4-3.4-3.6-5.7-2.8Z"/>
      <path class="cls-33" d="M785.6,335.7c4-2.4,5.2-7.6,2.8-11.6-2.4-4-7.6-5.2-11.6-2.8-4,2.4-5.2,7.6-2.8,11.6,2.4,4,7.6,5.2,11.6,2.8Z"/>
      <path class="cls-34" d="M595.5,1110.4c2.8-3.6,2.1-8.8-1.6-11.5-3.6-2.8-8.8-2.1-11.5,1.6-2.8,3.6-2.1,8.8,1.6,11.5,3.6,2.8,8.8,2.1,11.5-1.6Z"/>
      <path class="cls-38" d="M591.6,990.2c-2.4-.2-4.5,1.7-4.7,4.1-.2,2.4,1.7,4.5,4.1,4.7,2.4.2,4.5-1.7,4.7-4.1.2-2.4-1.7-4.5-4.1-4.7Z"/>
      <path class="cls-36" d="M368.4,713.8c.8-2.2-.4-4.6-2.6-5.4-2.2-.8-4.6.4-5.4,2.6-.8,2.2.4,4.6,2.6,5.4,2.2.8,4.6-.4,5.4-2.6Z"/>
      <circle class="cls-37" cx="827.6" cy="1549.5" r="10.4" transform="translate(-863.2 1073.1) rotate(-46.2)"/>
      <path class="cls-51" d="M980.8,1542.4c-1.5-4.3-6.2-6.6-10.5-5.1-4.3,1.5-6.6,6.2-5.1,10.5,1.5,4.3,6.2,6.6,10.5,5.1,4.3-1.5,6.6-6.2,5.1-10.5Z"/>
      <path class="cls-49" d="M865.7,1505.1c4.4-1.4,6.7-6.2,5.3-10.5-1.4-4.4-6.2-6.7-10.5-5.3-4.4,1.4-6.7,6.2-5.3,10.5,1.4,4.4,6.2,6.7,10.5,5.3Z"/>
      <path class="cls-50" d="M1061.7,413.9c-2.6-3-7-3.3-10-.8s-3.3,7-.8,10c2.6,3,7,3.3,10,.8,3-2.6,3.3-7,.8-10Z"/>
      <path class="cls-48" d="M1002.5,1495c3.2-3.3,3.2-8.5,0-11.8-3.3-3.2-8.5-3.2-11.8,0-3.2,3.3-3.2,8.5,0,11.8,3.3,3.2,8.5,3.2,11.8,0Z"/>
      <path class="cls-52" d="M926,1469.6c-1.7-1.6-4.4-1.6-6,.1-1.6,1.7-1.6,4.4.1,6,1.7,1.6,4.4,1.6,6-.1,1.6-1.7,1.6-4.4-.1-6Z"/>
      <path class="cls-46" d="M638.3,1403.1c.5-3.6-2-6.8-5.6-7.3-3.6-.5-6.8,2-7.3,5.6-.5,3.6,2,6.8,5.6,7.3,3.6.5,6.8-2,7.3-5.6Z"/>
      <path class="cls-47" d="M658.5,722.5c1.5-4.7-1.1-9.7-5.8-11.2-4.7-1.5-9.7,1.1-11.2,5.8-1.5,4.7,1.1,9.7,5.8,11.2,4.7,1.5,9.7-1.1,11.2-5.8Z"/>
      <path class="cls-44" d="M350.9,1093.3c-1-2.8-4-4.2-6.7-3.2-2.8,1-4.2,4-3.2,6.7,1,2.8,4,4.2,6.7,3.2s4.2-4,3.2-6.7Z"/>
      <path class="cls-45" d="M454.4,1291.2c1.6-.3,2.6-1.8,2.3-3.3s-1.8-2.6-3.3-2.3c-1.6.3-2.6,1.8-2.3,3.3.3,1.6,1.8,2.6,3.3,2.3Z"/>
      <path class="cls-43" d="M536.7,971c-1.8-.8-3.8,0-4.6,1.8-.8,1.8,0,3.8,1.8,4.6,1.8.8,3.8,0,4.6-1.8.8-1.8,0-3.8-1.8-4.6Z"/>
      <path class="cls-53" d="M966.7,447c4.2-.8,7-4.8,6.2-9-.8-4.2-4.8-7-9-6.2-4.2.8-7,4.8-6.2,9,.8,4.2,4.8,7,9,6.2Z"/>
      <path class="cls-54" d="M773.1,1495.7c-2.6,1-4,3.9-3,6.6,1,2.6,3.9,4,6.6,3,2.6-1,4-3.9,3-6.6-1-2.6-3.9-4-6.6-3Z"/>
      <path class="cls-55" d="M326,897.8c2.5-1.1,3.7-4.1,2.5-6.6-1.1-2.5-4.1-3.7-6.6-2.5-2.5,1.1-3.7,4.1-2.5,6.6,1.1,2.5,4.1,3.7,6.6,2.5Z"/>
      <path class="cls-66" d="M1227.6,1485.6c-1-4.2-5.3-6.7-9.4-5.7-4.2,1-6.7,5.3-5.7,9.4,1,4.2,5.3,6.7,9.4,5.7,4.2-1,6.7-5.3,5.7-9.4Z"/>
      <path class="cls-68" d="M673.2,602c2.9-2.3,3.4-6.6,1.1-9.5-2.3-2.9-6.6-3.4-9.5-1.1-2.9,2.3-3.4,6.6-1.1,9.5,2.3,2.9,6.6,3.4,9.5,1.1Z"/>
      <path class="cls-56" d="M465.9,937.7c-3.7-.7-7.3,1.7-8,5.4-.7,3.7,1.7,7.3,5.4,8,3.7.7,7.3-1.7,8-5.4.7-3.7-1.7-7.3-5.4-8Z"/>
      <path class="cls-65" d="M397.9,639.9c-4.1,4.9-3.5,12.3,1.5,16.4,4.9,4.1,12.3,3.5,16.4-1.5,4.1-4.9,3.5-12.3-1.5-16.4-4.9-4.1-12.3-3.5-16.4,1.5Z"/>
      <path class="cls-63" d="M432,764.3c2.3,1.6,5.4,1,7-1.2,1.6-2.3,1-5.4-1.2-7-2.3-1.6-5.4-1-7,1.2-1.6,2.3-1,5.4,1.2,7Z"/>
      <path class="cls-64" d="M594.7,1204.4c5.3-3.3,6.9-10.3,3.5-15.6-3.3-5.3-10.3-6.9-15.6-3.5-5.3,3.3-6.9,10.3-3.5,15.6,3.3,5.3,10.3,6.9,15.6,3.5Z"/>
      <path class="cls-67" d="M997.2,321.1c5.3-4.5,6-12.5,1.5-17.8-4.5-5.3-12.5-6-17.8-1.5-5.3,4.5-6,12.5-1.5,17.8,4.5,5.3,12.5,6,17.8,1.5Z"/>
      <path class="cls-71" d="M662.9,510.8c-1.6-2.7-5.2-3.6-7.9-2-2.7,1.6-3.6,5.2-2,7.9,1.6,2.7,5.2,3.6,7.9,2,2.7-1.6,3.6-5.2,2-7.9Z"/>
      <path class="cls-69" d="M538.2,471.8c-1.6-2.7-5.2-3.6-7.9-2-2.7,1.6-3.6,5.2-2,7.9,1.6,2.7,5.2,3.6,7.9,2,2.7-1.6,3.6-5.2,2-7.9Z"/>
      <path class="cls-70" d="M514,821.2c-2.6.3-4.4,2.7-4.1,5.3.3,2.6,2.7,4.4,5.3,4.1,2.6-.3,4.4-2.7,4.1-5.3-.3-2.6-2.7-4.4-5.3-4.1Z"/>
      <path class="cls-72" d="M516.7,902c2.5-2.2,2.7-6.1.5-8.6-2.2-2.5-6.1-2.7-8.6-.5-2.5,2.2-2.7,6.1-.5,8.6,2.2,2.5,6.1,2.7,8.6.5Z"/>
      <path class="cls-62" d="M846.6,1444.1c2.7,4.7,8.7,6.4,13.4,3.8,4.7-2.7,6.4-8.7,3.8-13.4-2.7-4.7-8.7-6.4-13.4-3.8-4.7,2.7-6.4,8.7-3.8,13.4Z"/>
      <path class="cls-60" d="M895.2,1556.7c2.5,3.4,7.2,4.1,10.5,1.6,3.4-2.5,4.1-7.2,1.6-10.5-2.5-3.4-7.2-4.1-10.5-1.6-3.4,2.5-4.1,7.2-1.6,10.5Z"/>
      <path class="cls-61" d="M342.1,1000.6c3,0,5.5-2.3,5.6-5.3,0-3-2.3-5.5-5.3-5.6-3,0-5.5,2.3-5.6,5.3,0,3,2.3,5.5,5.3,5.6Z"/>
      <path class="cls-59" d="M930.3,356.6c-6.5,5.4-7.4,15-2,21.4,5.4,6.5,15,7.4,21.4,2,6.5-5.4,7.4-15,2-21.4-5.4-6.5-15-7.4-21.4-2Z"/>
      <path class="cls-58" d="M627.3,423.9c3.4-6.4,1.1-14.3-5.3-17.7-6.4-3.4-14.3-1.1-17.7,5.3s-1.1,14.3,5.3,17.7c6.4,3.4,14.3,1.1,17.7-5.3Z"/>
      <path class="cls-57" d="M520.4,1033.6c-4.7-4.3-11.9-3.9-16.2.8-4.3,4.7-3.9,11.9.8,16.2,4.7,4.3,11.9,3.9,16.2-.8,4.3-4.7,3.9-11.9-.8-16.2Z"/>
      <path class="cls-81" d="M460.9,528.5c2,1.5,4.9,1.1,6.5-.9,1.5-2,1.1-4.9-.9-6.5-2-1.5-4.9-1.1-6.5.9-1.5,2-1.1,4.9.9,6.5Z"/>
      <path class="cls-82" d="M414.7,1072.4c-5.4.4-9.4,5-9.1,10.4.4,5.4,5,9.4,10.4,9.1,5.4-.4,9.4-5,9.1-10.4-.4-5.4-5-9.4-10.4-9.1Z"/>
    </g>
    <g>
      <path class="cls-75" d="M938.1,1321.7l-21.9,22.4h24.2l-2.1,10.2h-38.7l2.1-10.2,28.4-28.9c3.8-3.9,5.5-6.3,5.5-10.2s-2.3-6.6-6.3-6.6-8,2.2-9.5,8.6h-11.5c2.2-12.5,10.2-18.8,22.2-18.8s16.6,5.9,16.6,16.3-5,13.2-8.9,17.2Z"/>
      <path class="cls-76" d="M992.3,1324.3l-6,30h-11.4l5.9-29.2c.2-1.1.4-2.2.4-3.1,0-4.1-2.8-6-5.7-6s-8.3,1.7-9.8,9.2l-5.9,29.1h-11.4l9.6-48h11l-.8,4.6c3-3.3,7.7-5.2,12.6-5.2s12.3,3.8,12.3,13.3-.3,3.8-.6,5.3Z"/>
      <path class="cls-73" d="M1035,1354.3h-11.1l1-4.6c-3.2,3.7-7.4,5.2-11.9,5.2-10.1,0-13-7.4-13-13.5s.6-6.9,1.5-11.2c1.9-9.9,4-16.1,7.7-19.8,3.7-3.7,7.8-4.7,12.2-4.7s8.5,1.5,10.9,5.2l4.4-22.2h11.4l-13.1,65.6ZM1023.7,1316c-6.8,0-8.9,5.5-10.7,14.3-.5,2.5-1,5.7-1,7.7s.7,6.6,5.7,6.6,8.9-5.6,10.7-14.4c.5-2.5,1-5.7,1-7.7s-.7-6.5-5.7-6.5Z"/>
      <path class="cls-74" d="M1104.9,1354.3l-1.4-12h-22.2l-6.2,12h-13l35.8-65.6h9.7l9.7,65.6h-12.4ZM1099.5,1307.1l-13.2,25.3h16.3l-3.1-25.3Z"/>
      <path class="cls-79" d="M1167.9,1324.3l-6,30h-11.4l5.9-29.2c.2-1.1.4-2.2.4-3.1,0-4.1-2.8-6-5.7-6s-8.3,1.7-9.8,9.2l-5.9,29.1h-11.4l9.6-48h11l-.8,4.6c3-3.3,7.7-5.2,12.6-5.2s12.3,3.8,12.3,13.3-.3,3.8-.6,5.3Z"/>
      <path class="cls-80" d="M1218.1,1324.3l-6,30h-11.4l5.9-29.2c.2-1.1.4-2.2.4-3.1,0-4.1-2.8-6-5.7-6s-8.3,1.7-9.8,9.2l-5.9,29.1h-11.4l9.6-48h11l-.8,4.6c3-3.3,7.7-5.2,12.6-5.2s12.3,3.8,12.3,13.3-.3,3.8-.6,5.3Z"/>
      <path class="cls-78" d="M1235.8,1354.3h-11.4l9.3-46.6h11.4l-9.3,46.6ZM1247,1298.3h-11.7l1.8-9.5h11.8l-1.9,9.5Z"/>
      <path class="cls-77" d="M1268.3,1354.3h-9l-7.2-48h11.3l3.4,31,15.5-31h12.3l-26.3,48Z"/>
      <path class="cls-86" d="M1333.9,1333.8h-28.8c-.2,1.1-.4,2.3-.4,3.4,0,4.7,2.7,8,8.2,8s8.1-1.7,11.4-4.9l6,7.6c-5,4.6-11.5,7-18.7,7s-17.8-4.2-17.8-16.9,7.8-32.3,24.4-32.3,17.1,6.7,17.1,17.1-.6,7.2-1.5,10.9ZM1317.6,1315.1c-4.9,0-8.9,3.1-11.1,11h17.6c.2-1,.3-2.2.3-3.2,0-5.1-2.8-7.7-6.8-7.7Z"/>
      <path class="cls-83" d="M1372.6,1319c-1.2-1.6-2.8-2.9-5.3-2.9-4.5,0-8.6,3.7-9.7,9.2l-5.8,29h-11.4l9.6-48h11.1l-1,4.7c2.7-3.2,7.2-5.3,12.2-5.3s7.7,1.5,10.2,4.5l-9.9,8.8Z"/>
      <path class="cls-84" d="M1412,1318.5c-2.2-2.3-5.7-3.4-9.1-3.4-5.8,0-8.4,2.9-8.4,5.8s1.5,3.1,4.4,3.6l6.2,1c8.6,1.4,11.6,5.8,11.6,12.4s-2,8.6-5.2,11.6c-3.9,3.8-10.5,5.3-16.7,5.3s-14.3-2.6-18.5-7.2l8.2-7.2c2.4,2.8,5.6,4.6,11.1,4.6s9.8-3.1,9.8-6-1.8-3.5-4.5-4l-6.3-1c-8.8-1.5-11.5-6.4-11.5-10.9s1.7-8.8,4.9-12,9.1-5.5,15.9-5.5,11.8,1.7,16,5.9l-7.8,6.9Z"/>
      <path class="cls-85" d="M1464.1,1323.3l-6.3,31h-11l.8-4.2c-2.7,2.7-6.4,4.7-11.6,4.7-8.4,0-13.7-5.3-13.7-12.6s1.6-8.6,4.3-11.3c3.6-3.5,8.5-5,14-5h11.4l.6-2.9c.2-.9.3-1.6.3-2.5,0-3.2-2.3-5.2-7.1-5.2s-7.9,1.8-10.3,4.5l-5.9-7.7c3.9-4,8.9-6.5,17.8-6.5s17.1,3.1,17.1,13.4-.2,3-.5,4.2ZM1441.7,1333.7c-5.2,0-8.2,3.1-8.2,7.4s1.9,4.5,6.1,4.5,5.7-1.2,7.5-3c1.5-1.5,2.4-3.7,2.9-6.1l.6-2.9h-8.8Z"/>
      <path class="cls-87" d="M1502,1319c-1.2-1.6-2.8-2.9-5.3-2.9-4.5,0-8.6,3.7-9.7,9.2l-5.8,29h-11.4l9.6-48h11.1l-1,4.7c2.7-3.2,7.2-5.3,12.2-5.3s7.7,1.5,10.2,4.5l-9.9,8.8Z"/>
      <path class="cls-88" d="M1525.8,1362.1c-1.1,2.1-2.5,4.1-4,5.6-3,3-6.6,4.2-11.4,4.2h-4.4l2.1-10.3h2.6c3.3,0,4.8-1.6,6.5-5l3-5.7-6.8-44.6h11.3l3.5,31,15.4-31h12.1l-30,55.8Z"/>
    </g>
  </g>
  <g>
    <g>
      <path class="cls-98" d="M385.2,716.8h444.3c11.6,0,21.1,9.4,21.1,21.1v444.3c0,11.6-9.4,21.1-21.1,21.1h-444.3c-11.6,0-21.1-9.4-21.1-21.1v-444.4c.1-11.6,9.5-21,21.1-21Z"/>
      <path class="cls-99" d="M850.3,955.6v226.6c0,11.6-9.4,21.1-21.1,21.1h-216l-190.1-190.3h48.1v2.2l.4,4.7,1.1,4.5,1.8,4.2,2.3,3.6,3,3.5,3.3,2.8,3.9,2.4,4.3,1.9,4.4,1,4.8.4,4.8-.4,4.5-1,4.1-1.9,3.9-2.4,3.4-2.8,3-3.5,2.4-3.6,1.8-4.2,1.1-4.5.4-4.7v-2.2h132.2v2.1l.4,4.7,1.1,4.5,1.8,4.1,2.4,3.8,2.9,3.5,3.3,2.9,3.8,2.3,4.3,1.8,4.5,1.2,4.8.4,4.8-.4,4.5-1.2,4.2-1.8,3.9-2.3,3.4-2.9,2.9-3.5,2.4-3.8,1.9-4.1,1-4.5.4-4.7v-2.1h71.1v-101.4l-.4-5.2-1.2-5.1-1.7-4.7-2.6-4.5-3.1-3.9,67.4,67.4Z"/>
      <path class="cls-89" d="M791.4,906.4l-1.2-5.1-1.7-4.7-2.6-4.5-3.1-3.9-3.6-3.5-4.1-3.2-4.3-2.4-4.9-1.8-5.1-1.2-5.4-.4h-310.3l-2.1.4-1.8.6-1.6,1.4-1.1,1.4-.8,1.8-14.7,73.5v58.2h48.2v2.2l.4,4.7,1.1,4.5,1.8,4.2,2.3,3.6,3,3.5,3.3,2.8,3.9,2.4,4.3,1.9,4.4,1,4.8.4,4.8-.4,4.5-1,4.1-1.9,3.9-2.4,3.4-2.8,3-3.5,2.4-3.6,1.8-4.2,1.1-4.5.4-4.7v-2.2h132.2v2.1l.4,4.7,1.1,4.5,1.8,4.1,2.4,3.8,2.9,3.5,3.3,2.9,3.8,2.3,4.3,1.8,4.5,1.2,4.8.4,4.8-.4,4.5-1.2,4.2-1.8,3.9-2.3,3.4-2.9,2.9-3.5,2.4-3.8,1.9-4.1,1-4.5.4-4.7v-2.1h71.1v-101.4l-.5-5.2ZM475.2,986.6h-35.8v-30l13.8-64.6h22v94.6ZM550.3,941.7h-59.1v-49.7h59.1v49.7ZM625.5,941.7h-59.1v-49.7h59.1v49.7ZM700.5,941.7h-59v-49.7h59v49.7ZM775.4,941.6h-58.7v-49.6h38.8l4.1.4,3.7,1.1,3.3,1.9,2.9,2.4,2.5,2.8,1.8,3.4,1.1,3.7.4,3.9v30h.1Z"/>
    </g>
    <g>
      <path class="cls-98" d="M944.7,808.2h-37v-91.5h35.6c17,0,27.6,9.6,27.6,25s-6.2,17-12.3,19.4c7.1,2.8,13.8,9.6,13.8,21.2,0,17-11.5,25.9-27.7,25.9h0ZM942.1,729.2h-20.6v26.2h20.6c8.9,0,14.9-4.6,14.9-13.1s-6-13.1-14.9-13.1h0ZM943.4,767.9h-21.8v27.9h21.8c9.6,0,15-5.9,15-14s-5.4-13.9-15-13.9Z"/>
      <path class="cls-98" d="M1029.2,808.2v-6.5c-4.5,4.9-10.8,7.3-17.3,7.3s-12.2-2.2-16.1-5.9c-5-4.9-6.5-11-6.5-18.4v-41.6h13.1v39.7c0,10.2,5.8,14.5,13.1,14.5s13.5-4.5,13.5-14.5v-39.7h13.1v65.1h-12.9Z"/>
      <path class="cls-98" d="M1083.5,809c-10.7,0-19.7-1.8-27.4-9.4l8.6-8.6c5.3,5.4,12.3,6.8,18.8,6.8s14.3-2.8,14.3-9-2.4-7.1-8.7-7.7l-10.4-.9c-12.3-1.2-19.3-6.5-19.3-18s10.9-19.9,24.5-19.9,18.1,2,24.2,7.3l-8.2,8.3c-4.1-3.5-9.9-4.8-16.1-4.8s-11.8,3.3-11.8,8.3,2.6,6.8,9,7.5l9.1.8c13.5,1.2,20.6,7.1,20.6,18.5,0,13.8-11.6,20.8-27.2,20.8h0Z"/>
      <path class="cls-98" d="M907.7,932.3v-91.5h13.9v91.5h-13.9Z"/>
      <path class="cls-98" d="M981.8,932.3v-39.7c0-10.2-5.8-14.5-13.1-14.5s-13.5,4.5-13.5,14.5v39.7h-13.1v-65.1h12.9v6.5c4.5-4.9,10.8-7.3,17.3-7.3s12.2,2.2,16.1,5.9c5,4.9,6.5,11,6.5,18.4v41.6h-13.1Z"/>
      <path class="cls-98" d="M1028.6,877.2v55.1h-13.1v-55.1h-7.5v-10h7.5v-8.9c0-9.4,5.7-18.1,17.9-18.1h8.2v11.2h-5.8c-4.9,0-7.2,2.8-7.2,7.6v8.2h13v10h-13Z"/>
      <path class="cls-98" d="M1098.3,925.4c-4.2,4.4-10.7,7.7-19.5,7.7s-15.2-3.3-19.4-7.7c-6.2-6.4-7.7-14.7-7.7-25.7s1.5-19.1,7.7-25.6c4.2-4.4,10.5-7.7,19.4-7.7s15.3,3.3,19.5,7.7c6.2,6.4,7.7,14.6,7.7,25.6s-1.5,19.3-7.7,25.7ZM1088.4,881.8c-2.4-2.4-5.8-3.7-9.6-3.7s-7.1,1.3-9.5,3.7c-4,4-4.5,10.8-4.5,17.9s.5,13.9,4.5,17.9,5.7,3.8,9.5,3.8,7.2-1.4,9.6-3.8c4-4,4.5-10.8,4.5-17.9s-.5-13.9-4.5-17.9Z"/>
      <path class="cls-98" d="M1158.8,882.5c-2.9-3-5.3-4.4-9.8-4.4-7.1,0-13,5.7-13,14.7v39.6h-13.1v-65.1h12.8v7.1c3.3-4.6,10-7.8,17.3-7.8s11.1,1.7,15.5,6.2l-9.7,9.7h0Z"/>
      <path class="cls-98" d="M1260.2,932.3v-39.7c0-10.2-5.8-14.5-13.1-14.5s-13.5,4.5-13.5,13.9v40.3h-13.1v-39.7c0-10.2-5.8-14.5-13.1-14.5s-13.5,4.5-13.5,14.5v39.7h-13.1v-65.1h12.8v6.5c4.4-4.8,10.8-7.3,17.3-7.3s14.4,3.2,18.5,9.5c5.3-6.4,11.8-9.5,20.4-9.5s12.6,2.2,16.4,5.9c5,4.9,6.9,11,6.9,18.4v41.6h-12.9Z"/>
      <path class="cls-98" d="M1327.9,932.3v-5.9c-4.8,4.8-9.2,6.7-17.3,6.7s-13.5-1.9-17.5-5.9c-3.3-3.5-5.1-8.5-5.1-14,0-10.9,7.6-18.8,22.6-18.8h17.1v-4.6c0-8.3-4-12.2-14.3-12.2s-10.5,1.8-14.3,6.4l-8.5-8.1c6-7.2,12.3-9.5,23.2-9.5,18,0,26.8,7.7,26.8,22.3v43.5h-12.7ZM1327.6,903.5h-15c-8,0-11.9,3.3-11.9,9.4s3.7,9.2,12.3,9.2,8.3-.5,11.8-3.7c2.1-1.9,2.8-5,2.8-9.6v-5.3h0Z"/>
      <path class="cls-98" d="M1379.1,932.3c-12.2,0-17.9-8.7-17.9-18.1v-37h-7.4v-10h7.4v-18.6h13.1v18.6h12.6v10h-12.6v36.4c0,4.8,2.3,7.6,7.2,7.6h5.4v11.2h-7.8Z"/>
      <path class="cls-98" d="M1401.7,854.3v-13.9h13.9v13.9h-13.9ZM1402,932.3v-65.1h13.1v65.1h-13.1Z"/>
      <path class="cls-98" d="M1478.4,925.4c-4.2,4.4-10.7,7.7-19.5,7.7s-15.2-3.3-19.4-7.7c-6.2-6.4-7.7-14.7-7.7-25.7s1.5-19.1,7.7-25.6c4.2-4.4,10.5-7.7,19.4-7.7s15.3,3.3,19.5,7.7c6.2,6.4,7.7,14.6,7.7,25.6s-1.5,19.3-7.7,25.7ZM1468.5,881.8c-2.4-2.4-5.8-3.7-9.6-3.7s-7.1,1.3-9.5,3.7c-4,4-4.5,10.8-4.5,17.9s.5,13.9,4.5,17.9,5.7,3.8,9.5,3.8,7.2-1.4,9.6-3.8c4-4,4.5-10.8,4.5-17.9s-.5-13.9-4.5-17.9Z"/>
      <path class="cls-98" d="M1542.7,932.3v-39.7c0-10.2-5.8-14.5-13.1-14.5s-13.5,4.5-13.5,14.5v39.7h-13.1v-65.1h12.8v6.5c4.5-4.9,10.8-7.3,17.3-7.3s12.2,2.2,16.1,5.9c5,4.9,6.6,11,6.6,18.4v41.6h-13.1Z"/>
      <path class="cls-98" d="M944.7,1054.9h-37v-91.5h35.6c17,0,27.6,9.6,27.6,25s-6.2,17-12.3,19.4c7.1,2.8,13.8,9.6,13.8,21.2,0,16.9-11.5,25.8-27.7,25.9h0ZM942.1,975.8h-20.6v26.2h20.6c8.9,0,14.9-4.6,14.9-13.1s-6-13-14.9-13.1h0ZM943.4,1014.5h-21.8v27.9h21.8c9.6,0,15-5.9,15-14s-5.4-13.9-15-13.9Z"/>
      <path class="cls-98" d="M1034.4,1047.9c-4.2,4.4-10.7,7.7-19.5,7.7s-15.2-3.3-19.4-7.7c-6.2-6.4-7.7-14.7-7.7-25.7s1.5-19.1,7.7-25.6c4.2-4.4,10.5-7.7,19.4-7.7s15.3,3.3,19.5,7.7c6.2,6.4,7.7,14.6,7.7,25.6s-1.6,19.3-7.7,25.7ZM1024.5,1004.4c-2.4-2.4-5.8-3.7-9.6-3.7s-7.1,1.3-9.5,3.7c-4,4-4.5,10.8-4.5,17.9s.5,13.9,4.5,17.9,5.7,3.8,9.5,3.8,7.2-1.4,9.6-3.8c4-4,4.5-10.8,4.5-17.9s-.5-14-4.5-17.9Z"/>
      <path class="cls-98" d="M1095,1054.9v-5.9c-4.8,4.8-9.2,6.7-17.3,6.7s-13.5-1.9-17.5-5.9c-3.3-3.5-5.1-8.5-5.1-14,0-10.9,7.6-18.8,22.6-18.8h17.1v-4.6c0-8.3-4-12.2-14.3-12.2s-10.5,1.8-14.3,6.4l-8.5-8.1c6-7.2,12.3-9.5,23.2-9.5,18,0,26.8,7.7,26.8,22.3v43.5h-12.7ZM1094.8,1026.1h-15c-8,0-11.9,3.3-11.9,9.4s3.7,9.2,12.3,9.2,8.3-.5,11.8-3.7c2.1-1.9,2.8-5,2.8-9.6v-5.3h0Z"/>
      <path class="cls-98" d="M1162.8,1005c-2.9-3-5.3-4.4-9.8-4.4-7.1,0-13,5.7-13,14.7v39.6h-13v-65.1h12.8v7.1c3.3-4.6,10-7.8,17.3-7.8s11.1,1.7,15.5,6.2l-9.8,9.7h0Z"/>
      <path class="cls-98" d="M1221.3,1054.9v-6.9c-4.9,5.9-10.2,7.7-17.2,7.7s-12.3-2.2-15.9-5.8c-6.3-6.4-7.3-16.8-7.3-27.6s1-21.1,7.3-27.5c3.6-3.6,9.2-5.8,15.8-5.8s12.3,1.7,17.1,7.3v-32.9h13.1v91.5h-12.9ZM1207.5,1000.7c-11.9,0-13.6,10-13.6,21.6s1.7,21.7,13.6,21.7,13.5-10.2,13.5-21.7-1.7-21.6-13.5-21.6Z"/>
      <path class="cls-98" d="M931.9,1178.2c-13.8,0-23.5-3.2-32.4-12.1l9.1-9.1c6.7,6.7,14.3,8.9,23.5,8.9s18.9-5.1,18.9-14.1-1-7.3-3.6-9.5c-2.3-2.1-5.4-3.2-10-3.8l-10.8-1.5c-7.5-1.2-13.2-3.5-17.2-7.3-4.5-4.1-6.8-10-6.8-17.6,0-15.9,11.6-26.7,30.6-26.7s20.6,3.1,28.4,10.4l-8.7,8.7c-5.7-5.4-12.3-7.1-20.2-7.1s-16.6,5.9-16.6,14.3.9,6.4,3.3,8.5c2.3,2.1,5,3.3,10,4.1l10.9,1.7c8.3,1.3,13,3.2,17,6.8,4.9,4.5,7.5,10.8,7.5,18.8,0,16.6-13.6,26.6-32.9,26.6h0Z"/>
      <path class="cls-98" d="M1000.2,1190.4c-1.3,3.6-2.8,6.2-4.8,8.1-3.6,3.6-8.3,4.8-13.4,4.8h-5.3v-11.8h3.3c5.5,0,7.5-1.7,9.4-6.9l3.6-10.2-22.7-62.1h13.9l15.5,45.9,15.2-45.9h14l-28.7,78.1h0Z"/>
      <path class="cls-98" d="M1061.5,1178.2c-10.7,0-19.7-1.8-27.4-9.4l8.6-8.6c5.3,5.4,12.3,6.8,18.8,6.8s14.3-2.8,14.3-9-2.4-7.1-8.7-7.7l-10.4-.9c-12.3-1.2-19.3-6.6-19.3-18s10.9-19.9,24.5-19.9,18.1,2.1,24.2,7.3l-8.2,8.3c-4.1-3.5-9.9-4.8-16.1-4.8s-11.8,3.3-11.8,8.3,2.6,6.8,9,7.4l9.1.8c13.5,1.2,20.6,7.1,20.6,18.5,0,13.8-11.7,20.9-27.2,20.9h0Z"/>
      <path class="cls-98" d="M1124.5,1177.4c-12.2,0-17.9-8.7-17.9-18.1v-37h-7.4v-10h7.4v-18.6h13.1v18.6h12.6v10h-12.6v36.4c0,4.8,2.3,7.6,7.2,7.6h5.4v11.2h-7.8Z"/>
      <path class="cls-98" d="M1156.6,1148.6c0,11.3,5.8,18.2,16.6,18.2s11.2-2.1,15.8-6.7l8.3,7.8c-6.7,6.7-13,10.2-24.4,10.2-16.3,0-29.3-8.6-29.3-33.4s10.9-33.3,27.6-33.3,27.6,12.6,27.6,31.6v5.5h-42.2ZM1184.1,1130.6c-2.2-4.9-6.7-8.2-12.8-8.2s-10.8,3.3-13,8.2c-1.3,2.8-1.5,4.9-1.7,8.9h29.3c-.2-4-.5-6.1-1.8-8.9Z"/>
      <path class="cls-98" d="M1294.7,1177.4v-39.7c0-10.2-5.8-14.5-13.1-14.5s-13.5,4.5-13.5,13.9v40.3h-13.1v-39.7c0-10.2-5.8-14.5-13.1-14.5s-13.5,4.5-13.5,14.5v39.7h-13.1v-65.1h12.8v6.6c4.4-4.8,10.8-7.3,17.3-7.3s14.4,3.2,18.5,9.5c5.3-6.4,11.8-9.5,20.4-9.5s12.6,2.2,16.4,5.9c5,4.9,6.9,11.1,6.9,18.4v41.6h-12.9Z"/>
    </g>
  </g>
</svg>