<?xml version="1.0" encoding="UTF-8"?>
<svg id="_レイヤー_1" xmlns="http://www.w3.org/2000/svg" version="1.1" viewBox="0 0 1920 1920">
  <!-- Generator: Adobe Illustrator 29.1.0, SVG Export Plug-In . SVG Version: 2.1.0 Build 142)  -->
  <defs>
    <style>
      .st0 {
        fill: #c6c6c6;
      }

      .st1 {
        fill: #fff;
      }

      .st2 {
        fill: #dcdddd;
      }

      .st3 {
        fill: #001545;
      }
    </style>
  </defs>
  <g>
    <path class="st1" d="M385.2,716.8h444.3c11.6,0,21.1,9.4,21.1,21.1v444.3c0,11.6-9.4,21.1-21.1,21.1h-444.3c-11.6,0-21.1-9.4-21.1-21.1v-444.4c.1-11.6,9.5-21,21.1-21Z"/>
    <g>
      <path class="st1" d="M944.7,808.2h-37v-91.5h35.6c17,0,27.6,9.6,27.6,25s-6.2,17-12.3,19.4c7.1,2.8,13.8,9.6,13.8,21.2,0,17-11.5,25.9-27.7,25.9h0ZM942.1,729.2h-20.6v26.2h20.6c8.9,0,14.9-4.6,14.9-13.1s-6-13.1-14.9-13.1h0ZM943.4,767.9h-21.8v27.9h21.8c9.6,0,15-5.9,15-14s-5.4-13.9-15-13.9Z"/>
      <path class="st1" d="M1029.2,808.2v-6.5c-4.5,4.9-10.8,7.3-17.3,7.3s-12.2-2.2-16.1-5.9c-5-4.9-6.5-11-6.5-18.4v-41.6h13.1v39.7c0,10.2,5.8,14.5,13.1,14.5s13.5-4.5,13.5-14.5v-39.7h13.1v65.1h-12.9Z"/>
      <path class="st1" d="M1083.5,809c-10.7,0-19.7-1.8-27.4-9.4l8.6-8.6c5.3,5.4,12.3,6.8,18.8,6.8s14.3-2.8,14.3-9-2.4-7.1-8.7-7.7l-10.4-.9c-12.3-1.2-19.3-6.5-19.3-18s10.9-19.9,24.5-19.9,18.1,2,24.2,7.3l-8.2,8.3c-4.1-3.5-9.9-4.8-16.1-4.8s-11.8,3.3-11.8,8.3,2.6,6.8,9,7.5l9.1.8c13.5,1.2,20.6,7.1,20.6,18.5,0,13.8-11.6,20.8-27.2,20.8h0Z"/>
      <path class="st1" d="M907.7,932.3v-91.5h13.9v91.5h-13.9Z"/>
      <path class="st1" d="M981.8,932.3v-39.7c0-10.2-5.8-14.5-13.1-14.5s-13.5,4.5-13.5,14.5v39.7h-13.1v-65.1h12.9v6.5c4.5-4.9,10.8-7.3,17.3-7.3s12.2,2.2,16.1,5.9c5,4.9,6.5,11,6.5,18.4v41.6h-13.1Z"/>
      <path class="st1" d="M1028.6,877.2v55.1h-13.1v-55.1h-7.5v-10h7.5v-8.9c0-9.4,5.7-18.1,17.9-18.1h8.2v11.2h-5.8c-4.9,0-7.2,2.8-7.2,7.6v8.2h13v10h-13Z"/>
      <path class="st1" d="M1098.3,925.4c-4.2,4.4-10.7,7.7-19.5,7.7s-15.2-3.3-19.4-7.7c-6.2-6.4-7.7-14.7-7.7-25.7s1.5-19.1,7.7-25.6c4.2-4.4,10.5-7.7,19.4-7.7s15.3,3.3,19.5,7.7c6.2,6.4,7.7,14.6,7.7,25.6s-1.5,19.3-7.7,25.7ZM1088.4,881.8c-2.4-2.4-5.8-3.7-9.6-3.7s-7.1,1.3-9.5,3.7c-4,4-4.5,10.8-4.5,17.9s.5,13.9,4.5,17.9,5.7,3.8,9.5,3.8,7.2-1.4,9.6-3.8c4-4,4.5-10.8,4.5-17.9s-.5-13.9-4.5-17.9Z"/>
      <path class="st1" d="M1158.8,882.5c-2.9-3-5.3-4.4-9.8-4.4-7.1,0-13,5.7-13,14.7v39.6h-13.1v-65.1h12.8v7.1c3.3-4.6,10-7.8,17.3-7.8s11.1,1.7,15.5,6.2l-9.7,9.7h0Z"/>
      <path class="st1" d="M1260.2,932.3v-39.7c0-10.2-5.8-14.5-13.1-14.5s-13.5,4.5-13.5,13.9v40.3h-13.1v-39.7c0-10.2-5.8-14.5-13.1-14.5s-13.5,4.5-13.5,14.5v39.7h-13.1v-65.1h12.8v6.5c4.4-4.8,10.8-7.3,17.3-7.3s14.4,3.2,18.5,9.5c5.3-6.4,11.8-9.5,20.4-9.5s12.6,2.2,16.4,5.9c5,4.9,6.9,11,6.9,18.4v41.6h-12.9Z"/>
      <path class="st1" d="M1327.9,932.3v-5.9c-4.8,4.8-9.2,6.7-17.3,6.7s-13.5-1.9-17.5-5.9c-3.3-3.5-5.1-8.5-5.1-14,0-10.9,7.6-18.8,22.6-18.8h17.1v-4.6c0-8.3-4-12.2-14.3-12.2s-10.5,1.8-14.3,6.4l-8.5-8.1c6-7.2,12.3-9.5,23.2-9.5,18,0,26.8,7.7,26.8,22.3v43.5h-12.7ZM1327.6,903.5h-15c-8,0-11.9,3.3-11.9,9.4s3.7,9.2,12.3,9.2,8.3-.5,11.8-3.7c2.1-1.9,2.8-5,2.8-9.6v-5.3h0Z"/>
      <path class="st1" d="M1379.1,932.3c-12.2,0-17.9-8.7-17.9-18.1v-37h-7.4v-10h7.4v-18.6h13.1v18.6h12.6v10h-12.6v36.4c0,4.8,2.3,7.6,7.2,7.6h5.4v11.2h-7.8Z"/>
      <path class="st1" d="M1401.7,854.3v-13.9h13.9v13.9h-13.9ZM1402,932.3v-65.1h13.1v65.1h-13.1Z"/>
      <path class="st1" d="M1478.4,925.4c-4.2,4.4-10.7,7.7-19.5,7.7s-15.2-3.3-19.4-7.7c-6.2-6.4-7.7-14.7-7.7-25.7s1.5-19.1,7.7-25.6c4.2-4.4,10.5-7.7,19.4-7.7s15.3,3.3,19.5,7.7c6.2,6.4,7.7,14.6,7.7,25.6s-1.5,19.3-7.7,25.7ZM1468.5,881.8c-2.4-2.4-5.8-3.7-9.6-3.7s-7.1,1.3-9.5,3.7c-4,4-4.5,10.8-4.5,17.9s.5,13.9,4.5,17.9,5.7,3.8,9.5,3.8,7.2-1.4,9.6-3.8c4-4,4.5-10.8,4.5-17.9s-.5-13.9-4.5-17.9Z"/>
      <path class="st1" d="M1542.7,932.3v-39.7c0-10.2-5.8-14.5-13.1-14.5s-13.5,4.5-13.5,14.5v39.7h-13.1v-65.1h12.8v6.5c4.5-4.9,10.8-7.3,17.3-7.3s12.2,2.2,16.1,5.9c5,4.9,6.6,11,6.6,18.4v41.6h-13.1Z"/>
      <path class="st1" d="M944.7,1054.9h-37v-91.5h35.6c17,0,27.6,9.6,27.6,25s-6.2,17-12.3,19.4c7.1,2.8,13.8,9.6,13.8,21.2,0,16.9-11.5,25.8-27.7,25.9h0ZM942.1,975.8h-20.6v26.2h20.6c8.9,0,14.9-4.6,14.9-13.1s-6-13-14.9-13.1h0ZM943.4,1014.5h-21.8v27.9h21.8c9.6,0,15-5.9,15-14s-5.4-13.9-15-13.9Z"/>
      <path class="st1" d="M1034.4,1047.9c-4.2,4.4-10.7,7.7-19.5,7.7s-15.2-3.3-19.4-7.7c-6.2-6.4-7.7-14.7-7.7-25.7s1.5-19.1,7.7-25.6c4.2-4.4,10.5-7.7,19.4-7.7s15.3,3.3,19.5,7.7c6.2,6.4,7.7,14.6,7.7,25.6s-1.6,19.3-7.7,25.7ZM1024.5,1004.4c-2.4-2.4-5.8-3.7-9.6-3.7s-7.1,1.3-9.5,3.7c-4,4-4.5,10.8-4.5,17.9s.5,13.9,4.5,17.9,5.7,3.8,9.5,3.8,7.2-1.4,9.6-3.8c4-4,4.5-10.8,4.5-17.9s-.5-14-4.5-17.9Z"/>
      <path class="st1" d="M1095,1054.9v-5.9c-4.8,4.8-9.2,6.7-17.3,6.7s-13.5-1.9-17.5-5.9c-3.3-3.5-5.1-8.5-5.1-14,0-10.9,7.6-18.8,22.6-18.8h17.1v-4.6c0-8.3-4-12.2-14.3-12.2s-10.5,1.8-14.3,6.4l-8.5-8.1c6-7.2,12.3-9.5,23.2-9.5,18,0,26.8,7.7,26.8,22.3v43.5h-12.7ZM1094.8,1026.1h-15c-8,0-11.9,3.3-11.9,9.4s3.7,9.2,12.3,9.2,8.3-.5,11.8-3.7c2.1-1.9,2.8-5,2.8-9.6v-5.3h0Z"/>
      <path class="st1" d="M1162.8,1005c-2.9-3-5.3-4.4-9.8-4.4-7.1,0-13,5.7-13,14.7v39.6h-13v-65.1h12.8v7.1c3.3-4.6,10-7.8,17.3-7.8s11.1,1.7,15.5,6.2l-9.8,9.7h0Z"/>
      <path class="st1" d="M1221.3,1054.9v-6.9c-4.9,5.9-10.2,7.7-17.2,7.7s-12.3-2.2-15.9-5.8c-6.3-6.4-7.3-16.8-7.3-27.6s1-21.1,7.3-27.5c3.6-3.6,9.2-5.8,15.8-5.8s12.3,1.7,17.1,7.3v-32.9h13.1v91.5h-12.9ZM1207.5,1000.7c-11.9,0-13.6,10-13.6,21.6s1.7,21.7,13.6,21.7,13.5-10.2,13.5-21.7-1.7-21.6-13.5-21.6Z"/>
      <path class="st1" d="M931.9,1178.2c-13.8,0-23.5-3.2-32.4-12.1l9.1-9.1c6.7,6.7,14.3,8.9,23.5,8.9s18.9-5.1,18.9-14.1-1-7.3-3.6-9.5c-2.3-2.1-5.4-3.2-10-3.8l-10.8-1.5c-7.5-1.2-13.2-3.5-17.2-7.3-4.5-4.1-6.8-10-6.8-17.6,0-15.9,11.6-26.7,30.6-26.7s20.6,3.1,28.4,10.4l-8.7,8.7c-5.7-5.4-12.3-7.1-20.2-7.1s-16.6,5.9-16.6,14.3.9,6.4,3.3,8.5c2.3,2.1,5,3.3,10,4.1l10.9,1.7c8.3,1.3,13,3.2,17,6.8,4.9,4.5,7.5,10.8,7.5,18.8,0,16.6-13.6,26.6-32.9,26.6h0Z"/>
      <path class="st1" d="M1000.2,1190.4c-1.3,3.6-2.8,6.2-4.8,8.1-3.6,3.6-8.3,4.8-13.4,4.8h-5.3v-11.8h3.3c5.5,0,7.5-1.7,9.4-6.9l3.6-10.2-22.7-62.1h13.9l15.5,45.9,15.2-45.9h14l-28.7,78.1h0Z"/>
      <path class="st1" d="M1061.5,1178.2c-10.7,0-19.7-1.8-27.4-9.4l8.6-8.6c5.3,5.4,12.3,6.8,18.8,6.8s14.3-2.8,14.3-9-2.4-7.1-8.7-7.7l-10.4-.9c-12.3-1.2-19.3-6.6-19.3-18s10.9-19.9,24.5-19.9,18.1,2.1,24.2,7.3l-8.2,8.3c-4.1-3.5-9.9-4.8-16.1-4.8s-11.8,3.3-11.8,8.3,2.6,6.8,9,7.4l9.1.8c13.5,1.2,20.6,7.1,20.6,18.5,0,13.8-11.7,20.9-27.2,20.9h0Z"/>
      <path class="st1" d="M1124.5,1177.4c-12.2,0-17.9-8.7-17.9-18.1v-37h-7.4v-10h7.4v-18.6h13.1v18.6h12.6v10h-12.6v36.4c0,4.8,2.3,7.6,7.2,7.6h5.4v11.2h-7.8Z"/>
      <path class="st1" d="M1156.6,1148.6c0,11.3,5.8,18.2,16.6,18.2s11.2-2.1,15.8-6.7l8.3,7.8c-6.7,6.7-13,10.2-24.4,10.2-16.3,0-29.3-8.6-29.3-33.4s10.9-33.3,27.6-33.3,27.6,12.6,27.6,31.6v5.5h-42.2ZM1184.1,1130.6c-2.2-4.9-6.7-8.2-12.8-8.2s-10.8,3.3-13,8.2c-1.3,2.8-1.5,4.9-1.7,8.9h29.3c-.2-4-.5-6.1-1.8-8.9Z"/>
      <path class="st1" d="M1294.7,1177.4v-39.7c0-10.2-5.8-14.5-13.1-14.5s-13.5,4.5-13.5,13.9v40.3h-13.1v-39.7c0-10.2-5.8-14.5-13.1-14.5s-13.5,4.5-13.5,14.5v39.7h-13.1v-65.1h12.8v6.6c4.4-4.8,10.8-7.3,17.3-7.3s14.4,3.2,18.5,9.5c5.3-6.4,11.8-9.5,20.4-9.5s12.6,2.2,16.4,5.9c5,4.9,6.9,11.1,6.9,18.4v41.6h-12.9Z"/>
    </g>
  </g>
  <g>
    <path class="st2" d="M844.5,1863.3h-7.6v11.1h-2v-26.1h9.6c4.5,0,7.9,2.8,7.9,7.5s-3.3,7.5-7.9,7.5ZM844.3,1850h-7.4v11.5h7.4c3.6,0,6.1-1.8,6.1-5.8s-2.4-5.7-6.1-5.7Z"/>
    <path class="st2" d="M868.6,1872.6c-1.3,1.3-2.9,1.9-4.9,1.9s-3.6-.7-4.9-1.9c-1.9-1.9-2.2-4.6-2.2-7.1s.3-5.2,2.2-7.1c1.3-1.3,2.9-1.9,4.9-1.9s3.6.7,4.9,1.9c1.9,1.9,2.2,4.6,2.2,7.1s-.3,5.3-2.2,7.1ZM867.4,1859.6c-1-1-2.2-1.5-3.7-1.5s-2.7.5-3.7,1.5c-1.5,1.5-1.6,3.8-1.6,5.9s0,4.4,1.6,5.9,2.2,1.5,3.7,1.5,2.7-.5,3.7-1.5c1.5-1.5,1.6-3.8,1.6-5.9s0-4.4-1.6-5.9Z"/>
    <path class="st2" d="M893.3,1874.4h-1.9l-5-14.8-5,14.8h-1.9l-5.7-17.7h2l4.5,15.5,5.1-15.5h1.8l5.1,15.5,4.5-15.5h2l-5.5,17.7h0Z"/>
    <path class="st2" d="M903.9,1865.9c0,4.5,2,7,5.8,7s3.4-.6,4.9-2.1l1.4,1.1c-1.8,1.8-3.5,2.7-6.4,2.7-4.9,0-7.5-3.2-7.5-9.1s2.6-9.1,7.1-9.1,7.1,3.2,7.1,8.6v.8h-12.4ZM913.7,1861.1c-.8-1.9-2.5-3-4.6-3s-3.7,1.1-4.6,3c-.5,1.1-.5,1.7-.6,3.3h10.4c-.1-1.7-.2-2.3-.6-3.3h0Z"/>
    <path class="st2" d="M928.8,1858.1c-3,0-4.7,2.5-4.7,5.4v10.9h-1.9v-17.7h1.9v2.3c1-1.7,3.1-2.6,5.2-2.6s3,.4,4.3,1.7l-1.4,1.4c-1.1-1.1-1.9-1.4-3.4-1.4h0Z"/>
    <path class="st2" d="M938,1865.9c0,4.5,2,7,5.8,7s3.4-.6,4.9-2.1l1.4,1.1c-1.8,1.8-3.5,2.7-6.4,2.7-4.9,0-7.5-3.2-7.5-9.1s2.6-9.1,7.1-9.1,7.1,3.2,7.1,8.6v.8h-12.4ZM947.8,1861.1c-.8-1.9-2.5-3-4.6-3s-3.7,1.1-4.6,3c-.5,1.1-.5,1.7-.6,3.3h10.4c0-1.7-.1-2.3-.6-3.3h0Z"/>
    <path class="st2" d="M967.2,1874.4v-2.3c-1.6,2.1-3.2,2.5-5.2,2.5s-3.4-.6-4.3-1.5c-1.8-1.8-2.3-4.7-2.3-7.5s.5-5.7,2.3-7.5c.9-.9,2.5-1.5,4.3-1.5s3.7.4,5.2,2.5v-10.7h1.9v26.1h-1.9ZM962.2,1858.1c-4.3,0-5,3.7-5,7.4s.7,7.4,5,7.4,5-3.7,5-7.4-.7-7.4-5-7.4Z"/>
    <path class="st2" d="M997,1873c-.9.9-2.5,1.5-4.3,1.5s-3.7-.4-5.2-2.5v2.3h-1.9v-26.1h1.9v10.7c1.6-2.1,3.2-2.5,5.2-2.5s3.4.6,4.3,1.5c1.8,1.8,2.3,4.7,2.3,7.5s-.5,5.8-2.3,7.6h0ZM992.4,1858.1c-4.3,0-5,3.7-5,7.4s.7,7.4,5,7.4,5-3.7,5-7.4-.7-7.4-5-7.4Z"/>
    <path class="st2" d="M1008.8,1879.2c-.3.9-.7,1.7-1.2,2.1-.9.8-2.2,1.1-3.3,1.1h-.9v-1.7h.7c2,0,2.6-.7,3.2-2.4l1.4-3.9-6.5-17.7h2l5.3,15.5,5.3-15.5h2l-8,22.5h0Z"/>
    <path class="st2" d="M1037.8,1850v24.4h-2v-24.4h-7.8v-1.8h17.6v1.8h-7.8Z"/>
    <path class="st2" d="M1048.6,1877.1h-1.9l10.4-31.6h1.9l-10.4,31.6Z"/>
    <path class="st2" d="M1083.1,1874.4v-21.5l-7.9,17.9h-2l-8.1-17.9v21.5h-2v-26.1h2l9.1,20.1,8.9-20.1h2v26.1h-2Z"/>
  </g>
  <g>
    <path class="st3" d="M399.8,909.7c0,.1.2.3.4.6.5-.6.9-1.2,1.3-1.7,1-1.2,2.1-2.4,3.1-3.7.4-.5.6-1,0-1.6-.8-.9-.7-1.9-.4-3.1,1.2-5.2,5.6-6.8,9.8-9.2.4,1.4.9,2.7,1,3.9,0,2.9,1.6,5,3.6,6.9,1.1,1,2.2,2,3.3,2.9.4.4.9.6,1.6,1,.2-.5.4-.8.4-1.1-.3-1.9-.6-3.7-1-5.5-.2-.8-.8-1.1-1.6-.7-1.1.5-2,.3-2.2-1-.3-1.4-1.2-2.3-2-3.4-.7-.9-.9-2.2-1.5-3.6,1.9-.4,3.5-.8,5.2-1.1,1.4-.2,2.8-.5,4.3-.5,1,0,2.1.1,2.9.6,4.2,2.4,4.8,1.5,6.4-1.2,1.8.8,3.4,1.9,4.8,3.3,1.1,12.2,3.2,29.7,7,47,4,18.4,9.1,32.8,15,43.2.4,2.2,1.2,4.2,2.5,6.1.2.3.4.6.6,1-4.2-.3-8.2-.5-12.2-.7-1.8,0-3.7,0-5.5,0-1.9,0-3,2.4-1.8,4.1,2.4,3.4,4.9,6.8,7.4,10.1.7,1,.8,1.8.4,2.8-1.4,3.9-2.6,7.9-4.2,11.8-1.2,2.9-.5,5.5.5,8.2.4,1,.8,2,1.3,2.9.2.4.7.6,1.1.9.2-.4.5-.8.6-1.2.6-2,1.1-4.1,1.7-6.2-.3-.3-.8-.5-1.1-.8-.4-.6-.9-1.1-1.1-1.8-1.4-4,.7-7.1,2.9-10.2.4-.6.9-1.2,1.5-1.9.6,1.1,1.3,2.1,1.8,3.1.8,1.6,1.9,2.9,3.6,3.6,2.2,1,4.4,1.9,6.7,2.7.9.3,1.4-.2,1-1.1-.8-1.6-1.7-3.2-2.6-4.7-.5-.8-1.3-1-2,0-.7,1-1.5.7-2,0-1-1.5-2.5-2.3-4-3.1-1.5-.8-1.5-1.9-.2-2.8,2.3-1.6,4.7-3.2,7.1-4.7.4-.3,1-.3,1.5-.2.7,0,1.5.2,2.2.2,3,0,3.6-.4,4.2-3.6,4.7,3.5,9.7,5.3,15.1,5.3s.2,0,.4,0c1.6,1.4,15.1,13.6,32.9,24.2,3.1,1.9,6.5,3.8,10.1,5.6.4.6,1,1.2,1.6,1.8,1,.9,1.8,2.1,2.7,3.1.3.3.6.6.9.8.8.5,1.5.4,1.7-.7.1-.5.2-1,.3-1.5,4.1,1.8,8.3,3.4,12.6,4.8,2.3,2.5,4.5,5,6.8,7.6-3.9,3.8-8,7.5-12.6,10.6-2.2,1.5-4.6,2.6-7.1,3.5-1.7.6-4.1,2.2-5,3.9.5,0,.9,0,1.4,0,2,.2,3.9.3,5.9.5,1,0,2,.2,2.2-1.3.2-1.3,1-2,2.3-2.4,1.3-.4,2.3-1,3.1-2.2,1.9-2.9,5-4.5,7.8-6.5,1.3-.9,2.7-1.6,4.1-2.5.6-.4,1.1-.3,1.6.3,1.3,1.6,2.5,3.1,3.9,4.6.8.9,1.8,1.9,2.9,2.4,2.4,1,4.9,1.7,7.4,2.4.4.1.8,0,1.4,0,0-.5,0-1-.2-1.3-1-1.5-2-3-3.1-4.4-.5-.6-1.2-.9-1.8,0-.8,1.1-1.4,1.3-2.3.3-1.1-1.3-2.6-1.7-4-2.5-1.1-.7-1.9-2-2.9-3.2,2.1-1.3,3.9-2.5,5.7-3.6.5-.3,1-.6,1.4-1,1.1-.8,2.2-1.4,3.7-.9.8.2,1.8,0,2.7-.2,1.2-.2,1.8-.5,2.2-1,2.3-.3,4.6-.7,6.8-1.3,1.2.3,10.6,2.2,24.4,4.7,2.6,1.4,5.5,2.4,8.7,2.6,2.9.3,5.9.3,8.8.5.5,0,1,.1,1.6.2.2,0,.4,0,.6.1,1.5.3,2.2,1.4,2.5,2.8.3,2,.6,4.1.8,6.1.3,2.9.3,5.8.8,8.6.3,1.4,1.3,2.8,2.2,4,1.3,1.6,2.7,3,4.2,4.4.5.4,1.2.8,1.8.8.3,0,.7-.9.8-1.5.4-1.6.6-3.3.8-5,0-.3-.5-.8-.8-.9-.6-.1-1.3,0-2,.1-1.8.4-3.4-.6-3.9-2.4-.1-.5-.6-.9-.9-1.4-.2-.4-.6-.9-.6-1.3.2-2.3.5-4.5.6-6.8.1-1.7,0-3.5,0-5.2.2,0,.3-.2.5-.2,2.1,1.2,4.3,2.2,6.4,3.6,4.1,2.6,8.1,5.4,12.1,8.2.8.6,1.4,1.4,2.1,2.1,2.6,2.8,5.5,5.1,9.3,6,1.3.3,2.6.3,3.9.4.4,0,.7-.2,1.3-.4-.6-1.1-1.3-2-1.8-2.9-.6-1.1-1.1-2.2-1.6-3.3-.5-1.2-1-1.3-2.1-.6-.6.4-1.3.8-2.1.9-1.1.2-1.9-.3-2.5-1.3-.3-.5-.8-1-1.4-1.1-2.7-.7-4.8-2.3-6.8-4.1-2.4-2.2-4.5-4.5-6.5-7,25.6,4,54.1,7.5,74.3,7.5,4.4,0,8.4-.2,11.9-.5.6.1,1,.2,1,.2l1.7,2c-.6,1.7-1.5,3.7-2.8,6.1-1.3,2.4-2.7,4.3-3.9,6-.7,1-1.4,1.9-1.9,2.8-3.3-4.8-7.1-9-12.4-12-5-2.9-10.3-3.4-15.7-1.2-3,1.2-4,3.9-4.2,7.4l4.7,6.8c-1.3.8-2.7,1.7-3.9,2.4.5,2.1,1,4,1.3,5.9.3,2.5,1.8,3.4,4.1,3.4,2.3,0,3.6-1,3.6-3.5,0-.7.1-1.5.3-2.2l.4-.2-.3-.5c.5-2.1.6-3.9-2.2-4.3-.5,0-1.3-.8-1.2-.9,1.3-2.6-1.2-3.7-2.2-5.3,2.5-2.5,5.8-1.5,8.1,1.7,2.9,4,2.3,8.5,2.4,12.8.1,4.8.3,9.5,1.5,14.1-1.9-.4-3.8,0-5.5,1.1-.6.3-1.1.7-1.6,1.1,1.1-2.7.2-6.6-2.1-8-3.3-2-6.8-1.5-9.9.4-10.4,6.1-10.8,21.4-2.2,29.6,3.6,3.5,8.1,5.4,13,6.3,5.2,1,10.4,2.2,15.7,2.7,7.6.7,15.2.6,22.7,1.4,9,1,17.8,2.5,26.8,3.8.8.1,1.6.3,2.4.4,6.1,1.2,12.1,3.1,18.3,3.5,7.7.6,13.1-6.8,10.8-14.5-1.3-4.3-3.4-8-7.1-10.8-1.2-.9-2.4-2-3.5-2.9,1.8-2.2,3.6-4.1,5.1-6.3,2.8-4.3,4.7-9.1,6.2-14,2-2.9,3.4-6.3,3.9-10,.4-2.8.3-5.5-.2-8.1,0-.3.2-.5.3-.7l.7-1.9c.1-.3.3-.5.4-.8.4,0,.9,0,1.3.2,0,0,.2,0,.3,0,3.1,3.3,10.2,11.4,7.9,16.4-.1.3,0,.6.3.8,0,0,.1,0,.2,0,.2,0,.5,0,.6-.3,2.4-5-3.3-12.4-6.9-16.3,0,0,.1,0,.2,0,4,2.1,9.5,5.3,12.3,7.8,0,0,.2.1.3.1.2,0,.4,0,.5-.2.2-.2.2-.6,0-.8-2.6-2.4-7.4-5.2-11.3-7.3.5-.5.7-1.5,1.1-3.3.2-.7.5-1.3.8-1.9,1.5-2.6-.6-6.6-3.6-6.3-1.6.2-2.2-.5-3.3-1.4-1-.9-2.8-1.2-4.2-1.2-.4,0-1,1.8-1.3,2.9-.4,1.4-.5,2.9-.6,3.7-.3,0-.6,0-.9,0-3.7-4.5-8.9-7.8-15.1-8.7-.4,0-.8,0-1.1-.1.2-1.1-.2-2.8,0-4.4,0-1,.8-2.5,1.5-2.8,2.5-.8,5.1-1.3,7.7-1.7,1.5-.2,3.1-.3,4.6-.3.3.4.8.8,1.5.9,1.1.2,2.1-.5,2.3-1.5.1-1-.6-1.9-1.8-2-.8-.1-1.5.2-1.9.7-1.5-.4-3-1.1-4.4-1.8-3.4-1.8-6.6-4-10.6-4-3.7,0-10.2-.5-13.8,0-1.5.2-4.2,2.1-4.1,3,.3,2.9-1.4,4.4-2.9,6.2-1.1,0-2,.8-2.2,1.9-.1,1,.4,2,1.4,2.4-.4.5-.9.8-1.5,1.2-3.3,2-3,5.1-1.9,8.5-1,0,0,.2-.9.2-3.8,0-7.3-.9-10.1-3.6l.4-4.8-2.2-.5c0-.3-.2-.7-.3-1.2-.3-1.2-1-1.6-1.5-1.8-1.3-.5-3,.5-4,1.1,0,0-1.2-2.8-3.2-2-2,.8-4.1,3.2-4.1,3.2l-.7,2.2c-.2.2-.3.4-.5.6-20.5-2-77.4-19.7-103.2-28-.2-2.1-.5-4.2-.9-6.3-.3-1.7-1.3-3.3-2-5,2.6-1.2,3.9-3.5,4.4-6.5.3-1.5.6-3.4,2.9-3.6-.6-1.3-1.7-1.7-2.7-1.8-1.6,0-3.2,0-4.7.3-1.7.3-2.8,2.3-2.8,4.3,0,1.5,0,3.1,0,4.6-1.4-.4-2.7-1-4.1-1.3-3.2-.7-6.4-.5-9.5.7-2.4.9-4.7,1.9-7.1,3-5-3.9-9.8-8.9-14.3-14.5.6-1.4,1.3-2.8,1.9-4.2,1.4-3.5,2-7.2.7-10.9-.3-.8-.8-1.6-1.2-2.4,2.3-.8,4.6-1.7,6.1-3.8-.5-.9-1.3-1.2-2.2-1.2-2.6-.2-5.1.3-7.4,1.5-.4.2-.8.2-1.4.5,1.3-3.3,2.9-6,5.5-8,2.2-1.7,6.3-.6,7.9.8.8.7,1.4,1.5,2.1,2.2.3.3.7.4,1.1.6.1-.4.5-1,.3-1.3-.3-.6-.8-1.2-1.3-1.7-.4-.4-1-.7-1.5-1.1,5.4,2.4,10.5,5.3,15.1,9.2,2.6,2.2,5.3,4.3,7.8,6.5,1.6,1.4,2.8,3.2,4.3,4.7,1.6,1.7,3.6,2.9,5.8,3.5,1.5.4,3.1.4,5,.6-1.3-2.9-2.4-5.5-3.6-8.1-.1-.1-.3-.3-.4-.4-.4.4-.8.9-1.3,1.3-1.6,1.1-3.3.6-4.3-1.1-.2-.4-.7-.9-1.1-1.1-2.8-.7-4.8-2.7-6.6-4.7-2-2.3-3.8-4.7-5.6-7.1,0-.2,0-.3,0-.4-.4-.6-1-1.2-1.5-1.8-.6-.7-1.1-1.3-1.7-1.9,0-.1,0-.3.1-.4.6,0,1.2,0,1.8,0,1.6.8,3.2,1.6,4.8,2.4.9.5,1.9,1,2.8,1.6,0,.9.2,1.8.4,2.7.1.5.6.9.9,1.4.8-.6,1.1-1.3.9-2.8,1,.6,2,1.2,3,1.8,1.6,1,3,2.4,4.5,3.5,3.2,2.3,6.8,3.1,10.7,2.6.4,0,.7-.2,1.1-.4-1.7-2.4-3.3-4.8-5-7.2-.6.5-1.1.9-1.6,1.3-1.3,1.3-3.1,1.1-4.2-.3-.3-.4-.7-.8-1.1-.9-3.1-.5-5.8-2-8.1-3.8-.1-.4-.2-.9-.4-1.4,1.5.8,2.8,1.5,4.2,2.1,1.1.5,2.3,1,3.5,1.3.3.1.8-.2,1.2-.3-.2-.4-.2-1-.5-1.3-1-.7-2.2-1.3-3.3-1.9-.7-.4-1.4-.6-2.1-.9-1.3-.6-1.3-1.2-.4-2.1,1.1-1.1,2-2.2,2.2-4.3-.8.6-1.4.9-1.9,1.3-1,.9-1.9,1.8-2.7,2.7-.8,1-1.8,1.4-3,1.5-.2,0-.3,0-.5,0-1.2-1.1-2.3-2.2-3.4-3.4.1-.2.3-.4.4-.6.7-1.1,1.6-2,1.3-3.5,0-.4-.3-.7-.5-1-.3.2-.8.4-.9.7-.5.9-.9,1.8-1.4,2.8-.4-.7-.6-1.3-1-1.9-.2-.3-.6-.3-.9-.5,0,.2-.2.3-.3.5-.3-.3-.6-.6-.9-1-.7-.8-1.3-1.7-2-2.5-1.4-1.4-3.3-1.8-5.1-2.3,0-.1-.2-.2-.3-.3-1-.8-2.2-1.4-3.3-2.1-1.1-.7-1.1-1.1,0-1.8,2.2-1.4,4.4-1.8,6.8-.3.9.5,1.9,1.3,3.2.4-.4-.3-.7-.6-1-.9-.6-.5-1.3-.9-1.9-1.3-.7-.5-.6-1,.2-1.3,1.3-.5,2.7-.5,3.9,0,1.4.7,2.8,1.5,4.2,2.1.9.4,1.8.5,2.8.6-1.3-2.1-4-2.1-5.6-4.1,1-.2,1.9-.4,2.7-.6,1.5-.4,3-.7,4.4-1.3.5-.2.8-1.1,1.2-1.7-.7-.2-1.5-.6-2-.4-2.2.7-4.4,1.5-6.6,2.3-3.1,1.1-2.8.7-2.3-1.8.4-1.9.7-3.8,1.1-5.6.2-1.1.2-1.3-.6-2.1-1.7.9-1.5,2.6-1.8,3.9-.8-.4-1.6-.7-2.6-1.2-.2,1.4.5,2.2,1.2,2.6,1.2.7,1.3,1.5.9,2.7-.9,2.5-2.6,4.1-5.3,5.2.2-1.2.3-2.1.4-3.1,0-1.2.1-2.3.1-3.5,0-.3-.3-.6-.5-.9-.2.2-.6.4-.6.6-.3.9-.6,1.9-.8,2.8-.1.9,0,1.8,0,2.7,0,1.2-.4,2.1-1.6,2.6-1.5.7-3,1.5-4.4,2.2-.3-.8-.5-1.8-.4-3.2,0-1,0-1.9,0-2.9,0-.1.1-.2.2-.3.3-.5.6-.9.7-1.4.1-.4,0-.9,0-1.4-.4,0-.9,0-1.3,0-.3-1.3-.6-2.6-1.2-3.8-.2-.4-.5-.9-.7-1.4,2.9-1.1,4.4-3.3,5-6.3.2-1,.6-2,1.1-3,.3-.6.9-1.1,1.4-1.7-.7-1.6-2.9-2.6-5.2-2.2-4.1.6-5.4,3.2-5.2,7.3,0,.9.1,1.8.2,2.8-1.3-.5-2.5-1.2-3.8-1.5-4.8-1.3-9.4-.2-14,1.4-2.1.8-4.2,1.7-6.3,2.5-3.6,1.4-9.5.6-12-2.7-.9-1.1-1.2-2.4-1.2-3.8.1-3.7,1.6-6.9,3.4-10,1.5-2.7,3.2-5.3,3.8-8.3.7-3.2.7-6.3-1.1-9.3,3.2-.6,5.1-2.9,6.9-5.5-2.5-1-4.9-.9-7.2,0-.9.4-1.7,1.1-2.6,1.6-.4.2-.8.2-1.3.2,1.6-3.1,3.1-6.1,6.4-7.5,2.6-1.2,4.9,0,6.8,1.6,1.4,1.2,2.6,2.8,3.7,4.2.5.6,1,1.2,1.6.8.4-.3.5-1.4.2-1.8-.6-1-1.4-1.9-2.2-2.8-1-1-2.2-1.9-3.3-2.8,0-.1.1-.3.2-.4.7,0,1.4-.2,2.1,0,2.6.4,5.1.9,7.7,1.4.3,0,.6.1.8.3,1.4.9,1.5,1.6.8,3.4-.5,1.2-.7,2.5-.8,3.8,0,.9.5,1.4,1.6,1.1.3-1.8.6-3.7,1-5.8,1.2,2.2,3,3.4,5.1,4.1-1.1-2.8-3.8-4.3-5.3-7.1,2.4.2,4.6.4,6.7.7,1.2.2,1.5,1.3,1.6,2.3.1,1.7.2,3.5.4,5.2,0,.5.5.9.8,1.4.3-.4.8-.9.9-1.4.4-2.4,0-4.8-.8-7.2,1.8,0,2.9,1.2,4.3,2,1.6.9,3.3,1.7,5,2.6.2.1.5.2.7.1.5-.2,1.1-.5,1.6-.7-.4-.5-.6-1.1-1.1-1.3-2-1.1-4.1-2.1-6.1-3.3-1.2-.7-1.2-1.3-.1-2.3,1.6-1.5,3.2-3.1,3.4-5.5,0-.6,0-1.3-.1-2-.2,0-.3-.1-.5-.2-1.2,1.8-2.4,3.7-3.7,5.5,0-1.1.4-2.2-1-2.9,0,.3-.2.5-.2.7-.3,1.3-.4,2.7-.8,3.9-.2.6-1.1,1.3-1.7,1.3-2.1,0-4.3,0-6.5-.2,0-.1-.1-.3-.2-.4.3-.4.4-.9.8-1.2,1.1-.8,2.3-1.4,3.4-2.1.6-.4,1.1-.9,1.7-1.3-.1-.2-.2-.4-.3-.6-.9.3-1.8.6-2.8,1,.2-.3.5-.5.6-.8.1-.3.1-.8,0-1-.2-.2-.8-.2-.9,0-.8.8-1.4,1.8-2.1,2.7-.2.2-.3.5-.4.7-1.7,2.8-2,2.9-5.1,2.4-1-.2-1.9-.2-3-.4.3-2.5,2.4-3.8,3.4-5.8-.8-.5-1.3-.4-1.8.2-1.1,1.4-2.2,2.9-3.4,4.3-.3.4-1,.7-1.5.7-1.5,0-2.9,0-4.4-.2-.6,0-1.4-.5-1.7-1-.2-.3.2-1.1.4-1.6.2-.4.6-.7.8-1.1.1-.3.1-.6.2-1-.3,0-.8-.1-1,0-.6.5-1.2,1.1-1.8,1.7-1.2,1.1-2.3,2.3-3.6,3.3-.5.4-1.3.6-2.2,1,0-.7-.3-1.2-.2-1.7.4-2.7,2-4.6,4.3-6,1.6-1,3.1,0,4.5.5,1.5.7,3.1,1.4,5,1.2-1.4-2.3-3.9-2.6-6-3.7,1.1-1.4,2.7-1.7,4.1-2.4.8-.4,1.6-.4,2.4.1,1.1.6,1.3,1.5,1.2,2.6-.1.6-.3,1.3-.5,2.1,1.5-.3,1.5-1.5,1.9-2.5.5.5.9,1,1.4,1.4.1.1.2.3.4.5.6.4,1.4,1.1,2,.4.3-.3-.1-1.6-.6-2-1-.9-2.3-1.6-3.4-2.4-.3-.2-.5-.7-.8-1,.4-.2.7-.6,1.1-.7,2.7-1,5.1-.4,7.1,1.7.4.4,1,.7,1.5,1,.2.1.6-.1.9-.2,0-.3-.1-.6-.3-.8-.7-.8-1.4-1.6-2-2.4,0-.1,0-.3-.2-.6,1.7-.6,3.3-.4,4.7.8,1.7,1.5,3.3,3,5,4.5.1.1.3.3.4.3.5,0,1.1.1,1.6.1-.2-.5-.3-1.1-.6-1.4-1.3-1.2-2.6-2.2-3.9-3.4-.2-.2-.3-.6-.5-.9.3-.1.6-.3.9-.3,1.5,0,3,0,4.5,0,.8,0,1.7-.3,2.5-.6.3-.1.6-.5.9-.8-.3-.3-.6-.8-.9-.8-1.4,0-2.8,0-4.1,0-2,.1-4,.3-6.1.5-.2-1.8.4-2.7,1.9-3.1,1.1-.3,2.2-.5,3.4-.7.4,0,.8-.2,1-.4.4-.4.5-1,.8-1.5-.5,0-1.1-.4-1.5-.3-1.3.4-2.6.9-4,1.4.2-1.2,1.2-2.3-.2-3.8-1.2,2.5-2.3,4.9-3.5,7.2,0,0,0,0-.1-.1,0-1.8.2-3.7.1-5.5,0-.8-.5-1.6-.8-2.4,0-.2-.5-.4-.7-.4-.2,0-.5.4-.5.6,0,.9-.1,1.9.2,2.8.9,2.2.3,4.2-.5,6.2-.3.6-2.1,1-3.2.7.6-2,1.6-4,.4-6.5-.6,1-1,1.8-1.5,2.6-.2-.1-.6-.3-1-.4-.1,0-.3.1-.4.2.2.5.3,1.1.6,1.4.7.6.6,1.2.4,1.8-.2.8-.4,1.5-1.4,1.7-2.2.5-4.5,1-6.7,1.6,0-1.2-.1-2.5-.3-3.9,0-.7-.3-1.4-.7-1.9-.2-.3-.8-.5-1.1-.4-.3.1-.6.7-.5,1,0,1.3.3,2.5.4,3.8,0,1.5-.3,2.7-2,3.5-1.3.6-2.4,1.7-3.6,2.5-.4.3-.9.5-1.3.8-.8-2.3.6-4.8-1.4-6.9-1.1,2.4-.7,4.5-.8,6.6,0,.5-.3,1.1-.4,1.6,0,.3-.4.5-.4.7,0,1.9-1.4,2.8-2.5,3.9-.8.9-1.4.8-1.9-.3-.3-.5-.6-1-1-1.5-1,.7-.9,1.6-.4,2.3,1,1.4.8,2.7,0,4.1-.7,1.4-1.2,2.9-1.8,4.4-.3.9-.6,1.6-1.7,1.8-1.1.3-2.1.8-3,1.4-1.7,1.1-3.5,1.9-5.6,1.8-1.3,0-1.5.5-1.1,1.7.7,2.3,2.5,3.1,4.6,3.7,1.8.5,3.5,1.1,5.3,1.7,1,.3,1.4,1.2.8,2-1.4,2-2.9,4-4.3,5.9-2.9,4-6.1,7.9-8.1,12.4-1.5,3.5-2.3,7.2-2,11-6-2.6-12.2-6.2-18.4-10.4-.9-.8-1.8-1.6-2.7-2.5-.3-.3-.5-.6-.8-.9,0-.1,0-.3,0-.4,1.2-.1,2.4-.2,3.6-.3,1.1,0,2.1-.1,3.2-.2,1.7,0,2.7,1,2.9,2.7.1.9.3,1.8.5,2.6.1.4.6.6.9.9.3-.4.8-.8.8-1.1-.2-1.6-.5-3.2-.8-4.7,2.8.2,4.3,1.6,5.4,5.3.2.9.6,1.7,1.1,2.4.2.4.8.5,1.4.8.3-2.7-1.3-4.5-2.1-6.7,1.2.3,2.3.7,3.4.8,1,.1,2,0,3-.3.3,0,.8-.7.7-1-.1-.4-.6-1-1-1.1-1.4-.4-2.9-.6-4.3-.9-.3,0-.7,0-1,0,1.8-1.6,3.6-3.2,5.3-4.7,0,0,.2-.2.3-.3.6-.6,1.2-1.4.5-2.1-.2-.2-1.5.2-1.9.6-1.2,1.1-2.1,2.4-3.3,3.5-1.2,1-2.5,1.9-3.9,2.5-.5.3-1.4-.2-2.2-.4.2-.7.2-1.5.5-2,1.6-2,2.4-4.1,2.3-6.6-.1,0-.2-.2-.3-.2-.9,1.2-1.8,2.4-2.7,3.6-.5-.9-.9-1.8-1.4-2.6-.4-.7-1.1-1.1-1.7-.7-.3.2-.2,1.2,0,1.7.2.6.7,1.1,1.1,1.6,1.2,1.6.4,4.2-1.5,4.6-2,.4-4,.5-6.2.8.9-3,2.4-5.3,3.8-7.7.3-.5.9-1,.1-1.4-.4-.2-1.2,0-1.4.3-.7,1-1.3,2-1.9,3.1-.8,1.6-1.5,3.4-2.3,5-.2.4-.9.7-1.5.8-.9.1-1.7.2-2.6.3-.6-.5-1.3-1-1.9-1.4.1-.3.2-.5.4-.8.9-1.6,2-3.2,2.9-4.9.3-.5.3-1.2.4-1.7-.7,0-1.8,0-2.1.3-.9,1.1-1.5,2.5-2.2,3.8-.3.7-.6,1.4-.9,2.1-3.5-2.7-6.9-5.5-10.2-8.2.9-.6,1.8-1.1,2.6-1.7.8-.5,1.6-.4,2.3.2,1.4,1.2,2.8,2.4,4.3,3.5.4.3.9.4,1.4.6.4-1.7-.7-2.4-1.6-3.1-.7-.6-1.5-1-2.2-1.6-.7-.6-.8-1.1,0-1.6,2.2-1.1,4.4-1.7,6.7,0,.6.5,1.4.9,2.1,1.2.3.1.8,0,1.2,0-.2-.4-.3-.8-.6-1.1-.6-.5-1.3-.9-1.8-1.4-.7-.7-.5-1.2.4-1.4,2-.6,3.6.2,5.2,1.5,1.3,1.1,2.7,2,4.1,3,.6.4,1.5.6,1.8-.3.1-.4-.2-1.3-.6-1.6-1.2-.8-2.6-1.5-3.8-2.2-.4-.2-.6-.7-.9-1,.4-.1.7-.3,1.1-.4,1.3-.1,2.6-.2,3.9-.3.6,0,1.3,0,1.8-.4.4-.2.8-.9.7-1.2-.1-.4-.7-.9-1.2-1-.7-.1-1.5,0-2.4.2.8-1.2,1.6-2.4,2.5-3.6.3-.4.5-.8.7-1.1.4-.7.5-1.4-.3-1.8-.8-.4-1.2.3-1.6.9-1,1.8-2,3.6-3.1,5.3-1.2,1.8-3.1,1.6-5.1,1.7.9-2.9,1.8-5.5,2.6-8.1-.2-.1-.3-.2-.5-.4-.7.7-1.4,1.3-2.2,2.1-.2-.4-.3-.8-.5-1.3-.5-1.1-.9-2.2-2.3-2.3-1-.1-1.4.3-1.1,1.3.1.4.5.8.7,1.1,0,0,.1.1.2.2,3.9,3.2,2,6.6-1.3,8.6-.7.4-1.5.7-2.5,1-.2-2.6.9-5-.3-7.2-.1,0-.3,0-.4,0-.2,1.4-.4,2.8-.6,4.2-.1.8-.2,1.7-.5,2.4-.3.6-.8,1.3-1.4,1.6-2,.9-4.1,1.6-6.2,2.4-.2-1-.4-2.2-.7-3.3-.2-.9-.6-1.7-1-2.5-.2-.3-.7-.5-1-.7-.1.4-.4.8-.4,1.2.2,1.3.5,2.6.7,3.8.3,1.3,0,2.4-.7,3.3-4.2-3.6-8.1-7.1-11.6-10.3.1-1,.4-2,.6-3,.9-3.3,3-6.3,3.2-9.8.1-2,0-4,0-5.3,1.7-.9,3.5-1.7,5.3-2.6,3.5-1.8,4.4-6.9,1.5-9.4-.4-.4-1.1-.5-1.6-.7-.1.4-.2.9-.4,1.3,0,.3-.2.5-.4.7-.7.6-1.3,1.3-2.1,1.7-2.1,1-3.9,2.4-4.8,4.6-1.4-.9-2.6-2-4-2.7-3.3-1.8-7-2.2-10.7-2.3-4.2-.2-8.3-.3-12.4-1.3-3.9-1-7.3-2.8-9.8-6-1.8-2.4-2.5-5.2-2.6-8.2-.1-3.6.9-7,1.6-10.5,1-4.6.9-9.1-2.1-13.1-.3-.4-.7-.8-1.1-1.3,2.1-1.1,3.7-2.5,5-4.4.4-.6.2-1-.4-1.1-1.2,0-2.5-.3-3.6,0-1.9.7-3.6,1.9-5.4,2.8-.3.2-.8.3-1.1.2-.2,0-.3-.7-.2-1,.4-2.7,1.2-5.2,2.6-7.5,1.6-2.5,4-2.8,6.5-2.4,1.5.2,2.9,1.1,4.2,1.8.6.3,1.2,1.1,1.6.3.2-.4-.3-1.6-.8-1.9-1.3-.8-2.9-1.3-4.7-2.1.7-.3,1.1-.7,1.5-.7,2.3-.4,4.7-.7,7.2-1.1.8,1.7.8,3.6.6,5.5,0,.6,0,1.2,0,1.8,0,.3.4.6.6.7.2,0,.6-.3.7-.5.2-.9.2-1.8.3-2.7,0-.2,0-.3.3-.7,1.1,1.1,2.1,2.1,3.2,3.2.5.5.8,1.2,1.4,1.5.6.3,1.6.5,2,.2.7-.6.2-1.3-.4-1.9-1.8-1.6-3.5-3.3-5.2-5-.6-.6-1.1-1.4-1.7-2,0-.1.2-.3.3-.4,1.3.5,2.5,1,3.7,1.7.7.4,1.3,1.2,2.1,1.5.7.3,1.6.1,2.4,0-1.6-2-4.7-1.7-6-4.4,1.7-.4,3.4-.9,5-1.2.9-.2,1.9-.3,2.8-.6,1.8-.6,3.5-.5,5.3,0,.4.1.9.5,1.2.8.9,1.3,1.8,2.6,2.7,4,.4.7,1,1.1,1.7.7.7-.5.5-1.2,0-1.8-.7-1-1.6-2-2.4-3.1.3,0,.5,0,.8,0,.8,0,1.6,0,2.5-.2.8-.1,1.9-.1,1.9-1.2,0-.3-1.2-.8-1.8-.9-1.6-.2-3.2,0-4.8-.1-.8,0-1.5-.3-2.2-.6-.8-.3-.9-.8-.4-1.5.9-1.5,1.7-3,2.4-4.6.3-.8.1-1.7.2-2.8-1.6.5-2,1.7-2.5,2.6-.9,1.7-1.7,3.5-2.6,5.2-.6,1.1-1.4,1.8-2.7,2-1.6.3-3.1.8-5,1.4.2-1.3.3-2.3.6-3.2.2-1,.7-1.9.9-2.8.1-.4.1-.9,0-1.3-.2-.4-.6-.7-.9-1.1-.3.3-.7.6-.9,1-.3.8-.4,1.7-.5,2.6-1.3-.8-1.9-2.5-3.8-2.2-.2,1.3.5,2.1,1.5,2.7,1.7,1.1,2.1,2.4,1.1,4.2-.1.2-.3.5-.6.6-1.8.5-3.5.9-5.8,1.5.3-1.4.5-2.5.8-3.6.2-.8.6-1.5.7-2.4,0-.5-.2-1.1-.3-1.6-1.6.6-1.4,1.8-1.7,2.8-.4,1.4-.7,2.8-1.2,4.1-.1.4-.6.9-1,1-1.7.5-3.4,1-5.1,1.3-1.5.2-2-.5-1.6-2,0-.3.3-.5.3-.8,0-.5,0-.9,0-1.4-.4.3-1,.4-1.2.8-.7,1.4-1.2,2.8-1.9,4.2-.5.9-1.3,1.8-2,2.6-.2.3-.8.5-1,.4-.3-.2-.4-.7-.5-1.1-.2-.9-.3-1.8-.6-2.6-.2-.5-.7-.9-1.1-1.3-.2,0-.3.1-.5.2.3,1.9.5,3.7.8,5.6-.6.3-1.1.5-1.7.8-.1-.5-.3-.9-.3-1.3.1-2.8.3-5.6,1.4-8.2.7-1.9,2.1-2.9,4.2-2.9,1.1,0,2.3-.2,3.4-.3.2,0,.5,0,.7-.1.6-.3,1.5-.6,1.1-1.5-.2-.4-1.2-.8-1.7-.7-1.4.2-2.7.6-4.1.9-.3,0-.6,0-.9,0-.1-.1-.2-.2-.3-.4,1-1.4,2-2.9,3.2-4.1,1.2-1.1,2.5,0,3.8.2,1.8.4,3.5,1,5.3,1.5.4,0,.9-.2,1.4-.4-.3-.3-.6-.9-1-1-1.8-.6-3.6-1.1-5.4-1.7-.6-.2-1-.5-1.6-.8.3-.5.5-1.1.9-1.5,2.1-2.3,4.6-2.7,7.5-1.4.7.3,1.5.3,2.3.3.4,0,.7-.4,1-.7-.2-.3-.4-.8-.8-.9-1.2-.4-2.5-.6-3.7-1-.3,0-.8-.4-.8-.5,0-.3.3-.8.6-1,1.7-1.2,3.8-1,5.7.3,1.2.9,2.6,1.7,4.3,1.2.4,0,.7-.4,1-.6-.3-.3-.5-.8-.8-.9-1.3-.6-2.7-1-4-1.6-.5-.2-.8-.6-1.2-.9.3-.4.6-1,1-1.1,1.5-.6,3-.9,4.5-1.4,1.2-.4,1.6-1.3,1.2-2-.4-.8-1.3-.8-2.3-.2-1.9,1.2-3.8,2.4-5.8,3.5-.4.2-.7.3-1.1.5-.8.3-1.1,0-1.1-.7-.1-1.3-.2-2.6-.3-3.9-.2-1.6-.7-2.9-2.7-3.6.2,1,.4,1.9.6,2.7.6,2.4,1.2,4.9-.1,7.3-.7,1.3-1.6,2.4-2.9,3.2-.5-1.6-.9-3.1-1.5-4.5-.4-.9-1.1-1.7-1.8-2.4-.2-.2-.7-.1-1-.1,0,.3-.1.7,0,.9.2.6.6,1.2.9,1.9-1.5-.3-2.8-.6-4.2-.8-.4,0-.9.2-1.3.4.2.4.3,1,.6,1.2.6.4,1.4.7,2.1.9,1.1.2,2.3.3,3.4.5.2,0,.5.2.6.4.8,1.2.6,3.1-.5,4.1-1.5,1.4-3,2.7-4.6,4.2-.3-.5-.7-1.1-1.1-1.7-.8-1.3-1.8-2.5-3.3-2.9-.4-.1-.9,0-1.3,0,.2.4.2.9.5,1.2.6.7,1.3,1.4,1.9,2.1,1.3,1.7,2.1,3.3.6,5.4-1.1,1.5-1.7,3.3-2.6,5.1-1.9-1.8-2-4.9-4.4-6.2-.2,0-.3.1-.5.2.2.9.3,1.9.7,2.7.9,1.8,2,3.6,2.9,5.4.2.4.3,1,.2,1.4-.3,1.9-.7,3.7-1.1,5.8-1.2-.5-2.2-.9-3.1-1.4-.7,1.3.2,1.9.9,2.3,1.3.7,1.8,1.7,1.8,3.2,0,1.8.5,3.6.6,5.5,0,.4-.1,1-.4,1.3-1.3,1.3-2.7,2.7-4.1,3.8-.9.7-2.1,1.1-3.1,1.7-.5.3-1.2.4-1.4.8-.1.3.4.9.7,1.4,1.3,2.6,3.9,1.9,6.1,2.1,1.3.1,2.6,0,3.9,0,1.8,0,2.4.7,2,2.4,0,.4-.3.8-.4,1.2-1.6,4.3-3.3,8.6-4.8,12.9-1.6,4.7-2.2,9.6-1.1,14.6,0,.2,0,.4,0,.7-.5-.2-.9-.4-1.3-.6-4.1-1.7-8.3-3.5-12.4-5.2-1.1-.4-2.1-.3-3,.5-.9.7-1,1.7-.7,2.7.7,2.6,1.5,5.2,2.2,7.7.3,1,.6,1.9.9,2.8.3.9.1,1.6-.6,2.4-3.5,3.7-7,7.5-10.3,11.4-1,1.2-1.5,3-1.7,4.6-.2,1.9,0,4,.2,5.9ZM550.9,897.5c.2-2.9.8-3.6,2.7-3-1,1.1-1.8,2-2.7,3ZM772.4,1125.8c-.2,0-.5,0-.7,0,.2,0,.4-.1.6-.2,0,0,0,0,.1.1ZM777.9,1124.1c-1,.5-2,.8-3,1.1-.1-.1-.2-.3-.3-.4-.6-.8-.9-1.8-1.5-2.6-.7-.9-.6-1.4,0-1.8.3,0,.7,0,1,0,2.6-.1,3.2,1.6,3.9,3.7ZM779.2,1126.5c1.1,1.3,2.2,2.5,3.3,3.6-2.3-.3-4.1-1.3-5.7-2.8.8-.2,1.6-.5,2.4-.8ZM786.2,1127.8c-.9-.4-1.8-.9-2.7-1.1,0,0-.1,0-.2.1-.3-.4-.7-.8-1-1.2-.8-1-1.2-2.4-2-3.4-1.3-1.6-.5-2.3.6-2.8,2.6,2.3,4.9,4.9,5.3,8.5ZM797.4,1129.3c-1.2-.5-2.4-1.2-3.6-1.5-.3,0-.8.9-1.2,1.4.4.3.8.7,1.3,1,.5.4,1.1.8,1.6,1.3-.7.3-1.4,1-2.1,1-1.9-.2-3.5-.7-5-1.5.2-1.3.1-2.7-.3-4.1-1-3.3-2.6-6.1-5.4-8.2,0,0,0,0-.1-.1.8-.3,1.7-.6,2.3-1.1,2.2-1.7,3.8-.9,5.6.7,3.5,3.1,6.4,6.4,7,11.1ZM778.5,1137.9c.5,0,.9.1,1.4.2,3.5.3,6.3-1.6,7.7-4.4,2.3,1.2,5,1.8,8.2,1.7-2.6,2.7-5,4.5-8.2,4-3-.5-6-1-9-1.5ZM762.7,1132.7c.1-.2.3-.3.4-.5,0,0,0,0,0,0,.4.3.8.6,1,.9-.2,0-.3,0-.5,0-.3,0-.7-.1-1-.2ZM757.8,1127.1c5.7.7,11.2,1.7,16.6.8,2.7,2.7,5.9,4.7,10.5,4.5-2,2.1-3.8,3.4-6.3,3-4.1-.6-8.1-1.4-12.2-2.1-.5-1.1-1-2.1-1.5-3.2-.7.4-1.4.8-2.1,1.2-.5-1-1-2-1.4-3-.6.3-1.2.7-1.9,1.1.7.6,1.3.9,1.5,1.3,0,.1-.5,1-.7,1,0,0,0,0-.1,0-.9-1.5-1.7-3-2.3-4.6ZM757.1,1121.2c3.8,0,7.5-.1,11.2-.3,2,0,2.4,1.2,3,2.8-2.7,1.3-5.5,1.6-8.4,1.4-1.7-.1-3.3-.4-5-.7-1.2-.5-1.3-1.3-.9-3.3ZM751.9,1130.7l.5-3.7c.6,0,1-.1,1.4,0,0,0,0,.1,0,.2.4,1.5,1.4,2.9,1.9,3.9-1.3-.1-2.6-.2-3.9-.4ZM701.7,1085l1.8-1c0,1.2-.1,2.3-.2,3.5-.4,0-.8.1-1.1.2-.1-.9-.4-1.8-.5-2.6ZM703.7,1080.2c0,.8,0,1.6-.1,2.3l-1.9,1.1s0,0,0,0c.2-1.3-.8-3.5,2.1-3.4ZM698.2,1084.6l1.5.2c0,.9-.2,1.8,0,2.6-.8-.9-1.2-1.8-1.5-2.8ZM699.8,1083.7l-1.8-.3c-.1-1,0-2,0-3,1.5.9,1.8,2,1.7,3.3ZM459.3,996.1c-1.6,1.4-3,2.7-4.6,4.2-.8-2.3-1.6-4.4-2.5-6.7,2.8.3,4.8,1.5,7.1,2.6ZM473.8,937.9c0-.7-.3-1.6-.1-2.3.2-.9.7-1.9,1.2-2.7,1-1.7,2-3.4,3-5.1,1.4,1.6,1.3,3.6.4,5.7-.5,1.2-.6,2.5-.8,3.6-1.2.5-2.4,1.1-3.6,1.7,0-.3,0-.6,0-1ZM483.3,928.6c0,0,0,.1.1.2,0,.1.2.3.3.4-.2,0-.4,0-.6,0,0-.2.1-.4.2-.6ZM488.7,937.7c-1.6,0-3.1,0-4.6.7-.1,0-.2,0-.6-.2,1.1-1.2,2.2-2.5,3.4-3.7.6,1.1,1.2,2.1,1.8,3.2ZM481.1,935.7c-.1,0-.3-.1-.4-.2.2-1.3.3-2.6.7-3.9.1-.4.8-.9,1.3-.9.7,0,1.4,0,2.1.2.2.3.4.6.5.9-1.4,1.3-2.8,2.6-4.2,3.9ZM479.8,927c-.3-.3-.6-.7-.9-.9,0,0,0,0,0-.1.3-.6.7-1.1,1.2-1.8.5.7,1.1,1.4,1.6,2.1-.2.3-.4.6-.7.8-.4.5-.8.5-1.3,0ZM478.8,997.5c2.3,1,4.6,2,7.1,2.6-3.6-.4-6.9-1.7-10-3.6,1,.3,2,.6,2.9,1ZM479.7,906.3c3.3,3.1,7,6.3,10.9,9.7-.1.1-.3.2-.4.4-.9.7-1.8,1.4-2.6,2.3-.7-2-2.2-3.6-3.7-5.2-1.2-1.3-2.5-2.6-3.3-4.2-.5-.9-.7-1.9-.7-2.9ZM492.1,917.3c.4.4.8.7,1.3,1-.1,0-.3,0-.4-.1-.4-.1-.8-.3-1.1-.5.1-.1.2-.3.3-.4ZM502.7,925.8c0,.2-.1.3-.2.5-.3.5-1,1.1-1.6,1.1-1.7.2-3.4.3-5.1.3-1.5,0-1.9-.9-1.1-2.2.4-.7.8-1.3,1-2.1,0-.4-.3-.9-.5-1.4-.4.2-1,.4-1.2.7-.6,1.2-1,2.5-1.8,3.6-.8,1.1-1.8,2.1-2.7,3.1-.4-1.8-.8-3.6-1.2-5.3-.1-.6-.4-1.3-.3-1.9,0-.5,0-1,0-1.4.9-1.1,2.2-1.2,3.7-.8,1.2.4,2.6.4,3.9.6.1,0,.2,0,.4,0,2.2,1.8,4.5,3.6,6.8,5.4ZM504.8,927.5c-.3,0-.5,0-.8,0,0-.2.1-.3.2-.5.2.1.4.3.6.4ZM532,943.8c.1.9.3,1.9.5,2.9.2.7.6,1.4,1,2.4-2.1-.5-4-.8-5.8-1.3-1.8-.5-3.5-1.3-5.2-1.5-1.7-.2-2.5,1-2.1,2.7.3,1.1.8,2.1,1.2,3.1-1,0-2.1.2-3.2.1-1.4,0-2.2.8-2.6,1.9-.4,1,0,1.8.7,2.7,2.9,3.5,5.7,7,8.6,10.6-2.4-.8-4.3-.1-6.4,2.9-1.1,1.5-1.8,3.3-2.8,4.9-5.7-3.2-11.6-2.2-17.4-.3-2.6.8-5.2,2-7.9,2.5-3.8.7-7.4-.3-10-3.5-1.5-1.8-1.2-4-.7-6.1.7-3.4,2.5-6.4,4.3-9.3,2-3,3.5-6.2,3.7-9.9.1-2-.5-4-.8-6.2,1.1-.3,2.4-.6,3.6-1.2.3.5.6,1.1.9,1.6.9,1.7,1.1,3.7,1.9,5.5,1.1,2.6,2.4,5.2,4.8,6.9,1.3,1,2.8,1.7,4.6,2.7,0-1.2-.2-2-.2-2.8,0-1.5-.1-2.9,0-4.4,0-1.9-.1-2.1-2-1.7-1,.2-2.1.2-2.8-.7-.4-.5-.6-1.1-.8-1.7-.2-.5-.3-1.3-.7-1.6-1.6-1.5-2.8-3.2-3.7-5.1.2-.2.5-.4.7-.7-.4-.7-.9-1.1-1.5-1.3-.2-.5-.4-1.1-.6-1.7-.5-1.5-.8-3-1.2-4.5,2.5-1.4,5.4-.8,7.9.9,1.2.9,2.2,2.1,3.4,3.1.3.3.9.3,1.3.4.2-.5.6-1.2.4-1.6-.5-.9-1.2-1.7-2-2.3-1-.7-2.2-1.1-3.3-1.7-.3-.2-.5-.7-.7-1,.4-.1.7-.4,1.1-.4,2.6,0,5.2,0,7.7,0,1.5,0,2.5.9,3.5,1.8,1.2,1.1,2.2,2.3,3.2,3.4.6.7,1.4.7,2.1.3,0,0,0-.2,0-.3,5.8,3.8,11.6,7,17.2,9.4ZM521.2,986c0-2.8-.8-5.5-2.3-8,2.7-.4,4.4-2.1,5.9-4.2.8-1.2,1.8-2.8,3.8-1.9,0,0,0-.1,0-.2.5.8,1,1.6,1.5,2.4.2.3.3.7.6.9,2.1,1.4,2.9,3.8,4.5,5.5.6.6,1.2,1.1,1.8,1.6.2.2.7.4.8.3.2-.2.4-.6.4-.9,0-.8-.2-1.6-.3-2.5.9.2,1.6.3,2.4.5.9.2,1.3-.1.9-.9-.9-1.6-1.8-3.2-2.9-4.7-.7-1-1.3-.9-2.1,0-.5.6-1.5.6-1.8,0-2.1-4.6-3.8-9.5-5-14.6,1.8.9,3.4,1.8,5,2.5,2.5.9,5.1,1.5,7.7,1.2,1-.1,1.8-.6,2-1.8,0-.6.2-1.1.4-1.8,2.4,0,4.6.6,6.8,1.5,2.8,1.2,5.7,2.1,8.6,2.5,3,6.1,6.9,13.3,11.4,20.6-.1,0-.2.1-.4.2-.9.5-2,.5-3,.8-.6.2-1.2.3-1.6.6-.1.1.3.9.4,1.3.7,3.1,3.6,2.7,5.7,3.5,1.1.4,2.3.6,3.5.9.5.8,1.1,1.6,1.6,2.4,0,0,0,.1,0,.2-1.7,2.7-3.5,5.3-5.1,8-2.3,3.7-4.8,7.3-6,11.5-1.7,5.8-2,11.5,1.3,17,.3.5.7,1,1.1,1.5.3.4.7.9,1.3,1.6-1.8,0-3.2,0-4.7,0-1.9,0-3.8.2-5.7.3-.4-1-.8-2.1-1.2-3.1-.3-.8-.8-1.2-1.7-.6-.6.4-1.4.7-2.1.8-1.3.2-2.3-.3-2.8-1.7-.1-.4-.5-.9-.8-1-3.9-1.4-6.4-4.5-8.8-7.7-2.3-3.1-4.3-6.4-6.4-9.7-.6-1-1-2.1-1.5-3.1-.8-1.6-1.6-3.2-2.4-4.9-.4-.8-1.1-1.1-2-1.1-1.4,0-2.7,0-4.1-.3-1.6-.2-2.4-1.5-3.2-2.7-1-1.6-1.5-3.5-1.5-5.5,0-2.5,0-4.9,0-7.4ZM558.4,1039.7c0-.1.2-.3.2-.4,1.9.5,3.8.9,6.1,1.4-.2.2-.3.3-.5.5-1.9-.3-3.7-.6-5.6-1,0-.2-.2-.3-.2-.5ZM524.9,960.7c-.4-.9-.7-1.9-1-2.9.2,0,.5-.2.7-.3,2.1,4.5,4.2,9,6.3,13.4-.1,0-.2.2-.3.2-.4-.4-1-.8-1.3-1.3-1.5-3-3-6.1-4.4-9.2ZM583.3,967.8c.3.2.7.4,1,.7-.1,1.2,0,2.4-.5,3.6h-1.6c0-.4-.1-.9,0-1.3.3-1,.7-2,1.1-2.9ZM595.6,956.7c.1,0,.3.2.4.2,0,0,0,0-.1,0-.5-.2-1-.4-1.4-.7.4.1.8.3,1.1.5ZM585.9,969.4c.8.4,1.7.8,2.6,1.1-.3.3-.7.7-1,1-.4.4-1.1.4-1.7.7-.2-.9,0-1.8,0-2.7ZM580.5,978.4c-.1-.8-.2-1.1-.2-1.5,0-3,.8-3.9,3.7-2.9-1.2,1.5-2.2,2.8-3.5,4.4ZM572.5,983.6c-4.3-7-8.1-14-11.1-19.9,1.9.2,3.9.1,5.9-.2,2.9-.5,5.3-2,7.4-4,.2-.2.4-.4.4-.4,2.1,2.4,4,4.8,6.2,7,.2.2.4.4.6.6-.1.3-.2.6-.4.8-.7,1.2-1.3,2.3-2.1,3.6-1-.8-1.8-1.4-2.6-2.1-.7,1.5.1,2.2.8,2.9.8.8.8,1.7.6,2.7-.3,2.2-.7,4.4-1.1,6.3-1.6.9-3.1,1.9-4.7,2.8ZM598.9,1017.5c-.6.3-1.2.5-1.8.8-3.1,1.4-6.2,1.6-9.4.5-4.2-1.5-5.1-4.3-4.6-8.4.3-2.4,1.1-4.6,2.1-6.7,4.3,5.3,8.9,10,13.7,13.8ZM742.9,1054.5h-1.6c0,0-1.7-.9-1.7-.9-.1-.1-.3-.2-.4-.3.8-.5,1.9-1,2.6-.7.1,0,.5.2.8,1,0,.4.2.7.3.9ZM739.7,1076.4c-.7,1.9-1.2,3.8-1.3,5.6-.6.6-1.2,1.2-1.7,1.8-.5-.9-.7-1.9-1.1-3.4-.2-.6-.3-1.2-.5-2-1-3.7-.4-4.8,2.2-9.2.7-1.1,1.5-2.5,2.4-4.2.6.3,1.2.6,1.8,1,1.3.9,2.5,2,3.7,2.9-2.2,1.9-4.1,4.4-5.3,7.5ZM742.7,1124.3c-3.4-.7-6.8-2.1-9.8-4,.2-.7.4-1.3.6-1.8.1-.5.2-1,.3-1.4,3.4.7,6.8,1.4,10.2,2.1l-1.3,5.1ZM727.8,1128.5c1.1-1.4,2.3-2.9,3.3-4.2,3.4,1.1,6.7,2.1,10.1,2.7.2,0,.5,0,.7,0l-.7,2.6c-4.5-.4-9-.8-13.4-1.2ZM721,1130.3s0,0,0,0c.2,0,.4,0,.7.1-.2,0-.5,0-.7,0ZM714.9,1129.1s0,0,0,0c0,0,0,0,0,0,0,0,0,0,0,0ZM712.9,1126c-4.5-1.7-8.5-4.6-9.2-8.2,3.5,1.4,6.8,1.4,10,.4,3.1,1.9,6.7,2.9,11,3.2-2,2.3-3.6,4.3-5.3,6.2-1.1-.1-2.3-.3-3.4-.6.3-.2.5-.3.8-.5-.4-.6-.7-1.3-1.1-1.9-1.4.2-2.2.7-2.8,1.4ZM716.4,1117.1c.7-.3,1.3-.7,1.9-1,1,1.1,2,2,3.1,2.7-1.8-.3-3.5-.8-5.1-1.7ZM706,1116.4c-.3,0-.7-.3-1-.6.5-.2.9-.4,1.4-.6,0,0,0,0,0,0,0,0,0,0,0-.1.7-.3,1.4-.7,2-1.1.8.9,1.7,1.7,2.6,2.4-1.7.2-3.5,0-5.2,0ZM689.4,1116.3c3.7,1.5,7.3,1.7,10.8,1.1.7,2.5,2.1,4.9,4,6.9,2.2,2.1,4.8,3.5,7.7,4.3,0,.2,0,.5,0,.7-8.9-.4-20.8-5.4-22.4-12.9ZM702.6,1104.5c-2.2,2.8-3.2,6.4-2.9,10-2.4.3-4.8.1-7.2,0-.8,0-1.7-1.1-2.1-2-.2-.4.6-1.3,1.1-2.3.6,1,.9,1.5,1.7,2.8.4-1.4.9-2.4.7-2.8-1.5-2.3-3.4-.8-5.4-.2.4-2.6.6-5.2,1.2-7.7.8-3.9,5-7.3,8.4-6.5,1.3.3,2.7,1.5,3.6,2.7.8,1.1.8,2.5-1.1,3.2-.2,0-.2,2.1.3,2.7.3.3,1.1.3,1.8.2ZM713.1,1105.9c-.2.3-.5.5-1,.7,0,0-.1.4-.1.8-1.8,1.9-3.7,3.6-5.9,4.9-1-.4-2.1.3-3.2.6.3-2,.5-4,.9-5.9.6-3,3.8-5.5,6.4-5,.8.2,1.6.8,2.2,1.5.2.4.3.9.5,1.3.1.3.2.7.2,1ZM720.4,1111.6c-1.8,1.8-3.7,3.3-6,4.1-1.2-1-2.4-2.3-3.4-3.8,1.6-1,3.2-1.9,4.3-2.6,1.7.8,3.4,1.5,5.1,2.3ZM725.3,1117.1c-.1.8-.4,1.2-.7,1.5-1.7-.9-3.2-2.2-4.5-4.1,1.1-.6,2-1.2,2.8-1.7.3.1.5.2.7.3,2,.8,2,2.2,1.6,4ZM728.9,1123.6c-1.1,1.3-2.1,2.4-3,3.6,0,0-.2.2-.3.2-.8.1-1.6.2-2.3.2,0,0,0,0,0,0,1.3-1.7,2.5-3.3,3.6-4.6.7.2,1.4.4,2.2.7ZM727.7,1119.5c.3-.9.6-1.6.8-2.4.2-.7.3-1.4.4-1.8.5.1,1,.2,1.5.3,1,.6,1,1.6.7,2.8-.3,1.6-1.2,1.5-2.4,1.4-.2,0-.5,0-.7-.1,0,0-.2-.1-.3-.2ZM736.5,1062.3c.5,1.1,1.3,1.7,2.1,2.2-.9,1.7-1.7,3-2.4,4.2-2.6,4.4-3.5,5.9-2.3,10.1.2.7.4,1.4.5,2,.5,1.8.8,2.9,1.4,4-.3.4-.7.8-1,1.2-.2.3.4,1.3.6,2,.2.6.3,1.1.4,1.7-.3,0-.5.2-.8.3-1.6-2.8-3.1-5.5-4.7-8.3-.9-1.5-1.8-3-2.7-4.4.6-1,1.3-2,2.2-3.2,1.2-1.7,2.6-3.7,4-6.1,1.2-2.2,2.1-4.1,2.7-5.7ZM645.9,1050.9c-1-1.3-2-2.6-2.9-3.9-.2-.3-.5-.7-.6-1.1-1.1-2.7-3.4-4-5.9-4.9-1.6-.6-3.4-1.1-4.9-1.8-2.9-1.5-4.1-4.2-4.6-7.3-.1-.7-.2-1.5-.3-2.2,26,8.3,81.7,25.7,102.7,27.9,0,.2,0,.3.2.5.1,0,.3.2.5.3-20.1,1.4-54.2-2.7-84.1-7.4ZM607.6,1044.4c-3.2-.6-6.2-1.2-8.8-1.7,1.6-.1,3.1-.6,4.7-.9.4,0,1,0,1.3.2.9.9,1.9,1.7,2.9,2.4ZM579.2,1041.4c0-.3,0-.6,0-.9,0-.2,0-.4,0-.6,1.9-.3,3.7,0,5.4.5-1.8.5-3.7.8-5.5,1.1ZM559.2,1041.4c1.3.3,2.7.5,4.1.7-.9.8-1.7,1.6-2.5,2.4-.5-1.1-1-2.2-1.5-3.1ZM539,1033.5c.2-1,.4-1.9.6-2.9.1-.6-.2-1.1-1-1.1-1.2,0-2.5.2-3.6,0-1-.2-1.8-.8-1.9-2,0-.4-.2-.9-.4-1.1-1.6-1.5-.8-3.2-.5-4.8.1-1,.2-2,.3-3.1,0-.5.1-.9.2-1.6,1.8,1.4,3.4,2.5,5,3.8,2.8,2.4,5.6,4.7,8.2,7.3,1.5,1.4,2.6,3.3,4,4.9.6.6,1.2,1.2,1.9,1.8-.6.3-1,.8-1.4,1.5-.3.7-.3,1.3,0,1.8-3.8-1.2-7.6-2.7-11.3-4.4ZM489.8,1000.9c3.5.5,7,.3,10.2-1.6,0,0,.2,0,.3,0,3.9,5.3,9.2,8.3,15.7,9.3,1.7.3,3.2,1.2,4.8,1.9,2.6,1.2,5.1,2.4,7.7,3.6.4.2.7.8.7,1.2.1,2.9.2,5.8.3,8.7,0,1.9.4,3.6,1.1,5.2-20.8-10.9-37.5-25.5-40.8-28.4ZM440.4,892.6c3.2,3.2,6.9,5.7,11.1,7.3,1.1.4,2.2.5,3.3.7.7.1,1.1.3,1.4,1.1,1.2,3.6,3.1,6.7,6,9.2,1.9,1.6,3.9,3,6,4.2,1.9,1.2,4.1,1.9,5.9,3.2,2.4,1.8,2.6,3.1,1.5,5.9-.9,2.5-2,4.9-2.9,7.4-.6,1.6-1.5,3.1-1.7,4.8-.2,1.2-.1,2.5,0,3.7-1,.3-2.1.3-3.1.5-.6,0-1.4,0-1.7.4-.2.3.2,1.1.3,1.7.2,2.6,2.5,2.8,4.3,3.6.7.3,1.5.6,2.2.8,0,.1,0,.2.1.4.2.5.5.9.7,1.4.7-.1,1.1-.5,1.5-.9,1.6.6,1.9,1.5.9,2.8-1.5,2-3.2,3.8-4.7,5.7-3.1,4-6.5,7.8-8.5,12.5-1.4,3.2-2.1,6.6-2,10-13-24.4-18.5-63.6-20.7-86.2ZM433.9,826.3c-.7,1.7-1.4,3.2-2.2,5-.2-.6-.4-1.1-.5-1.5-.6-2.9-.5-3.1,2.2-3.5,0,0,.2,0,.5,0ZM415.5,884.9c0-2.1,0-4.1,0-6.2,2.4.9,3.8,2.7,5.5,4.4-1.9.6-3.6,1.2-5.5,1.8Z"/>
    <g>
      <polygon class="st0" points="409.7 1068.4 408.5 1075.8 401.1 1077.2 407.8 1080.7 406.8 1088.2 412.2 1082.9 419 1086.1 415.6 1079.4 420.8 1073.9 413.4 1075 409.7 1068.4"/>
      <polygon class="st0" points="415.3 976.8 410.3 982.6 403.3 979.9 407.2 986.4 402.5 992.3 409.8 990.5 414 996.8 414.6 989.3 421.9 987.3 414.9 984.4 415.3 976.8"/>
      <polygon class="st0" points="514.1 1151.5 513.1 1157.1 507.5 1156.2 511.3 1160.5 507 1164.3 512.7 1164 513 1169.7 516.4 1165 521 1168.3 519.5 1162.8 525 1161.2 519.7 1159 521.9 1153.7 516.8 1156.5 514.1 1151.5"/>
      <polygon class="st0" points="834.6 1152.1 833.7 1157.8 828 1156.8 831.8 1161.1 827.6 1164.9 833.3 1164.6 833.6 1170.3 836.9 1165.6 841.6 1169 840 1163.5 845.5 1161.9 840.2 1159.7 842.4 1154.4 837.4 1157.1 834.6 1152.1"/>
      <polygon class="st0" points="528.2 1093 529.2 1098.7 523.6 1099.7 528.6 1102.4 526 1107.5 531.2 1105.2 533.5 1110.4 535 1104.9 540.5 1106.4 537.1 1101.8 541.8 1098.4 536 1098.1 536.2 1092.4 532.5 1096.8 528.2 1093"/>
      <polygon class="st0" points="931.5 1212.6 932.5 1218.2 926.9 1219.3 932 1222 929.3 1227 934.6 1224.7 936.9 1230 938.3 1224.5 943.9 1225.9 940.5 1221.3 945.1 1217.9 939.4 1217.7 939.6 1212 935.8 1216.3 931.5 1212.6"/>
      <polygon class="st0" points="684.5 1165.3 681.5 1170.1 676.6 1167.1 678.5 1172.5 673.1 1174.4 678.5 1176.3 676.7 1181.7 681.5 1178.7 684.6 1183.5 685.2 1177.8 690.9 1178.4 686.8 1174.4 690.9 1170.3 685.2 1171 684.5 1165.3"/>
      <polygon class="st0" points="412.5 1033.6 400.8 1034.1 411.9 1030.7 406.2 1025.3 413.1 1029 412.7 1017.4 416.1 1028.5 421.4 1022.8 417.8 1029.7 429.4 1029.2 418.3 1032.6 424 1037.9 417.1 1034.3 417.5 1045.9 414.1 1034.8 408.8 1040.5 412.5 1033.6"/>
      <polygon class="st0" points="892 1203.9 881.9 1209.5 890.2 1201.4 882.7 1199.3 890.5 1199.4 884.8 1189.3 892.9 1197.6 895 1190.1 894.9 1197.9 905 1192.2 896.7 1200.3 904.2 1202.5 896.4 1202.4 902.1 1212.5 894 1204.2 891.9 1211.7 892 1203.9"/>
      <polygon class="st0" points="539.1 1129.1 541.1 1138.7 531.3 1138.3 540.6 1141.4 535.4 1149.7 542.7 1143.2 547.2 1151.8 545.3 1142.3 555 1142.6 545.8 1139.5 551 1131.3 543.7 1137.7 539.1 1129.1"/>
      <polygon class="st0" points="970.4 1235.3 972.3 1244.9 962.6 1244.5 971.8 1247.6 966.7 1255.9 974 1249.4 978.5 1258 976.6 1248.5 986.3 1248.8 977.1 1245.7 982.2 1237.5 974.9 1243.9 970.4 1235.3"/>
      <polygon class="st0" points="578.9 1125.7 579.7 1139.2 566.4 1136.7 578.4 1142.8 569.7 1153 581 1145.7 585.4 1158.4 584.7 1144.9 597.9 1147.4 585.9 1141.3 594.7 1131.1 583.4 1138.4 578.9 1125.7"/>
      <polygon class="st0" points="437.3 1059.4 435.4 1067.7 428.4 1062.9 433.7 1069.6 425.6 1072.1 434.1 1072.1 431.1 1080.1 436.3 1073.4 440.7 1080.7 438.7 1072.4 447.2 1073.6 439.5 1070 445.7 1064.1 438 1067.8 437.3 1059.4"/>
      <polygon class="st0" points="490.3 1115.3 493.9 1127.7 481.6 1123.8 492.9 1130.1 481.4 1136.1 493.9 1132.5 490 1144.8 496.2 1133.5 502.2 1145 498.6 1132.5 511 1136.4 499.6 1130.2 511.1 1124.2 498.7 1127.8 502.6 1115.4 496.3 1126.8 490.3 1115.3"/>
      <polygon class="st0" points="617.6 1179.5 612.4 1189.9 614.7 1178.5 607.3 1181 613.8 1176.7 603.4 1171.5 614.8 1173.9 612.4 1166.5 616.7 1173 621.8 1162.6 619.5 1174 626.9 1171.5 620.4 1175.8 630.8 1181 619.4 1178.6 621.9 1186 617.6 1179.5"/>
      <polygon class="st0" points="753.9 1205.6 764.8 1213.6 754.5 1222.3 766.8 1216.9 769.1 1230.1 770.6 1216.8 783.3 1221.4 772.4 1213.4 782.7 1204.7 770.4 1210.1 768.1 1196.9 766.6 1210.2 753.9 1205.6"/>
      <polygon class="st0" points="656.4 1182.5 664 1193.7 651.4 1198.4 664.8 1197.4 662.6 1210.7 668.4 1198.6 678.8 1207.1 671.3 1196 683.9 1191.3 670.5 1192.3 672.7 1179 666.8 1191.1 656.4 1182.5"/>
      <polygon class="st0" points="588 1090.1 594.1 1101 581.8 1102.7 594.1 1104.7 587.8 1115.5 597 1107.1 601.4 1118.7 600.6 1106.3 612.5 1110 602.3 1102.9 612.6 1096 600.7 1099.5 601.7 1087.1 597 1098.7 588 1090.1"/>
      <polygon class="st0" points="845.3 1171.5 856.3 1178.3 844.6 1183.7 857.2 1180.7 852.6 1192.9 859.5 1181.9 864.9 1193.7 861.9 1181 874.1 1185.6 863 1178.7 874.8 1173.4 862.2 1176.3 866.8 1164.2 859.9 1175.2 854.5 1163.4 857.5 1176 845.3 1171.5"/>
      <polygon class="st0" points="466.4 1062.9 477.4 1069.7 465.6 1075.1 478.2 1072.1 473.7 1084.3 480.5 1073.3 485.9 1085.1 482.9 1072.4 495.1 1077 484.1 1070.1 495.9 1064.8 483.2 1067.7 487.8 1055.6 480.9 1066.6 475.6 1054.8 478.5 1067.4 466.4 1062.9"/>
      <polygon class="st0" points="451.4 1114.7 462.4 1121.5 450.6 1126.9 463.3 1124 458.7 1136.1 465.6 1125.1 470.9 1136.9 468 1124.3 480.1 1128.8 469.1 1122 480.9 1116.6 468.3 1119.5 472.8 1107.4 466 1118.4 460.6 1106.6 463.6 1119.2 451.4 1114.7"/>
      <polygon class="st0" points="804 1168.8 811.5 1179.9 798.9 1184.6 812.3 1183.7 810.1 1196.9 816 1184.8 826.4 1193.4 818.8 1182.3 831.4 1177.6 818 1178.5 820.2 1165.2 814.4 1177.4 804 1168.8"/>
      <polygon class="st0" points="618.9 1128.2 627 1138.4 614.1 1139.5 626.9 1140.9 618.6 1150.9 628.7 1142.8 629.9 1155.7 631.3 1142.8 641.2 1151.1 633.1 1141 646.1 1139.9 633.2 1138.4 641.5 1128.5 631.4 1136.6 630.2 1123.7 628.8 1136.6 618.9 1128.2"/>
      <polygon class="st0" points="732.9 1190.3 728.3 1201 730 1189.5 722.8 1192.4 729 1187.7 718.4 1183.1 729.9 1184.8 727 1177.5 731.6 1183.8 736.2 1173.1 734.5 1184.6 741.8 1181.7 735.5 1186.4 746.2 1191 734.7 1189.3 737.6 1196.5 732.9 1190.3"/>
      <polygon class="st0" points="755.3 1179.4 768.4 1182.6 762.2 1194.6 771.5 1184.9 778.7 1196.2 775 1183.3 788.4 1182.7 775.4 1179.5 781.6 1167.6 772.3 1177.3 765 1165.9 768.8 1178.8 755.3 1179.4"/>
      <polygon class="st0" points="691.6 1162.4 701.4 1170.1 690.7 1176.4 702.8 1173.5 701.1 1185.9 706.4 1174.6 715 1183.6 709.5 1172.5 721.9 1171.4 709.8 1168.7 716.6 1158.3 707 1166.2 703.2 1154.3 703.3 1166.8 691.6 1162.4"/>
      <polygon class="st0" points="641.7 1152.3 653.5 1157.7 642.4 1164.5 654.6 1160.1 651.5 1172.7 657 1160.9 663.7 1172 659.3 1159.8 671.9 1162.8 660.2 1157.4 671.2 1150.6 659 1155.1 662.1 1142.5 656.6 1154.2 649.9 1143.1 654.3 1155.3 641.7 1152.3"/>
    </g>
  </g>
</svg>