<?xml version="1.0" encoding="UTF-8"?>
<svg id="_レイヤー_1" data-name="レイヤー 1" xmlns="http://www.w3.org/2000/svg" viewBox="0 0 1920 1920">
  <defs>
    <style>
      .cls-1 {
        fill: #fff;
      }

      .cls-1, .cls-2, .cls-3 {
        stroke-width: 0px;
      }

      .cls-2 {
        fill: #dcdddd;
      }

      .cls-3 {
        fill: #323333;
      }
    </style>
  </defs>
  <g>
    <g>
      <path class="cls-1" d="M944.66,808.25h-37v-91.48h35.59c16.96,0,27.62,9.64,27.62,25.05,0,9.89-6.17,16.96-12.33,19.4,7.07,2.83,13.75,9.64,13.75,21.2,0,16.83-11.43,25.82-27.62,25.82ZM942.09,729.24h-20.56v26.21h20.56c8.86,0,14.9-4.62,14.9-13.1s-6.04-13.11-14.9-13.11ZM943.37,767.91h-21.84v27.88h21.84c9.64,0,15.03-5.91,15.03-14s-5.4-13.88-15.03-13.88Z"/>
      <path class="cls-1" d="M1029.22,808.25v-6.55c-4.5,4.88-10.79,7.33-17.34,7.33s-12.21-2.19-16.06-5.91c-5.01-4.88-6.55-11.05-6.55-18.37v-41.63h13.11v39.7c0,10.15,5.78,14.52,13.1,14.52s13.49-4.5,13.49-14.52v-39.7h13.11v65.14h-12.85Z"/>
      <path class="cls-1" d="M1083.51,809.03c-10.66,0-19.66-1.8-27.37-9.38l8.61-8.61c5.27,5.4,12.33,6.81,18.76,6.81,8.09,0,14.26-2.83,14.26-8.99,0-4.5-2.44-7.07-8.74-7.71l-10.41-.9c-12.33-1.16-19.27-6.55-19.27-17.99,0-12.85,10.92-19.91,24.54-19.91,9.89,0,18.11,2.05,24.15,7.32l-8.22,8.35c-4.11-3.47-9.89-4.75-16.06-4.75-7.97,0-11.82,3.34-11.82,8.35,0,4.5,2.57,6.81,8.99,7.45l9.12.77c13.49,1.16,20.56,7.07,20.56,18.5,0,13.62-11.56,20.69-27.11,20.69Z"/>
      <path class="cls-1" d="M907.66,932.33v-91.48h13.88v91.48h-13.88Z"/>
      <path class="cls-1" d="M981.84,932.33v-39.7c0-10.15-5.78-14.52-13.11-14.52s-13.49,4.5-13.49,14.52v39.7h-13.1v-65.14h12.85v6.55c4.5-4.88,10.79-7.32,17.35-7.32s12.21,2.19,16.06,5.91c5.01,4.88,6.55,11.05,6.55,18.37v41.63h-13.1Z"/>
      <path class="cls-1" d="M1028.6,877.21v55.12h-13.11v-55.12h-7.45v-10.02h7.45v-8.86c0-9.38,5.65-18.11,17.86-18.11h8.22v11.18h-5.78c-4.88,0-7.19,2.83-7.19,7.58v8.22h12.97v10.02h-12.97Z"/>
      <path class="cls-1" d="M1098.31,925.39c-4.24,4.37-10.66,7.71-19.53,7.71s-15.16-3.34-19.4-7.71c-6.17-6.42-7.71-14.65-7.71-25.7s1.54-19.14,7.71-25.56c4.24-4.37,10.54-7.71,19.4-7.71s15.29,3.34,19.53,7.71c6.17,6.42,7.71,14.64,7.71,25.56s-1.54,19.27-7.71,25.7ZM1088.42,881.84c-2.44-2.44-5.78-3.73-9.64-3.73s-7.07,1.28-9.51,3.73c-3.98,3.98-4.5,10.79-4.5,17.86s.51,13.88,4.5,17.86c2.44,2.44,5.65,3.85,9.51,3.85s7.19-1.41,9.64-3.85c3.98-3.98,4.5-10.79,4.5-17.86s-.51-13.88-4.5-17.86Z"/>
      <path class="cls-1" d="M1158.77,882.48c-2.95-2.96-5.27-4.37-9.76-4.37-7.07,0-12.98,5.66-12.98,14.65v39.57h-13.1v-65.14h12.85v7.07c3.34-4.63,10.02-7.84,17.35-7.84,6.29,0,11.05,1.67,15.54,6.17l-9.89,9.89Z"/>
      <path class="cls-1" d="M1260.25,932.33v-39.7c0-10.15-5.78-14.52-13.11-14.52s-13.49,4.5-13.49,13.88v40.34h-13.1v-39.7c0-10.15-5.78-14.52-13.11-14.52s-13.49,4.5-13.49,14.52v39.7h-13.1v-65.14h12.85v6.55c4.37-4.75,10.79-7.32,17.35-7.32,8.09,0,14.39,3.21,18.5,9.51,5.27-6.42,11.82-9.51,20.43-9.51,6.68,0,12.59,2.19,16.44,5.91,5.01,4.88,6.94,11.05,6.94,18.37v41.63h-13.1Z"/>
      <path class="cls-1" d="M1327.89,932.33v-5.91c-4.75,4.75-9.25,6.68-17.34,6.68s-13.49-1.93-17.47-5.91c-3.34-3.47-5.14-8.48-5.14-14,0-10.92,7.58-18.76,22.61-18.76h17.09v-4.62c0-8.35-3.98-12.21-14.26-12.21-6.94,0-10.54,1.8-14.26,6.42l-8.48-8.09c6.04-7.19,12.33-9.51,23.25-9.51,17.99,0,26.85,7.71,26.85,22.35v43.55h-12.85ZM1327.64,903.55h-15.03c-7.97,0-11.95,3.34-11.95,9.38s3.73,9.25,12.33,9.25c4.63,0,8.35-.52,11.82-3.73,2.05-1.93,2.83-5.01,2.83-9.64v-5.27Z"/>
      <path class="cls-1" d="M1379.1,932.33c-12.21,0-17.86-8.74-17.86-18.11v-37h-7.45v-10.02h7.45v-18.63h13.1v18.63h12.59v10.02h-12.59v36.36c0,4.76,2.31,7.58,7.2,7.58h5.39v11.18h-7.84Z"/>
      <path class="cls-1" d="M1401.65,854.34v-13.88h13.88v13.88h-13.88ZM1402.04,932.33v-65.14h13.1v65.14h-13.1Z"/>
      <path class="cls-1" d="M1478.39,925.39c-4.24,4.37-10.66,7.71-19.53,7.71s-15.16-3.34-19.4-7.71c-6.17-6.42-7.71-14.65-7.71-25.7s1.54-19.14,7.71-25.56c4.24-4.37,10.54-7.71,19.4-7.71s15.29,3.34,19.53,7.71c6.17,6.42,7.71,14.64,7.71,25.56s-1.54,19.27-7.71,25.7ZM1468.5,881.84c-2.44-2.44-5.78-3.73-9.64-3.73s-7.07,1.28-9.51,3.73c-3.98,3.98-4.5,10.79-4.5,17.86s.51,13.88,4.5,17.86c2.44,2.44,5.65,3.85,9.51,3.85s7.19-1.41,9.64-3.85c3.98-3.98,4.5-10.79,4.5-17.86s-.51-13.88-4.5-17.86Z"/>
      <path class="cls-1" d="M1542.72,932.33v-39.7c0-10.15-5.78-14.52-13.11-14.52s-13.49,4.5-13.49,14.52v39.7h-13.1v-65.14h12.85v6.55c4.5-4.88,10.79-7.32,17.35-7.32s12.21,2.19,16.06,5.91c5.01,4.88,6.55,11.05,6.55,18.37v41.63h-13.1Z"/>
      <path class="cls-1" d="M944.66,1054.86h-37v-91.48h35.59c16.96,0,27.62,9.64,27.62,25.05,0,9.89-6.17,16.96-12.33,19.4,7.07,2.83,13.75,9.64,13.75,21.2,0,16.83-11.43,25.82-27.62,25.82ZM942.09,975.85h-20.56v26.21h20.56c8.86,0,14.9-4.62,14.9-13.1s-6.04-13.11-14.9-13.11ZM943.37,1014.52h-21.84v27.88h21.84c9.64,0,15.03-5.91,15.03-14s-5.4-13.88-15.03-13.88Z"/>
      <path class="cls-1" d="M1034.36,1047.93c-4.24,4.37-10.66,7.71-19.53,7.71s-15.16-3.34-19.4-7.71c-6.17-6.42-7.71-14.65-7.71-25.7s1.54-19.14,7.71-25.56c4.24-4.37,10.54-7.71,19.4-7.71s15.29,3.34,19.53,7.71c6.17,6.42,7.71,14.64,7.71,25.56s-1.54,19.27-7.71,25.7ZM1024.47,1004.37c-2.44-2.44-5.78-3.73-9.64-3.73s-7.07,1.28-9.51,3.73c-3.98,3.98-4.5,10.79-4.5,17.86s.51,13.88,4.5,17.86c2.44,2.44,5.65,3.85,9.51,3.85s7.19-1.41,9.64-3.85c3.98-3.98,4.5-10.79,4.5-17.86s-.51-13.88-4.5-17.86Z"/>
      <path class="cls-1" d="M1095.04,1054.86v-5.91c-4.75,4.75-9.25,6.68-17.34,6.68s-13.49-1.93-17.47-5.91c-3.34-3.47-5.14-8.48-5.14-14,0-10.92,7.58-18.76,22.61-18.76h17.09v-4.62c0-8.35-3.98-12.21-14.26-12.21-6.94,0-10.54,1.8-14.26,6.42l-8.48-8.09c6.04-7.19,12.33-9.51,23.25-9.51,17.99,0,26.85,7.71,26.85,22.35v43.55h-12.85ZM1094.78,1026.08h-15.03c-7.97,0-11.95,3.34-11.95,9.38s3.73,9.25,12.33,9.25c4.63,0,8.35-.52,11.82-3.73,2.05-1.93,2.83-5.01,2.83-9.64v-5.27Z"/>
      <path class="cls-1" d="M1162.85,1005.02c-2.95-2.96-5.27-4.37-9.76-4.37-7.07,0-12.98,5.66-12.98,14.65v39.57h-13.1v-65.14h12.85v7.07c3.34-4.63,10.02-7.84,17.35-7.84,6.29,0,11.05,1.67,15.54,6.17l-9.89,9.89Z"/>
      <path class="cls-1" d="M1221.27,1054.86v-6.94c-4.88,5.91-10.15,7.71-17.22,7.71-6.55,0-12.33-2.19-15.93-5.78-6.3-6.42-7.33-16.83-7.33-27.62s1.03-21.07,7.33-27.49c3.6-3.6,9.25-5.78,15.8-5.78,6.94,0,12.33,1.67,17.09,7.32v-32.89h13.1v91.48h-12.85ZM1207.53,1000.65c-11.95,0-13.62,10.02-13.62,21.58s1.67,21.71,13.62,21.71,13.49-10.15,13.49-21.71-1.67-21.58-13.49-21.58Z"/>
      <path class="cls-1" d="M931.94,1178.17c-13.75,0-23.51-3.21-32.37-12.08l9.12-9.12c6.68,6.68,14.26,8.87,23.51,8.87,12.07,0,18.88-5.14,18.88-14.13,0-4.11-1.03-7.32-3.6-9.51-2.31-2.05-5.4-3.21-10.02-3.85l-10.79-1.54c-7.45-1.15-13.23-3.47-17.22-7.32-4.5-4.11-6.81-10.02-6.81-17.6,0-15.93,11.56-26.72,30.58-26.72,12.21,0,20.56,3.08,28.39,10.4l-8.74,8.74c-5.65-5.4-12.33-7.07-20.17-7.07-10.79,0-16.57,5.91-16.57,14.26,0,3.34.9,6.42,3.34,8.48,2.31,2.06,5.01,3.34,10.02,4.11l10.92,1.67c8.35,1.28,12.97,3.21,16.96,6.81,4.88,4.5,7.45,10.79,7.45,18.76,0,16.83-13.62,26.85-32.89,26.85Z"/>
      <path class="cls-1" d="M1000.23,1190.37c-1.28,3.6-2.83,6.17-4.76,8.1-3.6,3.6-8.35,4.75-13.36,4.75h-5.27v-11.82h3.34c5.52,0,7.45-1.68,9.38-6.94l3.6-10.15-22.74-62.06h13.88l15.54,45.87,15.16-45.87h14l-28.78,78.11Z"/>
      <path class="cls-1" d="M1061.48,1178.17c-10.66,0-19.66-1.8-27.37-9.38l8.61-8.61c5.27,5.4,12.33,6.81,18.76,6.81,8.09,0,14.26-2.83,14.26-8.99,0-4.5-2.44-7.07-8.74-7.71l-10.41-.9c-12.33-1.16-19.27-6.55-19.27-17.99,0-12.85,10.92-19.91,24.54-19.91,9.89,0,18.11,2.05,24.15,7.32l-8.22,8.35c-4.11-3.47-9.89-4.75-16.06-4.75-7.97,0-11.82,3.34-11.82,8.35,0,4.5,2.57,6.81,8.99,7.45l9.12.77c13.49,1.16,20.56,7.07,20.56,18.5,0,13.62-11.56,20.69-27.11,20.69Z"/>
      <path class="cls-1" d="M1124.46,1177.4c-12.21,0-17.86-8.74-17.86-18.11v-37h-7.45v-10.02h7.45v-18.63h13.1v18.63h12.59v10.02h-12.59v36.36c0,4.76,2.31,7.58,7.2,7.58h5.39v11.18h-7.84Z"/>
      <path class="cls-1" d="M1156.63,1148.62c0,11.31,5.78,18.24,16.57,18.24,7.32,0,11.18-2.05,15.8-6.68l8.35,7.84c-6.68,6.68-12.97,10.15-24.41,10.15-16.32,0-29.29-8.61-29.29-33.41,0-21.2,10.92-33.27,27.62-33.27s27.62,12.59,27.62,31.6v5.52h-42.27ZM1184.13,1130.63c-2.19-4.88-6.68-8.22-12.85-8.22s-10.79,3.34-12.97,8.22c-1.28,2.83-1.54,4.88-1.67,8.86h29.29c-.26-3.98-.51-6.04-1.8-8.86Z"/>
      <path class="cls-1" d="M1294.66,1177.4v-39.7c0-10.15-5.78-14.52-13.11-14.52s-13.49,4.5-13.49,13.88v40.34h-13.1v-39.7c0-10.15-5.78-14.52-13.11-14.52s-13.49,4.5-13.49,14.52v39.7h-13.1v-65.14h12.85v6.55c4.37-4.75,10.79-7.32,17.35-7.32,8.09,0,14.39,3.21,18.5,9.51,5.27-6.42,11.82-9.51,20.43-9.51,6.68,0,12.59,2.19,16.44,5.91,5.01,4.88,6.94,11.05,6.94,18.37v41.63h-13.1Z"/>
    </g>
    <g>
      <rect class="cls-1" x="364.18" y="716.78" width="486.44" height="486.44" rx="21.06" ry="21.06"/>
      <path class="cls-3" d="M716.67,941.67v-49.69h38.8l4.13.41,3.71,1.14,3.32,1.89,2.9,2.37,2.51,2.84,1.76,3.44,1.15,3.65.41,3.92v30.02h-58.69ZM700.51,941.67h-58.96v-49.69h58.96v49.69ZM625.46,941.67h-59.09v-49.69h59.09v49.69ZM550.33,941.67h-59.09v-49.69h59.09v49.69ZM475.16,986.57h-35.84v-29.95l13.8-64.64h22.04v94.59ZM755.47,875.75h-310.34l-2.1.41-1.76.6-1.56,1.35-1.08,1.42-.8,1.82-14.88,73.43v58.22h48.21v2.23l.41,4.73,1.08,4.46,1.83,4.19,2.3,3.65,3.04,3.45,3.31,2.84,3.86,2.36,4.26,1.89,4.45,1.02,4.8.41,4.8-.41,4.53-1.02,4.06-1.89,3.86-2.36,3.44-2.84,2.97-3.45,2.36-3.65,1.83-4.19,1.08-4.46.41-4.73v-2.23h132.25v2.09l.41,4.73,1.08,4.46,1.83,4.06,2.43,3.79,2.9,3.45,3.32,2.9,3.85,2.3,4.26,1.76,4.46,1.15,4.8.41,4.8-.41,4.53-1.15,4.19-1.76,3.86-2.3,3.38-2.9,2.9-3.45,2.36-3.79,1.89-4.06,1.02-4.46.41-4.73v-2.09h71.06v-101.36l-.41-5.2-1.22-5.14-1.69-4.73-2.57-4.46-3.05-3.92-3.58-3.52-4.12-3.18-4.33-2.36-4.94-1.83-5.08-1.15-5.41-.41Z"/>
    </g>
  </g>
  <g>
    <path class="cls-2" d="M844.53,1863.29h-7.59v11.08h-1.98v-26.12h9.57c4.51,0,7.89,2.75,7.89,7.52s-3.37,7.52-7.89,7.52ZM844.31,1850.01h-7.37v11.52h7.37c3.63,0,6.13-1.83,6.13-5.76s-2.49-5.76-6.13-5.76Z"/>
    <path class="cls-2" d="M868.62,1872.64c-1.28,1.28-2.93,1.94-4.92,1.94s-3.63-.66-4.92-1.94c-1.87-1.87-2.2-4.59-2.2-7.12s.33-5.25,2.2-7.12c1.28-1.28,2.93-1.94,4.92-1.94s3.63.66,4.92,1.94c1.87,1.87,2.2,4.59,2.2,7.12s-.33,5.25-2.2,7.12ZM867.38,1859.62c-.99-.99-2.24-1.5-3.67-1.5s-2.68.51-3.67,1.5c-1.47,1.47-1.58,3.85-1.58,5.91s.11,4.44,1.58,5.91c.99.99,2.24,1.5,3.67,1.5s2.68-.51,3.67-1.5c1.47-1.47,1.58-3.85,1.58-5.91s-.11-4.44-1.58-5.91Z"/>
    <path class="cls-2" d="M893.31,1874.36h-1.91l-4.99-14.75-4.99,14.75h-1.91l-5.65-17.68h2.05l4.51,15.48,5.06-15.48h1.83l5.06,15.48,4.51-15.48h2.05l-5.65,17.68Z"/>
    <path class="cls-2" d="M903.87,1865.93c0,4.51,1.98,6.97,5.76,6.97,2.09,0,3.37-.62,4.88-2.13l1.39,1.1c-1.8,1.8-3.45,2.71-6.38,2.71-4.88,0-7.52-3.15-7.52-9.06s2.64-9.06,7.08-9.06,7.08,3.19,7.08,8.62v.84h-12.29ZM913.66,1861.08c-.77-1.87-2.53-2.97-4.58-2.97s-3.74,1.14-4.59,2.97c-.48,1.06-.51,1.65-.62,3.34h10.42c-.11-1.69-.15-2.27-.62-3.34Z"/>
    <path class="cls-2" d="M928.81,1858.11c-3.04,0-4.73,2.53-4.73,5.36v10.89h-1.87v-17.68h1.87v2.35c1.03-1.65,3.08-2.57,5.17-2.57,1.72,0,2.97.4,4.26,1.69l-1.36,1.36c-1.06-1.06-1.87-1.39-3.34-1.39Z"/>
    <path class="cls-2" d="M938.05,1865.93c0,4.51,1.98,6.97,5.76,6.97,2.09,0,3.37-.62,4.88-2.13l1.39,1.1c-1.8,1.8-3.45,2.71-6.38,2.71-4.88,0-7.52-3.15-7.52-9.06s2.64-9.06,7.08-9.06,7.08,3.19,7.08,8.62v.84h-12.29ZM947.84,1861.08c-.77-1.87-2.53-2.97-4.58-2.97s-3.74,1.14-4.59,2.97c-.48,1.06-.51,1.65-.62,3.34h10.42c-.11-1.69-.15-2.27-.62-3.34Z"/>
    <path class="cls-2" d="M967.21,1874.36v-2.27c-1.58,2.05-3.23,2.49-5.25,2.49-1.87,0-3.41-.62-4.33-1.54-1.8-1.8-2.27-4.73-2.27-7.52s.48-5.72,2.27-7.52c.92-.92,2.46-1.54,4.33-1.54,2.02,0,3.67.44,5.25,2.49v-10.71h1.87v26.12h-1.87ZM962.22,1858.11c-4.33,0-4.99,3.74-4.99,7.41s.66,7.41,4.99,7.41,4.99-3.74,4.99-7.41-.66-7.41-4.99-7.41Z"/>
    <path class="cls-2" d="M996.99,1873.04c-.92.92-2.46,1.54-4.33,1.54-2.02,0-3.67-.44-5.25-2.49v2.27h-1.87v-26.12h1.87v10.71c1.58-2.05,3.23-2.49,5.25-2.49,1.87,0,3.41.62,4.33,1.54,1.8,1.8,2.27,4.73,2.27,7.52s-.48,5.72-2.27,7.52ZM992.41,1858.11c-4.33,0-4.99,3.74-4.99,7.41s.66,7.41,4.99,7.41,4.99-3.74,4.99-7.41-.66-7.41-4.99-7.41Z"/>
    <path class="cls-2" d="M1008.84,1879.17c-.33.95-.73,1.65-1.21,2.05-.88.84-2.16,1.14-3.34,1.14h-.88v-1.65h.7c2.02,0,2.6-.66,3.23-2.42l1.43-3.92-6.46-17.68h2.05l5.32,15.48,5.32-15.48h2.05l-8.22,22.49Z"/>
    <path class="cls-2" d="M1037.77,1850.01v24.36h-1.98v-24.36h-7.78v-1.76h17.57v1.76h-7.81Z"/>
    <path class="cls-2" d="M1048.63,1877.08h-1.94l10.45-31.55h1.94l-10.45,31.55Z"/>
    <path class="cls-2" d="M1083.07,1874.36v-21.53l-7.92,17.86h-1.98l-8.07-17.86v21.53h-1.98v-26.12h1.98l9.1,20.14,8.88-20.14h1.98v26.12h-1.98Z"/>
  </g>
</svg>