<?xml version="1.0" encoding="UTF-8"?>
<svg id="_レイヤー_1" data-name="レイヤー 1" xmlns="http://www.w3.org/2000/svg" viewBox="0 0 1000 1000">
  <defs>
    <style>
      .cls-1 {
        font-family: SourceHanSansJP-Regular-90ms-RKSJ-H, 'Source Han Sans JP';
        font-size: 12.23px;
        letter-spacing: .01em;
      }

      .cls-1, .cls-2 {
        fill: #46494c;
      }

      .cls-2 {
        font-family: SourceHanSansJP-Medium-90ms-RKSJ-H, 'Source Han Sans JP';
        font-size: 29.9px;
        font-weight: 500;
        letter-spacing: 0em;
      }

      .cls-3 {
        stroke: #46494c;
        stroke-width: 2.84px;
      }

      .cls-3, .cls-4 {
        fill: none;
        stroke-miterlimit: 10;
      }

      .cls-4 {
        stroke: #00aa01;
        stroke-linecap: round;
        stroke-width: 3.54px;
      }
    </style>
  </defs>
  <text class="cls-1" transform="translate(333.2 853.65)"><tspan x="0" y="0">※通信状況等により読み込みに時間がかる場合がございます</tspan></text>
  <text class="cls-2" transform="translate(243.43 261.83)"><tspan x="0" y="0">このページはこれらの操作ができます</tspan><tspan x="0" y="495.45">左上からメニューを選択してください</tspan></text>
  <g>
    <g>
      <g>
        <path class="cls-3" d="M508.03,458.64c-9.33-18.91-20.07-37.46-20.07-37.46-3.05-5.65-5.12-6.29-10.71-3.97-5.59,2.31-5.28,6.48-3.49,10.79,0,0,9.96,19.51,17.68,34.97,5.08,10.16,8.91,20.89,8.91,20.89"/>
        <path class="cls-3" d="M538.76,453.26l-6.93-13.59c-3.37-5.56-5.43-9.17-10.9-7.49-4.63,1.42-5.75,4.25-5.75,4.25"/>
        <path class="cls-3" d="M531.98,436.89c7.24-4.53,11.46-1.28,14.71,5.36,3.26,6.64,4.95,10.28,8.51,18.89,8.6,20.76,2.14,37.4,2.14,37.4"/>
        <path class="cls-3" d="M500.34,483.86c1.5,3.62-16.71-13.57-23.51-17.71-1.67-1.02-3.03-1.82-5.49-.26-2.2,1.4-3.8,3.54-3.71,6.61.02.81-.18,2.37,2.68,4.87,6.59,5.79,23.45,23.32,28.47,26.56,8.46,5.45,23.05,9.61,23.05,9.61"/>
        <path class="cls-3" d="M524.1,453.68l-6.44-12.59c-3.17-6.32-6.28-10.61-12.4-8.08-5.19,2.15-7.89,5.75-7.89,5.75"/>
        <line class="cls-4" x1="446.88" y1="430.26" x2="446.88" y2="462.23"/>
        <polyline class="cls-4" points="440.33 435.21 446.88 428.65 453.43 435.21"/>
        <polyline class="cls-4" points="453.43 457.28 446.88 463.84 440.33 457.28"/>
      </g>
      <text class="cls-2" transform="translate(454.84 577.2)"><tspan x="0" y="0">拡　大</tspan></text>
    </g>
    <g>
      <g>
        <path class="cls-3" d="M723.68,458.64c-9.33-18.91-20.07-37.46-20.07-37.46-3.05-5.65-5.12-6.29-10.71-3.97-5.59,2.31-5.28,6.48-3.49,10.79,0,0,9.96,19.51,17.68,34.97,5.07,10.16,8.91,20.89,8.91,20.89"/>
        <path class="cls-3" d="M754.41,453.26l-6.93-13.59c-3.37-5.56-5.43-9.17-10.9-7.49-4.63,1.42-5.75,4.25-5.75,4.25"/>
        <path class="cls-3" d="M747.63,436.89c7.24-4.53,11.46-1.28,14.71,5.36,3.26,6.64,4.95,10.28,8.51,18.89,8.6,20.76,2.14,37.4,2.14,37.4"/>
        <path class="cls-3" d="M716,483.86c1.5,3.62-16.71-13.57-23.51-17.71-1.67-1.02-3.03-1.82-5.48-.26-2.2,1.4-3.8,3.54-3.71,6.61.02.81-.18,2.37,2.68,4.87,6.59,5.79,23.45,23.32,28.47,26.56,8.46,5.45,23.05,9.61,23.05,9.61"/>
        <path class="cls-3" d="M739.76,453.68l-6.43-12.59c-3.17-6.32-6.28-10.61-12.4-8.08-5.19,2.15-7.89,5.75-7.89,5.75"/>
        <line class="cls-4" x1="662.54" y1="455.16" x2="662.54" y2="476.16"/>
        <polyline class="cls-4" points="655.99 460.04 662.54 453.49 669.09 460.04"/>
        <line class="cls-4" x1="662.54" y1="441.85" x2="662.54" y2="420.86"/>
        <polyline class="cls-4" points="669.09 436.97 662.54 443.52 655.99 436.97"/>
      </g>
      <text class="cls-2" transform="translate(670.5 577.2)"><tspan x="0" y="0">縮　小</tspan></text>
    </g>
    <g>
      <g>
        <path class="cls-3" d="M273.52,470.88v-42.28c0-4.67-2.33-7.77-8.38-7.77s-8.37,3.1-8.37,7.77v62.64"/>
        <path class="cls-3" d="M303.97,477.66v-15.2c0-6.43-1.51-10.56-7.21-11.1-4.82-.46-7.21,1.46-7.21,1.46"/>
        <path class="cls-3" d="M303.97,459.94c8.42-1.41,11.08,3.2,11.54,10.59.47,7.38.64,11.4.64,20.71,0,22.47-12.34,35.37-12.34,35.37"/>
        <path class="cls-3" d="M256.06,465.03c-.89-.27-3.45-.52-5.31-.52-4.2,0-7.36,3.32-8,9.26,0,0-.83,6.16-.96,14.24-.17,10.49,1.7,15.15,5.87,21.18,5.73,8.27,17.62,17.69,17.62,17.69"/>
        <path class="cls-3" d="M290.27,472.45v-14.09c0-6.43-1.74-12.2-8.36-12.2-5.62,0-8.37,1.47-8.37,1.47"/>
        <line class="cls-4" x1="309.32" y1="404.22" x2="309.32" y2="436.2"/>
        <polyline class="cls-4" points="302.77 409.17 309.32 402.62 315.88 409.17"/>
        <polyline class="cls-4" points="315.88 431.25 309.32 437.8 302.77 431.25"/>
        <line class="cls-4" x1="293.34" y1="420.21" x2="325.31" y2="420.21"/>
        <polyline class="cls-4" points="298.28 426.76 291.73 420.21 298.28 413.66"/>
        <polyline class="cls-4" points="320.36 413.66 326.91 420.21 320.36 426.76"/>
      </g>
      <text class="cls-2" transform="translate(239.19 577.2)"><tspan x="0" y="0">移　動</tspan></text>
    </g>
  </g>
</svg>