<?xml version="1.0" encoding="UTF-8"?>
<svg id="_レイヤー_1" data-name="レイヤー 1" xmlns="http://www.w3.org/2000/svg" viewBox="0 0 1000 1000">
  <defs>
    <style>
      .cls-1 {
        fill: #46494c;
        stroke-width: 0px;
      }

      .cls-2 {
        stroke: #46494c;
        stroke-width: 2.84px;
      }

      .cls-2, .cls-3 {
        fill: none;
        stroke-miterlimit: 10;
      }

      .cls-3 {
        stroke: #00aa01;
        stroke-linecap: round;
        stroke-width: 3.54px;
      }
    </style>
  </defs>
  <g>
    <path class="cls-1" d="M339.32,848.64l4.04-4.04.35.36-4.04,4.04,4.04,4.04-.35.36-4.04-4.04-4.05,4.05-.35-.35,4.05-4.05-4.04-4.04.35-.36,4.04,4.04ZM336.75,849c0,.5-.42.92-.92.92s-.92-.42-.92-.92.42-.92.92-.92.92.42.92.92ZM339.32,846.43c-.5,0-.92-.42-.92-.92s.42-.92.92-.92.92.42.92.92-.42.92-.92.92ZM339.32,851.57c.5,0,.92.42.92.92s-.42.92-.92.92-.92-.42-.92-.92.42-.92.92-.92ZM341.89,849c0-.5.42-.92.92-.92s.92.42.92.92-.42.92-.92.92-.92-.42-.92-.92Z"/>
    <path class="cls-1" d="M348.75,852.13c.59.92,1.64,1.32,3.07,1.37,1.33.06,4.12.02,5.58-.07-.1.21-.23.62-.28.89-1.36.06-3.95.09-5.3.02-1.6-.06-2.7-.49-3.45-1.46-.62.54-1.27,1.06-1.97,1.58l-.44-.88c.59-.37,1.29-.88,1.91-1.38v-3.14h-1.76v-.86h2.64v3.93ZM348.34,846.28c-.38-.6-1.26-1.46-2.03-2.03l.64-.56c.77.55,1.68,1.37,2.07,1.97l-.67.62ZM350.87,852.75h-.86v-6.29h3.49c-.72-.35-1.59-.75-2.33-1.02l.58-.51c.53.18,1.13.43,1.7.67.59-.26,1.19-.61,1.68-.97h-5.1v-.72h5.97l.17-.05.56.43c-.65.61-1.57,1.22-2.47,1.68.35.17.67.34.94.49h1.54v5.38c0,.44-.1.66-.42.79-.32.12-.83.13-1.65.13-.04-.22-.15-.54-.26-.75.58.02,1.1.01,1.25.01.16,0,.21-.05.21-.21v-1.11h-2.13v1.98h-.82v-1.98h-2.06v2.03ZM350.87,847.16v1.08h2.06v-1.08h-2.06ZM352.92,850.03v-1.11h-2.06v1.11h2.06ZM355.87,847.16h-2.13v1.08h2.13v-1.08ZM355.87,850.03v-1.11h-2.13v1.11h2.13Z"/>
    <path class="cls-1" d="M362.17,843.7c-.34.86-.77,1.73-1.25,2.52v8.32h-.86v-7.01c-.44.61-.89,1.15-1.36,1.62-.09-.2-.35-.68-.51-.88,1.24-1.16,2.42-2.97,3.13-4.82l.84.26ZM369.63,845.67v.76h-7.91v-.76h7.91ZM362.6,850.72h6.22v3.82h-.91v-.54h-4.43v.58h-.88v-3.85ZM368.7,848.1h-5.97v-.75h5.97v.75ZM362.73,849.05h5.95v.73h-5.95v-.73ZM368.48,844.74h-5.6v-.75h5.6v.75ZM363.48,851.46v1.8h4.43v-1.8h-4.43Z"/>
    <path class="cls-1" d="M373.31,843.39h.89v11.17h-.89v-4.49c-.72.7-1.47,1.39-2.09,1.96l-.51-.77c.65-.53,1.66-1.39,2.61-2.29v-5.58ZM372.44,847.7c-.29-.61-.97-1.57-1.54-2.26l.71-.44c.59.69,1.27,1.62,1.58,2.22l-.75.49ZM378.5,847.9c.59,2.67,1.73,4.87,3.62,5.91-.22.18-.51.51-.66.76-1.64-1.02-2.72-2.84-3.39-5.14-.37,1.81-1.22,3.62-3.06,5.14-.18-.2-.49-.42-.73-.58,2.24-1.84,2.92-4.09,3.12-6.09h-2.78v-.89h2.84c.01-.26.01-.5.01-.75v-2.83h.89v2.83c0,.25,0,.49-.01.75h3.51v.89h-3.37ZM380.77,846.38c-.29-.56-.91-1.48-1.46-2.17l.69-.39c.55.65,1.2,1.54,1.49,2.11l-.72.45Z"/>
    <path class="cls-1" d="M385.58,848.75c-.53-.39-1.58-.89-2.45-1.2l.48-.7c.84.27,1.92.73,2.46,1.11l-.49.78ZM386.75,850.37c-.7,1.33-1.6,2.91-2.37,4.08l-.76-.59c.7-.95,1.74-2.62,2.48-4.05l.65.56ZM386.17,845.44c-.48-.43-1.46-.96-2.25-1.27l.49-.67c.8.28,1.79.77,2.28,1.17l-.51.77ZM393.18,853.67c.31,0,.37-.28.4-1.85.18.16.55.29.8.35-.09,1.81-.32,2.29-1.13,2.29h-1.2c-.91,0-1.13-.28-1.13-1.22v-4.31h-1.42c-.13,2.83-.59,4.65-3.05,5.65-.1-.22-.37-.56-.55-.73,2.25-.84,2.58-2.41,2.7-4.92h-1.3v-4.97h6.33v4.97h-1.81v4.3c0,.37.05.44.35.44h.99ZM388.2,848.08h4.52v-3.27h-4.52v3.27Z"/>
    <path class="cls-1" d="M397.33,845.2c-.34.58-.73,1.1-1.15,1.52-.16-.15-.54-.4-.75-.53.76-.7,1.44-1.77,1.86-2.84l.86.22c-.11.29-.23.58-.38.86h3.18v.77h-2.22c.2.38.37.81.43,1.09l-.8.29c-.09-.37-.31-.92-.53-1.38h-.51ZM404.02,849.68v1.08h2.29v.79h-2.29v1.96c0,.54-.12.77-.54.92-.4.13-1.08.15-2.09.15-.05-.27-.2-.61-.33-.86.83.02,1.55.02,1.77,0,.22,0,.27-.05.27-.22v-1.95h-7.11v-.79h7.11v-1.08h-7.5v-.8h5.02v-1.09h-3.82v-.77h3.82v-.82c-.12-.09-.26-.16-.33-.21.75-.64,1.41-1.63,1.75-2.64l.87.2c-.11.31-.22.59-.37.88h3.96v.77h-2.61c.28.38.54.81.67,1.11l-.78.34c-.13-.4-.49-.99-.86-1.46h-.83c-.23.36-.49.7-.76.98h.2v.84h3.94v.77h-3.94v1.09h5.09v.8h-2.61ZM398.4,851.57c.77.49,1.69,1.25,2.09,1.81l-.7.58c-.39-.56-1.27-1.35-2.06-1.87l.66-.51Z"/>
    <path class="cls-1" d="M410.62,844.47c-.07.21-.18.6-.23.82-.23,1.11-.59,3.28-.59,4.64,0,.59.02,1.08.1,1.67.21-.55.48-1.26.67-1.74l.53.39c-.31.86-.75,2.14-.86,2.72-.04.17-.06.4-.06.54l.04.43-.88.06c-.24-.86-.44-2.25-.44-3.89,0-1.79.39-3.87.54-4.86.04-.28.09-.6.09-.86l1.1.09ZM413.39,850.34c-.11.44-.16.78-.16,1.11,0,.55.37,1.09,2.03,1.09,1.09,0,2.02-.1,3-.32v1.03c-.73.15-1.75.25-3.01.25-2.03,0-2.94-.67-2.94-1.81,0-.44.09-.92.2-1.43l.88.09ZM412.91,845.4c1.32.22,3.77.17,4.98,0v1c-1.3.13-3.65.13-4.97,0v-1Z"/>
    <path class="cls-1" d="M426.22,847.49c0,.79.06,1.97.12,3.02,1.55.43,2.89,1.27,3.77,2.07l-.59.91c-.77-.78-1.88-1.55-3.15-2,.01.32.02.59.02.81,0,.99-.61,1.85-2.23,1.85s-2.9-.54-2.9-1.92c0-1.09.95-1.99,3.05-1.99.34,0,.69.02,1.03.07-.05-.98-.1-2.09-.1-2.81s0-1.7-.01-2.21c-.01-.44-.05-.97-.1-1.2h1.17c-.05.26-.09.83-.1,1.2-.01.33,0,.76,0,1.24.97-.02,2.5-.08,3.59-.23l.04.93c-1.08.1-2.63.17-3.62.2v.09ZM425.39,851.23c-.39-.09-.78-.12-1.19-.12-1.25,0-1.96.43-1.96,1.09s.67,1.04,1.84,1.04c.89,0,1.32-.42,1.32-1.25,0-.2-.01-.45-.01-.76Z"/>
    <path class="cls-1" d="M436.22,844.03c-.26.89-.49,2.52-.56,3.37.48-1.25,1.75-2.75,3.28-2.75,1.62,0,2.78,1.62,2.78,4.16,0,3.37-2.12,4.85-5.13,5.4l-.58-.88c2.63-.4,4.69-1.46,4.69-4.5,0-1.91-.64-3.28-1.92-3.28-1.5,0-2.9,2.19-3.05,3.78-.06.46-.06.88.02,1.48l-.95.07c-.06-.45-.12-1.14-.12-1.92,0-1.15.22-2.94.37-3.92.05-.38.09-.75.1-1.04l1.08.04Z"/>
    <path class="cls-1" d="M449.04,846.18h-4.12v-.75h4.12v.75ZM448.72,853.87h-2.53v.58h-.77v-4.1h3.3v3.52ZM445.43,847.09h3.29v.72h-3.29v-.72ZM445.43,848.7h3.29v.73h-3.29v-.73ZM448.67,844.57h-3.17v-.73h3.17v.73ZM446.19,851.09v2.04h1.76v-2.04h-1.76ZM451.95,849.62c-.11,2.59-.51,4.12-2.67,4.97-.1-.2-.34-.54-.53-.71,1.96-.7,2.24-1.97,2.34-4.26h.86ZM450.11,850.22h-.82v-2.15h6.66v2.15h-.84v-1.41h-4.99v1.41ZM452.11,845.28h-2.77v-.77h2.77v-1.1h.91v1.1h2.89v.77h-2.89v1.14h2.53v.77h-5.81v-.77h2.37v-1.14ZM455.13,853.62c.27,0,.32-.2.35-1.6.16.15.53.28.75.36-.06,1.64-.28,2.07-1,2.07h-1.02c-.83,0-1.03-.27-1.03-1.16v-3.66h.84v3.66c0,.31.04.34.29.34h.81Z"/>
    <path class="cls-1" d="M467.87,851.67c-.37-.32-.8-.65-1.26-.96-.5,1.58-1.43,2.73-3.19,3.61l-.81-.67c1.92-.81,2.78-2.1,3.17-3.43-1.02-.55-2.19-.98-3.45-1.09-.46,1.06-1.06,2.48-1.53,3.16-.43.61-.91.84-1.53.84-.89,0-1.58-.65-1.58-1.67,0-1.79,1.65-3.16,4.03-3.22.44-.96.88-2,1.26-2.75-.48.04-1.95.1-2.51.13-.27.01-.61.04-.89.09l-.05-1.03c.31.04.66.05.92.05.64,0,2.23-.08,2.74-.12.22-.02.43-.07.59-.13l.62.5c-.12.13-.23.24-.32.4-.34.54-.86,1.77-1.37,2.91,1.21.12,2.33.5,3.29.97.05-.31.07-.61.1-.91.02-.33.04-.72.01-1.11l1,.11c-.05.87-.12,1.64-.26,2.35.58.32,1.06.65,1.46.93l-.44,1.03ZM461.31,849.12c-1.74.15-2.73,1.19-2.73,2.22,0,.51.34.81.7.81.28,0,.48-.1.73-.43.43-.55.88-1.65,1.3-2.59Z"/>
    <path class="cls-1" d="M472.34,852.11c.58.89,1.64,1.31,3.05,1.37,1.33.05,4.05.01,5.48-.09-.1.22-.26.65-.29.93-1.33.05-3.84.07-5.19.02-1.59-.06-2.68-.5-3.46-1.44-.59.51-1.2,1.04-1.85,1.57l-.49-.92c.56-.37,1.25-.88,1.86-1.4v-3.1h-1.7v-.86h2.59v3.9ZM471.96,846.2c-.38-.59-1.29-1.39-2.08-1.93l.67-.55c.78.51,1.7,1.3,2.13,1.88l-.72.6ZM477.05,844.03c.31,3.73,1.25,6.62,3.7,7.88-.22.15-.54.46-.72.68-1.71-1-2.7-2.73-3.26-4.96-.64,2.19-1.68,3.85-3.24,4.96-.15-.17-.5-.53-.71-.67,1.79-1.14,2.81-3.05,3.3-5.54l.39.06c-.09-.5-.15-1.02-.21-1.55h-2.23v-.86h2.97Z"/>
    <path class="cls-1" d="M492.58,851.67c-.37-.32-.8-.65-1.26-.96-.5,1.58-1.43,2.73-3.19,3.61l-.81-.67c1.92-.81,2.78-2.1,3.17-3.43-1.02-.55-2.19-.98-3.45-1.09-.46,1.06-1.06,2.48-1.53,3.16-.43.61-.91.84-1.53.84-.89,0-1.58-.65-1.58-1.67,0-1.79,1.65-3.16,4.03-3.22.44-.96.88-2,1.26-2.75-.48.04-1.95.1-2.51.13-.27.01-.61.04-.89.09l-.05-1.03c.31.04.66.05.92.05.64,0,2.23-.08,2.74-.12.22-.02.43-.07.59-.13l.62.5c-.12.13-.23.24-.32.4-.34.54-.86,1.77-1.37,2.91,1.21.12,2.33.5,3.29.97.05-.31.07-.61.1-.91.02-.33.04-.72.01-1.11l1,.11c-.05.87-.12,1.64-.26,2.35.57.32,1.06.65,1.46.93l-.44,1.03ZM486.02,849.12c-1.74.15-2.73,1.19-2.73,2.22,0,.51.34.81.7.81.28,0,.48-.1.73-.43.43-.55.88-1.65,1.3-2.59Z"/>
    <path class="cls-1" d="M497.11,844.47c-.07.21-.18.6-.23.82-.23,1.11-.59,3.28-.59,4.64,0,.59.02,1.08.1,1.67.21-.55.48-1.26.67-1.74l.53.39c-.31.86-.75,2.14-.86,2.72-.04.17-.06.4-.06.54l.04.43-.88.06c-.24-.86-.44-2.25-.44-3.89,0-1.79.39-3.87.54-4.86.04-.28.09-.6.09-.86l1.1.09ZM499.88,850.34c-.11.44-.16.78-.16,1.11,0,.55.37,1.09,2.03,1.09,1.09,0,2.02-.1,3-.32v1.03c-.73.15-1.75.25-3.01.25-2.03,0-2.94-.67-2.94-1.81,0-.44.09-.92.2-1.43l.88.09ZM499.4,845.4c1.32.22,3.77.17,4.98,0v1c-1.3.13-3.65.13-4.97,0v-1Z"/>
    <path class="cls-1" d="M510.62,852.19h-2.63v.99h-.83v-8.97h3.46v7.98ZM507.99,845.03v2.72h1.77v-2.72h-1.77ZM509.76,851.37v-2.83h-1.77v2.83h1.77ZM516.38,848.03v1.38h1.42v.81h-1.42v3.28c0,.51-.13.78-.5.92-.38.13-.99.15-1.98.15-.04-.25-.16-.61-.29-.84.76.02,1.43.02,1.63.01.21-.01.27-.06.27-.25v-3.27h-4.63v-.81h4.63v-1.38h-4.69v-.81h3.07v-1.55h-2.55v-.81h2.55v-1.46h.89v1.46h2.63v.81h-2.63v1.55h3.16v.81h-1.55ZM512.36,850.65c.62.61,1.31,1.48,1.59,2.08l-.77.49c-.28-.6-.93-1.5-1.55-2.15l.73-.42Z"/>
    <path class="cls-1" d="M520.58,848.1v6.49h-.91v-10.66h4.42v4.17h-3.51ZM520.58,844.64v1.02h2.64v-1.02h-2.64ZM523.22,847.41v-1.08h-2.64v1.08h2.64ZM523.18,853.45v.61h-.82v-5.04h4.54v4.43h-3.72ZM523.18,849.72v1.14h2.88v-1.14h-2.88ZM526.06,852.73v-1.19h-2.88v1.19h2.88ZM529.71,853.38c0,.58-.13.88-.54,1.04-.39.15-1.04.16-2.06.16-.04-.26-.18-.68-.32-.93.75.04,1.49.02,1.71.01.21,0,.28-.07.28-.29v-5.25h-3.61v-4.19h4.53v9.45ZM526.05,844.64v1.02h2.74v-1.02h-2.74ZM528.79,847.42v-1.09h-2.74v1.09h2.74Z"/>
    <path class="cls-1" d="M536.1,844.18c-.05.23-.11.48-.15.72-.07.36-.18,1.06-.32,1.71.56-.05,1.06-.09,1.36-.09,1.09,0,1.97.43,1.97,2.07,0,1.44-.2,3.35-.7,4.37-.39.81-.99,1-1.77,1-.46,0-1.04-.09-1.43-.17l-.16-1.04c.51.17,1.15.27,1.49.27.44,0,.8-.1,1.05-.62.39-.81.58-2.39.58-3.7,0-1.1-.5-1.3-1.29-1.3-.29,0-.77.04-1.3.09-.44,1.74-1.27,4.47-2.55,6.5l-.99-.4c1.24-1.65,2.13-4.38,2.55-6-.64.06-1.21.12-1.53.16-.29.04-.78.09-1.09.15l-.1-1.06c.38.01.68.01,1.08,0,.4-.01,1.1-.07,1.84-.13.17-.87.32-1.81.31-2.63l1.15.11ZM540.26,845.56c.76.98,1.81,3.18,2.21,4.31l-.94.46c-.37-1.25-1.32-3.37-2.17-4.36l.89-.42ZM540.77,845.75c-.25-.49-.66-1.24-.99-1.7l.65-.27c.31.43.76,1.19,1.02,1.68l-.67.29ZM542.15,845.25c-.27-.53-.67-1.22-1.02-1.69l.65-.27c.32.44.79,1.21,1.03,1.66l-.66.29Z"/>
    <path class="cls-1" d="M548.62,844.14c-.05.22-.1.48-.15.71-.06.35-.17,1.06-.31,1.71.56-.04,1.06-.07,1.36-.07,1.08,0,1.97.42,1.97,2.06,0,1.44-.21,3.35-.71,4.37-.38.81-.98,1.02-1.77,1.02-.45,0-1.04-.1-1.42-.18l-.16-1.03c.5.16,1.15.27,1.48.27.45,0,.81-.1,1.06-.62.38-.82.56-2.39.56-3.71,0-1.1-.5-1.3-1.27-1.3-.29,0-.77.04-1.3.09-.44,1.74-1.26,4.45-2.54,6.51l-1-.4c1.24-1.65,2.14-4.39,2.55-6.01-.62.06-1.21.12-1.53.16-.28.04-.77.1-1.09.15l-.1-1.06c.38.02.7.01,1.08,0,.4-.01,1.11-.07,1.85-.13.17-.87.31-1.81.31-2.63l1.14.12ZM552.79,845.42c.76.98,1.8,3.21,2.22,4.33l-.96.45c-.35-1.25-1.31-3.38-2.17-4.39l.91-.39Z"/>
    <path class="cls-1" d="M564.77,845.16c-.22.15-.49.33-.67.47-.6.45-2.23,1.88-3.16,2.67.55-.18,1.1-.26,1.64-.26,2.02,0,3.48,1.22,3.48,2.86,0,1.96-1.63,3.23-4.19,3.23-1.65,0-2.67-.73-2.67-1.74,0-.83.75-1.59,1.87-1.59,1.52,0,2.34,1.02,2.5,2.14.95-.37,1.5-1.06,1.5-2.06,0-1.19-1.2-2.06-2.73-2.06-2,0-3.1.84-4.64,2.41l-.71-.72c1-.83,2.56-2.13,3.27-2.72.67-.56,2.18-1.84,2.78-2.37-.64.02-3.02.13-3.65.17-.28.01-.56.03-.82.07l-.02-1.02c.27.04.61.04.86.04.62,0,3.5-.09,4.14-.15.35-.04.53-.06.66-.1l.56.71ZM562.67,853.17c-.11-.95-.69-1.62-1.6-1.62-.55,0-.97.33-.97.75,0,.6.7.94,1.6.94.34,0,.67-.02.97-.07Z"/>
    <path class="cls-1" d="M572.36,850.59c-1.24.62-2.57,1.27-3.6,1.76l-.35-.89c.46-.2,1.04-.44,1.66-.72v-3.83h-1.43v-.86h1.43v-2.54h.84v2.54h1.32v.86h-1.32v3.44l1.25-.56.2.81ZM574.64,849.18c-.16.29-.33.59-.53.86h5.26s-.01.25-.04.37c-.18,2.52-.38,3.48-.72,3.83-.18.21-.4.27-.69.31-.27.01-.72.01-1.21-.01,0-.22-.08-.55-.21-.73.45.04.86.05,1.04.05.17,0,.28-.01.37-.13.21-.22.39-.99.55-2.91h-.95c-.49,1.46-1.44,3.04-2.5,3.83-.15-.18-.43-.39-.65-.53.99-.66,1.88-1.98,2.39-3.3h-1.19c-.65,1.26-1.85,2.59-2.97,3.3-.13-.2-.38-.42-.6-.56,1.02-.55,2.09-1.65,2.75-2.74h-1.24c-.49.55-1.04,1.03-1.59,1.4-.12-.15-.44-.44-.62-.56.97-.58,1.85-1.44,2.42-2.45h-1.71v-.77h7.66v.77h-5.03ZM578.8,847.73h-5.59v-3.95h5.59v3.95ZM577.96,844.46h-3.92v.97h3.92v-.97ZM577.96,846.06h-3.92v.98h3.92v-.98Z"/>
    <path class="cls-1" d="M586.81,843.44c1.3,1.8,3.45,3.5,5.37,4.37-.22.21-.44.53-.6.78-1.9-.99-4.04-2.71-5.18-4.27-1,1.49-2.99,3.23-5.08,4.34-.11-.21-.35-.53-.56-.72,2.13-1.08,4.17-2.94,5.13-4.5h.92ZM582.74,849.72h7.44v4.87h-.93v-.5h-5.62v.5h-.89v-4.87ZM589.5,847.38v.81h-6.13v-.81h6.13ZM583.63,850.54v2.73h5.62v-2.73h-5.62Z"/>
    <path class="cls-1" d="M597.88,844.18c-.05.23-.11.48-.15.72-.07.36-.18,1.06-.32,1.71.56-.05,1.06-.09,1.36-.09,1.09,0,1.97.43,1.97,2.07,0,1.44-.2,3.35-.7,4.37-.39.81-.99,1-1.77,1-.46,0-1.04-.09-1.43-.17l-.16-1.04c.51.17,1.15.27,1.49.27.44,0,.8-.1,1.05-.62.39-.81.58-2.39.58-3.7,0-1.1-.5-1.3-1.29-1.3-.29,0-.77.04-1.3.09-.44,1.74-1.27,4.47-2.55,6.5l-.99-.4c1.24-1.65,2.13-4.38,2.55-6-.64.06-1.21.12-1.53.16-.29.04-.78.09-1.09.15l-.1-1.06c.38.01.68.01,1.08,0,.4-.01,1.1-.07,1.84-.13.17-.87.32-1.81.31-2.63l1.15.11ZM602.04,845.56c.76.98,1.81,3.18,2.21,4.31l-.94.46c-.37-1.25-1.32-3.37-2.17-4.36l.89-.42ZM602.54,845.75c-.25-.49-.66-1.24-.99-1.7l.65-.27c.31.43.76,1.19,1.02,1.68l-.67.29ZM603.93,845.25c-.27-.53-.67-1.22-1.02-1.69l.65-.27c.32.44.79,1.21,1.03,1.66l-.66.29Z"/>
    <path class="cls-1" d="M608.21,850.1c-.15.48-.25.92-.25,1.37,0,.92.93,1.55,2.86,1.55,1.68,0,3.23-.18,4.15-.46v1.04c-.86.24-2.4.43-4.12.43-2.46,0-3.89-.82-3.89-2.34,0-.64.13-1.2.26-1.69l.99.1ZM607.7,845.2c.88.11,2,.16,3.21.16s2.4-.08,3.27-.17v1c-.82.06-2.14.15-3.27.15-1.21,0-2.24-.05-3.21-.13v-1ZM615.56,845.51l-.66.31c-.25-.5-.66-1.25-1-1.71l.66-.27c.31.43.75,1.19,1,1.68ZM616.94,845.01l-.67.29c-.26-.53-.66-1.22-1.02-1.69l.65-.28c.33.45.8,1.22,1.04,1.68Z"/>
    <path class="cls-1" d="M626.84,843.59c.31.44.75,1.19.99,1.69l-.36.16.17.93c-.73.21-1.52.38-2.28.5.43.95,1.08,2.36,1.63,3.39l-.56.59c-.53-.11-1.73-.28-2.52-.35l.11-.8c.45.05,1.31.13,1.71.18-.36-.76-.96-2.01-1.32-2.86-1.57.2-3.3.2-5.15.04l-.04-.98c1.76.23,3.41.22,4.8.07l-.4-.89c-.2-.47-.31-.7-.51-1.02l1.1-.22c.28.82.51,1.36.78,1.99.72-.12,1.42-.29,2.14-.5-.24-.5-.64-1.2-.95-1.64l.66-.28ZM620.82,850.01c-.2.45-.34,1.16-.34,1.52,0,1.08.72,1.71,2.53,1.71,1.6,0,2.31-.15,3.18-.33v1c-.77.13-1.59.28-3.19.28-2.26,0-3.5-.89-3.5-2.42,0-.53.13-1.19.33-1.85l.99.09ZM628.19,843.11c.33.45.8,1.21,1.03,1.68l-.66.29c-.27-.54-.66-1.24-1.02-1.7l.65-.27Z"/>
    <path class="cls-1" d="M632.4,846.31c-.01.76,0,1.87.09,2.86.2,2.03.78,3.37,1.64,3.37.62,0,1.19-1.25,1.5-2.47l.77.88c-.72,2.06-1.47,2.75-2.3,2.75-1.14,0-2.24-1.14-2.57-4.28-.12-1.05-.13-2.52-.13-3.23,0-.28-.01-.78-.07-1.08l1.17.02c-.05.29-.09.86-.1,1.17ZM640.95,851.4l-.99.39c-.21-2.18-.94-4.58-2.09-6l.95-.33c1.09,1.41,1.96,3.89,2.13,5.93Z"/>
    <path class="cls-1" d="M652.09,853.5c-.71-.65-1.71-1.38-2.92-1.82.01.31.02.58.02.76,0,.83-.56,1.7-2.14,1.7-1.74,0-2.7-.62-2.7-1.8,0-1.1,1.06-1.85,2.81-1.85.35,0,.69.02,1.02.07-.02-.54-.05-1.11-.06-1.62h-.67c-.83,0-2.18-.07-3.05-.17v-.93c.82.15,2.25.23,3.05.23h.65v-1.74h-.6c-.84,0-2.13-.1-2.85-.18v-.91c.73.13,2.03.23,2.84.23h.62v-.8c0-.2-.01-.55-.04-.72h1.04c-.04.22-.05.45-.06.81-.01.15-.01.38-.01.67,1.05-.04,2.04-.13,3.11-.29v.89c-.94.1-1.98.2-3.12.26v1.74c1.16-.05,2.28-.16,3.37-.32v.92c-1.13.15-2.2.23-3.35.28.02.62.06,1.26.09,1.84,1.6.44,2.84,1.33,3.52,1.88l-.55.86ZM648.21,851.41c-.38-.07-.77-.11-1.17-.11-1.15,0-1.77.44-1.77.99s.48.98,1.68.98c.7,0,1.29-.21,1.29-1.04,0-.21-.01-.49-.01-.82Z"/>
    <path class="cls-1" d="M662.03,846.4c0,.68.01,1.43.02,1.98.26.42.39.95.39,1.55,0,1.64-.79,3.46-3.61,4.31l-.84-.82c1.59-.37,2.72-1.03,3.22-2.1-.29.21-.64.31-1.04.31-1.03,0-2.01-.72-2.01-2.03,0-1.2.99-2.12,2.14-2.12.29,0,.56.05.81.13,0-.35,0-.78-.01-1.2-1.84.01-3.89.1-5.41.21l-.02-.95c1.35-.02,3.62-.1,5.42-.12,0-.34-.01-.62-.02-.79-.01-.26-.05-.61-.07-.76h1.11l-.06.76c0,.18-.01.46-.01.78h.18c1.47,0,2.96.01,3.55.01v.92c-.7-.04-1.8-.06-3.57-.06h-.16ZM661.39,849.06c-.2-.53-.6-.75-1.08-.75-.62,0-1.22.49-1.22,1.27s.56,1.2,1.24,1.2c.71,0,1.17-.58,1.06-1.73Z"/>
  </g>
  <g>
    <path class="cls-1" d="M252.07,252.77c-.33,1.14-.54,2.15-.54,3.23,0,2.06,2.06,3.53,6.58,3.53,4.07,0,7.87-.45,10.26-1.14l.03,3.26c-2.33.6-5.98,1.02-10.2,1.02-6.34,0-9.78-2.12-9.78-5.98,0-1.62.33-3.02.6-4.19l3.05.27ZM250.31,240.56c2.15.24,4.9.36,7.93.36s6.04-.18,8.25-.42v3.11c-2.03.15-5.47.36-8.22.36-3.05,0-5.59-.12-7.96-.33v-3.08Z"/>
    <path class="cls-1" d="M287.96,260c1.05-.09,1.91-.24,2.63-.42,3.8-.87,7.18-3.62,7.18-8.4,0-4.31-2.57-7.69-7.12-8.25-.42,2.66-.96,5.53-1.76,8.31-1.79,6.04-4.25,9.42-7.21,9.42s-5.62-3.32-5.62-8.25c0-6.58,5.83-12.29,13.25-12.29s11.63,4.96,11.63,11.19-3.98,10.5-11.21,11.51l-1.76-2.81ZM285.86,250.61c.75-2.33,1.32-5.02,1.62-7.63-5.32.87-8.43,5.5-8.43,9.15,0,3.41,1.53,4.96,2.72,4.96,1.29,0,2.72-1.91,4.1-6.49Z"/>
    <path class="cls-1" d="M307.48,251.57c1.38-1.41,3.86-4.55,5.83-6.88,1.67-1.97,3.08-2.18,5.35-.27,1.91,1.55,4.28,4.1,6.16,6.13,2,2.15,5.11,5.47,7.27,8.02l-2.48,2.69c-2-2.57-4.73-5.74-6.58-7.9-1.97-2.24-4.49-4.96-5.71-6.01-1.14-.96-1.62-.96-2.54.21-1.35,1.65-3.71,4.79-4.99,6.43-.63.87-1.32,1.82-1.79,2.51l-2.78-2.81c.81-.69,1.41-1.29,2.27-2.12ZM327.19,239.97c2.09,0,3.77,1.67,3.77,3.77s-1.67,3.71-3.77,3.71-3.74-1.65-3.74-3.71,1.67-3.77,3.74-3.77ZM327.19,245.8c1.14,0,2.06-.93,2.06-2.06s-.93-2.06-2.06-2.06-2.06.93-2.06,2.06.93,2.06,2.06,2.06Z"/>
    <path class="cls-1" d="M336.97,248.49c.96.09,2.81.18,4.43.18h16.24c1.47,0,2.63-.12,3.35-.18v3.68c-.66-.03-2-.12-3.32-.12h-16.27c-1.67,0-3.44.06-4.43.12v-3.68Z"/>
    <path class="cls-1" d="M375.09,249.6l-1.73,2.66c-1.56-1.14-4.76-3.17-6.64-4.19l1.7-2.57c1.85,1.02,5.26,3.11,6.67,4.1ZM378.12,256.62c4.99-2.84,9.06-6.85,11.45-11.1l1.82,3.17c-2.69,4.07-6.85,7.9-11.69,10.71-3.02,1.76-7.21,3.2-9.93,3.71l-1.76-3.08c3.32-.57,6.97-1.67,10.11-3.41ZM379.61,242.99l-1.79,2.57c-1.53-1.11-4.73-3.2-6.55-4.25l1.7-2.57c1.85,1.02,5.2,3.23,6.64,4.25ZM388.58,243.85l-2.09.93c-.81-1.7-1.65-3.26-2.69-4.7l2.03-.87c.78,1.17,2.06,3.26,2.75,4.64ZM392.68,242.33l-2.09.93c-.84-1.7-1.76-3.2-2.81-4.61l2.06-.87c.84,1.11,2.09,3.17,2.84,4.55Z"/>
    <path class="cls-1" d="M402.52,238.98c-.21.51-.48,1.73-.6,2.27-.54,2.39-1.44,8.55-1.44,11.72,0,1.05.06,2.03.21,3.11.42-1.23,1.05-2.66,1.5-3.74l1.52,1.2c-.78,2.21-1.79,5.23-2.12,6.76-.09.39-.15.99-.15,1.35.03.3.03.75.06,1.11l-2.63.18c-.6-2.06-1.17-5.38-1.17-9.39,0-4.43.96-10.05,1.32-12.41.09-.75.21-1.67.24-2.45l3.26.3ZM421.33,260.87c-1.38-1.29-2.72-2.39-4.1-3.23v.09c0,2.75-1.32,5.08-5.44,5.08s-6.34-1.67-6.34-4.52,2.36-4.76,6.31-4.76c.84,0,1.65.06,2.39.18-.09-2.06-.21-4.61-.27-6.91-.84.03-1.67.06-2.51.06-1.7,0-3.32-.09-5.05-.18l-.03-2.81c1.7.15,3.35.24,5.11.24.84,0,1.64-.03,2.48-.06,0-1.47-.03-2.72-.03-3.47,0-.51-.06-1.32-.18-1.88h3.38c-.09.6-.15,1.23-.18,1.82-.03.75-.06,2-.09,3.35,1.73-.15,3.38-.36,4.9-.66v2.9c-1.53.24-3.2.42-4.9.54.06,2.96.24,5.62.33,7.9,2.45.99,4.31,2.51,5.8,3.86l-1.58,2.45ZM414.27,256.27c-.9-.24-1.79-.39-2.75-.39-1.97,0-3.32.87-3.32,2.09,0,1.38,1.32,2.06,3.2,2.06,2.18,0,2.87-1.11,2.87-2.96v-.81Z"/>
    <path class="cls-1" d="M433.29,252.77c-.33,1.14-.54,2.15-.54,3.23,0,2.06,2.06,3.53,6.58,3.53,4.07,0,7.87-.45,10.26-1.14l.03,3.26c-2.33.6-5.98,1.02-10.2,1.02-6.34,0-9.78-2.12-9.78-5.98,0-1.62.33-3.02.6-4.19l3.05.27ZM431.52,240.56c2.15.24,4.91.36,7.93.36s6.04-.18,8.25-.42v3.11c-2.03.15-5.47.36-8.22.36-3.05,0-5.59-.12-7.96-.33v-3.08Z"/>
    <path class="cls-1" d="M483.86,259.74c-1.5,1.47-3.32,2.36-5.5,2.36-2.06,0-3.5-1.44-3.5-4.07,0-3.26,1.11-7.9,1.11-10.71,0-1.59-.81-2.3-2.21-2.3-2.3,0-5.71,2.78-8.28,5.56-.06,1.05-.09,2.06-.09,2.99,0,2.57-.03,4.7.12,7.39.03.54.12,1.41.18,2h-3.23c.03-.51.09-1.47.09-1.94.03-2.75.06-4.46.12-7.75-1.38,2.03-3.11,4.61-4.37,6.31l-1.85-2.6c1.65-2.06,4.88-6.34,6.46-8.73.06-.84.12-1.71.18-2.54-1.38.18-3.83.51-5.62.75l-.3-3.05c.75.03,1.38,0,2.21-.03.93-.06,2.48-.24,3.89-.45.09-1.29.15-2.24.15-2.57,0-.75,0-1.59-.15-2.39l3.5.12c-.15.75-.39,2.33-.6,4.25l1.05,1.26c-.39.54-.93,1.38-1.41,2.12-.03.42-.06.81-.09,1.23,2.3-2.09,5.92-4.7,8.82-4.7s4.4,1.71,4.4,4.16c0,2.99-1.05,7.78-1.05,10.8,0,.93.42,1.59,1.35,1.59,1.32,0,2.84-.87,4.19-2.3l.45,3.26Z"/>
    <path class="cls-1" d="M493.69,251.48c2.75-2.21,5.86-3.23,9.18-3.23,4.82,0,7.87,2.96,7.87,6.46,0,5.35-4.55,9.18-16.09,8.22l-.93-3.08c9.15,1.17,13.79-1.29,13.79-5.2,0-2.18-2.03-3.71-4.88-3.71-3.68,0-6.73,1.35-8.73,3.71-.48.57-.75,1.08-.99,1.58l-2.75-.66c.57-2.78,1.32-8.82,1.5-12.17l3.17.42c-.39,1.85-.9,5.83-1.14,7.66ZM495.1,238.2c2.66.84,9.03,2,11.63,2.27l-.69,2.9c-2.9-.39-9.42-1.73-11.69-2.33l.75-2.84Z"/>
    <path class="cls-1" d="M529.58,260c1.05-.09,1.91-.24,2.63-.42,3.8-.87,7.18-3.62,7.18-8.4,0-4.31-2.57-7.69-7.12-8.25-.42,2.66-.96,5.53-1.76,8.31-1.79,6.04-4.25,9.42-7.21,9.42s-5.62-3.32-5.62-8.25c0-6.58,5.83-12.29,13.25-12.29s11.63,4.96,11.63,11.19-3.98,10.5-11.22,11.51l-1.76-2.81ZM527.48,250.61c.75-2.33,1.32-5.02,1.61-7.63-5.32.87-8.43,5.5-8.43,9.15,0,3.41,1.53,4.96,2.72,4.96,1.29,0,2.72-1.91,4.1-6.49Z"/>
    <path class="cls-1" d="M552.63,252.95v8.1c0,1.29-.24,2-.99,2.39-.72.45-1.76.54-3.35.54-.09-.69-.42-1.79-.72-2.48.9.03,1.74,0,2,0,.33,0,.45-.09.45-.45v-7.15c-.99.36-1.94.72-2.81.99l-.69-2.66c1.02-.3,2.18-.66,3.5-1.08v-6.01h-3.14v-2.6h3.14v-5.8h2.6v5.8h2.63v2.6h-2.63v5.08l2.42-.81.42,2.45-2.84,1.08ZM567.41,256.89c1.76,1.85,4.43,3.5,6.94,4.34-.57.51-1.35,1.47-1.76,2.15-2.33-1.02-4.79-2.84-6.58-4.9v5.74h-2.63v-5.56c-2.12,2.15-4.96,3.95-7.81,4.94-.42-.63-1.2-1.62-1.76-2.15,3.02-.87,6.1-2.54,8.11-4.55h-6.07v-2.27h7.54v-2.03h-7.03v-6.85h7.63v6.79h1.44v-6.79h7.87v6.85h-7.27v2.03h7.87v2.27h-6.46ZM561.72,247.71h-3.26v2.87h3.26v-2.87ZM570.31,244.54h-11.16v-6.64h11.16v6.64ZM567.79,239.94h-6.22v2.6h6.22v-2.6ZM567.59,250.58h3.41v-2.87h-3.41v2.87Z"/>
    <path class="cls-1" d="M586.51,237.69c-.81,2.09-1.82,4.25-2.96,6.25v20.19h-2.81v-15.79c-.78,1.08-1.62,2.06-2.45,2.93-.27-.69-1.08-2.24-1.56-2.87,2.84-2.81,5.5-7.18,7.12-11.54l2.66.84ZM595.54,244.3v3.8h8.13v2.54h-8.13v3.98h8.55v2.6h-8.55v6.94h-2.84v-19.86h-1.67c-1.26,2.33-2.63,4.43-4.07,6.01-.45-.48-1.53-1.47-2.15-1.88,2.63-2.75,5.02-7.06,6.46-11.36l2.66.72c-.48,1.29-.99,2.6-1.56,3.86h12.02v2.66h-8.85Z"/>
    <path class="cls-1" d="M618.99,238.62c-.15.63-.33,1.38-.45,2.03-.15.9-.42,2.33-.69,3.68,1.2-.09,2.27-.15,2.96-.15,2.84,0,5.03,1.2,5.03,5.32,0,3.5-.45,8.19-1.68,10.74-.99,2-2.51,2.57-4.58,2.57-1.14,0-2.54-.21-3.53-.45l-.51-3.11c1.23.36,2.84.63,3.65.63,1.05,0,1.88-.27,2.42-1.41.9-1.85,1.32-5.56,1.32-8.64,0-2.54-1.14-2.96-3.02-2.96-.6,0-1.58.06-2.69.15-1.08,4.37-3.17,11.16-6.1,15.88l-3.08-1.23c2.96-3.95,5.08-10.32,6.13-14.33-1.35.15-2.54.27-3.23.36-.78.09-2.09.27-2.93.42l-.3-3.23c1.02.06,1.85.03,2.87,0,.96-.03,2.54-.15,4.19-.3.42-2.18.72-4.43.72-6.34l3.5.36ZM629.64,242.48c1.79,2.69,3.98,7.48,4.88,10.02l-2.96,1.41c-.84-3.17-3.08-8.37-5.17-10.89l2.78-1.23c.15.21.3.42.48.66-.6-1.2-1.56-2.99-2.39-4.13l1.94-.81c.75,1.08,1.82,2.96,2.42,4.13l-1.97.84ZM633.1,241.19c-.63-1.29-1.58-2.99-2.45-4.13l1.94-.81c.78,1.11,1.91,2.99,2.48,4.1l-1.97.84Z"/>
    <path class="cls-1" d="M641.18,241.67c2.15-.21,7.45-.72,12.89-1.17,3.14-.27,6.13-.45,8.13-.51l.03,3.02c-1.64,0-4.22.03-5.77.42-3.92,1.2-6.52,5.38-6.52,8.88,0,5.41,5.02,7.18,9.9,7.42l-1.08,3.17c-5.8-.3-11.87-3.41-11.87-9.93,0-4.49,2.6-8.07,5-9.6-2.57.27-9.84.99-13.16,1.7l-.3-3.26c1.14-.03,2.15-.09,2.75-.15ZM660.5,250.4l-1.85.84c-.72-1.52-1.5-2.9-2.39-4.19l1.79-.78c.72,1.05,1.82,2.87,2.45,4.13ZM663.91,249.03l-1.82.9c-.78-1.53-1.56-2.84-2.51-4.13l1.79-.81c.72,1.02,1.88,2.81,2.54,4.04Z"/>
    <path class="cls-1" d="M692.04,248.01c-1.26.45-2.93.87-4.84,1.23.84,1.73,1.73,3.65,2.57,5.23l-1.41,1.79c-1.56-.3-4.16-.66-6.07-.9l.24-2.27c1.35.15,2.63.27,3.5.36-.51-1.14-1.08-2.45-1.67-3.74-3.74.48-8.55.54-13.13.24l-.12-2.72c4.49.42,8.7.39,12.17,0l-.81-1.88c-.24-.54-.48-1.08-.69-1.58-2.96.27-6.67.27-10.32-.09l-.18-2.72c3.47.39,6.61.48,9.39.3l-.24-.51c-.48-1.02-.78-1.58-1.23-2.3l3.35-.69c.24.96.63,2.03,1.05,3.17,2.03-.33,4.01-.81,5.77-1.41l.51,2.63c-1.53.51-3.32.9-5.29,1.23l.54,1.26c.24.54.57,1.29.96,2.15,2.3-.42,4.07-.96,5.38-1.44l.57,2.66ZM675.21,253.9c-.36.93-.69,2.21-.69,2.96,0,2.09,1.59,3.44,5.65,3.44,2.57,0,5.41-.21,7.51-.66l-.09,2.99c-1.74.33-4.7.6-7.33.6-5.41,0-8.64-1.85-8.64-5.74,0-1.29.36-2.75.69-3.83l2.9.24Z"/>
    <path class="cls-1" d="M720.69,261.68c-1.67-1.56-3.95-3.23-6.61-4.31,0,.6.03,1.11.03,1.52,0,2.24-1.62,4.31-5.47,4.31-4.49,0-6.91-1.64-6.91-4.64,0-2.81,2.66-4.79,7.09-4.79.75,0,1.47.06,2.18.12-.06-1.11-.09-2.3-.12-3.38h-1.62c-1.88,0-5.23-.15-7.3-.39l.03-2.81c1.85.36,5.5.57,7.3.57h1.53v-3.74h-1.47c-1.97,0-4.99-.21-6.73-.45v-2.72c1.82.33,4.79.57,6.7.57h1.53v-1.67c0-.54-.06-1.41-.12-1.88h3.17c-.06.54-.15,1.2-.18,2,0,.33-.03.87-.03,1.47,2.48-.12,4.79-.36,7.39-.75l.03,2.72c-2.15.21-4.64.48-7.45.6v3.77c2.93-.15,5.53-.42,8.08-.78l.03,2.81c-2.75.33-5.2.51-8.04.63.03,1.35.12,2.75.21,4.04,3.83,1.08,6.76,3.17,8.46,4.58l-1.71,2.6ZM711.09,256.48c-.87-.15-1.74-.24-2.66-.24-2.51,0-3.86.96-3.86,2.18s1.11,2.12,3.65,2.12c1.67,0,2.9-.48,2.9-2.39,0-.42,0-.99-.03-1.67Z"/>
    <path class="cls-1" d="M754.36,244.48c-1.76-.09-4.55-.15-8.85-.15.03,1.58.03,3.32.03,4.64.69,1.08,1.05,2.42,1.05,3.95,0,3.95-2.09,8.58-9.12,10.62l-2.54-2.51c3.47-.78,6.19-2.06,7.63-4.28-.6.27-1.29.42-2.06.42-2.39,0-5-1.79-5-5.17,0-3.11,2.54-5.32,5.53-5.32.6,0,1.14.06,1.64.21l-.03-2.51c-4.49.06-9.33.24-13.01.48l-.09-2.87c3.35-.03,8.85-.21,13.07-.27-.03-.63-.03-1.17-.06-1.5-.06-.75-.15-1.73-.24-2.15h3.41c-.06.39-.15,1.73-.15,2.15-.03.36-.03.87-.03,1.47h8.85l-.03,2.81ZM741.02,254.56c1.53,0,2.66-1.23,2.27-4.04-.48-.96-1.32-1.38-2.3-1.38-1.35,0-2.66,1.02-2.66,2.78,0,1.65,1.26,2.63,2.69,2.63Z"/>
    <path class="cls-1" d="M271.78,756.17v2.69h-21.17v-2.69h9.45v-8.22h-6.31v-1.91c-1.73,4.61-4.13,8.79-7.6,11.93-.45-.63-1.29-1.64-1.85-2.21,4.34-3.8,6.88-9.63,8.46-15.7h-7.27v-2.66h7.87c.39-1.76.69-3.5.96-5.17l2.9.36c-.27,1.58-.6,3.2-.93,4.81h14.98v2.66h-15.64c-.48,1.76-.96,3.53-1.58,5.23h16.54v2.66h-7.69v8.22h8.88Z"/>
    <path class="cls-1" d="M301.98,755.39v2.81h-26.77v-2.81h10.92v-22.79h2.99v8.88h10.8v2.78h-10.8v11.13h12.86Z"/>
    <path class="cls-1" d="M317.26,733.92c-.15.63-.3,1.38-.42,2.03-.18.9-.45,2.33-.72,3.68,1.23-.09,2.27-.15,2.96-.15,2.87,0,5.05,1.2,5.05,5.32,0,3.5-.45,8.2-1.71,10.74-.96,2-2.48,2.57-4.58,2.57-1.11,0-2.54-.21-3.5-.45l-.51-3.11c1.2.36,2.84.63,3.65.63,1.05,0,1.88-.27,2.42-1.41.9-1.85,1.32-5.56,1.32-8.64,0-2.54-1.14-2.96-3.02-2.96-.6,0-1.58.06-2.69.15-1.11,4.37-3.2,11.16-6.1,15.88l-3.08-1.23c2.93-3.95,5.05-10.32,6.1-14.33-1.35.15-2.54.27-3.2.36-.78.09-2.12.27-2.96.42l-.27-3.23c.99.06,1.85.03,2.84,0,.96-.03,2.54-.15,4.22-.3.42-2.18.72-4.43.69-6.34l3.5.36ZM327.46,736.88c1.82,2.48,4.37,7.99,5.32,10.77l-2.93,1.41c-.84-3.14-3.08-8.43-5.17-10.98l2.78-1.2Z"/>
    <path class="cls-1" d="M342.68,746.93c2.75-2.21,5.86-3.23,9.18-3.23,4.81,0,7.87,2.96,7.87,6.46,0,5.35-4.55,9.18-16.09,8.22l-.93-3.08c9.15,1.17,13.79-1.29,13.79-5.2,0-2.18-2.03-3.71-4.88-3.71-3.68,0-6.73,1.35-8.73,3.71-.48.57-.75,1.08-.99,1.58l-2.75-.66c.57-2.78,1.32-8.82,1.5-12.17l3.17.42c-.39,1.85-.9,5.83-1.14,7.66ZM344.08,733.65c2.66.84,9.03,2,11.63,2.27l-.69,2.9c-2.9-.39-9.42-1.73-11.69-2.33l.75-2.84Z"/>
    <path class="cls-1" d="M388.94,735.45c-.36.6-.84,1.73-1.11,2.39-.93,2.51-2.39,5.68-4.28,8.49,2.63,2.18,5.2,4.52,7.27,6.73l-2.42,2.66c-2.15-2.48-4.37-4.61-6.85-6.73-2.72,3.32-6.34,6.73-11.45,9.48l-2.72-2.42c5.08-2.42,8.7-5.53,11.66-9.15-2.18-1.73-5.26-4.04-8.22-5.86l2-2.39c2.48,1.58,5.77,3.86,8.16,5.65,1.73-2.6,2.87-5.2,3.71-7.66.24-.69.54-1.76.66-2.45l3.59,1.26Z"/>
    <path class="cls-1" d="M397.13,752.16c1.08.09,2.27.18,3.38.18h17.59c.96,0,2.03-.06,2.99-.18v3.62c-.99-.09-2.15-.15-2.99-.15h-17.59c-1.11,0-2.33.06-3.38.15v-3.62ZM399.67,737.45c.99.09,2.18.15,3.17.15h12.62c1.14,0,2.3-.06,3.11-.15v3.41c-.84-.06-2.09-.12-3.11-.12h-12.59c-1.08,0-2.24.06-3.2.12v-3.41Z"/>
    <path class="cls-1" d="M447.73,754.41c.69,0,1.91-.06,2.6-.12v3.05c-.57-.03-1.82-.06-2.54-.06h-16.12c-.99,0-1.67.03-2.69.06v-3.08c.78.09,1.73.15,2.69.15h10.35c.42-2.54,1.2-7.69,1.29-9.36h-8.88c-.9,0-1.85.06-2.66.09v-3.11c.75.09,1.88.15,2.63.15h8.49c.54,0,1.5-.09,1.79-.24l2.27,1.11c-.09.33-.18.78-.24,1.08-.24,1.91-1.08,7.51-1.5,10.29h2.51Z"/>
    <path class="cls-1" d="M457.78,743.94c.96.09,2.81.18,4.43.18h16.24c1.47,0,2.63-.12,3.35-.18v3.68c-.66-.03-2-.12-3.32-.12h-16.27c-1.67,0-3.44.06-4.43.12v-3.68Z"/>
    <path class="cls-1" d="M500.3,753.12c.09-1.02.12-2.69.12-4.16-2.51,1.41-4.1,2.75-4.1,4.49,0,2.03,1.91,2.42,4.91,2.42,2.39,0,5.62-.3,8.22-.78l-.09,3.02c-2.15.27-5.56.51-8.22.51-4.43,0-7.87-1.02-7.87-4.7s3.56-5.95,6.97-7.69c-.36-1.05-1.32-1.46-2.39-1.46-1.85,0-3.65.96-4.9,2.12-.87.84-1.73,1.91-2.72,3.17l-2.54-1.91c3.47-3.29,5.47-6.16,6.7-8.64h-.87c-1.23,0-3.29-.06-4.94-.18v-2.78c1.56.21,3.68.33,5.08.33h1.73c.39-1.35.63-2.63.69-3.56l3.08.24c-.18.78-.42,1.91-.84,3.2,2.93-.12,6.04-.39,8.76-.87v2.75c-2.9.45-6.55.69-9.75.81-.6,1.32-1.38,2.69-2.24,3.86.93-.54,2.6-.87,3.77-.87,1.85,0,3.38.87,3.95,2.51,1.82-.87,3.35-1.5,4.75-2.12.99-.45,1.85-.84,2.81-1.32l1.17,2.75c-.81.24-2.09.72-2.99,1.08-1.53.57-3.44,1.38-5.5,2.33.03,1.67.09,4.04.12,5.44h-2.87Z"/>
    <path class="cls-1" d="M522.64,753.36c1.32,2.12,3.77,3.08,7.06,3.2,3.47.15,10.59.06,14.42-.21-.27.63-.69,1.82-.84,2.63-3.53.15-10.02.21-13.55.09-3.77-.15-6.37-1.17-8.19-3.47-1.2,1.23-2.45,2.45-3.86,3.74l-1.41-2.63c1.17-.84,2.54-1.97,3.8-3.11v-7.24h-3.41v-2.57h5.98v9.57ZM520.88,739.36c-.75-1.47-2.57-3.59-4.25-5.08l2.21-1.41c1.67,1.44,3.56,3.44,4.4,4.91l-2.36,1.58ZM543.63,751.18h-19.86v-2.12h5.11v-2.45h-4.19v-2.06h4.19v-1.91h2.63v1.91h4.22v-1.91h2.66v1.91h4.31v2.06h-4.31v2.45h5.23v2.12ZM530.29,735.09h-6.04v-1.85h8.4v5.35h-5.62v1.11c0,.6.15.69,1.02.69h2.84c.66,0,.78-.15.87-1.32.45.33,1.35.63,2,.75-.24,1.94-.9,2.48-2.57,2.48h-3.41c-2.42,0-3.05-.54-3.05-2.57v-3.02h5.56v-1.62ZM532.39,752.1c-1.53,1.47-3.98,2.87-5.95,3.77-.45-.48-1.44-1.32-2.03-1.71,2.06-.75,4.22-1.79,5.53-2.9l2.45.84ZM531.52,749.05h4.22v-2.45h-4.22v2.45ZM539.96,735.09h-6.04v-1.85h8.46v5.35h-5.59v1.11c0,.6.15.69,1.08.69h3.02c.66,0,.81-.18.9-1.41.48.33,1.35.63,2,.78-.24,2-.93,2.54-2.6,2.54h-3.65c-2.39,0-3.08-.54-3.08-2.6v-2.99h5.5v-1.62ZM540.55,755.93c-1.17-1.05-3.29-2.42-5.26-3.44l1.97-1.2c2.18,1.02,4.67,2.42,6.1,3.53l-2.81,1.11Z"/>
    <path class="cls-1" d="M557.87,747.68c-1.35.33-2.72.66-4.07.99v7.78c0,1.5-.33,2.24-1.26,2.69-.9.39-2.3.48-4.58.48-.06-.72-.45-1.85-.81-2.57,1.46.06,2.9.06,3.35.03.42-.03.6-.15.6-.63v-7.15c-1.44.36-2.78.66-3.98.93l-.66-2.69c1.32-.24,2.9-.57,4.64-.93v-5.95h-4.19v-2.57h4.19v-5.89h2.69v5.89h3.86v2.57h-3.86v5.35c1.26-.27,2.57-.57,3.83-.87l.24,2.54ZM567.59,746.15c1.14,5,3.32,9.21,7.09,11.1-.66.54-1.53,1.71-1.94,2.45-4.34-2.48-6.64-7.36-7.9-13.55h-3.11c-.21,4.52-1.17,9.93-4.61,13.49-.42-.54-1.56-1.55-2.12-1.88,3.68-3.83,4.01-9.45,4.01-13.82v-10.08h14.09v12.29h-5.5ZM561.78,736.49v7.06h8.52v-7.06h-8.52Z"/>
    <path class="cls-1" d="M586.27,733.89c-.18,1.08-.27,2.33-.33,3.38-.12,3.29-.36,10.11-.36,14.24,0,3.11,1.97,4.19,4.52,4.19,5.2,0,8.28-2.93,10.41-6.1l2.12,2.6c-1.97,2.81-5.95,6.64-12.59,6.64-4.52,0-7.54-1.94-7.54-6.85,0-4.22.3-11.84.3-14.71,0-1.23-.09-2.42-.3-3.41l3.77.03Z"/>
    <path class="cls-1" d="M611.09,736.97c2.18-.18,7.45-.69,12.89-1.17,3.17-.24,6.13-.42,8.16-.48v2.99c-1.64,0-4.19.03-5.74.45-3.95,1.17-6.55,5.38-6.55,8.88,0,5.38,5.03,7.18,9.93,7.39l-1.08,3.2c-5.8-.3-11.9-3.41-11.9-9.96,0-4.46,2.6-8.04,5.02-9.6-2.6.3-9.87,1.02-13.16,1.71l-.33-3.26c1.17-.03,2.18-.09,2.75-.15Z"/>
    <path class="cls-1" d="M657.45,735.51c-.75.57-1.67,1.38-2.27,1.82-1.97,1.67-6.07,4.91-8.16,6.67-1.71,1.46-1.71,1.85.06,3.35,2.48,2.06,8.08,6.58,10.98,9.45l-2.69,2.48c-.72-.84-1.55-1.65-2.27-2.42-1.62-1.73-6.4-5.77-9.12-8.07-2.87-2.39-2.57-3.86.21-6.19,2.27-1.91,6.58-5.32,8.58-7.33.69-.72,1.55-1.58,1.94-2.21l2.75,2.45Z"/>
    <path class="cls-1" d="M683.46,740.29c-1.85.42-3.92.75-5.95.99-.27,1.29-.6,2.6-.93,3.86-1.08,4.19-3.05,10.29-4.67,13.64l-3.29-1.11c1.79-3.02,3.92-9.12,5.02-13.28.27-.9.51-1.88.72-2.84-.84.03-1.61.06-2.36.06-1.38,0-2.45-.03-3.53-.12l-.06-2.93c1.44.18,2.48.24,3.62.24.93,0,1.91-.03,2.96-.12.15-.87.3-1.64.36-2.18.12-.96.15-2.03.09-2.69l3.62.27c-.21.75-.45,1.94-.57,2.54l-.36,1.73c1.79-.24,3.62-.6,5.32-1.02v2.96ZM682.53,750.37c-.24.93-.42,1.85-.42,2.57,0,1.35.72,2.54,4.49,2.54,1.94,0,3.98-.24,5.92-.6l-.09,3.02c-1.65.24-3.62.42-5.86.42-4.81,0-7.3-1.58-7.3-4.52,0-1.23.21-2.48.45-3.71l2.81.27ZM681.37,743.07c1.58-.15,3.62-.3,5.53-.3,1.71,0,3.5.09,5.17.27l-.09,2.84c-1.5-.18-3.26-.36-5.03-.36-1.94,0-3.77.09-5.59.3v-2.75ZM689.41,739.84c-.6-1.2-1.58-3.02-2.39-4.16l1.94-.81c.75,1.08,1.82,2.96,2.42,4.13l-1.97.84ZM692.37,733.59c.78,1.14,1.91,3.02,2.48,4.1l-1.94.87c-.66-1.29-1.65-3.02-2.48-4.16l1.94-.81Z"/>
    <path class="cls-1" d="M721.95,739.45c-1.68.45-3.53.87-5.35,1.2,1.08,2.39,2.6,5.53,3.92,7.98l-1.71,1.76c-1.41-.3-4.34-.72-6.4-.96l.3-2.42c1.08.12,2.93.3,3.89.39-.78-1.67-2.03-4.28-2.93-6.28-3.77.42-7.96.42-12.56.03l-.12-2.99c4.31.54,8.17.54,11.46.21l-.84-1.82c-.51-1.17-.78-1.73-1.35-2.66l3.35-.63c.6,1.76,1.17,3.17,1.82,4.7,2.06-.36,3.98-.81,5.95-1.46l.57,2.96ZM705.47,748.04c-.45,1.05-.84,2.78-.84,3.65,0,2.42,1.46,3.92,5.8,3.92,4.01,0,5.77-.39,7.9-.81l-.06,3.08c-1.76.33-3.95.72-7.87.72-5.68,0-8.82-2.24-8.82-6.13,0-1.29.36-3.02.84-4.67l3.05.24Z"/>
    <path class="cls-1" d="M733.61,739.45c-.03,1.85,0,4.37.21,6.67.45,4.67,1.65,7.78,3.62,7.78,1.5,0,2.78-3.23,3.44-5.95l2.39,2.78c-1.88,5.08-3.71,6.85-5.89,6.85-2.99,0-5.74-2.87-6.55-10.68-.3-2.6-.33-6.13-.33-7.93,0-.75-.03-1.97-.21-2.78l3.62.06c-.15.87-.3,2.39-.3,3.2ZM754.36,751.78l-3.08,1.2c-.48-5.08-2.18-11.45-5.17-14.98l2.96-.99c2.72,3.44,4.91,9.96,5.29,14.77Z"/>
  </g>
  <g>
    <g>
      <g>
        <path class="cls-2" d="M508.03,458.64c-9.33-18.91-20.07-37.46-20.07-37.46-3.05-5.65-5.12-6.29-10.71-3.97-5.59,2.31-5.28,6.48-3.49,10.79,0,0,9.96,19.51,17.68,34.97,5.08,10.16,8.91,20.89,8.91,20.89"/>
        <path class="cls-2" d="M538.76,453.26l-6.93-13.59c-3.37-5.56-5.43-9.17-10.9-7.49-4.63,1.42-5.75,4.25-5.75,4.25"/>
        <path class="cls-2" d="M531.98,436.89c7.24-4.53,11.46-1.28,14.71,5.36,3.26,6.64,4.95,10.28,8.51,18.89,8.6,20.76,2.14,37.4,2.14,37.4"/>
        <path class="cls-2" d="M500.34,483.86c1.5,3.62-16.71-13.57-23.51-17.71-1.67-1.02-3.03-1.82-5.49-.26-2.2,1.4-3.8,3.54-3.71,6.61.02.81-.18,2.37,2.68,4.87,6.59,5.79,23.45,23.32,28.47,26.56,8.46,5.45,23.05,9.61,23.05,9.61"/>
        <path class="cls-2" d="M524.1,453.68l-6.44-12.59c-3.17-6.32-6.28-10.61-12.4-8.08-5.19,2.15-7.89,5.75-7.89,5.75"/>
        <line class="cls-3" x1="446.88" y1="430.26" x2="446.88" y2="462.23"/>
        <polyline class="cls-3" points="440.33 435.21 446.88 428.65 453.43 435.21"/>
        <polyline class="cls-3" points="453.43 457.28 446.88 463.84 440.33 457.28"/>
      </g>
      <g>
        <path class="cls-1" d="M465.64,567.51c-.96.3-1.94.6-2.9.9v7.9c0,1.47-.3,2.24-1.14,2.69-.87.45-2.15.54-4.13.54-.09-.72-.45-1.91-.81-2.69,1.26.03,2.48.03,2.87.03s.54-.15.54-.57v-7.09l-3.74,1.08-.6-2.72c1.2-.27,2.69-.66,4.34-1.11v-5.98h-3.8v-2.57h3.8v-5.77h2.66v5.77h2.6v2.57h-2.6v5.26l2.57-.72.33,2.48ZM469.08,563.86c0,4.58-.54,11.25-3.68,15.64-.51-.45-1.64-1.26-2.24-1.55,2.96-4.1,3.26-9.93,3.26-14.12v-6.76h7.06v-4.88h2.75v4.88h6.88v2.51h-14.03v4.28ZM481.22,579.47c-.15-.84-.42-1.82-.75-2.9-4.25.48-8.64.96-11.84,1.26l-.48-2.6,2.42-.18c1.11-3.89,2.3-9.54,2.87-13.73l2.93.45c-.84,4.28-2.03,9.33-3.14,13.04,2.03-.15,4.25-.36,6.43-.57-.75-2-1.67-4.07-2.63-5.83l2.36-.81c1.94,3.53,3.83,8.04,4.4,10.95l-2.57.93Z"/>
        <path class="cls-1" d="M532.42,563.26c2.03,6.22,5.8,11.27,11.45,13.64-.69.6-1.62,1.76-2.06,2.6-5.59-2.6-9.21-7.45-11.54-13.79-1.53,5.41-4.76,10.59-11.54,13.79-.45-.75-1.35-1.73-2.12-2.33,7.12-3.11,10.02-8.49,11.21-13.91h-10.62v-2.87h11.12c.36-2.99.33-5.86.36-8.25h3.02c-.03,2.42-.06,5.29-.42,8.25h12.05v2.87h-10.92Z"/>
      </g>
    </g>
    <g>
      <g>
        <path class="cls-2" d="M723.68,458.64c-9.33-18.91-20.07-37.46-20.07-37.46-3.05-5.65-5.12-6.29-10.71-3.97-5.59,2.31-5.28,6.48-3.49,10.79,0,0,9.96,19.51,17.68,34.97,5.07,10.16,8.91,20.89,8.91,20.89"/>
        <path class="cls-2" d="M754.41,453.26l-6.93-13.59c-3.37-5.56-5.43-9.17-10.9-7.49-4.63,1.42-5.75,4.25-5.75,4.25"/>
        <path class="cls-2" d="M747.63,436.89c7.24-4.53,11.46-1.28,14.71,5.36,3.26,6.64,4.95,10.28,8.51,18.89,8.6,20.76,2.14,37.4,2.14,37.4"/>
        <path class="cls-2" d="M716,483.86c1.5,3.62-16.71-13.57-23.51-17.71-1.67-1.02-3.03-1.82-5.48-.26-2.2,1.4-3.8,3.54-3.71,6.61.02.81-.18,2.37,2.68,4.87,6.59,5.79,23.45,23.32,28.47,26.56,8.46,5.45,23.05,9.61,23.05,9.61"/>
        <path class="cls-2" d="M739.76,453.68l-6.43-12.59c-3.17-6.32-6.28-10.61-12.4-8.08-5.19,2.15-7.89,5.75-7.89,5.75"/>
        <line class="cls-3" x1="662.54" y1="455.16" x2="662.54" y2="476.16"/>
        <polyline class="cls-3" points="655.99 460.04 662.54 453.49 669.09 460.04"/>
        <line class="cls-3" x1="662.54" y1="441.85" x2="662.54" y2="420.86"/>
        <polyline class="cls-3" points="669.09 436.97 662.54 443.52 655.99 436.97"/>
      </g>
      <g>
        <path class="cls-1" d="M675.2,569.6c-.36,2.81-1.02,5.68-1.91,7.57-.42-.3-1.47-.78-1.97-.96.87-1.79,1.41-4.46,1.67-7l2.21.39ZM687.91,559.64c-.42,1.5-.99,3.08-1.65,4.61v15.28h-2.27v-11.01c-.42.63-.87,1.23-1.35,1.76-.33-.54-.96-1.41-1.41-1.88.21-.24.39-.48.6-.75l-1.2.48c-.06-.33-.15-.72-.24-1.14l-2.03.12v12.41h-2.39v-12.23c-1.52.09-2.99.21-4.25.27l-.27-2.42,2.24-.12c.48-.66,1.02-1.38,1.53-2.18-.87-1.35-2.33-3.02-3.62-4.31l1.38-1.79c.3.27.57.54.87.84.93-1.67,1.85-3.86,2.39-5.47l2.39.87c-1.05,2.06-2.3,4.49-3.32,6.13.48.54.93,1.08,1.29,1.58,1.08-1.76,2.09-3.62,2.81-5.14l2.24,1.02c-1.62,2.66-3.65,5.86-5.5,8.31l3.5-.18c-.33-.87-.69-1.73-1.08-2.48l1.88-.75c.87,1.58,1.67,3.59,2.06,5.11,1.38-2.27,2.42-5.14,2.99-7.54l2.39.6ZM680.82,569.06c.72,1.71,1.32,3.92,1.5,5.38l-2,.63c-.15-1.5-.72-3.71-1.41-5.44l1.91-.57ZM684.74,560.03h-2.48v-5.14h6.73v-2.84h2.81v2.84h6.94v4.73h-2.57v-2.42h-11.42v2.84ZM694.55,562.54c-.27.9-.51,1.79-.75,2.6h4.49v14.21h-2.42v-1.08h-5.26v1.23h-2.27v-14.36h2.99c.18-.84.36-1.73.51-2.6h-4.1v-2.27h11.16v2.27h-4.34ZM695.86,567.39h-5.26v3.14h5.26v-3.14ZM695.86,576.06v-3.35h-5.26v3.35h5.26Z"/>
        <path class="cls-1" d="M739.85,559.94c-.99,4.37-2.66,9.78-5.26,13.1-.69-.51-1.91-1.2-2.66-1.46,2.51-3.11,4.1-8.25,4.79-12.2l3.14.57ZM747.47,552.52v23.36c0,1.85-.48,2.66-1.64,3.14-1.2.45-3.11.54-5.95.51-.18-.78-.66-2.09-1.11-2.9,2.03.09,4.22.09,4.85.06.63-.03.84-.21.84-.81v-23.36h3.02ZM754.29,559.13c2.54,4.16,4.99,9.6,5.74,13.22l-3.02,1.2c-.63-3.53-2.99-9.09-5.41-13.4l2.69-1.02Z"/>
      </g>
    </g>
    <g>
      <g>
        <path class="cls-2" d="M273.52,470.88v-42.28c0-4.67-2.33-7.77-8.38-7.77s-8.37,3.1-8.37,7.77v62.64"/>
        <path class="cls-2" d="M303.97,477.66v-15.2c0-6.43-1.51-10.56-7.21-11.1-4.82-.46-7.21,1.46-7.21,1.46"/>
        <path class="cls-2" d="M303.97,459.94c8.42-1.41,11.08,3.2,11.54,10.59.47,7.38.64,11.4.64,20.71,0,22.47-12.34,35.37-12.34,35.37"/>
        <path class="cls-2" d="M256.06,465.03c-.89-.27-3.45-.52-5.31-.52-4.2,0-7.36,3.32-8,9.26,0,0-.83,6.16-.96,14.24-.17,10.49,1.7,15.15,5.87,21.18,5.73,8.27,17.62,17.69,17.62,17.69"/>
        <path class="cls-2" d="M290.27,472.45v-14.09c0-6.43-1.74-12.2-8.36-12.2-5.62,0-8.37,1.47-8.37,1.47"/>
        <line class="cls-3" x1="309.32" y1="404.22" x2="309.32" y2="436.2"/>
        <polyline class="cls-3" points="302.77 409.17 309.32 402.62 315.88 409.17"/>
        <polyline class="cls-3" points="315.88 431.25 309.32 437.8 302.77 431.25"/>
        <line class="cls-3" x1="293.34" y1="420.21" x2="325.31" y2="420.21"/>
        <polyline class="cls-3" points="298.28 426.76 291.73 420.21 298.28 413.66"/>
        <polyline class="cls-3" points="320.36 413.66 326.91 420.21 320.36 426.76"/>
      </g>
      <g>
        <path class="cls-1" d="M250.31,570.65c-.45-.84-1.44-2.24-2.33-3.47v12.32h-2.69v-12.08c-1.11,2.72-2.48,5.29-3.83,6.97-.27-.78-.93-1.91-1.35-2.57,1.76-2.03,3.68-5.59,4.81-8.76h-4.25v-2.63h4.61v-4.07c-1.38.3-2.75.51-4.04.69-.12-.63-.48-1.56-.81-2.15,3.32-.54,7.09-1.41,9.33-2.39l1.91,2.12c-1.08.42-2.36.81-3.71,1.17v4.63h3.5v2.63h-3.5v1.38c.87.75,3.41,3.35,3.95,4.04l-1.62,2.18ZM267.9,566.76c-2.45,7.57-8.55,11.19-15.88,12.83-.24-.69-.87-1.79-1.38-2.36,3.17-.57,6.13-1.62,8.58-3.2-.99-.96-2.39-2.03-3.71-2.84-.81.57-1.65,1.08-2.57,1.56-.36-.66-1.17-1.56-1.73-1.97,3.89-1.76,6.55-4.34,8.04-6.76-2,1.26-4.25,2.18-6.58,2.87-.3-.69-.93-1.7-1.44-2.24,2.39-.57,4.73-1.5,6.73-2.78-.87-.87-2.15-1.88-3.26-2.63-.75.51-1.53.99-2.39,1.47-.36-.6-1.17-1.53-1.73-1.94,3.74-1.76,6.19-4.34,7.51-6.64l2.72.51c-.39.69-.84,1.41-1.35,2.06h4.76l.48-.12,1.76.84c-1.32,3.5-3.59,6.13-6.43,8.11l2.3.39c-.42.75-.9,1.5-1.44,2.21h4.73l.51-.09,1.76.75ZM257.4,556.98c-.27.27-.6.57-.9.84,1.17.75,2.51,1.73,3.41,2.6,1.17-1.02,2.15-2.15,2.9-3.44h-5.41ZM258.9,568.44c-.45.42-.9.84-1.38,1.26,1.32.78,2.78,1.82,3.77,2.75,1.23-1.14,2.24-2.48,3.02-4.01h-5.41Z"/>
        <path class="cls-1" d="M327.65,558.92s-.03.96-.03,1.29c-.33,12.35-.6,16.6-1.56,17.88-.57.9-1.2,1.14-2.12,1.29-.9.12-2.27.12-3.68.03-.06-.75-.36-1.88-.78-2.63,1.38.12,2.6.12,3.14.12.51,0,.78-.09,1.08-.48.66-.84.96-4.64,1.2-14.92h-3.53c-.39,7.96-1.73,14.3-6.88,18.24-.42-.63-1.35-1.62-2-2.06.18-.12.36-.27.54-.42-4.31.51-8.61.96-11.81,1.26l-.36-2.36c1.73-.12,3.89-.3,6.25-.51v-2.27h-5.44v-2.03h5.44v-1.52h-5.35v-9h5.35v-1.55h-6.16v-2.06h6.16v-1.67c-1.82.15-3.65.24-5.32.3-.09-.57-.39-1.46-.66-2,4.43-.24,9.72-.78,12.83-1.46l1.32,2.09c-1.58.33-3.56.63-5.62.84v1.91h6.04v1.73h3.14c.03-2.03.03-4.16.03-6.4h2.66c0,2.21-.03,4.37-.06,6.4h6.19ZM304.02,564.46h3.08v-1.82h-3.08v1.82ZM307.1,567.99v-1.82h-3.08v1.82h3.08ZM309.64,575.4c1.85-.18,3.77-.36,5.65-.57,2.45-3.38,3.2-7.9,3.44-13.34h-3.17v-2.24h-5.92v1.55h5.56v9h-5.56v1.52h5.62v2.03h-5.62v2.03ZM312.84,564.46v-1.82h-3.2v1.82h3.2ZM309.64,566.16v1.82h3.2v-1.82h-3.2Z"/>
      </g>
    </g>
  </g>
</svg>