<?xml version="1.0" encoding="UTF-8"?>
<svg id="_レイヤー_1" data-name="レイヤー 1" xmlns="http://www.w3.org/2000/svg" viewBox="0 0 1000 1000">
  <defs>
    <style>
      .cls-1 {
        fill: #000;
      }

      .cls-1, .cls-2 {
        stroke-width: 0px;
      }

      .cls-2 {
        fill: red;
      }

      .cls-3 {
        fill: none;
        stroke: #231815;
        stroke-miterlimit: 10;
        stroke-width: .5px;
      }
    </style>
  </defs>
  <path class="cls-2" d="M349.61,515.95l-.11.5h-3.08c-.75,0-1.36-.25-1.82-.74-.23.3-.49.54-.79.74l-.26-.61.76-.39v-1.82h-.76v-.5h1.29v1.13c.28-.42.42-.9.42-1.45v-2h1.74v2.05h-.45v-.26h-.84l-.05.74h1.42v2.21h-.45v-.18h-.58v.32h-.45v-2.05c-.07.46-.25.85-.53,1.18l-.24-.29v.79c.46.42.98.63,1.58.63h3.18ZM344.19,510.71c.33.23.61.47.82.74l-.42.45c-.21-.23-.47-.48-.79-.76l.39-.42ZM346.56,512.19v-.95h-.84v.95h.84ZM346.64,514.95v-1.18h-.58v1.18h.58ZM347.35,511.58v-.42h.76v-.66h.42c.14.02.15.07.03.16v.5h.82v.42h-.63l.37.24c.07.07.04.11-.08.13l-.37.82h.82v.42h-.92v.84h.76v.42h-.76v1.21h-.45v-1.21h-.76v-.42h.76v-.84h-.84v-.42h1.03l.39-1.18h-1.34ZM347.72,512.63c-.07-.26-.15-.51-.24-.74l.42-.13c.12.25.2.49.24.74l-.42.13h0Z"/>
  <path class="cls-2" d="M350.27,516.03c.68-.12,1.08-.46,1.18-1h-1.18v-.42h1.24v-.39h-1v-.42h1v-.37h-1v-1.18h2.5v1.18h-1.05v.37h1.05v.42h-1.05v.39h1.26v.42h-1.29v.08c.49.18.92.41,1.29.71l-.29.53c-.33-.33-.71-.63-1.13-.89-.12.47-.56.82-1.32,1.05l-.21-.47ZM351.45,511.19h.61v-.66h.42c.14.02.15.07.03.16v.5h.74v.42h-.74v.45h-.45v-.45h-.61v.45h-.45v-.45h-.71v-.42h.71v-.66h.42c.14.02.15.07.03.16v.5ZM351.5,513.11v-.55h-.55v.55h.55ZM352.56,513.11v-.55h-.61v.55h.61ZM353.03,512.98c.42-.56.73-1.36.92-2.39l.5.16c.11.05.09.11-.05.16l-.26.87h.63l.29-1.16.53.13c.12.05.11.11-.05.16l-.32.87h.97v.5h-.92v.79h.68v.5h-.68v.79h.71v.5h-.71v.95h1v.5h-2.1v.21h-.45v-3.71c-.05.16-.19.38-.42.66l-.26-.47ZM354.82,513.05v-.79h-.66v.79h.66ZM354.82,514.34v-.79h-.66v.79h.66ZM354.82,515.79v-.95h-.66v.95h.66Z"/>
  <path class="cls-2" d="M358.34,514.4l.66-.24.13.34c.4-.26.7-.57.89-.92h-1.05v-.5h3.97v.5h-2.39c-.07.14-.14.25-.21.34h2.45l-.16,1.92c-.04.4-.21.61-.53.61h-.63l-.08-.5h.5c.12,0,.19-.06.21-.18l.13-1.34h-.29c-.32,1.19-1.2,1.91-2.66,2.16l-.16-.5c1.25-.23,2.01-.78,2.29-1.66h-.45c-.32.75-.9,1.21-1.76,1.37l-.16-.42c.7-.18,1.17-.49,1.39-.95h-.39c-.37.33-.66.55-.87.66l-.21-.39-1.66.66c-.02.12-.06.15-.13.08l-.21-.58.84-.24v-2h-.82v-.5h.82v-1.5h.5c.14.02.15.07.03.16v1.34h.79v.5h-.79v1.79ZM359.5,512.77v-2.13h2.76v2.13h-2.76ZM360.03,511.53h1.71v-.47h-1.71v.47ZM360.03,512.34h1.71v-.39h-1.71v.39Z"/>
  <path class="cls-2" d="M366.37,512v2.29h-.53v-.26h-1.18v.74c0,.67-.14,1.23-.42,1.68l-.47-.37c.25-.35.37-.8.37-1.34v-2.74h2.24ZM363.92,511.29v-.5h2.63v.5h-2.63ZM365.84,513.53v-1.03h-1.18v1.03h1.18ZM367.37,511.06c.77-.12,1.35-.27,1.74-.45l.29.5c.07.16.02.19-.16.11-.65.14-1.26.24-1.84.29v1.1h2.32v.5h-.87v3.31h-.53v-3.31h-.92v.82c0,1.16-.42,2.02-1.26,2.58l-.39-.47c.75-.46,1.13-1.17,1.13-2.16v-3l.5.18Z"/>
  <line class="cls-3" x1="744.64" y1="667.95" x2="744.64" y2="707.78"/>
  <line class="cls-3" x1="715.4" y1="707.78" x2="744.64" y2="707.78"/>
  <line class="cls-3" x1="715.4" y1="670.93" x2="715.4" y2="707.78"/>
  <line class="cls-3" x1="483.74" y1="695.49" x2="487.79" y2="687.39"/>
  <line class="cls-3" x1="483.74" y1="695.49" x2="483.74" y2="724.26"/>
  <line class="cls-3" x1="548.81" y1="724.26" x2="548.81" y2="682.19"/>
  <line class="cls-3" x1="548.81" y1="724.26" x2="483.74" y2="724.26"/>
  <line class="cls-3" x1="487.79" y1="687.39" x2="548.81" y2="682.19"/>
  <line class="cls-3" x1="297.65" y1="372.22" x2="297.65" y2="394.94"/>
  <line class="cls-3" x1="297.65" y1="372.22" x2="356.73" y2="372.22"/>
  <line class="cls-3" x1="297.65" y1="394.94" x2="356.73" y2="394.94"/>
  <line class="cls-3" x1="356.73" y1="372.22" x2="356.73" y2="394.94"/>
  <line class="cls-3" x1="424.92" y1="340.4" x2="370.36" y2="340.4"/>
  <line class="cls-3" x1="424.92" y1="340.4" x2="424.92" y2="349.5"/>
  <line class="cls-3" x1="443.09" y1="338.13" x2="452.19" y2="338.13"/>
  <line class="cls-3" x1="452.19" y1="338.13" x2="452.19" y2="344.95"/>
  <line class="cls-3" x1="452.19" y1="344.95" x2="502.19" y2="344.95"/>
  <line class="cls-3" x1="443.09" y1="338.13" x2="443.09" y2="360.85"/>
  <line class="cls-3" x1="443.09" y1="365.4" x2="443.09" y2="379.04"/>
  <line class="cls-3" x1="443.09" y1="383.59" x2="443.09" y2="397.23"/>
  <line class="cls-3" x1="443.09" y1="360.85" x2="436.27" y2="360.85"/>
  <line class="cls-3" x1="443.09" y1="365.4" x2="436.27" y2="365.4"/>
  <line class="cls-3" x1="443.09" y1="379.04" x2="436.27" y2="379.04"/>
  <line class="cls-3" x1="443.09" y1="383.59" x2="436.27" y2="383.59"/>
  <line class="cls-3" x1="436.27" y1="360.85" x2="436.27" y2="365.4"/>
  <line class="cls-3" x1="436.27" y1="379.04" x2="436.27" y2="383.59"/>
  <line class="cls-3" x1="493.1" y1="397.23" x2="493.1" y2="383.59"/>
  <line class="cls-3" x1="493.1" y1="383.59" x2="497.64" y2="383.59"/>
  <line class="cls-3" x1="497.64" y1="383.59" x2="497.64" y2="367.67"/>
  <line class="cls-3" x1="497.64" y1="367.67" x2="502.19" y2="367.67"/>
  <line class="cls-3" x1="502.19" y1="344.95" x2="502.19" y2="367.67"/>
  <line class="cls-3" x1="744.64" y1="667.95" x2="715.4" y2="670.93"/>
  <line class="cls-3" x1="660.77" y1="535.85" x2="670.88" y2="535.85"/>
  <line class="cls-3" x1="670.88" y1="535.85" x2="670.88" y2="520.71"/>
  <line class="cls-3" x1="670.88" y1="520.71" x2="660.77" y2="520.71"/>
  <line class="cls-3" x1="660.77" y1="520.71" x2="660.77" y2="535.85"/>
  <line class="cls-3" x1="637.04" y1="558.59" x2="491.58" y2="558.59"/>
  <line class="cls-3" x1="637.04" y1="613.13" x2="491.58" y2="613.13"/>
  <line class="cls-3" x1="637.04" y1="558.59" x2="637.04" y2="613.13"/>
  <line class="cls-3" x1="491.58" y1="558.59" x2="491.58" y2="613.13"/>
  <line class="cls-3" x1="524.91" y1="340.4" x2="547.64" y2="340.4"/>
  <line class="cls-3" x1="524.91" y1="358.59" x2="547.64" y2="358.59"/>
  <line class="cls-3" x1="584" y1="340.4" x2="552.18" y2="340.4"/>
  <line class="cls-3" x1="552.18" y1="358.59" x2="584" y2="358.59"/>
  <line class="cls-3" x1="584" y1="340.4" x2="584" y2="358.59"/>
  <line class="cls-3" x1="552.18" y1="358.59" x2="552.18" y2="340.4"/>
  <line class="cls-3" x1="547.64" y1="340.4" x2="547.64" y2="358.59"/>
  <line class="cls-3" x1="524.91" y1="358.59" x2="524.91" y2="340.4"/>
  <line class="cls-3" x1="568.86" y1="395.32" x2="568.86" y2="365.4"/>
  <line class="cls-3" x1="568.86" y1="365.4" x2="543.85" y2="365.4"/>
  <line class="cls-3" x1="543.85" y1="365.4" x2="543.85" y2="431.39"/>
  <line class="cls-3" x1="616.58" y1="344.95" x2="589.31" y2="344.95"/>
  <line class="cls-3" x1="589.31" y1="344.95" x2="589.31" y2="365.4"/>
  <line class="cls-3" x1="589.31" y1="365.4" x2="575.67" y2="365.4"/>
  <line class="cls-3" x1="575.67" y1="365.4" x2="575.67" y2="392.68"/>
  <line class="cls-3" x1="616.58" y1="344.95" x2="616.58" y2="535.85"/>
  <line class="cls-3" x1="616.58" y1="535.85" x2="575.67" y2="535.85"/>
  <line class="cls-3" x1="589.28" y1="339.18" x2="595.33" y2="339.18"/>
  <line class="cls-3" x1="595.33" y1="339.18" x2="595.33" y2="333.12"/>
  <line class="cls-3" x1="595.33" y1="333.12" x2="589.28" y2="333.12"/>
  <line class="cls-3" x1="589.28" y1="333.12" x2="589.28" y2="339.18"/>
  <line class="cls-3" x1="663.51" y1="354.42" x2="669.57" y2="354.42"/>
  <line class="cls-3" x1="669.57" y1="354.42" x2="669.57" y2="348.35"/>
  <line class="cls-3" x1="669.57" y1="348.35" x2="663.51" y2="348.35"/>
  <line class="cls-3" x1="663.51" y1="348.35" x2="663.51" y2="354.42"/>
  <line class="cls-3" x1="370.36" y1="340.4" x2="370.36" y2="349.5"/>
  <line class="cls-3" x1="370.36" y1="349.5" x2="424.92" y2="349.5"/>
  <line class="cls-3" x1="366.84" y1="352.02" x2="420.86" y2="352.02"/>
  <line class="cls-3" x1="375.92" y1="371.21" x2="366.84" y2="371.21"/>
  <line class="cls-3" x1="366.84" y1="371.21" x2="366.84" y2="352.02"/>
  <line class="cls-3" x1="420.86" y1="352.02" x2="420.86" y2="371.21"/>
  <line class="cls-3" x1="420.86" y1="371.21" x2="411.77" y2="371.21"/>
  <line class="cls-3" x1="389.3" y1="371.21" x2="398.4" y2="371.21"/>
  <line class="cls-3" x1="389.3" y1="371.21" x2="398.4" y2="371.21"/>
  <line class="cls-3" x1="377.61" y1="362.79" x2="377.61" y2="364.48"/>
  <line class="cls-3" x1="384.25" y1="362.79" x2="384.25" y2="364.48"/>
  <line class="cls-3" x1="384.25" y1="364.48" x2="377.61" y2="364.48"/>
  <line class="cls-3" x1="375.92" y1="362.79" x2="377.61" y2="362.79"/>
  <line class="cls-3" x1="384.25" y1="362.79" x2="389.3" y2="362.79"/>
  <line class="cls-3" x1="410.08" y1="364.48" x2="403.43" y2="364.48"/>
  <line class="cls-3" x1="410.08" y1="364.48" x2="410.08" y2="362.79"/>
  <line class="cls-3" x1="403.43" y1="364.48" x2="403.43" y2="362.79"/>
  <line class="cls-3" x1="398.4" y1="362.79" x2="403.43" y2="362.79"/>
  <line class="cls-3" x1="410.08" y1="362.79" x2="411.77" y2="362.79"/>
  <line class="cls-3" x1="375.92" y1="362.79" x2="375.92" y2="371.21"/>
  <line class="cls-3" x1="389.3" y1="362.79" x2="389.3" y2="371.21"/>
  <line class="cls-3" x1="398.4" y1="371.21" x2="398.4" y2="362.79"/>
  <line class="cls-3" x1="411.77" y1="362.79" x2="411.77" y2="371.21"/>
  <line class="cls-3" x1="479.32" y1="597.94" x2="479.32" y2="617.98"/>
  <line class="cls-3" x1="479.32" y1="597.94" x2="479.32" y2="617.98"/>
  <line class="cls-3" x1="494.04" y1="617.98" x2="494.04" y2="648.62"/>
  <line class="cls-3" x1="494.04" y1="617.98" x2="494.04" y2="648.62"/>
  <line class="cls-3" x1="481.78" y1="648.62" x2="481.78" y2="659.04"/>
  <line class="cls-3" x1="462.7" y1="659.04" x2="481.78" y2="659.04"/>
  <line class="cls-3" x1="462.7" y1="659.04" x2="462.7" y2="651.69"/>
  <line class="cls-3" x1="462.7" y1="651.69" x2="448.44" y2="651.69"/>
  <line class="cls-3" x1="448.44" y1="651.69" x2="448.44" y2="648.62"/>
  <line class="cls-3" x1="448.44" y1="648.62" x2="429.33" y2="648.62"/>
  <line class="cls-3" x1="429.33" y1="648.62" x2="429.33" y2="615.52"/>
  <line class="cls-3" x1="429.33" y1="615.52" x2="444.04" y2="615.52"/>
  <line class="cls-3" x1="494.04" y1="617.98" x2="479.32" y2="617.98"/>
  <line class="cls-3" x1="481.78" y1="648.62" x2="494.04" y2="648.62"/>
  <line class="cls-3" x1="444.04" y1="558.84" x2="444.04" y2="615.52"/>
  <polyline class="cls-3" points="671.14 651.46 671.14 613.13 658.16 613.13 658.16 651.46 671.14 651.46"/>
  <polyline class="cls-3" points="521.68 388.11 540.67 388.11 540.67 378.92 521.68 378.92 521.68 388.11"/>
  <polyline class="cls-3" points="389.3 376.77 420.37 376.77 420.37 394.94 389.3 394.94 389.3 376.77"/>
  <line class="cls-3" x1="334.34" y1="667.68" x2="429.29" y2="667.68"/>
  <line class="cls-3" x1="429.29" y1="667.68" x2="334.34" y2="667.68"/>
  <line class="cls-3" x1="269.35" y1="667.68" x2="429.29" y2="667.68"/>
  <line class="cls-3" x1="279.46" y1="449.19" x2="279.46" y2="631.01"/>
  <line class="cls-3" x1="279.46" y1="449.19" x2="308.24" y2="449.19"/>
  <line class="cls-3" x1="279.46" y1="631.01" x2="308.24" y2="631.01"/>
  <polyline class="cls-3" points="302.18 594.65 302.2 595.32 302.21 595.99 302.22 596.67 302.25 597.35 302.29 598.02 302.34 598.69 302.39 599.37 302.46 600.03 302.53 600.71 302.6 601.37 302.69 602.05 302.79 602.72 302.88 603.38 303 604.05 303.12 604.71 303.25 605.38 303.38 606.03 303.54 606.69 303.68 607.35 303.85 608 304.01 608.65 304.19 609.31 304.38 609.95 304.57 610.6 304.77 611.24 304.99 611.89 305.2 612.53 305.43 613.16 305.65 613.8 305.9 614.43 306.15 615.06 306.4 615.67 306.66 616.29 306.93 616.91 307.22 617.53 307.5 618.14 307.8 618.75 308.1 619.34 308.41 619.95 308.73 620.54 309.05 621.14 309.38 621.72 309.73 622.3 310.07 622.88 310.41 623.47 310.78 624.04 311.15 624.59 311.52 625.16 311.9 625.72 312.29 626.27 312.68 626.82 313.09 627.36 313.49 627.9 313.91 628.43 314.32 628.95 314.75 629.48 315.19 630 315.63 630.51 316.08 631.01 316.53 631.51 316.98 632.01 317.46 632.49 317.92 632.98 318.4 633.46 318.88 633.93 319.37 634.39 319.87 634.85 320.37 635.3 320.87 635.75 321.38 636.19 321.9 636.63 322.42 637.05 322.95 637.47 323.48 637.89 324.01 638.29 324.56 638.69 325.11 639.09 325.67 639.48 326.21 639.86 326.78 640.24 327.34 640.59 327.91 640.96 328.49 641.31 329.08 641.66 329.66 642 330.24 642.33 330.83 642.65 331.43 642.97 332.03 643.28 332.63 643.58 333.24 643.87 333.85 644.16 334.47 644.44 335.09 644.72 335.7 644.98 336.32 645.23 336.95 645.48 337.58 645.73 338.22 645.95 338.85 646.18 339.49 646.39 340.13 646.6 340.77 646.81 341.43 647 342.07 647.19 342.72 647.36 343.38 647.53 344.03 647.7 344.68 647.84 345.35 647.99 346.01 648.13 346.67 648.26 347.33 648.37 348 648.49 348.66 648.59 349.34 648.68 350 648.78 350.67 648.85 351.35 648.92 352.01 648.99 352.69 649.04 353.37 649.09 354.03 649.12 354.71 649.16 355.38 649.17 356.06 649.18 356.73 649.19 357.4 649.18 358.08 649.17 358.76 649.16 359.42 649.12 360.1 649.09 360.78 649.04 361.44 648.99 362.12 648.92 362.78 648.85 363.46 648.78 364.13 648.68 364.79 648.59 365.47 648.49 366.13 648.37 366.79 648.26 367.45 648.13 368.12 647.99 368.77 647.84 369.44 647.7 370.09 647.53 370.74 647.36 371.4 647.19 372.04 647 372.69 646.81 373.33 646.6 373.97 646.39 374.62 646.18 375.24 645.95 375.87 645.73 376.5 645.48 377.13 645.23 377.76 644.98 378.38 644.72 379 644.44 379.62 644.16 380.22 643.87 380.83 643.58 381.43 643.28 382.04 642.97 382.63 642.65 383.23 642.33 383.81 642 384.39 641.66 384.97 641.31 385.54 640.96 386.11 640.59 386.68 640.24 387.24 639.86 387.8 639.48 388.36 639.09 388.9 638.69 389.44 638.29 389.99 637.89 390.51 637.47 391.04 637.05 391.57 636.63 392.08 636.19 392.59 635.75 393.1 635.3 393.6 634.85 394.1 634.39 394.58 633.93 395.06 633.46 395.54 632.98 396.01 632.49 396.47 632.01 396.93 631.51 397.39 631.01 397.84 630.51 398.28 630 398.7 629.48 399.13 628.95 399.56 628.43 399.98 627.9 400.38 627.36 400.78 626.82 401.17 626.27 401.57 625.72 401.95 625.16 402.32 624.59 402.68 624.04 403.04 623.47 403.4 622.88 403.74 622.3 404.08 621.72 404.42 621.14 404.74 620.54 405.06 619.95 405.37 619.34 405.66 618.75 405.96 618.14 406.25 617.53 406.52 616.91 406.79 616.29 407.05 615.67 407.32 615.06 407.57 614.43 407.8 613.8 408.04 613.16 408.27 612.53 408.48 611.89 408.69 611.24 408.9 610.6 409.09 609.95 409.28 609.31 409.44 608.65 409.62 608 409.77 607.35 409.93 606.69 410.07 606.03 410.21 605.38 410.34 604.71 410.46 604.05 410.57 603.38 410.68 602.72 410.77 602.05 410.86 601.37 410.94 600.71 411.01 600.03 411.07 599.37 411.13 598.69 411.18 598.02 411.21 597.35 411.24 596.67 411.26 595.99 411.27 595.32 411.27 594.65"/>
  <polyline class="cls-3" points="308.24 631.01 308.66 631.54 309.07 632.08 309.49 632.61 309.92 633.13 310.34 633.66 310.78 634.17 311.23 634.68 311.67 635.19 312.14 635.69 312.6 636.18 313.06 636.67 313.53 637.15 314.01 637.64 314.49 638.11 314.98 638.58 315.47 639.04 315.97 639.5 316.47 639.95 316.98 640.39 317.49 640.83 318 641.27 318.53 641.7 319.06 642.13 319.58 642.54 320.13 642.95 320.67 643.35 321.21 643.75 321.76 644.15 322.32 644.54 322.87 644.92 323.43 645.29 324 645.65 324.57 646.02 325.16 646.38 325.73 646.72 326.31 647.07 326.9 647.4 327.48 647.73 328.08 648.05 328.68 648.37 329.28 648.68 329.88 648.98 330.49 649.28 331.11 649.56 331.71 649.85 332.33 650.12 332.96 650.39 333.58 650.66 334.21 650.9 334.84 651.15 335.47 651.4 336.09 651.63 336.74 651.85 337.38 652.08 338.02 652.29 338.66 652.5 339.3 652.7 339.96 652.89 340.61 653.07 341.26 653.24 341.92 653.41 342.57 653.58 343.22 653.73 343.89 653.87 344.55 654.02 345.21 654.15 345.87 654.28 346.54 654.38 347.21 654.5 347.88 654.6 348.54 654.69 349.22 654.79 349.89 654.86 350.56 654.94 351.23 655 351.9 655.06 352.58 655.11 353.26 655.16 353.92 655.19 354.6 655.22 355.28 655.24 355.96 655.25 356.63 655.25 357.31 655.25 357.99 655.24 358.66 655.22 359.33 655.19 360.01 655.17 360.68 655.12 361.36 655.07 362.04 655.03 362.7 654.95 363.38 654.88 364.04 654.81 364.72 654.73 365.39 654.63 366.05 654.53 366.73 654.42 367.39 654.31 368.06 654.18 368.71 654.05 369.38 653.92 370.04 653.78 370.7 653.62 371.35 653.46 372.01 653.29 372.67 653.13 373.31 652.94 373.96 652.75 374.62 652.56 375.26 652.35 375.9 652.14 376.54 651.93 377.17 651.7 377.81 651.47 378.44 651.23 379.07 650.99 379.7 650.74 380.32 650.48 380.95 650.2 381.56 649.93 382.18 649.66 382.79 649.36 383.39 649.08 384 648.77 384.6 648.46 385.2 648.15 385.79 647.83 386.39 647.5 386.98 647.16 387.56 646.83 388.14 646.47 388.71 646.13 389.28 645.76 389.85 645.4 390.43 645.02 390.98 644.64 391.53 644.26 392.09 643.87 392.63 643.47 393.18 643.07 393.72 642.66 394.25 642.25 394.77 641.83 395.3 641.4 395.82 640.96 396.33 640.52 396.84 640.08 397.35 639.63 397.85 639.18 398.34 638.72 398.82 638.24 399.31 637.78 399.78 637.29 400.26 636.82 400.74 636.33 401.19 635.83 401.65 635.33 402.1 634.83 402.54 634.32 402.98 633.81 403.42 633.29 403.85 632.77 404.26 632.24 404.69 631.71 405.09 631.18 405.5 630.63 405.9 630.08 406.29 629.54 406.67 628.98 407.05 628.42 407.43 627.86 407.79 627.29 408.16 626.72 408.52 626.14 408.86 625.56 409.2 624.97 409.54 624.39 409.87 623.8 410.19 623.2 410.5 622.61 410.81 622.01 411.12 621.4 411.4 620.79 411.7 620.19 411.97 619.57 412.25 618.95 412.52 618.33 412.78 617.71 413.03 617.08 413.28 616.45 413.52 615.82 413.75 615.19 413.98 614.55 414.19 613.9 414.41 613.26 414.61 612.62 414.81 611.98 415 611.33 415.18 610.67 415.36 610.02 415.52 609.37 415.68 608.71 415.83 608.05 415.99 607.4 416.12 606.73 416.25 606.06 416.38 605.4 416.49 604.73 416.6 604.07 416.7 603.4 416.79 602.73 416.88 602.06 416.96 601.4 417.03 600.72 417.09 600.04 417.15 599.38 417.2 598.7 417.25 598.02 417.28 597.35 417.31 596.67 417.32 595.99 417.33 595.33 417.34 594.65"/>
  <line class="cls-3" x1="302.18" y1="594.65" x2="302.18" y2="540.11"/>
  <polyline class="cls-3" points="411.27 485.55 411.27 484.89 411.26 484.21 411.24 483.53 411.21 482.85 411.18 482.19 411.13 481.51 411.07 480.83 411.01 480.17 410.94 479.49 410.86 478.83 410.77 478.16 410.68 477.49 410.57 476.82 410.46 476.15 410.34 475.49 410.21 474.84 410.07 474.17 409.93 473.52 409.77 472.85 409.62 472.2 409.44 471.55 409.28 470.89 409.09 470.25 408.9 469.6 408.69 468.96 408.48 468.32 408.27 467.67 408.04 467.04 407.8 466.4 407.57 465.77 407.32 465.16 407.05 464.53 406.79 463.91 406.52 463.29 406.25 462.67 405.96 462.07 405.66 461.46 405.37 460.86 405.06 460.25 404.74 459.66 404.42 459.06 404.08 458.48 403.74 457.9 403.4 457.32 403.04 456.73 402.68 456.16 402.32 455.61 401.95 455.05 401.57 454.49 401.17 453.93 400.78 453.38 400.38 452.84 399.98 452.3 399.56 451.77 399.13 451.25 398.7 450.72 398.28 450.21 397.84 449.7 397.39 449.19 396.93 448.69 396.47 448.19 396.01 447.71 395.54 447.22 395.06 446.74 394.58 446.28 394.1 445.81 393.6 445.36 393.1 444.9 392.59 444.45 392.08 444.01 391.57 443.59 391.04 443.16 390.51 442.73 389.99 442.31 389.44 441.91 388.9 441.51 388.36 441.11 387.8 440.72 387.24 440.34 386.68 439.97 386.11 439.61 385.54 439.24 384.97 438.89 384.39 438.55 383.81 438.2 383.23 437.87 382.63 437.55 382.04 437.23 381.43 436.92 380.83 436.62 380.22 436.33 379.62 436.04 379 435.76 378.38 435.5 377.76 435.22 377.13 434.97 376.5 434.72 375.87 434.49 375.24 434.25 374.62 434.02 373.97 433.81 373.33 433.6 372.69 433.39 372.04 433.2 371.4 433.01 370.74 432.84 370.09 432.67 369.44 432.51 368.77 432.36 368.12 432.21 367.45 432.08 366.79 431.94 366.13 431.83 365.47 431.72 364.79 431.61 364.13 431.52 363.46 431.42 362.78 431.35 362.12 431.28 361.44 431.22 360.78 431.16 360.1 431.11 359.42 431.08 358.76 431.04 358.08 431.03 357.4 431.02 356.73 431.01 356.06 431.02 355.38 431.03 354.71 431.04 354.03 431.08 353.37 431.11 352.69 431.16 352.01 431.22 351.35 431.28 350.67 431.35 350 431.42 349.34 431.52 348.66 431.61 348 431.72 347.33 431.83 346.67 431.94 346.01 432.08 345.35 432.21 344.68 432.36 344.03 432.51 343.38 432.67 342.72 432.84 342.07 433.01 341.43 433.2 340.77 433.39 340.13 433.6 339.49 433.81 338.85 434.02 338.22 434.25 337.58 434.49 336.95 434.72 336.32 434.97 335.7 435.22 335.09 435.5 334.47 435.76 333.85 436.04 333.24 436.33 332.63 436.62 332.03 436.92 331.43 437.23 330.83 437.55 330.24 437.87 329.66 438.2 329.08 438.55 328.49 438.89 327.91 439.24 327.34 439.61 326.78 439.97 326.21 440.34 325.67 440.72 325.11 441.11 324.56 441.51 324.01 441.91 323.48 442.31 322.95 442.73 322.42 443.16 321.9 443.59 321.38 444.01 320.87 444.45 320.37 444.9 319.87 445.36 319.37 445.81 318.88 446.28 318.4 446.74 317.92 447.22 317.46 447.71 316.98 448.19 316.53 448.69 316.08 449.19 315.63 449.7 315.19 450.21 314.75 450.72 314.32 451.25 313.91 451.77 313.49 452.3 313.09 452.84 312.68 453.38 312.29 453.93 311.9 454.49 311.52 455.05 311.15 455.61 310.78 456.16 310.41 456.73 310.07 457.32 309.73 457.9 309.38 458.48 309.05 459.06 308.73 459.66 308.41 460.25 308.1 460.86 307.8 461.46 307.5 462.07 307.22 462.67 306.93 463.29 306.66 463.91 306.4 464.53 306.15 465.16 305.9 465.77 305.65 466.4 305.43 467.04 305.2 467.67 304.99 468.32 304.77 468.96 304.57 469.6 304.38 470.25 304.19 470.89 304.01 471.55 303.85 472.2 303.68 472.85 303.54 473.52 303.38 474.17 303.25 474.84 303.12 475.49 303 476.15 302.88 476.82 302.79 477.49 302.69 478.16 302.6 478.83 302.53 479.49 302.46 480.17 302.39 480.83 302.34 481.51 302.29 482.19 302.25 482.85 302.22 483.53 302.21 484.21 302.2 484.89 302.18 485.55"/>
  <polyline class="cls-3" points="417.34 485.55 417.33 484.89 417.32 484.21 417.31 483.53 417.28 482.85 417.25 482.18 417.2 481.5 417.15 480.83 417.09 480.16 417.03 479.48 416.96 478.82 416.88 478.14 416.79 477.47 416.7 476.8 416.6 476.13 416.49 475.47 416.38 474.8 416.25 474.14 416.12 473.47 415.99 472.81 415.83 472.15 415.68 471.49 415.52 470.83 415.36 470.18 415.18 469.53 415 468.87 414.81 468.23 414.61 467.58 414.41 466.94 414.19 466.3 413.98 465.65 413.75 465.01 413.52 464.38 413.28 463.75 413.03 463.12 412.78 462.5 412.52 461.88 412.25 461.25 411.97 460.63 411.7 460.02 411.4 459.41 411.12 458.8 410.81 458.2 410.5 457.59 410.19 457 409.87 456.4 409.54 455.81 409.2 455.23 408.86 454.64 408.52 454.06 408.16 453.48 407.79 452.91 407.43 452.35 407.05 451.78 406.67 451.22 406.29 450.66 405.9 450.12 405.5 449.57 405.09 449.03 404.69 448.49 404.26 447.96 403.85 447.43 403.42 446.91 402.98 446.39 402.54 445.88 402.1 445.37 401.65 444.87 401.19 444.37 400.74 443.87 400.26 443.38 399.78 442.91 399.31 442.42 398.82 441.96 398.34 441.48 397.85 441.03 397.35 440.57 396.84 440.12 396.33 439.68 395.82 439.24 395.3 438.81 394.77 438.38 394.25 437.96 393.72 437.54 393.18 437.14 392.63 436.73 392.09 436.33 391.53 435.94 390.98 435.56 390.43 435.18 389.85 434.81 389.28 434.44 388.71 434.07 388.14 433.73 387.56 433.38 386.98 433.04 386.39 432.7 385.79 432.37 385.2 432.05 384.6 431.74 384 431.43 383.39 431.13 382.79 430.84 382.18 430.56 381.56 430.27 380.95 430 380.32 429.72 379.7 429.47 379.07 429.21 378.44 428.98 377.81 428.74 377.17 428.5 376.54 428.27 375.9 428.06 375.26 427.85 374.62 427.64 373.96 427.45 373.31 427.26 372.67 427.09 372.01 426.91 371.35 426.74 370.7 426.58 370.04 426.43 369.38 426.28 368.71 426.15 368.06 426.02 367.39 425.9 366.73 425.78 366.05 425.67 365.39 425.57 364.72 425.48 364.04 425.39 363.38 425.32 362.7 425.25 362.04 425.19 361.36 425.13 360.68 425.08 360.01 425.04 359.33 425.01 358.66 424.98 357.99 424.96 357.31 424.95 356.63 424.95 355.96 424.96 355.28 424.97 354.6 424.98 353.92 425.02 353.26 425.04 352.58 425.09 351.9 425.14 351.23 425.2 350.56 425.27 349.89 425.34 349.22 425.41 348.54 425.51 347.88 425.6 347.21 425.7 346.54 425.82 345.87 425.93 345.21 426.05 344.55 426.18 343.89 426.33 343.22 426.47 342.57 426.62 341.92 426.79 341.26 426.96 340.61 427.13 339.96 427.31 339.3 427.51 338.66 427.7 338.02 427.91 337.38 428.12 336.74 428.35 336.09 428.57 335.47 428.81 334.84 429.05 334.21 429.3 333.58 429.55 332.96 429.81 332.33 430.08 331.71 430.35 331.11 430.64 330.49 430.92 329.88 431.22 329.28 431.52 328.68 431.84 328.08 432.15 327.48 432.47 326.9 432.8 326.31 433.13 325.73 433.48 325.16 433.83 324.57 434.18 324 434.55 323.43 434.91 322.87 435.28 322.32 435.67 321.76 436.05 321.21 436.45 320.67 436.85 320.13 437.25 319.58 437.67 319.06 438.09 318.53 438.5 318 438.93 317.49 439.37 316.98 439.81 316.47 440.26 315.97 440.71 315.47 441.16 314.98 441.63 314.49 442.1 314.01 442.56 313.53 443.05 313.06 443.54 312.6 444.02 312.14 444.51 311.67 445.02 311.23 445.52 310.78 446.03 310.34 446.54 309.92 447.07 309.49 447.59 309.07 448.12 308.66 448.66 308.24 449.19"/>
  <line class="cls-3" x1="302.18" y1="485.55" x2="302.18" y2="540.11"/>
  <line class="cls-3" x1="584.76" y1="535.85" x2="584.76" y2="558.59"/>
  <line class="cls-3" x1="590.82" y1="535.85" x2="590.82" y2="558.59"/>
  <line class="cls-3" x1="568.86" y1="401.39" x2="568.86" y2="431.39"/>
  <line class="cls-3" x1="568.86" y1="431.39" x2="543.85" y2="431.39"/>
  <line class="cls-3" x1="589.31" y1="392.68" x2="575.67" y2="392.68"/>
  <line class="cls-3" x1="589.31" y1="392.68" x2="589.31" y2="395.32"/>
  <line class="cls-3" x1="589.31" y1="395.32" x2="568.86" y2="395.32"/>
  <line class="cls-3" x1="589.31" y1="401.39" x2="568.86" y2="401.39"/>
  <line class="cls-3" x1="589.31" y1="435.86" x2="589.31" y2="401.39"/>
  <line class="cls-3" x1="575.67" y1="435.86" x2="575.67" y2="535.85"/>
  <line class="cls-3" x1="575.67" y1="435.86" x2="589.31" y2="435.86"/>
  <line class="cls-3" x1="392.75" y1="398.23" x2="410.94" y2="398.23"/>
  <line class="cls-3" x1="410.94" y1="407.32" x2="392.75" y2="407.32"/>
  <line class="cls-3" x1="410.94" y1="398.23" x2="410.94" y2="407.32"/>
  <line class="cls-3" x1="392.75" y1="398.23" x2="392.75" y2="407.32"/>
  <line class="cls-3" x1="578.15" y1="426.27" x2="584.2" y2="426.27"/>
  <line class="cls-3" x1="584.2" y1="426.27" x2="584.2" y2="420.2"/>
  <line class="cls-3" x1="584.2" y1="420.2" x2="578.15" y2="420.2"/>
  <line class="cls-3" x1="578.15" y1="420.2" x2="578.15" y2="426.27"/>
  <line class="cls-3" x1="547.22" y1="435.86" x2="568.86" y2="435.86"/>
  <line class="cls-3" x1="547.22" y1="456.06" x2="568.86" y2="456.06"/>
  <line class="cls-3" x1="568.86" y1="435.86" x2="568.86" y2="456.06"/>
  <line class="cls-3" x1="479.32" y1="558.84" x2="479.32" y2="589.7"/>
  <line class="cls-3" x1="479.32" y1="589.7" x2="484.2" y2="589.7"/>
  <line class="cls-3" x1="484.2" y1="589.7" x2="484.2" y2="593.4"/>
  <line class="cls-3" x1="484.2" y1="593.4" x2="491.58" y2="593.4"/>
  <line class="cls-3" x1="484.2" y1="593.4" x2="491.58" y2="593.4"/>
  <line class="cls-3" x1="479.32" y1="597.94" x2="491.58" y2="597.94"/>
  <line class="cls-3" x1="444.04" y1="558.84" x2="444.04" y2="547.82"/>
  <line class="cls-3" x1="455.66" y1="558.84" x2="455.66" y2="547.82"/>
  <line class="cls-3" x1="455.66" y1="547.82" x2="444.04" y2="547.82"/>
  <line class="cls-3" x1="455.66" y1="558.84" x2="479.32" y2="558.84"/>
  <line class="cls-3" x1="443.09" y1="397.23" x2="493.1" y2="397.23"/>
  <line class="cls-3" x1="547.22" y1="435.86" x2="547.22" y2="456.06"/>
  <line class="cls-3" x1="411.27" y1="540.11" x2="411.27" y2="594.65"/>
  <line class="cls-3" x1="411.27" y1="540.11" x2="411.27" y2="485.55"/>
  <line class="cls-3" x1="417.34" y1="485.55" x2="417.34" y2="594.65"/>
  <line class="cls-3" x1="419.46" y1="450.71" x2="428.55" y2="450.71"/>
  <line class="cls-3" x1="428.55" y1="450.71" x2="428.55" y2="432.53"/>
  <line class="cls-3" x1="428.55" y1="432.53" x2="419.46" y2="432.53"/>
  <line class="cls-3" x1="419.46" y1="432.53" x2="419.46" y2="450.71"/>
  <line class="cls-3" x1="454.02" y1="459.05" x2="443.96" y2="459.05"/>
  <line class="cls-3" x1="443.96" y1="459.05" x2="443.96" y2="417.13"/>
  <line class="cls-3" x1="524.44" y1="497.35" x2="524.44" y2="417.13"/>
  <line class="cls-3" x1="524.44" y1="417.13" x2="443.96" y2="417.13"/>
  <line class="cls-3" x1="524.44" y1="497.35" x2="544.57" y2="497.35"/>
  <line class="cls-3" x1="454.02" y1="459.05" x2="454.02" y2="477.78"/>
  <line class="cls-3" x1="454.02" y1="477.78" x2="443.96" y2="477.78"/>
  <line class="cls-3" x1="443.96" y1="477.78" x2="443.96" y2="540.65"/>
  <line class="cls-3" x1="443.96" y1="540.65" x2="471.21" y2="540.65"/>
  <line class="cls-3" x1="474.14" y1="540.65" x2="484.2" y2="540.65"/>
  <line class="cls-3" x1="484.2" y1="540.65" x2="484.2" y2="520.12"/>
  <line class="cls-3" x1="504.32" y1="527.1" x2="504.32" y2="520.12"/>
  <line class="cls-3" x1="504.32" y1="520.12" x2="484.2" y2="520.12"/>
  <line class="cls-3" x1="504.32" y1="527.1" x2="514.38" y2="527.1"/>
  <line class="cls-3" x1="514.38" y1="527.1" x2="514.38" y2="520.12"/>
  <line class="cls-3" x1="514.38" y1="520.12" x2="521.24" y2="520.12"/>
  <line class="cls-3" x1="521.24" y1="520.12" x2="521.24" y2="534.37"/>
  <line class="cls-3" x1="521.24" y1="534.37" x2="544.57" y2="534.37"/>
  <line class="cls-3" x1="544.57" y1="534.37" x2="544.57" y2="497.35"/>
  <line class="cls-3" x1="474.14" y1="540.65" x2="474.14" y2="558.84"/>
  <line class="cls-3" x1="471.21" y1="540.65" x2="471.21" y2="558.84"/>
  <line class="cls-3" x1="305.21" y1="255.05" x2="340.98" y2="353.29"/>
  <line class="cls-3" x1="305.21" y1="255.05" x2="311.28" y2="308.07"/>
  <line class="cls-3" x1="311.28" y1="308.07" x2="332.58" y2="300.31"/>
  <line class="cls-3" x1="356.73" y1="331.31" x2="356.73" y2="367.67"/>
  <line class="cls-3" x1="356.73" y1="367.67" x2="293.1" y2="367.67"/>
  <line class="cls-3" x1="284.01" y1="367.67" x2="255.22" y2="526.77"/>
  <line class="cls-3" x1="293.1" y1="367.67" x2="264.3" y2="526.77"/>
  <line class="cls-3" x1="466.58" y1="685.86" x2="473.39" y2="694.95"/>
  <line class="cls-3" x1="473.39" y1="694.95" x2="473.39" y2="713.13"/>
  <line class="cls-3" x1="482.49" y1="694.95" x2="482.49" y2="713.13"/>
  <line class="cls-3" x1="482.49" y1="694.95" x2="487.03" y2="685.86"/>
  <line class="cls-3" x1="718.28" y1="667.06" x2="767.34" y2="663.13"/>
  <line class="cls-3" x1="673.4" y1="673.27" x2="673.4" y2="710.83"/>
  <line class="cls-3" x1="487.03" y1="685.86" x2="670.11" y2="670.25"/>
  <line class="cls-3" x1="468.86" y1="676.76" x2="470.7" y2="676.62"/>
  <line class="cls-3" x1="474.06" y1="676.36" x2="477.41" y2="676.1"/>
  <line class="cls-3" x1="480.77" y1="675.84" x2="484.13" y2="675.58"/>
  <line class="cls-3" x1="487.48" y1="675.31" x2="490.84" y2="675.05"/>
  <line class="cls-3" x1="494.2" y1="674.79" x2="497.55" y2="674.53"/>
  <line class="cls-3" x1="500.91" y1="674.27" x2="504.26" y2="674.01"/>
  <line class="cls-3" x1="507.63" y1="673.76" x2="510.99" y2="673.5"/>
  <line class="cls-3" x1="514.34" y1="673.24" x2="517.7" y2="672.97"/>
  <line class="cls-3" x1="521.05" y1="672.71" x2="524.41" y2="672.45"/>
  <line class="cls-3" x1="527.77" y1="672.19" x2="531.12" y2="671.93"/>
  <line class="cls-3" x1="534.48" y1="671.67" x2="537.83" y2="671.41"/>
  <line class="cls-3" x1="541.19" y1="671.14" x2="544.55" y2="670.88"/>
  <line class="cls-3" x1="547.9" y1="670.62" x2="551.27" y2="670.36"/>
  <line class="cls-3" x1="554.63" y1="670.1" x2="557.98" y2="669.84"/>
  <line class="cls-3" x1="561.34" y1="669.58" x2="564.69" y2="669.32"/>
  <line class="cls-3" x1="568.05" y1="669.05" x2="571.41" y2="668.79"/>
  <line class="cls-3" x1="574.76" y1="668.53" x2="578.12" y2="668.27"/>
  <line class="cls-3" x1="581.47" y1="668.01" x2="584.83" y2="667.75"/>
  <line class="cls-3" x1="588.19" y1="667.49" x2="591.54" y2="667.22"/>
  <line class="cls-3" x1="594.91" y1="666.96" x2="598.26" y2="666.7"/>
  <line class="cls-3" x1="601.62" y1="666.44" x2="604.98" y2="666.18"/>
  <line class="cls-3" x1="608.33" y1="665.92" x2="611.69" y2="665.66"/>
  <line class="cls-3" x1="615.05" y1="665.4" x2="618.4" y2="665.13"/>
  <line class="cls-3" x1="621.76" y1="664.87" x2="625.11" y2="664.61"/>
  <line class="cls-3" x1="628.47" y1="664.35" x2="631.83" y2="664.09"/>
  <line class="cls-3" x1="635.18" y1="663.83" x2="638.55" y2="663.57"/>
  <line class="cls-3" x1="641.9" y1="663.31" x2="645.26" y2="663.04"/>
  <line class="cls-3" x1="648.62" y1="662.78" x2="651.97" y2="662.52"/>
  <line class="cls-3" x1="655.33" y1="662.26" x2="658.68" y2="662"/>
  <line class="cls-3" x1="662.04" y1="661.74" x2="665.4" y2="661.48"/>
  <line class="cls-3" x1="668.75" y1="661.21" x2="670.6" y2="661.07"/>
  <line class="cls-3" x1="685.72" y1="660.63" x2="767.94" y2="654.95"/>
  <line class="cls-3" x1="682.49" y1="710.83" x2="682.49" y2="672.72"/>
  <line class="cls-3" x1="685.27" y1="669.7" x2="715.4" y2="667.28"/>
  <line class="cls-3" x1="264.3" y1="688.89" x2="264.3" y2="713.13"/>
  <line class="cls-3" x1="466.58" y1="685.86" x2="267.33" y2="685.86"/>
  <polyline class="cls-3" points="267.33 685.86 266.75 685.92 266.18 686.09 265.66 686.37 265.19 686.74 264.81 687.2 264.54 687.73 264.36 688.3 264.3 688.89"/>
  <line class="cls-3" x1="252.19" y1="685.86" x2="237.03" y2="685.86"/>
  <line class="cls-3" x1="255.22" y1="688.89" x2="255.22" y2="713.13"/>
  <polyline class="cls-3" points="255.22 688.89 255.16 688.3 254.98 687.73 254.71 687.2 254.33 686.74 253.88 686.37 253.34 686.09 252.78 685.92 252.19 685.86"/>
  <line class="cls-3" x1="255.22" y1="526.77" x2="255.22" y2="673.73"/>
  <line class="cls-3" x1="252.19" y1="676.76" x2="237.03" y2="676.76"/>
  <polyline class="cls-3" points="252.19 676.76 252.78 676.7 253.34 676.54 253.88 676.25 254.33 675.88 254.71 675.42 254.98 674.9 255.16 674.33 255.22 673.73"/>
  <line class="cls-3" x1="267.33" y1="676.76" x2="268.77" y2="676.76"/>
  <line class="cls-3" x1="272.13" y1="676.76" x2="275.51" y2="676.76"/>
  <line class="cls-3" x1="278.87" y1="676.76" x2="282.24" y2="676.76"/>
  <line class="cls-3" x1="285.6" y1="676.76" x2="288.97" y2="676.76"/>
  <line class="cls-3" x1="292.34" y1="676.76" x2="295.71" y2="676.76"/>
  <line class="cls-3" x1="299.07" y1="676.76" x2="302.43" y2="676.76"/>
  <line class="cls-3" x1="305.81" y1="676.76" x2="309.17" y2="676.76"/>
  <line class="cls-3" x1="312.54" y1="676.76" x2="315.9" y2="676.76"/>
  <line class="cls-3" x1="319.28" y1="676.76" x2="322.64" y2="676.76"/>
  <line class="cls-3" x1="326.01" y1="676.76" x2="329.37" y2="676.76"/>
  <line class="cls-3" x1="332.75" y1="676.76" x2="336.11" y2="676.76"/>
  <line class="cls-3" x1="339.48" y1="676.76" x2="342.84" y2="676.76"/>
  <line class="cls-3" x1="346.22" y1="676.76" x2="349.58" y2="676.76"/>
  <line class="cls-3" x1="352.94" y1="676.76" x2="356.31" y2="676.76"/>
  <line class="cls-3" x1="359.67" y1="676.76" x2="363.05" y2="676.76"/>
  <line class="cls-3" x1="366.41" y1="676.76" x2="369.78" y2="676.76"/>
  <line class="cls-3" x1="373.14" y1="676.76" x2="376.52" y2="676.76"/>
  <line class="cls-3" x1="379.88" y1="676.76" x2="383.25" y2="676.76"/>
  <line class="cls-3" x1="386.61" y1="676.76" x2="389.99" y2="676.76"/>
  <line class="cls-3" x1="393.35" y1="676.76" x2="396.72" y2="676.76"/>
  <line class="cls-3" x1="400.08" y1="676.76" x2="403.44" y2="676.76"/>
  <line class="cls-3" x1="406.82" y1="676.76" x2="410.18" y2="676.76"/>
  <line class="cls-3" x1="413.55" y1="676.76" x2="416.91" y2="676.76"/>
  <line class="cls-3" x1="420.29" y1="676.76" x2="423.65" y2="676.76"/>
  <line class="cls-3" x1="427.02" y1="676.76" x2="430.38" y2="676.76"/>
  <line class="cls-3" x1="433.76" y1="676.76" x2="437.12" y2="676.76"/>
  <line class="cls-3" x1="440.49" y1="676.76" x2="443.85" y2="676.76"/>
  <line class="cls-3" x1="447.21" y1="676.76" x2="450.59" y2="676.76"/>
  <line class="cls-3" x1="453.95" y1="676.76" x2="457.32" y2="676.76"/>
  <line class="cls-3" x1="460.68" y1="676.76" x2="464.06" y2="676.76"/>
  <line class="cls-3" x1="467.42" y1="676.76" x2="468.86" y2="676.76"/>
  <polyline class="cls-3" points="264.3 673.73 264.36 674.33 264.54 674.9 264.81 675.42 265.19 675.88 265.66 676.25 266.18 676.54 266.75 676.7 267.33 676.76"/>
  <line class="cls-3" x1="264.3" y1="526.77" x2="264.3" y2="664.65"/>
  <polyline class="cls-3" points="264.3 664.65 264.36 665.24 264.54 665.81 264.81 666.33 265.19 666.79 265.66 667.17 266.18 667.45 266.75 667.62 267.33 667.68"/>
  <line class="cls-3" x1="264.3" y1="673.73" x2="264.3" y2="664.65"/>
  <polyline class="cls-3" points="530.22 659.6 530.28 660.22 530.47 660.81 530.78 661.36 531.19 661.82 531.69 662.2 532.25 662.46 532.85 662.6 533.48 662.63"/>
  <line class="cls-3" x1="533.48" y1="662.63" x2="575.9" y2="659.33"/>
  <polyline class="cls-3" points="575.9 659.33 576.46 659.23 576.99 659.03 577.48 658.73 577.9 658.36 578.24 657.91 578.49 657.4 578.64 656.87 578.7 656.3"/>
  <line class="cls-3" x1="578.7" y1="641.66" x2="578.7" y2="656.3"/>
  <polyline class="cls-3" points="578.7 641.66 578.64 641.07 578.47 640.5 578.19 639.98 577.81 639.53 577.35 639.15 576.83 638.86 576.26 638.69 575.67 638.63"/>
  <line class="cls-3" x1="530.22" y1="641.66" x2="530.22" y2="659.6"/>
  <line class="cls-3" x1="533.25" y1="638.63" x2="575.67" y2="638.63"/>
  <polyline class="cls-3" points="533.25 638.63 532.65 638.69 532.08 638.86 531.56 639.15 531.11 639.53 530.73 639.98 530.44 640.5 530.28 641.07 530.22 641.66"/>
  <line class="cls-3" x1="502.46" y1="620.45" x2="612.06" y2="620.45"/>
  <polyline class="cls-3" points="577.18 541.16 577.78 541.1 578.35 540.93 578.87 540.65 579.33 540.27 579.7 539.81 579.99 539.29 580.15 538.73 580.21 538.13"/>
  <line class="cls-3" x1="577.18" y1="541.16" x2="555.97" y2="541.16"/>
  <polyline class="cls-3" points="552.94 538.13 553 538.73 553.18 539.29 553.45 539.81 553.83 540.27 554.29 540.65 554.82 540.93 555.39 541.1 555.97 541.16"/>
  <polyline class="cls-3" points="543.85 541.16 544.45 541.1 545.02 540.93 545.54 540.65 545.99 540.27 546.37 539.81 546.66 539.29 546.82 538.73 546.88 538.13"/>
  <line class="cls-3" x1="555.97" y1="506.31" x2="575.67" y2="506.31"/>
  <line class="cls-3" x1="552.94" y1="509.34" x2="552.94" y2="538.13"/>
  <polyline class="cls-3" points="555.97 506.31 555.39 506.37 554.82 506.54 554.29 506.82 553.83 507.2 553.45 507.66 553.18 508.18 553 508.75 552.94 509.34"/>
  <line class="cls-3" x1="555.97" y1="500.26" x2="575.67" y2="500.26"/>
  <polyline class="cls-3" points="552.94 497.23 553 497.81 553.18 498.38 553.45 498.9 553.83 499.36 554.29 499.74 554.82 500.02 555.39 500.2 555.97 500.26"/>
  <line class="cls-3" x1="552.94" y1="497.23" x2="552.94" y2="480.56"/>
  <polyline class="cls-3" points="552.94 480.56 552.88 479.97 552.71 479.4 552.43 478.87 552.06 478.41 551.6 478.03 551.08 477.76 550.51 477.58 549.91 477.52"/>
  <line class="cls-3" x1="546.88" y1="538.13" x2="546.88" y2="486.62"/>
  <polyline class="cls-3" points="546.88 486.62 546.82 486.03 546.66 485.46 546.37 484.93 545.99 484.47 545.54 484.1 545.02 483.82 544.45 483.65 543.85 483.59"/>
  <line class="cls-3" x1="543.85" y1="483.59" x2="531.73" y2="483.59"/>
  <polyline class="cls-3" points="528.7 480.56 528.76 481.14 528.93 481.71 529.21 482.24 529.59 482.7 530.05 483.08 530.57 483.35 531.14 483.53 531.73 483.59"/>
  <line class="cls-3" x1="549.91" y1="477.52" x2="537.8" y2="477.52"/>
  <polyline class="cls-3" points="534.77 474.49 534.81 475.09 534.99 475.66 535.28 476.18 535.65 476.64 536.11 477.01 536.63 477.3 537.2 477.46 537.8 477.52"/>
  <line class="cls-3" x1="537.8" y1="407.49" x2="543.85" y2="407.49"/>
  <line class="cls-3" x1="534.77" y1="474.49" x2="534.77" y2="410.52"/>
  <polyline class="cls-3" points="537.8 407.49 537.2 407.55 536.63 407.71 536.11 408 535.65 408.38 535.28 408.83 534.99 409.35 534.81 409.92 534.77 410.52"/>
  <line class="cls-3" x1="528.7" y1="480.56" x2="528.7" y2="410.52"/>
  <polyline class="cls-3" points="528.7 410.52 528.64 409.92 528.47 409.35 528.19 408.83 527.82 408.38 527.36 408 526.83 407.71 526.26 407.55 525.67 407.49"/>
  <line class="cls-3" x1="520.37" y1="407.49" x2="525.67" y2="407.49"/>
  <line class="cls-3" x1="508.24" y1="407.49" x2="443.09" y2="407.49"/>
  <line class="cls-3" x1="523.4" y1="389.3" x2="543.85" y2="389.3"/>
  <polyline class="cls-3" points="520.37 386.27 520.43 386.87 520.6 387.44 520.88 387.96 521.25 388.42 521.71 388.79 522.24 389.08 522.81 389.24 523.4 389.3"/>
  <line class="cls-3" x1="356.73" y1="331.31" x2="508.24" y2="331.31"/>
  <polyline class="cls-3" points="511.27 334.34 511.21 333.75 511.05 333.18 510.76 332.66 510.39 332.2 509.93 331.82 509.41 331.54 508.84 331.37 508.24 331.31"/>
  <line class="cls-3" x1="523.4" y1="331.31" x2="668.86" y2="331.31"/>
  <line class="cls-3" x1="520.37" y1="334.34" x2="520.37" y2="386.27"/>
  <polyline class="cls-3" points="523.4 331.31 522.81 331.37 522.24 331.54 521.71 331.82 521.25 332.2 520.88 332.66 520.6 333.18 520.43 333.75 520.37 334.34"/>
  <line class="cls-3" x1="356.73" y1="322.23" x2="474.91" y2="322.23"/>
  <line class="cls-3" x1="477.94" y1="319.19" x2="477.94" y2="299.49"/>
  <polyline class="cls-3" points="474.91 322.23 475.51 322.17 476.08 321.99 476.6 321.72 477.05 321.34 477.43 320.87 477.72 320.35 477.88 319.78 477.94 319.19"/>
  <line class="cls-3" x1="487.03" y1="319.19" x2="487.03" y2="299.49"/>
  <polyline class="cls-3" points="487.03 319.19 487.09 319.78 487.27 320.35 487.54 320.87 487.92 321.34 488.38 321.72 488.91 321.99 489.48 322.17 490.07 322.23"/>
  <line class="cls-3" x1="673.4" y1="319.19" x2="673.4" y2="299.49"/>
  <line class="cls-3" x1="490.07" y1="322.23" x2="670.37" y2="322.23"/>
  <polyline class="cls-3" points="670.37 322.23 670.96 322.17 671.53 321.99 672.05 321.72 672.5 321.34 672.88 320.87 673.17 320.35 673.34 319.78 673.4 319.19"/>
  <line class="cls-3" x1="682.49" y1="319.19" x2="682.49" y2="299.49"/>
  <line class="cls-3" x1="714.3" y1="322.23" x2="685.52" y2="322.23"/>
  <polyline class="cls-3" points="682.49 319.19 682.54 319.78 682.72 320.35 683 320.87 683.37 321.34 683.84 321.72 684.36 321.99 684.93 322.17 685.52 322.23"/>
  <line class="cls-3" x1="714.3" y1="331.31" x2="685.52" y2="331.31"/>
  <polyline class="cls-3" points="685.52 331.31 684.93 331.37 684.36 331.54 683.84 331.82 683.37 332.2 683 332.66 682.72 333.18 682.54 333.75 682.49 334.34"/>
  <line class="cls-3" x1="685.52" y1="476.77" x2="714.3" y2="476.77"/>
  <line class="cls-3" x1="682.49" y1="334.34" x2="682.49" y2="473.73"/>
  <polyline class="cls-3" points="682.49 473.73 682.54 474.33 682.72 474.9 683 475.42 683.37 475.88 683.84 476.26 684.36 476.53 684.93 476.71 685.52 476.77"/>
  <line class="cls-3" x1="685.52" y1="485.86" x2="714.3" y2="485.86"/>
  <line class="cls-3" x1="682.49" y1="488.89" x2="682.49" y2="657.62"/>
  <polyline class="cls-3" points="685.52 485.86 684.93 485.92 684.36 486.08 683.84 486.37 683.37 486.75 683 487.2 682.72 487.72 682.54 488.29 682.49 488.89"/>
  <line class="cls-3" x1="670.37" y1="542.67" x2="665.82" y2="542.67"/>
  <polyline class="cls-3" points="670.37 542.67 670.96 542.62 671.53 542.45 672.05 542.16 672.5 541.79 672.88 541.33 673.17 540.81 673.34 540.24 673.4 539.64"/>
  <line class="cls-3" x1="670.37" y1="551.77" x2="665.82" y2="551.77"/>
  <line class="cls-3" x1="673.4" y1="554.8" x2="673.4" y2="648.99"/>
  <polyline class="cls-3" points="673.4 554.8 673.34 554.21 673.17 553.64 672.88 553.11 672.5 552.66 672.05 552.28 671.53 552 670.96 551.83 670.37 551.77"/>
  <line class="cls-3" x1="311.28" y1="308.07" x2="332.58" y2="300.31"/>
  <polyline class="cls-3" points="437.03 653.53 437.09 654.12 437.26 654.69 437.55 655.22 437.93 655.68 438.38 656.06 438.9 656.33 439.47 656.51 440.06 656.57"/>
  <line class="cls-3" x1="488.55" y1="536.45" x2="494" y2="536.45"/>
  <polyline class="cls-3" points="498.92 538.57 498.88 538.16 498.75 537.75 498.56 537.39 498.3 537.07 497.98 536.8 497.61 536.61 497.21 536.48 496.79 536.45"/>
  <polyline class="cls-3" points="498.92 539.04 498.97 539.45 499.09 539.86 499.28 540.21 499.54 540.55 499.86 540.81 500.23 541 500.63 541.12 501.05 541.16"/>
  <line class="cls-3" x1="580.21" y1="538.13" x2="580.21" y2="535.85"/>
  <line class="cls-3" x1="543.85" y1="541.16" x2="501.05" y2="541.16"/>
  <line class="cls-3" x1="498.92" y1="539.04" x2="498.92" y2="538.57"/>
  <line class="cls-3" x1="496.79" y1="536.45" x2="494" y2="536.45"/>
  <line class="cls-3" x1="493.7" y1="554.36" x2="584.76" y2="554.36"/>
  <line class="cls-3" x1="430.98" y1="459" x2="430.98" y2="615.52"/>
  <line class="cls-3" x1="437.03" y1="648.62" x2="437.03" y2="654.21"/>
  <polyline class="cls-3" points="440.06 549.64 439.47 549.7 438.9 549.88 438.38 550.16 437.93 550.54 437.55 551 437.26 551.52 437.09 552.09 437.03 552.67"/>
  <line class="cls-3" x1="440.06" y1="549.64" x2="444.04" y2="549.64"/>
  <line class="cls-3" x1="437.03" y1="552.67" x2="437.03" y2="615.52"/>
  <polyline class="cls-3" points="489.77 656.57 490.37 656.51 490.94 656.33 491.46 656.06 491.92 655.68 492.3 655.22 492.58 654.69 492.75 654.12 492.81 653.53"/>
  <line class="cls-3" x1="492.81" y1="653.53" x2="492.81" y2="648.62"/>
  <line class="cls-3" x1="489.77" y1="656.57" x2="481.78" y2="656.57"/>
  <line class="cls-3" x1="440.06" y1="656.57" x2="462.7" y2="656.57"/>
  <polyline class="cls-3" points="495.84 620.45 495.59 620.46 495.36 620.48 495.12 620.54 494.89 620.6 494.67 620.69 494.44 620.79 494.24 620.91 494.04 621.04"/>
  <line class="cls-3" x1="495.84" y1="620.45" x2="612.06" y2="620.45"/>
  <polyline class="cls-3" points="445.34 661.46 445.04 661.5 444.76 661.58 444.49 661.73 444.27 661.9 444.08 662.14 443.94 662.4 443.85 662.69 443.82 662.98"/>
  <polyline class="cls-3" points="443.82 666.16 443.85 666.45 443.94 666.74 444.08 667 444.27 667.24 444.49 667.43 444.76 667.56 445.04 667.65 445.34 667.68"/>
  <polyline class="cls-3" points="492.81 662.98 492.78 662.69 492.69 662.4 492.55 662.14 492.36 661.9 492.14 661.73 491.88 661.58 491.59 661.5 491.29 661.46"/>
  <polyline class="cls-3" points="429.46 667.68 429.75 667.65 430.04 667.56 430.3 667.43 430.53 667.24 430.72 667 430.86 666.74 430.94 666.45 430.98 666.16"/>
  <line class="cls-3" x1="443.82" y1="666.16" x2="443.82" y2="662.98"/>
  <line class="cls-3" x1="445.34" y1="661.46" x2="491.29" y2="661.46"/>
  <line class="cls-3" x1="492.81" y1="662.98" x2="492.81" y2="664.4"/>
  <line class="cls-3" x1="430.98" y1="666.16" x2="430.98" y2="648.62"/>
  <line class="cls-3" x1="429.46" y1="667.68" x2="267.33" y2="667.68"/>
  <polyline class="cls-3" points="491.32 665.92 491.6 665.88 491.89 665.8 492.15 665.66 492.37 665.47 492.55 665.24 492.69 664.98 492.78 664.69 492.81 664.4"/>
  <line class="cls-3" x1="491.29" y1="665.92" x2="468.86" y2="667.68"/>
  <line class="cls-3" x1="468.86" y1="667.68" x2="445.34" y2="667.68"/>
  <line class="cls-3" x1="511.27" y1="334.34" x2="511.27" y2="338.14"/>
  <polyline class="cls-3" points="673.4 673.27 673.34 672.65 673.15 672.06 672.84 671.51 672.42 671.05 671.91 670.67 671.34 670.41 670.73 670.27 670.11 670.25"/>
  <polyline class="cls-3" points="670.6 661.07 671.16 660.98 671.69 660.79 672.17 660.49 672.59 660.11 672.93 659.66 673.19 659.16 673.35 658.61 673.4 658.06"/>
  <polyline class="cls-3" points="670.6 652.01 671.16 651.91 671.69 651.71 672.17 651.43 672.59 651.05 672.93 650.6 673.19 650.1 673.35 649.55 673.4 648.99"/>
  <line class="cls-3" x1="673.4" y1="658.06" x2="673.4" y2="648.99"/>
  <polyline class="cls-3" points="682.49 657.62 682.55 658.23 682.74 658.82 683.04 659.36 683.46 659.82 683.94 660.21 684.5 660.47 685.11 660.61 685.72 660.63"/>
  <polyline class="cls-3" points="685.27 669.7 684.73 669.79 684.19 669.99 683.72 670.29 683.29 670.67 682.95 671.11 682.7 671.62 682.54 672.15 682.49 672.72"/>
  <polyline class="cls-3" points="599.92 633.59 599.32 633.65 598.75 633.81 598.23 634.1 597.77 634.48 597.39 634.93 597.11 635.45 596.94 636.02 596.88 636.62"/>
  <line class="cls-3" x1="596.88" y1="636.62" x2="596.88" y2="654.42"/>
  <polyline class="cls-3" points="596.88 654.42 596.95 655.04 597.14 655.63 597.45 656.18 597.85 656.64 598.35 657.02 598.92 657.28 599.53 657.43 600.14 657.44"/>
  <polyline class="cls-3" points="625.78 627.18 625.93 627.27 626.11 627.33 626.28 627.39 626.45 627.43 626.63 627.48 626.81 627.5 626.99 627.52 627.17 627.53"/>
  <line class="cls-3" x1="625.78" y1="627.18" x2="613.45" y2="620.79"/>
  <polyline class="cls-3" points="613.45 620.79 613.28 620.71 613.11 620.65 612.95 620.59 612.77 620.54 612.59 620.5 612.41 620.47 612.24 620.46 612.06 620.45"/>
  <line class="cls-3" x1="600.14" y1="657.44" x2="637.04" y2="654.6"/>
  <line class="cls-3" x1="637.04" y1="633.59" x2="599.92" y2="633.59"/>
  <polyline class="cls-3" points="634.01 627.53 634.59 627.47 635.16 627.29 635.68 627.02 636.15 626.64 636.53 626.17 636.8 625.65 636.98 625.08 637.04 624.5"/>
  <line class="cls-3" x1="627.17" y1="627.53" x2="634.01" y2="627.53"/>
  <line class="cls-3" x1="637.04" y1="633.59" x2="637.04" y2="654.6"/>
  <line class="cls-3" x1="637.04" y1="624.5" x2="637.04" y2="613.13"/>
  <line class="cls-3" x1="654.45" y1="612.75" x2="654.45" y2="609.83"/>
  <line class="cls-3" x1="660.06" y1="609.83" x2="654.45" y2="609.83"/>
  <line class="cls-3" x1="660.12" y1="609.83" x2="660.12" y2="608.56"/>
  <line class="cls-3" x1="637.04" y1="613.13" x2="654.45" y2="613.13"/>
  <line class="cls-3" x1="660.12" y1="608.56" x2="673.4" y2="608.56"/>
  <line class="cls-3" x1="658.16" y1="652.97" x2="670.6" y2="652.01"/>
  <line class="cls-3" x1="658.16" y1="652.97" x2="658.16" y2="651.46"/>
  <line class="cls-3" x1="671.14" y1="613.13" x2="673.4" y2="613.13"/>
  <line class="cls-3" x1="670.37" y1="426.6" x2="665.82" y2="426.6"/>
  <polyline class="cls-3" points="670.37 426.6 670.96 426.54 671.53 426.37 672.05 426.09 672.5 425.71 672.88 425.26 673.17 424.72 673.34 424.16 673.4 423.57"/>
  <line class="cls-3" x1="670.37" y1="435.69" x2="665.82" y2="435.69"/>
  <polyline class="cls-3" points="673.4 438.72 673.34 438.13 673.17 437.56 672.88 437.04 672.5 436.58 672.05 436.2 671.53 435.92 670.96 435.75 670.37 435.69"/>
  <line class="cls-3" x1="673.4" y1="539.64" x2="673.4" y2="438.72"/>
  <line class="cls-3" x1="673.4" y1="423.57" x2="673.4" y2="335.86"/>
  <polyline class="cls-3" points="437.03 533.42 437.06 533.75 437.11 534.07 437.19 534.39 437.32 534.69 437.47 534.99 437.65 535.26 437.87 535.51 438.12 535.74"/>
  <polyline class="cls-3" points="437.03 533.42 437.09 534.01 437.26 534.58 437.55 535.11 437.93 535.56 438.38 535.94 438.9 536.22 439.47 536.39 440.06 536.45"/>
  <line class="cls-3" x1="437.03" y1="478.79" x2="437.03" y2="533.42"/>
  <line class="cls-3" x1="508.24" y1="407.49" x2="520.37" y2="407.49"/>
  <line class="cls-3" x1="484.2" y1="536.45" x2="488.55" y2="536.45"/>
  <line class="cls-3" x1="440.06" y1="536.45" x2="443.96" y2="536.45"/>
  <line class="cls-3" x1="665.82" y1="426.6" x2="627.61" y2="426.6"/>
  <line class="cls-3" x1="471.21" y1="549.64" x2="455.66" y2="549.64"/>
  <polyline class="cls-3" points="491.58 552.23 491.63 552.65 491.74 553.05 491.93 553.42 492.2 553.74 492.52 554 492.89 554.19 493.29 554.32 493.7 554.36"/>
  <polyline class="cls-3" points="491.58 551.77 491.54 551.35 491.42 550.95 491.22 550.59 490.96 550.27 490.64 550 490.27 549.81 489.87 549.69 489.46 549.64"/>
  <line class="cls-3" x1="491.58" y1="552.23" x2="491.58" y2="551.77"/>
  <line class="cls-3" x1="474.14" y1="549.64" x2="489.46" y2="549.64"/>
  <line class="cls-3" x1="430.98" y1="459" x2="430.98" y2="410.52"/>
  <polyline class="cls-3" points="440.06 407.49 439.47 407.55 438.9 407.71 438.38 408 437.93 408.38 437.55 408.83 437.26 409.35 437.09 409.92 437.03 410.52"/>
  <line class="cls-3" x1="440.06" y1="407.49" x2="449.01" y2="407.49"/>
  <polyline class="cls-3" points="437.03 447.09 437.09 447.68 437.26 448.24 437.55 448.78 437.93 449.23 438.38 449.61 438.9 449.88 439.47 450.06 440.06 450.12"/>
  <polyline class="cls-3" points="440.06 457.03 439.47 457.09 438.9 457.27 438.38 457.54 437.93 457.92 437.55 458.39 437.26 458.91 437.09 459.48 437.03 460.06"/>
  <line class="cls-3" x1="437.03" y1="447.09" x2="437.03" y2="410.52"/>
  <line class="cls-3" x1="437.03" y1="460.06" x2="437.03" y2="478.79"/>
  <line class="cls-3" x1="442.08" y1="450.12" x2="440.06" y2="450.12"/>
  <line class="cls-3" x1="440.06" y1="457.03" x2="442.08" y2="457.03"/>
  <path class="cls-1" d="M561.5,352.28c.18-.09.36-.22.55-.39l-2.95.55c-.02.12-.06.15-.13.08l-.16-.58,1.53-.18v-.47h-1.24v-.42h1.24v-.39h-1.18v-1.87h1.18v-.37h-1.53v-.42h1.53v-.32c-.44.02-.88.04-1.32.05l-.08-.45c.86,0,1.78-.1,2.76-.29l.24.45c.05.11,0,.12-.16.05-.37.05-.7.1-1,.13v.37h1.45v.42h-1.45v.37h1.21v1.87h-1.21v.39h1.32v.42h-1.32v.39l1.32-.21v.37c.51-.46.77-1.15.79-2.08l.03-1.03h-.63v-.5h.63v-1.34h.5c.14.02.15.07.03.16v1.18h1.16l-.05,3.47c-.02.63-.25.95-.68.95h-.71l-.08-.5h.61c.21,0,.32-.18.34-.55l.08-2.87h-.66l-.03,1.24c-.02,1.21-.55,2.15-1.6,2.81l-.32-.5h0ZM559.6,348.91v.45h.74v-.45h-.74ZM559.6,349.68v.47h.74v-.47h-.74ZM560.79,348.91v.45h.76v-.45h-.76ZM560.79,349.68v.47h.76v-.47h-.76Z"/>
  <path class="cls-1" d="M566.23,348.02h.42v-1.34h.5c.14.02.15.07.03.16v1.18h.74v.5h-.74v1.45l.68-.26.13.45-.82.34v2.26h-.53v-2.08l-.82.26c-.02.12-.06.15-.13.08l-.18-.58,1.13-.32v-1.6h-.45c-.04.33-.11.66-.21.97l-.5-.18c.21-.61.32-1.29.32-2.03l.53.08c.05.05.03.11-.05.16l-.05.5ZM571.36,347.97l-.03,3.24c0,.93-.26,1.39-.79,1.39h-.76l-.11-.58h.66c.32.04.47-.24.47-.82l.03-2.74h-.29c.02,1.54-.75,2.96-2.29,4.26l-.34-.47c1.3-.96,2.01-2.23,2.13-3.79h-.42c-.07,1.07-.61,2.02-1.6,2.84l-.37-.45c.88-.68,1.37-1.48,1.47-2.39h-.42c-.19.47-.44.88-.74,1.21l-.45-.32c.61-.75.99-1.62,1.13-2.6l.55.11c.07.07.04.11-.08.13-.05.3-.13.62-.24.97h2.47Z"/>
  <path class="cls-1" d="M573.76,348.07h.61v.5h-.61v.84c.33.23.61.46.82.68l-.29.53c-.19-.26-.37-.46-.53-.58v2.71h-.53v-2.63c-.19.56-.44,1.01-.74,1.34l-.29-.53c.56-.74.89-1.53,1-2.37h-.84v-.5h.87v-1.34h.5c.14.02.15.07.03.16v1.18ZM576.49,347.97v.39h1.26v2.26h-1.16c.58.53,1.17.89,1.79,1.1l-.21.58c-.72-.33-1.28-.75-1.68-1.24v1.63h-.53v-1.53c-.37.56-.89.97-1.55,1.24l-.21-.55c.74-.28,1.28-.69,1.63-1.24h-1.13v-2.26h1.26v-.39h-1.55v-.5h1.55v-.79h.5c.14.02.15.07.03.16v.63h1.58v.5h-1.58ZM575.23,349.31h.74v-.53h-.74v.53ZM575.23,350.2h.74v-.47h-.74v.47ZM576.49,349.31h.74v-.53h-.74v.53ZM576.49,350.2h.74v-.47h-.74v.47Z"/>
  <path class="cls-1" d="M318.06,384.32c.25-.72.39-1.54.45-2.47h3.39v-.92h-3.6v-.5h4.21v2.08h-.61v-.16h-2.84c0,.21-.04.52-.11.92h3.95l-.18,1.6c-.09.74-.46,1.1-1.1,1.1h-1.29l-.08-.58h1.21c.37,0,.58-.18.63-.55l.16-1.08h-3.34c-.04.16-.1.39-.18.68l-.66-.13Z"/>
  <path class="cls-1" d="M326.95,385.95c-.54,0-1.04-.22-1.5-.66-.37.35-.67.6-.89.74l-.29-.61.95-.53v-1.66h-.87v-.5h1.39v2.16c.33.37.79.55,1.37.55h3.18l-.11.5h-3.24ZM325.32,381.61c-.23-.33-.53-.67-.89-1.03l.42-.34c.4.35.72.68.95.97l-.47.39ZM328.37,381.29l-.29.5h1.45v3.29h-.45v-.18h-2.08v.29h-.45v-3.39h1.03l.18-.5h-1.79v-.42h1.16c-.11-.14-.27-.32-.5-.55l.42-.32c.19.16.38.35.55.58l-.39.29h1.05l.34-.89.58.11c.07.07.04.11-.08.13l-.39.66h1.42v.42h-1.76ZM329.08,382.21h-2.08v.47h2.08v-.47ZM329.08,383.11h-2.08v.45h2.08v-.45ZM329.08,383.98h-2.08v.5h2.08v-.5Z"/>
  <path class="cls-1" d="M332.34,383.98l.66-.24.13.34c.4-.26.7-.57.89-.92h-1.05v-.5h3.97v.5h-2.39c-.07.14-.14.25-.21.34h2.45l-.16,1.92c-.04.4-.21.61-.53.61h-.63l-.08-.5h.5c.12,0,.19-.06.21-.18l.13-1.34h-.29c-.32,1.19-1.2,1.91-2.66,2.16l-.16-.5c1.25-.23,2.01-.78,2.29-1.66h-.45c-.32.75-.9,1.21-1.76,1.37l-.16-.42c.7-.18,1.17-.49,1.39-.95h-.39c-.37.33-.66.55-.87.66l-.21-.39-1.66.66c-.02.12-.06.15-.13.08l-.21-.58.84-.24v-2h-.82v-.5h.82v-1.5h.5c.14.02.15.07.03.16v1.34h.79v.5h-.79v1.79ZM333.5,382.34v-2.13h2.76v2.13h-2.76ZM334.03,381.11h1.71v-.47h-1.71v.47ZM334.03,381.92h1.71v-.39h-1.71v.39Z"/>
  <path class="cls-1" d="M461.56,364.24c-.09.46-.21.89-.37,1.29.14.05.14.11,0,.18v4.26h-.53v-3.29c-.12.26-.28.49-.47.68l-.37-.47c.6-.81,1.01-1.81,1.24-3l.58.21c.09.07.06.11-.08.13h0ZM461.35,368.37c.86-.79,1.49-1.67,1.89-2.63h-1.66v-.5h1.79v-1.32h.5c.14.02.15.07.03.16v1.16h1.89v.5h-1.74c.28.84.91,1.72,1.89,2.63l-.37.53c-.75-.75-1.32-1.52-1.68-2.29v1.53h.76v.5h-.76v1.29h-.53v-1.29h-.68v-.5h.68v-1.53c-.42.93-.96,1.68-1.63,2.26l-.39-.5h0Z"/>
  <path class="cls-1" d="M469.86,364.56h2.6v.5h-3.16l-.53.71c.67-.03,1.3-.06,1.89-.08-.19-.11-.38-.21-.55-.32l.39-.26c.42.16.99.51,1.71,1.05l-.39.37c-.21-.16-.41-.32-.61-.47-1.46.09-2.75.18-3.87.26-.09.09-.14.1-.16.03l-.16-.55c.39,0,.77,0,1.16-.03l.5-.71h-2v-.5h2.55v-.66h.58c.18.04.18.11.03.21v.45ZM468.17,369.92h-.53v-3.34h3.95v2.87c0,.25-.12.37-.37.37h-.66l-.08-.5h.47c.07,0,.11-.03.11-.11v-.5h-2.89v1.21ZM468.17,367v.42h2.89v-.42h-2.89ZM471.07,368.29v-.45h-2.89v.45h2.89Z"/>
  <path class="cls-1" d="M473.83,366.14l-.29.32-.34-.45c.65-.6,1.1-1.28,1.34-2.05l.53.08c.07.05.04.11-.08.18.39.32.71.61.97.87l-.29.5c-.39-.44-.68-.75-.87-.92-.25.54-.49.95-.74,1.21h.53v-.66h.5c.12.02.13.07.03.16v.5h.68v2.1h-1.53v1.1l1.05-.24c-.07-.12-.18-.29-.32-.5l.45-.24c.28.37.54.8.79,1.29l-.53.29c-.09-.21-.17-.37-.24-.47l-1.76.55c-.02.09-.07.11-.16.05l-.21-.53.47-.11v-3.05ZM474.28,366.29v.39h1.08v-.39h-1.08ZM474.28,367.11v.45h1.08v-.45h-1.08ZM478.78,367.42h-.53v-.11h-1.18v.58h1.95v1.92h-.53v-.21h-1.42v.34h-.53v-4.05h-.53v-1.16h1.42v-.71h.5c.18,0,.18.05.03.16v.55h1.45v1.16h-.53v-.74h-2.34v.63h2.24v1.63ZM477.07,366.21v.68h1.18v-.68h-1.18ZM477.07,369.19h1.42v-.87h-1.42v.87Z"/>
  <path class="cls-1" d="M463.19,378.46c-.88.16-1.75.3-2.63.42-.02.14-.06.17-.13.08l-.16-.68.87-.05v-3.39c-.37.19-.72.35-1.05.47l-.21-.55c1.37-.42,2.25-1.04,2.66-1.87l.71.08c.07.07.04.11-.08.13v.08c.61.68,1.53,1.18,2.76,1.47l-.32.55c-.23-.03-.58-.16-1.05-.37v2.05l.34-.34.47.47c.02.09-.03.11-.13.08l-1.26.82c.33.23.94.39,1.82.47l-.24.55c-1.53-.14-2.5-.79-2.92-1.95h-.97v1.18l1.53-.18v.47ZM462.82,373.46c-.39.51-.91.95-1.58,1.32h1.37v-.68h.5c.14.02.15.07.03.16v.53h1.32c-.53-.25-1.07-.68-1.63-1.32h0ZM461.66,375.67h2.37v-.47h-2.37v.47ZM464.03,376.56v-.47h-2.37v.47h2.37ZM463.14,376.98c.07.19.23.41.47.66l.82-.66h-1.29Z"/>
  <path class="cls-1" d="M469.83,376.51v.58h2v.5h-2v.66h2.68v.5h-5.84v-.5h2.63v-.66h-1.97v-.5h1.97v-.58h-1.42v-1.47h3.39v1.47h-1.45ZM469.83,374.14h2.58v1.39h-.53v-.89h-4.6v.95h-.53v-1.45h2.55v-1.26h.5c.14.02.15.07.03.16v1.1ZM468.02,374.12c-.02-.09-.17-.33-.45-.74l.47-.29c.25.28.4.53.47.74l-.5.29ZM470.75,376.09v-.63h-2.34v.63h2.34ZM471.49,373.43c-.12.25-.26.47-.42.68l-.47-.21c.16-.26.3-.53.42-.82l.55.21c.07.07.04.11-.08.13h0Z"/>
  <path class="cls-1" d="M474.88,374.27h.61v.5h-.61v.84c.33.23.61.46.82.68l-.29.53c-.19-.26-.37-.46-.53-.58v2.71h-.53v-2.63c-.19.56-.44,1.01-.74,1.34l-.29-.53c.56-.74.89-1.53,1-2.37h-.84v-.5h.87v-1.34h.5c.14.02.15.07.03.16v1.18ZM477.62,374.17v.39h1.26v2.26h-1.16c.58.53,1.17.89,1.79,1.1l-.21.58c-.72-.33-1.28-.75-1.68-1.24v1.63h-.53v-1.53c-.37.56-.89.97-1.55,1.24l-.21-.55c.74-.28,1.28-.69,1.63-1.24h-1.13v-2.26h1.26v-.39h-1.55v-.5h1.55v-.79h.5c.14.02.15.07.03.16v.63h1.58v.5h-1.58ZM476.36,375.51h.74v-.53h-.74v.53ZM476.36,376.4h.74v-.47h-.74v.47ZM477.62,375.51h.74v-.53h-.74v.53ZM477.62,376.4h.74v-.47h-.74v.47Z"/>
  <path class="cls-1" d="M723.47,684.74h-2.63v-.58h5.39v.58h-2.16v.34c0,1.1-.39,2.02-1.18,2.74l-.53-.39c.74-.58,1.1-1.36,1.1-2.34v-.34ZM721.79,683.13v-.58h3.5v.58h-3.5Z"/>
  <path class="cls-1" d="M727.63,686.05h5.45v.58h-5.45v-.58ZM728.29,683.19h3.87v.58h-3.87v-.58Z"/>
  <path class="cls-1" d="M737.44,684.98c.75.58,1.5,1.25,2.24,2l-.53.45c-.74-.77-1.45-1.42-2.13-1.95-.68.74-1.46,1.39-2.34,1.97l-.5-.45c1.86-1.21,3.05-2.42,3.58-3.63l-2.87.18-.08-.63,3.05-.13.32-.08.42.42c.12.12.09.2-.11.24-.33.58-.68,1.11-1.05,1.6h0Z"/>
  <polygon class="cls-1" points="724.89 691.92 721.24 691.92 721.24 691.34 725.5 691.34 725.5 695.11 724.89 695.11 724.89 694.82 721.24 694.82 721.24 694.24 724.89 694.24 724.89 691.92"/>
  <rect class="cls-1" x="727.34" y="692.58" width="5.87" height=".58"/>
  <path class="cls-1" d="M736.81,692.16c.86.25,1.73.58,2.6,1l-.32.61c-.93-.47-1.69-.79-2.29-.95v2.74h-.61v-5.26h.53c.21.02.24.09.08.21v1.66h0Z"/>
  <path class="cls-1" d="M379.02,356.23c-.33,1.91-1.43,3.28-3.29,4.1l-.47-.5c1.72-.7,2.75-1.91,3.1-3.63h-2.1c-.4.67-.82,1.2-1.26,1.6l-.53-.34c.91-.82,1.5-1.79,1.76-2.89l.61.21c.11.05.09.11-.05.16-.07.23-.17.46-.29.68h1.89l.24-.13.47.47c.12.12.1.21-.08.26h0Z"/>
  <path class="cls-1" d="M382.55,359.86c1.7-.44,2.66-1.36,2.87-2.76h-4v-.58h4.03l.24-.08.47.29c.11.09.09.17-.05.24-.28,1.75-1.31,2.89-3.08,3.42l-.47-.53ZM385.52,355.6h-3.63v-.58h3.63v.58Z"/>
  <path class="cls-1" d="M388.34,355.91v-.58h3.97l.39-.08.29.26c-.07,2.32-1.3,3.81-3.68,4.47l-.47-.58c2.19-.49,3.34-1.66,3.45-3.5h-3.95ZM392.47,355.26c-.23-.25-.46-.46-.68-.66l.32-.32c.25.19.48.42.71.68l-.34.29ZM393.41,355.18c-.28-.32-.54-.58-.79-.79l.32-.26c.28.21.54.46.79.76l-.32.29Z"/>
  <path class="cls-1" d="M396.47,356.33c.14.09.12.17-.05.24-.32,1.1-.82,2.11-1.53,3.03l-.61-.39c.77-.93,1.29-1.98,1.55-3.16l.63.29h0ZM399.62,359.46c-.44-1.39-1.01-2.49-1.71-3.31l.55-.42c.88,1.1,1.5,2.27,1.87,3.5l-.71.24h0Z"/>
  <path class="cls-1" d="M406.57,356.12c0,1.91-.92,3.32-2.76,4.24l-.5-.5c1.7-.77,2.56-1.93,2.58-3.47h-3.66l.05,1.55h-.61l-.08-2.13h2.08v-1.32h.53c.21.02.24.09.08.21v1.1h1.97l.32.32Z"/>
  <path class="cls-1" d="M411.2,357.44c.75.58,1.5,1.25,2.24,2l-.53.45c-.74-.77-1.45-1.42-2.13-1.95-.68.74-1.46,1.39-2.34,1.97l-.5-.45c1.86-1.21,3.05-2.42,3.58-3.63l-2.87.18-.08-.63,3.05-.13.32-.08.42.42c.12.12.09.2-.11.24-.33.58-.68,1.11-1.05,1.6h0Z"/>
  <path class="cls-1" d="M550.83,447.62c-.37-.32-.67-.71-.89-1.18h-.42v-.42h2.95l.16-.16.47.24c.11.09.08.14-.08.16-.4.58-.82,1.04-1.24,1.39.75.33,1.57.54,2.45.61l-.16.61c-1.19-.21-2.1-.51-2.74-.89-.77.42-1.64.74-2.6.95l-.13-.55c1.02-.21,1.76-.46,2.24-.74h0ZM549.15,446.3h-.53v-1.32h3.6c.26-.42.5-.85.71-1.29l.58.32c.05.04,0,.08-.13.13-.19.28-.39.56-.61.84h1.37v1.32h-.53v-.82h-4.47v.82ZM553.36,443.51c-1.18.12-2.61.21-4.31.26l-.05-.47c2.03-.07,3.41-.18,4.13-.34l.42.5c.07.14,0,.16-.18.05h0ZM549.67,443.88c.25.21.43.45.55.71l-.53.32c-.14-.26-.32-.5-.55-.71l.53-.32ZM550.52,446.43c.16.33.42.64.79.92.35-.26.66-.57.92-.92h-1.71ZM551.28,444.85c-.14-.3-.32-.56-.53-.79l.53-.26c.21.18.39.43.55.76l-.55.29Z"/>
  <path class="cls-1" d="M557.49,444.78c-.28,1.67-1.01,2.88-2.18,3.63l-.29-.55c.96-.54,1.6-1.52,1.89-2.92h-1.53v-.5h1.53l.16-.21.45.32c.12.07.11.15-.03.24h0ZM560.78,448.41c-1.04-.7-1.83-1.72-2.39-3.05v3.03c0,.28-.14.42-.42.42h-.63l-.11-.5h.53c.07,0,.11-.03.11-.11v-5.29h.5c.14.02.15.07.03.16v.76c0,.39.15.84.45,1.37.4-.28.85-.72,1.34-1.32l.47.47c.09.14.03.19-.16.16-.42.39-.89.76-1.42,1.13.51.89,1.18,1.61,2.03,2.16l-.32.61h0Z"/>
  <path class="cls-1" d="M563.72,446.67c-.16-.23-.32-.39-.47-.5v2.66h-.53v-2.53c-.18.49-.39.9-.66,1.24l-.34-.55c.47-.56.81-1.32,1-2.29h-.84v-.5h.84v-1.32h.5c.14.02.15.07.03.16v1.16h.55v.5h-.55v.87c.28.14.53.35.74.63l-.26.47ZM566.51,444.28h1.05v1.89h-3.53v-1.89h1.05v-.42h-1.26v-.42h1.26v-.55h.42c.14.02.15.07.03.16v.39h.53v-.55h.42c.14.02.15.07.03.16v.39h1.26v.42h-1.26v.42ZM564.83,448.91h-.53v-2.37h3.03v2.32h-.53v-.13h-1.97v.18ZM565.09,445.06v-.47h-.61v.47h.61ZM565.09,445.85v-.47h-.61v.47h.61ZM566.8,447.43v-.58h-1.97v.58h1.97ZM566.8,448.41v-.66h-1.97v.66h1.97ZM566.06,444.28v-.42h-.53v.42h.53ZM566.06,445.06v-.47h-.53v.47h.53ZM566.06,445.85v-.47h-.53v.47h.53ZM566.51,445.06h.61v-.47h-.61v.47ZM567.12,445.85v-.47h-.61v.47h.61Z"/>
  <path class="cls-1" d="M620.16,498.88c-.05.49-.12.95-.2,1.37l-.38-.11c.08-.39.15-.83.2-1.34l.38.08ZM621.87,499.77l-.31.08c-.03-.33-.1-.68-.2-1.05l.31-.08c.1.33.17.67.2,1l.05-1.24h-2.04v-3.5h2.4v.42h-.89v.58h.71v.42h-.71v.58h.71v.42h-.71v.66h.97l-.1,2c-.02.42-.17.63-.46.63h-.54l-.05-.5h.41c.14,0,.21-.05.23-.16l.03-.26ZM620.31,495.4v.58h.64v-.58h-.64ZM620.31,496.4v.58h.64v-.58h-.64ZM620.31,497.4v.66h.64v-.66h-.64ZM620.62,498.85c.05.37.08.77.1,1.21l-.36.08c0-.46-.02-.86-.05-1.21l.31-.08ZM620.98,499.98c-.03-.32-.1-.68-.2-1.1l.31-.08c.14.42.22.79.26,1.1l-.36.08ZM623.71,496.51h-1.12v-.5h2.81v.5h-1.17v1.37h.99v.5h-.99v1.58h1.28v.5h-2.96v-.5h1.17v-1.58h-.92v-.5h.92v-1.37ZM623.71,494.69c.29.28.52.56.69.84l-.46.37c-.19-.3-.41-.59-.66-.87l.43-.34Z"/>
  <path class="cls-1" d="M621.87,512.11h-.84v.47h.94v.42h-.94v1.16h-.43v-1.16h-.97v-.42h.97v-.47h-.84v-2.32h.84v-.45h-.89v-.42h.89v-.82h.41c.14.02.14.07.03.16v.66h.89v.42h-.89v.45h.84v2.32ZM620.59,510.21h-.41v.58h.41v-.58ZM620.59,511.11h-.41v.58h.41v-.58ZM621.44,510.21h-.41v.58h.41v-.58ZM621.44,511.11h-.41v.58h.41v-.58ZM623.58,508.77c-.31.61-.78,1.13-1.43,1.55l-.2-.5c.7-.42,1.16-.99,1.4-1.71l.54.08c.07.07.04.11-.08.13l-.03.08c.42.58.98,1.02,1.66,1.32l-.2.55c-.73-.39-1.28-.89-1.66-1.5h0ZM624.73,512.48h-.38v1.5h-.43v-1.5h-.38v1.5h-.43v-1.5h-.38v1.66h-.43v-3.45h2.88v3.05c0,.26-.1.39-.31.39h-.28l-.08-.42h.13c.07,0,.1-.04.1-.11v-1.13ZM623.1,511.11h-.38v.95h.38v-.95ZM622.81,509.85h1.71v.42h-1.71v-.42ZM623.91,511.11h-.38v.95h.38v-.95ZM624.73,511.11h-.38v.95h.38v-.95Z"/>
  <path class="cls-1" d="M620.95,525.51l.64-.24.13.34c.39-.26.68-.57.87-.92h-1.02v-.5h3.85v.5h-2.32c-.07.14-.14.25-.2.34h2.37l-.15,1.92c-.03.4-.2.61-.51.61h-.61l-.08-.5h.48c.12,0,.19-.06.2-.18l.13-1.34h-.28c-.31,1.19-1.17,1.91-2.58,2.16l-.15-.5c1.21-.23,1.95-.78,2.22-1.66h-.43c-.31.75-.88,1.21-1.71,1.37l-.15-.42c.68-.18,1.13-.49,1.35-.95h-.38c-.36.33-.64.55-.84.66l-.2-.39-1.61.66c-.02.12-.06.15-.13.08l-.2-.58.82-.24v-2h-.79v-.5h.79v-1.5h.48c.14.02.14.07.03.16v1.34h.77v.5h-.77v1.79ZM622.07,523.88v-2.13h2.68v2.13h-2.68ZM622.58,522.65h1.66v-.47h-1.66v.47ZM622.58,523.46h1.66v-.39h-1.66v.39Z"/>
  <path class="cls-1" d="M345.35,538.74c-.33,1.91-1.43,3.28-3.29,4.1l-.47-.5c1.72-.7,2.75-1.91,3.1-3.63h-2.1c-.4.67-.82,1.2-1.26,1.6l-.53-.34c.91-.82,1.5-1.79,1.76-2.89l.61.21c.11.05.09.11-.05.16-.07.23-.17.46-.29.68h1.89l.24-.13.47.47c.12.12.1.21-.08.26h0ZM345.51,538.1c-.28-.4-.55-.71-.82-.92l.34-.29c.3.26.58.57.84.92l-.37.29h0ZM346.27,537.79c-.28-.35-.54-.63-.76-.84l.32-.32c.26.25.52.53.76.84l-.32.32h0Z"/>
  <path class="cls-1" d="M348.88,542.37c1.7-.44,2.66-1.36,2.87-2.76h-4v-.58h4.03l.24-.08.47.29c.11.09.09.17-.05.24-.28,1.75-1.31,2.89-3.08,3.42l-.47-.53ZM351.85,538.1h-3.63v-.58h3.63v.58Z"/>
  <path class="cls-1" d="M359.42,538.63c0,1.91-.92,3.32-2.76,4.24l-.5-.5c1.7-.77,2.56-1.93,2.58-3.47h-3.66l.05,1.55h-.61l-.08-2.13h2.08v-1.32h.53c.21.02.24.09.08.21v1.1h1.97l.32.32Z"/>
  <path class="cls-1" d="M366.53,539.29c-.93,1.93-2.49,2.95-4.68,3.05-.09.23-.18.25-.26.05l-.21-.68c2.28-.05,3.81-.99,4.6-2.81l.55.39ZM362.82,539.29c-.47-.44-.92-.8-1.34-1.08l.45-.55c.37.23.83.61,1.39,1.13l-.5.5h0Z"/>
  <path class="cls-1" d="M372.39,540.79c-.93-.47-1.69-.79-2.29-.95v2.74h-.61v-5.26h.53c.21.02.24.09.08.21v1.66c.86.25,1.73.58,2.6,1l-.32.61ZM372.34,538.47c-.3-.37-.6-.67-.89-.89l.34-.26c.3.23.6.53.89.89l-.34.26ZM372.97,537.97c-.23-.3-.52-.59-.87-.87l.34-.26c.3.21.59.5.87.87l-.34.26Z"/>
  <path class="cls-1" d="M379.63,343.88c-.33,1.91-1.43,3.28-3.29,4.1l-.47-.5c1.72-.7,2.75-1.91,3.1-3.63h-2.1c-.4.67-.82,1.2-1.26,1.6l-.53-.34c.91-.82,1.5-1.79,1.76-2.89l.61.21c.11.05.09.11-.05.16-.07.23-.17.46-.29.68h1.89l.24-.13.47.47c.12.12.1.21-.08.26h0Z"/>
  <path class="cls-1" d="M383.16,347.51c1.7-.44,2.66-1.36,2.87-2.76h-4v-.58h4.03l.24-.08.47.29c.11.09.09.17-.05.24-.28,1.75-1.31,2.89-3.08,3.42l-.47-.53ZM386.13,343.24h-3.63v-.58h3.63v.58Z"/>
  <path class="cls-1" d="M388.94,343.56v-.58h3.97l.39-.08.29.26c-.07,2.32-1.3,3.81-3.68,4.47l-.47-.58c2.19-.49,3.34-1.66,3.45-3.5h-3.95ZM393.07,342.9c-.23-.25-.46-.46-.68-.66l.32-.32c.25.19.48.42.71.68l-.34.29ZM394.02,342.82c-.28-.32-.54-.58-.79-.79l.32-.26c.28.21.54.46.79.76l-.32.29Z"/>
  <path class="cls-1" d="M397.07,343.98c.14.09.12.17-.05.24-.32,1.1-.82,2.11-1.53,3.03l-.61-.39c.77-.93,1.29-1.98,1.55-3.16l.63.29h0ZM400.23,347.11c-.44-1.39-1.01-2.49-1.71-3.31l.55-.42c.88,1.1,1.5,2.27,1.87,3.5l-.71.24h0Z"/>
  <path class="cls-1" d="M407.17,343.77c0,1.91-.92,3.32-2.76,4.24l-.5-.5c1.7-.77,2.56-1.93,2.58-3.47h-3.66l.05,1.55h-.61l-.08-2.13h2.08v-1.32h.53c.21.02.24.09.08.21v1.1h1.97l.32.32Z"/>
  <path class="cls-1" d="M411.8,345.09c.75.58,1.5,1.25,2.24,2l-.53.45c-.74-.77-1.45-1.42-2.13-1.95-.68.74-1.46,1.39-2.34,1.97l-.5-.45c1.86-1.21,3.05-2.42,3.58-3.63l-2.87.18-.08-.63,3.05-.13.32-.08.42.42c.12.12.09.2-.11.24-.33.58-.68,1.11-1.05,1.6h0Z"/>
  <path class="cls-1" d="M527.21,384.6c0,1.07-.72,1.69-2.16,1.87l-.13-.55c1.17-.11,1.76-.55,1.76-1.34v-.76h.5c.18.04.18.11.03.21v.58ZM525.6,384.26h-.61v-1.21h5.55v1.21h-.61v-.71h-4.34v.71ZM530.52,381.07v.5h-2.45v.55h1.95v.5h-4.5v-.5h1.95v-.55h-2.45v-.5h2.45v-.63h.58c.18.04.18.11.03.21v.42h2.45ZM528.76,385.68c0,.12.05.18.16.18h1.03c.16,0,.25-.21.26-.63l.53.18c-.04.63-.23.95-.58.95h-1.45c-.32,0-.47-.16-.47-.47v-2.08h.5c.18.04.18.11.03.21v1.66h0Z"/>
  <path class="cls-1" d="M531.63,386.02c.4-.53.61-1.13.61-1.82v-3h2.16v-.74h.58c.18.04.18.11.03.21v.53h2.34v.5h-4.58v2.53c0,.86-.23,1.6-.68,2.21l-.45-.42ZM535.05,382c.14.02.15.07.03.16v.55h2.1v.5h-2.1v.82h1.76v2.42h-.53v-.29h-2.45v.34h-.53v-2.47h1.21v-2.03h.5ZM536.31,385.65v-1.13h-2.45v1.13h2.45Z"/>
  <path class="cls-1" d="M664.28,619.12c.05,0,.08-.03.08-.08v-.39h-1.51v-.32h1.51v-.32h-2.01v-.32h2.01v-.3h-1.51v-.32h1.51v-.28h-1.28v-.85h1.28v-.26h-1.89v-.32h1.89v-.45h.36c.1.01.11.05.02.12v.34h1.84v.32h-1.84v.26h1.24v.85h-1.24v.28h1.47v.61h.52v.32h-.52v.75h-.38v-.12h-1.09v.53c0,.21-.1.32-.31.32h-.42l-.06-.37h.33ZM663.4,616.57h.96v-.37h-.96v.37ZM664.74,616.57h.92v-.37h-.92v.37ZM665.83,617.7v-.3h-1.09v.3h1.09ZM664.74,618.33h1.09v-.32h-1.09v.32Z"/>
  <path class="cls-1" d="M663.35,622.8c-.19.38-.42.73-.69,1.05l-.29-.32c.48-.5.8-1,.94-1.5h-.86v-.32h1.68l.06-.12.33.22c.05.05.03.09-.06.1l-.44.99-.27-.32.27-.55h-.34v2.21c0,.22-.1.34-.29.34h-.36l-.08-.37h.34s.06-.02.06-.06v-1.34ZM663.67,621.2l.21.16-.25.32c-.23-.2-.5-.4-.82-.61l.21-.24c.14.05.27.13.4.22l.44-.47h-1.26v-.32h1.42l.1-.1.31.24c.05.05.03.09-.06.1l-.69.71ZM664.09,624.14c.65-.11,1.01-.45,1.09-1.03h-.71v-.32h.73v-.51h.36c.1.01.11.05.02.12v.39h.94l-.06,1.16c-.01.33-.17.49-.46.49h-.38l-.08-.32h.33c.15,0,.24-.07.25-.22l.04-.81h-.59c-.05.75-.5,1.23-1.34,1.44l-.13-.41ZM665.81,621.65c.25.2.58.35.98.45l-.11.43c-.46-.17-.83-.37-1.11-.61-.29.28-.63.5-1.01.67l-.17-.37c.32-.12.62-.3.9-.53-.19-.2-.35-.38-.48-.55-.1.14-.22.28-.34.41l-.23-.3c.32-.34.56-.77.73-1.28l.36.14c.05.05.03.09-.06.1l-.13.3h1.57v.32h-.4c-.1.29-.26.57-.48.83h0ZM665.01,620.83c.15.28.33.49.54.63.17-.21.29-.42.38-.63h-.92Z"/>
  <path class="cls-1" d="M666.2,627.79c-.1-.09-.2-.17-.31-.24l-1.13.06v.55h1.51v.37h-1.51v.57h1.99v.37h-4.38v-.37h2.01v-.57h-1.49v-.37h1.49v-.53l-1.26.04c-.05.11-.1.11-.13.02l-.1-.41h.71l.42-.63h-.9v-.32h2.91v.32h-.71c.42.29.81.57,1.17.85l-.29.3ZM664.76,625.07c.13.03.13.08.02.16v.34h1.82v1.05h-.38v-.67h-3.29v.67h-.38v-1.05h1.8v-.49h.42ZM665.53,627.24c-.15-.12-.33-.24-.52-.35l.25-.24h-.78l-.46.63,1.51-.04h0Z"/>
  <path class="cls-1" d="M662.33,632.3c.48-.55.81-1.27.98-2.17l.46.14c.05.04.04.07-.04.1-.13.41-.26.78-.38,1.1l.04.04c.05.05.03.09-.06.1v3.02h-.38v-2.43c-.08.16-.19.32-.34.49l-.27-.39h0ZM663.75,631.16h1.49l.4-1.01.48.16c.05.05.03.09-.06.1l-.42.75h.88v.37h-.67v.83h.92v.37h-.92v1.91h-.38v-1.91h-.67v.35c0,.71-.35,1.24-1.05,1.58l-.23-.39c.6-.25.9-.65.9-1.2v-.34h-.9v-.37h.9v-.83h-.67v-.37ZM664.46,630.21c.15.12.31.32.48.61l-.38.28c-.14-.25-.29-.45-.44-.59l.34-.3ZM664.8,632.36h.67v-.83h-.67v.83Z"/>
  <path class="cls-1" d="M664.21,636.01v.37h-1.8v-.37h1.8ZM664.03,639.64h-.33v-.12h-.78v.2h-.33v-1.6h1.43v1.52ZM663.94,635.3v.37h-1.26v-.37h1.26ZM663.94,636.7v.37h-1.26v-.37h1.26ZM663.94,637.39v.37h-1.26v-.37h1.26ZM663.71,638.44h-.78v.77h.78v-.77ZM664.57,635.36h1.42v1.1c0,.11.04.16.13.16h.13c.1,0,.15-.12.15-.37l.38.1c-.01.43-.16.65-.44.65h-.4c-.23,0-.34-.11-.34-.34v-.93h-.65v.47c0,.49-.21.85-.63,1.08l-.21-.32c.31-.12.46-.39.46-.81v-.81ZM664.32,637.73v-.37h1.76l.06-.06.29.22c.06.07.05.09-.04.08-.19.47-.42.87-.69,1.18.18.14.55.3,1.11.47l-.11.41c-.56-.2-.98-.4-1.26-.61-.36.29-.73.51-1.11.65l-.19-.37c.38-.11.73-.28,1.03-.53-.19-.25-.37-.6-.54-1.06h-.31ZM665.43,638.55c.22-.26.38-.54.5-.83h-.94c.1.32.25.59.44.83h0Z"/>
  <path class="cls-1" d="M664.13,643.31c0,.8-.52,1.27-1.57,1.4l-.1-.41c.85-.08,1.28-.41,1.28-1.01v-.57h.36c.13.03.13.08.02.16v.43ZM662.96,643.05h-.44v-.91h4.03v.91h-.44v-.53h-3.16v.53ZM666.54,640.66v.37h-1.78v.41h1.42v.37h-3.27v-.37h1.42v-.41h-1.78v-.37h1.78v-.47h.42c.13.03.13.08.02.16v.32h1.78ZM665.26,644.12c0,.09.04.14.11.14h.75c.11,0,.18-.16.19-.47l.38.14c-.03.47-.17.71-.42.71h-1.05c-.23,0-.34-.12-.34-.35v-1.56h.36c.13.03.13.08.02.16v1.24h0Z"/>
  <path class="cls-1" d="M662.45,649.43c.29-.39.44-.85.44-1.36v-2.25h1.57v-.55h.42c.13.03.13.08.02.16v.39h1.7v.37h-3.33v1.89c0,.64-.17,1.2-.5,1.66l-.33-.32ZM664.93,646.41c.1.01.11.05.02.12v.41h1.53v.37h-1.53v.61h1.28v1.81h-.38v-.22h-1.78v.26h-.38v-1.85h.88v-1.52h.36ZM665.85,649.16v-.85h-1.78v.85h1.78Z"/>
  <path class="cls-1" d="M396.05,383.38c0,.93-.23,1.62-.68,2.08l-.37-.47c.35-.37.53-.82.53-1.37v-3.5h2.29v-.66h.58c.18.04.18.11.03.21v.45h2.37v.5h-4.74v2.76h0ZM398.84,383.86h-.61c0,.89-.66,1.45-1.97,1.66l-.16-.55c1.03-.12,1.57-.49,1.6-1.1h-1.05v-.5h1.08v-.45h-.26v-.26c-.35.28-.72.5-1.1.66l-.21-.45c.42-.16.79-.36,1.1-.61l-.68-.39.29-.39.79.42c.19-.18.34-.34.45-.5h-.95v-.42h1.16l.13-.13.42.16c.07.07.04.11-.08.13.09.14.22.29.39.45l.58-.63.37.32c.07.05.03.08-.11.08l-.58.5.34.26.61-.71.37.32c.07.05.03.08-.11.08l-.58.5c.21.18.54.32,1,.45l-.16.53c-.49-.16-.89-.38-1.21-.66v.32h-.34v.45h1.21v.5h-1.21v.84c0,.12.05.18.16.18h.71c.09,0,.14-.04.16-.13l.11-.39.5.13-.11.47c-.07.28-.23.42-.47.42h-1.1c-.32,0-.47-.16-.47-.47v-1.05ZM399.58,382.49c-.39-.26-.73-.61-1.03-1.03-.16.3-.46.64-.92,1.03h1.95ZM398.84,383.36v-.45h-.58v.45h.58Z"/>
  <path class="cls-1" d="M410.98,381.38c-.28,1.67-1.01,2.88-2.18,3.63l-.29-.55c.96-.54,1.6-1.52,1.89-2.92h-1.53v-.5h1.53l.16-.21.45.32c.12.07.11.15-.03.24h0ZM414.27,385.01c-1.04-.7-1.83-1.72-2.39-3.05v3.03c0,.28-.14.42-.42.42h-.63l-.11-.5h.53c.07,0,.11-.03.11-.11v-5.29h.5c.14.02.15.07.03.16v.76c0,.39.15.84.45,1.37.4-.28.85-.72,1.34-1.32l.47.47c.09.14.03.19-.16.16-.42.39-.89.76-1.42,1.13.51.89,1.18,1.61,2.03,2.16l-.32.61h0Z"/>
  <path class="cls-1" d="M391.68,389.7c.56-.77.93-1.92,1.1-3.45l.58.11c.07.07.04.11-.08.13l-.08.45h1.24v.5c-.05,1.1-.27,2.07-.66,2.89.37.67.94,1,1.71,1h2.21l-.11.58h-2.1c-.84,0-1.49-.36-1.95-1.08-.44.63-.85,1.09-1.24,1.37l-.34-.5c.47-.32.89-.79,1.26-1.42-.21-.46-.38-.94-.5-1.45-.21.51-.43.94-.66,1.29l-.39-.42ZM393.02,387.91c.09.74.24,1.35.45,1.84.26-.63.41-1.4.45-2.32h-.82l-.08.47h0ZM397.05,390.17c.09,0,.14-.25.16-.74l.5.13c0,.74-.17,1.1-.5,1.1h-.45c-.3,0-.45-.16-.45-.47v-2.95h-.87v2.08c0,.58-.21,1.13-.63,1.66l-.42-.45c.35-.3.53-.78.53-1.45v-2.34h1.92v3.31c0,.07.03.11.08.11h.13Z"/>
  <path class="cls-1" d="M400.7,390.62c-.68.25-1.32.45-1.92.61-.05.14-.11.17-.16.08l-.18-.61.92-.18v-1.45h-.71v-.5h.71v-1.39h-.79v-.5h2.1v.5h-.79v1.39h.71v.5h-.71v1.32c.14-.02.39-.09.76-.21l.05.45ZM402.78,389.38v.76h1.47v.5h-1.47v.82h1.74v.5h-4.18v-.5h2v-.82h-1.42v-.5h1.42v-.76h-.95v.34h-.45v-3.24h3.26v3.13h-.45v-.24h-.97ZM402.33,387.75v-.84h-.95v.84h.95ZM402.33,388.17h-.95v.79h.95v-.79ZM403.75,386.91h-.97v.84h.97v-.84ZM403.75,388.17h-.97v.79h.97v-.79Z"/>
  <path class="cls-1" d="M406.94,389.14h-.53c0,1.28-.28,2.3-.84,3.05l-.42-.34c.53-.63.79-1.57.79-2.81v-1.24h-.68v-.5h.87v-1.1h.5c.14.02.15.07.03.16v.95h1v.5h-1.26v.92h1l-.05,2.55c-.02.6-.22.89-.61.89h-.42l-.05-.5h.37c.14,0,.23-.13.26-.39l.05-2.13ZM408.83,386.3c.14.05.14.11,0,.16-.07.23-.14.43-.21.61h2.42v.5h-2.6c-.19.39-.46.75-.79,1.1l-.34-.39c.54-.54.89-1.25,1.05-2.1l.47.13ZM410.02,390.75l-.05-.42h.21c.07,0,.11-.03.11-.11v-1.16l-.71.24v1.79h-.45v-1.66l-.58.18v1.82c0,.12.06.18.18.18h1.68c.14,0,.23-.09.26-.26l.08-.39.53.13-.11.58c-.05.3-.26.45-.63.45h-1.97c-.32,0-.47-.16-.47-.47v-1.89l-.34.11-.13-.5.47-.13v-1h.42c.14.02.15.07.03.16v.71l.58-.18v-1.05h.42c.14.02.15.07.03.16v.76l.74-.24.08-.11.39.26-.05.11v1.55c0,.26-.1.39-.29.39h-.42Z"/>
  <path class="cls-1" d="M414.44,387.3v.5h-2.47v-.5h2.47ZM414.2,392.14h-.45v-.16h-1.08v.26h-.45v-2.13h1.97v2.03ZM414.07,386.35v.5h-1.74v-.5h1.74ZM414.07,388.22v.5h-1.74v-.5h1.74ZM414.07,389.14v.5h-1.74v-.5h1.74ZM413.75,390.54h-1.08v1.03h1.08v-1.03ZM414.94,386.43h1.95v1.47c0,.14.06.21.18.21h.18c.14,0,.21-.17.21-.5l.53.13c-.02.58-.22.87-.61.87h-.55c-.32,0-.47-.15-.47-.45v-1.24h-.89v.63c0,.65-.29,1.13-.87,1.45l-.29-.42c.42-.16.63-.52.63-1.08v-1.08ZM414.59,389.59v-.5h2.42l.08-.08.39.29c.09.09.07.12-.05.11-.26.63-.58,1.16-.95,1.58.25.19.75.4,1.53.63l-.16.55c-.77-.26-1.35-.53-1.74-.82-.49.39-1,.67-1.53.87l-.26-.5c.53-.14,1-.38,1.42-.71-.26-.33-.51-.81-.74-1.42h-.42ZM416.12,390.7c.3-.35.53-.72.68-1.1h-1.29c.14.42.34.79.61,1.1h0Z"/>
  <path class="cls-1" d="M463.5,592.93c-.1.44-.26.88-.46,1.32.17.04.19.11.05.21v3.89h-.51v-3.26c-.19.28-.37.52-.56.71l-.41-.47c.73-.72,1.21-1.64,1.43-2.76l.54.21c.07.07.04.12-.08.16h0ZM465.87,594.08v-1.5h.48c.14.02.14.07.03.16v1.34h1.05v.5h-1.05v3.26c0,.28-.14.42-.41.42h-.77l-.13-.5h.69c.07,0,.1-.03.1-.11v-3.08h-2.3v-.5h2.3ZM464.39,595.27c.29.37.55.78.79,1.24l-.51.34c-.24-.51-.49-.93-.77-1.26l.48-.32Z"/>
  <path class="cls-1" d="M462.63,603.11c0,.86-.24,1.53-.71,2.03l-.38-.45c.39-.4.59-.93.59-1.58v-3.81h4.9v1.24h-4.39v2.58h0ZM462.63,599.71v.39h3.88v-.39h-3.88ZM466.87,603.58h-.84c.22.25.42.51.59.79l-.38.24-.1-.21c-.73.09-1.45.18-2.17.26-.02.18-.07.18-.15,0l-.1-.5,1.07-.03v-.55h-1.45v1.6h-.43v-2.03h1.89v-.29h-1.51v-1.21h1.51v-.42c-.56.02-1.13.03-1.71.03l-.1-.37c1.79,0,3.02-.07,3.7-.21l.23.39c.05.12,0,.15-.18.08-.43.02-.9.04-1.43.05v.45h1.51v1.21h-1.51v.29h2.02v1.63c0,.25-.12.37-.36.37h-.56l-.08-.5h.46c.07,0,.1-.04.1-.11v-.97ZM463.7,602.08v.37h1.07v-.37h-1.07ZM465.28,602.08v.37h1.07v-.37h-1.07ZM465.82,603.58h-.54v.5l.61-.03-.26-.32.18-.16Z"/>
  <path class="cls-1" d="M465.11,605.79c.17.04.18.11.03.21v.5h2.17v.5h-4.13v2.39c0,1-.31,1.82-.92,2.47l-.38-.45c.54-.54.81-1.17.79-1.89l-.74.37c-.02.16-.06.19-.13.11l-.18-.61,1.05-.39v-2.5h1.89v-.71h.56ZM462.17,607.26c.19.39.31.77.36,1.16l-.51.13c-.07-.4-.18-.79-.33-1.16l.48-.13ZM464.11,610.53c.61-.39.92-.84.92-1.37h-.97v2.71h-.51v-3.21h1.48v-.58h-1.66v-.5h3.93v.5h-1.76v.58h1.58v2.71c0,.28-.14.42-.41.42h-.56l-.13-.5h.48c.07,0,.1-.03.1-.11v-.79l-.31.39c-.27-.32-.58-.61-.92-.87-.19.47-.51.84-.97,1.1l-.31-.5ZM465.51,609.45c.48.26.84.54,1.1.84v-1.13h-1.07l-.03.29h0Z"/>
  <path class="cls-1" d="M462.91,613.34h-.69v5.29h-.51v-5.71h1.3l.08-.16.51.39-.13.13-.56,1.68c.51.84.71,1.52.59,2.03-.07.32-.25.47-.54.47h-.41l-.08-.58h.28c.19,0,.27-.09.26-.26-.03-.68-.22-1.25-.56-1.68l.46-1.6ZM463.12,618.08c1.05-.16,1.54-.82,1.45-1.97h-.94v-.5h3.83v.5h-1.28v1.76c0,.09.05.13.15.13h.43c.05,0,.08-.03.1-.11l.1-.61.51.13-.1.66c-.05.28-.2.42-.43.42h-.82c-.31,0-.46-.15-.46-.45v-1.95h-.59c.1,1.46-.48,2.29-1.76,2.5l-.2-.53ZM463.6,613.42h1.56v-.82h.48c.14.02.14.07.03.16v.66h1.68v1.37h-.51v-.95h-2.73v.95h-.51v-1.37ZM466.66,615h-2.32v-.5h2.32v.5Z"/>
  <path class="cls-1" d="M463.12,620.71h.59v.5h-.59v.84c.32.23.59.46.79.68l-.28.53c-.19-.26-.36-.46-.51-.58v2.71h-.51v-2.63c-.19.56-.43,1.01-.71,1.34l-.28-.53c.54-.74.87-1.53.97-2.37h-.82v-.5h.84v-1.34h.48c.14.02.14.07.03.16v1.18ZM465.77,620.6v.39h1.22v2.26h-1.12c.56.53,1.14.89,1.73,1.1l-.2.58c-.7-.33-1.24-.75-1.63-1.24v1.63h-.51v-1.53c-.36.56-.86.97-1.51,1.24l-.2-.55c.71-.28,1.24-.69,1.58-1.24h-1.1v-2.26h1.22v-.39h-1.51v-.5h1.51v-.79h.48c.14.02.14.07.03.16v.63h1.53v.5h-1.53ZM464.54,621.94h.71v-.53h-.71v.53ZM464.54,622.84h.71v-.47h-.71v.47ZM465.77,621.94h.71v-.53h-.71v.53ZM465.77,622.84h.71v-.47h-.71v.47Z"/>
  <path class="cls-1" d="M498.77,703.21c.35-.47.6-.9.74-1.29l.55.24c.07.07.04.11-.08.13-.12.37-.35.78-.68,1.24l-.53-.32ZM503.53,701.42h-1.58v.37h-.53v-.37h-1.63v.24h-.53v-1.68h2.16v-.42h-1.89v-1.39h1.89v-.55h.5c.14.02.15.07.03.16v.39h1.87v1.39h-1.87v.42h2.1v1.6h-.53v-.16ZM501.43,701v-.61h-1.63v.61h1.63ZM501.43,698.58h-1.45v.55h1.45v-.55ZM500.82,703.61c-.32,0-.47-.15-.47-.45v-1.24h.5c.14.02.15.07.03.16v.82c0,.14.06.21.18.21h1.58c.09,0,.14-.05.16-.16l.05-.37.58.11-.13.58c-.05.23-.25.34-.58.34h-1.89ZM501.77,702.79c-.18-.23-.33-.43-.47-.61l.45-.29c.18.16.34.35.5.58l-.47.32ZM503.37,699.14v-.55h-1.42v.55h1.42ZM503.53,701v-.61h-1.58v.61h1.58ZM504.16,703.37c-.35-.51-.68-.89-.97-1.13l.37-.37c.37.23.73.59,1.08,1.08l-.47.42Z"/>
  <path class="cls-1" d="M510.45,700.56v3.05h-.53v-.26h-2.37v.34h-.53v-2.39c-.46.25-.95.44-1.47.58l-.18-.47c.49-.12,1.04-.34,1.66-.66v-.18h.37c.37-.21.68-.42.95-.63h-2.76v-.5h2.32v-.63h-1.63v-.5h1.63v-.63h.5c.14.02.15.07.03.16v.47h1.26v.45c.21-.23.42-.48.63-.76l.37.24c.12.09.11.14-.05.16-.33.4-.67.75-1,1.05h1.82v.5h-2.37c-.35.3-.63.51-.84.63h2.21ZM507.56,701.69h2.37v-.71h-2.37v.71ZM507.56,702.92h2.37v-.82h-2.37v.82ZM508.92,699.43c.21-.16.45-.37.71-.63h-1.21v.63h.5Z"/>
  <path class="cls-1" d="M512.74,701.87c-.05.49-.12.95-.21,1.37l-.39-.11c.09-.39.16-.83.21-1.34l.39.08ZM514.5,702.77l-.32.08c-.04-.33-.11-.68-.21-1.05l.32-.08c.11.33.18.67.21,1l.05-1.24h-2.1v-3.5h2.47v.42h-.92v.58h.74v.42h-.74v.58h.74v.42h-.74v.66h1l-.11,2c-.02.42-.18.63-.47.63h-.55l-.05-.5h.42c.14,0,.22-.05.24-.16l.03-.26ZM512.9,698.4v.58h.66v-.58h-.66ZM512.9,699.4v.58h.66v-.58h-.66ZM512.9,700.4v.66h.66v-.66h-.66ZM513.21,701.85c.05.37.09.77.11,1.21l-.37.08c0-.46-.02-.86-.05-1.21l.32-.08ZM513.58,702.98c-.04-.32-.11-.68-.21-1.1l.32-.08c.14.42.23.79.26,1.1l-.37.08ZM516.4,699.5h-1.16v-.5h2.89v.5h-1.21v1.37h1.03v.5h-1.03v1.58h1.32v.5h-3.05v-.5h1.21v-1.58h-.95v-.5h.95v-1.37ZM516.4,697.69c.3.28.53.56.71.84l-.47.37c-.19-.3-.42-.59-.68-.87l.45-.34Z"/>
  <path class="cls-1" d="M519.24,698.74v-.5h2.42v-.58h.5c.14.02.15.07.03.16v.42h2.37v.5h-2.37v.53h1.84v2.39h-.53v-.13h-1.32v.53h2.74v.5h-2.74v1.1h-.53v-1.1h-2.74v-.5h2.74v-.53h-1.32v.16h-.53v-2.42h1.84v-.53h-2.42ZM520.34,700.19h1.32v-.5h-1.32v.5ZM520.34,701.11h1.32v-.5h-1.32v.5ZM522.18,700.19h1.32v-.5h-1.32v.5ZM522.18,701.11h1.32v-.5h-1.32v.5Z"/>
  <path class="cls-1" d="M527.02,701.58l.66-.24.13.34c.4-.26.7-.57.89-.92h-1.05v-.5h3.97v.5h-2.39c-.07.14-.14.25-.21.34h2.45l-.16,1.92c-.04.4-.21.61-.53.61h-.63l-.08-.5h.5c.12,0,.19-.06.21-.18l.13-1.34h-.29c-.32,1.19-1.2,1.91-2.66,2.16l-.16-.5c1.25-.23,2.01-.78,2.29-1.66h-.45c-.32.75-.9,1.21-1.76,1.37l-.16-.42c.7-.18,1.17-.49,1.39-.95h-.39c-.37.33-.66.55-.87.66l-.21-.39-1.66.66c-.02.12-.06.15-.13.08l-.21-.58.84-.24v-2h-.82v-.5h.82v-1.5h.5c.14.02.15.07.03.16v1.34h.79v.5h-.79v1.79ZM528.18,699.95v-2.13h2.76v2.13h-2.76ZM528.71,698.72h1.71v-.47h-1.71v.47ZM528.71,699.53h1.71v-.39h-1.71v.39Z"/>
  <path class="cls-1" d="M648.22,485.49c.34-.47.58-.9.71-1.29l.54.24c.07.07.04.11-.08.13-.12.37-.34.78-.66,1.24l-.51-.32ZM652.84,483.7h-1.53v.37h-.51v-.37h-1.58v.24h-.51v-1.68h2.09v-.42h-1.84v-1.39h1.84v-.55h.48c.14.02.14.07.03.16v.39h1.81v1.39h-1.81v.42h2.04v1.6h-.51v-.16ZM650.8,483.28v-.61h-1.58v.61h1.58ZM650.8,480.86h-1.4v.55h1.4v-.55ZM650.21,485.88c-.31,0-.46-.15-.46-.45v-1.24h.48c.14.02.14.07.03.16v.82c0,.14.06.21.18.21h1.53c.08,0,.14-.05.15-.16l.05-.37.56.11-.13.58c-.05.23-.24.34-.56.34h-1.84ZM651.13,485.07c-.17-.23-.32-.43-.46-.61l.43-.29c.17.16.33.35.48.58l-.46.32ZM652.68,481.41v-.55h-1.38v.55h1.38ZM652.84,483.28v-.61h-1.53v.61h1.53ZM653.45,485.65c-.34-.51-.65-.89-.94-1.13l.36-.37c.36.23.71.59,1.05,1.08l-.46.42Z"/>
  <path class="cls-1" d="M653.02,489.57v3.05h-.51v-.26h-2.3v.34h-.51v-2.39c-.44.25-.92.44-1.43.58l-.18-.47c.48-.12,1.01-.34,1.61-.66v-.18h.36c.36-.21.66-.42.92-.63h-2.68v-.5h2.24v-.63h-1.58v-.5h1.58v-.63h.48c.14.02.14.07.03.16v.47h1.22v.45c.2-.23.41-.48.61-.76l.36.24c.12.09.1.14-.05.16-.32.4-.65.75-.97,1.05h1.76v.5h-2.3c-.34.3-.61.51-.82.63h2.14ZM650.21,490.7h2.3v-.71h-2.3v.71ZM650.21,491.93h2.3v-.82h-2.3v.82ZM651.54,488.44c.2-.16.43-.37.69-.63h-1.17v.63h.48Z"/>
  <path class="cls-1" d="M648.7,497.62c-.05.49-.12.95-.2,1.37l-.38-.11c.08-.39.15-.83.2-1.34l.38.08ZM650.41,498.51l-.31.08c-.03-.33-.1-.68-.2-1.05l.31-.08c.1.33.17.67.2,1l.05-1.24h-2.04v-3.5h2.4v.42h-.89v.58h.71v.42h-.71v.58h.71v.42h-.71v.66h.97l-.1,2c-.02.42-.17.63-.46.63h-.54l-.05-.5h.41c.14,0,.21-.05.23-.16l.03-.26ZM648.86,494.14v.58h.64v-.58h-.64ZM648.86,495.14v.58h.64v-.58h-.64ZM648.86,496.14v.66h.64v-.66h-.64ZM649.16,497.59c.05.37.08.77.1,1.21l-.36.08c0-.46-.02-.86-.05-1.21l.31-.08ZM649.52,498.72c-.03-.32-.1-.68-.2-1.1l.31-.08c.14.42.22.79.26,1.1l-.36.08ZM652.25,495.25h-1.12v-.5h2.81v.5h-1.17v1.37h.99v.5h-.99v1.58h1.28v.5h-2.96v-.5h1.17v-1.58h-.92v-.5h.92v-1.37ZM652.25,493.43c.29.28.52.56.69.84l-.46.37c-.19-.3-.41-.59-.66-.87l.43-.34Z"/>
  <path class="cls-1" d="M648.47,501.22v-.5h2.35v-.58h.48c.14.02.14.07.03.16v.42h2.3v.5h-2.3v.53h1.79v2.39h-.51v-.13h-1.28v.53h2.65v.5h-2.65v1.1h-.51v-1.1h-2.65v-.5h2.65v-.53h-1.28v.16h-.51v-2.42h1.79v-.53h-2.35ZM649.55,502.67h1.28v-.5h-1.28v.5ZM649.55,503.59h1.28v-.5h-1.28v.5ZM651.33,502.67h1.28v-.5h-1.28v.5ZM651.33,503.59h1.28v-.5h-1.28v.5Z"/>
  <path class="cls-1" d="M649.5,510.8l.64-.24.13.34c.39-.26.68-.57.87-.92h-1.02v-.5h3.85v.5h-2.32c-.07.14-.14.25-.2.34h2.37l-.15,1.92c-.03.4-.2.61-.51.61h-.61l-.08-.5h.48c.12,0,.19-.06.2-.18l.13-1.34h-.28c-.31,1.19-1.17,1.91-2.58,2.16l-.15-.5c1.21-.23,1.95-.78,2.22-1.66h-.43c-.31.75-.88,1.21-1.71,1.37l-.15-.42c.68-.18,1.13-.49,1.35-.95h-.38c-.36.33-.64.55-.84.66l-.2-.39-1.61.66c-.02.12-.06.15-.13.08l-.2-.58.82-.24v-2h-.79v-.5h.79v-1.5h.48c.14.02.14.07.03.16v1.34h.77v.5h-.77v1.79ZM650.62,509.17v-2.13h2.68v2.13h-2.68ZM651.13,507.93h1.66v-.47h-1.66v.47ZM651.13,508.75h1.66v-.39h-1.66v.39Z"/>
  <path class="cls-1" d="M464.67,470.27l.24-2.39h3.03v.58h-2.47l-.16,1.34c.32-.32.73-.47,1.24-.47s.89.15,1.18.45c.28.28.42.63.42,1.05,0,.46-.15.83-.45,1.13-.33.33-.79.5-1.37.5-.51,0-.91-.15-1.21-.45-.26-.26-.45-.6-.55-1h.68c.07.26.18.47.34.63.16.16.4.24.74.24.39,0,.67-.1.87-.29.21-.21.32-.46.32-.76s-.09-.53-.26-.71c-.19-.19-.46-.29-.79-.29-.49,0-.85.15-1.08.45h-.71Z"/>
  <path class="cls-1" d="M473.09,467.79c.53,0,.95.16,1.26.47.42.42.63,1.04.63,1.87s-.21,1.39-.63,1.82c-.32.32-.74.47-1.26.47s-.95-.16-1.26-.47c-.42-.42-.63-1.03-.63-1.82s.21-1.45.63-1.87c.32-.32.74-.47,1.26-.47h0ZM473.09,468.29c-.33,0-.6.1-.79.29-.3.3-.45.82-.45,1.55s.15,1.2.45,1.5c.19.19.46.29.79.29s.6-.1.79-.29c.3-.3.45-.81.45-1.53s-.15-1.23-.45-1.53c-.19-.19-.46-.29-.79-.29h0Z"/>
  <path class="cls-1" d="M477.41,467.27h4.92v5.26c0,.32-.16.47-.47.47h-.63l-.08-.5h.58c.05,0,.08-.03.08-.08v-4.66h-3.87v2.97c0,.93-.25,1.7-.74,2.32l-.45-.42c.44-.44.66-1.14.66-2.1v-3.26ZM478.3,469.03v-.5h1.29v-.61h.5c.14.02.15.07.03.16v.45h1.34v.5h-1.34v.55h1.42v.5h-3.29v-.5h1.34v-.55h-1.29ZM478.67,472.61v-2.08h2.42v1.79h-1.89v.29h-.53ZM479.2,471.82h1.37v-.79h-1.37v.79Z"/>
  <path class="cls-1" d="M485.26,468.34c-.33.58-.75,1.06-1.24,1.45l-.37-.47c.72-.53,1.21-1.29,1.47-2.29l.61.16c.07.07.04.11-.08.13l-.21.53h3.71v.5h-1.92v.89h1.58v.5h-1.58v1.18h2.21v.5h-2.21v1.58h-.53v-1.58h-3.03v-.5h1.18v-1.68h1.84v-.89h-1.45ZM485.39,470.92h1.32v-1.18h-1.32v1.18Z"/>
  <path class="cls-1" d="M490.29,468.13h2.87v.5h-2.87v-.5ZM490.65,470.82h2.13v2.13h-.53v-.29h-1.08v.34h-.53v-2.18ZM492.63,467.27v.5h-1.87v-.5h1.87ZM492.63,469.03v.5h-1.87v-.5h1.87ZM492.63,469.92v.5h-1.87v-.5h1.87ZM491.18,471.24v1h1.08v-1h-1.08ZM496.28,471.61l-.11.58c-.07.39-.27.58-.61.58h-1.71c-.32,0-.47-.15-.47-.45v-2.89h1.95v-1.47h-2.08v-.5h2.6v2.87h-.53v-.39h-1.42v2.13c0,.14.06.21.18.21h1.29c.11,0,.17-.06.18-.18l.11-.66.61.18Z"/>
  <path class="cls-1" d="M496.97,468.92c1.35-.51,2.24-1.17,2.66-1.97l.63.11c.05.07.03.11-.05.13.58.7,1.49,1.21,2.74,1.53l-.16.58c-.53-.14-1.02-.34-1.47-.61v.37h-2.63v-.37c-.4.3-.89.55-1.45.76l-.26-.53ZM497.26,472.61c.28-.54.47-1.07.58-1.58l.55.18c.14.05.13.11-.03.18-.14.56-.33,1.05-.58,1.47l-.53-.26ZM498.02,469.55h3.34l.08-.13.45.26c.07.07.04.11-.08.13l-.82,1.34-.47-.29.53-.82h-3.03v-.5ZM499.26,471.03c.14.02.15.07.03.16v1.1c0,.11.04.16.13.16h1.39c.14,0,.22-.07.24-.21l.05-.47.58.16-.08.5c-.05.35-.25.53-.61.53h-1.76c-.32,0-.47-.15-.47-.45v-1.47h.5ZM501.07,468.56c-.47-.26-.88-.61-1.21-1.03-.26.4-.6.75-1,1.03h2.21ZM499.78,470.4c.25.23.49.54.74.95l-.5.34c-.21-.39-.44-.7-.68-.95l.45-.34ZM501.84,471.05c.4.33.75.76,1.05,1.29l-.5.34c-.3-.56-.62-.99-.97-1.29l.42-.34Z"/>
  <path class="cls-1" d="M505.26,468.37h.61v.5h-.61v.84c.33.23.61.46.82.68l-.29.53c-.19-.26-.37-.46-.53-.58v2.71h-.53v-2.63c-.19.56-.44,1.01-.74,1.34l-.29-.53c.56-.74.89-1.53,1-2.37h-.84v-.5h.87v-1.34h.5c.14.02.15.07.03.16v1.18ZM507.99,468.27v.39h1.26v2.26h-1.16c.58.53,1.17.89,1.79,1.1l-.21.58c-.72-.33-1.28-.75-1.68-1.24v1.63h-.53v-1.53c-.37.56-.89.97-1.55,1.24l-.21-.55c.74-.28,1.28-.69,1.63-1.24h-1.13v-2.26h1.26v-.39h-1.55v-.5h1.55v-.79h.5c.14.02.15.07.03.16v.63h1.58v.5h-1.58ZM506.73,469.61h.74v-.53h-.74v.53ZM506.73,470.5h.74v-.47h-.74v.47ZM507.99,469.61h.74v-.53h-.74v.53ZM507.99,470.5h.74v-.47h-.74v.47Z"/>
  <path class="cls-1" d="M259.63,206.77c-.74.42-1.61.9-2.6,1.42l-.79-1.66c3.58-1.53,6.21-3.92,7.89-7.18l1.74.24c.42.16.39.29-.08.39l-.16.24c2.37,2.89,5.18,4.84,8.44,5.84l-.79,1.74c-.63-.21-1.53-.66-2.68-1.34v1.34h-4.66v2.68h5.13v1.5h-5.13v3.08h7.26v1.5h-16.1v-1.5h7.26v-3.08h-5.13v-1.5h5.13v-2.68h-4.74v-1.03ZM264.84,201.56c-1.53,2.16-3.03,3.74-4.5,4.74h9.94c-1.74-.95-3.55-2.53-5.45-4.74h0Z"/>
  <path class="cls-1" d="M301.53,200.46c-.26,1.37-.63,2.66-1.1,3.87.42.16.42.34,0,.55v12.79h-1.58v-9.87c-.37.79-.84,1.47-1.42,2.05l-1.1-1.42c1.79-2.42,3.03-5.42,3.71-9l1.74.63c.26.21.18.34-.24.39h0ZM300.89,212.85c2.58-2.37,4.47-5,5.68-7.89h-4.97v-1.5h5.37v-3.95h1.5c.42.05.45.21.08.47v3.47h5.68v1.5h-5.21c.84,2.53,2.74,5.16,5.68,7.89l-1.1,1.58c-2.26-2.26-3.95-4.55-5.05-6.87v4.58h2.29v1.5h-2.29v3.87h-1.58v-3.87h-2.05v-1.5h2.05v-4.58c-1.26,2.79-2.89,5.05-4.89,6.79l-1.18-1.5h0Z"/>
  <path class="cls-1" d="M345.88,217.03h-1.34v-1.03h-5.6v1.03h-1.34v-12.55h2.45v-2.29h-3.16v-1.5h9.39v1.5h-2.92v2.29h2.53v12.55ZM341.15,205.75v1.82c0,1.1-.42,2.13-1.26,3.08l-.87-1.03c.68-.58,1.03-1.31,1.03-2.21v-1.66h-1.1v5.84h5.6v-1.74h-1.1c-.79,0-1.18-.42-1.18-1.26v-2.84h-1.1ZM338.94,214.74h5.6v-1.89h-5.6v1.89ZM341.15,204.48h1.1v-2.29h-1.1v2.29ZM343.36,205.75v2.68c0,.32.16.47.47.47h.71v-3.16h-1.18ZM355.27,213.09l-.32,2.13c-.16,1-.74,1.5-1.74,1.5h-4.58c-.95,0-1.42-.47-1.42-1.42v-8.29h5.29v-4.66h-5.45v-1.5h7.02v8.37h-1.58v-.71h-3.71v6.16c0,.37.16.55.47.55h3.16c.58,0,.89-.24.95-.71l.24-1.82,1.66.39Z"/>
  <path class="cls-1" d="M379.02,203.69v-3.55h14.52v3.55h-6.24v1.1h7.81v1.26h-7.81v1.1h4.89v7.58h-9.87v-7.58h3.39v-1.1h-8.52v-1.26h8.52v-1.1h-6.71ZM380.44,215.69h14.84v1.26h-14.84v.63h-1.58v-9.94h1.5c.42.05.45.21.08.47v7.58ZM383.52,202.75v-1.66h-2.92v1.66h2.92ZM390.86,209.3v-1.18h-7.18v1.18h7.18ZM390.86,211.51v-1.26h-7.18v1.26h7.18ZM390.86,213.8v-1.34h-7.18v1.34h7.18ZM387.7,202.75v-1.66h-2.84v1.66h2.84ZM389.04,202.75h2.92v-1.66h-2.92v1.66Z"/>
  <path class="cls-1" d="M433.24,217.19v-.79h-12.94v.95h-1.58v-16.97h16.1v16.81h-1.58ZM433.24,201.88h-12.94v13.02h12.94v-13.02ZM428.34,209.93c1.37.68,2.66,1.5,3.87,2.45l-1.26,1.5c-1.16-1-2.42-1.84-3.79-2.53-1.21,1.21-2.92,2.24-5.13,3.08l-1.03-1.42c2.1-.84,3.66-1.68,4.66-2.53-1.21-.63-2.58-1.26-4.1-1.89l1.03-1.26c1.26.47,2.68,1.08,4.26,1.82,1.21-1.42,2.29-3.5,3.24-6.24l1.74.71c.42.11.34.29-.24.55-1,2.53-2.08,4.45-3.24,5.76h0ZM423.37,203.46c.68.79,1.26,1.71,1.74,2.76l-1.42.87c-.42-1.05-.97-2-1.66-2.84l1.34-.79ZM426.84,206.22c-.42-1.05-.97-2-1.66-2.84l1.34-.79c.84.95,1.42,1.87,1.74,2.76l-1.42.87Z"/>
</svg>