<?xml version="1.0" encoding="UTF-8"?>
<svg id="_レイヤー_1" xmlns="http://www.w3.org/2000/svg" version="1.1" viewBox="0 0 388.3 177.4">
  <!-- Generator: Adobe Illustrator 29.1.0, SVG Export Plug-In . SVG Version: 2.1.0 Build 142)  -->
  <defs>
    <style>
      .st0 {
        fill: #000d2b;
      }
    </style>
  </defs>
  <path class="st0" d="M309.1,69.4V17.1h40.8l4.4.4,3.9,1.2,3.5,2,3.1,2.5,2.6,3,1.9,3.6,1.2,3.8.4,4.1v31.6h-61.8ZM292.1,69.4h-62.1V17.1h62.1v52.3ZM213.1,69.4h-62.2V17.1h62.2v52.3ZM134.1,69.4h-62.2V17.1h62.2v52.3ZM55,116.6H17.2v-31.5L31.8,17.1h23.2v99.6ZM350,0H23.4l-2.2.4-1.9.6-1.6,1.4-1.1,1.5-.8,1.9L0,83.2v61.3h50.8v2.3l.4,5,1.1,4.7,1.9,4.4,2.4,3.8,3.2,3.6,3.5,3,4.1,2.5,4.5,2,4.7,1.1,5.1.4,5.1-.4,4.8-1.1,4.3-2,4.1-2.5,3.6-3,3.1-3.6,2.5-3.8,1.9-4.4,1.1-4.7.4-5v-2.3h139.2v2.2l.4,5,1.1,4.7,1.9,4.3,2.6,4,3.1,3.6,3.5,3.1,4,2.4,4.5,1.9,4.7,1.2,5.1.4,5-.4,4.8-1.2,4.4-1.9,4.1-2.4,3.6-3.1,3.1-3.6,2.5-4,2-4.3,1.1-4.7.4-5v-2.2h74.8V37.8l-.4-5.5-1.3-5.4-1.8-5-2.7-4.7-3.2-4.1-3.8-3.7-4.3-3.3-4.5-2.5-5.2-1.9-5.3-1.2-5.7-.4h0Z"/>
</svg>