<?xml version="1.0" encoding="UTF-8"?>
<svg id="_レイヤー_1" data-name="レイヤー 1" xmlns="http://www.w3.org/2000/svg" viewBox="0 0 863.94 230.67">
  <defs>
    <style>
      .cls-1 {
        fill: #000d2b;
      }
    </style>
  </defs>
  <path class="cls-1" d="M772.82,211.06h63.44c1.76,6.31,1.77,13.24,0,19.61h-308.54c-.96,0-8.37-2.26-9.81-2.88-19.24-8.29-11.49-31.47,4.03-38.65-.3,6.5-3.39,13.14,2.47,18.31.83.73,6.13,3.61,6.77,3.61h64.01v-11.53c-10.01-1.48-25.96,1.99-35.18,0-11.34-2.46-14.09-32.43-17.88-41.51,9.59,3.88,19.32,8.6,29.98,8.05-3.59-12.84-6.17-40.85,15.03-35.21,5.81,1.55,7.84,8.55,8.8,8.75,2.94.63,8.24-4.69,13.75-4.75,3.63-.05,4.8,2.23,7.64,2.15,1.08-.03,8.54-1.86,8.82-2.27,1.11-1.7.32-10.9,4.78-13.09.24-3.04-.51-1.13-2.01-.86-6.71,1.22-8.95,5.21-15.87,5.02-5.68-.15-5.2-3.76-5.76-3.56-.63.23-1.84,1.97-3.24,2.52-6.23,2.47-16.48,3.74-22.43.05-.88-.55-1.4-1.28-1.86-1.97-18.15,7.21-38.4,14.19-60.64,20.29-37.66,10.32-71.97,15.63-101.02,18.25-1.01,3.04-2.23,7.86-2.06,13.84.12,4.06.16,6.1,1.35,7.98,2.8,4.46,9.12,5.16,14.49,8.97,7.06,5.01,5.91,9.24,9.21,15.79,1.82,3.62,11.31,17.95,9.72,20.51-.15.25-4.64,1.98-5.44,2.09-12.85,1.7-14.5-18.29-21.18-23.98-8.2-6.98-27.5-.96-38.89-12.33-1.35-1.35-3.66-6.17-4.95-6.49-.98-.24-10.22,2.58-12.92,2.83-5.8.52-15.16.47-21.02.05-9.92-.7-25.37-6.34-33.89-5.97-4.06.18-8.47,3.96-11.58,6.41-12.42,9.78-26.49,29.96-38.06,36.94-7.02,4.24-16.62,3.11-15.44-6.4l42.01-51.03-99.44,2.06c-4.91,14.92,12.16,14.54,18.94,22.45,3.16,3.69,4.89,11.43,7.49,16.51,3.08,6.03,14.59,16.82,2.77,18.76-13.18,2.17-14.72-18.61-22.31-24.22-9.44-6.98-26.55-.14-37.98-12.02-1.53-1.59-3.78-6.24-4.1-6.46-.56-.39-10.85,2.68-13.38,2.9-5.84.52-15.13.46-21.03.06-9.74-.66-25.9-6.32-33.89-5.97-4.75.21-11.9,6.31-15.59,9.41-11.05,9.3-22.88,26.02-33.65,33.35-7.02,4.78-17.53,4.33-15.82-5.82,11.3-11.55,20.34-24.99,30.51-37.49,8.78-10.79,17.42-12.79,11.73-28.79-4.66-13.1-13.06-26.25-19.29-38.71-10.26-5.01-22.26-1.16-32.17-7.83-5.01-3.37-3.52-6.19-5.85-9.15-1.57-1.99-4.94-1.56-6.04-5.01-2.09-6.57,5.72-10.01,9.97-6.11,1.11,1.02.13,2.84,1.19,3.14,3.03.84,11.85-.57,14.8-2.2,3.53-1.96,5.21-6.45,8.28-8.72,8.82-6.51,13.33-1.04,20.56-14.44,7.39-13.69-.02-20.34-10.89-27.52-2.57-1.7-6-2.33-8.23-3.77-2.69-1.73-19.06-16.09-19.61-18.31-.15-.61.43-2.99.56-3.08,2.97-2.09,12.72,8.86,15.49,10.95,1.92,1.45,4,2.64,5.98,4,4-4.54-4.91-8.89-5.52-13.48-.34-2.53,2.56-1.7,3.99-.98,8.69,4.41,7.25,21.92,18.48,24.51,7.6-13.2-7.83-22.3-11.04-31.99-1.31-3.95,1.55-5.32,4.59-2.55,2.38,2.17,11.46,17.21,12.49,17.54.57.18,2.38.34,2.51-.57.69-4.91-2.25-8.63-3.98-12.96,4.19-4.53,7.08,3.09,8.25,6.73,1.48,4.62,1.1,8.81,2.18,12.82.53,1.96,5.3,10.54,7.61,7.36s3.07-17.82,3.94-18.39,2.62.09,3.49.98c4.09,4.18-2.65,20.08-3.05,25.97-.17,2.53.77,4.89.62,7.55-.65,11.15-7.61,15.6-15.07,22.48,7.06-2.15,13.63-2.31,21-1.98-.77,9.82-7.2,14.83-16.02,17.53,9.52,21.22,15.53,44.25,42.54,46.45,11.17.91,48.96-.44,57.85-6.11,5.63-3.59,8.89-16.88,8.62-23.37.36-3.57,6.01,6.35,6.49,7.51,2.41,5.76,3.12,10.77.73,16.71-.86,2.13-4.17,5.4-4.06,6.6.12,1.37,3.71,7.21,4.62,9.41.86,2.05.89,6.48,2.85,7.15l96.37.12c.41-.37-3.53-9.03-4.14-10.35-1.81-3.96-12.29-25.03-14.32-26.68-7.09-5.75-28.33.41-35.99-12-1.28-2.07-1.4-5.44-1.71-5.79-.87-.99-5.42.44-6.39-5.17-.82-4.72,5.24-8.83,9.56-5.49,3.84,2.96.1,4,8.37,3.34,13.51-1.07,9.9-6.41,18.29-11.7,4.05-2.56,9.1-2.35,11.9-4.1,1.44-.9,8.81-11.87,9.21-13.79,2.56-12.49-3.86-17.1-13.29-23.25-6.55-4.27-10.94-5.56-17.5-11.5-2.07-1.88-12.39-11.1-9.98-13.51,3.12-3.12,17.73,13.88,21.51,14.98,2.47.72,1.49-2.69,1.02-4.03-1.18-3.32-6.13-7.08-6.56-9.45-.3-1.66.05-1.62,1.53-1.54,8.75.42,9.55,12.6,13.03,17.99,1.45,2.24,8.43,10.29,9.45,4.54,2.89-16.24-10.58-19.5-11.99-33.49,3.3-3.31,9.89,9.78,11.58,11.92.66.83,8.04,10.16,8.43,6.57.4-5.34-4.41-9.24-4.01-14.49,12.11,2.85,6.29,17.56,12.56,25.93,9.02,12.05,5.41-20.45,12.42-15.93,3.98,2.57-2.44,20.44-2.87,24.6-.63,6.05,1.25,9.89-.81,16.21-2.53,7.75-8.19,10.05-13.3,15.7,1.48,1.6,4.39-1.5,5.5-1.5h14.5c.29,9.37-7.77,15.34-15.99,17.49,6.59,13.38,15.27,38.87,30.75,44.25,12.81,4.45,52.27,2.4,65.46-2.02,11.68-3.91,11.33-15.75,14.28-25.71,5.9,6.08,9.24,15.15,6.56,23.55-1.02,3.19-4.83,6.31-4.96,7.08-.16.91,5.42,8.98,5.51,11.42,42.74-4.19,76.02-9.9,98.54-14.4,22.46-4.49,39.09-8.73,57.21-15.09,1.72-.6,3.4-1.21,5.03-1.8-.33-4.19,1.13-8.22,4.07-10.83,4.1-3.66,9.42-3.06,10.32-2.94,1.04-.9-6.84-9.55,2.02-11.32,6.94-1.38,11.79,5.21,13.54,5.18,1.86-.02,6.08-2.81,11.64-2.02,2.21.33,1.53,2.35,2.37,2.45,2.89.33,17.25-3.28,20.48-4.81,3.95-1.87,7.91-5.51,11.09-8.51l-13.84-.57c-1.18-13.77-2.96-25.65,9.23-35.2.69-2.95-2.34-.83-3.53-2.41-4.41-5.86,7.06-7.48,8.15-9.39,2.91-5.05-3.56-9.71-.29-17.31.78-1.78,13.7-10.95,16.42-12.43,12.43-6.75,26.54-8.69,39.66-2.72,12.91,5.88,24.78,23.44,39.62,25.09,2.28.25,1.57-2.19,3.78-3.88,14.08-10.79,25.3,13.76,10.45,18.5-8,2.55-8.5-2.71-12.43-3.87-6.28-1.88-26.88,6.22-32.61,10.76-.43,1.83,15.29,15.44,15.01,20.15l25.11-12.34c13.32-4.05,26.79-7.71,40.63-9.57l-2.36-33.82c11.66-8.63,17.11,10.72,20.8,12.5,3.19,1.53,7.07-.31,10.37,1.17,3.1,1.38,4.06,7,6.95,9.19,4.21,3.18,12.56,2.87,16.11,8.1-9.37,6.95-20.54,12.01-32.23,13.31l-2.34,23.02c2.22-1.25,4.44-2.16,6.91-2.89,3.42-1.01,15.1-4.03,17.87-4.03h23.65c-28.2,26.62-26.32,66.77-35.14,101.53-2.76,10.86-7.14,21.19-19.75,22.93-8.76,1.2-27.76-1.89-34.34.27-3.33,1.09-1.46,8.4-1.89,11.37Z"/>
</svg>